<?xml version="1.0" standalone="no"?>
<!DOCTYPE svg PUBLIC "-//W3C//DTD SVG 1.1//EN" "http://www.w3.org/Graphics/SVG/1.1/DTD/svg11.dtd" >
<svg xmlns="http://www.w3.org/2000/svg" xmlns:xlink="http://www.w3.org/1999/xlink" version="1.1">
<metadata></metadata>
<defs>
<font id="tex_gyre_termesbold_italic" horiz-adv-x="1024" >
<font-face units-per-em="2048" ascent="1628" descent="-420" />
<missing-glyph horiz-adv-x="512" />
<glyph unicode="IJ" horiz-adv-x="1677" d="M776 0h-606v51q74 9 106.5 38.5t57.5 109.5l252 919q20 78 20 125q0 31 -18.5 45.5t-65.5 20.5q-47 8 -65 10v51h610v-51q-78 -9 -110.5 -37.5t-57.5 -110.5l-233 -860q-37 -130 -37 -178q0 -43 30 -60.5t117 -21.5v-51zM1939 1319q-75 -9 -107 -37.5t-58 -110.5 l-263 -981q-54 -201 -158 -297t-270 -96q-135 0 -223 58t-88 149q0 61 37.5 102t93.5 41q54 0 91.5 -37t37.5 -92q0 -22 -4.5 -34.5t-21.5 -32.5q-21 -24 -21 -43q0 -37 55 -37q40 0 65.5 28t52 101.5t67.5 232.5l233 885q23 90 23 125q0 55 -86 66l-64 10v51h608v-51z" />
<glyph unicode="ij" horiz-adv-x="1187" d="M772 260q-107 -162 -178.5 -220t-163.5 -58q-63 0 -102 35.5t-39 93.5q0 45 26 141l119 440q15 66 15 82q0 60 -95 60h-26v55q240 18 413 57l-186 -684q-18 -79 -18 -106q0 -12 9 -21.5t21 -9.5q50 0 131 123l29 41zM829 1208q0 -57 -41 -97t-100 -40q-57 0 -96 40.5 t-39 100.5q0 54 40.5 95t94.5 41q58 0 99.5 -41.5t41.5 -98.5zM1110 49q-122 -473 -428 -473q-97 0 -156 43.5t-59 114.5q0 44 29.5 76t70.5 32t71 -29.5t30 -70.5q0 -27 -21 -57q-10 -15 -10 -21q0 -9 15 -16.5t34 -7.5q43 0 74 57.5t71 210.5l189 727q24 91 24 137 q0 62 -86 62h-40v55q171 15 251.5 26t173.5 31zM1436 1208q0 -57 -41.5 -97t-100.5 -40q-57 0 -96 40.5t-39 100.5q0 54 40.5 95t94.5 41q58 0 100 -41.5t42 -98.5z" />
<glyph unicode="fk" horiz-adv-x="1579" d="M762 920l61 243q-43 32 -43 80q0 35 31 78l12 22q0 15 -22.5 27t-50.5 12q-107 0 -183 -127q-56 -90 -114 -335h309zM1470 238q-76 -140 -138.5 -197t-139.5 -57q-95 0 -148.5 97.5t-103.5 358.5l-80 -55l-102 -385h-250l229 834h-301l-162 -668q-141 -586 -456 -586 q-89 0 -144 46t-55 120q0 51 28 80t79 29q43 0 69.5 -26t26.5 -69q0 -27 -21 -57q-12 -14 -12 -27q0 -11 12.5 -17.5t32.5 -6.5q37 0 62 29.5t49 103t59 225.5l189 824h-152l20 86h152q53 169 91 248.5t99 144.5q54 60 139.5 94.5t180.5 34.5q34 0 59.5 -3.5t120.5 -21.5 l27 -6l203 25l-244 -947q195 153 265.5 222.5t70.5 109.5q0 25 -22 34.5t-83 12.5v52h424v-52q-71 -9 -121.5 -37.5t-154.5 -117.5l-129 -113q21 -107 35.5 -174t28.5 -124.5t24 -87.5t22 -51t23 -27.5t26 -6.5q29 0 57.5 29t69.5 102z" />
<glyph unicode="ff" horiz-adv-x="1263" d="M862 1155q-39 31 -39 86q0 40 31 74q14 20 14 31q0 32 -53 32q-57 0 -106 -20t-78 -55q-49 -60 -78 -129.5t-80 -253.5h307q50 167 82 235zM1446 1266q0 -47 -29.5 -78t-75.5 -31q-43 0 -71.5 28.5t-28.5 71.5q0 28 23 64l10 22q0 12 -10 19.5t-25 7.5q-109 0 -186 -305 l-37 -145h188l-18 -86h-185q-83 -390 -117.5 -532.5t-76.5 -274.5q-45 -145 -83.5 -222.5t-92.5 -130.5q-54 -52 -96 -73t-105 -21q-92 0 -147.5 44t-55.5 118q0 44 32 77.5t73 33.5q39 0 70.5 -31t31.5 -68q0 -32 -24 -69l-9 -19q0 -9 11 -15.5t26 -6.5q48 0 66.5 45.5 t49.5 201.5q17 87 28 140l180 803h-309l-193 -789q-17 -72 -48 -137.5t-56.5 -102.5t-65.5 -88q-50 -64 -125 -100.5t-151 -36.5q-86 0 -142.5 45.5t-56.5 114.5q0 49 28 79.5t72 30.5t74.5 -28.5t30.5 -71.5q0 -27 -25 -55q-14 -17 -14 -27q0 -18 35 -18q48 0 79.5 24.5 t62.5 100t62 217.5l189 842h-154l21 86h155q55 162 96.5 241.5t104.5 145.5q58 63 147.5 98t188.5 35q81 0 145.5 -23.5t102.5 -64.5q101 78 227 78q94 0 148.5 -44.5t54.5 -119.5z" />
<glyph unicode="fi" horiz-adv-x="1138" d="M1053 260q-106 -161 -178 -219.5t-164 -58.5q-69 0 -107.5 35.5t-38.5 99.5q0 25 5 50.5t28 115.5l141 551h-307l-192 -789q-20 -80 -65.5 -174t-92.5 -154q-51 -64 -122 -100.5t-146 -36.5q-86 0 -142.5 45.5t-56.5 114.5q0 49 28 79.5t72 30.5t74.5 -28.5t30.5 -71.5 q0 -27 -25 -55q-14 -17 -14 -27q0 -18 35 -18q47 0 75 26.5t52.5 96.5t56.5 219l188 842h-153l20 86h156q55 162 96.5 241.5t104.5 145.5q58 63 147.5 98t188.5 35q129 0 209.5 -54.5t80.5 -140.5q0 -51 -32.5 -84t-83.5 -33t-85 32.5t-34 80.5q0 40 31 74q14 20 14 31 q0 32 -53 32q-57 0 -106.5 -20t-78.5 -55q-49 -59 -77 -128.5t-80 -254.5h241q66 0 221 14l97 6l-150 -580l-2 -8q-43 -153 -43 -194q0 -12 10 -22.5t21 -10.5q25 0 62.5 38t97.5 124z" />
<glyph unicode="fl" horiz-adv-x="1138" d="M1047 258q-104 -161 -173.5 -218.5t-160.5 -57.5q-66 0 -107 32.5t-41 85.5q0 31 10 76l162 658h-301l-162 -668q-141 -586 -456 -586q-89 0 -144 46t-55 120q0 51 28 80t79 29q43 0 69.5 -26t26.5 -69q0 -27 -21 -57q-12 -14 -12 -27q0 -11 12.5 -17.5t32.5 -6.5 q37 0 62 29.5t49 103t59 225.5l189 824h-152l20 86h152q53 169 91 248.5t99 144.5q54 60 139.5 94.5t180.5 34.5q34 0 59.5 -3.5t120.5 -21.5l27 -6l203 25l-310 -1233q-8 -31 -8 -41q0 -14 10.5 -24.5t24.5 -10.5q54 0 156 154zM762 920l61 243q-43 32 -43 80q0 35 31 78 l12 22q0 15 -22.5 27t-50.5 12q-107 0 -183 -127q-56 -90 -114 -335h309z" />
<glyph unicode="ffi" horiz-adv-x="1708" d="M874 1147q-51 33 -51 94q0 40 31 74q14 20 14 31q0 32 -53 32q-57 0 -106 -20t-78 -55q-49 -60 -78 -129.5t-80 -253.5h311q59 167 90 227zM1626 260q-106 -161 -178 -219.5t-164 -58.5q-69 0 -107 35.5t-38 99.5q0 39 32 166l142 551h-307l-193 -789q-58 -228 -137 -328 q-108 -137 -248 -137q-86 0 -142.5 45.5t-56.5 114.5q0 49 28 79.5t73 30.5q44 0 74 -28.5t30 -71.5q0 -28 -24 -55q-15 -18 -15 -27q0 -18 35 -18q52 0 69 33.5t45 170.5q6 26 9 42t9 43.5t11 52.5l189 842h-309l-193 -789q-17 -72 -48 -137.5t-56.5 -102.5t-65.5 -88 q-50 -64 -125 -100.5t-151 -36.5q-86 0 -142.5 45.5t-56.5 114.5q0 49 28 79.5t72 30.5t74.5 -28.5t30.5 -71.5q0 -27 -25 -55q-14 -17 -14 -27q0 -18 35 -18q48 0 79.5 24.5t62.5 100t62 217.5l189 842h-154l21 86h155q55 162 96.5 241.5t104.5 145.5q58 63 147.5 98 t188.5 35q86 0 153 -26t103 -71q124 97 297 97q129 0 210 -54.5t81 -140.5q0 -51 -33 -84t-84 -33t-85 32.5t-34 80.5q0 40 31 74q14 20 14 31q0 32 -53 32q-57 0 -106 -20t-78 -55q-49 -60 -78 -129.5t-80 -253.5h242q66 0 221 14l96 6l-149 -580l-2 -8q-43 -153 -43 -194 q0 -12 9.5 -22.5t20.5 -10.5q25 0 62.5 38t97.5 124z" />
<glyph unicode="ffl" horiz-adv-x="1677" d="M1331 920l62 243q-43 32 -43 80q0 36 30 78l13 22q0 15 -23 27t-51 12q-106 0 -182 -127q-32 -52 -57.5 -126t-57.5 -209h309zM866 1153q-43 32 -43 88q0 40 31 74q14 20 14 31q0 32 -53 32q-57 0 -106 -20t-78 -55q-49 -60 -78 -129.5t-80 -253.5h309q57 176 84 233z M1616 258q-104 -161 -173.5 -218.5t-160.5 -57.5q-66 0 -106.5 32.5t-40.5 85.5q0 31 10 76l162 658h-301l-162 -668q-73 -305 -168 -445.5t-248 -140.5q-89 0 -144 46t-55 120q0 51 28 80t79 29q43 0 69.5 -26t26.5 -69q0 -28 -20 -57q-13 -16 -13 -27t12.5 -17.5 t32.5 -6.5q12 0 21 2.5t16.5 9t12.5 15t11 26t10 34.5t10.5 47t12 59.5t15.5 75t20 89.5l189 824h-309l-193 -789q-17 -72 -48 -137.5t-56.5 -102.5t-65.5 -88q-50 -64 -125 -100.5t-151 -36.5q-86 0 -142.5 45.5t-56.5 114.5q0 49 28 79.5t72 30.5t74.5 -28.5t30.5 -71.5 q0 -27 -25 -55q-14 -17 -14 -27q0 -18 35 -18q48 0 79.5 24.5t62.5 100t62 217.5l189 842h-154l21 86h155q55 162 96.5 241.5t104.5 145.5q58 63 147.5 98t188.5 35q168 0 248 -86q115 88 276 88q47 0 181 -25l26 -6l203 25l-309 -1233q-9 -35 -9 -41q0 -14 11 -24.5 t24 -10.5q54 0 156 154z" />
<glyph unicode=" "  horiz-adv-x="512" />
<glyph unicode="&#x09;" horiz-adv-x="512" />
<glyph unicode="&#xa0;" horiz-adv-x="512" />
<glyph unicode="!" horiz-adv-x="796" d="M758 1251q0 -41 -12 -75.5t-52 -106.5q-171 -335 -293 -651l-59 16q96 504 109 725q3 66 7.5 93t16.5 55q46 94 141 94q63 0 102.5 -41.5t39.5 -108.5zM436 119q0 -61 -44 -103.5t-107 -42.5q-64 0 -106 41.5t-42 104.5q0 64 43.5 108.5t106.5 44.5q59 0 104 -46t45 -107 z" />
<glyph unicode="&#x22;" horiz-adv-x="1136" d="M565 1303q0 -23 -4 -36.5t-26 -60.5l-5 -10l-168 -381h-83l32 438q5 59 53.5 104.5t108.5 45.5q38 0 65 -29.5t27 -70.5zM1098 1303q0 -22 -4 -35.5t-27 -61.5l-4 -10l-168 -381h-84l33 438q5 59 53.5 104.5t108.5 45.5q38 0 65 -29.5t27 -70.5z" />
<glyph unicode="#" d="M1092 1004l-41 -150h-199l-111 -274h179l-41 -150h-199l-174 -430h-160l174 430h-231l-174 -430h-160l174 430h-197l41 150h217l111 274h-197l41 150h215l179 430h157l-176 -430h232l178 430h157l-176 -430h181zM692 854h-231l-111 -274h232z" />
<glyph unicode="$" d="M885 412q0 -111 -61.5 -206t-166.5 -150.5t-227 -55.5h-18h-47l-58 -205h-106l59 219q-96 23 -157.5 56t-143.5 106l86 291l45 -12q5 -166 44.5 -243t146.5 -126l151 535q-163 125 -216.5 199.5t-53.5 178.5q0 159 115 266t286 107q33 0 78 -4l37 133h102l-41 -147 q113 -20 242 -101l37 -28l-86 -273l-43 11q2 23 2 61q0 106 -40 165.5t-132 90.5l-121 -440q173 -150 230 -235t57 -193zM621 1300q-12 5 -31 5q-103 0 -164 -53t-61 -142q0 -62 31 -109t112 -108zM662 322q0 72 -30 122t-114 117l-137 -495h33q111 0 179.5 70.5t68.5 185.5 z" />
<glyph unicode="%" horiz-adv-x="1705" d="M1624 532q0 -117 -47.5 -236t-130.5 -206q-49 -52 -116 -81t-136 -29q-123 0 -197.5 77t-74.5 205q0 103 53.5 212.5t142.5 187.5q123 108 266 108q107 0 173.5 -66t66.5 -172zM1554 524q0 60 -29 99.5t-75 42.5q-78 3 -156 -113q-45 -70 -87 -184t-46 -179 q-3 -49 27 -82.5t76 -33.5q113 0 206 170q84 153 84 280zM1319 1417l-807 -1433h-115l715 1269q-131 -55 -244 -55q-32 0 -88 10q-1 -136 -30 -233t-95 -193q-123 -180 -311 -180q-117 0 -190.5 79t-73.5 202q0 125 66 243.5t173 191.5t220 73q44 0 78 -13t79 -45 q79 -57 197 -57q97 0 178.5 33t167.5 108h80zM711 1182q0 34 -8.5 44t-51.5 27q-17 7 -33 23q-19 16 -30 16q-28 3 -63.5 -26t-69.5 -82q-51 -76 -93 -191t-47 -186q-3 -47 26 -79t73 -32q70 0 139.5 72.5t113.5 186t44 227.5z" />
<glyph unicode="&#x26;" horiz-adv-x="1593" d="M1432 164q-93 -113 -170 -157t-179 -44q-82 0 -148.5 30t-135.5 97q-101 -69 -193 -99t-200 -30q-177 0 -286.5 95t-109.5 247q0 70 30.5 140.5t86.5 129.5q55 56 126 96.5t249 116.5q-23 120 -23 189q0 188 105 305t274 117q123 0 203 -65.5t80 -168.5t-90.5 -188.5 t-282.5 -163.5q19 -114 66 -239t110 -226q88 109 120 165t32 99q0 34 -24.5 51t-90.5 27v51h434v-51q-37 -7 -55 -11.5t-48.5 -24.5t-47.5 -37t-63 -73t-84.5 -107t-121.5 -163q60 -78 113 -112.5t113 -34.5q41 0 77 19t80 63zM741 164q-86 133 -134.5 250.5t-88.5 287.5 q-129 -63 -182 -134t-53 -179q0 -122 74 -202.5t186 -80.5q87 0 198 58zM977 1192q0 65 -28 101t-79 36q-69 0 -106 -63t-37 -181q0 -49 23 -196q121 69 174 140t53 163z" />
<glyph unicode="'" horiz-adv-x="569" d="M549 1303q0 -22 -4 -35.5t-27 -61.5l-4 -10l-168 -381h-84l33 438q5 59 53.5 104.5t108.5 45.5q38 0 65 -29.5t27 -70.5z" />
<glyph unicode="(" horiz-adv-x="681" d="M395 -336l-47 -31q-155 213 -223 397t-68 394q0 220 82 403q70 159 182.5 281.5t346.5 294.5l37 -41q-126 -115 -193.5 -203.5t-122.5 -212.5q-66 -148 -102.5 -336.5t-36.5 -384.5q0 -179 30 -295.5t115 -265.5z" />
<glyph unicode=")" horiz-adv-x="681" d="M555 612q0 -305 -170 -559q-78 -117 -170.5 -205.5t-269.5 -214.5l-35 41q119 109 179.5 185.5t111.5 181.5q73 152 117 363.5t44 412.5q0 175 -32 296t-115 259l47 31q85 -116 126.5 -187.5t78.5 -164.5q88 -221 88 -439z" />
<glyph unicode="*" d="M934 795q0 -44 -31 -77.5t-72 -33.5q-38 0 -66 21.5t-60 76.5q-34 55 -58.5 80t-75.5 56l-22 12v-25q0 -90 53 -182q35 -58 35 -102q0 -47 -29 -76t-76 -29q-46 0 -74 29t-28 78q0 42 35 100q53 92 53 182v25l-22 -12q-51 -31 -75.5 -56t-58.5 -80q-32 -55 -60 -76.5 t-66 -21.5q-41 0 -72 33.5t-31 77.5q0 55 53 84q39 20 109 20q72 3 103 10.5t81 36.5l23 12l-23 13q-51 29 -83.5 37t-100.5 10q-45 0 -66 4.5t-43 17.5q-53 35 -53 84q0 43 31 77t69 34q37 0 66 -22t63 -76q37 -59 62.5 -85.5t71.5 -52.5l22 -12v25q0 94 -53 184 q-35 58 -35 100q0 49 28 78t74 29q48 0 76.5 -29t28.5 -78q0 -42 -35 -100q-53 -90 -53 -184v-25l22 12q46 26 71.5 52.5t62.5 85.5q34 54 63 76t66 22q39 0 69.5 -34t30.5 -77q0 -49 -53 -84q-22 -13 -43.5 -17.5t-65.5 -4.5q-68 -2 -100.5 -10t-83.5 -37l-23 -13l23 -12 q50 -29 81 -36.5t103 -10.5q70 0 109 -20q53 -29 53 -84z" />
<glyph unicode="+" horiz-adv-x="1167" d="M1053 422h-404v-404h-180v404h-403v180h403v404h180v-404h404v-180z" />
<glyph unicode="," horiz-adv-x="512" d="M295 74q0 -125 -106.5 -247t-284.5 -200l-27 49q242 128 242 240q0 22 -13.5 39.5t-48.5 40.5q-46 31 -64 59.5t-18 69.5q0 64 41.5 106.5t104.5 42.5q78 0 126 -55t48 -145z" />
<glyph unicode="-" horiz-adv-x="681" d="M508 340h-504l49 238h502z" />
<glyph unicode="." horiz-adv-x="512" d="M326 125q0 -64 -44.5 -108t-109.5 -44q-63 0 -106 43.5t-43 106.5q0 66 43.5 109.5t109.5 43.5q62 0 106 -44t44 -107z" />
<glyph unicode="/" horiz-adv-x="569" d="M700 1403l-653 -1440h-178l653 1440h178z" />
<glyph unicode="0" d="M977 905q0 -245 -108.5 -491.5t-266.5 -360.5q-113 -82 -240 -82q-148 0 -237.5 123.5t-89.5 327.5q0 227 87 454t230 375q145 148 318 148q139 0 223 -135t84 -359zM565 326q32 97 90.5 323t85.5 352q25 143 25 191q0 69 -26.5 108t-73.5 39q-59 0 -109 -73t-108 -244 q-72 -204 -137.5 -482t-65.5 -374q0 -61 28 -98t74 -37q64 0 113.5 67.5t103.5 227.5z" />
<glyph unicode="1" d="M717 0h-707v47q110 0 164 33.5t80 118.5l262 940q8 36 8 49q0 67 -94 67q-63 0 -129 -10l4 47q286 42 553 107l-315 -1147q-25 -91 -25 -111q0 -57 38.5 -74.5t160.5 -19.5v-47z" />
<glyph unicode="2" d="M858 391l-162 -391h-751v49l184 184q289 287 399.5 451t110.5 305q0 106 -50 165.5t-140 59.5q-79 0 -145 -42.5t-128 -133.5l-45 25q44 87 79 135.5t85 91.5q127 109 283 109q141 0 238 -99.5t97 -244.5q0 -235 -295 -486l-401 -342h305q119 0 172.5 31t112.5 133h51z " />
<glyph unicode="3" d="M836 512q0 -147 -79 -271t-216 -196t-299 -72q-126 0 -199.5 44.5t-73.5 119.5q0 53 33 84t90 31q40 0 69 -20t64 -74q15 -21 27.5 -39t17 -25.5t6.5 -9.5q29 -29 82 -29q94 0 160 97t66 235q0 213 -152 287q-60 32 -170 37l8 45q198 41 292.5 117.5t94.5 195.5 q0 85 -48 134.5t-130 49.5q-72 0 -123 -33t-114 -120l-43 26q96 143 194.5 208t222.5 65q132 0 219 -79.5t87 -199.5q0 -183 -220 -295l-24 -12q88 -66 123 -133t35 -168z" />
<glyph unicode="4" d="M928 508l-56 -201h-139l-86 -307h-262l84 307h-500l58 215l874 877h129l-244 -891h142zM686 1081l-577 -573h415z" />
<glyph unicode="5" d="M844 514q0 -150 -78.5 -274.5t-216 -195.5t-303.5 -71q-122 0 -195.5 44.5t-73.5 117.5q0 52 33.5 84.5t87.5 32.5q46 0 77.5 -23.5t68.5 -85.5q32 -53 54 -70.5t56 -17.5q109 0 192 100t83 232q0 100 -54.5 184.5t-152.5 133.5q-56 29 -113.5 40.5t-158.5 16.5l268 608 h579l-73 -223h-521l-69 -156q145 -31 205 -51t114 -57q92 -62 141.5 -157t49.5 -212z" />
<glyph unicode="6" d="M907 514q0 -149 -67 -274.5t-183 -198t-254 -72.5q-167 0 -261.5 114t-94.5 316q0 223 115 431t319 350q120 85 234.5 129t314.5 82l12 -50q-206 -78 -340.5 -197t-228.5 -306q69 26 127 26q143 0 225 -93.5t82 -256.5zM514 115q51 97 95 265t44 265q0 71 -33.5 104 t-105.5 33q-51 0 -74 -24t-57 -113q-107 -276 -107 -450q0 -160 113 -160q81 0 125 80z" />
<glyph unicode="7" d="M1075 1370l-780 -1370h-189l680 1139h-272q-160 0 -223.5 -29t-120.5 -129h-53l178 389h780z" />
<glyph unicode="8" d="M858 395q0 -183 -128.5 -302.5t-326.5 -119.5q-177 0 -287 94t-110 246q0 130 89 222.5t280 160.5v11q-87 91 -119.5 158.5t-32.5 156.5q0 163 111 270t280 107q86 0 167 -33t130 -88q64 -70 64 -172q0 -109 -67 -184t-226 -142v-10q95 -102 135.5 -189t40.5 -186z M627 301q0 79 -33.5 139t-165.5 217q-121 -85 -172 -168.5t-51 -199.5q0 -119 54 -186.5t149 -67.5q96 0 157.5 74.5t61.5 191.5zM784 1114q0 98 -45.5 157.5t-120.5 59.5q-73 0 -120 -55.5t-47 -140.5q0 -77 39.5 -144t144.5 -166q88 91 118.5 150.5t30.5 138.5z" />
<glyph unicode="9" d="M973 975q0 -224 -116.5 -435t-317.5 -352q-118 -84 -233.5 -127.5t-317.5 -80.5l-13 51q379 115 568 499q-62 -28 -125 -28q-138 0 -223.5 94t-85.5 248q0 153 66 280.5t182 201t255 73.5q152 0 242 -90q57 -58 88 -145.5t31 -188.5zM655 772q49 146 68.5 238.5 t19.5 181.5q0 141 -100 141q-99 0 -162 -129q-48 -98 -83.5 -241.5t-35.5 -241.5q0 -63 35 -97t101 -34q65 0 90.5 29.5t66.5 152.5z" />
<glyph unicode=":" horiz-adv-x="681" d="M350 125q0 -64 -44 -108t-109 -44q-64 0 -107 43.5t-43 108.5t44 108t110 43q61 0 105 -44.5t44 -106.5zM541 788q0 -64 -44.5 -107.5t-109.5 -43.5q-64 0 -106.5 43t-42.5 108t43.5 108.5t109.5 43.5q61 0 105.5 -45t44.5 -107z" />
<glyph unicode=";" horiz-adv-x="681" d="M367 72q0 -125 -107 -247t-285 -200l-26 49q241 128 241 240q0 22 -13 39.5t-48 40.5q-46 31 -64 59t-18 70q0 64 41.5 106.5t104.5 42.5q78 0 126 -55t48 -145zM541 788q0 -64 -44.5 -107.5t-109.5 -43.5q-64 0 -106.5 43t-42.5 108t43.5 108.5t109.5 43.5 q61 0 105.5 -45t44.5 -107z" />
<glyph unicode="&#x3c;" horiz-adv-x="1167" d="M963 4l-848 428v160l848 428v-201l-607 -307l607 -307v-201z" />
<glyph unicode="=" horiz-adv-x="1167" d="M1053 594h-987v180h987v-180zM1053 250h-987v180h987v-180z" />
<glyph unicode="&#x3e;" horiz-adv-x="1167" d="M963 432l-848 -428v201l606 307l-606 307v201l848 -428v-160z" />
<glyph unicode="?" d="M963 1106q0 -97 -60 -179t-198 -171l-136 -88q-58 -38 -91.5 -86.5t-76.5 -155.5l-59 14q6 84 40 160t105 166l84 104q131 164 131 306q0 75 -37.5 118t-103.5 43q-50 0 -88.5 -23t-38.5 -54q0 -17 23 -46q37 -48 37 -92q0 -51 -36.5 -87t-88.5 -36q-54 0 -89.5 39.5 t-35.5 98.5q0 116 100.5 190t257.5 74q162 0 261.5 -81.5t99.5 -213.5zM465 125q0 -64 -44.5 -108t-109.5 -44q-64 0 -106.5 43.5t-42.5 108.5t43.5 108t109.5 43q61 0 105.5 -44.5t44.5 -106.5z" />
<glyph unicode="@" horiz-adv-x="1703" d="M1577 793q0 -133 -52 -249t-140.5 -184.5t-190.5 -68.5q-75 0 -131 45t-59 108q-54 -71 -122 -111t-134 -40q-80 0 -135.5 67.5t-55.5 165.5q0 112 46 225t124 197q104 107 242 107q55 0 83 -21t64 -86l23 78h145l-133 -526q-4 -12 -4 -41q0 -44 19.5 -68t56.5 -24 q95 0 168 108q42 64 67 145.5t25 155.5q0 147 -79 273t-215 200t-294 74q-167 0 -299.5 -85t-206.5 -236.5t-74 -342.5q0 -173 77.5 -310.5t215.5 -214.5t312 -77q107 0 196 21.5t209 77.5l27 -72q-151 -70 -246 -95.5t-207 -25.5q-214 0 -390.5 93.5t-278 256t-101.5 359.5 q0 201 101.5 369t277 265t385.5 97q143 0 270 -47.5t217.5 -128.5t143.5 -194t53 -240zM1081 823q3 61 -19.5 95.5t-66.5 37.5q-40 3 -92 -28t-94 -84q-96 -120 -96 -281q0 -80 33 -127t88 -47q45 0 89 36.5t78 102.5q32 63 54.5 145.5t25.5 149.5z" />
<glyph unicode="A" horiz-adv-x="1366" d="M1214 0h-622v51q98 9 130 33t32 88q0 34 -17 147q-7 34 -14 107h-440l-121 -209q-31 -54 -31 -94q0 -37 31.5 -54.5t101.5 -17.5v-51h-401v51q55 12 87.5 40t82.5 104l762 1204h51l196 -1172q8 -44 12.5 -67t14.5 -45t18.5 -31t28.5 -17t40 -10.5t58 -5.5v-51zM709 508 l-76 498l-303 -498h379z" />
<glyph unicode="B" horiz-adv-x="1366" d="M1171 422q0 -197 -161.5 -309.5t-442.5 -112.5h-616v51q73 9 106 39t58 109l250 919q22 80 22 117q0 18 -9.5 35.5t-21.5 25.5q-33 19 -118 23v51h557q238 0 360.5 -75.5t122.5 -223.5q0 -64 -25.5 -121.5t-70.5 -95.5q-55 -45 -115.5 -71.5t-175.5 -55.5 q157 -51 218.5 -118t61.5 -187zM858 469q0 117 -72 174q-32 25 -83.5 35.5t-151.5 13.5l-135 -499q-10 -36 -10 -60q0 -35 28 -51t88 -16q134 0 215 81q55 55 88 143t33 179zM977 1098q0 207 -178 207q-50 0 -71 -18t-36 -73l-125 -460q115 5 176.5 18t108.5 43 q125 81 125 283z" />
<glyph unicode="C" horiz-adv-x="1366" d="M1180 268q-49 -67 -82 -102.5t-78 -69.5q-177 -133 -397 -133q-250 0 -403.5 146.5t-153.5 384.5q0 183 66.5 351.5t179 290.5t267 194.5t322.5 72.5q132 0 268 -43q53 -17 78 -17q23 0 39.5 13t38.5 47h61l-104 -479l-65 12q6 41 6 72q0 150 -72 236.5t-197 86.5 q-127 0 -245 -98q-139 -122 -233.5 -353.5t-94.5 -451.5q0 -167 81 -261.5t226 -94.5q100 0 184 37q66 28 118.5 71.5t127.5 132.5z" />
<glyph unicode="D" horiz-adv-x="1478" d="M1403 811q0 -173 -69 -323.5t-189.5 -257.5t-289.5 -168.5t-363 -61.5h-586v51q73 9 107 39.5t57 108.5l247 913q25 94 25 121q0 37 -18.5 53.5t-67.5 22.5l-63 10v51h593q290 0 453.5 -148t163.5 -411zM1102 936q0 187 -84 279t-254 92q-51 0 -77 -17.5t-36 -60.5 l-262 -971l-2 -8q-25 -76 -25 -111q0 -37 26 -53t85 -16q149 0 260.5 59t196.5 182q79 118 125.5 286.5t46.5 338.5z" />
<glyph unicode="E" horiz-adv-x="1366" d="M1200 397l-121 -397h-1134v51q79 12 109 39t55 109l251 919q21 82 21 125q0 31 -19.5 46.5t-66.5 21.5l-64 8v51h1106l-88 -389l-55 10q0 95 -13 143t-48 85q-86 86 -316 86q-63 0 -88.5 -18.5t-40.5 -72.5l-125 -456q72 -1 118.5 1.5t89 11.5t68.5 22t52.5 39.5t46.5 59 t45 83.5l57 -8l-151 -559l-58 10q9 58 9 90q0 106 -60 143.5t-235 40.5l-115 -428q-31 -67 -31 -129q0 -37 29.5 -53t95.5 -16q270 0 439 124q56 41 94.5 86t91.5 132z" />
<glyph unicode="F" horiz-adv-x="1366" d="M1264 981l-56 10q0 87 -12 135.5t-41 83.5q-86 95 -309 95q-63 0 -88.5 -18.5t-40.5 -72.5l-125 -456q72 1 116.5 3t86 11.5t65 22t49 39t44 58t44.5 83.5l58 -8l-152 -559l-57 10q8 52 8 90q0 104 -58.5 142.5t-222.5 41.5l-110 -411l-8 -31q-23 -76 -23 -109 q0 -47 30 -65.5t116 -24.5v-51h-605v51q79 12 109 39t55 109l252 919q21 82 21 125q0 31 -19.5 46.5t-66.5 21.5l-64 8v51h1092z" />
<glyph unicode="G" horiz-adv-x="1478" d="M1446 623q-81 -6 -107 -33t-55 -135l-98 -371l-58 -27q-87 -41 -222.5 -67.5t-256.5 -26.5q-270 0 -438 152.5t-168 398.5q0 234 123 447.5t326 332.5q189 109 426 109q131 0 253 -43q53 -19 74 -19q30 0 49.5 14t36.5 48h64l-105 -453l-59 8q-3 104 -16.5 160t-47.5 107 q-34 50 -91.5 77t-129.5 27q-145 0 -264 -104q-138 -122 -229 -348t-91 -451q0 -187 86.5 -286t249.5 -99q60 0 115.5 17.5t77.5 43.5q7 11 59 187q38 125 49 173t11 87q0 13 -8 28t-17 21q-31 16 -127 25v53h588v-53z" />
<glyph unicode="H" horiz-adv-x="1593" d="M1346 0h-650v51q103 6 144 35.5t63 112.5l131 475h-489l-103 -371l-8 -33q-26 -82 -26 -131q0 -50 25.5 -65.5t123.5 -22.5v-51h-606v51q76 10 107.5 39t56.5 109l250 919q22 78 22 119q0 34 -18.5 50t-67.5 22l-63 10v51h649v-51q-99 -3 -140.5 -33t-66.5 -115 l-111 -407h490l96 354q21 82 21 125q0 31 -18.5 45.5t-65.5 20.5l-66 10v51h610v-51q-78 -11 -109.5 -38.5t-56.5 -109.5l-223 -813l-12 -45q-39 -133 -39 -178q0 -44 32.5 -62.5t117.5 -21.5v-51z" />
<glyph unicode="I" horiz-adv-x="796" d="M541 0h-607v51q74 9 106.5 38.5t57.5 109.5l252 919q21 82 21 125q0 31 -18.5 45.5t-65.5 20.5q-46 8 -66 10v51h610v-51q-78 -9 -110 -37.5t-57 -110.5l-234 -860q-37 -130 -37 -178q0 -43 30.5 -60.5t117.5 -21.5v-51z" />
<glyph unicode="J" d="M1073 1319q-75 -9 -107.5 -37.5t-58.5 -110.5l-262 -981q-54 -201 -158 -297t-270 -96q-135 0 -223 58t-88 149q0 61 37.5 102t93.5 41q54 0 91.5 -37t37.5 -92q0 -22 -5 -34.5t-22 -32.5q-20 -22 -20 -43q0 -37 55 -37q40 0 65 28t51 101t68 233l234 885q22 86 22 125 q0 55 -86 66l-63 10v51h608v-51z" />
<glyph unicode="K" horiz-adv-x="1366" d="M1253 0h-573v51l55 6q78 6 78 49q0 28 -27 89l-231 495l-137 -510q-4 -20 -4 -35q0 -51 27.5 -69.5t107.5 -24.5v-51h-592v51q75 9 107 38t57 110l250 919q22 78 22 119q0 34 -18.5 50t-67.5 22l-63 10v51h635v-51q-90 -7 -129 -37.5t-64 -110.5l-127 -466l404 358 q87 81 122 126t35 75q0 23 -16.5 34.5t-54.5 16.5l-43 4v51h432v-51q-68 -9 -98 -24t-95 -74l-442 -406l321 -692q17 -37 43.5 -51.5t85.5 -20.5v-51z" />
<glyph unicode="L" horiz-adv-x="1251" d="M1208 397l-121 -397h-1132v51q74 9 106.5 38.5t57.5 109.5l252 919q20 78 20 125q0 31 -18.5 45.5t-65.5 20.5q-47 8 -65 10v51h649v-51q-102 -6 -142 -34.5t-65 -113.5l-264 -978q-10 -38 -10 -66q0 -32 31 -46.5t100 -14.5q261 0 432 124q58 43 97 88.5t89 129.5z" />
<glyph unicode="M" horiz-adv-x="1820" d="M1587 0h-639v51q99 6 139.5 35.5t65.5 112.5l256 950l-768 -1174h-57l-138 1145l-206 -755q-39 -137 -39 -189q0 -63 33 -88t131 -37v-51h-424v51q31 7 48.5 12.5t36 21.5t29 32t27 55t29.5 78.5t36 114.5l224 763q22 83 22 119q0 43 -25 55.5t-122 16.5v51h452l111 -983 l635 983h434v-51q-77 -9 -110 -38.5t-56 -109.5l-252 -919q-20 -53 -20 -113q0 -49 28.5 -66t118.5 -22v-51z" />
<glyph unicode="N" horiz-adv-x="1478" d="M1532 1319q-25 -6 -40 -10t-31.5 -13t-25.5 -16.5t-22 -26.5t-20.5 -36t-20 -52.5t-22.5 -68t-27 -90.5l-293 -1037h-57l-527 1125l-202 -729q-37 -127 -37 -193q0 -60 36.5 -86.5t127.5 -34.5v-51h-426v51q31 6 49 11.5t37 21t30 32t27 55t29 79t35 115.5l245 841 q-29 68 -57.5 87t-112.5 26v51h400l440 -952l164 588q37 135 37 192q0 59 -37 86.5t-127 34.5v51h428v-51z" />
<glyph unicode="O" horiz-adv-x="1478" d="M1415 930q0 -229 -120.5 -456t-315.5 -365q-202 -146 -440 -146q-217 0 -350.5 135t-133.5 355q0 218 123 444t314 360q208 146 428 146q214 0 354.5 -134.5t140.5 -338.5zM1120 1090q0 109 -57.5 176t-149.5 67q-104 0 -191 -71t-167 -220q-80 -150 -142.5 -380.5 t-62.5 -380.5q0 -115 56 -181.5t153 -66.5q165 0 305 209q100 153 178 410t78 438z" />
<glyph unicode="P" horiz-adv-x="1251" d="M1255 1053q0 -184 -152 -294t-407 -110q-76 0 -166 10l-110 -407q-21 -74 -21 -121q0 -41 31 -58.5t117 -21.5v-51h-602v51q79 12 109 39t55 109l251 919q21 82 21 125q0 31 -19.5 46.5t-66.5 21.5l-64 8v51h588q214 0 325 -81t111 -236zM911 893q45 105 45 225 q0 89 -45 138t-127 49q-53 0 -79 -29q-9 -14 -23 -62l-131 -489q70 -4 86 -4q109 0 171.5 39t102.5 133z" />
<glyph unicode="Q" horiz-adv-x="1478" d="M1341 -121q-124 -168 -243 -236.5t-287 -68.5q-115 0 -279 53q-138 43 -213 43q-50 0 -99 -12t-134 -45l-29 49l320 266q20 16 29 25q2 2 10 14q-8 11 -29 19q-82 29 -115 47.5t-73 56.5q-69 65 -106.5 153.5t-37.5 188.5q0 146 47 291.5t130.5 266t191.5 214.5 t237 146.5t259 52.5q215 0 355 -135t140 -342q0 -204 -96.5 -407t-265.5 -355q-119 -106 -228.5 -146.5t-308.5 -52.5l-94 -96q0 -13 78 -16q52 -3 121 -14.5t104 -22.5l86 -27q94 -31 170 -31q94 0 161 34t156 126zM1120 1090q0 109 -57.5 176t-149.5 67q-104 0 -191 -71 t-167 -220q-81 -149 -143 -379.5t-62 -383.5q0 -113 56 -178.5t153 -65.5q85 0 159 51t146 160q101 150 178.5 406t77.5 438z" />
<glyph unicode="R" horiz-adv-x="1366" d="M1233 0h-414l-219 678h-59l-113 -395q-29 -106 -29 -146q0 -46 29.5 -63t118.5 -23v-51h-606v51q74 9 106 38.5t57 109.5l252 919q21 82 21 125q0 31 -18.5 45.5t-65.5 20.5q-46 8 -66 10v51h566q244 0 363.5 -72.5t119.5 -220.5q0 -86 -44 -162.5t-126 -130.5 q-45 -30 -92 -47.5t-131 -34.5l170 -503q34 -91 64 -116t116 -32v-51zM967 1110q0 93 -48.5 144t-136.5 51q-47 0 -67 -18t-33 -73l-123 -471q186 3 260 52q67 41 107.5 127t40.5 188z" />
<glyph unicode="S" horiz-adv-x="1138" d="M958 379q0 -191 -127 -303.5t-342 -112.5q-111 0 -251 49q-68 23 -95 23q-29 0 -43.5 -13.5t-33.5 -58.5h-62l74 459l59 -4q6 -94 20.5 -149.5t45.5 -102.5q40 -63 105.5 -98t144.5 -35q149 0 219 119q39 67 39 139t-55 146.5t-177 166.5q-174 134 -243 266 q-27 59 -27 136q0 169 118.5 283t293.5 114q84 0 200 -39q76 -23 105 -23q64 0 90 54h61l-82 -412l-55 8q-20 180 -83.5 260t-186.5 80q-98 0 -155.5 -57.5t-57.5 -157.5q0 -69 31 -115t126 -118q189 -142 266.5 -256t77.5 -248z" />
<glyph unicode="T" horiz-adv-x="1251" d="M1257 977l-55 4q-7 170 -72 242.5t-210 74.5l-287 -1036q-23 -90 -23 -127q0 -49 30.5 -64t139.5 -20v-51h-678v51h29q78 0 121 34.5t65 113.5l304 1099q-157 -3 -261.5 -71t-183.5 -221l-51 14l78 350h1128z" />
<glyph unicode="U" horiz-adv-x="1478" d="M1524 1319q-31 -6 -49 -11.5t-37 -20.5t-30 -31t-27.5 -54.5t-29.5 -79.5t-36 -116l-135 -467q-47 -165 -88.5 -258t-94.5 -154q-138 -164 -403 -164q-201 0 -329 95t-128 245q0 109 70 359l112 421q31 124 31 156q0 34 -18.5 49.5t-67.5 22.5l-63 8v51h637v-51 q-95 -4 -131 -32t-62 -116l-168 -614q-39 -143 -48 -186t-9 -86q0 -97 66.5 -152t183.5 -55q167 0 272 123q47 59 84.5 144.5t77.5 232.5l119 428q39 140 39 196q0 55 -38 82t-126 35v51h426v-51z" />
<glyph unicode="V" horiz-adv-x="1366" d="M1464 1319q-82 -26 -121 -82l-804 -1274h-66l-156 1043q-9 61 -15.5 98t-14.5 74t-14 56t-17 38t-20.5 26t-26.5 13t-33.5 7t-42.5 1v51h610v-51q-104 -9 -129.5 -24t-25.5 -68q0 -21 2 -33l104 -821l389 618q121 192 121 260q0 29 -19.5 44t-62.5 20l-51 4v51h393v-51z " />
<glyph unicode="W" horiz-adv-x="1820" d="M1925 1321q-65 -9 -97 -37t-75 -113l-586 -1208h-59l-121 1002l-477 -1002h-59l-160 1186q-6 41 -9 62t-12 41.5t-16 28.5t-27 17t-37.5 12.5t-56.5 10.5v49h567v-51q-73 -9 -99 -31.5t-26 -77.5q0 -17 3 -32l79 -715l308 637q-1 92 -12.5 134t-40 60.5t-93.5 26.5v49 h551v-51q-82 -7 -105.5 -29t-23.5 -90q0 -24 12 -133l68 -604l319 670q31 61 31 94q0 56 -21.5 71t-107.5 21v51h383v-49z" />
<glyph unicode="X" horiz-adv-x="1366" d="M1200 0h-631v51q84 8 112 23t28 55q0 65 -78 289l-39 123l-275 -303q-61 -66 -61 -105q0 -70 133 -82v-51h-438v51q46 8 94.5 43.5t127 116t251.5 270.5l139 152l-172 557q-25 71 -60 95.5t-126 33.5v51h624v-51l-61 -6q-51 -6 -70.5 -22.5t-19.5 -51.5q0 -48 70 -264 q3 -7 34 -113l193 203q80 85 111.5 129t31.5 72q0 23 -16 34.5t-51 14.5l-45 4v51h415v-51q-55 -7 -94.5 -32t-107.5 -93l-408 -420l152 -485q31 -101 57 -146t64 -64.5t116 -27.5v-51z" />
<glyph unicode="Y" horiz-adv-x="1251" d="M1350 1319q-58 -12 -96 -41t-91 -100l-389 -547l-106 -391q-17 -62 -17 -93q0 -57 29 -74t129 -22v-51h-659v51q105 7 141.5 33.5t64.5 114.5l123 442l-180 549q-29 82 -50 100.5t-99 28.5v51h579v-51q-85 -3 -114 -18t-29 -58q0 -52 67 -244l39 -120l51 -158l265 381 q32 45 42.5 70t10.5 53q0 54 -27.5 72.5t-109.5 21.5v51h426v-51z" />
<glyph unicode="Z" horiz-adv-x="1251" d="M1135 397l-121 -397h-1037v59l889 1239h-159q-169 0 -282 -66t-235 -235l-57 9l117 364h958v-59l-889 -1239h144q259 0 393 92q123 83 223 244z" />
<glyph unicode="[" horiz-adv-x="681" d="M373 -326h-449l408 1706h409l-14 -71h-141q-55 0 -70 -18t-37 -111l-323 -1385v-4q0 -45 71 -45h160z" />
<glyph unicode="\" horiz-adv-x="569" d="M571 -37h-172l-401 1440h174z" />
<glyph unicode="]" horiz-adv-x="681" d="M293 -322h-408l15 72h139q55 0 69.5 17.5t36.5 107.5l324 1387v4q0 20 -19 31.5t-53 11.5h-159l14 71h450z" />
<glyph unicode="^" horiz-adv-x="1167" d="M1030 623h-182l-264 557l-265 -557h-182l365 747h164z" />
<glyph unicode="_" d="M1024 -256h-1024v102h1024v-102z" />
<glyph unicode="`" horiz-adv-x="681" d="M811 1022h-100l-215 178q-32 26 -38 46.5t9 49.5q22 40 65.5 68.5t83.5 28.5q28 0 47 -22t42 -81z" />
<glyph unicode="a" d="M932 229q-90 -134 -163.5 -196t-145.5 -62q-57 0 -97.5 39t-40.5 96q0 41 29 138q-87 -147 -164.5 -209t-171.5 -62q-100 0 -160.5 71.5t-60.5 188.5q0 93 33.5 196t91 193.5t128.5 164t151.5 116.5t154.5 43q66 0 102.5 -34.5t49.5 -112.5l37 121l227 14l-146 -483 q-69 -227 -69 -304q0 -30 24 -30q25 0 55 29t93 114zM621 764q0 41 -21 67t-55 29q-41 3 -90 -41.5t-95 -126.5q-63 -114 -107 -249t-44 -214q0 -47 26 -78.5t66 -31.5q42 0 86.5 39.5t85.5 113.5q60 105 104 252t44 240z" />
<glyph unicode="b" d="M909 692q0 -180 -93.5 -347t-246 -269.5t-315.5 -102.5q-101 0 -192 40t-91 83q0 14 41 166l193 670q80 281 80 321q0 62 -92 62h-37v55q234 26 426 62l-185 -672q77 103 140.5 144.5t142.5 41.5q101 0 165 -71t64 -183zM653 666q0 141 -90 141q-104 0 -182 -172 q-51 -108 -100 -275q-17 -60 -37.5 -152.5t-20.5 -111.5q0 -25 18 -40t46 -15q133 0 237 186q55 95 92 221.5t37 217.5z" />
<glyph unicode="c" horiz-adv-x="909" d="M709 252q-54 -77 -86 -114.5t-72 -71.5q-110 -93 -248 -93q-139 0 -226 86.5t-87 223.5q0 120 51 241.5t132 213.5t187.5 150t212.5 58q103 0 166.5 -51t63.5 -133q0 -65 -35 -104.5t-92 -39.5q-52 0 -85.5 30.5t-33.5 76.5q0 31 27 80q16 24 16 39t-13 25t-32 10 q-92 0 -176 -146q-56 -100 -91.5 -225t-35.5 -221q0 -82 41 -132.5t108 -50.5q66 0 121 41t129 144z" />
<glyph unicode="d" d="M920 236q-85 -135 -158 -197t-148 -62q-58 0 -90 33t-32 92q0 42 22 140q-88 -147 -165 -208t-175 -61q-94 0 -155.5 72t-61.5 184q0 117 52.5 247t132 232.5t180.5 170t192 67.5q44 0 77.5 -15t70.5 -52l36 139q60 220 60 242q0 57 -84 57h-43v55q259 20 428 60 l-228 -830q-116 -421 -116 -457q0 -9 6.5 -16.5t15.5 -7.5q46 0 137 147zM631 760q0 43 -21 71t-55 29q-46 3 -99 -43.5t-102 -134.5q-56 -100 -97.5 -224.5t-45.5 -207.5q-3 -54 21.5 -91.5t62.5 -37.5q90 0 176 151q54 99 107 260t53 228z" />
<glyph unicode="e" horiz-adv-x="909" d="M709 256q-92 -153 -182 -218t-208 -65q-134 0 -221.5 85.5t-87.5 215.5q0 124 51 247t132.5 216t189.5 151t217 58q94 0 154.5 -50t60.5 -128q0 -114 -110 -215q-77 -71 -167 -110t-249 -70q-13 -67 -13 -101q0 -168 132 -168q66 0 118 40.5t123 146.5zM627 809 q0 70 -58 70q-73 0 -141.5 -113.5t-124.5 -327.5q87 28 134.5 54.5t88.5 70.5q101 104 101 246z" />
<glyph unicode="f" horiz-adv-x="681" d="M913 1266q0 -47 -29 -78t-75 -31q-43 0 -71.5 28.5t-28.5 71.5q0 30 22 64l10 22q0 12 -9.5 19.5t-24.5 7.5q-110 0 -187 -305l-37 -145h189l-19 -86h-184q-84 -398 -118.5 -538.5t-76.5 -268.5q-48 -143 -88.5 -221.5t-95.5 -131.5q-98 -94 -233 -94q-92 0 -147.5 44 t-55.5 118q0 44 31.5 77.5t72.5 33.5q39 0 71 -31t32 -68q0 -30 -25 -69l-8 -19q0 -9 11 -15.5t26 -6.5q61 0 99 79.5t85 307.5l180 803h-149l18 86h150q45 156 82.5 235.5t101.5 149.5q113 125 279 125q93 0 147.5 -44.5t54.5 -119.5z" />
<glyph unicode="g" d="M768 -109q0 -135 -136.5 -221t-352.5 -86q-177 0 -281 58.5t-104 158.5q0 79 55 127q37 29 79 46t138 40q-68 23 -97.5 55t-29.5 81q0 57 35 92t162 106q-164 69 -164 225q0 155 132.5 264t321.5 109q71 0 122.5 -15t103.5 -52h227v-115h-137q12 -49 12 -86 q0 -93 -46.5 -168.5t-135.5 -126.5q-121 -70 -260 -70q-30 0 -64 9q-21 8 -41 8t-38.5 -24.5t-18.5 -49.5q0 -23 27.5 -44t76.5 -34l109 -31q168 -47 236.5 -104.5t68.5 -151.5zM545 -205q0 74 -84 117q-36 16 -121.5 45.5t-103.5 30.5q-12 1 -48.5 -20.5t-56.5 -41.5 q-59 -56 -59 -112q0 -70 63.5 -115t163.5 -45q117 0 181.5 37t64.5 104zM555 518q59 128 59 244q0 54 -26 87.5t-66 33.5q-77 0 -135 -101q-33 -59 -55.5 -141t-22.5 -143q0 -58 22.5 -89.5t63.5 -31.5q95 0 160 141z" />
<glyph unicode="h" horiz-adv-x="1138" d="M1020 260q-101 -158 -174.5 -218t-167.5 -60q-60 0 -97.5 33t-37.5 85q0 63 25 157t100 316q55 168 55 183q0 17 -13 30t-32 13q-81 0 -213 -193q-75 -110 -120.5 -223t-123.5 -383h-248l316 1161q16 60 16 86q0 70 -84 70l-45 -2v55q193 16 426 62l-219 -852 q152 216 241 291t193 75q72 0 114 -40.5t42 -112.5q0 -58 -62 -250l-118 -365q-7 -19 -7 -24q0 -11 11.5 -22t23.5 -11q20 0 54 37.5t100 132.5z" />
<glyph unicode="i" horiz-adv-x="569" d="M487 260q-107 -162 -178.5 -220t-163.5 -58q-63 0 -102 35.5t-39 93.5q0 41 27 141l119 440q14 61 14 82q0 60 -94 60h-27v55q241 18 414 57l-187 -684q-18 -79 -18 -106q0 -12 9.5 -21.5t21.5 -9.5q50 0 131 123l28 41zM545 1208q0 -57 -41.5 -97t-100.5 -40 q-57 0 -96 40.5t-39 100.5q0 54 40.5 95t94.5 41q58 0 100 -41.5t42 -98.5z" />
<glyph unicode="j" horiz-adv-x="569" d="M256 49q-122 -473 -428 -473q-97 0 -156 43.5t-59 114.5q0 44 29.5 76t70.5 32t71 -29.5t30 -70.5q0 -27 -21 -57q-10 -15 -10 -21q0 -9 15 -16.5t34 -7.5q43 0 74 57.5t71 210.5l189 727q24 91 24 137q0 62 -86 62h-41v55q171 15 252.5 26t173.5 31zM582 1208 q0 -57 -41.5 -97t-100.5 -40q-57 0 -96 40.5t-39 100.5q0 54 40.5 95t94.5 41q58 0 100 -41.5t42 -98.5z" />
<glyph unicode="k" d="M915 238q-76 -140 -138.5 -197t-139.5 -57q-95 0 -148.5 97.5t-103.5 358.5l-80 -55l-102 -385h-250l319 1161q17 64 17 86q0 70 -86 70l-43 -2v55q194 19 426 62l-252 -943q195 153 265.5 222.5t70.5 109.5q0 25 -22 34.5t-83 12.5v52h424v-52q-71 -9 -121.5 -37.5 t-154.5 -117.5l-129 -113q21 -107 35.5 -174t28.5 -124.5t24 -87.5t22 -51t23 -27.5t26 -6.5q29 0 57.5 29t69.5 102z" />
<glyph unicode="l" horiz-adv-x="569" d="M487 260q-106 -161 -178 -219.5t-166 -58.5q-63 0 -101 33.5t-38 88.5q0 73 70 324l153 541q68 249 68 291q0 57 -86 57q-20 0 -43 -2v55q189 17 428 62l-297 -1072q-45 -161 -45 -204q0 -12 9.5 -21.5t21.5 -9.5q27 0 62 36t97 128z" />
<glyph unicode="m" horiz-adv-x="1593" d="M1479 250q-89 -151 -161 -209.5t-167 -58.5q-66 0 -101.5 33t-35.5 96q0 100 73 313l93 268q14 47 14 62q0 17 -14 30t-33 13q-46 0 -105.5 -61.5t-123.5 -176.5q-56 -97 -87 -181t-120 -378h-246l133 424q92 280 92 328q0 19 -11 32t-26 13q-23 0 -60.5 -28t-72.5 -69 q-88 -104 -153.5 -257t-147.5 -443h-248l138 487q71 257 71 295q0 17 -9 28t-26.5 16t-34.5 6.5t-40 1.5v55q176 14 244.5 23t164.5 32l-131 -407q99 154 156 225.5t114 114.5q84 69 177 69q64 0 100.5 -37t36.5 -102q0 -76 -53 -213q127 202 213.5 277t191.5 75 q68 0 113 -41t45 -104q0 -86 -47 -219l-92 -273q-33 -104 -38 -123t-5 -36q0 -12 9.5 -20.5t22.5 -8.5q43 0 117 119q9 17 25 36z" />
<glyph unicode="n" horiz-adv-x="1138" d="M1010 250q-89 -149 -161.5 -208.5t-164.5 -59.5q-66 0 -102.5 32t-36.5 90q0 41 16.5 119t40.5 150l113 340q10 33 10 43q0 17 -15.5 30t-35.5 13q-28 0 -69.5 -30t-72.5 -71q-94 -123 -158.5 -276t-137.5 -422h-248l114 418q95 332 95 364q0 29 -23 39.5t-88 12.5v55 q192 7 410 55l-131 -405q102 151 147.5 209.5t103.5 113.5q87 84 205 84q72 0 111 -39t39 -114q0 -82 -53 -236l-74 -223q-51 -150 -51 -178q0 -15 8 -25t20 -10q26 0 54.5 30t89.5 125z" />
<glyph unicode="o" d="M903 637q0 -127 -49 -249.5t-128.5 -213t-187 -146t-219.5 -55.5q-141 0 -233 86t-92 217q0 126 49.5 249.5t130.5 215t189 148.5t219 57q141 0 231 -87t90 -222zM532 225q50 109 88.5 274t38.5 269q0 55 -26 87t-70 32q-101 0 -184 -154q-53 -97 -97 -276.5t-44 -296.5 q0 -60 27 -93.5t73 -33.5q108 0 194 192z" />
<glyph unicode="p" d="M913 698q0 -173 -83 -342.5t-215.5 -276t-268.5 -106.5q-32 0 -58.5 8.5t-80.5 36.5q-9 -36 -23 -84q-53 -194 -53 -233q0 -37 28 -50.5t105 -15.5v-55h-510v55q73 -1 99 24.5t55 127.5l205 795q45 164 45 200q0 29 -21 39t-90 13v55l395 57l-77 -235q91 128 165.5 181.5 t161.5 53.5q101 0 161 -67t60 -181zM657 684q3 50 -18.5 82t-60.5 35q-40 3 -88.5 -33t-86.5 -96q-23 -34 -41 -83t-53 -165q-78 -264 -78 -305q0 -31 23 -52.5t57 -21.5q104 0 199 168q56 101 98.5 236t48.5 235z" />
<glyph unicode="q" d="M760 -420h-547v55q95 4 126.5 26.5t57.5 102.5l129 437q-79 -126 -149 -177t-162 -51q-100 0 -156.5 71t-56.5 196q0 172 107 358q91 158 215 253t241 95q35 0 65.5 -12.5t45.5 -32.5q22 -28 35 -102l30 121h224l-174 -623q-164 -542 -164 -604q0 -31 24.5 -44.5 t79.5 -13.5h29v-55zM666 760q0 43 -19.5 70t-52.5 28q-43 3 -94.5 -42.5t-100.5 -131.5q-63 -109 -102 -234t-39 -212q0 -117 80 -117q93 0 180 151q54 95 101 250.5t47 237.5z" />
<glyph unicode="r" horiz-adv-x="796" d="M797 811q0 -64 -34 -106.5t-85 -42.5q-47 0 -92 51q-17 26 -33 26q-46 0 -133 -155q-42 -71 -72.5 -147.5t-75.5 -223.5l-67 -213h-248q209 709 209 782q0 29 -21 39t-90 13v55q184 15 250.5 24t159.5 33l-135 -428q121 244 196.5 336t153.5 92q53 0 85 -37t32 -98z" />
<glyph unicode="s" horiz-adv-x="796" d="M571 244q0 -116 -86.5 -193.5t-216.5 -77.5q-52 0 -129 25q-43 16 -63 16q-21 0 -37.5 -11t-22.5 -30h-55l45 340l55 -6q40 -272 197 -272q49 0 83 32t34 78q0 77 -115 213q-102 122 -133 184.5t-31 145.5q0 118 75 188t200 70q52 0 118 -26q50 -19 74 -19q23 0 33 7 t27 36h59l-47 -313l-55 4q-25 128 -68 186t-113 58q-49 0 -78.5 -29.5t-29.5 -79.5q0 -69 115 -201q165 -191 165 -325z" />
<glyph unicode="t" horiz-adv-x="569" d="M461 260q-101 -158 -174.5 -218t-165.5 -60q-65 0 -104.5 36.5t-39.5 96.5t50 231l139 488h-105v71q121 45 206 116.5t169 195.5h72l-80 -297h147v-86h-169l-68 -244q-111 -381 -111 -434q0 -12 10.5 -21.5t22.5 -9.5q51 0 156 164z" />
<glyph unicode="u" horiz-adv-x="1138" d="M1008 246q-80 -137 -159 -200.5t-171 -63.5q-68 0 -100.5 29.5t-32.5 92.5q0 76 49 226q-110 -154 -172.5 -224t-114.5 -97t-123 -27q-153 0 -153 151q0 70 43 221l82 273q28 92 28 149q0 31 -22 42.5t-92 15.5v55q137 6 370 47q12 2 58 10l-193 -631q-31 -98 -31 -135 q0 -51 43 -51q59 0 150 113q89 110 146.5 245t144.5 433h241l-159 -549q-52 -165 -52 -215q0 -15 8.5 -25t20.5 -10q27 0 61 34.5t87 116.5z" />
<glyph unicode="v" horiz-adv-x="909" d="M821 809q0 -134 -125 -315q-86 -125 -181.5 -231.5t-287.5 -289.5h-53l8 279q2 41 2 84q0 164 -15 289.5t-40 175.5q-10 20 -29 26.5t-67 6.5v55q216 32 317 57q33 -125 45.5 -256.5t18.5 -427.5q152 173 205 252t53 133q0 30 -41 76q-49 54 -49 104q0 47 34 83t80 36 q49 0 87 -41.5t38 -95.5z" />
<glyph unicode="w" horiz-adv-x="1366" d="M1257 819q0 -257 -557 -846h-55l-47 584l-231 -407l-117 -177h-55l2 93l2 71v10l-4 160q-5 214 -25.5 349.5t-52.5 160.5q-19 17 -84 17v55q250 43 317 57q35 -131 49 -250.5t19 -312.5l319 563h56l65 -680q134 157 189 241t55 130q0 31 -41 86q-43 60 -43 100 q0 49 34.5 86t80.5 37q51 0 87.5 -38t36.5 -89z" />
<glyph unicode="x" d="M862 223q-94 -135 -165 -192.5t-144 -57.5q-77 0 -121 70.5t-78 247.5l-49 -80q-91 -148 -141.5 -193t-126.5 -45q-58 0 -94.5 33.5t-36.5 87.5q0 49 32.5 82t79.5 33q32 0 82 -27q27 -16 43 -16q28 0 48.5 17t50.5 67l90 143l-62 316q-15 76 -40 106.5t-74 30.5 q-33 0 -72 -4v55l342 49q29 -42 46.5 -96t45.5 -186q121 169 186 225.5t138 56.5q47 0 83 -37.5t36 -87.5q0 -44 -34.5 -76t-80.5 -32q-31 0 -66 22q-40 19 -51 19q-35 0 -74.5 -39t-95.5 -129q-5 -7 -10 -15t-8 -12l65 -319q12 -60 29.5 -84.5t46.5 -24.5q27 0 51.5 22 t85.5 99z" />
<glyph unicode="y" horiz-adv-x="909" d="M803 815q0 -155 -155 -464t-355 -554q-85 -103 -179.5 -160t-179.5 -57q-54 0 -90.5 35.5t-36.5 87.5q0 44 31.5 78.5t71.5 34.5q63 0 123 -43q13 -10 35.5 -19.5t33.5 -9.5q26 0 66 30.5t72 75.5q51 71 51 142q0 101 -103 590q-47 220 -98 249q-19 11 -61 11v55 q175 16 305 49q58 -151 135 -567l25 -154q107 205 142.5 289t35.5 131q0 21 -10 36t-39 36q-37 28 -50.5 51t-13.5 61q0 46 35.5 81.5t81.5 35.5q51 0 89 -39t38 -92z" />
<glyph unicode="z" horiz-adv-x="796" d="M709 27q0 -79 -64 -133t-158 -54q-63 0 -124.5 23.5t-143.5 79.5q-98 67 -151 67q-28 0 -66 -28q-26 -21 -39 -29l-51 45l598 725h-297q-46 0 -74.5 -27.5t-54.5 -97.5l-57 6l88 316h639v-21l-576 -686q79 -34 124.5 -79t94.5 -138q26 -54 47.5 -75t49.5 -21q20 0 32.5 9 t12.5 23q0 10 -15 31q-26 30 -26 64q0 43 30.5 74.5t71.5 31.5q43 0 76 -32t33 -74z" />
<glyph unicode="{" horiz-adv-x="712" d="M430 -383q-213 4 -293 44.5t-80 141.5q0 46 21.5 143t50.5 183q53 161 53 238q0 54 -38.5 86t-133.5 57q136 29 193 78t88 160l94 366q47 167 155 229t353 62l-6 -25q-126 -23 -189 -80t-94 -174l-92 -350q-35 -131 -96.5 -184t-212.5 -82q115 -31 151.5 -61t36.5 -95 q0 -80 -59 -266q-62 -205 -62 -287q0 -70 37.5 -106t128.5 -53z" />
<glyph unicode="|" horiz-adv-x="450" d="M291 -326h-180v1706h180v-1706z" />
<glyph unicode="}" horiz-adv-x="712" d="M618 512q-136 -31 -192.5 -79t-87.5 -159l-94 -366q-47 -167 -155 -229t-353 -62l6 25q126 23 189 80t94 174l92 350q35 131 96.5 184t212.5 82q-115 31 -151.5 61t-36.5 95q0 69 57 266q63 207 63 289q0 68 -38 104t-127 53l6 25q144 -3 214 -17.5t109 -48.5 q49 -43 49 -114q0 -48 -21 -146.5t-50 -185.5q-54 -164 -54 -238q0 -54 38.5 -86t133.5 -57z" />
<glyph unicode="~" horiz-adv-x="1167" d="M1057 532q-70 -98 -125.5 -136t-126.5 -38q-50 0 -96 14.5t-119 53.5q-128 72 -230 72q-44 0 -74 -18.5t-67 -67.5l-108 94q51 89 110.5 130.5t136.5 41.5q56 0 109.5 -16t169.5 -68q75 -34 107.5 -44.5t60.5 -10.5q37 0 69 21t70 71z" />
<glyph unicode="&#xa1;" horiz-adv-x="796" d="M567 -387q-46 -94 -141 -94q-63 0 -102 41t-39 108q0 42 12 76.5t51 105.5q169 332 293 652l59 -17q-94 -497 -108 -725q-3 -64 -8 -91t-17 -56zM905 801q0 -65 -43 -109.5t-106 -44.5q-59 0 -104.5 46.5t-45.5 107.5t44.5 103t107.5 42q64 0 105.5 -41t41.5 -104z" />
<glyph unicode="&#xa2;" d="M803 252q-97 -138 -168 -195t-174 -77l-96 -273h-70l94 266q-144 9 -223.5 90.5t-79.5 219.5q0 121 51 242.5t131.5 213.5t188 149.5t213.5 57.5q20 0 57 -6l84 240h72l-92 -260q108 -60 108 -162q0 -60 -38 -100t-95 -40q-43 0 -72 23l-188 -535q64 3 121.5 46.5 t120.5 136.5zM694 846v4q-3 29 -45 29q-92 0 -176 -150q-56 -98 -91.5 -218.5t-35.5 -209.5q0 -130 92 -184z" />
<glyph unicode="&#xa3;" d="M889 317q-18 -88 -38.5 -138.5t-53.5 -94.5q-40 -51 -97 -80t-120 -29q-65 0 -124 28t-137 97q-41 -66 -87.5 -94.5t-112.5 -28.5q-82 0 -133.5 49.5t-51.5 127.5q0 79 54.5 128.5t142.5 49.5q58 0 125 -29l39 332h-223l20 123h215q38 189 82 294.5t119 190.5 q134 156 313 156q96 0 159.5 -53.5t63.5 -133.5q0 -59 -35 -99t-89 -40q-46 0 -77.5 30.5t-31.5 74.5q0 19 8 69q6 21 6 39q0 19 -13.5 31t-35.5 12q-44 0 -76 -41t-47 -117l-80 -413h234l-21 -123h-235q-47 -206 -131 -346l-23 -35q170 -66 256 -66q74 0 112.5 27t72.5 102 h51zM231 184q-68 62 -131 62q-47 0 -75.5 -28.5t-28.5 -74.5t32 -75t83 -29q46 0 74.5 35t45.5 110z" />
<glyph unicode="&#xa4;" d="M1077 188l-119 -118l-196 200q-122 -75 -250 -75t-250 75l-196 -200l-119 118l200 201q-75 113 -75 246q0 134 75 250l-200 200l119 115l196 -196q114 71 250 71t250 -71l196 196l119 -115l-200 -200q41 -66 58 -122.5t17 -127.5q0 -141 -75 -246zM772 631 q0 117 -75.5 196.5t-184.5 79.5t-184.5 -78.5t-75.5 -193.5q0 -114 75.5 -193.5t184.5 -79.5q106 0 183 80t77 189z" />
<glyph unicode="&#xa5;" d="M1286 1319q-60 -12 -98.5 -40.5t-91.5 -100.5l-340 -478h276l-26 -102h-308l-43 -160h312l-29 -102h-311l-6 -23q-33 -119 -33 -174q0 -51 31.5 -67t134.5 -21v-51h-660v51q82 5 121.5 18t60.5 40.5t41 89.5l39 137h-288l28 102h289l45 160h-291l29 102h256l-162 490 q-31 78 -57 98.5t-111 30.5v51h574v-51q-88 -3 -121 -17t-33 -49q0 -27 12 -65l164 -483l277 397q32 45 42.5 70t10.5 53q0 54 -28.5 72.5t-114.5 21.5v51h409v-51z" />
<glyph unicode="&#xa6;" horiz-adv-x="450" d="M291 698h-180v682h180v-682zM291 -326h-180v682h180v-682z" />
<glyph unicode="&#xa7;" d="M891 498q0 -103 -71 -176.5t-169 -73.5q-28 0 -61 8l-4 -8q67 -84 94 -143t27 -123q0 -115 -97.5 -195t-238.5 -80q-126 0 -211.5 62t-85.5 153q0 54 33.5 88.5t85.5 34.5q51 0 82.5 -28.5t31.5 -73.5q0 -30 -10 -50.5t-35 -42.5q-26 -21 -26 -36q0 -23 42 -41.5 t95 -18.5q78 0 127 43.5t49 112.5q0 51 -30.5 101.5t-139.5 183.5l-135 163q-105 128 -105 254q0 107 62 182.5t151 75.5q47 0 101 -12l4 6q-113 125 -113 264q0 122 88.5 198.5t229.5 76.5q121 0 199.5 -56.5t78.5 -144.5q0 -54 -34 -89.5t-85 -35.5q-46 0 -79 32.5 t-33 78.5q0 41 45 78q28 20 28 34q0 23 -36.5 40.5t-83.5 17.5q-77 0 -126 -42t-49 -108q0 -49 31 -104.5t109 -147.5l141 -165q123 -141 123 -293zM745 422q0 66 -61 161.5t-144.5 165.5t-140.5 70q-49 0 -81.5 -34t-32.5 -85q0 -69 59 -155q95 -129 162 -187 q36 -31 61.5 -43t57.5 -12q49 0 84.5 35.5t35.5 83.5z" />
<glyph unicode="&#xa8;" horiz-adv-x="681" d="M582 1206q0 -54 -40 -92.5t-96 -38.5q-52 0 -91.5 39.5t-39.5 91.5q0 56 38.5 95.5t92.5 39.5q56 0 96 -40t40 -95zM1012 1206q0 -54 -39.5 -92.5t-95.5 -38.5q-53 0 -92.5 39.5t-39.5 91.5q0 55 39 95t93 40q55 0 95 -39.5t40 -95.5z" />
<glyph unicode="&#xa9;" horiz-adv-x="1529" d="M1446 666q0 -191 -94.5 -353t-257 -256t-353.5 -94q-143 0 -273 55.5t-224 149.5t-149.5 224.5t-55.5 273.5t55.5 273.5t149.5 225t224 150t273 55.5t273.5 -55.5t225 -150t150.5 -225t56 -273.5zM1368 666q0 127 -49.5 243t-133.5 200t-200.5 133.5t-243.5 49.5 t-243 -49.5t-199.5 -133.5t-132.5 -199.5t-49 -243.5t49 -243.5t132.5 -199t199.5 -133t243 -49.5q170 0 314.5 83.5t228.5 227.5t84 314zM1143 1067l-60 -281l-65 11q4 18 4 45q-2 77 -42 122.5t-108 45.5q-73 0 -131 -49q-80 -65 -132.5 -189.5t-49.5 -243.5 q3 -87 49 -136.5t127 -49.5q60 0 107 20q39 15 69.5 39t75.5 76l49 -33q-34 -43 -53.5 -63.5t-46.5 -38.5q-112 -76 -242 -76q-156 0 -253.5 81t-100.5 214q-4 137 63.5 254t185 184.5t255.5 67.5q75 0 164 -25q21 -8 43 -8q20 0 41 33h51z" />
<glyph unicode="&#xaa;" horiz-adv-x="544" d="M668 973q-58 -82 -105.5 -119t-93.5 -37q-36 0 -63 23.5t-27 54.5q0 27 22 104q-57 -100 -107 -140t-118 -40q-64 0 -103.5 43.5t-39.5 112.5q0 96 56 196.5t142.5 166t169.5 65.5q40 0 63.5 -21.5t33.5 -70.5l22 73l156 9l-94 -287q-45 -134 -45 -182q0 -19 10 -19 q23 0 84 74l10 12zM446 1290q0 24 -11 40.5t-29 17.5q-35 4 -86 -62.5t-89 -159t-38 -157.5q0 -23 14.5 -40.5t34.5 -17.5q63 0 131 127q29 57 51 133t22 119zM600 719h-647l16 61h647z" />
<glyph unicode="&#xab;" d="M430 96q0 -12 -9 -21t-22 -9t-30 20l-344 358v19l348 254q61 44 96 76q57 57 84 57q10 0 18.5 -8t8.5 -17q0 -60 -207 -274l-92 -100l81 -170q68 -142 68 -185zM809 96q0 -12 -9 -21t-22 -9q-12 0 -30 20l-345 358v19l349 254q61 44 96 76q57 57 84 57q10 0 18 -8t8 -17 q0 -61 -206 -274l-93 -100l82 -170q68 -142 68 -185z" />
<glyph unicode="&#xac;" horiz-adv-x="1167" d="M1053 774v-434h-181v254h-806v180h987z" />
<glyph unicode="&#xad;" horiz-adv-x="681" d="M508 340h-504l49 238h502z" />
<glyph unicode="&#xae;" horiz-adv-x="1529" d="M1446 666q0 -191 -94.5 -353t-257 -256t-353.5 -94q-143 0 -273 55.5t-224 149.5t-149.5 224.5t-55.5 273.5t55.5 273.5t149.5 225t224 150t273 55.5t273.5 -55.5t225 -150t150.5 -225t56 -273.5zM1368 666q0 127 -49.5 243t-133.5 200t-200.5 133.5t-243.5 49.5 t-243 -49.5t-199.5 -133.5t-132.5 -199.5t-49 -243.5t49 -243.5t132.5 -199t199.5 -133t243 -49.5q170 0 314.5 83.5t228.5 227.5t84 314zM1143 881q3 -102 -103 -166q-43 -28 -125 -45l107 -267q20 -47 37.5 -58.5t73.5 -16.5v-43h-277l-145 383l-64 -222q-14 -49 -14 -77 q0 -21 15.5 -28.5t62.5 -10.5l2 -45h-373l-2 43q41 4 57.5 18.5t28.5 54.5l137 500q10 33 10 66q0 14 -9 20.5t-32 7.5q-21 6 -38 6v46h344q304 0 307 -166zM926 895q0 46 -26 72t-73 26q-21 0 -28.5 -8t-12.5 -31l-65 -247q92 3 127 24q38 21 59 66t19 98z" />
<glyph unicode="&#xaf;" horiz-adv-x="681" d="M981 1137h-668l35 143h666z" />
<glyph unicode="&#xb0;" horiz-adv-x="819" d="M756 1106q0 -124 -85.5 -208.5t-211.5 -84.5q-120 0 -204.5 85.5t-84.5 207.5q0 123 85 208t208 85t208 -85t85 -208zM672 1106q0 89 -62 154t-147 65q-86 0 -147.5 -64t-61.5 -155q0 -89 61 -154t146 -65q88 0 149.5 64t61.5 155z" />
<glyph unicode="&#xb1;" horiz-adv-x="1167" d="M1053 602h-404v-260h-180v260h-403v180h403v404h180v-404h404v-180zM1053 0h-987v180h987v-180z" />
<glyph unicode="&#xb2;" horiz-adv-x="614" d="M596 795l-104 -234h-488v33q251 238 303 297q79 87 111.5 143t32.5 105q0 63 -32 99t-89 36q-45 0 -82 -21.5t-86 -76.5l-37 22q55 103 127.5 152t167.5 49q94 0 157.5 -58.5t63.5 -144.5q0 -74 -42.5 -139t-145.5 -148l-256 -207h182q76 0 110.5 18t73.5 75h33z" />
<glyph unicode="&#xb3;" horiz-adv-x="614" d="M602 866q0 -133 -115 -228t-276 -95q-85 0 -130.5 26.5t-45.5 75.5q0 37 21 60.5t55 23.5q49 0 88 -57q33 -43 45.5 -52.5t40.5 -9.5q61 0 103 54.5t42 134.5q0 177 -205 186l4 29q126 23 187 65.5t61 108.5q0 50 -30 78t-82 28q-44 0 -78 -18.5t-76 -67.5l-29 27 q62 87 126 125.5t147 38.5q86 0 144 -47.5t58 -118.5q0 -57 -28.5 -91t-118.5 -87l-14 -8q58 -40 82 -80.5t24 -100.5z" />
<glyph unicode="&#xb4;" horiz-adv-x="681" d="M909 1296q0 -29 -17 -49.5t-63 -46.5l-311 -178h-100l250 268q57 60 86.5 81.5t56.5 21.5q40 0 69 -28.5t29 -68.5z" />
<glyph unicode="&#xb5;" horiz-adv-x="1179" d="M1067 205q-29 -103 -94 -168.5t-164 -65.5q-76 0 -122.5 47t-49.5 123l-2 78h-4q-27 -43 -46.5 -71t-52 -65t-63 -58.5t-74 -37.5t-90.5 -16q-107 0 -155 88q-45 -126 -39 -270q11 -231 -123 -231q-44 0 -71.5 32.5t-29.5 77.5q-2 46 34.5 118t89 176t77.5 204l184 733 h256l-145 -577q-23 -79 -23 -132q2 -30 23 -50.5t51 -20.5q29 0 62 20.5t70.5 65t75 129.5t65.5 198l90 367h256l-150 -592q-35 -143 -35 -168q2 -21 17.5 -38t36.5 -17q30 0 61.5 48.5t46.5 92.5z" />
<glyph unicode="&#xb6;" d="M709 -344l-15 -51h-350l444 1714h-112l-445 -1714h-348l15 51q75 6 108 14t51 23q19 19 58 168l174 667q-76 3 -119 14.5t-82 37.5q-46 32 -71 89t-25 126q0 117 44.5 243t110.5 197q126 135 400 135h604l-12 -51q-36 -3 -55.5 -5t-41.5 -6t-32 -6.5t-22.5 -10.5 t-17 -14.5t-12 -21.5t-11 -28t-9.5 -37l-346 -1329l-33 -150q0 -22 23 -33.5t80 -17.5zM301 580l193 739q-100 -25 -152 -61.5t-96 -112.5q-41 -70 -66.5 -164t-25.5 -174t38.5 -139t108.5 -88z" />
<glyph unicode="&#xb7;" horiz-adv-x="512" d="M403 512q0 -70 -50.5 -121t-121.5 -51t-121.5 51t-50.5 121t50.5 121t121.5 51t121.5 -51t50.5 -121z" />
<glyph unicode="&#xb8;" horiz-adv-x="681" d="M319 -268q0 -77 -72 -127.5t-181 -50.5q-106 0 -230 51l45 67q74 -34 137 -34q53 0 84 22.5t31 60.5q0 35 -25 54.5t-71 19.5q-29 0 -62 -8l-26 25l135 198h90l-92 -137q30 6 53 6q80 0 132 -41.5t52 -105.5z" />
<glyph unicode="&#xb9;" horiz-adv-x="614" d="M520 561h-459v39q86 0 120.5 31t60.5 133q4 17 26 84q23 68 53.5 165.5t51 168.5t18.5 73q-9 43 -53 43q-8 0 -66 -4l-22 -2l4 43q223 35 362 64l-204 -676q-13 -41 -13 -70q0 -33 22.5 -43t98.5 -10v-39z" />
<glyph unicode="&#xba;" horiz-adv-x="614" d="M711 1202q-5 -99 -60 -188t-141 -142t-178 -53q-94 0 -155.5 51.5t-61.5 130.5q0 154 118 278t265 124q98 0 158 -56.5t55 -144.5zM471 993q29 63 50 145t24 146q3 75 -51 78q-32 2 -64.5 -24t-58.5 -74q-35 -61 -62.5 -162.5t-27.5 -169.5q0 -34 15.5 -53t41.5 -19 q37 0 69 32t64 101zM590 721h-563l16 61h563z" />
<glyph unicode="&#xbb;" d="M958 453l-348 -254q-64 -48 -96 -78q-58 -55 -84 -55q-11 0 -19 7t-8 17q0 61 207 275l92 100l-81 170q-68 139 -68 184q0 12 9 21.5t22 9.5q12 0 30 -21l344 -358v-18zM580 453l-349 -254q-64 -48 -96 -78q-58 -55 -84 -55q-11 0 -18.5 7t-7.5 17q0 62 206 275l93 100 l-82 170q-68 139 -68 184q0 12 9 21.5t22 9.5t31 -21l344 -358v-18z" />
<glyph unicode="&#xbc;" horiz-adv-x="1536" d="M1409 305l-35 -125h-90l-57 -180h-176l55 180h-326l33 137l569 523h95l-160 -535h92zM1247 653l-377 -348h271zM1288 1399l-891 -1428h-118l890 1428h119zM473 561h-459v39q86 0 120.5 31t60.5 133q22 70 26 84q123 367 123 407q0 17 -15.5 30t-37.5 13q-8 0 -66 -4 l-22 -2l4 43q223 35 362 64l-204 -676q-13 -41 -13 -70q0 -33 22.5 -43t98.5 -10v-39z" />
<glyph unicode="&#xbd;" horiz-adv-x="1536" d="M1257 1399l-890 -1428h-119l891 1428h118zM1436 233l-105 -233h-487v33q251 238 303 297q78 86 110.5 142.5t32.5 105.5q0 63 -32 99t-89 36q-44 0 -81.5 -22t-86.5 -77l-36 23q55 103 127.5 152t167.5 49q94 0 157.5 -58.5t63.5 -144.5q0 -73 -43 -138.5t-146 -148.5 l-256 -207h183q76 0 111 17.5t73 74.5h33zM440 561h-458v39q86 0 120 31t60 133q22 70 26 84q123 367 123 407q0 17 -15.5 30t-37.5 13q-7 0 -65 -4l-23 -2l4 43q227 35 363 64l-205 -676q-13 -41 -13 -70q0 -33 22.5 -43t98.5 -10v-39z" />
<glyph unicode="&#xbe;" horiz-adv-x="1536" d="M1419 305l-35 -125h-90l-57 -180h-176l55 180h-325l32 137l570 523h94l-160 -535h92zM1257 653l-376 -348h270zM1298 1399l-890 -1428h-119l891 1428h118zM582 866q0 -133 -115.5 -228t-276.5 -95q-85 0 -130.5 26.5t-45.5 75.5q0 37 21 60.5t55 23.5q49 0 88 -57 q33 -43 45.5 -52.5t40.5 -9.5q61 0 103.5 54.5t42.5 132.5q0 91 -50.5 137.5t-154.5 50.5l4 29q126 23 187 65.5t61 108.5q0 49 -30 77.5t-83 28.5q-44 0 -78 -18.5t-76 -67.5l-28 27q62 86 126 125t146 39q86 0 144.5 -47.5t58.5 -118.5q0 -57 -29 -92t-119 -86l-14 -8 q59 -40 83 -80.5t24 -100.5z" />
<glyph unicode="&#xbf;" d="M1026 -217q0 -116 -100.5 -190t-257.5 -74q-162 0 -261.5 81.5t-99.5 213.5q0 97 60 179t198 171l135 88q58 38 91.5 86.5t76.5 155.5l60 -15q-6 -84 -40 -159t-106 -166l-84 -105q-131 -164 -131 -305q0 -75 38 -118.5t104 -43.5q50 0 88.5 23.5t38.5 54.5q0 16 -23 45 q-37 48 -37 92q0 51 36.5 87t88.5 36q54 0 89.5 -39t35.5 -98zM1108 795q0 -65 -44 -108.5t-110 -43.5q-61 0 -105 45t-44 107q0 64 44 107.5t109 43.5q64 0 107 -43t43 -108z" />
<glyph unicode="&#xc0;" horiz-adv-x="1366" d="M1214 0h-622v51q98 9 130 33t32 88q0 34 -17 147q-7 34 -14 107h-440l-121 -209q-31 -54 -31 -94q0 -37 31.5 -54.5t101.5 -17.5v-51h-401v51q55 12 87.5 40t82.5 104l762 1204h51l196 -1172q8 -44 12.5 -67t14.5 -45t18.5 -31t28.5 -17t40 -10.5t58 -5.5v-51zM709 508 l-76 498l-303 -498h379zM1055 1468h-109l-258 146q-38 22 -47.5 37.5t2.5 38.5q17 31 62 54t86 23q31 0 55 -17.5t55 -63.5z" />
<glyph unicode="&#xc1;" horiz-adv-x="1366" d="M1214 0h-622v51q98 9 130 33t32 88q0 34 -17 147q-7 34 -14 107h-440l-121 -209q-31 -54 -31 -94q0 -37 31.5 -54.5t101.5 -17.5v-51h-401v51q55 12 87.5 40t82.5 104l762 1204h51l196 -1172q8 -44 12.5 -67t14.5 -45t18.5 -31t28.5 -17t40 -10.5t58 -5.5v-51zM709 508 l-76 498l-303 -498h379zM1153 1690q0 -23 -17.5 -38.5t-68.5 -37.5l-336 -146h-108l270 218q57 46 91 63.5t65 17.5q41 0 72.5 -23t31.5 -54z" />
<glyph unicode="&#xc2;" horiz-adv-x="1366" d="M1214 0h-622v51q98 9 130 33t32 88q0 34 -17 147q-7 34 -14 107h-440l-121 -209q-31 -54 -31 -94q0 -37 31.5 -54.5t101.5 -17.5v-51h-401v51q55 12 87.5 40t82.5 104l762 1204h51l196 -1172q8 -44 12.5 -67t14.5 -45t18.5 -31t28.5 -17t40 -10.5t58 -5.5v-51zM709 508 l-76 498l-303 -498h379zM1202 1475h-112l-197 157l-289 -157h-125l352 288h179z" />
<glyph unicode="&#xc3;" horiz-adv-x="1366" d="M1214 0h-622v51q98 9 130 33t32 88q0 34 -17 147q-7 34 -14 107h-440l-121 -209q-31 -54 -31 -94q0 -37 31.5 -54.5t101.5 -17.5v-51h-401v51q55 12 87.5 40t82.5 104l762 1204h51l196 -1172q8 -44 12.5 -67t14.5 -45t18.5 -31t28.5 -17t40 -10.5t58 -5.5v-51zM709 508 l-76 498l-303 -498h379zM1247 1741q-34 -129 -90.5 -186.5t-148.5 -57.5q-52 0 -117 27l-121 47q-43 16 -78 16q-34 0 -56 -19.5t-42 -68.5h-82q20 110 85 176t153 66q78 0 198 -53q79 -33 111 -33q36 0 58.5 18.5t45.5 67.5h84z" />
<glyph unicode="&#xc4;" horiz-adv-x="1366" d="M1214 0h-622v51q98 9 130 33t32 88q0 34 -17 147q-7 34 -14 107h-440l-121 -209q-31 -54 -31 -94q0 -37 31.5 -54.5t101.5 -17.5v-51h-401v51q55 12 87.5 40t82.5 104l762 1204h51l196 -1172q8 -44 12.5 -67t14.5 -45t18.5 -31t28.5 -17t40 -10.5t58 -5.5v-51zM709 508 l-76 498l-303 -498h379zM797 1616q0 -54 -39.5 -92.5t-95.5 -38.5q-53 0 -92.5 39.5t-39.5 91.5q0 55 39 95t93 40q56 0 95.5 -39.5t39.5 -95.5zM1227 1616q0 -54 -39.5 -92.5t-95.5 -38.5q-52 0 -91.5 39.5t-39.5 91.5q0 56 38.5 95.5t92.5 39.5q56 0 95.5 -39.5 t39.5 -95.5z" />
<glyph unicode="&#xc5;" horiz-adv-x="1366" d="M1214 0h-622v51q98 9 130 33t32 88q0 34 -17 147q-7 34 -14 107h-440l-121 -209q-31 -54 -31 -94q0 -37 31.5 -54.5t101.5 -17.5v-51h-401v51q55 12 87.5 40t82.5 104l762 1204h51l196 -1172q8 -44 12.5 -67t14.5 -45t18.5 -31t28.5 -17t40 -10.5t58 -5.5v-51zM709 508 l-76 498l-303 -498h379zM1108 1659q0 -91 -64 -155t-155 -64t-154 64.5t-63 156.5q0 88 65 151.5t154 63.5t153 -64t64 -153zM1010 1655q0 51 -36 87t-87 36q-47 0 -82 -36t-35 -85t34.5 -84t82.5 -35q51 0 87 34.5t36 82.5z" />
<glyph unicode="&#xc6;" horiz-adv-x="1933" d="M1741 401l-121 -401h-1079v51q79 12 106.5 37.5t52.5 108.5l95 325h-394l-233 -321q-31 -42 -31 -80q0 -34 28.5 -49t102.5 -21v-51h-399v51q37 4 61 19q15 6 119 139l750 967q41 54 41 90q0 29 -32.5 40t-133.5 17v47h1206l-92 -389l-49 10l-4 82q-12 232 -332 232 q-65 0 -88 -12.5t-33 -53.5l-133 -481h20h19q108 0 169.5 18.5t104 63t84.5 135.5l53 -8l-149 -559l-51 10q1 8 1.5 16.5t1 14t1.5 10.5q2 29 2 53q0 70 -21.5 104.5t-77.5 51.5t-173 24l-129 -493q-11 -46 -11 -58q0 -40 27.5 -57.5t91.5 -17.5q230 0 367 98 q57 40 101.5 92t107.5 152zM1004 1284h-25l-518 -682h354z" />
<glyph unicode="&#xc7;" horiz-adv-x="1366" d="M1180 268q-49 -67 -82 -102.5t-78 -69.5q-177 -133 -397 -133q-61 0 -129 12l-70 -102q30 6 53 6q80 0 132.5 -41.5t52.5 -105.5q0 -76 -72.5 -127t-181.5 -51t-230 51l45 67q72 -34 137 -34q53 0 84 22.5t31 60.5q0 35 -25 54.5t-71 19.5q-29 0 -62 -8l-26 25l125 184 q-167 56 -258.5 185.5t-91.5 312.5t66.5 351.5t179 290.5t267 194.5t322.5 72.5q132 0 268 -43q53 -17 78 -17q23 0 39.5 13t38.5 47h61l-104 -479l-65 12q6 41 6 72q0 150 -72 236.5t-197 86.5q-127 0 -245 -98q-139 -122 -233.5 -353.5t-94.5 -451.5q0 -167 81 -261.5 t226 -94.5q100 0 184 37q66 28 118.5 71.5t127.5 132.5z" />
<glyph unicode="&#xc8;" horiz-adv-x="1366" d="M1200 397l-121 -397h-1134v51q79 12 109 39t55 109l251 919q21 82 21 125q0 31 -19.5 46.5t-66.5 21.5l-64 8v51h1106l-88 -389l-55 10q0 95 -13 143t-48 85q-86 86 -316 86q-63 0 -88.5 -18.5t-40.5 -72.5l-125 -456q72 -1 118.5 1.5t89 11.5t68.5 22t52.5 39.5t46.5 59 t45 83.5l57 -8l-151 -559l-58 10q9 58 9 90q0 106 -60 143.5t-235 40.5l-115 -428q-31 -67 -31 -129q0 -37 29.5 -53t95.5 -16q270 0 439 124q56 41 94.5 86t91.5 132zM1120 1468h-108l-258 146q-38 22 -47.5 37.5t2.5 38.5q17 31 61.5 54t85.5 23q31 0 56 -18t55 -63z" />
<glyph unicode="&#xc9;" horiz-adv-x="1366" d="M1200 397l-121 -397h-1134v51q79 12 109 39t55 109l251 919q21 82 21 125q0 31 -19.5 46.5t-66.5 21.5l-64 8v51h1106l-88 -389l-55 10q0 95 -13 143t-48 85q-86 86 -316 86q-63 0 -88.5 -18.5t-40.5 -72.5l-125 -456q72 -1 118.5 1.5t89 11.5t68.5 22t52.5 39.5t46.5 59 t45 83.5l57 -8l-151 -559l-58 10q9 58 9 90q0 106 -60 143.5t-235 40.5l-115 -428q-31 -67 -31 -129q0 -37 29.5 -53t95.5 -16q270 0 439 124q56 41 94.5 86t91.5 132zM1219 1690q0 -23 -17.5 -38.5t-68.5 -37.5l-336 -146h-109l270 218q57 46 91 63.5t65 17.5q41 0 73 -23 t32 -54z" />
<glyph unicode="&#xca;" horiz-adv-x="1366" d="M1200 397l-121 -397h-1134v51q79 12 109 39t55 109l251 919q21 82 21 125q0 31 -19.5 46.5t-66.5 21.5l-64 8v51h1106l-88 -389l-55 10q0 95 -13 143t-48 85q-86 86 -316 86q-63 0 -88.5 -18.5t-40.5 -72.5l-125 -456q72 -1 118.5 1.5t89 11.5t68.5 22t52.5 39.5t46.5 59 t45 83.5l57 -8l-151 -559l-58 10q9 58 9 90q0 106 -60 143.5t-235 40.5l-115 -428q-31 -67 -31 -129q0 -37 29.5 -53t95.5 -16q270 0 439 124q56 41 94.5 86t91.5 132zM1268 1475h-113l-197 157l-288 -157h-125l352 288h178z" />
<glyph unicode="&#xcb;" horiz-adv-x="1366" d="M1200 397l-121 -397h-1134v51q79 12 109 39t55 109l251 919q21 82 21 125q0 31 -19.5 46.5t-66.5 21.5l-64 8v51h1106l-88 -389l-55 10q0 95 -13 143t-48 85q-86 86 -316 86q-63 0 -88.5 -18.5t-40.5 -72.5l-125 -456q72 -1 118.5 1.5t89 11.5t68.5 22t52.5 39.5t46.5 59 t45 83.5l57 -8l-151 -559l-58 10q9 58 9 90q0 106 -60 143.5t-235 40.5l-115 -428q-31 -67 -31 -129q0 -37 29.5 -53t95.5 -16q270 0 439 124q56 41 94.5 86t91.5 132zM862 1616q0 -54 -39.5 -92.5t-95.5 -38.5q-53 0 -92 39.5t-39 91.5q0 56 38.5 95.5t92.5 39.5 q55 0 95 -39.5t40 -95.5zM1292 1616q0 -54 -39.5 -92.5t-95.5 -38.5q-53 0 -92 39.5t-39 91.5q0 56 38.5 95.5t92.5 39.5q55 0 95 -39.5t40 -95.5z" />
<glyph unicode="&#xcc;" horiz-adv-x="796" d="M541 0h-607v51q74 9 106.5 38.5t57.5 109.5l252 919q21 82 21 125q0 31 -18.5 45.5t-65.5 20.5q-46 8 -66 10v51h610v-51q-78 -9 -110 -37.5t-57 -110.5l-234 -860q-37 -130 -37 -178q0 -43 30.5 -60.5t117.5 -21.5v-51zM809 1468h-109l-258 146q-38 22 -47.5 37.5 t2.5 38.5q17 31 62 54t86 23q31 0 55 -17.5t55 -63.5z" />
<glyph unicode="&#xcd;" horiz-adv-x="796" d="M541 0h-607v51q74 9 106.5 38.5t57.5 109.5l252 919q21 82 21 125q0 31 -18.5 45.5t-65.5 20.5q-46 8 -66 10v51h610v-51q-78 -9 -110 -37.5t-57 -110.5l-234 -860q-37 -130 -37 -178q0 -43 30.5 -60.5t117.5 -21.5v-51zM907 1690q0 -23 -17.5 -38.5t-68.5 -37.5 l-336 -146h-108l270 218q57 46 91 63.5t65 17.5q41 0 72.5 -23t31.5 -54z" />
<glyph unicode="&#xce;" horiz-adv-x="796" d="M541 0h-607v51q74 9 106.5 38.5t57.5 109.5l252 919q21 82 21 125q0 31 -18.5 45.5t-65.5 20.5q-46 8 -66 10v51h610v-51q-78 -9 -110 -37.5t-57 -110.5l-234 -860q-37 -130 -37 -178q0 -43 30.5 -60.5t117.5 -21.5v-51zM956 1475h-112l-197 157l-289 -157h-125l353 288 h178z" />
<glyph unicode="&#xcf;" horiz-adv-x="796" d="M541 0h-607v51q74 9 106.5 38.5t57.5 109.5l252 919q21 82 21 125q0 31 -18.5 45.5t-65.5 20.5q-46 8 -66 10v51h610v-51q-78 -9 -110 -37.5t-57 -110.5l-234 -860q-37 -130 -37 -178q0 -43 30.5 -60.5t117.5 -21.5v-51zM551 1616q0 -54 -39.5 -92.5t-95.5 -38.5 q-52 0 -91.5 39.5t-39.5 91.5q0 56 38.5 95.5t92.5 39.5q56 0 95.5 -39.5t39.5 -95.5zM981 1616q0 -54 -39.5 -92.5t-95.5 -38.5q-52 0 -91.5 39.5t-39.5 91.5q0 56 38.5 95.5t92.5 39.5q56 0 95.5 -39.5t39.5 -95.5z" />
<glyph unicode="&#xd0;" horiz-adv-x="1478" d="M1434 811q0 -173 -69.5 -323.5t-189.5 -257.5t-289.5 -168.5t-363.5 -61.5h-585v51q73 9 106.5 39.5t56.5 108.5l129 475h-209l25 90h209l94 348q25 94 25 121q0 37 -18.5 53.5t-67.5 22.5l-64 10v51h594q290 0 453.5 -148t163.5 -411zM1133 936q0 187 -84 279t-254 92 q-51 0 -77 -17.5t-36 -60.5l-125 -465h250l-25 -90h-250l-112 -416l-2 -8q-25 -76 -25 -111q0 -37 26 -53t85 -16q149 0 260.5 59t196.5 182q79 118 125.5 286.5t46.5 338.5z" />
<glyph unicode="&#xd1;" horiz-adv-x="1478" d="M1532 1319q-25 -6 -40 -10t-31.5 -13t-25.5 -16.5t-22 -26.5t-20.5 -36t-20 -52.5t-22.5 -68t-27 -90.5l-293 -1037h-57l-527 1125l-202 -729q-37 -127 -37 -193q0 -60 36.5 -86.5t127.5 -34.5v-51h-426v51q31 6 49 11.5t37 21t30 32t27 55t29 79t35 115.5l245 841 q-29 68 -57.5 87t-112.5 26v51h400l440 -952l164 588q37 135 37 192q0 59 -37 86.5t-127 34.5v51h428v-51zM1366 1741q-34 -129 -91 -186.5t-149 -57.5q-51 0 -116 27l-121 47q-43 16 -78 16q-34 0 -56 -19.5t-42 -68.5h-82q20 110 84.5 176t152.5 66q79 0 199 -53 q79 -33 111 -33q36 0 58.5 18.5t45.5 67.5h84z" />
<glyph unicode="&#xd2;" horiz-adv-x="1478" d="M1415 930q0 -229 -120.5 -456t-315.5 -365q-202 -146 -440 -146q-217 0 -350.5 135t-133.5 355q0 218 123 444t314 360q208 146 428 146q214 0 354.5 -134.5t140.5 -338.5zM1120 1090q0 109 -57.5 176t-149.5 67q-104 0 -191 -71t-167 -220q-80 -150 -142.5 -380.5 t-62.5 -380.5q0 -115 56 -181.5t153 -66.5q165 0 305 209q100 153 178 410t78 438zM1165 1468h-108l-258 146q-38 22 -47.5 37.5t2.5 38.5q17 31 61.5 54t85.5 23q31 0 56 -18t55 -63z" />
<glyph unicode="&#xd3;" horiz-adv-x="1478" d="M1415 930q0 -229 -120.5 -456t-315.5 -365q-202 -146 -440 -146q-217 0 -350.5 135t-133.5 355q0 218 123 444t314 360q208 146 428 146q214 0 354.5 -134.5t140.5 -338.5zM1120 1090q0 109 -57.5 176t-149.5 67q-104 0 -191 -71t-167 -220q-80 -150 -142.5 -380.5 t-62.5 -380.5q0 -115 56 -181.5t153 -66.5q165 0 305 209q100 153 178 410t78 438zM1264 1690q0 -23 -17.5 -38.5t-68.5 -37.5l-336 -146h-109l271 218q57 46 90.5 63.5t64.5 17.5q41 0 73 -23t32 -54z" />
<glyph unicode="&#xd4;" horiz-adv-x="1478" d="M1415 930q0 -229 -120.5 -456t-315.5 -365q-202 -146 -440 -146q-217 0 -350.5 135t-133.5 355q0 218 123 444t314 360q208 146 428 146q214 0 354.5 -134.5t140.5 -338.5zM1120 1090q0 109 -57.5 176t-149.5 67q-104 0 -191 -71t-167 -220q-80 -150 -142.5 -380.5 t-62.5 -380.5q0 -115 56 -181.5t153 -66.5q165 0 305 209q100 153 178 410t78 438zM1313 1475h-113l-196 157l-289 -157h-125l352 288h178z" />
<glyph unicode="&#xd5;" horiz-adv-x="1478" d="M1415 930q0 -229 -120.5 -456t-315.5 -365q-202 -146 -440 -146q-217 0 -350.5 135t-133.5 355q0 218 123 444t314 360q208 146 428 146q214 0 354.5 -134.5t140.5 -338.5zM1120 1090q0 109 -57.5 176t-149.5 67q-104 0 -191 -71t-167 -220q-80 -150 -142.5 -380.5 t-62.5 -380.5q0 -115 56 -181.5t153 -66.5q165 0 305 209q100 153 178 410t78 438zM1358 1741q-34 -129 -91 -186.5t-149 -57.5q-52 0 -117 27l-120 47q-43 16 -78 16q-34 0 -56 -19.5t-42 -68.5h-82q20 110 84.5 176t152.5 66q79 0 199 -53q79 -33 110 -33q36 0 59 18.5 t46 67.5h84z" />
<glyph unicode="&#xd6;" horiz-adv-x="1478" d="M1415 930q0 -229 -120.5 -456t-315.5 -365q-202 -146 -440 -146q-217 0 -350.5 135t-133.5 355q0 218 123 444t314 360q208 146 428 146q214 0 354.5 -134.5t140.5 -338.5zM1120 1090q0 109 -57.5 176t-149.5 67q-104 0 -191 -71t-167 -220q-80 -150 -142.5 -380.5 t-62.5 -380.5q0 -115 56 -181.5t153 -66.5q165 0 305 209q100 153 178 410t78 438zM907 1616q0 -54 -39.5 -92.5t-95.5 -38.5q-52 0 -91.5 39.5t-39.5 91.5q0 56 38.5 95.5t92.5 39.5q56 0 95.5 -39.5t39.5 -95.5zM1337 1616q0 -54 -39.5 -92.5t-95.5 -38.5 q-52 0 -91.5 39.5t-39.5 91.5q0 56 38.5 95.5t92.5 39.5q56 0 95.5 -39.5t39.5 -95.5z" />
<glyph unicode="&#xd7;" horiz-adv-x="1167" d="M973 227l-129 -129l-285 287l-285 -287l-129 129l287 285l-287 285l129 129l285 -287l285 287l129 -129l-287 -285z" />
<glyph unicode="&#xd8;" horiz-adv-x="1478" d="M1415 928q0 -229 -120.5 -455t-315.5 -364q-205 -146 -434 -146q-85 0 -170 27l-144 -246h-98l162 279q-82 48 -125 96q-115 134 -115 315q0 182 74 360t193 311t278 215.5t320 82.5q78 0 167 -27l109 189h100l-129 -222q63 -37 97 -65.5t63 -69.5q88 -125 88 -280z M1036 1290q-54 43 -129 43q-189 0 -338 -266q-89 -158 -154 -389.5t-65 -388.5q0 -64 23 -131zM1120 1079q0 62 -28 135l-666 -1136q56 -45 133 -45q85 0 159 51t146 160q98 146 177 404t79 431z" />
<glyph unicode="&#xd9;" horiz-adv-x="1478" d="M1524 1319q-31 -6 -49 -11.5t-37 -20.5t-30 -31t-27.5 -54.5t-29.5 -79.5t-36 -116l-135 -467q-47 -165 -88.5 -258t-94.5 -154q-138 -164 -403 -164q-201 0 -329 95t-128 245q0 109 70 359l112 421q31 124 31 156q0 34 -18.5 49.5t-67.5 22.5l-63 8v51h637v-51 q-95 -4 -131 -32t-62 -116l-168 -614q-39 -143 -48 -186t-9 -86q0 -97 66.5 -152t183.5 -55q167 0 272 123q47 59 84.5 144.5t77.5 232.5l119 428q39 140 39 196q0 55 -38 82t-126 35v51h426v-51zM1251 1468h-108l-258 146q-38 22 -47.5 37.5t2.5 38.5q17 31 61.5 54 t85.5 23q31 0 56 -18t55 -63z" />
<glyph unicode="&#xda;" horiz-adv-x="1478" d="M1524 1319q-31 -6 -49 -11.5t-37 -20.5t-30 -31t-27.5 -54.5t-29.5 -79.5t-36 -116l-135 -467q-47 -165 -88.5 -258t-94.5 -154q-138 -164 -403 -164q-201 0 -329 95t-128 245q0 109 70 359l112 421q31 124 31 156q0 34 -18.5 49.5t-67.5 22.5l-63 8v51h637v-51 q-95 -4 -131 -32t-62 -116l-168 -614q-39 -143 -48 -186t-9 -86q0 -97 66.5 -152t183.5 -55q167 0 272 123q47 59 84.5 144.5t77.5 232.5l119 428q39 140 39 196q0 55 -38 82t-126 35v51h426v-51zM1350 1690q0 -23 -17.5 -38.5t-68.5 -37.5l-336 -146h-109l271 218 q57 46 90.5 63.5t64.5 17.5q41 0 73 -23t32 -54z" />
<glyph unicode="&#xdb;" horiz-adv-x="1478" d="M1524 1319q-31 -6 -49 -11.5t-37 -20.5t-30 -31t-27.5 -54.5t-29.5 -79.5t-36 -116l-135 -467q-47 -165 -88.5 -258t-94.5 -154q-138 -164 -403 -164q-201 0 -329 95t-128 245q0 109 70 359l112 421q31 124 31 156q0 34 -18.5 49.5t-67.5 22.5l-63 8v51h637v-51 q-95 -4 -131 -32t-62 -116l-168 -614q-39 -143 -48 -186t-9 -86q0 -97 66.5 -152t183.5 -55q167 0 272 123q47 59 84.5 144.5t77.5 232.5l119 428q39 140 39 196q0 55 -38 82t-126 35v51h426v-51zM1399 1475h-113l-196 157l-289 -157h-125l352 288h178z" />
<glyph unicode="&#xdc;" horiz-adv-x="1478" d="M1524 1319q-31 -6 -49 -11.5t-37 -20.5t-30 -31t-27.5 -54.5t-29.5 -79.5t-36 -116l-135 -467q-47 -165 -88.5 -258t-94.5 -154q-138 -164 -403 -164q-201 0 -329 95t-128 245q0 109 70 359l112 421q31 124 31 156q0 34 -18.5 49.5t-67.5 22.5l-63 8v51h637v-51 q-95 -4 -131 -32t-62 -116l-168 -614q-39 -143 -48 -186t-9 -86q0 -97 66.5 -152t183.5 -55q167 0 272 123q47 59 84.5 144.5t77.5 232.5l119 428q39 140 39 196q0 55 -38 82t-126 35v51h426v-51zM993 1616q0 -54 -39.5 -92.5t-95.5 -38.5q-52 0 -91.5 39.5t-39.5 91.5 q0 56 38.5 95.5t92.5 39.5q56 0 95.5 -39.5t39.5 -95.5zM1423 1616q0 -54 -39.5 -92.5t-95.5 -38.5q-52 0 -91.5 39.5t-39.5 91.5q0 56 38.5 95.5t92.5 39.5q56 0 95.5 -39.5t39.5 -95.5z" />
<glyph unicode="&#xdd;" horiz-adv-x="1251" d="M1350 1319q-58 -12 -96 -41t-91 -100l-389 -547l-106 -391q-17 -62 -17 -93q0 -57 29 -74t129 -22v-51h-659v51q105 7 141.5 33.5t64.5 114.5l123 442l-180 549q-29 82 -50 100.5t-99 28.5v51h579v-51q-85 -3 -114 -18t-29 -58q0 -52 67 -244l39 -120l51 -158l265 381 q32 45 42.5 70t10.5 53q0 54 -27.5 72.5t-109.5 21.5v51h426v-51zM1163 1690q0 -23 -17.5 -38.5t-68.5 -37.5l-336 -146h-108l270 218q57 46 91 63.5t65 17.5q41 0 72.5 -23t31.5 -54z" />
<glyph unicode="&#xde;" horiz-adv-x="1251" d="M1174 776q0 -184 -152.5 -293.5t-407.5 -109.5q-75 0 -165 10l-29 -131q-21 -94 -21 -121q0 -41 31 -58.5t117 -21.5v-51h-602v51q79 12 109 39t55 109l251 919q21 82 21 125q0 31 -19.5 46.5t-66.5 21.5l-64 8v51h603l-3 -51q-81 -12 -107.5 -36t-57.5 -112l-27 -77h98 q214 0 325.5 -81.5t111.5 -236.5zM829 616q45 105 45 226q0 89 -45 137.5t-127 48.5q-53 0 -79 -29q-10 -15 -23 -61l-131 -489q13 -1 30.5 -2t30.5 -2t25 -1q109 0 171.5 39t102.5 133z" />
<glyph unicode="&#xdf;" d="M891 522q0 -139 -62.5 -263t-167 -198.5t-221.5 -74.5q-85 0 -149 45l41 71l8 -10q12 -15 37.5 -26t50.5 -11q72 0 127 123q37 81 63.5 213.5t26.5 231.5q0 101 -49 133q-24 19 -102 30l14 76q53 0 102 30t72 79q26 57 42.5 135.5t16.5 150.5q0 125 -94 125 q-71 0 -120 -80t-89 -260l-186 -833q-138 -619 -463 -619q-89 0 -144 43.5t-55 114.5q0 49 29 79t76 30q46 0 72 -25t26 -68q0 -41 -22 -63q-13 -13 -13 -25t7 -17t26 -5q54 0 80 35q50 65 96 270l189 866q66 305 196.5 462t317.5 157q131 0 215 -75.5t84 -192.5 q0 -56 -22.5 -109.5t-61.5 -89.5q-53 -51 -111 -83.5t-178 -76.5q85 -18 128 -35.5t79 -50.5q88 -76 88 -209z" />
<glyph unicode="&#xe0;" d="M932 229q-90 -134 -163.5 -196t-145.5 -62q-57 0 -97.5 39t-40.5 96q0 41 29 138q-87 -147 -164.5 -209t-171.5 -62q-100 0 -160.5 71.5t-60.5 188.5q0 93 33.5 196t91 193.5t128.5 164t151.5 116.5t154.5 43q66 0 102.5 -34.5t49.5 -112.5l37 121l227 14l-146 -483 q-69 -227 -69 -304q0 -30 24 -30q25 0 55 29t93 114zM621 764q0 41 -21 67t-55 29q-41 3 -90 -41.5t-95 -126.5q-63 -114 -107 -249t-44 -214q0 -47 26 -78.5t66 -31.5q42 0 86.5 39.5t85.5 113.5q60 105 104 252t44 240zM733 1022h-100l-215 178q-32 26 -38 46.5t9 49.5 q22 40 66 68.5t84 28.5q27 0 46 -22t42 -81z" />
<glyph unicode="&#xe1;" d="M932 229q-90 -134 -163.5 -196t-145.5 -62q-57 0 -97.5 39t-40.5 96q0 41 29 138q-87 -147 -164.5 -209t-171.5 -62q-100 0 -160.5 71.5t-60.5 188.5q0 93 33.5 196t91 193.5t128.5 164t151.5 116.5t154.5 43q66 0 102.5 -34.5t49.5 -112.5l37 121l227 14l-146 -483 q-69 -227 -69 -304q0 -30 24 -30q25 0 55 29t93 114zM621 764q0 41 -21 67t-55 29q-41 3 -90 -41.5t-95 -126.5q-63 -114 -107 -249t-44 -214q0 -47 26 -78.5t66 -31.5q42 0 86.5 39.5t85.5 113.5q60 105 104 252t44 240zM831 1296q0 -29 -16.5 -49.5t-62.5 -46.5l-312 -178 h-100l250 268q57 60 86.5 81.5t56.5 21.5q40 0 69 -28.5t29 -68.5z" />
<glyph unicode="&#xe2;" d="M932 229q-90 -134 -163.5 -196t-145.5 -62q-57 0 -97.5 39t-40.5 96q0 41 29 138q-87 -147 -164.5 -209t-171.5 -62q-100 0 -160.5 71.5t-60.5 188.5q0 93 33.5 196t91 193.5t128.5 164t151.5 116.5t154.5 43q66 0 102.5 -34.5t49.5 -112.5l37 121l227 14l-146 -483 q-69 -227 -69 -304q0 -30 24 -30q25 0 55 29t93 114zM621 764q0 41 -21 67t-55 29q-41 3 -90 -41.5t-95 -126.5q-63 -114 -107 -249t-44 -214q0 -47 26 -78.5t66 -31.5q42 0 86.5 39.5t85.5 113.5q60 105 104 252t44 240zM874 1030h-104l-180 195l-268 -195h-117l327 356 h166z" />
<glyph unicode="&#xe3;" d="M932 229q-90 -134 -163.5 -196t-145.5 -62q-57 0 -97.5 39t-40.5 96q0 41 29 138q-87 -147 -164.5 -209t-171.5 -62q-100 0 -160.5 71.5t-60.5 188.5q0 93 33.5 196t91 193.5t128.5 164t151.5 116.5t154.5 43q66 0 102.5 -34.5t49.5 -112.5l37 121l227 14l-146 -483 q-69 -227 -69 -304q0 -30 24 -30q25 0 55 29t93 114zM621 764q0 41 -21 67t-55 29q-41 3 -90 -41.5t-95 -126.5q-63 -114 -107 -249t-44 -214q0 -47 26 -78.5t66 -31.5q42 0 86.5 39.5t85.5 113.5q60 105 104 252t44 240zM956 1331q-34 -129 -90.5 -186.5t-148.5 -57.5 q-52 0 -117 27l-121 47q-46 17 -78 17q-34 0 -56 -19.5t-42 -68.5h-82q20 110 85 175.5t153 65.5q78 0 198 -53q79 -33 111 -33q36 0 58.5 18.5t45.5 67.5h84z" />
<glyph unicode="&#xe4;" d="M932 229q-90 -134 -163.5 -196t-145.5 -62q-57 0 -97.5 39t-40.5 96q0 41 29 138q-87 -147 -164.5 -209t-171.5 -62q-100 0 -160.5 71.5t-60.5 188.5q0 93 33.5 196t91 193.5t128.5 164t151.5 116.5t154.5 43q66 0 102.5 -34.5t49.5 -112.5l37 121l227 14l-146 -483 q-69 -227 -69 -304q0 -30 24 -30q25 0 55 29t93 114zM621 764q0 41 -21 67t-55 29q-41 3 -90 -41.5t-95 -126.5q-63 -114 -107 -249t-44 -214q0 -47 26 -78.5t66 -31.5q42 0 86.5 39.5t85.5 113.5q60 105 104 252t44 240zM504 1206q0 -54 -39.5 -92.5t-95.5 -38.5 q-53 0 -92 39.5t-39 91.5q0 56 38.5 95.5t92.5 39.5q55 0 95 -39.5t40 -95.5zM934 1206q0 -54 -39.5 -92.5t-95.5 -38.5q-53 0 -92 39.5t-39 91.5q0 56 38.5 95.5t92.5 39.5q55 0 95 -39.5t40 -95.5z" />
<glyph unicode="&#xe5;" d="M932 229q-90 -134 -163.5 -196t-145.5 -62q-57 0 -97.5 39t-40.5 96q0 41 29 138q-87 -147 -164.5 -209t-171.5 -62q-100 0 -160.5 71.5t-60.5 188.5q0 93 33.5 196t91 193.5t128.5 164t151.5 116.5t154.5 43q66 0 102.5 -34.5t49.5 -112.5l37 121l227 14l-146 -483 q-69 -227 -69 -304q0 -30 24 -30q25 0 55 29t93 114zM621 764q0 41 -21 67t-55 29q-41 3 -90 -41.5t-95 -126.5q-63 -114 -107 -249t-44 -214q0 -47 26 -78.5t66 -31.5q42 0 86.5 39.5t85.5 113.5q60 105 104 252t44 240zM805 1210q0 -91 -64 -155t-155 -64t-154 64.5 t-63 156.5q0 88 65 151.5t154 63.5t153 -64t64 -153zM707 1206q0 51 -36 87t-87 36q-47 0 -82 -36t-35 -85t34.5 -83.5t82.5 -34.5q51 0 87 34.5t36 81.5z" />
<glyph unicode="&#xe6;" horiz-adv-x="1478" d="M1268 250q-66 -135 -167.5 -206t-230.5 -71q-73 0 -132 23.5t-93 66.5q-26 32 -40.5 70.5t-26.5 108.5q-86 -142 -169 -204.5t-186 -62.5q-101 0 -167 69t-66 173q0 98 33.5 203.5t91 197.5t128.5 167t153 118t157 43q67 0 103.5 -29t64.5 -106l37 119l211 10l-41 -133 q66 76 118.5 104.5t127.5 28.5q97 0 150.5 -46.5t53.5 -131.5q0 -126 -122.5 -224t-344.5 -149l-80 -18q-10 -51 -10 -95q0 -82 36 -128t99 -46q148 0 254 183zM682 743q0 51 -27.5 83t-70.5 32q-99 0 -199 -178q-58 -102 -95 -219t-42 -207q-3 -61 24.5 -98t73.5 -37 q105 0 191 162q60 104 102.5 240.5t42.5 221.5zM1194 795q0 44 -16.5 64t-51.5 20q-76 0 -142 -100t-128 -306l-10 -35q78 11 174 70q174 115 174 287z" />
<glyph unicode="&#xe7;" horiz-adv-x="909" d="M709 252q-54 -77 -86 -114.5t-72 -71.5q-107 -93 -248 -93q-23 0 -37 2l-69 -102q30 6 53 6q80 0 132 -41.5t52 -105.5q0 -76 -72.5 -127t-181.5 -51q-105 0 -229 51l45 67q72 -34 137 -34q53 0 84 22.5t31 60.5q0 35 -25 54.5t-71 19.5q-29 0 -62 -8l-27 25l123 180 q-93 34 -144.5 110t-51.5 181q0 120 51 241.5t132 213.5t187.5 150t212.5 58q103 0 166.5 -50.5t63.5 -133.5q0 -65 -35 -104.5t-92 -39.5q-52 0 -85.5 30.5t-33.5 76.5q0 31 27 80q16 24 16 39t-13 25t-32 10q-92 0 -176 -146q-56 -100 -91.5 -225t-35.5 -221 q0 -82 41 -132.5t108 -50.5q66 0 121 41t129 144z" />
<glyph unicode="&#xe8;" horiz-adv-x="909" d="M709 256q-92 -153 -182 -218t-208 -65q-134 0 -221.5 85.5t-87.5 215.5q0 124 51 247t132.5 216t189.5 151t217 58q94 0 154.5 -50t60.5 -128q0 -114 -110 -215q-77 -71 -167 -110t-249 -70q-13 -67 -13 -101q0 -168 132 -168q66 0 118 40.5t123 146.5zM627 809 q0 70 -58 70q-73 0 -141.5 -113.5t-124.5 -327.5q87 28 134.5 54.5t88.5 70.5q101 104 101 246zM768 1022h-100l-215 178q-32 26 -38 46.5t9 49.5q22 40 65.5 68.5t83.5 28.5q28 0 47 -22t42 -81z" />
<glyph unicode="&#xe9;" horiz-adv-x="909" d="M709 256q-92 -153 -182 -218t-208 -65q-134 0 -221.5 85.5t-87.5 215.5q0 124 51 247t132.5 216t189.5 151t217 58q94 0 154.5 -50t60.5 -128q0 -114 -110 -215q-77 -71 -167 -110t-249 -70q-13 -67 -13 -101q0 -168 132 -168q66 0 118 40.5t123 146.5zM627 809 q0 70 -58 70q-73 0 -141.5 -113.5t-124.5 -327.5q87 28 134.5 54.5t88.5 70.5q101 104 101 246zM866 1296q0 -29 -17 -49.5t-63 -46.5l-311 -178h-100l250 268q57 60 86.5 81.5t56.5 21.5q40 0 69 -28.5t29 -68.5z" />
<glyph unicode="&#xea;" horiz-adv-x="909" d="M709 256q-92 -153 -182 -218t-208 -65q-134 0 -221.5 85.5t-87.5 215.5q0 124 51 247t132.5 216t189.5 151t217 58q94 0 154.5 -50t60.5 -128q0 -114 -110 -215q-77 -71 -167 -110t-249 -70q-13 -67 -13 -101q0 -168 132 -168q66 0 118 40.5t123 146.5zM627 809 q0 70 -58 70q-73 0 -141.5 -113.5t-124.5 -327.5q87 28 134.5 54.5t88.5 70.5q101 104 101 246zM909 1030h-104l-180 195l-269 -195h-116l327 356h166z" />
<glyph unicode="&#xeb;" horiz-adv-x="909" d="M709 256q-92 -153 -182 -218t-208 -65q-134 0 -221.5 85.5t-87.5 215.5q0 124 51 247t132.5 216t189.5 151t217 58q94 0 154.5 -50t60.5 -128q0 -114 -110 -215q-77 -71 -167 -110t-249 -70q-13 -67 -13 -101q0 -168 132 -168q66 0 118 40.5t123 146.5zM627 809 q0 70 -58 70q-73 0 -141.5 -113.5t-124.5 -327.5q87 28 134.5 54.5t88.5 70.5q101 104 101 246zM539 1206q0 -54 -40 -92.5t-96 -38.5q-53 0 -92 39.5t-39 91.5q0 56 38.5 95.5t92.5 39.5q56 0 96 -40t40 -95zM969 1206q0 -54 -39.5 -92.5t-95.5 -38.5q-53 0 -92.5 39.5 t-39.5 91.5q0 55 39 95t93 40q56 0 95.5 -39.5t39.5 -95.5z" />
<glyph unicode="&#xec;" horiz-adv-x="569" d="M487 260q-107 -162 -178.5 -220t-163.5 -58q-63 0 -102 35.5t-39 93.5q0 41 27 141l119 440q14 61 14 82q0 60 -94 60h-27v55q241 18 414 57l-187 -684q-18 -79 -18 -106q0 -12 9.5 -21.5t21.5 -9.5q50 0 131 123l28 41zM553 1022h-100l-215 178q-32 26 -38 46.5t9 49.5 q22 40 65.5 68.5t83.5 28.5q27 0 46 -22t42 -81z" />
<glyph unicode="&#xed;" horiz-adv-x="569" d="M487 260q-107 -162 -178.5 -220t-163.5 -58q-63 0 -102 35.5t-39 93.5q0 41 27 141l119 440q14 61 14 82q0 60 -94 60h-27v55q241 18 414 57l-187 -684q-18 -79 -18 -106q0 -12 9.5 -21.5t21.5 -9.5q50 0 131 123l28 41zM651 1296q0 -29 -17 -49.5t-63 -46.5l-311 -178 h-100l250 268q57 60 86.5 81.5t56.5 21.5q40 0 69 -28.5t29 -68.5z" />
<glyph unicode="&#xee;" horiz-adv-x="569" d="M487 260q-107 -162 -178.5 -220t-163.5 -58q-63 0 -102 35.5t-39 93.5q0 41 27 141l119 440q14 61 14 82q0 60 -94 60h-27v55q241 18 414 57l-187 -684q-18 -79 -18 -106q0 -12 9.5 -21.5t21.5 -9.5q50 0 131 123l28 41zM694 1030h-104l-180 195l-269 -195h-116l327 356 h166z" />
<glyph unicode="&#xef;" horiz-adv-x="569" d="M487 260q-107 -162 -178.5 -220t-163.5 -58q-63 0 -102 35.5t-39 93.5q0 41 27 141l119 440q14 61 14 82q0 60 -94 60h-27v55q241 18 414 57l-187 -684q-18 -79 -18 -106q0 -12 9.5 -21.5t21.5 -9.5q50 0 131 123l28 41zM324 1206q0 -54 -40 -92.5t-96 -38.5 q-52 0 -91.5 39.5t-39.5 91.5q0 56 38.5 95.5t92.5 39.5q56 0 96 -40t40 -95zM754 1206q0 -54 -40 -92.5t-96 -38.5q-52 0 -91.5 39.5t-39.5 91.5q0 56 38.5 95.5t92.5 39.5q56 0 96 -40t40 -95z" />
<glyph unicode="&#xf0;" d="M903 762q0 -210 -80 -392.5t-215 -289.5t-291 -107q-138 0 -230.5 86t-92.5 215q0 124 48.5 247t126.5 216t181 151t207 58q47 0 81.5 -20t63.5 -66l5 8q-12 161 -127 308l-244 -127l-68 63l250 131q-119 113 -237 133l90 56q144 -20 270 -123l219 116l70 -65l-219 -115 q103 -122 147.5 -233t44.5 -250zM532 225q50 109 88.5 274t38.5 269q0 55 -25.5 87t-68.5 32q-100 0 -178 -139q-56 -100 -102.5 -279t-46.5 -293q0 -143 100 -143q108 0 194 192z" />
<glyph unicode="&#xf1;" horiz-adv-x="1138" d="M1010 250q-89 -149 -161.5 -208.5t-164.5 -59.5q-66 0 -102.5 32t-36.5 90q0 41 16.5 119t40.5 150l113 340q10 33 10 43q0 17 -15.5 30t-35.5 13q-28 0 -69.5 -30t-72.5 -71q-94 -123 -158.5 -276t-137.5 -422h-248l114 418q95 332 95 364q0 29 -23 39.5t-88 12.5v55 q192 7 410 55l-131 -405q102 151 147.5 209.5t103.5 113.5q87 84 205 84q72 0 111 -39t39 -114q0 -82 -53 -236l-74 -223q-51 -150 -51 -178q0 -15 8 -25t20 -10q26 0 54.5 30t89.5 125zM1073 1331q-34 -129 -90.5 -186.5t-148.5 -57.5q-52 0 -117 27l-121 47q-46 17 -78 17 q-34 0 -56 -19.5t-42 -68.5h-82q20 110 84.5 175.5t152.5 65.5q79 0 199 -53q79 -33 111 -33q36 0 58.5 18.5t45.5 67.5h84z" />
<glyph unicode="&#xf2;" d="M903 637q0 -127 -49 -249.5t-128.5 -213t-187 -146t-219.5 -55.5q-141 0 -233 86t-92 217q0 126 49.5 249.5t130.5 215t189 148.5t219 57q141 0 231 -87t90 -222zM532 225q50 109 88.5 274t38.5 269q0 55 -26 87t-70 32q-101 0 -184 -154q-53 -97 -97 -276.5t-44 -296.5 q0 -60 27 -93.5t73 -33.5q108 0 194 192zM795 1022h-101l-215 178q-32 26 -37.5 46.5t9.5 49.5q22 40 65.5 68.5t83.5 28.5q27 0 46 -22t42 -81z" />
<glyph unicode="&#xf3;" d="M903 637q0 -127 -49 -249.5t-128.5 -213t-187 -146t-219.5 -55.5q-141 0 -233 86t-92 217q0 126 49.5 249.5t130.5 215t189 148.5t219 57q141 0 231 -87t90 -222zM532 225q50 109 88.5 274t38.5 269q0 55 -26 87t-70 32q-101 0 -184 -154q-53 -97 -97 -276.5t-44 -296.5 q0 -60 27 -93.5t73 -33.5q108 0 194 192zM893 1296q0 -29 -17 -49.5t-63 -46.5l-311 -178h-101l250 268q56 59 86.5 81t57.5 22q40 0 69 -28.5t29 -68.5z" />
<glyph unicode="&#xf4;" d="M903 637q0 -127 -49 -249.5t-128.5 -213t-187 -146t-219.5 -55.5q-141 0 -233 86t-92 217q0 126 49.5 249.5t130.5 215t189 148.5t219 57q141 0 231 -87t90 -222zM532 225q50 109 88.5 274t38.5 269q0 55 -26 87t-70 32q-101 0 -184 -154q-53 -97 -97 -276.5t-44 -296.5 q0 -60 27 -93.5t73 -33.5q108 0 194 192zM936 1030h-105l-180 195l-268 -195h-117l328 356h166z" />
<glyph unicode="&#xf5;" d="M903 637q0 -127 -49 -249.5t-128.5 -213t-187 -146t-219.5 -55.5q-141 0 -233 86t-92 217q0 126 49.5 249.5t130.5 215t189 148.5t219 57q141 0 231 -87t90 -222zM532 225q50 109 88.5 274t38.5 269q0 55 -26 87t-70 32q-101 0 -184 -154q-53 -97 -97 -276.5t-44 -296.5 q0 -60 27 -93.5t73 -33.5q108 0 194 192zM1018 1331q-34 -129 -91 -186.5t-149 -57.5q-51 0 -116 27l-121 47q-46 17 -78 17q-34 0 -56 -19.5t-42 -68.5h-82q20 110 84.5 175.5t152.5 65.5q79 0 199 -53q79 -33 110 -33q36 0 59 18.5t46 67.5h84z" />
<glyph unicode="&#xf6;" d="M903 637q0 -127 -49 -249.5t-128.5 -213t-187 -146t-219.5 -55.5q-141 0 -233 86t-92 217q0 126 49.5 249.5t130.5 215t189 148.5t219 57q141 0 231 -87t90 -222zM532 225q50 109 88.5 274t38.5 269q0 55 -26 87t-70 32q-101 0 -184 -154q-53 -97 -97 -276.5t-44 -296.5 q0 -60 27 -93.5t73 -33.5q108 0 194 192zM565 1206q0 -54 -39.5 -92.5t-95.5 -38.5q-52 0 -91.5 39.5t-39.5 91.5q0 56 38.5 95.5t92.5 39.5q56 0 95.5 -39.5t39.5 -95.5zM995 1206q0 -54 -39.5 -92.5t-95.5 -38.5q-52 0 -91.5 39.5t-39.5 91.5q0 56 38.5 95.5t92.5 39.5 q56 0 95.5 -39.5t39.5 -95.5z" />
<glyph unicode="&#xf7;" horiz-adv-x="1167" d="M1053 422h-987v180h987v-180zM731 854q0 -70 -50.5 -121t-121.5 -51t-121.5 51t-50.5 121q0 72 50.5 122t121.5 50t121.5 -50t50.5 -122zM731 170q0 -72 -50.5 -122t-121.5 -50t-121.5 50t-50.5 122q0 70 50.5 121t121.5 51t121.5 -51t50.5 -121z" />
<glyph unicode="&#xf8;" d="M903 637q0 -170 -81.5 -324t-216.5 -247t-283 -93q-47 0 -105 17l-131 -234h-82l148 258q-158 88 -158 260q0 171 83.5 327t221 250.5t287.5 94.5q42 0 86 -12l121 213h75l-133 -238q88 -43 128 -108t40 -164zM629 858q-29 29 -66 29q-99 0 -176 -139 q-56 -100 -102.5 -279t-46.5 -293v-16zM545 256q44 106 79 260t35 246q0 6 -2 10l-395 -702q27 -37 76 -37q60 0 110 53.5t97 169.5z" />
<glyph unicode="&#xf9;" horiz-adv-x="1138" d="M1008 246q-80 -137 -159 -200.5t-171 -63.5q-68 0 -100.5 29.5t-32.5 92.5q0 76 49 226q-110 -154 -172.5 -224t-114.5 -97t-123 -27q-153 0 -153 151q0 70 43 221l82 273q28 92 28 149q0 31 -22 42.5t-92 15.5v55q137 6 370 47q12 2 58 10l-193 -631q-31 -98 -31 -135 q0 -51 43 -51q59 0 150 113q89 110 146.5 245t144.5 433h241l-159 -549q-52 -165 -52 -215q0 -15 8.5 -25t20.5 -10q27 0 61 34.5t87 116.5zM848 1022h-100l-216 178q-32 26 -37.5 46.5t9.5 49.5q22 40 65.5 68.5t83.5 28.5q27 0 46 -22t42 -81z" />
<glyph unicode="&#xfa;" horiz-adv-x="1138" d="M1008 246q-80 -137 -159 -200.5t-171 -63.5q-68 0 -100.5 29.5t-32.5 92.5q0 76 49 226q-110 -154 -172.5 -224t-114.5 -97t-123 -27q-153 0 -153 151q0 70 43 221l82 273q28 92 28 149q0 31 -22 42.5t-92 15.5v55q137 6 370 47q12 2 58 10l-193 -631q-31 -98 -31 -135 q0 -51 43 -51q59 0 150 113q89 110 146.5 245t144.5 433h241l-159 -549q-52 -165 -52 -215q0 -15 8.5 -25t20.5 -10q27 0 61 34.5t87 116.5zM946 1296q0 -29 -17 -49.5t-63 -46.5l-311 -178h-100l250 268q57 60 86.5 81.5t56.5 21.5q40 0 69 -28.5t29 -68.5z" />
<glyph unicode="&#xfb;" horiz-adv-x="1138" d="M1008 246q-80 -137 -159 -200.5t-171 -63.5q-68 0 -100.5 29.5t-32.5 92.5q0 76 49 226q-110 -154 -172.5 -224t-114.5 -97t-123 -27q-153 0 -153 151q0 70 43 221l82 273q28 92 28 149q0 31 -22 42.5t-92 15.5v55q137 6 370 47q12 2 58 10l-193 -631q-31 -98 -31 -135 q0 -51 43 -51q59 0 150 113q89 110 146.5 245t144.5 433h241l-159 -549q-52 -165 -52 -215q0 -15 8.5 -25t20.5 -10q27 0 61 34.5t87 116.5zM989 1030h-104l-180 195l-269 -195h-117l328 356h166z" />
<glyph unicode="&#xfc;" horiz-adv-x="1138" d="M1008 246q-80 -137 -159 -200.5t-171 -63.5q-68 0 -100.5 29.5t-32.5 92.5q0 76 49 226q-110 -154 -172.5 -224t-114.5 -97t-123 -27q-153 0 -153 151q0 70 43 221l82 273q28 92 28 149q0 31 -22 42.5t-92 15.5v55q137 6 370 47q12 2 58 10l-193 -631q-31 -98 -31 -135 q0 -51 43 -51q59 0 150 113q89 110 146.5 245t144.5 433h241l-159 -549q-52 -165 -52 -215q0 -15 8.5 -25t20.5 -10q27 0 61 34.5t87 116.5zM618 1206q0 -54 -39.5 -92.5t-95.5 -38.5q-53 0 -92 39.5t-39 91.5q0 56 38.5 95.5t92.5 39.5q55 0 95 -39.5t40 -95.5zM1049 1206 q0 -54 -40 -92.5t-96 -38.5q-53 0 -92 39.5t-39 91.5q0 56 38.5 95.5t92.5 39.5q56 0 96 -40t40 -95z" />
<glyph unicode="&#xfd;" horiz-adv-x="909" d="M803 815q0 -155 -155 -464t-355 -554q-85 -103 -179.5 -160t-179.5 -57q-54 0 -90.5 35.5t-36.5 87.5q0 44 31.5 78.5t71.5 34.5q63 0 123 -43q13 -10 35.5 -19.5t33.5 -9.5q26 0 66 30.5t72 75.5q51 71 51 142q0 101 -103 590q-47 220 -98 249q-19 11 -61 11v55 q175 16 305 49q58 -151 135 -567l25 -154q107 205 142.5 289t35.5 131q0 21 -10 36t-39 36q-37 28 -50.5 51t-13.5 61q0 46 35.5 81.5t81.5 35.5q51 0 89 -39t38 -92zM819 1296q0 -29 -17 -49.5t-63 -46.5l-311 -178h-100l250 268q57 60 86.5 81.5t56.5 21.5q40 0 69 -28.5 t29 -68.5z" />
<glyph unicode="&#xfe;" d="M913 698q0 -173 -83 -342.5t-215.5 -276t-268.5 -106.5q-32 0 -58.5 8.5t-80.5 36.5q-9 -36 -23 -84q-53 -194 -53 -233q0 -37 28 -50.5t105 -15.5v-55h-510v55q75 -2 103.5 29t56.5 146l332 1290q35 130 35 153q0 62 -93 62h-36v55q231 25 421 62l-194 -697l6 -6 q78 117 149.5 167t159.5 50q100 0 159.5 -67.5t59.5 -180.5zM657 684q3 50 -18.5 82t-60.5 35q-40 3 -88.5 -33t-86.5 -96q-23 -34 -41 -83t-53 -165q-78 -264 -78 -305q0 -31 23 -52.5t57 -21.5q104 0 199 168q56 101 98.5 236t48.5 235z" />
<glyph unicode="&#xff;" horiz-adv-x="909" d="M803 815q0 -155 -155 -464t-355 -554q-85 -103 -179.5 -160t-179.5 -57q-54 0 -90.5 35.5t-36.5 87.5q0 44 31.5 78.5t71.5 34.5q63 0 123 -43q13 -10 35.5 -19.5t33.5 -9.5q26 0 66 30.5t72 75.5q51 71 51 142q0 101 -103 590q-47 220 -98 249q-19 11 -61 11v55 q175 16 305 49q58 -151 135 -567l25 -154q107 205 142.5 289t35.5 131q0 21 -10 36t-39 36q-37 28 -50.5 51t-13.5 61q0 46 35.5 81.5t81.5 35.5q51 0 89 -39t38 -92zM492 1206q0 -54 -40 -92.5t-96 -38.5q-52 0 -91.5 39.5t-39.5 91.5q0 56 38.5 95.5t92.5 39.5 q56 0 96 -40t40 -95zM922 1206q0 -54 -40 -92.5t-96 -38.5q-52 0 -91.5 39.5t-39.5 91.5q0 56 38.5 95.5t92.5 39.5q56 0 96 -40t40 -95z" />
<glyph unicode="&#x100;" horiz-adv-x="1366" d="M1214 0h-622v51q98 9 130 33t32 88q0 34 -17 147q-7 34 -14 107h-440l-121 -209q-31 -54 -31 -94q0 -37 31.5 -54.5t101.5 -17.5v-51h-401v51q55 12 87.5 40t82.5 104l762 1204h51l196 -1172q8 -44 12.5 -67t14.5 -45t18.5 -31t28.5 -17t40 -10.5t58 -5.5v-51zM709 508 l-76 498l-303 -498h379zM1196 1546h-668l35 144h666z" />
<glyph unicode="&#x101;" d="M932 229q-90 -134 -163.5 -196t-145.5 -62q-57 0 -97.5 39t-40.5 96q0 41 29 138q-87 -147 -164.5 -209t-171.5 -62q-100 0 -160.5 71.5t-60.5 188.5q0 93 33.5 196t91 193.5t128.5 164t151.5 116.5t154.5 43q66 0 102.5 -34.5t49.5 -112.5l37 121l227 14l-146 -483 q-69 -227 -69 -304q0 -30 24 -30q25 0 55 29t93 114zM621 764q0 41 -21 67t-55 29q-41 3 -90 -41.5t-95 -126.5q-63 -114 -107 -249t-44 -214q0 -47 26 -78.5t66 -31.5q42 0 86.5 39.5t85.5 113.5q60 105 104 252t44 240zM903 1137h-667l34 143h666z" />
<glyph unicode="&#x102;" horiz-adv-x="1366" d="M1214 0h-622v51q98 9 130 33t32 88q0 34 -17 147q-7 34 -14 107h-440l-121 -209q-31 -54 -31 -94q0 -37 31.5 -54.5t101.5 -17.5v-51h-401v51q55 12 87.5 40t82.5 104l762 1204h51l196 -1172q8 -44 12.5 -67t14.5 -45t18.5 -31t28.5 -17t40 -10.5t58 -5.5v-51zM709 508 l-76 498l-303 -498h379zM1237 1753q-29 -129 -130.5 -198.5t-262.5 -69.5q-155 0 -230 64t-75 204h96q18 -149 223 -149q109 0 174.5 33.5t118.5 115.5h86z" />
<glyph unicode="&#x103;" d="M932 229q-90 -134 -163.5 -196t-145.5 -62q-57 0 -97.5 39t-40.5 96q0 41 29 138q-87 -147 -164.5 -209t-171.5 -62q-100 0 -160.5 71.5t-60.5 188.5q0 93 33.5 196t91 193.5t128.5 164t151.5 116.5t154.5 43q66 0 102.5 -34.5t49.5 -112.5l37 121l227 14l-146 -483 q-69 -227 -69 -304q0 -30 24 -30q25 0 55 29t93 114zM621 764q0 41 -21 67t-55 29q-41 3 -90 -41.5t-95 -126.5q-63 -114 -107 -249t-44 -214q0 -47 26 -78.5t66 -31.5q42 0 86.5 39.5t85.5 113.5q60 105 104 252t44 240zM909 1374q-28 -160 -122.5 -246t-243.5 -86 q-143 0 -212 75.5t-69 230.5v26h88q9 -94 60 -139t149 -45q101 0 162 41.5t108 142.5h80z" />
<glyph unicode="&#x104;" horiz-adv-x="1366" d="M1126 -328q-44 -82 -113.5 -133t-144.5 -51q-64 0 -110 49.5t-43 134.5q5 171 225 328h-348v51q98 9 130 33t32 88q0 34 -17 147q-7 34 -14 107h-440l-121 -209q-31 -54 -31 -94q0 -37 31.5 -54.5t101.5 -17.5v-51h-401v51q55 12 87.5 40t82.5 104l762 1204h51l196 -1172 q8 -44 12.5 -67t14.5 -45t18.5 -31t28.5 -17t40 -10.5t58 -5.5v-51q-79 0 -150.5 -30.5t-113.5 -92.5q-41 -60 -53 -131q-1 -56 19 -86.5t57 -30.5q68 0 127 68zM709 508l-76 498l-303 -498h379z" />
<glyph unicode="&#x105;" d="M782 -328q-44 -82 -113.5 -133t-144.5 -51q-64 0 -110 49.5t-43 134.5q5 161 198 310q-38 15 -61 48.5t-23 75.5q0 41 29 138q-87 -147 -164.5 -209t-171.5 -62q-100 0 -160.5 71.5t-60.5 188.5q0 93 33.5 196t91 193.5t128.5 164t151.5 116.5t154.5 43q66 0 102.5 -34.5 t49.5 -112.5l37 121l227 14l-146 -483q-69 -227 -69 -304q0 -30 24 -30q25 0 55 29t93 114l43 -31q-89 -133 -164 -196q-150 -123 -188 -201q-22 -50 -27 -86q-1 -56 19 -86.5t57 -30.5q68 0 127 68zM621 764q0 41 -21 67t-55 29q-41 3 -90 -41.5t-95 -126.5 q-63 -114 -107 -249t-44 -214q0 -47 26 -78.5t66 -31.5q42 0 86.5 39.5t85.5 113.5q60 105 104 252t44 240z" />
<glyph unicode="&#x106;" horiz-adv-x="1366" d="M1180 268q-49 -67 -82 -102.5t-78 -69.5q-177 -133 -397 -133q-250 0 -403.5 146.5t-153.5 384.5q0 183 66.5 351.5t179 290.5t267 194.5t322.5 72.5q132 0 268 -43q53 -17 78 -17q23 0 39.5 13t38.5 47h61l-104 -479l-65 12q6 41 6 72q0 150 -72 236.5t-197 86.5 q-127 0 -245 -98q-139 -122 -233.5 -353.5t-94.5 -451.5q0 -167 81 -261.5t226 -94.5q100 0 184 37q66 28 118.5 71.5t127.5 132.5zM1233 1690q0 -23 -17.5 -38.5t-68.5 -37.5l-336 -146h-109l271 218q57 46 90.5 63.5t64.5 17.5q41 0 73 -23t32 -54z" />
<glyph unicode="&#x107;" horiz-adv-x="909" d="M709 252q-54 -77 -86 -114.5t-72 -71.5q-110 -93 -248 -93q-139 0 -226 86.5t-87 223.5q0 120 51 241.5t132 213.5t187.5 150t212.5 58q103 0 166.5 -51t63.5 -133q0 -65 -35 -104.5t-92 -39.5q-52 0 -85.5 30.5t-33.5 76.5q0 31 27 80q16 24 16 39t-13 25t-32 10 q-92 0 -176 -146q-56 -100 -91.5 -225t-35.5 -221q0 -82 41 -132.5t108 -50.5q66 0 121 41t129 144zM842 1296q0 -29 -17 -49.5t-63 -46.5l-311 -178h-101l250 268q57 60 86.5 81.5t56.5 21.5q40 0 69.5 -28.5t29.5 -68.5z" />
<glyph unicode="&#x108;" horiz-adv-x="1366" d="M1180 268q-49 -67 -82 -102.5t-78 -69.5q-177 -133 -397 -133q-250 0 -403.5 146.5t-153.5 384.5q0 183 66.5 351.5t179 290.5t267 194.5t322.5 72.5q132 0 268 -43q53 -17 78 -17q23 0 39.5 13t38.5 47h61l-104 -479l-65 12q6 41 6 72q0 150 -72 236.5t-197 86.5 q-127 0 -245 -98q-139 -122 -233.5 -353.5t-94.5 -451.5q0 -167 81 -261.5t226 -94.5q100 0 184 37q66 28 118.5 71.5t127.5 132.5zM1282 1475h-113l-196 157l-289 -157h-125l352 288h179z" />
<glyph unicode="&#x109;" horiz-adv-x="909" d="M709 252q-54 -77 -86 -114.5t-72 -71.5q-110 -93 -248 -93q-139 0 -226 86.5t-87 223.5q0 120 51 241.5t132 213.5t187.5 150t212.5 58q103 0 166.5 -51t63.5 -133q0 -65 -35 -104.5t-92 -39.5q-52 0 -85.5 30.5t-33.5 76.5q0 31 27 80q16 24 16 39t-13 25t-32 10 q-92 0 -176 -146q-56 -100 -91.5 -225t-35.5 -221q0 -82 41 -132.5t108 -50.5q66 0 121 41t129 144zM885 1030h-105l-180 195l-268 -195h-117l328 356h166z" />
<glyph unicode="&#x10a;" horiz-adv-x="1366" d="M1180 268q-49 -67 -82 -102.5t-78 -69.5q-177 -133 -397 -133q-250 0 -403.5 146.5t-153.5 384.5q0 183 66.5 351.5t179 290.5t267 194.5t322.5 72.5q132 0 268 -43q53 -17 78 -17q23 0 39.5 13t38.5 47h61l-104 -479l-65 12q6 41 6 72q0 150 -72 236.5t-197 86.5 q-127 0 -245 -98q-139 -122 -233.5 -353.5t-94.5 -451.5q0 -167 81 -261.5t226 -94.5q100 0 184 37q66 28 118.5 71.5t127.5 132.5zM1098 1618q0 -57 -41.5 -97t-100.5 -40q-57 0 -96 40.5t-39 100.5q0 54 40.5 94.5t94.5 40.5q58 0 100 -41t42 -98z" />
<glyph unicode="&#x10b;" horiz-adv-x="909" d="M709 252q-54 -77 -86 -114.5t-72 -71.5q-110 -93 -248 -93q-139 0 -226 86.5t-87 223.5q0 120 51 241.5t132 213.5t187.5 150t212.5 58q103 0 166.5 -51t63.5 -133q0 -65 -35 -104.5t-92 -39.5q-52 0 -85.5 30.5t-33.5 76.5q0 31 27 80q16 24 16 39t-13 25t-32 10 q-92 0 -176 -146q-56 -100 -91.5 -225t-35.5 -221q0 -82 41 -132.5t108 -50.5q66 0 121 41t129 144zM735 1208q0 -57 -41 -97t-100 -40q-57 0 -96 40.5t-39 100.5q0 54 40.5 95t94.5 41q58 0 99.5 -41.5t41.5 -98.5z" />
<glyph unicode="&#x10c;" horiz-adv-x="1366" d="M1180 268q-49 -67 -82 -102.5t-78 -69.5q-177 -133 -397 -133q-250 0 -403.5 146.5t-153.5 384.5q0 183 66.5 351.5t179 290.5t267 194.5t322.5 72.5q132 0 268 -43q53 -17 78 -17q23 0 39.5 13t38.5 47h61l-104 -479l-65 12q6 41 6 72q0 150 -72 236.5t-197 86.5 q-127 0 -245 -98q-139 -122 -233.5 -353.5t-94.5 -451.5q0 -167 81 -261.5t226 -94.5q100 0 184 37q66 28 118.5 71.5t127.5 132.5zM1362 1763l-352 -288h-179l-192 288h113l194 -157l291 157h125z" />
<glyph unicode="&#x10d;" horiz-adv-x="909" d="M709 252q-54 -77 -86 -114.5t-72 -71.5q-110 -93 -248 -93q-139 0 -226 86.5t-87 223.5q0 120 51 241.5t132 213.5t187.5 150t212.5 58q103 0 166.5 -51t63.5 -133q0 -65 -35 -104.5t-92 -39.5q-52 0 -85.5 30.5t-33.5 76.5q0 31 27 80q16 24 16 39t-13 25t-32 10 q-92 0 -176 -146q-56 -100 -91.5 -225t-35.5 -221q0 -82 41 -132.5t108 -50.5q66 0 121 41t129 144zM965 1386l-332 -356h-168l-180 356h102l186 -198l277 198h115z" />
<glyph unicode="&#x10e;" horiz-adv-x="1478" d="M1403 811q0 -173 -69 -323.5t-189.5 -257.5t-289.5 -168.5t-363 -61.5h-586v51q73 9 107 39.5t57 108.5l247 913q25 94 25 121q0 37 -18.5 53.5t-67.5 22.5l-63 10v51h593q290 0 453.5 -148t163.5 -411zM1102 936q0 187 -84 279t-254 92q-51 0 -77 -17.5t-36 -60.5 l-262 -971l-2 -8q-25 -76 -25 -111q0 -37 26 -53t85 -16q149 0 260.5 59t196.5 182q79 118 125.5 286.5t46.5 338.5zM1327 1763l-352 -288h-178l-193 288h113l194 -157l291 157h125z" />
<glyph unicode="&#x10f;" d="M920 236q-85 -135 -158 -197t-148 -62q-58 0 -90 33t-32 92q0 42 22 140q-88 -147 -165 -208t-175 -61q-94 0 -155.5 72t-61.5 184q0 117 52.5 247t132 232.5t180.5 170t192 67.5q44 0 77.5 -15t70.5 -52l36 139q60 220 60 242q0 57 -84 57h-43v55q259 20 428 60 l-228 -830q-116 -421 -116 -457q0 -9 6.5 -16.5t15.5 -7.5q46 0 137 147zM631 760q0 43 -21 71t-55 29q-46 3 -99 -43.5t-102 -134.5q-56 -100 -97.5 -224.5t-45.5 -207.5q-3 -54 21.5 -91.5t62.5 -37.5q90 0 176 151q54 99 107 260t53 228zM1407 1251q1 -112 -94.5 -221 t-255.5 -180l-25 43q217 117 217 215q0 20 -12.5 36t-44.5 36q-42 30 -58 55t-16 61q0 59 37 97.5t94 38.5q71 0 114.5 -49.5t43.5 -131.5z" />
<glyph unicode="&#x110;" horiz-adv-x="1478" d="M1434 811q0 -173 -69.5 -323.5t-189.5 -257.5t-289.5 -168.5t-363.5 -61.5h-585v51q73 9 106.5 39.5t56.5 108.5l129 475h-209l25 90h209l94 348q25 94 25 121q0 37 -18.5 53.5t-67.5 22.5l-64 10v51h594q290 0 453.5 -148t163.5 -411zM1133 936q0 187 -84 279t-254 92 q-51 0 -77 -17.5t-36 -60.5l-125 -465h250l-25 -90h-250l-112 -416l-2 -8q-25 -76 -25 -111q0 -37 26 -53t85 -16q149 0 260.5 59t196.5 182q79 118 125.5 286.5t46.5 338.5z" />
<glyph unicode="&#x111;" d="M918 236q-83 -135 -156 -197t-148 -62q-58 0 -90 33.5t-32 93.5q0 29 20 138q-86 -146 -163.5 -207.5t-174.5 -61.5q-94 0 -155.5 72.5t-63.5 183.5q-1 117 50.5 247t131 232.5t180 170t191.5 67.5q44 0 77.5 -15t71.5 -52l43 172h-284l18 63h283q6 22 16 60q19 70 19 86 q-3 57 -86 57h-43v55q259 20 428 60l-86 -318h135l-17 -63h-135l-121 -449q-112 -416 -112 -457q0 -9 7 -16.5t15 -7.5q23 0 59 39t76 108zM627 758q0 43 -21 72t-55 30q-46 3 -99 -43.5t-102 -134.5q-55 -99 -95.5 -224t-45.5 -208q-2 -54 23 -91.5t63 -37.5q91 0 174 151 q52 97 105 259t53 227z" />
<glyph unicode="&#x112;" horiz-adv-x="1366" d="M1200 397l-121 -397h-1134v51q79 12 109 39t55 109l251 919q21 82 21 125q0 31 -19.5 46.5t-66.5 21.5l-64 8v51h1106l-88 -389l-55 10q0 95 -13 143t-48 85q-86 86 -316 86q-63 0 -88.5 -18.5t-40.5 -72.5l-125 -456q72 -1 118.5 1.5t89 11.5t68.5 22t52.5 39.5t46.5 59 t45 83.5l57 -8l-151 -559l-58 10q9 58 9 90q0 106 -60 143.5t-235 40.5l-115 -428q-31 -67 -31 -129q0 -37 29.5 -53t95.5 -16q270 0 439 124q56 41 94.5 86t91.5 132zM1262 1546h-668l35 144h665z" />
<glyph unicode="&#x113;" horiz-adv-x="909" d="M709 256q-92 -153 -182 -218t-208 -65q-134 0 -221.5 85.5t-87.5 215.5q0 124 51 247t132.5 216t189.5 151t217 58q94 0 154.5 -50t60.5 -128q0 -114 -110 -215q-77 -71 -167 -110t-249 -70q-13 -67 -13 -101q0 -168 132 -168q66 0 118 40.5t123 146.5zM627 809 q0 70 -58 70q-73 0 -141.5 -113.5t-124.5 -327.5q87 28 134.5 54.5t88.5 70.5q101 104 101 246zM938 1137h-668l35 143h666z" />
<glyph unicode="&#x114;" horiz-adv-x="1366" d="M1200 397l-121 -397h-1134v51q79 12 109 39t55 109l251 919q21 82 21 125q0 31 -19.5 46.5t-66.5 21.5l-64 8v51h1106l-88 -389l-55 10q0 95 -13 143t-48 85q-86 86 -316 86q-63 0 -88.5 -18.5t-40.5 -72.5l-125 -456q72 -1 118.5 1.5t89 11.5t68.5 22t52.5 39.5t46.5 59 t45 83.5l57 -8l-151 -559l-58 10q9 58 9 90q0 106 -60 143.5t-235 40.5l-115 -428q-31 -67 -31 -129q0 -37 29.5 -53t95.5 -16q270 0 439 124q56 41 94.5 86t91.5 132zM1303 1753q-29 -129 -131 -198.5t-263 -69.5q-155 0 -230 64t-75 204h96q18 -149 224 -149 q109 0 174.5 33.5t118.5 115.5h86z" />
<glyph unicode="&#x115;" horiz-adv-x="909" d="M709 256q-92 -153 -182 -218t-208 -65q-134 0 -221.5 85.5t-87.5 215.5q0 124 51 247t132.5 216t189.5 151t217 58q94 0 154.5 -50t60.5 -128q0 -114 -110 -215q-77 -71 -167 -110t-249 -70q-13 -67 -13 -101q0 -168 132 -168q66 0 118 40.5t123 146.5zM627 809 q0 70 -58 70q-73 0 -141.5 -113.5t-124.5 -327.5q87 28 134.5 54.5t88.5 70.5q101 104 101 246zM944 1374q-28 -160 -122.5 -246t-243.5 -86q-143 0 -212 75.5t-69 230.5v26h88q9 -94 60 -139t149 -45q101 0 162 41.5t108 142.5h80z" />
<glyph unicode="&#x116;" horiz-adv-x="1366" d="M1200 397l-121 -397h-1134v51q79 12 109 39t55 109l251 919q21 82 21 125q0 31 -19.5 46.5t-66.5 21.5l-64 8v51h1106l-88 -389l-55 10q0 95 -13 143t-48 85q-86 86 -316 86q-63 0 -88.5 -18.5t-40.5 -72.5l-125 -456q72 -1 118.5 1.5t89 11.5t68.5 22t52.5 39.5t46.5 59 t45 83.5l57 -8l-151 -559l-58 10q9 58 9 90q0 106 -60 143.5t-235 40.5l-115 -428q-31 -67 -31 -129q0 -37 29.5 -53t95.5 -16q270 0 439 124q56 41 94.5 86t91.5 132zM1083 1618q0 -57 -41 -97t-100 -40q-57 0 -96 40.5t-39 100.5q0 54 40.5 94.5t94.5 40.5q58 0 99.5 -41 t41.5 -98z" />
<glyph unicode="&#x117;" horiz-adv-x="909" d="M709 256q-92 -153 -182 -218t-208 -65q-134 0 -221.5 85.5t-87.5 215.5q0 124 51 247t132.5 216t189.5 151t217 58q94 0 154.5 -50t60.5 -128q0 -114 -110 -215q-77 -71 -167 -110t-249 -70q-13 -67 -13 -101q0 -168 132 -168q66 0 118 40.5t123 146.5zM627 809 q0 70 -58 70q-73 0 -141.5 -113.5t-124.5 -327.5q87 28 134.5 54.5t88.5 70.5q101 104 101 246zM760 1208q0 -57 -41.5 -97t-100.5 -40q-57 0 -96 40.5t-39 100.5q0 54 40.5 95t94.5 41q58 0 100 -41.5t42 -98.5z" />
<glyph unicode="&#x118;" horiz-adv-x="1366" d="M1200 397l-121 -397q-222 0 -303 -123q-45 -65 -53 -131q-1 -56 19 -86.5t57 -30.5q68 0 127 68l26 -25q-46 -82 -115.5 -133t-144.5 -51q-64 0 -109 49.5t-42 134.5q5 174 225 328h-821v51q79 12 109 39t55 109l251 919q21 82 21 125q0 31 -19.5 46.5t-66.5 21.5l-64 8 v51h1106l-88 -389l-55 10q0 95 -13 143t-48 85q-86 86 -316 86q-63 0 -88.5 -18.5t-40.5 -72.5l-125 -456q72 -1 118.5 1.5t89 11.5t68.5 22t52.5 39.5t46.5 59t45 83.5l57 -8l-151 -559l-58 10q9 58 9 90q0 106 -60 143.5t-235 40.5l-115 -428q-31 -67 -31 -129 q0 -37 29.5 -53t95.5 -16q270 0 439 124q56 41 94.5 86t91.5 132z" />
<glyph unicode="&#x119;" horiz-adv-x="909" d="M709 256q-126 -207 -258 -260q-132 -48 -179 -119q-43 -67 -51 -131q-1 -56 19 -86.5t57 -30.5q65 0 127 68l27 -25q-46 -82 -116 -133t-145 -51q-64 0 -109 49.5t-42 134.5q2 164 201 310q-104 25 -167 104t-63 188q0 124 51 247t132.5 216t189.5 151t217 58 q94 0 154.5 -50t60.5 -128q0 -114 -110 -215q-77 -71 -167 -110t-249 -70q-13 -67 -13 -101q0 -168 132 -168q66 0 118 40.5t123 146.5zM627 809q0 70 -58 70q-73 0 -141.5 -113.5t-124.5 -327.5q87 28 134.5 54.5t88.5 70.5q101 104 101 246z" />
<glyph unicode="&#x11a;" horiz-adv-x="1366" d="M1200 397l-121 -397h-1134v51q79 12 109 39t55 109l251 919q21 82 21 125q0 31 -19.5 46.5t-66.5 21.5l-64 8v51h1106l-88 -389l-55 10q0 95 -13 143t-48 85q-86 86 -316 86q-63 0 -88.5 -18.5t-40.5 -72.5l-125 -456q72 -1 118.5 1.5t89 11.5t68.5 22t52.5 39.5t46.5 59 t45 83.5l57 -8l-151 -559l-58 10q9 58 9 90q0 106 -60 143.5t-235 40.5l-115 -428q-31 -67 -31 -129q0 -37 29.5 -53t95.5 -16q270 0 439 124q56 41 94.5 86t91.5 132zM1348 1763l-353 -288h-178l-192 288h112l195 -157l291 157h125z" />
<glyph unicode="&#x11b;" horiz-adv-x="909" d="M709 256q-92 -153 -182 -218t-208 -65q-134 0 -221.5 85.5t-87.5 215.5q0 124 51 247t132.5 216t189.5 151t217 58q94 0 154.5 -50t60.5 -128q0 -114 -110 -215q-77 -71 -167 -110t-249 -70q-13 -67 -13 -101q0 -168 132 -168q66 0 118 40.5t123 146.5zM627 809 q0 70 -58 70q-73 0 -141.5 -113.5t-124.5 -327.5q87 28 134.5 54.5t88.5 70.5q101 104 101 246zM989 1386l-332 -356h-168l-180 356h103l186 -198l276 198h115z" />
<glyph unicode="&#x11c;" horiz-adv-x="1478" d="M1446 623q-81 -6 -107 -33t-55 -135l-98 -371l-58 -27q-87 -41 -222.5 -67.5t-256.5 -26.5q-270 0 -438 152.5t-168 398.5q0 234 123 447.5t326 332.5q189 109 426 109q131 0 253 -43q53 -19 74 -19q30 0 49.5 14t36.5 48h64l-105 -453l-59 8q-3 104 -16.5 160t-47.5 107 q-34 50 -91.5 77t-129.5 27q-145 0 -264 -104q-138 -122 -229 -348t-91 -451q0 -187 86.5 -286t249.5 -99q60 0 115.5 17.5t77.5 43.5q7 11 59 187q38 125 49 173t11 87q0 13 -8 28t-17 21q-31 16 -127 25v53h588v-53zM1298 1475h-112l-197 157l-289 -157h-125l353 288h178z " />
<glyph unicode="&#x11d;" d="M768 -109q0 -135 -136.5 -221t-352.5 -86q-177 0 -281 58.5t-104 158.5q0 79 55 127q37 29 79 46t138 40q-68 23 -97.5 55t-29.5 81q0 57 35 92t162 106q-164 69 -164 225q0 155 132.5 264t321.5 109q71 0 122.5 -15t103.5 -52h227v-115h-137q12 -49 12 -86 q0 -93 -46.5 -168.5t-135.5 -126.5q-121 -70 -260 -70q-30 0 -64 9q-21 8 -41 8t-38.5 -24.5t-18.5 -49.5q0 -23 27.5 -44t76.5 -34l109 -31q168 -47 236.5 -104.5t68.5 -151.5zM545 -205q0 74 -84 117q-36 16 -121.5 45.5t-103.5 30.5q-12 1 -48.5 -20.5t-56.5 -41.5 q-59 -56 -59 -112q0 -70 63.5 -115t163.5 -45q117 0 181.5 37t64.5 104zM555 518q59 128 59 244q0 54 -26 87.5t-66 33.5q-77 0 -135 -101q-33 -59 -55.5 -141t-22.5 -143q0 -58 22.5 -89.5t63.5 -31.5q95 0 160 141zM885 1030h-105l-180 195l-268 -195h-117l328 356h166z " />
<glyph unicode="&#x11e;" horiz-adv-x="1478" d="M1446 623q-81 -6 -107 -33t-55 -135l-98 -371l-58 -27q-87 -41 -222.5 -67.5t-256.5 -26.5q-270 0 -438 152.5t-168 398.5q0 234 123 447.5t326 332.5q189 109 426 109q131 0 253 -43q53 -19 74 -19q30 0 49.5 14t36.5 48h64l-105 -453l-59 8q-3 104 -16.5 160t-47.5 107 q-34 50 -91.5 77t-129.5 27q-145 0 -264 -104q-138 -122 -229 -348t-91 -451q0 -187 86.5 -286t249.5 -99q60 0 115.5 17.5t77.5 43.5q7 11 59 187q38 125 49 173t11 87q0 13 -8 28t-17 21q-31 16 -127 25v53h588v-53zM1333 1753q-29 -129 -130.5 -198.5t-262.5 -69.5 q-155 0 -230 64t-75 204h96q18 -149 223 -149q109 0 174.5 33.5t118.5 115.5h86z" />
<glyph unicode="&#x11f;" d="M768 -109q0 -135 -136.5 -221t-352.5 -86q-177 0 -281 58.5t-104 158.5q0 79 55 127q37 29 79 46t138 40q-68 23 -97.5 55t-29.5 81q0 57 35 92t162 106q-164 69 -164 225q0 155 132.5 264t321.5 109q71 0 122.5 -15t103.5 -52h227v-115h-137q12 -49 12 -86 q0 -93 -46.5 -168.5t-135.5 -126.5q-121 -70 -260 -70q-30 0 -64 9q-21 8 -41 8t-38.5 -24.5t-18.5 -49.5q0 -23 27.5 -44t76.5 -34l109 -31q168 -47 236.5 -104.5t68.5 -151.5zM545 -205q0 74 -84 117q-36 16 -121.5 45.5t-103.5 30.5q-12 1 -48.5 -20.5t-56.5 -41.5 q-59 -56 -59 -112q0 -70 63.5 -115t163.5 -45q117 0 181.5 37t64.5 104zM555 518q59 128 59 244q0 54 -26 87.5t-66 33.5q-77 0 -135 -101q-33 -59 -55.5 -141t-22.5 -143q0 -58 22.5 -89.5t63.5 -31.5q95 0 160 141zM920 1374q-28 -160 -123 -246t-244 -86 q-143 0 -212 75.5t-69 230.5v26h88q9 -94 60 -139t149 -45q101 0 162.5 41.5t108.5 142.5h80z" />
<glyph unicode="&#x120;" horiz-adv-x="1478" d="M1446 623q-81 -6 -107 -33t-55 -135l-98 -371l-58 -27q-87 -41 -222.5 -67.5t-256.5 -26.5q-270 0 -438 152.5t-168 398.5q0 234 123 447.5t326 332.5q189 109 426 109q131 0 253 -43q53 -19 74 -19q30 0 49.5 14t36.5 48h64l-105 -453l-59 8q-3 104 -16.5 160t-47.5 107 q-34 50 -91.5 77t-129.5 27q-145 0 -264 -104q-138 -122 -229 -348t-91 -451q0 -187 86.5 -286t249.5 -99q60 0 115.5 17.5t77.5 43.5q7 11 59 187q38 125 49 173t11 87q0 13 -8 28t-17 21q-31 16 -127 25v53h588v-53zM1114 1618q0 -57 -41 -97t-100 -40q-57 0 -96 40.5 t-39 100.5q0 54 40.5 94.5t94.5 40.5q58 0 99.5 -41t41.5 -98z" />
<glyph unicode="&#x121;" d="M768 -109q0 -135 -136.5 -221t-352.5 -86q-177 0 -281 58.5t-104 158.5q0 79 55 127q37 29 79 46t138 40q-68 23 -97.5 55t-29.5 81q0 57 35 92t162 106q-164 69 -164 225q0 155 132.5 264t321.5 109q71 0 122.5 -15t103.5 -52h227v-115h-137q12 -49 12 -86 q0 -93 -46.5 -168.5t-135.5 -126.5q-121 -70 -260 -70q-30 0 -64 9q-21 8 -41 8t-38.5 -24.5t-18.5 -49.5q0 -23 27.5 -44t76.5 -34l109 -31q168 -47 236.5 -104.5t68.5 -151.5zM545 -205q0 74 -84 117q-36 16 -121.5 45.5t-103.5 30.5q-12 1 -48.5 -20.5t-56.5 -41.5 q-59 -56 -59 -112q0 -70 63.5 -115t163.5 -45q117 0 181.5 37t64.5 104zM555 518q59 128 59 244q0 54 -26 87.5t-66 33.5q-77 0 -135 -101q-33 -59 -55.5 -141t-22.5 -143q0 -58 22.5 -89.5t63.5 -31.5q95 0 160 141zM735 1208q0 -57 -41 -97t-100 -40q-57 0 -96 40.5 t-39 100.5q0 54 40.5 95t94.5 41q58 0 99.5 -41.5t41.5 -98.5z" />
<glyph unicode="&#x122;" horiz-adv-x="1478" d="M1446 623q-81 -6 -107 -33t-55 -135l-98 -371l-58 -27q-87 -41 -222.5 -67.5t-256.5 -26.5q-270 0 -438 152.5t-168 398.5q0 234 123 447.5t326 332.5q189 109 426 109q131 0 253 -43q53 -19 74 -19q30 0 49.5 14t36.5 48h64l-105 -453l-59 8q-3 104 -16.5 160t-47.5 107 q-34 50 -91.5 77t-129.5 27q-145 0 -264 -104q-138 -122 -229 -348t-91 -451q0 -187 86.5 -286t249.5 -99q60 0 115.5 17.5t77.5 43.5q7 11 59 187q38 125 49 173t11 87q0 13 -8 28t-17 21q-31 16 -127 25v53h588v-53zM680 -262q0 -113 -95 -222.5t-255 -179.5l-25 43 q215 117 215 215q0 20 -12 36t-43 36q-41 29 -57.5 54.5t-16.5 62.5q-1 58 35.5 96.5t93.5 38.5q71 0 115 -49t45 -131z" />
<glyph unicode="&#x123;" d="M719 1098q0 -59 -37 -97t-94 -38q-71 0 -114.5 49.5t-43.5 130.5q-1 112 94.5 221t255.5 180l25 -43q-217 -117 -217 -215q0 -20 12.5 -36t44.5 -36q42 -30 58 -55t16 -61zM768 -109q0 -135 -136.5 -221t-352.5 -86q-177 0 -281 58.5t-104 158.5q0 79 55 127q37 29 79 46 t138 40q-68 23 -97.5 55t-29.5 81q0 57 35 92t162 106q-164 69 -164 225q0 155 132.5 264t321.5 109q71 0 122.5 -15t103.5 -52h227v-115h-137q12 -49 12 -86q0 -93 -46.5 -168.5t-135.5 -126.5q-121 -70 -260 -70q-30 0 -64 9q-21 8 -41 8t-38.5 -24.5t-18.5 -49.5 q0 -23 27.5 -44t76.5 -34l109 -31q168 -47 236.5 -104.5t68.5 -151.5zM545 -205q0 74 -84 117q-36 16 -121.5 45.5t-103.5 30.5q-12 1 -48.5 -20.5t-56.5 -41.5q-59 -56 -59 -112q0 -70 63.5 -115t163.5 -45q117 0 181.5 37t64.5 104zM555 518q59 128 59 244q0 54 -26 87.5 t-66 33.5q-77 0 -135 -101q-33 -59 -55.5 -141t-22.5 -143q0 -58 22.5 -89.5t63.5 -31.5q95 0 160 141z" />
<glyph unicode="&#x124;" horiz-adv-x="1593" d="M1346 0h-650v51q103 6 144 35.5t63 112.5l131 475h-489l-103 -371l-8 -33q-26 -82 -26 -131q0 -50 25.5 -65.5t123.5 -22.5v-51h-606v51q76 10 107.5 39t56.5 109l250 919q22 78 22 119q0 34 -18.5 50t-67.5 22l-63 10v51h649v-51q-99 -3 -140.5 -33t-66.5 -115 l-111 -407h490l96 354q21 82 21 125q0 31 -18.5 45.5t-65.5 20.5l-66 10v51h610v-51q-78 -11 -109.5 -38.5t-56.5 -109.5l-223 -813l-12 -45q-39 -133 -39 -178q0 -44 32.5 -62.5t117.5 -21.5v-51zM1346 1475h-113l-197 157l-288 -157h-125l352 288h178z" />
<glyph unicode="&#x125;" horiz-adv-x="1138" d="M1020 260q-101 -158 -174.5 -218t-167.5 -60q-60 0 -97.5 33t-37.5 85q0 63 25 157t100 316q55 168 55 183q0 17 -13 30t-32 13q-81 0 -213 -193q-75 -110 -120.5 -223t-123.5 -383h-248l316 1161q16 60 16 86q0 70 -84 70l-45 -2v55q193 16 426 62l-219 -852 q152 216 241 291t193 75q72 0 114 -40.5t42 -112.5q0 -58 -62 -250l-118 -365q-7 -19 -7 -24q0 -11 11.5 -22t23.5 -11q20 0 54 37.5t100 132.5zM1341 1536h-112l-197 158l-289 -158h-125l353 289h178z" />
<glyph unicode="&#x126;" horiz-adv-x="1593" d="M1346 0h-650v51q103 6 144 35.5t63 112.5l131 475h-489l-103 -371l-8 -33q-26 -82 -26 -131q0 -50 25.5 -65.5t123.5 -22.5v-51h-606v51q76 10 107.5 39t56.5 109l217 798h-195l19 62h192l17 59q22 78 22 119q0 34 -18.5 50t-67.5 22l-63 10v51h649v-51 q-99 -3 -140.5 -33t-66.5 -115l-31 -112h490l16 59q21 82 21 125q0 31 -18.5 45.5t-65.5 20.5l-66 10v51h610v-51q-78 -11 -109.5 -38.5t-56.5 -109.5l-30 -112h190l-18 -62h-189l-176 -639l-12 -45q-39 -133 -39 -178q0 -44 32.5 -62.5t117.5 -21.5v-51zM1122 997h-489 l-64 -233h490z" />
<glyph unicode="&#x127;" horiz-adv-x="1320" d="M1300 260q-101 -158 -174.5 -218t-167.5 -60q-60 0 -97.5 33t-37.5 85q0 63 25 157t100 316q56 171 56 183q0 17 -13.5 30t-32.5 13q-81 0 -213 -193q-74 -109 -119 -222t-124 -384h-248l303 1114h-168l17 62h167q13 57 13 71q0 70 -84 70l-45 -2v55q193 16 426 62 l-66 -256h348l-16 -62h-348l-137 -534q152 216 241 291t193 75q72 0 113.5 -40.5t41.5 -112.5q0 -61 -61 -250l-119 -365q-6 -16 -6 -24q0 -11 11.5 -22t23.5 -11q20 0 53.5 37t99.5 133z" />
<glyph unicode="&#x128;" horiz-adv-x="796" d="M541 0h-607v51q74 9 106.5 38.5t57.5 109.5l252 919q21 82 21 125q0 31 -18.5 45.5t-65.5 20.5q-46 8 -66 10v51h610v-51q-78 -9 -110 -37.5t-57 -110.5l-234 -860q-37 -130 -37 -178q0 -43 30.5 -60.5t117.5 -21.5v-51zM1001 1741q-34 -129 -90.5 -186.5t-148.5 -57.5 q-52 0 -117 27l-121 47q-43 16 -78 16q-34 0 -56 -19.5t-42 -68.5h-82q20 110 85 176t153 66q78 0 198 -53q79 -33 111 -33q36 0 59 18.5t46 67.5h83z" />
<glyph unicode="&#x129;" horiz-adv-x="569" d="M487 260q-107 -162 -178.5 -220t-163.5 -58q-63 0 -102 35.5t-39 93.5q0 41 27 141l119 440q14 61 14 82q0 60 -94 60h-27v55q241 18 414 57l-187 -684q-18 -79 -18 -106q0 -12 9.5 -21.5t21.5 -9.5q50 0 131 123l28 41zM776 1331q-34 -129 -90.5 -186.5t-148.5 -57.5 q-52 0 -117 27l-121 47q-46 17 -78 17q-34 0 -56 -19.5t-42 -68.5h-82q20 110 85 175.5t153 65.5q78 0 198 -53q79 -33 111 -33q36 0 58.5 18.5t45.5 67.5h84z" />
<glyph unicode="&#x12a;" horiz-adv-x="796" d="M541 0h-607v51q74 9 106.5 38.5t57.5 109.5l252 919q21 82 21 125q0 31 -18.5 45.5t-65.5 20.5q-46 8 -66 10v51h610v-51q-78 -9 -110 -37.5t-57 -110.5l-234 -860q-37 -130 -37 -178q0 -43 30.5 -60.5t117.5 -21.5v-51zM950 1546h-667l34 144h666z" />
<glyph unicode="&#x12b;" horiz-adv-x="569" d="M487 260q-107 -162 -178.5 -220t-163.5 -58q-63 0 -102 35.5t-39 93.5q0 41 27 141l119 440q14 61 14 82q0 60 -94 60h-27v55q241 18 414 57l-187 -684q-18 -79 -18 -106q0 -12 9.5 -21.5t21.5 -9.5q50 0 131 123l28 41zM723 1137h-668l35 143h666z" />
<glyph unicode="&#x12c;" horiz-adv-x="796" d="M541 0h-607v51q74 9 106.5 38.5t57.5 109.5l252 919q21 82 21 125q0 31 -18.5 45.5t-65.5 20.5q-46 8 -66 10v51h610v-51q-78 -9 -110 -37.5t-57 -110.5l-234 -860q-37 -130 -37 -178q0 -43 30.5 -60.5t117.5 -21.5v-51zM991 1753q-29 -129 -130.5 -198.5t-262.5 -69.5 q-155 0 -230 64t-75 204h96q18 -149 223 -149q109 0 174.5 33.5t118.5 115.5h86z" />
<glyph unicode="&#x12d;" horiz-adv-x="569" d="M487 260q-107 -162 -178.5 -220t-163.5 -58q-63 0 -102 35.5t-39 93.5q0 41 27 141l119 440q14 61 14 82q0 60 -94 60h-27v55q241 18 414 57l-187 -684q-18 -79 -18 -106q0 -12 9.5 -21.5t21.5 -9.5q50 0 131 123l28 41zM729 1374q-28 -160 -123 -246t-244 -86 q-142 0 -211 75.5t-69 230.5v26h88q9 -94 60 -139t149 -45q101 0 162 41.5t108 142.5h80z" />
<glyph unicode="&#x12e;" horiz-adv-x="796" d="M453 -328q-44 -82 -113.5 -133t-144.5 -51q-64 0 -110.5 49.5t-43.5 134.5q5 171 225 328h-332v51q74 9 106.5 38.5t57.5 109.5l252 919q21 82 21 125q0 31 -18.5 45.5t-65.5 20.5q-46 8 -66 10v51h610v-51q-78 -9 -110 -37.5t-57 -110.5l-234 -860q-37 -130 -37 -178 q0 -43 30.5 -60.5t117.5 -21.5v-51q-79 0 -151 -30.5t-114 -92.5q-41 -60 -53 -131q-1 -56 19 -86.5t57 -30.5q68 0 127 68z" />
<glyph unicode="&#x12f;" horiz-adv-x="569" d="M330 -328q-44 -81 -114.5 -132.5t-145.5 -51.5q-64 0 -109.5 49.5t-42.5 134.5q5 162 203 312q-54 6 -85.5 40t-31.5 87q0 41 27 141l119 440q14 61 14 82q0 60 -94 60h-27v55q241 18 414 57l-187 -684q-18 -79 -18 -106q0 -12 9.5 -21.5t21.5 -9.5q50 0 131 123l28 41 l45 -29q-106 -160 -178 -221q-80 -63 -135 -133q-64 -81 -74 -160q-1 -56 19 -86.5t57 -30.5q68 0 127 68zM545 1208q0 -57 -41.5 -97t-100.5 -40q-57 0 -96 40.5t-39 100.5q0 54 40.5 95t94.5 41q58 0 100 -41.5t42 -98.5z" />
<glyph unicode="&#x130;" horiz-adv-x="796" d="M541 0h-607v51q74 9 106.5 38.5t57.5 109.5l252 919q21 82 21 125q0 31 -18.5 45.5t-65.5 20.5q-46 8 -66 10v51h610v-51q-78 -9 -110 -37.5t-57 -110.5l-234 -860q-37 -130 -37 -178q0 -43 30.5 -60.5t117.5 -21.5v-51zM772 1618q0 -57 -41 -97t-100 -40q-57 0 -96 40.5 t-39 100.5q0 54 40.5 94.5t94.5 40.5q58 0 99.5 -41t41.5 -98z" />
<glyph unicode="&#x131;" horiz-adv-x="569" d="M487 260q-107 -162 -178.5 -220t-163.5 -58q-63 0 -102 35.5t-39 93.5q0 41 27 141l119 440q14 61 14 82q0 60 -94 60h-27v55q241 18 414 57l-187 -684q-18 -79 -18 -106q0 -12 9.5 -21.5t21.5 -9.5q50 0 131 123l28 41z" />
<glyph unicode="&#x134;" d="M1073 1319q-75 -9 -107.5 -37.5t-58.5 -110.5l-262 -981q-54 -201 -158 -297t-270 -96q-135 0 -223 58t-88 149q0 61 37.5 102t93.5 41q54 0 91.5 -37t37.5 -92q0 -22 -5 -34.5t-22 -32.5q-20 -22 -20 -43q0 -37 55 -37q40 0 65 28t51 101t68 233l234 885q22 86 22 125 q0 55 -86 66l-63 10v51h608v-51zM1200 1475h-113l-196 157l-289 -157h-125l352 288h179z" />
<glyph unicode="&#x135;" horiz-adv-x="569" d="M256 49q-122 -473 -428 -473q-97 0 -156 43.5t-59 114.5q0 44 29.5 76t70.5 32t71 -29.5t30 -70.5q0 -27 -21 -57q-10 -15 -10 -21q0 -9 15 -16.5t34 -7.5q43 0 74 57.5t71 210.5l189 727q24 91 24 137q0 62 -86 62h-41v55q171 15 252.5 26t173.5 31zM731 1030h-104 l-181 195l-268 -195h-117l328 356h166z" />
<glyph unicode="&#x136;" horiz-adv-x="1366" d="M1253 0h-573v51l55 6q78 6 78 49q0 28 -27 89l-231 495l-137 -510q-4 -20 -4 -35q0 -51 27.5 -69.5t107.5 -24.5v-51h-592v51q75 9 107 38t57 110l250 919q22 78 22 119q0 34 -18.5 50t-67.5 22l-63 10v51h635v-51q-90 -7 -129 -37.5t-64 -110.5l-127 -466l404 358 q87 81 122 126t35 75q0 23 -16.5 34.5t-54.5 16.5l-43 4v51h432v-51q-68 -9 -98 -24t-95 -74l-442 -406l321 -692q17 -37 43.5 -51.5t85.5 -20.5v-51zM752 -262q0 -112 -95.5 -221.5t-255.5 -180.5l-24 43q215 117 215 215q0 20 -12 36t-43 36q-41 29 -57.5 54.5t-16.5 62.5 q-1 58 35.5 96.5t93.5 38.5q71 0 115 -49t45 -131z" />
<glyph unicode="&#x137;" d="M915 238q-76 -140 -138.5 -197t-139.5 -57q-95 0 -148.5 97.5t-103.5 358.5l-80 -55l-102 -385h-250l319 1161q17 64 17 86q0 70 -86 70l-43 -2v55q194 19 426 62l-252 -943q195 153 265.5 222.5t70.5 109.5q0 25 -22 34.5t-83 12.5v52h424v-52q-71 -9 -121.5 -37.5 t-154.5 -117.5l-129 -113q21 -107 35.5 -174t28.5 -124.5t24 -87.5t22 -51t23 -27.5t26 -6.5q29 0 57.5 29t69.5 102zM498 -262q0 -112 -95.5 -221.5t-255.5 -180.5l-24 43q215 117 215 215q0 20 -12 36t-43 36q-41 29 -57.5 54.5t-16.5 62.5q-1 58 35.5 96.5t93.5 38.5 q71 0 115 -49t45 -131z" />
<glyph unicode="&#x139;" horiz-adv-x="1251" d="M1208 397l-121 -397h-1132v51q74 9 106.5 38.5t57.5 109.5l252 919q20 78 20 125q0 31 -18.5 45.5t-65.5 20.5q-47 8 -65 10v51h649v-51q-102 -6 -142 -34.5t-65 -113.5l-264 -978q-10 -38 -10 -66q0 -32 31 -46.5t100 -14.5q261 0 432 124q58 43 97 88.5t89 129.5z M913 1690q0 -23 -17.5 -38.5t-68.5 -37.5l-335 -146h-109l270 218q57 46 91 63.5t65 17.5q41 0 72.5 -23t31.5 -54z" />
<glyph unicode="&#x13a;" horiz-adv-x="569" d="M487 260q-106 -161 -178 -219.5t-166 -58.5q-63 0 -101 33.5t-38 88.5q0 73 70 324l153 541q68 249 68 291q0 57 -86 57q-20 0 -43 -2v55q189 17 428 62l-297 -1072q-45 -161 -45 -204q0 -12 9.5 -21.5t21.5 -9.5q27 0 62 36t97 128zM797 1751q0 -23 -17.5 -38.5 t-68.5 -37.5l-336 -145h-109l271 217q58 46 91.5 64t63.5 18q41 0 73 -23.5t32 -54.5z" />
<glyph unicode="&#x13b;" horiz-adv-x="1251" d="M1208 397l-121 -397h-1132v51q74 9 106.5 38.5t57.5 109.5l252 919q20 78 20 125q0 31 -18.5 45.5t-65.5 20.5q-47 8 -65 10v51h649v-51q-102 -6 -142 -34.5t-65 -113.5l-264 -978q-10 -38 -10 -66q0 -32 31 -46.5t100 -14.5q261 0 432 124q58 43 97 88.5t89 129.5z M764 -262q0 -113 -95 -222.5t-255 -179.5l-25 43q215 117 215 215q0 20 -12 36t-43 36q-41 29 -57.5 54.5t-16.5 62.5q-1 58 35.5 96.5t93.5 38.5q71 0 115 -49t45 -131z" />
<glyph unicode="&#x13c;" horiz-adv-x="569" d="M487 260q-106 -161 -178 -219.5t-166 -58.5q-63 0 -101 33.5t-38 88.5q0 73 70 324l153 541q68 249 68 291q0 57 -86 57q-20 0 -43 -2v55q189 17 428 62l-297 -1072q-45 -161 -45 -204q0 -12 9.5 -21.5t21.5 -9.5q27 0 62 36t97 128zM227 -262q0 -113 -95 -222.5 t-255 -179.5l-24 43q215 117 215 215q0 20 -12.5 35.5t-43.5 36.5q-41 29 -57 54.5t-16 62.5q-1 58 35.5 96.5t93.5 38.5q71 0 114.5 -49t44.5 -131z" />
<glyph unicode="&#x13d;" horiz-adv-x="1251" d="M1208 397l-121 -397h-1132v51q74 9 106.5 38.5t57.5 109.5l252 919q20 78 20 125q0 31 -18.5 45.5t-65.5 20.5q-47 8 -65 10v51h649v-51q-102 -6 -142 -34.5t-65 -113.5l-264 -978q-10 -38 -10 -66q0 -32 31 -46.5t100 -14.5q261 0 432 124q58 43 97 88.5t89 129.5z M1253 1190q0 -113 -95 -222.5t-255 -179.5l-24 43q218 117 215 216q0 20 -12.5 35t-43.5 36q-41 29 -57 54.5t-16 62.5q0 59 36 97t93 38q71 0 115 -49.5t44 -130.5z" />
<glyph unicode="&#x13e;" horiz-adv-x="569" d="M487 260q-106 -161 -178 -219.5t-166 -58.5q-63 0 -101 33.5t-38 88.5q0 73 70 324l153 541q68 249 68 291q0 57 -86 57q-20 0 -43 -2v55q189 17 428 62l-297 -1072q-45 -161 -45 -204q0 -12 9.5 -21.5t21.5 -9.5q27 0 62 36t97 128zM942 1251q1 -112 -94.5 -221 t-255.5 -180l-25 43q217 117 217 215q0 20 -12.5 36t-44.5 36q-42 30 -58 55t-16 61q0 59 37 97.5t94 38.5q71 0 114.5 -49.5t43.5 -131.5z" />
<glyph unicode="&#x13f;" horiz-adv-x="1251" d="M1208 397l-121 -397h-1132v51q74 9 106.5 38.5t57.5 109.5l252 919q20 78 20 125q0 31 -18.5 45.5t-65.5 20.5q-47 8 -65 10v51h649v-51q-102 -6 -142 -34.5t-65 -113.5l-264 -978q-10 -38 -10 -66q0 -32 31 -46.5t100 -14.5q261 0 432 124q58 43 97 88.5t89 129.5z M1186 756q0 -57 -41.5 -97.5t-100.5 -40.5q-57 0 -96 41t-39 101q0 54 40.5 94.5t94.5 40.5q58 0 100 -41t42 -98z" />
<glyph unicode="&#x140;" horiz-adv-x="647" d="M487 260q-106 -161 -178 -219.5t-166 -58.5q-63 0 -101 33.5t-38 88.5q0 73 70 324l153 541q68 249 68 291q0 57 -86 57q-20 0 -43 -2v55q189 17 428 62l-297 -1072q-45 -161 -45 -204q0 -12 9.5 -21.5t21.5 -9.5q27 0 62 36t97 128zM748 756q0 -57 -41.5 -97.5 t-100.5 -40.5q-57 0 -96 41t-39 101q0 54 40.5 94.5t94.5 40.5q58 0 100 -41t42 -98z" />
<glyph unicode="&#x141;" horiz-adv-x="1251" d="M1208 397l-121 -397h-1132v51q74 9 106.5 38.5t57.5 109.5l90 333l-143 -98l45 144l137 94l123 446q20 78 20 125q0 31 -18.5 45.5t-65.5 20.5q-47 8 -65 10v51h649v-51q-102 -6 -142 -34.5t-65 -113.5l-84 -309l363 246l-43 -143l-357 -242l-143 -530q-10 -38 -10 -66 q0 -32 31 -46.5t100 -14.5q261 0 432 124q58 43 97 88.5t89 129.5z" />
<glyph unicode="&#x142;" horiz-adv-x="569" d="M487 260q-106 -161 -178 -219.5t-166 -58.5q-63 0 -101 33.5t-38 88.5q0 73 70 324l55 211l-137 -115l39 146l139 114l57 185q68 249 68 291q0 57 -86 57q-20 0 -43 -2v55q189 17 428 62l-125 -453l184 154l-41 -146l-184 -153l-131 -474q-45 -161 -45 -204 q0 -12 9.5 -21.5t21.5 -9.5q27 0 62 36t97 128z" />
<glyph unicode="&#x143;" horiz-adv-x="1478" d="M1532 1319q-25 -6 -40 -10t-31.5 -13t-25.5 -16.5t-22 -26.5t-20.5 -36t-20 -52.5t-22.5 -68t-27 -90.5l-293 -1037h-57l-527 1125l-202 -729q-37 -127 -37 -193q0 -60 36.5 -86.5t127.5 -34.5v-51h-426v51q31 6 49 11.5t37 21t30 32t27 55t29 79t35 115.5l245 841 q-29 68 -57.5 87t-112.5 26v51h400l440 -952l164 588q37 135 37 192q0 59 -37 86.5t-127 34.5v51h428v-51zM1272 1690q0 -23 -17.5 -38.5t-68.5 -37.5l-336 -146h-109l271 218q57 46 90.5 63.5t64.5 17.5q41 0 73 -23t32 -54z" />
<glyph unicode="&#x144;" horiz-adv-x="1138" d="M1010 250q-89 -149 -161.5 -208.5t-164.5 -59.5q-66 0 -102.5 32t-36.5 90q0 41 16.5 119t40.5 150l113 340q10 33 10 43q0 17 -15.5 30t-35.5 13q-28 0 -69.5 -30t-72.5 -71q-94 -123 -158.5 -276t-137.5 -422h-248l114 418q95 332 95 364q0 29 -23 39.5t-88 12.5v55 q192 7 410 55l-131 -405q102 151 147.5 209.5t103.5 113.5q87 84 205 84q72 0 111 -39t39 -114q0 -82 -53 -236l-74 -223q-51 -150 -51 -178q0 -15 8 -25t20 -10q26 0 54.5 30t89.5 125zM948 1296q0 -29 -17 -49.5t-63 -46.5l-311 -178h-100l250 268q57 60 86.5 81.5 t56.5 21.5q40 0 69 -28.5t29 -68.5z" />
<glyph unicode="&#x145;" horiz-adv-x="1478" d="M1532 1319q-25 -6 -40 -10t-31.5 -13t-25.5 -16.5t-22 -26.5t-20.5 -36t-20 -52.5t-22.5 -68t-27 -90.5l-293 -1037h-57l-527 1125l-202 -729q-37 -127 -37 -193q0 -60 36.5 -86.5t127.5 -34.5v-51h-426v51q31 6 49 11.5t37 21t30 32t27 55t29 79t35 115.5l245 841 q-29 68 -57.5 87t-112.5 26v51h400l440 -952l164 588q37 135 37 192q0 59 -37 86.5t-127 34.5v51h428v-51zM700 -262q0 -113 -95 -222.5t-255 -179.5l-24 43q215 117 215 215q0 20 -12.5 35.5t-43.5 36.5q-41 29 -57 54.5t-16 62.5q-1 58 35.5 96.5t93.5 38.5 q71 0 114.5 -49t44.5 -131z" />
<glyph unicode="&#x146;" horiz-adv-x="1138" d="M1010 250q-89 -149 -161.5 -208.5t-164.5 -59.5q-66 0 -102.5 32t-36.5 90q0 41 16.5 119t40.5 150l113 340q10 33 10 43q0 17 -15.5 30t-35.5 13q-28 0 -69.5 -30t-72.5 -71q-94 -123 -158.5 -276t-137.5 -422h-248l114 418q95 332 95 364q0 29 -23 39.5t-88 12.5v55 q192 7 410 55l-131 -405q102 151 147.5 209.5t103.5 113.5q87 84 205 84q72 0 111 -39t39 -114q0 -82 -53 -236l-74 -223q-51 -150 -51 -178q0 -15 8 -25t20 -10q26 0 54.5 30t89.5 125zM516 -262q0 -113 -95 -222.5t-255 -179.5l-25 43q215 117 215 215q0 20 -12 36t-43 36 q-41 29 -57.5 54.5t-16.5 62.5q-1 58 35.5 96.5t93.5 38.5q71 0 115 -49t45 -131z" />
<glyph unicode="&#x147;" horiz-adv-x="1478" d="M1532 1319q-25 -6 -40 -10t-31.5 -13t-25.5 -16.5t-22 -26.5t-20.5 -36t-20 -52.5t-22.5 -68t-27 -90.5l-293 -1037h-57l-527 1125l-202 -729q-37 -127 -37 -193q0 -60 36.5 -86.5t127.5 -34.5v-51h-426v51q31 6 49 11.5t37 21t30 32t27 55t29 79t35 115.5l245 841 q-29 68 -57.5 87t-112.5 26v51h400l440 -952l164 588q37 135 37 192q0 59 -37 86.5t-127 34.5v51h428v-51zM1401 1763l-352 -288h-179l-192 288h113l194 -157l291 157h125z" />
<glyph unicode="&#x148;" horiz-adv-x="1138" d="M1010 250q-89 -149 -161.5 -208.5t-164.5 -59.5q-66 0 -102.5 32t-36.5 90q0 41 16.5 119t40.5 150l113 340q10 33 10 43q0 17 -15.5 30t-35.5 13q-28 0 -69.5 -30t-72.5 -71q-94 -123 -158.5 -276t-137.5 -422h-248l114 418q95 332 95 364q0 29 -23 39.5t-88 12.5v55 q192 7 410 55l-131 -405q102 151 147.5 209.5t103.5 113.5q87 84 205 84q72 0 111 -39t39 -114q0 -82 -53 -236l-74 -223q-51 -150 -51 -178q0 -15 8 -25t20 -10q26 0 54.5 30t89.5 125zM1071 1386l-332 -356h-168l-180 356h103l186 -198l276 198h115z" />
<glyph unicode="&#x14a;" horiz-adv-x="1478" d="M1792 1333q-103 -15 -141.5 -46t-61.5 -118l-317 -1185q-18 -68 -30.5 -109.5t-32 -95t-37 -85.5t-44 -66t-55.5 -52t-68.5 -29.5t-86.5 -11.5q-129 0 -205 47q-50 36 -71.5 98t-4.5 125q15 59 70 103.5t112 44.5q60 0 92 -46t17 -108q-10 -40 -51 -78q-34 -31 -39 -53 q-8 -29 12 -47t61 -18q75 0 137 44t85 134l59 219l-600 1077l-221 -823q-30 -109 -2 -149.5t143 -53.5l-14 -51h-465l14 51q115 13 157.5 44.5t65.5 119.5l260 971q-52 89 -78.5 118t-56.5 29l15 51h432l479 -878l168 624q30 109 2.5 151t-139.5 52l14 51h440z" />
<glyph unicode="&#x14b;" horiz-adv-x="1138" d="M1006 4q-47 -168 -125 -258q-63 -74 -153.5 -114t-195.5 -40q-127 0 -192.5 56t-40.5 145q14 54 58.5 88.5t101.5 34.5q49 0 76.5 -32.5t15.5 -76.5q-9 -30 -49 -73q-23 -26 -31 -45q-3 -15 12.5 -25t44.5 -10q51 0 84.5 36.5t55.5 116.5l225 842q46 166 -62 166 q-72 0 -161 -70q-43 -31 -47 -47l-187 -698h-284l202 758q17 65 3.5 86.5t-78.5 32.5l12 49h391l-41 -152q161 176 340 176q126 0 181 -77t20 -207z" />
<glyph unicode="&#x14c;" horiz-adv-x="1478" d="M1415 930q0 -229 -120.5 -456t-315.5 -365q-202 -146 -440 -146q-217 0 -350.5 135t-133.5 355q0 218 123 444t314 360q208 146 428 146q214 0 354.5 -134.5t140.5 -338.5zM1120 1090q0 109 -57.5 176t-149.5 67q-104 0 -191 -71t-167 -220q-80 -150 -142.5 -380.5 t-62.5 -380.5q0 -115 56 -181.5t153 -66.5q165 0 305 209q100 153 178 410t78 438zM1307 1546h-668l35 144h665z" />
<glyph unicode="&#x14d;" d="M903 637q0 -127 -49 -249.5t-128.5 -213t-187 -146t-219.5 -55.5q-141 0 -233 86t-92 217q0 126 49.5 249.5t130.5 215t189 148.5t219 57q141 0 231 -87t90 -222zM532 225q50 109 88.5 274t38.5 269q0 55 -26 87t-70 32q-101 0 -184 -154q-53 -97 -97 -276.5t-44 -296.5 q0 -60 27 -93.5t73 -33.5q108 0 194 192zM965 1137h-668l35 143h665z" />
<glyph unicode="&#x14e;" horiz-adv-x="1478" d="M1415 930q0 -229 -120.5 -456t-315.5 -365q-202 -146 -440 -146q-217 0 -350.5 135t-133.5 355q0 218 123 444t314 360q208 146 428 146q214 0 354.5 -134.5t140.5 -338.5zM1120 1090q0 109 -57.5 176t-149.5 67q-104 0 -191 -71t-167 -220q-80 -150 -142.5 -380.5 t-62.5 -380.5q0 -115 56 -181.5t153 -66.5q165 0 305 209q100 153 178 410t78 438zM1348 1753q-29 -129 -131 -198.5t-263 -69.5q-155 0 -230 64t-75 204h96q18 -149 224 -149q109 0 174.5 33.5t118.5 115.5h86z" />
<glyph unicode="&#x14f;" d="M903 637q0 -127 -49 -249.5t-128.5 -213t-187 -146t-219.5 -55.5q-141 0 -233 86t-92 217q0 126 49.5 249.5t130.5 215t189 148.5t219 57q141 0 231 -87t90 -222zM532 225q50 109 88.5 274t38.5 269q0 55 -26 87t-70 32q-101 0 -184 -154q-53 -97 -97 -276.5t-44 -296.5 q0 -60 27 -93.5t73 -33.5q108 0 194 192zM971 1374q-28 -160 -123 -246t-244 -86q-142 0 -211 75.5t-69 230.5v26h88q9 -94 60 -139t149 -45q101 0 162 41.5t108 142.5h80z" />
<glyph unicode="&#x150;" horiz-adv-x="1478" d="M1415 930q0 -229 -120.5 -456t-315.5 -365q-202 -146 -440 -146q-217 0 -350.5 135t-133.5 355q0 218 123 444t314 360q208 146 428 146q214 0 354.5 -134.5t140.5 -338.5zM1120 1090q0 109 -57.5 176t-149.5 67q-104 0 -191 -71t-167 -220q-80 -150 -142.5 -380.5 t-62.5 -380.5q0 -115 56 -181.5t153 -66.5q165 0 305 209q100 153 178 410t78 438zM1591 1690q0 -23 -17.5 -38.5t-68.5 -37.5l-336 -146h-108l270 218q57 46 91 63.5t65 17.5q41 0 72.5 -23t31.5 -54zM1231 1690q0 -23 -17.5 -38.5t-68.5 -37.5l-336 -146h-109l271 218 q57 46 90.5 63.5t64.5 17.5q41 0 73 -23t32 -54z" />
<glyph unicode="&#x151;" d="M903 637q0 -127 -49 -249.5t-128.5 -213t-187 -146t-219.5 -55.5q-141 0 -233 86t-92 217q0 126 49.5 249.5t130.5 215t189 148.5t219 57q141 0 231 -87t90 -222zM532 225q50 109 88.5 274t38.5 269q0 55 -26 87t-70 32q-101 0 -184 -154q-53 -97 -97 -276.5t-44 -296.5 q0 -60 27 -93.5t73 -33.5q108 0 194 192zM754 1350q0 -27 -17 -51t-61 -68l-242 -238h-100l194 332q26 44 53 67.5t44.5 28t40.5 4.5q88 0 88 -75zM1130 1329q0 -14 -5 -24t-11 -15.5t-24 -19.5t-33 -27l-277 -250h-100l209 328q66 104 143 104q40 0 69 -28t29 -68z" />
<glyph unicode="&#x152;" horiz-adv-x="1933" d="M1798 397l-123 -397h-606h-57l-49 -2h-45l-316 -14h-37q-247 0 -377 116q-141 126 -141 359q0 221 112.5 435t299.5 349q109 78 219.5 110.5t271.5 32.5q54 0 115 -6q143 -10 186 -10h686l-94 -391l-51 12q4 58 4 76q0 120 -82 178q-37 26 -108 43t-148 17 q-54 0 -72.5 -17t-35.5 -80l-125 -450h43h8q138 -1 212 45.5t124 165.5l55 -6l-147 -557l-56 10l2 39q7 61 7 84q0 64 -43 98q-23 20 -65 29.5t-159 21.5l-131 -502q-8 -36 -8 -51q0 -37 35 -53t115 -16q180 0 300 78t226 264zM1024 1053q25 86 25 141q0 61 -39 94t-111 33 q-185 0 -330 -217q-95 -139 -164 -370.5t-69 -409.5q0 -123 68 -198t180 -75q89 0 138.5 46t80.5 155z" />
<glyph unicode="&#x153;" horiz-adv-x="1478" d="M1268 254q-43 -79 -75 -122t-73 -77q-108 -82 -237 -82q-70 0 -125 27t-115 90q-129 -117 -303 -117q-146 0 -237 89.5t-91 232.5q0 156 92 321q89 154 225 242t285 88q81 0 134.5 -29t103.5 -98q91 72 155.5 99.5t143.5 27.5q106 0 167.5 -49.5t61.5 -134.5 q0 -144 -178 -260q-70 -45 -133.5 -67.5t-220.5 -57.5q-17 -84 -17 -115q0 -78 35.5 -119t102.5 -41q70 0 121 38.5t120 144.5zM1200 803q0 38 -20.5 60t-55.5 22q-43 0 -73 -33q-49 -57 -81 -125.5t-108 -280.5q119 35 183.5 79t109.5 120q45 82 45 158zM561 231 q45 98 87 261.5t42 242.5q0 152 -112 152q-75 0 -137.5 -87.5t-125.5 -283.5q-61 -195 -61 -317q0 -80 28 -123t80 -43q111 0 199 198z" />
<glyph unicode="&#x154;" horiz-adv-x="1366" d="M1233 0h-414l-219 678h-59l-113 -395q-29 -106 -29 -146q0 -46 29.5 -63t118.5 -23v-51h-606v51q74 9 106 38.5t57 109.5l252 919q21 82 21 125q0 31 -18.5 45.5t-65.5 20.5q-46 8 -66 10v51h566q244 0 363.5 -72.5t119.5 -220.5q0 -86 -44 -162.5t-126 -130.5 q-45 -30 -92 -47.5t-131 -34.5l170 -503q34 -91 64 -116t116 -32v-51zM967 1110q0 93 -48.5 144t-136.5 51q-47 0 -67 -18t-33 -73l-123 -471q186 3 260 52q67 41 107.5 127t40.5 188zM1141 1690q0 -23 -17.5 -38.5t-68.5 -37.5l-336 -146h-109l271 218q57 46 90.5 63.5 t64.5 17.5q41 0 73 -23t32 -54z" />
<glyph unicode="&#x155;" horiz-adv-x="796" d="M797 811q0 -64 -34 -106.5t-85 -42.5q-47 0 -92 51q-17 26 -33 26q-46 0 -133 -155q-42 -71 -72.5 -147.5t-75.5 -223.5l-67 -213h-248q209 709 209 782q0 29 -21 39t-90 13v55q184 15 250.5 24t159.5 33l-135 -428q121 244 196.5 336t153.5 92q53 0 85 -37t32 -98z M760 1296q0 -29 -17 -49.5t-63 -46.5l-311 -178h-101l250 268q56 59 86.5 81t57.5 22q40 0 69 -28.5t29 -68.5z" />
<glyph unicode="&#x156;" horiz-adv-x="1366" d="M1233 0h-414l-219 678h-59l-113 -395q-29 -106 -29 -146q0 -46 29.5 -63t118.5 -23v-51h-606v51q74 9 106 38.5t57 109.5l252 919q21 82 21 125q0 31 -18.5 45.5t-65.5 20.5q-46 8 -66 10v51h566q244 0 363.5 -72.5t119.5 -220.5q0 -86 -44 -162.5t-126 -130.5 q-45 -30 -92 -47.5t-131 -34.5l170 -503q34 -91 64 -116t116 -32v-51zM967 1110q0 93 -48.5 144t-136.5 51q-47 0 -67 -18t-33 -73l-123 -471q186 3 260 52q67 41 107.5 127t40.5 188zM569 -262q0 -113 -95 -222.5t-255 -179.5l-24 43q215 117 215 215q0 20 -12.5 35.5 t-43.5 36.5q-41 29 -57 54.5t-16 62.5q-1 58 35.5 96.5t93.5 38.5q71 0 114.5 -49t44.5 -131z" />
<glyph unicode="&#x157;" horiz-adv-x="796" d="M797 811q0 -64 -34 -106.5t-85 -42.5q-47 0 -92 51q-17 26 -33 26q-46 0 -133 -155q-42 -71 -72.5 -147.5t-75.5 -223.5l-67 -213h-248q209 709 209 782q0 29 -21 39t-90 13v55q184 15 250.5 24t159.5 33l-135 -428q121 244 196.5 336t153.5 92q53 0 85 -37t32 -98z M223 -262q0 -113 -95 -222.5t-255 -179.5l-25 43q215 117 215 215q0 20 -12 36t-43 36q-41 29 -57.5 54.5t-16.5 62.5q-1 58 35.5 96.5t93.5 38.5q71 0 115 -49t45 -131z" />
<glyph unicode="&#x158;" horiz-adv-x="1366" d="M1233 0h-414l-219 678h-59l-113 -395q-29 -106 -29 -146q0 -46 29.5 -63t118.5 -23v-51h-606v51q74 9 106 38.5t57 109.5l252 919q21 82 21 125q0 31 -18.5 45.5t-65.5 20.5q-46 8 -66 10v51h566q244 0 363.5 -72.5t119.5 -220.5q0 -86 -44 -162.5t-126 -130.5 q-45 -30 -92 -47.5t-131 -34.5l170 -503q34 -91 64 -116t116 -32v-51zM967 1110q0 93 -48.5 144t-136.5 51q-47 0 -67 -18t-33 -73l-123 -471q186 3 260 52q67 41 107.5 127t40.5 188zM1270 1763l-352 -288h-179l-192 288h112l195 -157l291 157h125z" />
<glyph unicode="&#x159;" horiz-adv-x="796" d="M797 811q0 -64 -34 -106.5t-85 -42.5q-47 0 -92 51q-17 26 -33 26q-46 0 -133 -155q-42 -71 -72.5 -147.5t-75.5 -223.5l-67 -213h-248q209 709 209 782q0 29 -21 39t-90 13v55q184 15 250.5 24t159.5 33l-135 -428q121 244 196.5 336t153.5 92q53 0 85 -37t32 -98z M883 1386l-332 -356h-168l-180 356h102l187 -198l276 198h115z" />
<glyph unicode="&#x15a;" horiz-adv-x="1138" d="M958 379q0 -191 -127 -303.5t-342 -112.5q-111 0 -251 49q-68 23 -95 23q-29 0 -43.5 -13.5t-33.5 -58.5h-62l74 459l59 -4q6 -94 20.5 -149.5t45.5 -102.5q40 -63 105.5 -98t144.5 -35q149 0 219 119q39 67 39 139t-55 146.5t-177 166.5q-174 134 -243 266 q-27 59 -27 136q0 169 118.5 283t293.5 114q84 0 200 -39q76 -23 105 -23q64 0 90 54h61l-82 -412l-55 8q-20 180 -83.5 260t-186.5 80q-98 0 -155.5 -57.5t-57.5 -157.5q0 -69 31 -115t126 -118q189 -142 266.5 -256t77.5 -248zM1020 1690q0 -23 -17.5 -38.5t-68.5 -37.5 l-336 -146h-109l271 218q57 46 90.5 63.5t64.5 17.5q41 0 73 -23t32 -54z" />
<glyph unicode="&#x15b;" horiz-adv-x="796" d="M571 244q0 -116 -86.5 -193.5t-216.5 -77.5q-52 0 -129 25q-43 16 -63 16q-21 0 -37.5 -11t-22.5 -30h-55l45 340l55 -6q40 -272 197 -272q49 0 83 32t34 78q0 77 -115 213q-102 122 -133 184.5t-31 145.5q0 118 75 188t200 70q52 0 118 -26q50 -19 74 -19q23 0 33 7 t27 36h59l-47 -313l-55 4q-25 128 -68 186t-113 58q-49 0 -78.5 -29.5t-29.5 -79.5q0 -69 115 -201q165 -191 165 -325zM733 1296q0 -29 -17 -49.5t-63 -46.5l-311 -178h-100l250 268q57 60 86.5 81.5t56.5 21.5q40 0 69 -28.5t29 -68.5z" />
<glyph unicode="&#x15c;" horiz-adv-x="1138" d="M958 379q0 -191 -127 -303.5t-342 -112.5q-111 0 -251 49q-68 23 -95 23q-29 0 -43.5 -13.5t-33.5 -58.5h-62l74 459l59 -4q6 -94 20.5 -149.5t45.5 -102.5q40 -63 105.5 -98t144.5 -35q149 0 219 119q39 67 39 139t-55 146.5t-177 166.5q-174 134 -243 266 q-27 59 -27 136q0 169 118.5 283t293.5 114q84 0 200 -39q76 -23 105 -23q64 0 90 54h61l-82 -412l-55 8q-20 180 -83.5 260t-186.5 80q-98 0 -155.5 -57.5t-57.5 -157.5q0 -69 31 -115t126 -118q189 -142 266.5 -256t77.5 -248zM1069 1475h-113l-196 157l-289 -157h-125 l352 288h179z" />
<glyph unicode="&#x15d;" horiz-adv-x="796" d="M571 244q0 -116 -86.5 -193.5t-216.5 -77.5q-52 0 -129 25q-43 16 -63 16q-21 0 -37.5 -11t-22.5 -30h-55l45 340l55 -6q40 -272 197 -272q49 0 83 32t34 78q0 77 -115 213q-102 122 -133 184.5t-31 145.5q0 118 75 188t200 70q52 0 118 -26q50 -19 74 -19q23 0 33 7 t27 36h59l-47 -313l-55 4q-25 128 -68 186t-113 58q-49 0 -78.5 -29.5t-29.5 -79.5q0 -69 115 -201q165 -191 165 -325zM776 1030h-104l-180 195l-269 -195h-117l328 356h166z" />
<glyph unicode="&#x15e;" horiz-adv-x="1138" d="M958 379q0 -182 -116.5 -293.5t-315.5 -122.5l-75 -110q30 6 53 6q80 0 132 -42t52 -106q0 -76 -72.5 -127t-181.5 -51q-105 0 -229 51l45 68q76 -35 137 -35q52 0 83.5 23t31.5 61q0 35 -25 54.5t-71 19.5q-29 0 -62 -8l-27 24l119 174q-87 9 -198 47q-68 23 -95 23 q-29 0 -43.5 -13.5t-33.5 -58.5h-62l74 459l59 -4q6 -94 20.5 -149.5t45.5 -102.5q40 -63 105.5 -98t144.5 -35q149 0 219 119q39 67 39 139t-55 146.5t-177 166.5q-174 134 -243 266q-27 59 -27 136q0 169 118.5 283t293.5 114q84 0 200 -39q76 -23 105 -23q64 0 90 54h61 l-82 -412l-55 8q-20 180 -83.5 260t-186.5 80q-98 0 -155.5 -57.5t-57.5 -157.5q0 -69 31 -115t126 -118q189 -142 266.5 -256t77.5 -248z" />
<glyph unicode="&#x15f;" horiz-adv-x="796" d="M463 -268q0 -76 -72.5 -127t-181.5 -51q-105 0 -229 51l45 67q74 -34 137 -34q53 0 83.5 22.5t30.5 60.5q0 35 -25 54.5t-71 19.5q-28 0 -61 -8l-27 25l115 168q-31 6 -68 18q-43 16 -63 16q-21 0 -37.5 -11t-22.5 -30h-55l45 340l55 -6q40 -272 197 -272q49 0 83 32 t34 78q0 77 -115 213q-102 122 -133 184.5t-31 145.5q0 118 75 188t200 70q52 0 118 -26q50 -19 74 -19q23 0 33 7t27 36h59l-47 -313l-55 4q-25 128 -68 186t-113 58q-49 0 -78.5 -29.5t-29.5 -79.5q0 -69 115 -201q165 -191 165 -325q0 -109 -78.5 -186.5t-199.5 -84.5 l-68 -100q30 6 54 6q80 0 132 -41.5t52 -105.5z" />
<glyph unicode="&#x160;" horiz-adv-x="1138" d="M958 379q0 -191 -127 -303.5t-342 -112.5q-111 0 -251 49q-68 23 -95 23q-29 0 -43.5 -13.5t-33.5 -58.5h-62l74 459l59 -4q6 -94 20.5 -149.5t45.5 -102.5q40 -63 105.5 -98t144.5 -35q149 0 219 119q39 67 39 139t-55 146.5t-177 166.5q-174 134 -243 266 q-27 59 -27 136q0 169 118.5 283t293.5 114q84 0 200 -39q76 -23 105 -23q64 0 90 54h61l-82 -412l-55 8q-20 180 -83.5 260t-186.5 80q-98 0 -155.5 -57.5t-57.5 -157.5q0 -69 31 -115t126 -118q189 -142 266.5 -256t77.5 -248zM1149 1763l-352 -288h-179l-192 288h113 l194 -157l291 157h125z" />
<glyph unicode="&#x161;" horiz-adv-x="796" d="M571 244q0 -116 -86.5 -193.5t-216.5 -77.5q-52 0 -129 25q-43 16 -63 16q-21 0 -37.5 -11t-22.5 -30h-55l45 340l55 -6q40 -272 197 -272q49 0 83 32t34 78q0 77 -115 213q-102 122 -133 184.5t-31 145.5q0 118 75 188t200 70q52 0 118 -26q50 -19 74 -19q23 0 33 7 t27 36h59l-47 -313l-55 4q-25 128 -68 186t-113 58q-49 0 -78.5 -29.5t-29.5 -79.5q0 -69 115 -201q165 -191 165 -325zM856 1386l-332 -356h-168l-180 356h103l186 -198l276 198h115z" />
<glyph unicode="&#x162;" horiz-adv-x="1251" d="M1257 977l-55 4q-7 170 -72 242.5t-210 74.5l-287 -1036q-23 -90 -23 -127q0 -49 30.5 -64t139.5 -20v-51h-295l-96 -147q30 6 53 6q80 0 132.5 -42t52.5 -106q0 -76 -72.5 -127t-181.5 -51q-106 0 -230 51l45 68q76 -35 138 -35q52 0 83 23t31 61q0 35 -25 54.5 t-71 19.5q-28 0 -61 -8l-27 24l139 209h-293v51h29q78 0 121 34.5t65 113.5l304 1099q-157 -3 -261.5 -71t-183.5 -221l-51 14l78 350h1128z" />
<glyph unicode="&#x163;" horiz-adv-x="569" d="M319 -268q0 -77 -72 -127.5t-181 -50.5q-106 0 -230 51l45 67q74 -34 137 -34q53 0 84 22.5t31 60.5q0 35 -25 54.5t-71 19.5q-29 0 -62 -8l-26 25l121 178q-43 12 -68 45t-25 80q0 60 50 231l139 488h-105v71q121 45 206 116.5t169 195.5h72l-80 -297h147v-86h-169 l-68 -244q-111 -381 -111 -434q0 -12 10.5 -21.5t22.5 -9.5q51 0 156 164l45 -29q-91 -143 -159 -205t-146 -71l-74 -111q30 6 53 6q80 0 132 -41.5t52 -105.5z" />
<glyph unicode="&#x164;" horiz-adv-x="1251" d="M1257 977l-55 4q-7 170 -72 242.5t-210 74.5l-287 -1036q-23 -90 -23 -127q0 -49 30.5 -64t139.5 -20v-51h-678v51h29q78 0 121 34.5t65 113.5l304 1099q-157 -3 -261.5 -71t-183.5 -221l-51 14l78 350h1128zM1260 1763l-353 -288h-178l-192 288h112l195 -157l291 157 h125z" />
<glyph unicode="&#x165;" horiz-adv-x="569" d="M461 260q-101 -158 -174.5 -218t-165.5 -60q-65 0 -104.5 36.5t-39.5 96.5t50 231l139 488h-105v71q121 45 206 116.5t169 195.5h72l-80 -297h147v-86h-169l-68 -244q-111 -381 -111 -434q0 -12 10.5 -21.5t22.5 -9.5q51 0 156 164zM899 1366q1 -112 -94.5 -221 t-255.5 -180l-25 43q217 117 217 215q0 20 -12 35.5t-43 35.5q-43 29 -59.5 54.5t-16.5 62.5q0 59 37 97t94 38q71 0 114.5 -49.5t43.5 -130.5z" />
<glyph unicode="&#x168;" horiz-adv-x="1478" d="M1524 1319q-31 -6 -49 -11.5t-37 -20.5t-30 -31t-27.5 -54.5t-29.5 -79.5t-36 -116l-135 -467q-47 -165 -88.5 -258t-94.5 -154q-138 -164 -403 -164q-201 0 -329 95t-128 245q0 109 70 359l112 421q31 124 31 156q0 34 -18.5 49.5t-67.5 22.5l-63 8v51h637v-51 q-95 -4 -131 -32t-62 -116l-168 -614q-39 -143 -48 -186t-9 -86q0 -97 66.5 -152t183.5 -55q167 0 272 123q47 59 84.5 144.5t77.5 232.5l119 428q39 140 39 196q0 55 -38 82t-126 35v51h426v-51zM1444 1741q-34 -129 -91 -186.5t-149 -57.5q-52 0 -117 27l-120 47 q-43 16 -78 16q-34 0 -56 -19.5t-42 -68.5h-82q20 110 84.5 176t152.5 66q79 0 199 -53q79 -33 110 -33q36 0 59 18.5t46 67.5h84z" />
<glyph unicode="&#x169;" horiz-adv-x="1138" d="M1008 246q-80 -137 -159 -200.5t-171 -63.5q-68 0 -100.5 29.5t-32.5 92.5q0 76 49 226q-110 -154 -172.5 -224t-114.5 -97t-123 -27q-153 0 -153 151q0 70 43 221l82 273q28 92 28 149q0 31 -22 42.5t-92 15.5v55q137 6 370 47q12 2 58 10l-193 -631q-31 -98 -31 -135 q0 -51 43 -51q59 0 150 113q89 110 146.5 245t144.5 433h241l-159 -549q-52 -165 -52 -215q0 -15 8.5 -25t20.5 -10q27 0 61 34.5t87 116.5zM1071 1331q-34 -129 -91 -186.5t-149 -57.5q-51 0 -116 27l-121 47q-46 17 -78 17q-34 0 -56 -19.5t-42 -68.5h-82 q20 110 84.5 175.5t152.5 65.5q79 0 199 -53q79 -33 111 -33q36 0 58.5 18.5t45.5 67.5h84z" />
<glyph unicode="&#x16a;" horiz-adv-x="1478" d="M1524 1319q-31 -6 -49 -11.5t-37 -20.5t-30 -31t-27.5 -54.5t-29.5 -79.5t-36 -116l-135 -467q-47 -165 -88.5 -258t-94.5 -154q-138 -164 -403 -164q-201 0 -329 95t-128 245q0 109 70 359l112 421q31 124 31 156q0 34 -18.5 49.5t-67.5 22.5l-63 8v51h637v-51 q-95 -4 -131 -32t-62 -116l-168 -614q-39 -143 -48 -186t-9 -86q0 -97 66.5 -152t183.5 -55q167 0 272 123q47 59 84.5 144.5t77.5 232.5l119 428q39 140 39 196q0 55 -38 82t-126 35v51h426v-51zM1393 1546h-668l35 144h665z" />
<glyph unicode="&#x16b;" horiz-adv-x="1138" d="M1008 246q-80 -137 -159 -200.5t-171 -63.5q-68 0 -100.5 29.5t-32.5 92.5q0 76 49 226q-110 -154 -172.5 -224t-114.5 -97t-123 -27q-153 0 -153 151q0 70 43 221l82 273q28 92 28 149q0 31 -22 42.5t-92 15.5v55q137 6 370 47q12 2 58 10l-193 -631q-31 -98 -31 -135 q0 -51 43 -51q59 0 150 113q89 110 146.5 245t144.5 433h241l-159 -549q-52 -165 -52 -215q0 -15 8.5 -25t20.5 -10q27 0 61 34.5t87 116.5zM1018 1137h-668l35 143h666z" />
<glyph unicode="&#x16c;" horiz-adv-x="1478" d="M1524 1319q-31 -6 -49 -11.5t-37 -20.5t-30 -31t-27.5 -54.5t-29.5 -79.5t-36 -116l-135 -467q-47 -165 -88.5 -258t-94.5 -154q-138 -164 -403 -164q-201 0 -329 95t-128 245q0 109 70 359l112 421q31 124 31 156q0 34 -18.5 49.5t-67.5 22.5l-63 8v51h637v-51 q-95 -4 -131 -32t-62 -116l-168 -614q-39 -143 -48 -186t-9 -86q0 -97 66.5 -152t183.5 -55q167 0 272 123q47 59 84.5 144.5t77.5 232.5l119 428q39 140 39 196q0 55 -38 82t-126 35v51h426v-51zM1434 1753q-29 -129 -131 -198.5t-263 -69.5q-155 0 -230 64t-75 204h96 q18 -149 224 -149q109 0 174.5 33.5t118.5 115.5h86z" />
<glyph unicode="&#x16d;" horiz-adv-x="1138" d="M1008 246q-80 -137 -159 -200.5t-171 -63.5q-68 0 -100.5 29.5t-32.5 92.5q0 76 49 226q-110 -154 -172.5 -224t-114.5 -97t-123 -27q-153 0 -153 151q0 70 43 221l82 273q28 92 28 149q0 31 -22 42.5t-92 15.5v55q137 6 370 47q12 2 58 10l-193 -631q-31 -98 -31 -135 q0 -51 43 -51q59 0 150 113q89 110 146.5 245t144.5 433h241l-159 -549q-52 -165 -52 -215q0 -15 8.5 -25t20.5 -10q27 0 61 34.5t87 116.5zM1024 1374q-28 -160 -123 -246t-244 -86q-142 0 -211 75.5t-69 230.5v26h88q9 -94 60 -139t149 -45q101 0 162 41.5t108 142.5h80z " />
<glyph unicode="&#x16e;" horiz-adv-x="1478" d="M1524 1319q-31 -6 -49 -11.5t-37 -20.5t-30 -31t-27.5 -54.5t-29.5 -79.5t-36 -116l-135 -467q-47 -165 -88.5 -258t-94.5 -154q-138 -164 -403 -164q-201 0 -329 95t-128 245q0 109 70 359l112 421q31 124 31 156q0 34 -18.5 49.5t-67.5 22.5l-63 8v51h637v-51 q-95 -4 -131 -32t-62 -116l-168 -614q-39 -143 -48 -186t-9 -86q0 -97 66.5 -152t183.5 -55q167 0 272 123q47 59 84.5 144.5t77.5 232.5l119 428q39 140 39 196q0 55 -38 82t-126 35v51h426v-51zM1305 1659q0 -91 -64.5 -155t-155.5 -64t-154 64.5t-63 156.5q0 88 65 151.5 t154 63.5t153.5 -64t64.5 -153zM1206 1655q0 51 -36 87t-87 36q-47 0 -81.5 -36t-34.5 -85t34.5 -84t81.5 -35q51 0 87 34.5t36 82.5z" />
<glyph unicode="&#x16f;" horiz-adv-x="1138" d="M1008 246q-80 -137 -159 -200.5t-171 -63.5q-68 0 -100.5 29.5t-32.5 92.5q0 76 49 226q-110 -154 -172.5 -224t-114.5 -97t-123 -27q-153 0 -153 151q0 70 43 221l82 273q28 92 28 149q0 31 -22 42.5t-92 15.5v55q137 6 370 47q12 2 58 10l-193 -631q-31 -98 -31 -135 q0 -51 43 -51q59 0 150 113q89 110 146.5 245t144.5 433h241l-159 -549q-52 -165 -52 -215q0 -15 8.5 -25t20.5 -10q27 0 61 34.5t87 116.5zM920 1210q0 -91 -64.5 -155t-155.5 -64t-154 64.5t-63 156.5q0 88 65 151.5t154 63.5t153.5 -64t64.5 -153zM821 1206q0 51 -36 87 t-87 36q-47 0 -81.5 -36t-34.5 -85t34 -83.5t82 -34.5q51 0 87 34.5t36 81.5z" />
<glyph unicode="&#x170;" horiz-adv-x="1478" d="M1524 1319q-31 -6 -49 -11.5t-37 -20.5t-30 -31t-27.5 -54.5t-29.5 -79.5t-36 -116l-135 -467q-47 -165 -88.5 -258t-94.5 -154q-138 -164 -403 -164q-201 0 -329 95t-128 245q0 109 70 359l112 421q31 124 31 156q0 34 -18.5 49.5t-67.5 22.5l-63 8v51h637v-51 q-95 -4 -131 -32t-62 -116l-168 -614q-39 -143 -48 -186t-9 -86q0 -97 66.5 -152t183.5 -55q167 0 272 123q47 59 84.5 144.5t77.5 232.5l119 428q39 140 39 196q0 55 -38 82t-126 35v51h426v-51zM1677 1690q0 -23 -17.5 -38.5t-68.5 -37.5l-336 -146h-108l270 218 q57 46 91 63.5t65 17.5q41 0 72.5 -23t31.5 -54zM1317 1690q0 -23 -17.5 -38.5t-68.5 -37.5l-336 -146h-109l271 218q57 46 90.5 63.5t64.5 17.5q41 0 73 -23t32 -54z" />
<glyph unicode="&#x171;" horiz-adv-x="1138" d="M1008 246q-80 -137 -159 -200.5t-171 -63.5q-68 0 -100.5 29.5t-32.5 92.5q0 76 49 226q-110 -154 -172.5 -224t-114.5 -97t-123 -27q-153 0 -153 151q0 70 43 221l82 273q28 92 28 149q0 31 -22 42.5t-92 15.5v55q137 6 370 47q12 2 58 10l-193 -631q-31 -98 -31 -135 q0 -51 43 -51q59 0 150 113q89 110 146.5 245t144.5 433h241l-159 -549q-52 -165 -52 -215q0 -15 8.5 -25t20.5 -10q27 0 61 34.5t87 116.5zM807 1350q0 -27 -17 -51t-61 -68l-242 -238h-100l195 332q26 44 52.5 67.5t44 28t40.5 4.5q88 0 88 -75zM1184 1329q0 -14 -5 -24 t-11.5 -15.5t-24.5 -19.5t-33 -27l-276 -250h-101l209 328q66 104 143 104q40 0 69.5 -28.5t29.5 -67.5z" />
<glyph unicode="&#x172;" horiz-adv-x="1478" d="M1524 1319q-31 -6 -49 -11.5t-37 -20.5t-30 -31t-27.5 -54.5t-29.5 -79.5t-36 -116l-135 -467q-73 -256 -144 -361q-27 -42 -74.5 -82.5t-90.5 -68t-90.5 -68t-75.5 -82.5q-43 -62 -54 -131q-1 -56 20 -86.5t58 -30.5q65 0 127 68l25 -25q-44 -82 -113.5 -133t-144.5 -51 q-64 0 -109.5 49.5t-44.5 134.5q5 155 178 293q-16 -2 -53 -2q-201 0 -329 95t-128 245q0 109 70 359l112 421q31 124 31 156q0 34 -18.5 49.5t-67.5 22.5l-63 8v51h637v-51q-95 -4 -131 -32t-62 -116l-168 -614q-39 -143 -48 -186t-9 -86q0 -97 66.5 -152t183.5 -55 q167 0 272 123q47 59 84.5 144.5t77.5 232.5l119 428q39 140 39 196q0 55 -38 82t-126 35v51h426v-51z" />
<glyph unicode="&#x173;" horiz-adv-x="1138" d="M854 -328q-46 -82 -115.5 -133t-144.5 -51q-64 0 -109.5 49.5t-42.5 134.5q5 162 203 312q-100 12 -100 120q0 76 49 226q-110 -154 -172.5 -224t-114.5 -97t-123 -27q-153 0 -153 151q0 70 43 221l82 273q28 92 28 149q0 31 -22 42.5t-92 15.5v55q137 6 370 47 q12 2 58 10l-193 -631q-31 -98 -31 -135q0 -51 43 -51q59 0 150 113q89 110 146.5 245t144.5 433h241l-159 -549q-52 -165 -52 -215q0 -15 8.5 -25t20.5 -10q27 0 61 34.5t87 116.5l43 -26q-94 -163 -191 -223q-72 -47 -139 -146q-45 -65 -53 -131q-1 -57 18.5 -87t56.5 -30 q68 0 127 68z" />
<glyph unicode="&#x174;" horiz-adv-x="1820" d="M1925 1321q-65 -9 -97 -37t-75 -113l-586 -1208h-59l-121 1002l-477 -1002h-59l-160 1186q-6 41 -9 62t-12 41.5t-16 28.5t-27 17t-37.5 12.5t-56.5 10.5v49h567v-51q-73 -9 -99 -31.5t-26 -77.5q0 -17 3 -32l79 -715l308 637q-1 92 -12.5 134t-40 60.5t-93.5 26.5v49 h551v-51q-82 -7 -105.5 -29t-23.5 -90q0 -24 12 -133l68 -604l319 670q31 61 31 94q0 56 -21.5 71t-107.5 21v51h383v-49zM1485 1475h-113l-196 157l-289 -157h-125l352 288h178z" />
<glyph unicode="&#x175;" horiz-adv-x="1366" d="M1257 819q0 -257 -557 -846h-55l-47 584l-231 -407l-117 -177h-55l2 93l2 71v10l-4 160q-5 214 -25.5 349.5t-52.5 160.5q-19 17 -84 17v55q250 43 317 57q35 -131 49 -250.5t19 -312.5l319 563h56l65 -680q134 157 189 241t55 130q0 31 -41 86q-43 60 -43 100 q0 49 34.5 86t80.5 37q51 0 87.5 -38t36.5 -89zM1061 1030h-105l-180 195l-268 -195h-117l328 356h166z" />
<glyph unicode="&#x176;" horiz-adv-x="1251" d="M1350 1319q-58 -12 -96 -41t-91 -100l-389 -547l-106 -391q-17 -62 -17 -93q0 -57 29 -74t129 -22v-51h-659v51q105 7 141.5 33.5t64.5 114.5l123 442l-180 549q-29 82 -50 100.5t-99 28.5v51h579v-51q-85 -3 -114 -18t-29 -58q0 -52 67 -244l39 -120l51 -158l265 381 q32 45 42.5 70t10.5 53q0 54 -27.5 72.5t-109.5 21.5v51h426v-51zM1212 1475h-112l-197 157l-289 -157h-125l353 288h178z" />
<glyph unicode="&#x177;" horiz-adv-x="909" d="M803 815q0 -155 -155 -464t-355 -554q-85 -103 -179.5 -160t-179.5 -57q-54 0 -90.5 35.5t-36.5 87.5q0 44 31.5 78.5t71.5 34.5q63 0 123 -43q13 -10 35.5 -19.5t33.5 -9.5q26 0 66 30.5t72 75.5q51 71 51 142q0 101 -103 590q-47 220 -98 249q-19 11 -61 11v55 q175 16 305 49q58 -151 135 -567l25 -154q107 205 142.5 289t35.5 131q0 21 -10 36t-39 36q-37 28 -50.5 51t-13.5 61q0 46 35.5 81.5t81.5 35.5q51 0 89 -39t38 -92zM862 1030h-104l-180 195l-269 -195h-116l327 356h166z" />
<glyph unicode="&#x178;" horiz-adv-x="1251" d="M1350 1319q-58 -12 -96 -41t-91 -100l-389 -547l-106 -391q-17 -62 -17 -93q0 -57 29 -74t129 -22v-51h-659v51q105 7 141.5 33.5t64.5 114.5l123 442l-180 549q-29 82 -50 100.5t-99 28.5v51h579v-51q-85 -3 -114 -18t-29 -58q0 -52 67 -244l39 -120l51 -158l265 381 q32 45 42.5 70t10.5 53q0 54 -27.5 72.5t-109.5 21.5v51h426v-51zM807 1616q0 -54 -39.5 -92.5t-95.5 -38.5q-52 0 -91.5 39.5t-39.5 91.5q0 56 38.5 95.5t92.5 39.5q56 0 95.5 -39.5t39.5 -95.5zM1237 1616q0 -54 -39.5 -92.5t-95.5 -38.5q-52 0 -91.5 39.5t-39.5 91.5 q0 56 38.5 95.5t92.5 39.5q56 0 95.5 -39.5t39.5 -95.5z" />
<glyph unicode="&#x179;" horiz-adv-x="1251" d="M1135 397l-121 -397h-1037v59l889 1239h-159q-169 0 -282 -66t-235 -235l-57 9l117 364h958v-59l-889 -1239h144q259 0 393 92q123 83 223 244zM1069 1690q0 -23 -17.5 -38.5t-68.5 -37.5l-336 -146h-108l270 218q57 46 91 63.5t65 17.5q41 0 72.5 -23t31.5 -54z" />
<glyph unicode="&#x17a;" horiz-adv-x="796" d="M709 27q0 -79 -64 -133t-158 -54q-63 0 -124.5 23.5t-143.5 79.5q-98 67 -151 67q-28 0 -66 -28q-26 -21 -39 -29l-51 45l598 725h-297q-46 0 -74.5 -27.5t-54.5 -97.5l-57 6l88 316h639v-21l-576 -686q79 -34 124.5 -79t94.5 -138q26 -54 47.5 -75t49.5 -21q20 0 32.5 9 t12.5 23q0 10 -15 31q-26 30 -26 64q0 43 30.5 74.5t71.5 31.5q43 0 76 -32t33 -74zM756 1296q0 -29 -17 -49.5t-63 -46.5l-311 -178h-101l250 268q57 60 86.5 81.5t56.5 21.5q40 0 69.5 -28.5t29.5 -68.5z" />
<glyph unicode="&#x17b;" horiz-adv-x="1251" d="M1135 397l-121 -397h-1037v59l889 1239h-159q-169 0 -282 -66t-235 -235l-57 9l117 364h958v-59l-889 -1239h144q259 0 393 92q123 83 223 244zM934 1618q0 -57 -41 -97t-100 -40q-57 0 -96.5 40.5t-39.5 100.5q0 54 41 94.5t95 40.5q58 0 99.5 -41t41.5 -98z" />
<glyph unicode="&#x17c;" horiz-adv-x="796" d="M709 27q0 -79 -64 -133t-158 -54q-63 0 -124.5 23.5t-143.5 79.5q-98 67 -151 67q-28 0 -66 -28q-26 -21 -39 -29l-51 45l598 725h-297q-46 0 -74.5 -27.5t-54.5 -97.5l-57 6l88 316h639v-21l-576 -686q79 -34 124.5 -79t94.5 -138q26 -54 47.5 -75t49.5 -21q20 0 32.5 9 t12.5 23q0 10 -15 31q-26 30 -26 64q0 43 30.5 74.5t71.5 31.5q43 0 76 -32t33 -74zM649 1208q0 -57 -41 -97t-100 -40q-57 0 -96 40.5t-39 100.5q0 54 40.5 95t94.5 41q58 0 99.5 -41.5t41.5 -98.5z" />
<glyph unicode="&#x17d;" horiz-adv-x="1251" d="M1135 397l-121 -397h-1037v59l889 1239h-159q-169 0 -282 -66t-235 -235l-57 9l117 364h958v-59l-889 -1239h144q259 0 393 92q123 83 223 244zM1198 1763l-352 -288h-178l-193 288h113l194 -157l291 157h125z" />
<glyph unicode="&#x17e;" horiz-adv-x="796" d="M709 27q0 -79 -64 -133t-158 -54q-63 0 -124.5 23.5t-143.5 79.5q-98 67 -151 67q-28 0 -66 -28q-26 -21 -39 -29l-51 45l598 725h-297q-46 0 -74.5 -27.5t-54.5 -97.5l-57 6l88 316h639v-21l-576 -686q79 -34 124.5 -79t94.5 -138q26 -54 47.5 -75t49.5 -21q20 0 32.5 9 t12.5 23q0 10 -15 31q-26 30 -26 64q0 43 30.5 74.5t71.5 31.5q43 0 76 -32t33 -74zM879 1386l-332 -356h-168l-180 356h102l186 -198l277 198h115z" />
<glyph unicode="&#x17f;" horiz-adv-x="681" d="M907 1266q0 -47 -29 -78t-75 -31q-41 0 -71 29.5t-30 70.5q-3 27 21 64l10 22q0 12 -10 19.5t-25 7.5q-107 0 -184 -305l-227 -1004q-52 -161 -97.5 -249.5t-105.5 -143.5q-94 -88 -225 -88q-92 0 -147.5 44t-55.5 118q0 45 31 78t73 33q38 0 70.5 -31t32.5 -68 q0 -33 -25 -69l-8 -19q0 -9 11 -15.5t26 -6.5q42 0 71 34.5t54.5 116t56.5 236.5l176 803h-149l16 86h150q44 156 81.5 235.5t100.5 149.5q116 125 278 125q92 0 147.5 -44.5t57.5 -119.5z" />
<glyph unicode="&#x18e;" horiz-adv-x="1366" d="M1460 1370l-26 -51l-68 -8q-50 -6 -78 -21.5t-45 -46.5q-23 -45 -47 -125l-240 -919q-20 -82 -4.5 -109t88.5 -39l-26 -51h-1135l92 397l56 11q6 -86 21 -131.5t50 -86.5q101 -124 371 -124q66 0 104 16t58 53q36 68 39 129l114 428q-177 -3 -256.5 -40.5t-136.5 -143.5 q-25 -45 -41 -90l-63 -10l149 559l62 8q-2 -51 0.5 -83.5t15 -58.5t31.5 -39.5t56.5 -22.5t82.5 -11.5t117 -1.5l121 456q12 55 -4 73t-78 18q-230 0 -361 -86q-56 -37 -94.5 -85t-89.5 -143l-62 -10l121 389h1106z" />
<glyph unicode="&#x192;" d="M1100 1270q0 -57 -33.5 -91t-89.5 -34q-49 0 -79 28t-30 74q0 44 41 82q19 19 19 27q0 14 -14 22t-37 8q-67 0 -111 -75q-27 -49 -46.5 -128.5t-53.5 -281.5h241l-18 -90h-238l-55 -315q-72 -413 -207.5 -614t-341.5 -201q-101 0 -163 49t-62 129q0 54 33 88.5t84 34.5 q46 0 77 -30t31 -73q0 -35 -37 -78q-20 -20 -20 -34q0 -27 51 -27t78 31q31 31 62 113.5t50 181.5l144 745h-215l16 90h219q57 258 183.5 402.5t295.5 144.5q97 0 161.5 -51t64.5 -127z" />
<glyph unicode="&#x1a0;" horiz-adv-x="1478" d="M1409 930q2 -225 -112.5 -448.5t-303.5 -362.5q-210 -156 -454 -156q-217 0 -350.5 135t-135.5 355q-2 214 116 436.5t304 357.5q210 156 438 156q150 0 273 -74q20 17 20 45q0 18 -21.5 47t-21.5 62q0 43 33.5 73.5t71.5 30.5q51 0 83.5 -37.5t32.5 -83.5 q0 -57 -36.5 -103.5t-100.5 -76.5q78 -64 121 -156.5t43 -199.5zM1114 1087q0 110 -58.5 178t-152.5 68q-98 0 -181 -65t-161 -203q-83 -147 -148 -387t-65 -397q2 -114 58.5 -181t152.5 -67q83 0 154.5 48t140.5 150q103 151 182 411.5t78 444.5z" />
<glyph unicode="&#x1a1;" d="M899 637q1 -170 -80 -324t-216 -247t-284 -93q-141 0 -233 86t-94 217q-1 168 81.5 324t218.5 251t283 95q115 0 201 -61q31 17 29 51q0 18 -21.5 46.5t-21.5 61.5q0 44 33 74.5t71 30.5q51 0 84 -37.5t33 -83.5q0 -61 -42.5 -110t-115.5 -78q74 -83 74 -203zM528 219 q49 107 88 275.5t39 273.5q0 55 -26 87t-70 32q-98 0 -178 -142q-54 -95 -99 -280t-44 -305q0 -58 27 -92.5t73 -34.5q107 0 190 186z" />
<glyph unicode="&#x1af;" horiz-adv-x="1478" d="M1628 1466q0 -72 -78 -135t-182 -88l-211 -743q-42 -150 -78 -234.5t-82 -138.5q-138 -164 -403 -164q-201 0 -329.5 94.5t-129.5 245.5q0 95 66 359l112 421q31 117 31 156q-2 34 -20.5 49.5t-67.5 22.5q-5 0 -63 8v51h636v-51q-95 -4 -131 -32t-59 -116l-166 -614 q-36 -139 -45.5 -184.5t-9.5 -87.5q2 -97 68.5 -152t183.5 -55q168 0 270 123q47 58 84 144.5t76 232.5l117 428q38 139 38 198q-2 54 -40 81t-125 34v51h313l-21 -67q68 31 68 71q0 18 -21.5 47t-21.5 62q0 43 33 73.5t71 30.5q51 0 84 -37.5t33 -83.5z" />
<glyph unicode="&#x1b0;" horiz-adv-x="1185" d="M1225 1028q0 -83 -76 -142.5t-191 -74.5l-120 -440q-50 -181 -50 -207q0 -17 7.5 -30t21.5 -13q26 0 60 34.5t86 116.5l43 -26q-78 -137 -157 -200.5t-171 -63.5q-133 0 -133 122q0 82 47 226q-109 -154 -171 -224t-114 -97t-123 -27q-153 0 -153 151q-3 81 41 221 l80 273q28 92 28 149q0 31 -22 42.5t-92 15.5v55q124 4 426 57l-189 -631q-21 -67 -25.5 -89.5t-3.5 -45.5q0 -51 43 -51q60 0 148 113q88 111 146 247.5t141 430.5h237l-12 -50q30 10 50.5 28t19.5 38q0 18 -21.5 46.5t-21.5 61.5q0 44 33 74.5t71 30.5q51 0 84 -37.5 t33 -83.5z" />
<glyph unicode="&#x1dd;" horiz-adv-x="909" d="M791 645q0 -124 -51 -247t-132.5 -216t-189.5 -151t-217 -58q-94 0 -154.5 50.5t-60.5 128.5q0 114 110 215q77 71 167 110t249 70q12 62 12 100q0 168 -131 168q-66 0 -118.5 -40t-122.5 -146l-60 35q92 152 181.5 217t207.5 65q134 0 222 -85.5t88 -215.5zM498 481 q-88 -28 -135.5 -54.5t-88.5 -70.5q-100 -103 -100 -245q0 -70 57 -70q74 0 143 113.5t124 326.5z" />
<glyph unicode="&#x1e6;" horiz-adv-x="1478" d="M1446 623q-81 -6 -107 -33t-55 -135l-98 -371l-58 -27q-87 -41 -222.5 -67.5t-256.5 -26.5q-270 0 -438 152.5t-168 398.5q0 234 123 447.5t326 332.5q189 109 426 109q131 0 253 -43q53 -19 74 -19q30 0 49.5 14t36.5 48h64l-105 -453l-59 8q-3 104 -16.5 160t-47.5 107 q-34 50 -91.5 77t-129.5 27q-145 0 -264 -104q-138 -122 -229 -348t-91 -451q0 -187 86.5 -286t249.5 -99q60 0 115.5 17.5t77.5 43.5q7 11 59 187q38 125 49 173t11 87q0 13 -8 28t-17 21q-31 16 -127 25v53h588v-53zM1378 1763l-352 -288h-178l-193 288h113l195 -157 l290 157h125z" />
<glyph unicode="&#x1e7;" d="M768 -109q0 -135 -136.5 -221t-352.5 -86q-177 0 -281 58.5t-104 158.5q0 79 55 127q37 29 79 46t138 40q-68 23 -97.5 55t-29.5 81q0 57 35 92t162 106q-164 69 -164 225q0 155 132.5 264t321.5 109q71 0 122.5 -15t103.5 -52h227v-115h-137q12 -49 12 -86 q0 -93 -46.5 -168.5t-135.5 -126.5q-121 -70 -260 -70q-30 0 -64 9q-21 8 -41 8t-38.5 -24.5t-18.5 -49.5q0 -23 27.5 -44t76.5 -34l109 -31q168 -47 236.5 -104.5t68.5 -151.5zM545 -205q0 74 -84 117q-36 16 -121.5 45.5t-103.5 30.5q-12 1 -48.5 -20.5t-56.5 -41.5 q-59 -56 -59 -112q0 -70 63.5 -115t163.5 -45q117 0 181.5 37t64.5 104zM555 518q59 128 59 244q0 54 -26 87.5t-66 33.5q-77 0 -135 -101q-33 -59 -55.5 -141t-22.5 -143q0 -58 22.5 -89.5t63.5 -31.5q95 0 160 141zM965 1386l-332 -356h-168l-180 356h102l186 -198 l277 198h115z" />
<glyph unicode="&#x1ea;" horiz-adv-x="1478" d="M1415 930q0 -229 -120.5 -456t-315.5 -365q-47 -36 -102 -64q-53 -27 -82 -43t-68.5 -43.5t-58.5 -52.5q-62 -75 -76 -160q-1 -56 20 -86.5t58 -30.5q65 0 127 68l24 -25q-44 -82 -113.5 -133t-144.5 -51q-64 0 -109 49.5t-44 134.5q5 155 178 293q-16 -2 -49 -2 q-217 0 -350.5 135t-133.5 355q0 218 123 444t314 360q208 146 428 146q214 0 354.5 -134.5t140.5 -338.5zM1120 1090q0 109 -57.5 176t-149.5 67q-104 0 -191 -71t-167 -220q-80 -150 -142.5 -380.5t-62.5 -380.5q0 -115 56 -181.5t153 -66.5q165 0 305 209 q100 153 178 410t78 438z" />
<glyph unicode="&#x1eb;" d="M903 637q0 -178 -90.5 -338t-232.5 -248q-109 -67 -168 -145q-63 -80 -76 -160q-1 -56 20 -86.5t58 -30.5q65 0 127 68l24 -25q-44 -82 -113.5 -133t-144.5 -51q-64 0 -109 49.5t-44 134.5q5 159 190 301h-25q-141 0 -233 86t-92 217q0 126 49.5 249.5t130.5 215 t189 148.5t219 57q141 0 231 -87t90 -222zM532 225q50 109 88.5 274t38.5 269q0 55 -26 87t-70 32q-101 0 -184 -154q-53 -97 -97 -276.5t-44 -296.5q0 -60 27 -93.5t73 -33.5q108 0 194 192z" />
<glyph unicode="&#x1f4;" horiz-adv-x="1478" d="M1446 623q-81 -6 -107 -33t-55 -135l-98 -371l-58 -27q-87 -41 -222.5 -67.5t-256.5 -26.5q-270 0 -438 152.5t-168 398.5q0 234 123 447.5t326 332.5q189 109 426 109q131 0 253 -43q53 -19 74 -19q30 0 49.5 14t36.5 48h64l-105 -453l-59 8q-3 104 -16.5 160t-47.5 107 q-34 50 -91.5 77t-129.5 27q-145 0 -264 -104q-138 -122 -229 -348t-91 -451q0 -187 86.5 -286t249.5 -99q60 0 115.5 17.5t77.5 43.5q7 11 59 187q38 125 49 173t11 87q0 13 -8 28t-17 21q-31 16 -127 25v53h588v-53zM1249 1690q0 -23 -17.5 -38.5t-68.5 -37.5l-336 -146 h-108l270 218q57 46 91 63.5t65 17.5q41 0 72.5 -23t31.5 -54z" />
<glyph unicode="&#x1f5;" d="M768 -109q0 -135 -136.5 -221t-352.5 -86q-177 0 -281 58.5t-104 158.5q0 79 55 127q37 29 79 46t138 40q-68 23 -97.5 55t-29.5 81q0 57 35 92t162 106q-164 69 -164 225q0 155 132.5 264t321.5 109q71 0 122.5 -15t103.5 -52h227v-115h-137q12 -49 12 -86 q0 -93 -46.5 -168.5t-135.5 -126.5q-121 -70 -260 -70q-30 0 -64 9q-21 8 -41 8t-38.5 -24.5t-18.5 -49.5q0 -23 27.5 -44t76.5 -34l109 -31q168 -47 236.5 -104.5t68.5 -151.5zM545 -205q0 74 -84 117q-36 16 -121.5 45.5t-103.5 30.5q-12 1 -48.5 -20.5t-56.5 -41.5 q-59 -56 -59 -112q0 -70 63.5 -115t163.5 -45q117 0 181.5 37t64.5 104zM555 518q59 128 59 244q0 54 -26 87.5t-66 33.5q-77 0 -135 -101q-33 -59 -55.5 -141t-22.5 -143q0 -58 22.5 -89.5t63.5 -31.5q95 0 160 141zM842 1296q0 -29 -17 -49.5t-63 -46.5l-311 -178h-101 l250 268q57 60 86.5 81.5t56.5 21.5q40 0 69.5 -28.5t29.5 -68.5z" />
<glyph unicode="&#x1fa;" horiz-adv-x="1366" d="M1214 0h-622v51q98 9 130 33t32 88q0 34 -17 147q-7 34 -14 107h-440l-121 -209q-31 -54 -31 -94q0 -37 31.5 -54.5t101.5 -17.5v-51h-401v51q55 12 87.5 40t82.5 104l762 1204h51l196 -1172q8 -44 12.5 -67t14.5 -45t18.5 -31t28.5 -17t40 -10.5t58 -5.5v-51zM709 508 l-76 498l-303 -498h379zM1272 2138q0 -23 -17 -38.5t-67 -37.5l-336 -145h-109l269 217q58 46 91.5 64t63.5 18q41 0 73 -23.5t32 -54.5zM1108 1659q0 -91 -64 -155t-155 -64t-154 64.5t-63 156.5q0 88 65 151.5t154 63.5t153 -64t64 -153zM1010 1655q0 51 -36 87t-87 36 q-47 0 -82 -36t-35 -85t34.5 -84t82.5 -35q51 0 87 34.5t36 82.5z" />
<glyph unicode="&#x1fb;" d="M932 229q-90 -134 -163.5 -196t-145.5 -62q-57 0 -97.5 39t-40.5 96q0 41 29 138q-87 -147 -164.5 -209t-171.5 -62q-100 0 -160.5 71.5t-60.5 188.5q0 93 33.5 196t91 193.5t128.5 164t151.5 116.5t154.5 43q66 0 102.5 -34.5t49.5 -112.5l37 121l227 14l-146 -483 q-69 -227 -69 -304q0 -30 24 -30q25 0 55 29t93 114zM621 764q0 41 -21 67t-55 29q-41 3 -90 -41.5t-95 -126.5q-63 -114 -107 -249t-44 -214q0 -47 26 -78.5t66 -31.5q42 0 86.5 39.5t85.5 113.5q60 105 104 252t44 240zM969 1688q0 -23 -17 -38.5t-67 -37.5l-336 -146 h-109l269 217q58 46 91.5 64t63.5 18q41 0 73 -23t32 -54zM805 1208q0 -91 -64 -155t-155 -64t-154 64.5t-63 156.5q0 88 65 151.5t154 63.5t153 -64t64 -153zM707 1204q0 51 -36 87t-87 36q-47 0 -82 -36t-35 -85t34.5 -84t82.5 -35q51 0 87 34.5t36 82.5z" />
<glyph unicode="&#x1fc;" horiz-adv-x="1933" d="M1741 401l-121 -401h-1079v51q79 12 106.5 37.5t52.5 108.5l95 325h-394l-233 -321q-31 -42 -31 -80q0 -34 28.5 -49t102.5 -21v-51h-399v51q37 4 61 19q15 6 119 139l750 967q41 54 41 90q0 29 -32.5 40t-133.5 17v47h1206l-92 -389l-49 10l-4 82q-12 232 -332 232 q-65 0 -88 -12.5t-33 -53.5l-133 -481h20h19q108 0 169.5 18.5t104 63t84.5 135.5l53 -8l-149 -559l-51 10q1 8 1.5 16.5t1 14t1.5 10.5q2 29 2 53q0 70 -21.5 104.5t-77.5 51.5t-173 24l-129 -493q-11 -46 -11 -58q0 -40 27.5 -57.5t91.5 -17.5q230 0 367 98 q57 40 101.5 92t107.5 152zM1004 1284h-25l-518 -682h354zM1673 1690q0 -23 -17.5 -38.5t-68.5 -37.5l-336 -146h-108l270 218q57 46 91 63.5t65 17.5q41 0 72.5 -23t31.5 -54z" />
<glyph unicode="&#x1fd;" horiz-adv-x="1478" d="M1268 250q-66 -135 -167.5 -206t-230.5 -71q-73 0 -132 23.5t-93 66.5q-26 32 -40.5 70.5t-26.5 108.5q-86 -142 -169 -204.5t-186 -62.5q-101 0 -167 69t-66 173q0 98 33.5 203.5t91 197.5t128.5 167t153 118t157 43q67 0 103.5 -29t64.5 -106l37 119l211 10l-41 -133 q66 76 118.5 104.5t127.5 28.5q97 0 150.5 -46.5t53.5 -131.5q0 -126 -122.5 -224t-344.5 -149l-80 -18q-10 -51 -10 -95q0 -82 36 -128t99 -46q148 0 254 183zM682 743q0 51 -27.5 83t-70.5 32q-99 0 -199 -178q-58 -102 -95 -219t-42 -207q-3 -61 24.5 -98t73.5 -37 q105 0 191 162q60 104 102.5 240.5t42.5 221.5zM1194 795q0 44 -16.5 64t-51.5 20q-76 0 -142 -100t-128 -306l-10 -35q78 11 174 70q174 115 174 287zM1309 1296q0 -29 -17 -49.5t-63 -46.5l-311 -178h-101l250 268q57 60 86.5 81.5t56.5 21.5q40 0 69.5 -28.5t29.5 -68.5z " />
<glyph unicode="&#x1fe;" horiz-adv-x="1478" d="M1415 928q0 -229 -120.5 -455t-315.5 -364q-205 -146 -434 -146q-85 0 -170 27l-144 -246h-98l162 279q-82 48 -125 96q-115 134 -115 315q0 182 74 360t193 311t278 215.5t320 82.5q78 0 167 -27l109 189h100l-129 -222q63 -37 97 -65.5t63 -69.5q88 -125 88 -280z M1036 1290q-54 43 -129 43q-189 0 -338 -266q-89 -158 -154 -389.5t-65 -388.5q0 -64 23 -131zM1120 1079q0 62 -28 135l-666 -1136q56 -45 133 -45q85 0 159 51t146 160q98 146 177 404t79 431zM1196 1690q0 -23 -17.5 -38.5t-68.5 -37.5l-336 -146h-108l270 218 q57 46 91 63.5t65 17.5q41 0 72.5 -23t31.5 -54z" />
<glyph unicode="&#x1ff;" d="M903 637q0 -170 -81.5 -324t-216.5 -247t-283 -93q-47 0 -105 17l-131 -234h-82l148 258q-158 88 -158 260q0 171 83.5 327t221 250.5t287.5 94.5q42 0 86 -12l121 213h75l-133 -238q88 -43 128 -108t40 -164zM629 858q-29 29 -66 29q-99 0 -176 -139 q-56 -100 -102.5 -279t-46.5 -293v-16zM545 256q44 106 79 260t35 246q0 6 -2 10l-395 -702q27 -37 76 -37q60 0 110 53.5t97 169.5zM831 1296q0 -29 -16.5 -49.5t-62.5 -46.5l-312 -178h-100l250 268q57 60 86.5 81.5t56.5 21.5q40 0 69 -28.5t29 -68.5z" />
<glyph unicode="&#x200;" horiz-adv-x="1366" d="M1214 0h-622v51q98 9 130 33t32 88q0 34 -17 147q-7 34 -14 107h-440l-121 -209q-31 -54 -31 -94q0 -37 31.5 -54.5t101.5 -17.5v-51h-401v51q55 12 87.5 40t82.5 104l762 1204h51l196 -1172q8 -44 12.5 -67t14.5 -45t18.5 -31t28.5 -17t40 -10.5t58 -5.5v-51zM709 508 l-76 498l-303 -498h379zM727 1468h-109l-258 146q-38 22 -47.5 37.5t2.5 38.5q17 31 62 54t86 23q31 0 55 -17.5t55 -63.5zM1087 1468h-108l-258 146q-38 22 -47.5 37.5t2.5 38.5q17 31 61.5 54t85.5 23q31 0 56 -18t55 -63z" />
<glyph unicode="&#x201;" d="M932 229q-90 -134 -163.5 -196t-145.5 -62q-57 0 -97.5 39t-40.5 96q0 41 29 138q-87 -147 -164.5 -209t-171.5 -62q-100 0 -160.5 71.5t-60.5 188.5q0 93 33.5 196t91 193.5t128.5 164t151.5 116.5t154.5 43q66 0 102.5 -34.5t49.5 -112.5l37 121l227 14l-146 -483 q-69 -227 -69 -304q0 -30 24 -30q25 0 55 29t93 114zM621 764q0 41 -21 67t-55 29q-41 3 -90 -41.5t-95 -126.5q-63 -114 -107 -249t-44 -214q0 -47 26 -78.5t66 -31.5q42 0 86.5 39.5t85.5 113.5q60 105 104 252t44 240zM786 993h-100l-115 238q-20 44 -23.5 64t9.5 55 q41 75 129 75q17 0 28.5 -2.5t25 -12t21.5 -31t9 -54.5zM440 993h-100l-143 250q-8 13 -18 27t-13.5 19.5t-3 15.5t7.5 24q22 40 65.5 68t83.5 28q34 0 58 -21.5t31 -82.5z" />
<glyph unicode="&#x204;" horiz-adv-x="1366" d="M1200 397l-121 -397h-1134v51q79 12 109 39t55 109l251 919q21 82 21 125q0 31 -19.5 46.5t-66.5 21.5l-64 8v51h1106l-88 -389l-55 10q0 95 -13 143t-48 85q-86 86 -316 86q-63 0 -88.5 -18.5t-40.5 -72.5l-125 -456q72 -1 118.5 1.5t89 11.5t68.5 22t52.5 39.5t46.5 59 t45 83.5l57 -8l-151 -559l-58 10q9 58 9 90q0 106 -60 143.5t-235 40.5l-115 -428q-31 -67 -31 -129q0 -37 29.5 -53t95.5 -16q270 0 439 124q56 41 94.5 86t91.5 132zM793 1468h-109l-258 146q-38 22 -47.5 37.5t2.5 38.5q17 31 61.5 54t85.5 23q31 0 56 -18t55 -63z M1153 1468h-109l-258 146q-38 22 -47.5 37.5t2.5 38.5q17 31 62 54t86 23q31 0 55 -17.5t55 -63.5z" />
<glyph unicode="&#x205;" horiz-adv-x="909" d="M709 256q-92 -153 -182 -218t-208 -65q-134 0 -221.5 85.5t-87.5 215.5q0 124 51 247t132.5 216t189.5 151t217 58q94 0 154.5 -50t60.5 -128q0 -114 -110 -215q-77 -71 -167 -110t-249 -70q-13 -67 -13 -101q0 -168 132 -168q66 0 118 40.5t123 146.5zM627 809 q0 70 -58 70q-73 0 -141.5 -113.5t-124.5 -327.5q87 28 134.5 54.5t88.5 70.5q101 104 101 246zM821 993h-100l-115 238q-20 44 -23.5 64t9.5 55q41 75 129 75q17 0 28.5 -2.5t25 -12t21.5 -31t9 -54.5zM475 993h-100l-144 250q-7 13 -17.5 27t-13.5 19.5t-2.5 15.5t7.5 24 q22 40 65.5 68t83.5 28q34 0 57.5 -21.5t30.5 -82.5z" />
<glyph unicode="&#x208;" horiz-adv-x="796" d="M541 0h-607v51q74 9 106.5 38.5t57.5 109.5l252 919q21 82 21 125q0 31 -18.5 45.5t-65.5 20.5q-46 8 -66 10v51h610v-51q-78 -9 -110 -37.5t-57 -110.5l-234 -860q-37 -130 -37 -178q0 -43 30.5 -60.5t117.5 -21.5v-51zM481 1468h-108l-258 146q-38 22 -47.5 37.5 t2.5 38.5q17 31 61.5 54t85.5 23q31 0 56 -18t55 -63zM842 1468h-109l-258 146q-38 22 -47.5 37.5t2.5 38.5q17 31 62 54t86 23q31 0 55 -17.5t55 -63.5z" />
<glyph unicode="&#x209;" horiz-adv-x="569" d="M487 260q-107 -162 -178.5 -220t-163.5 -58q-63 0 -102 35.5t-39 93.5q0 41 27 141l119 440q14 61 14 82q0 60 -94 60h-27v55q241 18 414 57l-187 -684q-18 -79 -18 -106q0 -12 9.5 -21.5t21.5 -9.5q50 0 131 123l28 41zM606 993h-100l-115 238q-20 44 -23.5 64t9.5 55 q41 75 129 75q17 0 28.5 -2.5t25 -12t21.5 -31t9 -54.5zM260 993h-100l-144 250q-7 13 -17.5 27t-13.5 19.5t-2.5 15.5t7.5 24q22 40 65.5 68t83.5 28q34 0 57.5 -21.5t30.5 -82.5z" />
<glyph unicode="&#x20c;" horiz-adv-x="1478" d="M1415 930q0 -229 -120.5 -456t-315.5 -365q-202 -146 -440 -146q-217 0 -350.5 135t-133.5 355q0 218 123 444t314 360q208 146 428 146q214 0 354.5 -134.5t140.5 -338.5zM1120 1090q0 109 -57.5 176t-149.5 67q-104 0 -191 -71t-167 -220q-80 -150 -142.5 -380.5 t-62.5 -380.5q0 -115 56 -181.5t153 -66.5q165 0 305 209q100 153 178 410t78 438zM838 1468h-109l-258 146q-38 22 -47.5 37.5t2.5 38.5q17 31 61.5 54t85.5 23q31 0 56 -18t55 -63zM1198 1468h-108l-259 146q-38 22 -47.5 37.5t2.5 38.5q17 31 62 54t86 23q31 0 55 -17.5 t55 -63.5z" />
<glyph unicode="&#x20d;" d="M903 637q0 -127 -49 -249.5t-128.5 -213t-187 -146t-219.5 -55.5q-141 0 -233 86t-92 217q0 126 49.5 249.5t130.5 215t189 148.5t219 57q141 0 231 -87t90 -222zM532 225q50 109 88.5 274t38.5 269q0 55 -26 87t-70 32q-101 0 -184 -154q-53 -97 -97 -276.5t-44 -296.5 q0 -60 27 -93.5t73 -33.5q108 0 194 192zM848 993h-100l-115 238q-14 31 -19 46.5t-5.5 34.5t9.5 38q41 75 130 75q17 0 28.5 -2.5t25 -12t21 -31t8.5 -54.5zM502 993h-101l-143 250q-8 13 -18 27t-13.5 19.5t-3 15.5t7.5 24q22 40 66 68t84 28q34 0 57.5 -21.5t30.5 -82.5z " />
<glyph unicode="&#x210;" horiz-adv-x="1366" d="M1233 0h-414l-219 678h-59l-113 -395q-29 -106 -29 -146q0 -46 29.5 -63t118.5 -23v-51h-606v51q74 9 106 38.5t57 109.5l252 919q21 82 21 125q0 31 -18.5 45.5t-65.5 20.5q-46 8 -66 10v51h566q244 0 363.5 -72.5t119.5 -220.5q0 -86 -44 -162.5t-126 -130.5 q-45 -30 -92 -47.5t-131 -34.5l170 -503q34 -91 64 -116t116 -32v-51zM967 1110q0 93 -48.5 144t-136.5 51q-47 0 -67 -18t-33 -73l-123 -471q186 3 260 52q67 41 107.5 127t40.5 188zM715 1468h-109l-258 146q-38 22 -47.5 37.5t2.5 38.5q17 31 62 54t86 23q31 0 55 -17.5 t55 -63.5zM1075 1468h-108l-258 146q-38 22 -47.5 37.5t2.5 38.5q17 31 61.5 54t85.5 23q31 0 56 -18t55 -63z" />
<glyph unicode="&#x211;" horiz-adv-x="796" d="M797 811q0 -64 -34 -106.5t-85 -42.5q-47 0 -92 51q-17 26 -33 26q-46 0 -133 -155q-42 -71 -72.5 -147.5t-75.5 -223.5l-67 -213h-248q209 709 209 782q0 29 -21 39t-90 13v55q184 15 250.5 24t159.5 33l-135 -428q121 244 196.5 336t153.5 92q53 0 85 -37t32 -98z M715 993h-101l-114 238q-14 31 -19 46.5t-5.5 34.5t9.5 38q41 75 129 75q17 0 28.5 -2.5t25 -12t21.5 -31t9 -54.5zM369 993h-101l-143 250q-8 13 -18 27t-13.5 19.5t-3 15.5t7.5 24q22 40 66 68t84 28q34 0 57.5 -21.5t30.5 -82.5z" />
<glyph unicode="&#x214;" horiz-adv-x="1478" d="M1524 1319q-31 -6 -49 -11.5t-37 -20.5t-30 -31t-27.5 -54.5t-29.5 -79.5t-36 -116l-135 -467q-47 -165 -88.5 -258t-94.5 -154q-138 -164 -403 -164q-201 0 -329 95t-128 245q0 109 70 359l112 421q31 124 31 156q0 34 -18.5 49.5t-67.5 22.5l-63 8v51h637v-51 q-95 -4 -131 -32t-62 -116l-168 -614q-39 -143 -48 -186t-9 -86q0 -97 66.5 -152t183.5 -55q167 0 272 123q47 59 84.5 144.5t77.5 232.5l119 428q39 140 39 196q0 55 -38 82t-126 35v51h426v-51zM924 1468h-109l-258 146q-38 22 -47.5 37.5t2.5 38.5q17 31 61.5 54t85.5 23 q31 0 56 -18t55 -63zM1284 1468h-108l-258 146q-39 22 -48.5 37.5t2.5 38.5q17 31 62 54t86 23q31 0 55 -17.5t55 -63.5z" />
<glyph unicode="&#x215;" horiz-adv-x="1138" d="M1008 246q-80 -137 -159 -200.5t-171 -63.5q-68 0 -100.5 29.5t-32.5 92.5q0 76 49 226q-110 -154 -172.5 -224t-114.5 -97t-123 -27q-153 0 -153 151q0 70 43 221l82 273q28 92 28 149q0 31 -22 42.5t-92 15.5v55q137 6 370 47q12 2 58 10l-193 -631q-31 -98 -31 -135 q0 -51 43 -51q59 0 150 113q89 110 146.5 245t144.5 433h241l-159 -549q-52 -165 -52 -215q0 -15 8.5 -25t20.5 -10q27 0 61 34.5t87 116.5zM901 993h-100l-115 238q-20 44 -23.5 64t9.5 55q41 75 129 75q17 0 28.5 -2.5t25 -12t21.5 -31t9 -54.5zM555 993h-100l-144 250 q-7 13 -17.5 27t-13.5 19.5t-2.5 15.5t7.5 24q22 40 65.5 68t83.5 28q34 0 57.5 -21.5t30.5 -82.5z" />
<glyph unicode="&#x218;" horiz-adv-x="1138" d="M958 379q0 -191 -127 -303.5t-342 -112.5q-111 0 -251 49q-68 23 -95 23q-29 0 -43.5 -13.5t-33.5 -58.5h-62l74 459l59 -4q6 -94 20.5 -149.5t45.5 -102.5q40 -63 105.5 -98t144.5 -35q149 0 219 119q39 67 39 139t-55 146.5t-177 166.5q-174 134 -243 266 q-27 59 -27 136q0 169 118.5 283t293.5 114q84 0 200 -39q76 -23 105 -23q64 0 90 54h61l-82 -412l-55 8q-20 180 -83.5 260t-186.5 80q-98 0 -155.5 -57.5t-57.5 -157.5q0 -69 31 -115t126 -118q189 -142 266.5 -256t77.5 -248zM451 -262q0 -112 -95.5 -221.5 t-255.5 -180.5l-24 43q215 117 215 215q0 20 -12 36t-43 36q-41 29 -57.5 54.5t-16.5 62.5q-1 58 35.5 96.5t93.5 38.5q71 0 115 -49t45 -131z" />
<glyph unicode="&#x219;" horiz-adv-x="796" d="M571 244q0 -116 -86.5 -193.5t-216.5 -77.5q-52 0 -129 25q-43 16 -63 16q-21 0 -37.5 -11t-22.5 -30h-55l45 340l55 -6q40 -272 197 -272q49 0 83 32t34 78q0 77 -115 213q-102 122 -133 184.5t-31 145.5q0 118 75 188t200 70q52 0 118 -26q50 -19 74 -19q23 0 33 7 t27 36h59l-47 -313l-55 4q-25 128 -68 186t-113 58q-49 0 -78.5 -29.5t-29.5 -79.5q0 -69 115 -201q165 -191 165 -325zM301 -262q0 -113 -95 -222.5t-255 -179.5l-25 43q215 117 215 215q0 20 -12 36t-43 36q-41 29 -57.5 54.5t-16.5 62.5q-1 58 35.5 96.5t93.5 38.5 q71 0 115 -49t45 -131z" />
<glyph unicode="&#x21a;" horiz-adv-x="1251" d="M1257 977l-55 4q-7 170 -72 242.5t-210 74.5l-287 -1036q-23 -90 -23 -127q0 -49 30.5 -64t139.5 -20v-51h-678v51h29q78 0 121 34.5t65 113.5l304 1099q-157 -3 -261.5 -71t-183.5 -221l-51 14l78 350h1128zM559 -262q0 -113 -95 -222.5t-255 -179.5l-25 43 q215 117 215 215q0 20 -12 36t-43 36q-41 29 -57.5 54.5t-16.5 62.5q-1 58 35.5 96.5t93.5 38.5q71 0 115 -49t45 -131z" />
<glyph unicode="&#x21b;" horiz-adv-x="569" d="M461 260q-101 -158 -174.5 -218t-165.5 -60q-65 0 -104.5 36.5t-39.5 96.5t50 231l139 488h-105v71q121 45 206 116.5t169 195.5h72l-80 -297h147v-86h-169l-68 -244q-111 -381 -111 -434q0 -12 10.5 -21.5t22.5 -9.5q51 0 156 164zM317 -262q0 -113 -95 -222.5 t-255 -179.5l-24 43q215 117 215 215q0 20 -12.5 35.5t-43.5 36.5q-41 29 -57 54.5t-16 62.5q-1 58 35.5 96.5t93.5 38.5q71 0 114.5 -49t44.5 -131z" />
<glyph unicode="&#x258;" horiz-adv-x="909" d="M692 274q-70 -130 -203.5 -215.5t-267.5 -85.5q-118 0 -172 65t-65 218l77 35q13 -105 44.5 -146t97.5 -41q132 0 221 168q23 42 43 101q-143 30 -212 69.5t-108 110.5q-56 100 5 215q41 78 129 128t182 50q109 0 186 -58t108 -151t16 -216t-81 -247zM487 438 q59 214 51 327.5t-81 113.5q-58 0 -95 -70q-77 -141 -32 -246q19 -45 51.5 -71.5t105.5 -53.5z" />
<glyph unicode="&#x259;" horiz-adv-x="909" d="M791 645q0 -124 -51 -247t-132.5 -216t-189.5 -151t-217 -58q-94 0 -154.5 50.5t-60.5 128.5q0 114 110 215q77 71 167 110t249 70q12 62 12 100q0 168 -131 168q-66 0 -118.5 -40t-122.5 -146l-60 35q92 152 181.5 217t207.5 65q134 0 222 -85.5t88 -215.5zM498 481 q-88 -28 -135.5 -54.5t-88.5 -70.5q-100 -103 -100 -245q0 -70 57 -70q74 0 143 113.5t124 326.5z" />
<glyph unicode="&#x2be;" horiz-adv-x="710" d="M725 1122q0 -112 -59.5 -220t-155.5 -175.5t-195 -67.5q-73 0 -119 38t-46 98q1 52 30.5 84t75.5 32q41 0 66.5 -24t25.5 -60q-4 -32 -20 -61q-2 -4 -4.5 -8t-4 -6t-2.5 -4q4 -11 19 -11q50 0 98 86q36 66 60 146.5t24 142.5q-2 48 -25.5 78.5t-62.5 30.5t-71.5 -25 t-77.5 -88q-9 -16 -25 -8l-37 24q-12 6 -4 21q63 89 111 129q79 67 178 67t160 -61t61 -158z" />
<glyph unicode="&#x2bf;" horiz-adv-x="710" d="M668 856q-57 -84 -111 -129q-77 -68 -178 -68q-99 0 -160 61.5t-61 158.5q0 112 60 220t156 175t195 67q73 0 118.5 -37.5t45.5 -97.5q0 -52 -29 -84t-75 -32q-41 0 -67.5 24.5t-24.5 59.5q0 30 20 61l4 8l3 6t1 4q0 4 -6 7.5t-12 3.5q-50 0 -98 -86q-36 -66 -60 -146.5 t-24 -142.5q2 -48 25.5 -78.5t62.5 -30.5t71.5 25t77.5 88q4 7 12.5 9t12.5 -1l39 -24q9 -6 2 -21z" />
<glyph unicode="&#x2c6;" horiz-adv-x="681" d="M952 1030h-104l-180 195l-269 -195h-116l327 356h166z" />
<glyph unicode="&#x2c7;" horiz-adv-x="681" d="M1032 1386l-332 -356h-168l-180 356h103l186 -198l277 198h114z" />
<glyph unicode="&#x2d8;" horiz-adv-x="681" d="M987 1374q-28 -160 -122.5 -246t-243.5 -86q-143 0 -212 75.5t-69 230.5v26h88q9 -94 60 -139t149 -45q101 0 162 41.5t108 142.5h80z" />
<glyph unicode="&#x2d9;" horiz-adv-x="681" d="M803 1208q0 -57 -41 -97t-100 -40q-57 0 -96.5 40.5t-39.5 100.5q0 54 41 95t95 41q58 0 99.5 -41.5t41.5 -98.5z" />
<glyph unicode="&#x2da;" horiz-adv-x="681" d="M883 1210q0 -91 -64 -155t-155 -64t-154.5 64.5t-63.5 156.5q0 88 65.5 151.5t154.5 63.5t153 -64t64 -153zM784 1206q0 51 -35.5 87t-86.5 36q-47 0 -82 -36t-35 -85t34.5 -83.5t82.5 -34.5q51 0 86.5 34t35.5 82z" />
<glyph unicode="&#x2db;" horiz-adv-x="681" d="M555 -328q-44 -82 -113.5 -133t-144.5 -51q-64 0 -109.5 49.5t-44.5 134.5q2 49 21 96.5t45.5 84t66 72.5t71.5 60t73 50h106q-44 -40 -67.5 -63.5t-56.5 -62.5t-51.5 -79t-24.5 -84q-1 -56 19.5 -86.5t57.5 -30.5q65 0 127 68z" />
<glyph unicode="&#x2dc;" horiz-adv-x="681" d="M1034 1331q-34 -129 -90.5 -186.5t-148.5 -57.5q-52 0 -117 27l-121 47q-46 17 -78 17q-34 0 -56 -19.5t-42 -68.5h-82q20 110 85 175.5t153 65.5q78 0 198 -53q79 -33 111 -33q36 0 58.5 18.5t45.5 67.5h84z" />
<glyph unicode="&#x2dd;" horiz-adv-x="681" d="M770 1350q0 -27 -17 -51t-61 -68l-241 -238h-101l195 332q26 44 52.5 67.5t44 28t40.5 4.5q88 0 88 -75zM1147 1329q0 -14 -5 -24t-11.5 -15.5t-24.5 -19.5t-33 -27l-276 -250h-101l209 328q66 104 144 104q40 0 69 -28t29 -68z" />
<glyph unicode="&#x300;" horiz-adv-x="0" d="M-41 1022h-100l-215 178q-32 26 -38 46.5t9 49.5q22 40 65.5 68.5t83.5 28.5q28 0 47 -22t42 -81z" />
<glyph unicode="&#x301;" horiz-adv-x="0" d="M57 1296q0 -29 -17 -49.5t-63 -46.5l-311 -178h-100l250 268q57 60 86.5 81.5t56.5 21.5q40 0 69 -28.5t29 -68.5z" />
<glyph unicode="&#x302;" horiz-adv-x="0" d="M100 1030h-104l-180 195l-269 -195h-116l327 356h166z" />
<glyph unicode="&#x303;" horiz-adv-x="0" d="M182 1331q-34 -129 -90.5 -186.5t-148.5 -57.5q-52 0 -117 27l-121 47q-46 17 -78 17q-34 0 -56 -19.5t-42 -68.5h-82q20 110 85 175.5t153 65.5q78 0 198 -53q79 -33 111 -33q36 0 58.5 18.5t45.5 67.5h84z" />
<glyph unicode="&#x304;" horiz-adv-x="0" d="M129 1137h-668l35 143h666z" />
<glyph unicode="&#x306;" horiz-adv-x="0" d="M135 1374q-28 -160 -122.5 -246t-243.5 -86q-143 0 -212 75.5t-69 230.5v26h88q9 -94 60 -139t149 -45q101 0 162 41.5t108 142.5h80z" />
<glyph unicode="&#x307;" horiz-adv-x="0" d="M-49 1208q0 -57 -41 -97t-100 -40q-57 0 -96.5 40.5t-39.5 100.5q0 54 41 95t95 41q58 0 99.5 -41.5t41.5 -98.5z" />
<glyph unicode="&#x308;" horiz-adv-x="0" d="M-270 1206q0 -54 -40 -92.5t-96 -38.5q-52 0 -91.5 39.5t-39.5 91.5q0 56 38.5 95.5t92.5 39.5q56 0 96 -40t40 -95zM160 1206q0 -54 -39.5 -92.5t-95.5 -38.5q-53 0 -92 39.5t-39 91.5q0 56 38.5 95.5t92.5 39.5q55 0 95 -39.5t40 -95.5z" />
<glyph unicode="&#x309;" horiz-adv-x="0" d="M37 1296q0 -38 -41 -84t-74 -65l-19 -14q-19 -14 -27 -20.5t-26 -22.5t-28.5 -28t-22.5 -30t-18 -35h-51q20 60 51 113.5t56.5 83.5t44 58.5t18.5 47.5q0 17 -21.5 29t-54.5 12q-20 0 -39 -3.5t-29 -7.5t-10 -7t9 -22.5t9 -36.5q-12 -56 -63 -56q-31 0 -49.5 19.5 t-18.5 50.5q-1 59 66 100t158 41q82 0 130.5 -31t49.5 -92z" />
<glyph unicode="&#x30a;" horiz-adv-x="0" d="M31 1210q0 -91 -64 -155t-155 -64t-154.5 64.5t-63.5 156.5q0 88 65.5 151.5t154.5 63.5t153 -64t64 -153zM-68 1206q0 51 -35.5 87t-86.5 36q-47 0 -82 -36t-35 -85t34.5 -83.5t82.5 -34.5q51 0 86.5 34t35.5 82z" />
<glyph unicode="&#x30b;" horiz-adv-x="0" d="M-82 1350q0 -27 -17 -51t-61 -68l-241 -238h-101l195 332q26 44 52.5 67.5t44 28t40.5 4.5q88 0 88 -75zM295 1329q0 -14 -5 -24t-11.5 -15.5t-24.5 -19.5t-33 -27l-276 -250h-101l209 328q66 104 144 104q40 0 69 -28t29 -68z" />
<glyph unicode="&#x30c;" horiz-adv-x="0" d="M180 1386l-332 -356h-167l-181 356h103l186 -198l277 198h114z" />
<glyph unicode="&#x30f;" horiz-adv-x="0" d="M12 993h-100l-115 238q-20 44 -23.5 64t9.5 55q41 75 129 75q17 0 28.5 -2.5t25 -12t21.5 -31t9 -54.5zM-334 993h-100l-144 250q-7 13 -17.5 27t-13.5 19.5t-2.5 15.5t7.5 24q22 40 65.5 68t83.5 28q34 0 57.5 -21.5t30.5 -82.5z" />
<glyph unicode="&#x311;" horiz-adv-x="0" d="M49 1042h-88q-9 94 -60 139.5t-149 45.5q-101 0 -162 -42t-108 -143h-80q28 160 123 246t244 86q143 0 211.5 -75t68.5 -230v-27z" />
<glyph unicode="&#x323;" horiz-adv-x="0" d="M-451 -289q0 -57 -41 -97t-100 -40q-57 0 -96 40.5t-39 100.5q0 54 40.5 94.5t94.5 40.5q58 0 99.5 -41t41.5 -98z" />
<glyph unicode="&#x326;" horiz-adv-x="0" d="M-500 -262q0 -113 -95 -222.5t-255 -179.5l-24 43q215 117 215 215q0 20 -12.5 35.5t-43.5 36.5q-41 29 -57 54.5t-16 62.5q-1 58 35.5 96.5t93.5 38.5q71 0 114.5 -49t44.5 -131z" />
<glyph unicode="&#x32e;" horiz-adv-x="0" d="M-231 -154q-28 -129 -130.5 -198.5t-263.5 -69.5q-155 0 -229.5 64t-75.5 204h96q20 -149 226 -149q109 0 174.5 33.5t116.5 115.5h86z" />
<glyph unicode="&#x32f;" horiz-adv-x="0" d="M-301 -422h-96q-21 150 -226 150q-108 0 -173.5 -34t-116.5 -116h-86q28 129 130 198.5t263 69.5q155 0 229.5 -64t75.5 -204z" />
<glyph unicode="&#x330;" horiz-adv-x="0" d="M-219 -166q-34 -129 -91 -186.5t-149 -57.5q-51 0 -116 27l-121 47q-46 17 -78 17q-34 0 -56 -20t-42 -69h-82q20 110 84.5 176t152.5 66q79 0 199 -53q79 -33 110 -33q36 0 59 18.5t46 67.5h84z" />
<glyph unicode="&#x331;" horiz-adv-x="0" d="M-272 -360h-668l35 143h665z" />
<glyph unicode="&#x332;" horiz-adv-x="0" d="M-272 -360h-668l35 143h665z" />
<glyph unicode="&#x391;" horiz-adv-x="1366" d="M1214 0h-622v51q98 9 130 33t32 88q0 34 -17 147q-7 34 -14 107h-440l-121 -209q-31 -54 -31 -94q0 -37 31.5 -54.5t101.5 -17.5v-51h-401v51q55 12 87.5 40t82.5 104l762 1204h51l196 -1172q8 -44 12.5 -67t14.5 -45t18.5 -31t28.5 -17t40 -10.5t58 -5.5v-51zM709 508 l-76 498l-303 -498h379z" />
<glyph unicode="&#x392;" horiz-adv-x="1366" d="M1171 422q0 -197 -161.5 -309.5t-442.5 -112.5h-616v51q73 9 106 39t58 109l250 919q22 80 22 117q0 18 -9.5 35.5t-21.5 25.5q-33 19 -118 23v51h557q238 0 360.5 -75.5t122.5 -223.5q0 -64 -25.5 -121.5t-70.5 -95.5q-55 -45 -115.5 -71.5t-175.5 -55.5 q157 -51 218.5 -118t61.5 -187zM858 469q0 117 -72 174q-32 25 -83.5 35.5t-151.5 13.5l-135 -499q-10 -36 -10 -60q0 -35 28 -51t88 -16q134 0 215 81q55 55 88 143t33 179zM977 1098q0 207 -178 207q-50 0 -71 -18t-36 -73l-125 -460q115 5 176.5 18t108.5 43 q125 81 125 283z" />
<glyph unicode="&#x393;" horiz-adv-x="1366" d="M1264 981l-56 10q0 87 -12 135.5t-41 83.5q-86 95 -309 95q-63 0 -88.5 -18.5t-40.5 -72.5l-262 -964q-23 -76 -23 -109q0 -47 30 -65.5t116 -24.5v-51h-605v51q79 12 109 39t55 109l252 919q21 82 21 125q0 31 -19.5 46.5t-66.5 21.5l-64 8v51h1092z" />
<glyph unicode="&#x394;" horiz-adv-x="1349" d="M1249 0h-1335l1010 1370h63zM969 289l-162 827l-604 -827h766z" />
<glyph unicode="&#x395;" horiz-adv-x="1366" d="M1200 397l-121 -397h-1134v51q79 12 109 39t55 109l251 919q21 82 21 125q0 31 -19.5 46.5t-66.5 21.5l-64 8v51h1106l-88 -389l-55 10q0 95 -13 143t-48 85q-86 86 -316 86q-63 0 -88.5 -18.5t-40.5 -72.5l-125 -456q72 -1 118.5 1.5t89 11.5t68.5 22t52.5 39.5t46.5 59 t45 83.5l57 -8l-151 -559l-58 10q9 58 9 90q0 106 -60 143.5t-235 40.5l-115 -428q-31 -67 -31 -129q0 -37 29.5 -53t95.5 -16q270 0 439 124q56 41 94.5 86t91.5 132z" />
<glyph unicode="&#x396;" horiz-adv-x="1251" d="M1135 397l-121 -397h-1037v59l889 1239h-159q-169 0 -282 -66t-235 -235l-57 9l117 364h958v-59l-889 -1239h144q259 0 393 92q123 83 223 244z" />
<glyph unicode="&#x397;" horiz-adv-x="1593" d="M1346 0h-650v51q103 6 144 35.5t63 112.5l131 475h-489l-103 -371l-8 -33q-26 -82 -26 -131q0 -50 25.5 -65.5t123.5 -22.5v-51h-606v51q76 10 107.5 39t56.5 109l250 919q22 78 22 119q0 34 -18.5 50t-67.5 22l-63 10v51h649v-51q-99 -3 -140.5 -33t-66.5 -115 l-111 -407h490l96 354q21 82 21 125q0 31 -18.5 45.5t-65.5 20.5l-66 10v51h610v-51q-78 -11 -109.5 -38.5t-56.5 -109.5l-223 -813l-12 -45q-39 -133 -39 -178q0 -44 32.5 -62.5t117.5 -21.5v-51z" />
<glyph unicode="&#x398;" horiz-adv-x="1478" d="M1538 930q0 -229 -120.5 -456t-315.5 -365q-202 -146 -440 -146q-217 0 -350.5 135t-133.5 355q0 218 122.5 444t313.5 360q208 146 428 146q214 0 355 -134.5t141 -338.5zM1243 1090q0 109 -57.5 176t-149.5 67q-104 0 -191 -71t-167 -220q-80 -150 -142.5 -380.5 t-62.5 -380.5q0 -115 56 -181.5t153 -66.5q165 0 305 209q100 153 178 410t78 438zM997 420l133 498h-36q-20 -73 -65 -101.5t-144 -28.5q-101 0 -129.5 28.5t-7.5 101.5h-39l-134 -498h39q27 99 101 121q37 12 125 12q156 0 121 -133h36z" />
<glyph unicode="&#x399;" horiz-adv-x="796" d="M541 0h-607v51q74 9 106.5 38.5t57.5 109.5l252 919q21 82 21 125q0 31 -18.5 45.5t-65.5 20.5q-46 8 -66 10v51h610v-51q-78 -9 -110 -37.5t-57 -110.5l-234 -860q-37 -130 -37 -178q0 -43 30.5 -60.5t117.5 -21.5v-51z" />
<glyph unicode="&#x39a;" horiz-adv-x="1366" d="M1253 0h-573v51l55 6q78 6 78 49q0 28 -27 89l-231 495l-137 -510q-4 -20 -4 -35q0 -51 27.5 -69.5t107.5 -24.5v-51h-592v51q75 9 107 38t57 110l250 919q22 78 22 119q0 34 -18.5 50t-67.5 22l-63 10v51h635v-51q-90 -7 -129 -37.5t-64 -110.5l-127 -466l404 358 q87 81 122 126t35 75q0 23 -16.5 34.5t-54.5 16.5l-43 4v51h432v-51q-68 -9 -98 -24t-95 -74l-442 -406l321 -692q17 -37 43.5 -51.5t85.5 -20.5v-51z" />
<glyph unicode="&#x39b;" horiz-adv-x="1366" d="M1214 0h-622v51q98 9 130 33t32 88q0 34 -17 147l-104 687l-471 -789q-31 -54 -31 -94q0 -37 31.5 -54.5t101.5 -17.5v-51h-401v51q55 12 87.5 40t82.5 104l762 1204h51l196 -1172q8 -44 12.5 -67t14.5 -45t18.5 -31t28.5 -17t40 -10.5t58 -5.5v-51z" />
<glyph unicode="&#x39c;" horiz-adv-x="1820" d="M1587 0h-639v51q99 6 139.5 35.5t65.5 112.5l256 950l-768 -1174h-57l-138 1145l-206 -755q-39 -137 -39 -189q0 -63 33 -88t131 -37v-51h-424v51q31 7 48.5 12.5t36 21.5t29 32t27 55t29.5 78.5t36 114.5l224 763q22 83 22 119q0 43 -25 55.5t-122 16.5v51h452l111 -983 l635 983h434v-51q-77 -9 -110 -38.5t-56 -109.5l-252 -919q-20 -53 -20 -113q0 -49 28.5 -66t118.5 -22v-51z" />
<glyph unicode="&#x39d;" horiz-adv-x="1478" d="M1532 1319q-25 -6 -40 -10t-31.5 -13t-25.5 -16.5t-22 -26.5t-20.5 -36t-20 -52.5t-22.5 -68t-27 -90.5l-293 -1037h-57l-527 1125l-202 -729q-37 -127 -37 -193q0 -60 36.5 -86.5t127.5 -34.5v-51h-426v51q31 6 49 11.5t37 21t30 32t27 55t29 79t35 115.5l245 841 q-29 68 -57.5 87t-112.5 26v51h400l440 -952l164 588q37 135 37 192q0 59 -37 86.5t-127 34.5v51h428v-51z" />
<glyph unicode="&#x39e;" horiz-adv-x="1386" d="M1511 969h-38q12 64 -14.5 92.5t-100.5 28.5h-742q-74 0 -116 -28t-64 -93h-37l103 387h1112zM1178 442h-37q14 69 -10.5 99t-102.5 30h-342q-90 0 -131.5 -27t-67.5 -102h-36l133 496h37q-12 -53 4 -92q18 -35 120 -35h347q75 0 116 29t66 98h37zM1274 0h-1159l121 455 h36q-24 -105 -18 -136q6 -30 40.5 -41.5t121.5 -11.5h729q76 0 112 19q37 19 57 51.5t44 118.5h37z" />
<glyph unicode="&#x39f;" horiz-adv-x="1478" d="M1415 930q0 -229 -120.5 -456t-315.5 -365q-202 -146 -440 -146q-217 0 -350.5 135t-133.5 355q0 218 123 444t314 360q208 146 428 146q214 0 354.5 -134.5t140.5 -338.5zM1120 1090q0 109 -57.5 176t-149.5 67q-104 0 -191 -71t-167 -220q-80 -150 -142.5 -380.5 t-62.5 -380.5q0 -115 56 -181.5t153 -66.5q165 0 305 209q100 153 178 410t78 438z" />
<glyph unicode="&#x3a0;" horiz-adv-x="1595" d="M1346 0h-650v51q103 6 144 35.5t63 112.5l252 919q21 82 21 125q0 31 -18.5 45.5t-65.5 20.5l-66 10h-139q-99 -3 -140.5 -33t-66.5 -115l-246 -901q-26 -82 -26 -131q0 -50 25.5 -65.5t123.5 -22.5v-51h-606v51q76 10 107.5 39t56.5 109l250 919q22 78 22 119 q0 34 -18.5 50t-67.5 22l-63 10v51h1398v-51q-78 -11 -109.5 -38.5t-56.5 -109.5l-223 -813l-12 -45q-39 -133 -39 -178q0 -44 32.5 -62.5t117.5 -21.5v-51z" />
<glyph unicode="&#x3a1;" horiz-adv-x="1251" d="M1255 1053q0 -184 -152 -294t-407 -110q-76 0 -166 10l-110 -407q-21 -74 -21 -121q0 -41 31 -58.5t117 -21.5v-51h-602v51q79 12 109 39t55 109l251 919q21 82 21 125q0 31 -19.5 46.5t-66.5 21.5l-64 8v51h588q214 0 325 -81t111 -236zM911 893q45 105 45 225 q0 89 -45 138t-127 49q-53 0 -79 -29q-9 -14 -23 -62l-131 -489q70 -4 86 -4q109 0 171.5 39t102.5 133z" />
<glyph unicode="&#x3a3;" horiz-adv-x="1349" d="M1370 330l-188 -330h-1155l616 639l-233 731h1103l-51 -258h-47q2 42 -0.5 71t-13 51.5t-27.5 36t-46.5 22t-67 11.5t-93.5 3h-493l192 -580l-518 -551h604q111 0 172 12t104.5 43.5t92.5 98.5h49z" />
<glyph unicode="&#x3a4;" horiz-adv-x="1251" d="M1257 977l-55 4q-7 170 -72 242.5t-210 74.5l-287 -1036q-23 -90 -23 -127q0 -49 30.5 -64t139.5 -20v-51h-678v51h29q78 0 121 34.5t65 113.5l304 1099q-157 -3 -261.5 -71t-183.5 -221l-51 14l78 350h1128z" />
<glyph unicode="&#x3a5;" horiz-adv-x="1251" d="M1386 913h-61q19 71 -15 122.5t-102 51.5q-70 0 -133.5 -33.5t-113 -88.5t-93 -130.5t-74 -155t-53.5 -167.5l-73 -272q-17 -62 -17 -93q0 -57 29 -74t129 -22v-51h-659v51q105 7 141.5 33.5t64.5 114.5l84 313q30 112 39.5 209.5t-3 182t-64 134t-138.5 49.5 q-68 0 -130 -51.5t-81 -122.5h-61q123 457 348 457q104 0 172 -50t97 -131.5t32 -195.5t-15.5 -231.5t-53.5 -249.5h18q35 132 79 249t107 231t135 196t166 132t197 50q222 0 102 -457z" />
<glyph unicode="&#x3a6;" horiz-adv-x="1409" d="M1501 686q-21 -80 -76 -145t-132.5 -108.5t-166 -71t-188.5 -39.5l-2 -11q-37 -130 -37 -178q0 -43 30.5 -60.5t117.5 -21.5v-51h-607v51q74 9 106.5 38.5t57.5 109.5l33 123q-93 12 -166 39t-128 72t-72.5 107.5t1.5 145.5q28 106 116 184.5t201 120.5t249 58l18 69 q21 82 21 125q0 31 -18.5 45.5t-65.5 20.5q-46 8 -66 10v51h610v-51q-78 -9 -110.5 -37.5t-57.5 -110.5l-32 -122q92 -12 165.5 -39t128 -72t72 -107t-1.5 -145zM813 961q-86 -41 -152 -114t-90 -161q-23 -87 2.5 -160t88.5 -114zM1202 686q23 86 -2 158.5t-88 113.5 l-149 -546q86 39 150.5 111.5t88.5 162.5z" />
<glyph unicode="&#x3a7;" horiz-adv-x="1366" d="M1200 0h-631v51q84 8 112 23t28 55q0 65 -78 289l-39 123l-275 -303q-61 -66 -61 -105q0 -70 133 -82v-51h-438v51q46 8 94.5 43.5t127 116t251.5 270.5l139 152l-172 557q-25 71 -60 95.5t-126 33.5v51h624v-51l-61 -6q-51 -6 -70.5 -22.5t-19.5 -51.5q0 -48 70 -264 q3 -7 34 -113l193 203q80 85 111.5 129t31.5 72q0 23 -16 34.5t-51 14.5l-45 4v51h415v-51q-55 -7 -94.5 -32t-107.5 -93l-408 -420l152 -485q31 -101 57 -146t64 -64.5t116 -27.5v-51z" />
<glyph unicode="&#x3a8;" horiz-adv-x="1669" d="M1864 1065q-23 0 -43 -10t-35 -24t-30 -39.5t-25 -47.5t-21.5 -57t-18.5 -58t-17 -60q-2 -7 -3 -11q-32 -117 -124.5 -210.5t-214 -148t-261.5 -75.5l-4 -13q-37 -130 -37 -178q0 -43 30.5 -60.5t117.5 -21.5v-51h-607v51q74 9 106.5 38.5t57.5 109.5l35 125 q-96 16 -172.5 51t-129.5 90t-70.5 128t5.5 165q42 160 42 218q-1 89 -70 89l16 61q167 0 260 -106t51 -262q-29 -110 -4 -203.5t97 -140.5l192 704q21 82 21 125q0 31 -18.5 45.5t-65.5 20.5q-46 8 -66 10v51h610v-51q-78 -9 -110.5 -37.5t-57.5 -110.5l-206 -759 q99 50 174 143t104 203q28 103 107 188t185.5 132.5t215.5 47.5z" />
<glyph unicode="&#x3a9;" horiz-adv-x="1568" d="M1487 0h-580l133 383q64 26 119 74q99 99 176 391q47 168 41 272q-9 99 -69.5 158t-169.5 59q-142 0 -265 -108q-121 -110 -198 -389q-62 -236 -47 -336q21 -100 96 -121l-72 -383h-579l104 389h35q-15 -60 18.5 -99.5t94.5 -35.5h307l16 82q-211 40 -282 186 q-71 148 -21 330q43 161 170.5 291.5t297.5 201t345 70.5q130 0 240.5 -41.5t181.5 -115.5t99 -178t-7 -228q-46 -174 -190 -324q-139 -145 -389 -192l-27 -82h305q59 -6 114 34t72 101h35z" />
<glyph unicode="&#x3b1;" horiz-adv-x="1447" d="M1407 186q-23 -92 -82 -158.5t-131 -66.5q-105 0 -170 61t-88 166q-176 -227 -356 -227q-102 0 -184.5 39.5t-130 108t-64 160t13.5 196.5q36 134 133.5 247.5t230 179.5t267.5 66q132 0 228 -63t136 -170q111 169 187 227l92 -127q-14 -11 -49.5 -40t-55 -44.5t-49 -40 t-54 -46.5t-46.5 -44q5 -58 -8 -137q-20 -96 -30.5 -154.5t-20 -137.5t-1 -118.5t34.5 -39.5q49 0 84 47.5t52 115.5h61zM926 264q-6 95 14 191q12 61 19 105.5t11.5 100t-1.5 94t-20.5 73t-44.5 52t-75 17.5q-51 0 -95 -26t-76 -66t-60.5 -100.5t-46.5 -115t-37 -124.5 q-14 -50 -23.5 -91t-16.5 -88t-8.5 -83.5t4.5 -71t20.5 -57.5t41 -37t64.5 -14q163 0 330 241z" />
<glyph unicode="&#x3b2;" horiz-adv-x="1101" d="M1120 375q-33 -121 -132 -217t-228.5 -146.5t-263.5 -50.5q-69 0 -125 29q-74 -263 -197 -471h-299q157 261 215 481l246 920q35 129 117 240.5t197 180t233 68.5q153 0 236.5 -98t45.5 -242q-26 -97 -101.5 -178.5t-176.5 -124.5q135 -41 202.5 -147t30.5 -244zM821 375 q18 67 23 128t-5 112t-43 81.5t-87 30.5l16 61q16 0 30.5 11t28 35.5t24 46.5t22.5 61.5t18.5 61.5t17.5 65q8 30 12.5 48t11.5 47t10 47.5t6 42.5t1.5 38.5t-5.5 28.5t-13 20.5t-23 6.5q-27 0 -52 -14t-44 -34t-39 -57t-32.5 -67t-29 -80.5t-25 -80.5t-23.5 -84 q-2 -7 -3 -11l-229 -863q49 -34 123 -34q106 0 188 103.5t121 248.5z" />
<glyph unicode="&#x3b3;" horiz-adv-x="1171" d="M1327 920q-18 -68 -58.5 -145.5t-83 -139.5t-115.5 -149t-117.5 -135.5t-127.5 -137.5l-84 -88l-65 -252q-11 -41 -16.5 -61t-17.5 -59.5t-20.5 -60t-22.5 -53.5t-26 -50.5t-29.5 -40t-35.5 -33.5t-40.5 -19t-47.5 -8q-76 0 -101.5 61.5t6.5 156t113 183.5q26 29 244 252 q21 93 30.5 166t7 144.5t-22 119t-64 76.5t-113.5 29q-76 0 -144.5 -49.5t-88.5 -120.5h-62q24 88 57 164t78.5 143t106.5 106t129 39q59 0 103 -20.5t70 -56.5t40 -90t16.5 -114.5t-5 -137t-21 -150.5t-33.5 -162l18 21q258 277 363 672h180zM614 -127l43 166l-176 -184 q-94 -103 -112 -200q-16 -82 38 -101q13 -5 29 -5q17 0 32.5 7t29 24t24.5 32.5t23 45t19.5 48.5t18.5 56t15.5 54.5t15.5 56.5z" />
<glyph unicode="&#x3b4;" horiz-adv-x="1067" d="M1087 414q-50 -187 -215 -320t-350 -133q-90 0 -163 36t-114.5 97.5t-56 144t12.5 175.5q26 99 107.5 176t186.5 119t228 57q-135 193 -86 375q30 109 117 188.5t186 79.5q127 0 210.5 -56t80.5 -161l-187 -41q2 85 -26 141t-94 56q-61 0 -105 -60.5t-67 -146.5 q-6 -24 -6 -49t4.5 -46.5t16 -47t22 -44t29 -44.5t30 -41t31.5 -40q54 -68 82 -106.5t68.5 -102.5t54.5 -115t3 -91zM788 414q49 181 -20 291q-91 -23 -165.5 -105.5t-102.5 -185.5q-49 -189 -52 -262q-4 -129 91 -129q30 0 57 13t47.5 32t40 53t32.5 62.5t28 75t23 76 t21 79.5z" />
<glyph unicode="&#x3b5;" horiz-adv-x="1058" d="M1016 180q-73 -84 -170.5 -131t-196.5 -47q-86 0 -159.5 8t-142.5 28.5t-113.5 52t-64 83.5t-1.5 119q44 155 235 213q-100 58 -69 178q18 63 66.5 110.5t117 74t143.5 39t156 12.5q171 0 266 -115l-53 -45q-85 98 -229 98q-61 0 -113 -51.5t-72 -122.5q-22 -93 66 -141 l174 2l-27 -99q-87 0 -202 7q-144 -50 -176 -160q-27 -100 38 -165t177 -65q82 0 163.5 39.5t143.5 108.5z" />
<glyph unicode="&#x3b6;" horiz-adv-x="851" d="M733 -276q-14 -51 -26.5 -85t-32.5 -73t-47 -58.5t-60 -19.5q-43 0 -65.5 29.5t-12.5 72.5h62q-3 -18 6 -29.5t27 -11.5q15 0 28 15t24.5 45.5t18.5 53.5t17 61q10 36 15.5 58.5t12 54.5t6.5 52.5t-3.5 40.5t-15.5 29.5t-32 9.5q-110 0 -204.5 23.5t-164.5 68 t-99.5 117.5t-4.5 164q48 180 124 340.5t188.5 295t240.5 198.5q-38 36 -47.5 85t14.5 109h183q-36 -87 -17 -149q41 8 93 8h22t21.5 -0.5t21 -1.5t19.5 -2.5t17.5 -3.5t15 -5.5t11.5 -8t7.5 -10.5t3.5 -13.5t-2 -16.5q-6 -22 -22.5 -35.5t-44 -19t-48.5 -7t-55 -1.5 q-62 0 -109 18q-47 -36 -90.5 -103.5t-74.5 -135.5t-66.5 -176t-55.5 -177.5t-51 -187.5q-34 -127 19.5 -219t171.5 -92q36 0 58 -18.5t29 -47t5 -71t-10 -82t-21 -88.5z" />
<glyph unicode="&#x3b7;" horiz-adv-x="1243" d="M1321 629q-29 -106 -127 -314.5t-127 -314.5q-59 -226 -43 -481h-299q-13 206 59 481q28 104 119 313t119 316q8 30 12.5 47.5t11 46t8.5 46t3.5 40t-2.5 36.5t-10.5 27t-20 19t-31.5 6q-84 0 -151 -79.5t-97 -188.5l-167 -629h-283l168 629q15 57 23.5 92.5t17 82 t4.5 70t-21 23.5q-30 0 -54.5 -17.5t-42.5 -50.5t-30 -64.5t-24 -74.5h-62q30 111 90 189.5t140 78.5q94 0 159.5 -48.5t86.5 -129.5q50 81 117.5 129.5t142.5 48.5q105 0 185 -40.5t116 -117t10 -171.5z" />
<glyph unicode="&#x3b8;" horiz-adv-x="1015" d="M1110 690q-29 -111 -70 -213t-98 -197t-123 -165t-149 -112t-172 -42q-90 0 -150.5 42t-89 111.5t-34.5 165t7.5 197.5t42.5 213q29 109 70 209.5t98 194.5t123 163t149 110.5t171 41.5q110 0 177 -62t86 -167.5t9 -228.5t-47 -261zM819 721q17 61 29 107.5t27 107.5 t23.5 106.5t16.5 96t8 85.5t-4 64.5t-17 44.5t-34 15q-17 0 -33.5 -9t-33 -30t-31.5 -43t-31 -59t-28.5 -67t-28.5 -78.5t-26.5 -81t-26 -88t-24 -85.5t-23.5 -86h237zM803 659h-238q-17 -64 -29 -109.5t-27 -108.5t-24 -108t-17 -97t-8.5 -87t3.5 -65.5t17 -45.5t34 -15 t42 15t41 45.5t38.5 65t38 87.5t34.5 96.5t34 108.5t31 108.5t30 109.5z" />
<glyph unicode="&#x3b9;" horiz-adv-x="864" d="M836 229q-29 -109 -105 -188.5t-166 -79.5q-160 0 -258 71.5t-65 196.5l184 691h283l-185 -691q-11 -40 -14.5 -74.5t0.5 -65.5t22 -48.5t50 -17.5q65 0 116.5 61t75.5 145h62z" />
<glyph unicode="&#x3ba;" horiz-adv-x="1050" d="M1022 229q-29 -108 -108 -188t-171 -80q-133 0 -197.5 102.5t-27.5 243.5q20 72 -31 123l-114 -430h-283l246 920h282l-53 -201l2 6q53 101 121 167t146 66q85 0 137.5 -51t54.5 -133l-63 -16q-1 61 -42 100t-104 39q-58 0 -104 -52t-88 -136q-59 -104 -103 -148l-6 -31 q68 -6 122 -20t98 -39.5t62 -67t3 -96.5t-25.5 -96t-20 -88.5t-8.5 -73.5t13 -26q67 0 122.5 61t78.5 145h61z" />
<glyph unicode="&#x3bb;" horiz-adv-x="1220" d="M1202 268q-20 -75 -50.5 -136t-80 -104.5t-106.5 -43.5q-25 0 -45.5 11t-34 27.5t-24 45t-16 53.5t-9.5 63.5t-5.5 64.5t-3.5 66l-12 248l-401 -532h-316l699 923l-4 74q-2 37 -6.5 65t-15.5 55.5t-32.5 42.5t-52.5 15q-39 0 -74.5 -31t-46.5 -73h-61q15 55 35 102.5 t48 90t65.5 67t80.5 24.5q26 0 45.5 -14t32 -42.5t21 -57t13.5 -73t7 -75t4 -77.5l35 -713q3 -73 32 -121.5t89 -48.5q43 0 80.5 30.5t48.5 73.5h61z" />
<glyph unicode="&#x3bc;" horiz-adv-x="1392" d="M1364 229q-29 -110 -93.5 -189t-146.5 -79q-78 0 -143 26t-102 72q-120 -98 -244 -98q-157 0 -258 55q-43 -266 -12 -528h-322q141 378 238 741l186 691h283l-187 -691q-12 -54 -10 -99.5t27.5 -76t70.5 -30.5q109 0 201 86q-19 56 -2 120l186 691h283l-186 -691 q-8 -30 -12.5 -48t-10.5 -45.5t-6.5 -44.5t2 -34.5t11.5 -25.5t24 -8q105 0 162 206h61z" />
<glyph unicode="&#x3bd;" horiz-adv-x="1132" d="M1198 580q-82 -306 -283 -408l-430 -215l-20 569q-1 34 19 87.5t41 99.5t35 89.5t-1.5 69t-66.5 25.5q-24 0 -45 -11.5t-38.5 -37.5t-30 -49t-26.5 -65.5t-21 -66.5t-20 -71h-61q16 59 30 103.5t37.5 96t49 84.5t62.5 55.5t79 22.5q112 0 173.5 -83t66.5 -209l18 -506 l133 65q166 83 238 355q6 24 -5.5 53t-44.5 65t-54 56t-64 59l227 229q29 -26 42.5 -69t15.5 -81.5t-9 -103.5t-19.5 -100.5t-27.5 -107.5z" />
<glyph unicode="&#x3be;" horiz-adv-x="958" d="M1225 1167q-6 -22 -24.5 -36t-52.5 -19.5t-57.5 -6.5t-66.5 -1q-70 0 -131 22q-82 -44 -145.5 -128.5t-90.5 -182.5q-21 -73 13 -125t106 -80q81 8 180 8l-26 -98q-88 0 -174 6q-112 -40 -195 -118t-110 -177q-5 -20 -5.5 -37.5t4 -33.5t11 -29.5t18.5 -26t23.5 -23 t29.5 -20.5t32 -18t35 -16.5t36 -14.5t37 -14q94 -32 141.5 -105t22.5 -169q-14 -50 -27 -85t-33 -73t-48 -58t-62 -20q-41 0 -64 29.5t-14 70.5l61 4q-3 -19 6.5 -31t26.5 -12q21 0 40 30.5t29 62t23 82.5q21 75 -19 132t-116 85q-258 92 -354 143q-151 80 -133 147 q61 232 374 330q-221 63 -168 254q35 135 153.5 232.5t281.5 144.5q-67 73 -50 178h183q-16 -85 16 -147q58 6 115 6q27 0 43 -0.5t40.5 -2t38.5 -5.5t27.5 -10.5t18 -17.5t0.5 -26z" />
<glyph unicode="&#x3bf;" d="M903 637q0 -127 -49 -249.5t-128.5 -213t-187 -146t-219.5 -55.5q-141 0 -233 86t-92 217q0 126 49.5 249.5t130.5 215t189 148.5t219 57q141 0 231 -87t90 -222zM532 225q50 109 88.5 274t38.5 269q0 55 -26 87t-70 32q-101 0 -184 -154q-53 -97 -97 -276.5t-44 -296.5 q0 -60 27 -93.5t73 -33.5q108 0 194 192z" />
<glyph unicode="&#x3c0;" horiz-adv-x="1382" d="M1487 723q-134 -59 -264 -80l-125 -473q-20 -72 38.5 -109.5t155.5 -37.5l-16 -62q-225 0 -315 19q-169 37 -152 161q2 14 6 29l125 471q-51 7 -148 27t-106 22l-72 -266q-25 -94 -76 -181t-117.5 -153.5t-149.5 -106.5t-167 -40l50 180q130 0 248 87.5t151 213.5l74 274 q-72 11 -117 11q-167 0 -174 -19h-62q32 121 121 211t191 90q98 0 282 -40.5t285 -39.5q138 3 272 64z" />
<glyph unicode="&#x3c1;" horiz-adv-x="1220" d="M1255 465q-57 -211 -248.5 -357.5t-406.5 -146.5q-80 0 -156 29q-9 -81 -30 -160q-54 -194 -193 -354l-205 147q84 94 115 207q29 107 42.5 317.5t41.5 317.5q36 135 137 249t237.5 179t276.5 65t242 -65t142.5 -179t4.5 -249zM956 465q18 67 28 125t10 116t-13 99 t-46 66.5t-85 25.5q-64 0 -119 -37t-96 -102.5t-69.5 -136.5t-51.5 -156q-11 -39 -19 -79.5t-14 -86t-9.5 -75.5t-9 -85.5t-7.5 -77.5q68 -38 161 -38q222 0 340 442z" />
<glyph unicode="&#x3c2;" horiz-adv-x="929" d="M1081 897l-166 -123q-64 94 -90 114q-13 9 -22 9q-68 0 -126.5 -52t-95 -125t-59.5 -163q-18 -66 -25.5 -101t-13.5 -89t6 -91.5t41 -64.5q17 -16 73.5 -63.5t82.5 -77.5q80 -94 53 -197q-18 -66 -65.5 -113t-104.5 -47q-150 0 -278 64l41 57q115 -59 254 -59q32 0 57 29 t35 69q21 77 -45 150q-26 31 -82 78.5t-70 60.5q-24 23 -37.5 35.5t-37.5 36t-38 38.5t-34.5 38.5t-32.5 41t-26.5 40t-22 42t-13 41t-5 42t5.5 40.5q31 115 121.5 207.5t211.5 143t246 50.5q51 0 79.5 -1t71 -6.5t69.5 -18.5t42 -35z" />
<glyph unicode="&#x3c3;" horiz-adv-x="1290" d="M1458 967q-218 -58 -497 -72q64 -40 99.5 -107t35.5 -151q0 -127 -49 -249.5t-128.5 -213t-187 -146t-219.5 -55.5q-141 0 -233.5 86t-92.5 217q0 126 49.5 249.5t130.5 215t189 148.5t219 57q22 0 62 -4q232 9 620 115zM725 225q50 109 88.5 274t38.5 269q0 55 -26 87 t-70 32q-102 0 -185 -154q-53 -97 -97 -276.5t-44 -296.5q0 -60 27 -93.5t73 -33.5q109 0 195 192z" />
<glyph unicode="&#x3c4;" horiz-adv-x="1181" d="M1290 741q-187 -131 -397 -141l-98 -371q-11 -40 -15 -74.5t0 -65.5t21.5 -48.5t48.5 -17.5q65 0 117.5 61t76.5 145h62q-29 -108 -105.5 -188t-166.5 -80q-160 0 -257.5 71.5t-64.5 196.5l115 430q-2 1 -14.5 9.5t-16 10.5t-15 9t-17.5 9t-16 6t-19 5t-19 1 q-167 0 -174 -19h-62q32 121 121 211t191 90q46 0 252 -88q72 -31 159.5 -17t169.5 70z" />
<glyph unicode="&#x3c5;" horiz-adv-x="1163" d="M1210 512q-39 -144 -117.5 -267.5t-192.5 -203.5t-236 -80q-111 0 -196.5 42t-125 122.5t-12.5 181.5q18 65 75 192t74 191q8 27 13 47t10.5 46.5t7.5 44.5t1.5 35t-7 25.5t-17.5 8.5q-30 0 -54.5 -17.5t-42.5 -50.5t-30 -64.5t-24 -74.5h-62q30 111 90 189.5t140 78.5 q133 0 211 -75.5t47 -192.5q-18 -65 -67 -192.5t-66 -190.5q-9 -33 -14.5 -58.5t-10.5 -56.5t-6 -54t2.5 -45.5t12.5 -37t26 -23.5t41 -9q106 0 204 72t164.5 181t100.5 236q5 29 7.5 53t-7 47t-19.5 41t-30 36.5t-38 32t-43.5 28t-47.5 25t-49 22.5l174 262 q65 -29 102 -86.5t45.5 -133t-0.5 -156t-33 -171.5z" />
<glyph unicode="&#x3c6;" horiz-adv-x="1425" d="M1458 461q-48 -179 -208.5 -307.5t-366.5 -171.5q-9 -46 -35 -152q-29 -108 -97.5 -207t-164.5 -174l-144 201q95 76 123 180l33 139q-102 14 -184.5 55t-136.5 104.5t-72.5 147.5t8.5 185q17 62 56 122t82.5 105.5t113 98t119.5 85t129 80.5l24 -49q-31 -19 -57 -46.5 t-48.5 -69t-37 -71.5t-33 -88t-25.5 -81.5t-24 -85.5q-38 -134 -11.5 -252t113.5 -162q5 29 20.5 111.5t23.5 124.5t22.5 108t28.5 121q49 182 191.5 314t305.5 132q87 0 150 -41.5t91.5 -111t34 -159t-23.5 -185.5zM1159 461q26 95 39.5 151.5t26.5 133t4 114t-39 37.5 q-23 0 -44.5 -15.5t-40.5 -48t-33.5 -64t-31 -83.5t-25.5 -85t-24 -89q-14 -50 -27 -110t-21 -102t-21 -113.5l-19 -104.5q89 57 157 159t99 220z" />
<glyph unicode="&#x3c7;" horiz-adv-x="1114" d="M1063 -188q-22 -80 -52 -143.5t-80.5 -110.5t-109.5 -47q-35 0 -61.5 15t-42.5 37t-27.5 57.5t-17 65t-10.5 72.5l-25 246q-194 -266 -250 -477h-283q16 60 40 120.5t59.5 122.5t65.5 111t79.5 117t80 107.5t89 114t84.5 108.5l-27 254q-16 174 -120 174q-43 0 -82 -36.5 t-51 -84.5h-62q22 80 52 143.5t80.5 110.5t109.5 47q19 0 34.5 -7.5t28 -25.5t21.5 -33.5t17 -47t12.5 -50t10 -58t7.5 -55.5t6 -57l20 -199q216 292 277 517h283q-23 -87 -62 -172.5t-102.5 -181t-106.5 -155t-132.5 -173t-121.5 -156.5l31 -301q6 -46 46 -68t99 -22 q43 0 81 36t50 85h62z" />
<glyph unicode="&#x3c8;" horiz-adv-x="1316" d="M1364 512q-29 -108 -90 -208t-141 -176t-179 -121.5t-198 -45.5h-37l-127 -473h-62l129 479q-83 10 -150 35.5t-115.5 68t-65 101.5t1.5 135q18 65 75 192t74 191q8 27 13 47t10.5 46.5t7.5 44.5t1.5 35t-7 25.5t-17.5 8.5q-30 0 -54.5 -17.5t-42.5 -50.5t-30 -64.5 t-24 -74.5h-62q30 111 90 189.5t140 78.5q133 0 211 -75.5t47 -192.5q-18 -65 -67 -192.5t-66 -190.5q-22 -79 -8 -150t61 -106l109 410q124 461 133 909h282q-231 -451 -354 -909l-115 -434q20 -4 35 -4q88 0 174.5 40.5t156 108t122.5 156t78 184.5q5 29 7.5 53t-7.5 47 t-20 41t-29.5 36.5t-38 32t-44 28t-47.5 25t-49 22.5l174 262q65 -29 102.5 -86.5t45.5 -133t-0.5 -156.5t-32.5 -171z" />
<glyph unicode="&#x3c9;" horiz-adv-x="1341" d="M1374 457q-35 -130 -117 -243t-197.5 -183t-234.5 -70q-116 0 -149 94q-81 -94 -180 -94q-72 0 -130.5 26.5t-96 73.5t-58 109t-20 136t21.5 151q73 281 541 489l14 -53q-48 -22 -88.5 -59.5t-67 -76.5t-50 -96t-37 -99.5t-29.5 -104.5q-59 -219 -63 -305 q-5 -129 79 -129q89 0 150 94q-7 61 6 153t29.5 160t47.5 182h181q-34 -125 -53.5 -202t-41 -180t-19 -155t29.5 -52q22 0 42 9t36.5 22.5t33.5 38t29.5 46t26.5 57.5t23 60.5t21.5 67t19 66t18.5 67.5q21 80 31 132t13.5 118t-17.5 112.5t-66 73.5l43 53q351 -209 278 -489 z" />
<glyph unicode="&#x3d1;" horiz-adv-x="1296" d="M1454 920q-82 -12 -162 -21q-9 -105 -39 -209q-30 -111 -71.5 -213.5t-100 -197.5t-126 -165t-152 -111.5t-174.5 -41.5q-112 0 -198.5 42t-126.5 122.5t-13 181.5q17 65 93.5 190.5t94.5 192.5q11 40 19 70.5t14.5 65t4.5 53t-13 18.5q-60 0 -102 -59.5t-66 -147.5h-62 q31 110 96.5 189t149.5 79q128 0 200.5 -76t41.5 -192q-18 -66 -86 -192t-86 -191q-15 -59 -22 -102.5t-6.5 -88.5t21.5 -69t62 -24q102 0 210 324q35 105 99 343l56 209q-29 12 -53 36.5t-43.5 62.5t-30.5 65t-27 74q-20 67 -11 127t46 102.5t86 42.5q168 0 246.5 -124 t72.5 -324q55 4 164 20zM1024 971q18 82 25.5 145.5t4.5 118t-26.5 84t-66.5 29.5q-47 0 -58 -58t15 -121q53 -158 106 -198z" />
<glyph unicode="&#x3d5;" horiz-adv-x="1038" d="M1096 637q0 -164 -76.5 -314t-204.5 -244.5t-272 -103.5l-131 -487h-62l131 487q-129 9 -212 93.5t-83 207.5q0 160 75 308.5t199.5 245.5t264.5 114q45 233 72 426h180q-91 -226 -158 -426q123 -14 200 -98.5t77 -208.5zM498 37l114 424q55 205 99 418 q-75 -24 -140 -146q-53 -97 -97 -276.5t-44 -296.5q0 -48 18.5 -80t49.5 -43zM725 225q50 109 88.5 274t38.5 269q0 86 -55 111q-66 -204 -123 -418l-115 -424q91 21 166 188z" />
<glyph unicode="&#x3d6;" horiz-adv-x="1341" d="M1374 457q-35 -130 -117 -243t-197.5 -183t-234.5 -70q-116 0 -149 94q-81 -94 -180 -94q-72 0 -130.5 26.5t-96 73.5t-58 109t-20 136t21.5 151q73 281 541 489l14 -53q-48 -22 -88.5 -59.5t-67 -76.5t-50 -96t-37 -99.5t-29.5 -104.5q-59 -219 -63 -305 q-5 -129 79 -129q89 0 150 94q-7 61 6 153t29.5 160t47.5 182h181q-34 -125 -53.5 -202t-41 -180t-19 -155t29.5 -52q22 0 42 9t36.5 22.5t33.5 38t29.5 46t26.5 57.5t23 60.5t21.5 67t19 66t18.5 67.5q72 270 84 385q26 245 -113 269q-16 3 -35 3q-222 0 -455 -59v57 q238 64 471 64q97 0 171 -39.5t117 -108.5t63.5 -160t14.5 -196t-36 -215z" />
<glyph unicode="&#x3f5;" horiz-adv-x="993" d="M928 88q-108 -127 -355 -127q-82 0 -151 27.5t-115.5 75.5t-75 114.5t-30 144.5t19.5 164q38 140 155.5 249.5t271 165.5t313.5 56h120l-16 -61h-121q-136 0 -254 -115.5t-166 -275.5q31 7 76 22t81 27.5t75 22t75 8t64 -16.5l-121 -163q-26 14 -62.5 21t-61.5 7.5 t-75.5 -1t-68.5 -1.5q-13 -49 -21.5 -87t-15 -82.5t-7 -77.5t5.5 -64.5t20.5 -52t40 -33t61.5 -12.5q35 0 75.5 26.5t65.5 53.5t64 75z" />
<glyph unicode="&#x400;" horiz-adv-x="1366" d="M1204 397l-119 -397h-1134v51q79 12 109 39t53 109l247 919q21 79 21 123q-1 32 -21 47t-67 21l-64 10v51h1106l-86 -389l-55 10q0 95 -13 143t-48 85q-86 86 -318 86q-63 0 -88 -18.5t-39 -72.5l-123 -456q142 -1 211 14t113.5 58.5t93.5 144.5l57 -8l-147 -559l-57 10 q8 52 8 90q-1 55 -14 88t-48 55t-90 30.5t-145 10.5l-113 -428l-4 -12q-3 -20 -10 -39q-14 -72 -14 -78q0 -37 29 -53t95 -16q261 0 428 118q59 40 99.5 87t95.5 137zM1130 1473h-92l-274 182q-70 48 -70 96q0 37 27.5 64.5t64.5 27.5q62 0 115 -69z" />
<glyph unicode="&#x401;" horiz-adv-x="1366" d="M1204 397l-119 -397h-1134v51q79 12 109 39t53 109l247 919q21 79 21 123q-1 32 -21 47t-67 21l-64 10v51h1106l-86 -389l-55 10q0 95 -13 143t-48 85q-86 86 -318 86q-63 0 -88 -18.5t-39 -72.5l-123 -456q142 -1 211 14t113.5 58.5t93.5 144.5l57 -8l-147 -559l-57 10 q8 52 8 90q-1 55 -14 88t-48 55t-90 30.5t-145 10.5l-113 -428l-4 -12q-3 -20 -10 -39q-14 -72 -14 -78q0 -37 29 -53t95 -16q261 0 428 118q59 40 99.5 87t95.5 137zM748 1630q0 -52 -41 -91.5t-95 -39.5q-52 0 -91.5 39.5t-39.5 91.5q-1 55 37 95t92 40q55 0 95.5 -39.5 t42.5 -95.5zM1182 1630q0 -52 -40.5 -91.5t-94.5 -39.5q-53 0 -92.5 39.5t-39.5 91.5q-1 55 37 95t92 40q55 0 95.5 -39.5t42.5 -95.5z" />
<glyph unicode="&#x402;" horiz-adv-x="1490" d="M1536 563l-127 -475q-29 -104 -96.5 -183t-156.5 -122.5t-182.5 -64.5t-189.5 -21q-61 0 -98 21t-37 59q-2 47 32 82t85 35q27 0 42.5 -11.5t20.5 -25.5t17.5 -25.5t34.5 -11.5q59 0 105.5 57t88.5 207l131 483q28 104 -23.5 160.5t-154.5 56.5q-51 0 -121.5 -28 t-120.5 -62.5t-55 -54.5l-100 -377q-21 -80 -21 -127q0 -49 31 -64t139 -20v-51h-678v51h29q78 0 121 35t63 113l297 1099q-157 -3 -260 -71t-182 -221l-51 14l76 350h1128l-72 -393l-55 4q-7 170 -73.5 242.5t-211.5 74.5l-147 -542q50 50 148 94.5t184 44.5q50 0 98 -4.5 t99 -15t92 -27.5t78 -42.5t56.5 -60.5t27 -80t-10.5 -102z" />
<glyph unicode="&#x403;" horiz-adv-x="1366" d="M1051 1823q0 -29 -17 -50t-63 -47l-309 -178h-101l248 269q54 58 84.5 80t58.5 22q40 0 69.5 -29t29.5 -67zM1257 981l-55 10q0 87 -11.5 134.5t-41.5 82.5q-85 97 -311 97q-62 0 -88 -18.5t-39 -72.5l-250 -933q-1 -2 -2 -6.5t-2.5 -11.5t-3.5 -13q-21 -67 -21 -109 q0 -47 30 -65.5t116 -24.5v-51h-605v51q79 12 109 39t53 109l248 919q20 75 20 123q-2 33 -21.5 48.5t-66.5 19.5l-63 10v51h1091z" />
<glyph unicode="&#x404;" horiz-adv-x="1478" d="M1288 260q-89 -76 -141 -115t-111 -73q-194 -111 -409 -111q-157 0 -278 53.5t-190 149t-89 228t24 290.5q56 206 193.5 374t326.5 263.5t390 95.5q139 0 299 -72q55 -28 86 -28q30 0 54.5 20t59.5 74h56l-129 -479h-52q-22 116 -47.5 179.5t-75.5 123.5 q-103 115 -243 115q-175 0 -311 -149t-222 -435h514l-26 -96h-516q-69 -276 -25 -430q25 -80 100.5 -129.5t175.5 -49.5q97 0 195 37q83 29 154.5 74t189.5 141z" />
</font>
</defs>
</svg>
