<?xml version="1.0" standalone="no"?>
<!DOCTYPE svg PUBLIC "-//W3C//DTD SVG 1.1//EN" "http://www.w3.org/Graphics/SVG/1.1/DTD/svg11.dtd" >
<svg xmlns="http://www.w3.org/2000/svg" xmlns:xlink="http://www.w3.org/1999/xlink" version="1.1">
<metadata></metadata>
<defs>
<font id="tex_gyre_termesbold" horiz-adv-x="1024" >
<font-face units-per-em="2048" ascent="1628" descent="-420" />
<missing-glyph horiz-adv-x="512" />
<glyph unicode="IJ" horiz-adv-x="1968" d="M807 0h-717v51q115 10 153 39.5t38 106.5v991q0 78 -40 107.5t-151 37.5v51h717v-51q-114 -4 -154.5 -34.5t-40.5 -110.5v-991q0 -80 39 -109.5t156 -36.5v-51zM1878 1333q-115 -7 -148.5 -42t-33.5 -146v-893q0 -220 -112 -334.5t-327 -114.5q-131 0 -217 47 q-60 35 -98.5 98t-38.5 126q0 58 43.5 102.5t100.5 44.5q60 0 104.5 -45.5t44.5 -107.5q0 -40 -31 -78q-24 -33 -24 -53q0 -29 25.5 -47.5t66.5 -18.5q69 0 100 41.5t31 136.5v1139q0 83 -41 111.5t-166 33.5v51h721v-51z" />
<glyph unicode="ij" horiz-adv-x="1249" d="M580 0h-490v49q71 17 90 38.5t19 84.5v602q0 63 -20.5 85t-88.5 36v49h393v-778q0 -58 21.5 -83.5t75.5 -33.5v-49zM496 1249q0 -67 -46 -112t-112 -45t-112 45t-46 112t46 112.5t112 45.5t112 -45.5t46 -112.5zM1159 4q0 -171 -55 -264q-43 -75 -122 -115.5t-185 -40.5 q-126 0 -206.5 57t-80.5 148q0 56 35 90.5t92 34.5q51 0 86 -32.5t35 -78.5q0 -30 -29 -75q-18 -30 -18 -45t18 -25t47 -10q52 0 75 36.5t23 118.5v971q0 66 -25.5 90.5t-103.5 30.5v49h414v-940zM1171 1249q0 -67 -45.5 -112t-111.5 -45t-112 45t-46 112t46 112.5t112 45.5 t111.5 -45.5t45.5 -112.5z" />
<glyph unicode="fk" horiz-adv-x="1708" d="M713 944v201q-19 6 -31 26.5t-12 45.5q0 22 16 53q10 23 10 37q0 19 -23 30t-61 11q-104 0 -143 -59.5t-39 -217.5v-127h283zM1681 0h-479v49q86 3 86 39q0 24 -49 92l-195 275l-47 -49v-240q0 -109 76 -115l25 -2v-49h-482v49l17 2q42 4 61 31.5t19 83.5v688h-283v-688 q0 -60 20.5 -85t75.5 -32v-49h-497v49q72 9 94 33t22 90v682h-116v90h116q4 140 27 219t74 135q108 117 307 117q151 0 309 -63l96 61h39v-911l263 262q17 17 30 40.5t13 37.5q0 39 -72 47l-49 8v47h438v-47q-97 -12 -165 -59.5t-222 -208.5l397 -549q13 -19 23.5 -25 t27.5 -6v-49z" />
<glyph unicode="ff" horiz-adv-x="1249" d="M721 1118q-40 37 -43 86q0 28 14 56q10 25 10 55q0 6 -10 14.5t-32.5 16.5t-49.5 8q-46 0 -75.5 -10.5t-51 -35t-32.5 -73.5t-16 -117t-5 -174h283q0 114 8 174zM1364 1210q0 -57 -35 -92t-92 -35q-52 0 -87.5 33t-35.5 80q0 28 27 74q18 26 18 43q0 39 -59 39 q-55 0 -79 -36.5t-24 -121.5v-250h179v-90h-179v-643q0 -100 30.5 -129.5t137.5 -32.5v-49h-569v49q70 7 93.5 32t23.5 91v682h-283v-688q0 -60 20.5 -85t75.5 -32v-49h-497v49q72 9 94 33t22 90v682h-116v90h116q3 138 29 218.5t88 142.5q113 110 340 110q161 0 256 -53 q86 53 213 53q130 0 211.5 -57t81.5 -148z" />
<glyph unicode="fi" horiz-adv-x="1138" d="M1098 0h-482v49q57 6 77 30.5t20 86.5v618q0 40 -15 55t-55 15h-213v-688q0 -60 20.5 -85t75.5 -32v-49h-497v49q72 9 94 33t22 90v682h-116v90h116q3 138 29 218.5t88 142.5q113 110 340 110q169 0 267 -50t98 -138q0 -55 -37 -89t-96 -34q-58 0 -95 30.5t-37 77.5 q0 29 15 72l4 14q0 23 -32.5 39.5t-78.5 16.5t-75.5 -10.5t-51 -35t-32.5 -73.5t-16 -117t-5 -174h217q92 0 350 25v-803q0 -61 22.5 -87.5t78.5 -29.5v-49z" />
<glyph unicode="fl" horiz-adv-x="1138" d="M1098 0h-482v49l17 2q42 4 61 31.5t19 83.5v688h-283v-688q0 -60 20.5 -85t75.5 -32v-49h-497v49q72 9 94 33t22 90v682h-116v90h116q4 140 27 219t74 135q108 117 307 117q151 0 309 -63l96 61h39v-1247q0 -109 76 -115l25 -2v-49zM713 944v201q-19 6 -31 26.5t-12 45.5 q0 22 16 53q10 23 10 37q0 19 -23 30t-61 11q-104 0 -143 -59.5t-39 -217.5v-127h283z" />
<glyph unicode="ffi" horiz-adv-x="1705" d="M1665 0h-481v49q57 6 76.5 30.5t19.5 86.5v618q0 40 -15 55t-55 15h-213v-688q0 -60 20.5 -84.5t76.5 -32.5v-49h-498v49q72 9 94.5 33t22.5 90v682h-283v-688q0 -60 20.5 -85t75.5 -32v-49h-497v49q72 9 94 33t22 90v682h-116v90h116q3 138 29 218.5t88 142.5 q113 110 340 110q161 0 256 -53q11 -6 25 -16q106 69 286 69q169 0 267 -50t98 -138q0 -55 -37 -89t-96 -34q-58 0 -94.5 30.5t-36.5 77.5q0 32 14 72l4 14q0 23 -32 39.5t-78 16.5t-75.5 -10.5t-51.5 -35.5t-33 -73.5t-16 -116.5t-5 -174h217q93 0 351 25v-803 q0 -62 22.5 -88t77.5 -29v-49zM729 1112q-48 39 -51 92q0 28 14 56q10 25 10 55q0 6 -10 14.5t-32.5 16.5t-49.5 8q-46 0 -75.5 -10.5t-51 -35t-32.5 -73.5t-16 -117t-5 -174h283q3 108 16 168z" />
<glyph unicode="ffl" horiz-adv-x="1705" d="M1665 0h-481v49l16 2q42 4 61 31.5t19 83.5v688h-283v-688q0 -60 20.5 -84.5t76.5 -32.5v-49h-498v49q72 9 94.5 33t22.5 90v682h-283v-688q0 -60 20.5 -85t75.5 -32v-49h-497v49q72 9 94 33t22 90v682h-116v90h116q3 138 29 218.5t88 142.5q113 110 340 110 q161 0 256 -53l16 -10q101 63 246 63q152 0 310 -63l96 61h39v-1247q0 -109 75 -115l25 -2v-49zM1280 944v201q-19 6 -31 26.5t-12 45.5q0 22 16 53q11 26 11 37q0 19 -23 30t-61 11q-104 0 -143.5 -59.5t-39.5 -217.5v-127h283zM729 1114q-47 26 -51 90q0 28 14 56 q10 25 10 55q0 6 -10 14.5t-32.5 16.5t-49.5 8q-46 0 -75.5 -10.5t-51 -35t-32.5 -73.5t-16 -117t-5 -174h283q3 110 16 170z" />
<glyph unicode=" "  horiz-adv-x="512" />
<glyph unicode="&#x09;" horiz-adv-x="512" />
<glyph unicode="&#xa0;" horiz-adv-x="512" />
<glyph unicode="!" horiz-adv-x="681" d="M514 143q0 -71 -51.5 -120.5t-124.5 -49.5q-72 0 -121 50t-49 124q0 69 51 120.5t121 51.5q72 0 123 -52t51 -124zM512 1206q0 -63 -37 -178q-45 -145 -65 -251t-41 -298h-60q-20 188 -41 295t-65 254q-37 117 -37 182q0 97 45.5 151t128.5 54q82 0 127 -54.5t45 -154.5z " />
<glyph unicode="&#x22;" horiz-adv-x="1136" d="M434 1278q0 -64 -90 -451h-84l-22 99q-68 269 -68 344q0 66 36 105.5t95 39.5q57 0 95 -39t38 -98zM967 1278q0 -62 -90 -451h-84l-23 99q-68 272 -68 344q0 66 36.5 105.5t95.5 39.5q57 0 95 -39t38 -98z" />
<glyph unicode="#" d="M1016 854h-201l-37 -274h178v-150h-200l-60 -430h-159l59 430h-231l-60 -430h-160l60 430h-197v150h219l37 274h-196v150h217l61 430h158l-60 -430h232l61 430h158l-59 -430h180v-150zM655 854h-231l-37 -274h231z" />
<glyph unicode="$" d="M967 401q0 -172 -103 -272q-50 -48 -119.5 -77t-193.5 -52v-203h-113v203q-96 5 -157.5 20.5t-186.5 67.5v320l43 -5q49 -166 117 -243t182 -99v514q-205 103 -291 203.5t-86 237.5q0 96 46 174.5t131 128.5q47 26 89 37.5t113 19.5v160h113v-156q121 -20 188 -42 t138 -64v-289h-43q-44 153 -109 228t-174 100v-441q150 -77 214 -120.5t118 -104.5q84 -94 84 -246zM741 274q0 84 -34 126.5t-156 111.5v-451q97 19 143.5 71t46.5 142zM436 930v389q-97 -25 -139.5 -68t-42.5 -116q0 -141 182 -205z" />
<glyph unicode="%" horiz-adv-x="2048" d="M1796 526q0 -120 -48.5 -240t-131.5 -206q-47 -51 -113.5 -80t-134.5 -29q-123 0 -197.5 78t-74.5 207q0 123 67 241t175 191.5t221 73.5q107 0 172 -64.5t65 -171.5zM1729 510q0 63 -30.5 105t-76.5 42q-76 0 -149 -106q-51 -75 -94.5 -191.5t-43.5 -179.5 q0 -114 101 -114q116 0 209 172q84 150 84 272zM1491 1417l-807 -1433h-113l713 1269q-128 -55 -235 -55q-43 0 -97 10q-1 -136 -28.5 -232.5t-92.5 -191.5q-125 -182 -313 -182q-117 0 -190.5 78t-73.5 201q0 96 39 189.5t102.5 163t149 112.5t172.5 43q74 0 153 -56 q47 -33 87 -45t104 -12q94 0 190.5 36t130.5 83q16 22 31 22h78zM885 1165q0 65 -60 90q-9 3 -32 21q-19 12 -33 16q-24 3 -59 -25.5t-68 -76.5q-54 -79 -97.5 -193.5t-48.5 -185.5q-3 -50 25 -82.5t74 -32.5q94 0 180 125q55 81 87 174t32 170z" />
<glyph unicode="&#x26;" horiz-adv-x="1705" d="M1612 227l-33 -53q-63 -104 -111 -143q-37 -28 -90 -46t-100 -18q-81 0 -146.5 39t-158.5 141q-126 -94 -233.5 -136t-221.5 -42q-172 0 -281.5 101.5t-109.5 259.5q0 145 91.5 251.5t309.5 213.5q-62 106 -84 168t-22 129q0 149 107.5 236t291.5 87q155 0 248.5 -68 t93.5 -182q0 -97 -74 -168t-237 -131l309 -438q90 111 123 173.5t33 123.5q0 45 -22.5 59.5t-112.5 24.5v49h422v-49q-65 -6 -93.5 -21.5t-56.5 -60.5l-55 -90q-61 -97 -191 -277q86 -110 136 -148t108 -38q69 0 119 78zM926 205q-63 82 -264 381l-99 147 q-84 -49 -117.5 -92t-33.5 -100q0 -79 40.5 -170t106.5 -160q38 -40 87 -63t95 -23q73 0 185 80zM956 1092q0 103 -56.5 179.5t-131.5 76.5q-50 0 -78 -30.5t-28 -84.5q0 -64 35 -135.5t116 -171.5q77 26 110 64.5t33 101.5z" />
<glyph unicode="'" horiz-adv-x="569" d="M418 1278q0 -61 -90 -451h-84l-23 99q-67 265 -67 344q0 66 36 105.5t95 39.5q57 0 95 -39t38 -98z" />
<glyph unicode="(" horiz-adv-x="681" d="M627 -344q-150 90 -231 164.5t-152 185.5q-150 239 -150 524q0 198 69 377t199 320q60 63 114.5 103t150.5 91v-55q-91 -61 -136.5 -109t-78.5 -116q-86 -186 -86 -613q0 -409 90 -596q32 -69 77.5 -116.5t133.5 -102.5v-57z" />
<glyph unicode=")" horiz-adv-x="681" d="M588 545q0 -197 -69.5 -375.5t-201.5 -319.5q-58 -63 -112.5 -103t-149.5 -91v55q92 61 138 109.5t77 116.5q86 186 86 612q0 409 -90 596q-32 68 -77 114.5t-134 104.5v57q150 -90 231 -164.5t152 -185.5q150 -239 150 -526z" />
<glyph unicode="*" d="M915 803q0 -43 -29 -73t-71 -30q-41 0 -72 26t-81 101q-31 43 -52 61.5t-65 41.5l-15 -10q8 -69 18.5 -106.5t41.5 -98.5q28 -52 28 -86q0 -45 -30 -76t-74 -31t-71 32t-27 85q0 42 30 96q31 52 38.5 83t9.5 102l-15 10q-58 -42 -82.5 -68t-66.5 -86q-31 -47 -54.5 -64.5 t-56.5 -17.5q-43 0 -72.5 30t-29.5 73q0 114 174 114q64 3 93 12.5t79 43.5v14q-61 28 -99.5 37.5t-109.5 15.5q-80 6 -109.5 29t-29.5 78q0 44 27 72t71 28q41 0 69 -20t60 -72q38 -62 60.5 -83.5t80.5 -53.5l15 6q-1 64 -10 95.5t-42 90.5q-22 40 -29 61.5t-7 47.5 q0 43 30.5 72.5t75.5 29.5q43 0 70.5 -31t27.5 -81q0 -43 -32 -99q-45 -73 -45 -147v-39l16 -6q55 43 79 69t66 86q30 47 53.5 63.5t57.5 16.5q41 0 73.5 -31t32.5 -71q0 -28 -21.5 -58t-51.5 -43q-35 -14 -92 -14q-66 -3 -98 -13t-83 -42v-17q55 -26 91.5 -35.5 t105.5 -15.5q83 -6 116 -29.5t33 -74.5z" />
<glyph unicode="+" horiz-adv-x="1167" d="M1077 422h-403v-404h-180v404h-404v180h404v404h180v-404h403v-180z" />
<glyph unicode="," horiz-adv-x="512" d="M457 80q0 -132 -81 -239t-259 -210l-23 45q223 153 223 271q0 20 -10.5 32.5t-27.5 12.5q-9 0 -15 -2q-12 -2 -35 -2q-66 0 -107.5 44.5t-41.5 114.5q0 77 47 123.5t123 46.5q92 0 149.5 -65.5t57.5 -171.5z" />
<glyph unicode="-" horiz-adv-x="681" d="M588 350h-498v238h498v-238z" />
<glyph unicode="." horiz-adv-x="512" d="M430 143q0 -71 -51.5 -120.5t-124.5 -49.5q-72 0 -121 50t-49 124q0 69 51 120.5t121 51.5q72 0 123 -52t51 -124z" />
<glyph unicode="/" horiz-adv-x="569" d="M618 1415l-483 -1454h-184l483 1454h184z" />
<glyph unicode="0" d="M975 690q0 -203 -60 -367.5t-165.5 -257t-235.5 -92.5q-134 0 -240.5 92t-165.5 257.5t-59 373.5q0 127 30.5 258.5t80.5 216.5q63 110 157.5 174t194.5 64q130 0 236 -93.5t166.5 -258.5t60.5 -367zM651 455v469q0 226 -33 327t-108 101q-74 0 -105.5 -98.5 t-31.5 -329.5v-469q0 -228 32.5 -326t108.5 -98q68 0 102 88q14 42 24.5 144t10.5 192z" />
<glyph unicode="1" d="M905 0h-768v49q64 1 104 6.5t69.5 18t43.5 37t20.5 57.5t6.5 86v788q0 142 -74 142q-37 0 -133 -35q-7 -5 -41 -16v53l516 223h35v-1167q0 -119 41 -154.5t180 -38.5v-49z" />
<glyph unicode="2" d="M979 432l-92 -432h-852v47q224 239 310.5 342t164.5 223q104 158 104 303q0 77 -41 148q-69 113 -202 113q-83 0 -142.5 -44.5t-107.5 -140.5h-58q42 114 80 178t99 125q112 115 272 115q166 0 272.5 -105.5t106.5 -269.5q0 -117 -56 -223.5t-178 -222.5l-331 -316h309 q69 0 106 3t69 10.5t50.5 27.5t33.5 45.5t34 73.5h49z" />
<glyph unicode="3" d="M958 504q0 -147 -81 -269.5t-222 -193t-309 -70.5q-141 0 -227 51t-86 134q0 52 37 85t96 33q91 0 203 -112q51 -50 84.5 -69t70.5 -19q92 0 146.5 65.5t54.5 175.5q0 74 -26.5 140t-73.5 110q-55 52 -119.5 85.5t-192.5 78.5v35q146 46 206.5 106.5t60.5 161.5 q0 97 -56 154t-153 57q-79 0 -136 -39t-116 -133l-43 25q168 313 469 313q157 0 245.5 -74.5t88.5 -206.5q0 -91 -36 -145.5t-134 -114.5q61 -28 94 -50.5t65 -59.5q90 -110 90 -254z" />
<glyph unicode="4" d="M973 295h-129v-295h-297v295h-508v231q165 262 520 725l121 158h164v-887h129v-227zM551 522v608l-428 -608h428z" />
<glyph unicode="5" d="M963 1384l-89 -260h-569l-45 -166q130 -8 191 -15.5t118 -24.5q167 -47 261 -164t94 -277q0 -143 -73.5 -255.5t-205.5 -175t-299 -62.5q-137 0 -219 49t-82 131q0 54 35.5 88.5t91.5 34.5q80 0 203 -92q116 -86 184 -86q86 0 145.5 59t59.5 145q0 102 -77.5 184.5 t-213.5 125.5q-67 22 -144 33t-225 22l199 706h660z" />
<glyph unicode="6" d="M973 455q0 -209 -125 -345.5t-316 -136.5q-215 0 -345 160t-130 426q0 204 89.5 373t261.5 287q118 80 235.5 120.5t319.5 69.5v-53q-224 -46 -356 -174.5t-189 -354.5q79 35 172 35q175 0 279 -110.5t104 -296.5zM662 332q0 244 -41 341t-144 97q-47 0 -74 -20 q-11 -8 -18.5 -83.5t-7.5 -170.5q0 -301 55 -408q30 -59 105 -59t100 60.5t25 242.5z" />
<glyph unicode="7" d="M977 1384l-481 -1384h-195l410 1104h-424q-85 0 -128.5 -38t-72.5 -136h-51l90 454h852z" />
<glyph unicode="8" d="M967 383q0 -185 -130.5 -297.5t-344.5 -112.5q-195 0 -315 96t-120 253q0 138 90 225q40 39 85.5 63.5t132.5 53.5q-152 91 -218.5 181t-66.5 206q0 161 126 259.5t333 98.5q183 0 291 -80.5t108 -216.5q0 -98 -65.5 -165.5t-213.5 -119.5q165 -104 236.5 -207.5 t71.5 -236.5zM694 1098q0 120 -47 186t-133 66q-72 0 -121 -49t-49 -121q0 -86 68.5 -168t197.5 -148q51 67 67.5 114t16.5 120zM682 260q0 114 -52 184t-220 183q-62 -91 -83.5 -152t-21.5 -145q0 -137 52.5 -214t146.5 -77q83 0 130.5 59t47.5 162z" />
<glyph unicode="9" d="M969 823q0 -195 -81.5 -356.5t-238.5 -280.5q-120 -91 -245.5 -136.5t-340.5 -76.5v54q221 44 352 171t197 361q-74 -39 -186 -39q-167 0 -270 112t-103 294q0 211 124.5 347t316.5 136q215 0 345 -160t130 -426zM649 938q0 110 -14 207t-37 139q-34 70 -109 70 t-99.5 -60t-24.5 -239q0 -242 39.5 -342.5t134.5 -100.5q57 0 84 19q7 5 10 41l6 53q10 153 10 213z" />
<glyph unicode=":" horiz-adv-x="681" d="M514 143q0 -71 -51.5 -120.5t-124.5 -49.5q-72 0 -121 50t-49 124q0 69 51 120.5t121 51.5q72 0 123 -52t51 -124zM514 793q0 -71 -51 -121.5t-123 -50.5q-73 0 -122.5 50.5t-49.5 125.5q0 69 51 119.5t121 50.5q72 0 123 -51t51 -123z" />
<glyph unicode=";" horiz-adv-x="681" d="M545 80q0 -132 -81 -239t-259 -210l-23 45q224 154 224 273q0 17 -11 30t-26 13h-15l-24 -4h-17q-19 0 -48 11t-44 24q-53 44 -53 124q0 77 47 123.5t123 46.5q92 0 149.5 -65.5t57.5 -171.5zM514 793q0 -71 -51 -121.5t-123 -50.5q-73 0 -122.5 50.5t-49.5 125.5 q0 69 51 119.5t121 50.5q72 0 123 -51t51 -123z" />
<glyph unicode="&#x3c;" horiz-adv-x="1167" d="M987 -23l-850 455v160l850 455v-205l-616 -330l616 -330v-205z" />
<glyph unicode="=" horiz-adv-x="1167" d="M1077 596h-987v180h987v-180zM1077 250h-987v180h987v-180z" />
<glyph unicode="&#x3e;" horiz-adv-x="1167" d="M987 432l-850 -455v205l617 330l-617 330v205l850 -455v-160z" />
<glyph unicode="?" d="M911 1071q0 -106 -54 -180t-193 -160q-97 -60 -121.5 -103t-24.5 -155h-61q-4 61 -4 94q0 43 14 85.5t51 113.5q51 95 69.5 160t18.5 145q0 126 -45 196t-127 70q-56 0 -90.5 -22.5t-34.5 -59.5q0 -26 31 -59q26 -29 35.5 -51t9.5 -53q0 -59 -35.5 -95t-93.5 -36 q-60 0 -99.5 44t-39.5 111q0 129 108 212t277 83q185 0 297 -93t112 -247zM662 145q0 -72 -50.5 -122t-122.5 -50q-73 0 -123.5 50.5t-50.5 123.5q0 69 52 120.5t122 51.5t121.5 -51.5t51.5 -122.5z" />
<glyph unicode="@" horiz-adv-x="1904" d="M1683 799q0 -100 -31.5 -193.5t-83.5 -162t-123.5 -109.5t-148.5 -41q-76 0 -128.5 42t-63.5 111q-54 -70 -123 -110.5t-135 -40.5q-82 0 -137.5 67.5t-55.5 167.5q0 114 46 227.5t126 198.5q104 107 244 107q56 0 86.5 -21.5t63.5 -87.5l22 82h145l-135 -532 q-4 -20 -4 -37q0 -98 78 -98q66 0 127 59t98 156.5t37 203.5q0 145 -81 271.5t-217.5 201t-293.5 74.5q-168 0 -301.5 -85.5t-208.5 -238.5t-75 -345q0 -267 172 -439t440 -172q103 0 192.5 22t215.5 79l26 -72q-149 -71 -247 -97t-212 -26q-215 0 -393 94.5t-280.5 258.5 t-102.5 362q0 152 60.5 289t163.5 235.5t246 156.5t302 58q192 0 350 -81t249 -222.5t91 -312.5zM1182 831q3 60 -19.5 95.5t-66.5 38.5q-38 3 -86.5 -25.5t-91.5 -79.5q-107 -119 -107 -293q0 -82 32.5 -129t88.5 -47q46 0 90 36.5t78 102.5q33 64 56 148.5t26 152.5z" />
<glyph unicode="A" horiz-adv-x="1478" d="M1411 0h-663v51l65 6q54 3 76 18.5t22 49.5q0 60 -94 278h-461l-30 -81q-60 -151 -60 -187q0 -40 38.5 -59t129.5 -25v-51h-416v51q52 9 80 29t54 65t67 146l455 1122h57l457 -1077q36 -83 58 -128.5t42 -81.5t38.5 -49.5t37 -19.5t47.5 -6v-51zM786 483l-206 498 l-193 -498h399z" />
<glyph unicode="B" horiz-adv-x="1366" d="M1268 385q0 -173 -158.5 -279t-417.5 -106h-659v51q112 12 146 40t34 106v991q0 78 -37.5 108.5t-142.5 36.5v51h633q257 0 394.5 -84.5t137.5 -242.5q0 -117 -73.5 -186.5t-252.5 -122.5q107 -23 169 -50t116 -73q111 -97 111 -240zM915 367q0 169 -77.5 252t-235.5 83 h-61v-512q0 -67 28.5 -95.5t96.5 -28.5q249 0 249 301zM860 1042q0 145 -51 213t-158 68q-60 0 -85 -22.5t-25 -77.5v-459q98 2 157 15t96.5 46t51.5 83.5t14 133.5z" />
<glyph unicode="C" horiz-adv-x="1478" d="M1407 260q-155 -170 -280 -234.5t-302 -64.5q-210 0 -375.5 91t-257.5 255t-92 373q0 155 54.5 291.5t148.5 234t226.5 153.5t283.5 56q142 0 317 -72q66 -28 95 -28t48 19.5t42 74.5h55v-479h-51q-54 117 -97.5 181t-109.5 122q-130 115 -272 115q-186 0 -281.5 -165.5 t-95.5 -484.5q0 -297 88 -460q44 -80 133 -129.5t190 -49.5q98 0 185 37q75 29 136 74.5t151 140.5z" />
<glyph unicode="D" horiz-adv-x="1478" d="M1413 707q0 -318 -203 -512.5t-534 -194.5h-647v51q89 3 129.5 35t40.5 100v1010q0 70 -36 99t-134 38v51h624q355 0 557.5 -180.5t202.5 -496.5zM1057 676q0 264 -84 430q-104 209 -322 209q-121 0 -121 -72v-1053q0 -69 25 -93.5t94 -24.5q196 0 301 141 q50 69 78.5 193t28.5 270z" />
<glyph unicode="E" horiz-adv-x="1366" d="M1313 426l-82 -426h-1198v51q114 12 147 39t33 107v991q0 78 -37.5 108.5t-142.5 36.5v51h1181v-411h-51q-26 140 -76 211.5t-144 101t-265 29.5q-80 0 -106.5 -19t-26.5 -77v-476q165 -1 237 65t95 241h53v-693h-53q-19 178 -92 248t-240 70v-496q0 -66 35.5 -90.5 t134.5 -24.5q229 0 368 113q53 45 90 98t82 152h58z" />
<glyph unicode="F" horiz-adv-x="1251" d="M1194 973h-49q-22 97 -42 147t-54 88q-94 107 -373 107q-78 0 -104.5 -19.5t-26.5 -76.5v-476q153 0 219 65t94 241h51v-693h-51q-22 178 -89 246.5t-224 71.5v-477q0 -85 42 -112.5t183 -33.5v-51h-737v51q114 12 147 39t33 107v991q0 79 -37 109t-143 36v51h1161v-411z " />
<glyph unicode="G" horiz-adv-x="1593" d="M1546 537q-115 -12 -145.5 -45t-30.5 -144v-260q-98 -58 -252 -92.5t-313 -34.5t-295 53t-231 147t-149 227.5t-54 289.5q0 208 92.5 377t255.5 264.5t364 95.5q140 0 318 -72q63 -28 94 -28q29 0 48.5 20t41.5 74h56v-479h-52q-54 117 -97.5 181t-109.5 122 q-133 115 -272 115q-186 0 -281.5 -167t-95.5 -489q0 -366 133 -536q51 -66 118.5 -96.5t164.5 -30.5q103 0 150 35.5t47 113.5v215q0 84 -37.5 110.5t-169.5 33.5v51h702v-51z" />
<glyph unicode="H" horiz-adv-x="1593" d="M1554 0h-696v51q112 12 148 41t36 105v471h-493v-471q0 -76 36 -105t148 -41v-51h-690v51q107 13 140.5 42t33.5 104v991q0 77 -35.5 106.5t-138.5 38.5v51h690v-51q-107 -7 -145.5 -37.5t-38.5 -107.5v-424h493v424q0 77 -38.5 107.5t-145.5 37.5v51h696v-51 q-104 -8 -142 -38.5t-38 -106.5v-991q0 -75 35 -104t145 -42v-51z" />
<glyph unicode="I" horiz-adv-x="796" d="M758 0h-717v51q115 10 152.5 39.5t37.5 106.5v991q0 78 -39.5 107.5t-150.5 37.5v51h717v-51q-114 -4 -154.5 -34.5t-40.5 -110.5v-991q0 -80 39 -109.5t156 -36.5v-51z" />
<glyph unicode="J" d="M981 1333q-115 -7 -148.5 -42t-33.5 -146v-893q0 -220 -112 -334.5t-327 -114.5q-131 0 -217 47q-60 35 -98.5 98t-38.5 126q0 58 43.5 102.5t100.5 44.5q60 0 104.5 -45.5t44.5 -107.5q0 -40 -31 -78q-24 -33 -24 -53q0 -29 25.5 -47.5t66.5 -18.5q69 0 100 41.5 t31 136.5v1139q0 83 -41 111.5t-166 33.5v51h721v-51z" />
<glyph unicode="K" horiz-adv-x="1593" d="M1575 0h-688v51q29 2 65 2q52 3 74.5 12t22.5 29q0 17 -10 34.5t-40 55.5l-372 465l-56 -51v-401q0 -75 35.5 -104t145.5 -42v-51h-691v51q110 12 144.5 40t34.5 106v991q0 80 -36.5 109.5t-142.5 35.5v51h693v-51q-114 -7 -148.5 -43t-34.5 -145v-438l445 446 q47 47 60.5 67.5t13.5 45.5q0 31 -22.5 44.5t-78.5 16.5q-12 2 -74 6v51h592v-51q-105 -8 -179.5 -43.5t-174.5 -123.5t-303 -298l625 -774q20 -23 41 -32.5t59 -10.5v-51z" />
<glyph unicode="L" horiz-adv-x="1366" d="M1307 465l-84 -465h-1184v51q112 13 144 40t32 106v991q0 79 -36 109t-140 36v51h715v-51q-71 -3 -108.5 -10.5t-61.5 -29.5t-30.5 -54.5t-6.5 -93.5v-967q0 -66 34 -90.5t128 -24.5q233 0 358 113q53 49 90 108.5t90 180.5h60z" />
<glyph unicode="M" horiz-adv-x="1933" d="M1886 0h-680v51q115 10 149 39t34 115v1042l-517 -1247h-55l-516 1217v-963q0 -114 40.5 -154t166.5 -49v-51h-479v51q119 12 152.5 41.5t33.5 122.5v973q0 80 -35 108t-147 37v51h518l410 -966l409 966h516v-51q-113 -8 -146.5 -43t-33.5 -145v-905q0 -77 12.5 -111 t48 -51t119.5 -27v-51z" />
<glyph unicode="N" horiz-adv-x="1478" d="M1436 1333q-100 -15 -130 -45.5t-30 -118.5v-1206h-57l-916 1114v-823q0 -109 38.5 -149.5t156.5 -53.5v-51h-465v51q112 13 146 44.5t34 119.5v971q-74 88 -108.5 117.5t-65.5 29.5v51h432l715 -878v624q0 109 -39 151t-152 52v51h441v-51z" />
<glyph unicode="O" horiz-adv-x="1593" d="M1522 688q0 -209 -92 -375t-258 -259t-375 -93t-374.5 92.5t-258 258t-92.5 374.5q0 210 93.5 376.5t261 259.5t378.5 93q152 0 285.5 -55t228 -151t149 -231.5t54.5 -289.5zM1159 674q0 319 -93.5 496.5t-262.5 177.5q-180 0 -274.5 -174t-94.5 -506q0 -311 93 -475 t270 -164t269.5 165t92.5 480z" />
<glyph unicode="P" horiz-adv-x="1251" d="M1229 1012q0 -119 -66 -209t-190 -137q-67 -27 -146.5 -35t-289.5 -10v-381q0 -61 4.5 -91t25.5 -52t53 -30t97 -16v-51h-684v51q46 8 49 8q72 9 97.5 47t25.5 134v905q0 108 -32.5 143.5t-139.5 44.5v51h659q257 0 397 -97t140 -275zM877 1001q0 166 -55.5 239 t-182.5 73q-102 0 -102 -72v-549q108 0 166.5 12.5t95.5 43.5q78 69 78 253z" />
<glyph unicode="Q" horiz-adv-x="1593" d="M1522 684q0 -303 -193 -508q-66 -70 -133 -109t-192 -79q28 -57 47.5 -87t48.5 -59q106 -106 258 -106q49 0 137 24l12 -49q-114 -41 -192.5 -56t-173.5 -15q-136 0 -258.5 47t-208.5 133q-35 35 -58.5 71.5t-56.5 104.5q-117 43 -179.5 82t-125.5 110q-89 98 -135.5 224 t-46.5 266q0 210 93.5 378.5t259.5 263.5t372 95q208 0 374 -93.5t258.5 -260.5t92.5 -377zM1159 676q0 320 -94 496t-266 176q-175 0 -270 -174t-95 -496q0 -319 92 -484t271 -165q177 0 269.5 165.5t92.5 481.5z" />
<glyph unicode="R" horiz-adv-x="1478" d="M1464 0h-420l-423 641h-56v-401q0 -77 12.5 -111t48 -51t119.5 -27v-51h-692v51q52 6 81 13t51 18t31 32.5t13 49.5t4 76v905q0 111 -33 146t-147 42v51h660q281 0 429 -93.5t148 -270.5q0 -143 -92 -229q-43 -39 -91 -63.5t-138 -53.5l411 -584q29 -39 84 -39v-51z M940 1012q0 161 -61.5 232t-202.5 71q-77 0 -96 -31q-15 -30 -15 -55v-522q116 1 177.5 12.5t101.5 38.5q96 63 96 254z" />
<glyph unicode="S" horiz-adv-x="1138" d="M1051 393q0 -193 -140.5 -312.5t-367.5 -119.5q-127 0 -267 49q-67 21 -83 21q-25 0 -39 -15.5t-23 -54.5h-59v506h59q26 -109 52.5 -171.5t70.5 -119.5q117 -147 295 -147q118 0 188 62.5t70 168.5q0 82 -47 132.5t-182 115.5l-138 65q-263 127 -327 289q-23 67 -23 135 q0 195 120 306.5t329 111.5q113 0 239 -47q61 -20 86 -20q28 0 42 14t24 55h61v-444h-57q-31 100 -60.5 155t-82.5 109q-112 115 -252 115q-104 0 -165 -55t-61 -150q0 -75 43.5 -123t167.5 -109l301 -149q100 -50 163 -154t63 -219z" />
<glyph unicode="T" horiz-adv-x="1366" d="M1303 973h-60q-26 183 -115 261.5t-278 84.5v-1079q0 -63 5.5 -94.5t29 -53.5t59 -29t107.5 -12v-51h-732v51q70 6 106 13.5t59 29.5t28.5 53.5t5.5 92.5v1079q-190 -6 -279.5 -84.5t-115.5 -261.5h-60l7 411h1228z" />
<glyph unicode="U" horiz-adv-x="1478" d="M1436 1333q-98 -15 -129 -49t-31 -125v-653q0 -148 -40.5 -260t-115.5 -172q-66 -54 -164.5 -83.5t-207.5 -29.5q-232 0 -383 111q-91 68 -127.5 154t-36.5 235v684q0 77 -13 112.5t-46.5 52t-108.5 23.5v51h692v-51q-128 -6 -163.5 -39.5t-35.5 -148.5v-684 q0 -209 71 -304.5t228 -95.5q184 0 272.5 109t88.5 336v624q0 112 -40.5 153t-160.5 50v51h451v-51z" />
<glyph unicode="V" horiz-adv-x="1478" d="M1436 1333q-80 -11 -114 -42t-71 -126l-467 -1202h-55l-524 1227q-38 85 -67 109t-105 34v51h688v-51q-62 -4 -68 -4q-58 -3 -83 -20.5t-25 -53.5q0 -23 8.5 -50t38.5 -97l282 -684l261 674q41 103 41 145q0 49 -33.5 65.5t-143.5 24.5v51h437v-51z" />
<glyph unicode="W" horiz-adv-x="2048" d="M2009 1333q-101 -9 -141 -131l-410 -1233h-55l-350 977l-381 -977h-58l-434 1233q-26 75 -51.5 98.5t-89.5 32.5v51h602v-51q-79 -6 -105 -23.5t-26 -62.5q0 -21 14 -67l246 -746l242 631l-72 197q-17 36 -50 52t-97 19v51h639v-51l-27 -2q-67 -4 -94 -20.5t-27 -53.5 q0 -18 29 -114l221 -688l229 702q15 43 15 86q0 48 -29.5 67t-112.5 23v51h373v-51z" />
<glyph unicode="X" horiz-adv-x="1478" d="M1432 0h-697v51q54 4 58 4q106 6 106 58q0 43 -43 110l-207 332l-78 -104q-114 -154 -153 -218t-39 -98q0 -38 36 -56.5t130 -27.5v-51h-512v51q76 9 121.5 33.5t91.5 81.5l358 452l-405 596q-48 70 -78.5 92.5t-85.5 26.5v51h708v-51q-58 -4 -63 -4q-55 -3 -76.5 -17 t-21.5 -46q0 -19 5 -32.5t25 -43.5l199 -307l115 157q71 97 94.5 140.5t23.5 76.5q0 37 -22.5 53t-83.5 19q-3 1 -9 1.5t-15.5 1t-16.5 1.5v51h512v-51q-80 -7 -130.5 -31t-105.5 -82t-149 -186l-164 -227l373 -580q73 -110 109.5 -142t89.5 -34v-51z" />
<glyph unicode="Y" horiz-adv-x="1478" d="M1432 1333q-52 -7 -84.5 -26t-55.5 -54l-391 -637v-376q0 -61 5 -92t27 -53t56 -30t101 -14v-51h-711v51q54 5 85 12t54 18t33 33t14 50t4 76v301l-374 680q-62 106 -164 112v51h686v-51l-51 -2q-63 0 -89 -13.5t-26 -47.5q0 -31 37 -96q10 -19 12 -25l246 -475l227 379 q80 132 80 194q0 44 -34.5 61t-137.5 25v51h451v-51z" />
<glyph unicode="Z" horiz-adv-x="1366" d="M1298 494l-53 -494h-1188v33l783 1280l-170 -6q-119 0 -191.5 -13t-130.5 -52.5t-95 -103.5t-75 -175h-57l43 421h1073v-32l-776 -1280h151q148 0 265 21.5t170 58.5q72 51 114.5 124t83.5 218h53z" />
<glyph unicode="[" horiz-adv-x="681" d="M616 -305h-479v1694h479v-68h-129q-86 0 -111.5 -27t-25.5 -116v-1307q0 -66 20 -87.5t83 -21.5h163v-67z" />
<glyph unicode="\" horiz-adv-x="569" d="M621 -39h-189l-483 1454h190z" />
<glyph unicode="]" horiz-adv-x="681" d="M545 -305h-479v67h163q64 0 83.5 20.5t19.5 88.5v1307q0 89 -25.5 116t-111.5 27h-129v68h479v-1694z" />
<glyph unicode="^" horiz-adv-x="1189" d="M1042 637h-182l-264 557l-264 -557h-182l364 747h164z" />
<glyph unicode="_" d="M1024 -256h-1024v102h1024v-102z" />
<glyph unicode="`" horiz-adv-x="681" d="M506 1059h-115l-291 180q-50 31 -66 52.5t-16 56.5q0 40 27.5 65t71.5 25q56 0 108 -58z" />
<glyph unicode="a" d="M999 88q-59 -63 -111 -90t-118 -27q-75 0 -113 33t-55 111q-85 -77 -161 -110.5t-165 -33.5q-98 0 -161.5 61.5t-63.5 155.5q0 133 137 224q57 38 144 71t270 90v150q0 94 -41 137t-131 43q-55 0 -92 -22t-37 -54q0 -17 25 -45q36 -44 36 -88q0 -53 -39 -86t-100 -33 q-63 0 -98 36t-35 100q0 115 107 186.5t280 71.5q188 0 297 -75.5t109 -205.5v-534q0 -52 43 -52q13 0 22 9l21 20zM600 205v297q-250 -69 -250 -248q0 -61 29.5 -99t75.5 -38q37 0 70.5 20.5t74.5 67.5z" />
<glyph unicode="b" horiz-adv-x="1138" d="M1067 489q0 -229 -129.5 -373.5t-333.5 -144.5q-76 0 -137.5 27t-132.5 90l-162 -115h-25v1244q0 61 -20.5 82.5t-91.5 35.5v49h397v-530q109 115 250 115q170 0 277.5 -134t107.5 -346zM766 453q0 405 -191 405q-51 0 -84 -27.5t-59 -93.5v-538q0 -74 38.5 -118 t102.5 -44q98 0 145.5 102t47.5 314z" />
<glyph unicode="c" horiz-adv-x="909" d="M881 186q-89 -114 -181 -164.5t-211 -50.5q-192 0 -315 136t-123 350q0 223 137.5 367.5t348.5 144.5q133 0 224 -65.5t91 -160.5q0 -60 -37 -94.5t-102 -34.5q-58 0 -85.5 35.5t-29.5 112.5q0 64 -1.5 77t-8.5 27q-9 17 -30 28t-46 11q-80 0 -126 -91t-46 -249 q0 -209 78.5 -332.5t212.5 -123.5q63 0 109.5 25t103.5 89z" />
<glyph unicode="d" horiz-adv-x="1138" d="M1094 41l-127 -16q-149 -16 -273 -52v133q-72 -76 -131 -105.5t-141 -29.5q-161 0 -266 136.5t-105 345.5q0 222 112 369t281 147q70 0 124 -28t120 -99v375q0 70 -26.5 90t-129.5 28v49h441v-1177q0 -65 25.5 -90t95.5 -29v-47zM688 229v498q-22 58 -65.5 92.5 t-94.5 34.5q-89 0 -131.5 -93.5t-42.5 -291.5q0 -195 39 -289t121 -94q68 0 129 70q18 20 31.5 42t13.5 31z" />
<glyph unicode="e" horiz-adv-x="909" d="M872 227q-99 -144 -186.5 -200t-212.5 -56q-191 0 -306.5 136t-115.5 360t118 363t310 139q176 0 277 -123q48 -61 72.5 -139.5t33.5 -204.5h-516q6 -106 20 -167.5t44 -111.5q61 -104 180 -104q66 0 118 31t115 106zM610 578v30q-6 154 -18 201q-24 96 -113 96 q-75 0 -107 -71.5t-36 -255.5h274z" />
<glyph unicode="f" horiz-adv-x="681" d="M797 1210q0 -57 -35 -92t-92 -35q-52 0 -87.5 33t-35.5 80q0 29 26 74q19 27 19 43q0 39 -60 39q-55 0 -78.5 -36.5t-23.5 -121.5v-250h178v-90h-178v-643q0 -100 30.5 -129.5t137.5 -32.5v-49h-569v49q70 7 93 32t23 91v682h-116v90h116q0 132 13 205t47 127 q41 67 118.5 103t180.5 36q130 0 211.5 -57t81.5 -148z" />
<glyph unicode="g" d="M989 -113q0 -152 -132.5 -230.5t-387.5 -78.5q-194 0 -303 50t-109 139q0 126 197 153q-98 35 -133 70t-35 98q0 157 244 240q-71 30 -108.5 54.5t-71.5 61.5q-74 90 -74 195q0 146 116.5 238t299.5 92q106 0 229 -45h266v-109h-166q82 -82 82 -201q0 -165 -139 -245 q-53 -31 -99 -42.5t-118 -11.5l-92 2q-61 0 -100.5 -30t-39.5 -76q0 -43 41 -57.5t164 -14.5h133q157 0 246.5 -67t89.5 -185zM827 -209q0 103 -163 103h-355q-43 -35 -57 -58t-14 -55q0 -137 274 -137q152 0 233.5 38t81.5 109zM627 637q0 143 -31.5 205.5t-103.5 62.5 t-104 -62t-32 -206q0 -143 31.5 -203.5t104.5 -60.5q72 0 103.5 61t31.5 203z" />
<glyph unicode="h" horiz-adv-x="1138" d="M1094 0h-482v49q52 6 74.5 33t22.5 84v496q0 169 -107 169q-73 0 -141 -71q-35 -32 -35 -47v-547q0 -58 22 -84t78 -33v-49h-493v49q69 13 88.5 35.5t19.5 87.5v1045q0 63 -19 84t-89 34v49h393v-575q79 89 144 124.5t147 35.5q126 0 201 -78.5t75 -210.5v-508 q0 -64 22.5 -91t78.5 -32v-49z" />
<glyph unicode="i" horiz-adv-x="569" d="M522 0h-489v49q70 17 89 38.5t19 84.5v602q0 63 -20 85t-88 36v49h393v-778q0 -58 21 -83.5t75 -33.5v-49zM438 1249q0 -67 -45.5 -112t-111.5 -45t-112 45t-46 112t46 112.5t112 45.5t111.5 -45.5t45.5 -112.5z" />
<glyph unicode="j" horiz-adv-x="681" d="M532 4q0 -171 -55 -264q-43 -75 -122 -115.5t-185 -40.5q-126 0 -206.5 57t-80.5 148q0 56 35 90.5t92 34.5q51 0 86 -32.5t35 -78.5q0 -30 -29 -75q-18 -30 -18 -45t18.5 -25t47.5 -10q52 0 75 36.5t23 118.5v971q0 66 -25.5 90.5t-103.5 30.5v49h413v-940zM545 1249 q0 -67 -46 -112t-112 -45t-112 45t-46 112t46 112.5t112 45.5t112 -45.5t46 -112.5z" />
<glyph unicode="k" horiz-adv-x="1138" d="M1112 0h-479v49q86 3 86 39q0 21 -49 92l-195 275l-47 -49v-234q0 -72 17.5 -92.5t89.5 -30.5v-49h-490v49q51 5 74.5 34t23.5 89v1045q0 59 -23 86.5t-75 31.5v49h383v-882l262 262q17 17 30 40.5t13 37.5q0 38 -71 47q-3 1 -10 2t-19 2.5t-21 3.5v47h439v-47 q-97 -12 -165 -59.5t-222 -208.5l397 -549q13 -19 23.5 -25t27.5 -6v-49z" />
<glyph unicode="l" horiz-adv-x="569" d="M522 0h-489v49q104 9 104 123v1045q0 57 -25 85t-79 33v49h389v-1212q0 -120 100 -123v-49z" />
<glyph unicode="m" horiz-adv-x="1705" d="M1667 0h-487v49q59 5 79.5 29t20.5 88v496q0 91 -25 130t-84 39q-51 0 -114 -49q-20 -15 -40 -38t-20 -31v-547q0 -59 21.5 -85t75.5 -32v-49h-480v49q57 5 78 29.5t21 87.5v496q0 92 -25.5 130.5t-85.5 38.5q-52 0 -113 -47q-20 -15 -39.5 -38.5t-19.5 -32.5v-547 q0 -59 20 -84.5t74 -32.5v-49h-491v49q68 12 90 36t22 87v602q0 63 -22.5 87.5t-89.5 33.5v49h391v-153q58 92 131 135t170 43t156.5 -40.5t105.5 -137.5q80 99 147 138.5t154 39.5q126 0 201.5 -78.5t75.5 -210.5v-514q0 -66 21 -90t81 -27v-49z" />
<glyph unicode="n" horiz-adv-x="1138" d="M1104 0h-481v49q52 6 74 33t22 84v496q0 169 -107 169q-73 0 -141 -71q-35 -32 -35 -47v-547q0 -57 22 -83.5t79 -33.5v-49h-494v49q69 14 89 36.5t20 86.5v602q0 64 -20.5 87t-88.5 34v49h391v-153q112 178 293 178q126 0 201.5 -78.5t75.5 -210.5v-514q0 -65 20 -89 t80 -28v-49z" />
<glyph unicode="o" d="M975 469q0 -214 -131.5 -356t-329.5 -142q-201 0 -332 142t-131 362q0 209 134 351.5t329 142.5q198 0 329.5 -142.5t131.5 -357.5zM674 457q0 252 -34.5 350t-123.5 98q-65 0 -99.5 -42.5t-49.5 -141.5t-15 -283q0 -225 35.5 -314t126.5 -89q89 0 124.5 93t35.5 329z " />
<glyph unicode="p" horiz-adv-x="1138" d="M1073 489q0 -227 -110.5 -371.5t-282.5 -144.5q-68 0 -118.5 25.5t-123.5 97.5v-289q0 -103 33 -141.5t127 -42.5v-43h-559v49q73 12 94 34t21 85v1026q0 64 -21.5 87t-89.5 34v49h391v-141q47 89 107 127.5t151 38.5q170 0 275.5 -133t105.5 -347zM770 461 q0 201 -38 296t-118 95q-69 0 -133 -70q-43 -46 -43 -73v-498q23 -59 65 -92t93 -33q174 0 174 375z" />
<glyph unicode="q" horiz-adv-x="1138" d="M1098 -420h-547v51q100 19 124.5 47t24.5 123v285q-63 -62 -121 -88.5t-130 -26.5q-167 0 -273 133.5t-106 344.5q0 229 127 374.5t327 145.5q76 0 134.5 -25.5t136.5 -91.5l159 115h31v-1219q0 -61 21 -83t92 -36v-49zM700 201v538q0 74 -38 119t-99 45 q-194 0 -194 -420q0 -401 190 -401q53 0 89.5 31t51.5 88z" />
<glyph unicode="r" horiz-adv-x="909" d="M889 809q0 -60 -36 -98.5t-93 -38.5q-40 0 -67 16t-56 57q-33 48 -57 48q-51 0 -88 -57.5t-37 -137.5v-387q0 -95 27.5 -125.5t121.5 -36.5v-49h-545v49q68 12 89.5 36t21.5 87v602q0 62 -22.5 87t-88.5 34v49h387v-168q72 103 136.5 148t140.5 45q72 0 119 -45.5 t47 -114.5z" />
<glyph unicode="s" horiz-adv-x="796" d="M739 283q0 -138 -88 -225t-227 -87q-43 0 -110 14t-111 33q-33 13 -47 13q-13 0 -24.5 -12.5t-29.5 -45.5h-51v338h58q65 -270 280 -270q69 0 111.5 36.5t42.5 96.5q0 50 -45.5 91t-151.5 87q-154 66 -222.5 141t-68.5 177q0 129 91.5 214t230.5 85q71 0 160 -31 q46 -14 63 -14q20 0 31 9t20 32h45v-297h-51q-23 66 -43.5 101.5t-52.5 66.5q-68 65 -154 65q-58 0 -96.5 -34t-38.5 -85q0 -52 46 -93.5t151 -86.5q153 -63 217.5 -136.5t64.5 -182.5z" />
<glyph unicode="t" horiz-adv-x="681" d="M680 205q-63 -126 -131.5 -178t-171.5 -52q-106 0 -168 57.5t-62 157.5v664h-106v55q100 85 173 167t167 214h51v-346h193v-90h-193v-616q0 -62 18.5 -89.5t61.5 -27.5q33 0 60 24t57 82z" />
<glyph unicode="u" horiz-adv-x="1138" d="M1100 41l-127 -14q-102 -11 -154 -21t-117 -33v133q-90 -77 -153.5 -106t-142.5 -29q-128 0 -200.5 76t-72.5 211v516q0 64 -18.5 86.5t-81.5 34.5v49h385v-694q0 -79 26 -112.5t88 -33.5q44 0 80.5 20t87.5 71v579q0 66 -25.5 90.5t-101.5 30.5v49h412v-737 q0 -66 24 -91t91 -28v-47z" />
<glyph unicode="v" d="M993 895q-47 -4 -68.5 -24.5t-50.5 -88.5l-327 -811h-53l-246 607q-16 40 -47.5 110t-57.5 123.5t-28 52.5q-9 14 -23.5 20.5t-48.5 10.5v49h512v-49l-37 -4q-38 -3 -55 -14.5t-17 -34.5q0 -11 19 -64l162 -416l147 373q23 61 23 92q0 37 -23.5 51t-89.5 17v49h309v-49z " />
<glyph unicode="w" horiz-adv-x="1478" d="M1448 895q-40 -7 -58.5 -26t-43.5 -76l-318 -822h-47l-209 635l-256 -635h-49l-303 766q-41 102 -59 126.5t-58 31.5v49h455v-49q-43 -6 -60.5 -19t-17.5 -38q0 -35 80 -236q14 -41 43 -110l49 -132l139 351l-12 39q-12 40 -17 57.5t-14 37.5t-14 25.5t-18 12.5 t-23.5 8.5t-34.5 3.5v49h479v-49q-59 -5 -78.5 -14.5t-19.5 -34.5q0 -28 55 -217l70 -260l72 192q90 231 90 262q0 35 -21 50.5t-78 21.5v49h277v-49z" />
<glyph unicode="x" d="M991 0h-493v49q92 6 92 41q0 33 -68 131l-86 129q-6 -7 -13.5 -16.5t-12.5 -15.5t-7 -9q-58 -70 -94.5 -129t-36.5 -82t24 -34.5t79 -14.5v-49h-346v49q56 3 100 39.5t131 151.5q8 13 26.5 37t52.5 66.5t54 68.5l-262 403q-31 47 -49 60.5t-57 19.5v49h512v-49 q-97 -3 -97 -39q0 -20 34.5 -78t84.5 -123q15 -20 27 -34q54 75 73 94q78 90 78 131q0 23 -14 33.5t-49 11.5q-5 0 -41 4v49h344v-49q-88 -14 -143 -80l-207 -258l303 -467q17 -28 61 -41v-49z" />
<glyph unicode="y" d="M983 895q-47 -4 -70 -26t-49 -87l-305 -813q-53 -142 -88 -213.5t-68 -107.5q-68 -68 -172 -68q-87 0 -142.5 45.5t-55.5 116.5q0 58 37 94.5t94 36.5q53 0 86 -28t33 -72q0 -9 -4 -29l-3 -12q0 -14 11 -24.5t24 -10.5q35 0 72 45.5t63 122.5l37 108l-245 605 q-27 66 -78.5 176t-55.5 110q-9 14 -23 20.5t-48 10.5v49h512v-49l-33 -2q-76 -6 -76 -51q0 -12 5.5 -28t35.5 -93l148 -379l139 393q22 62 22 92q0 37 -23 51t-89 17v49h309v-49z" />
<glyph unicode="z" horiz-adv-x="909" d="M860 328l-33 -328h-784v51l479 828q-76 0 -125.5 -3t-92 -12.5t-67 -24t-46 -41.5t-34 -60t-26.5 -85h-53l14 291h760v-53l-473 -825h59q123 0 185.5 24.5t111.5 91.5q44 57 68 146h57z" />
<glyph unicode="{" horiz-adv-x="806" d="M696 -358q-150 1 -228 18t-124 57q-80 65 -80 213v367q0 109 -44.5 157.5t-174.5 80.5q130 32 174.5 80t44.5 157v367q0 168 103 231q50 32 121.5 45.5t207.5 14.5v-25q-123 -26 -170 -81.5t-47 -172.5v-350q0 -129 -48 -182t-193 -84q145 -31 193 -84.5t48 -182.5v-350 q0 -117 47.5 -172t169.5 -80v-24z" />
<glyph unicode="|" horiz-adv-x="450" d="M315 -305h-180v1694h180v-1694z" />
<glyph unicode="}" horiz-adv-x="806" d="M762 537q-130 -32 -174.5 -80.5t-44.5 -157.5v-367q0 -168 -103 -231q-49 -32 -120.5 -44.5t-208.5 -14.5v24q123 26 170 81.5t47 172.5v350q0 127 49 181.5t192 85.5q-145 31 -193 84t-48 182v350q0 116 -48 171.5t-169 80.5v25q137 -1 208 -14.5t121 -45.5 q103 -63 103 -229v-367q0 -109 44.5 -157t174.5 -80z" />
<glyph unicode="~" horiz-adv-x="1064" d="M1006 532q-69 -97 -125 -135.5t-127 -38.5q-51 0 -97.5 15t-117.5 53q-133 72 -230 72q-45 0 -75.5 -18.5t-65.5 -67.5l-109 94q53 91 112 131.5t142 40.5q51 0 105.5 -17t169.5 -69q122 -53 166 -53q68 0 139 92z" />
<glyph unicode="&#xa1;" horiz-adv-x="681" d="M514 797q0 -69 -51 -120.5t-121 -51.5q-72 0 -123 52t-51 124q0 71 51.5 120.5t124.5 49.5q72 0 121 -50t49 -124zM516 -266q0 -97 -45.5 -151t-128.5 -54q-82 0 -127 54.5t-45 154.5q0 63 37 178q45 145 65 251t41 298h60q20 -188 41 -295t65 -254q37 -117 37 -182z" />
<glyph unicode="&#xa2;" d="M938 186q-92 -114 -166 -155q-108 -60 -225 -60q-45 0 -103 15l-96 -273h-82l105 297q-49 24 -75.5 42.5t-55.5 47.5q-131 134 -131 357q0 220 135.5 366t339.5 146q54 0 123 -17l90 252h82l-99 -278q129 -70 129 -181q0 -58 -37.5 -94.5t-97.5 -36.5q-55 0 -90 41 l-168 -471q41 -41 79.5 -58t90.5 -17q66 0 114.5 25.5t100.5 88.5zM657 813v6q0 37 -25 61.5t-63 24.5q-78 0 -125 -93.5t-47 -250.5q0 -165 64 -299z" />
<glyph unicode="&#xa3;" d="M977 375q-10 -121 -28 -189t-50 -116q-68 -99 -190 -99q-66 0 -119.5 27t-136.5 102q-51 -66 -106 -96.5t-124 -30.5q-86 0 -133 45.5t-47 128.5q0 92 55.5 140.5t161.5 48.5q48 0 105 -14q-3 58 -17 109t-67 200h-201v133h164q-29 158 -29 237q0 98 42 185t116 141 q104 74 258 74q142 0 225.5 -63t83.5 -169q0 -68 -37.5 -107.5t-101.5 -39.5q-59 0 -94.5 37.5t-32.5 95.5l4 90v6q0 43 -23.5 65.5t-66.5 22.5q-51 0 -83 -35.5t-32 -93.5q0 -33 25.5 -173.5t54.5 -272.5h233v-133h-223q4 -78 4 -111q0 -75 -8.5 -126t-32.5 -120 q120 -45 199 -45q95 0 138.5 31t66.5 115h47zM371 176q-41 37 -74 51.5t-74 14.5q-53 0 -83.5 -29t-30.5 -78q0 -44 31.5 -72t82.5 -28q57 0 91.5 33t56.5 108z" />
<glyph unicode="&#xa4;" d="M1077 244l-119 -119l-196 201q-123 -76 -250 -76t-250 76l-196 -201l-119 119l200 200q-75 113 -75 246q0 134 75 250l-200 201l119 114l196 -196q114 71 250 71t250 -71l196 196l119 -114l-200 -201q41 -66 58 -122.5t17 -127.5q0 -141 -75 -246zM772 692 q0 114 -77 192.5t-187 78.5q-105 0 -180.5 -80t-75.5 -191q0 -115 75 -194.5t183 -79.5q110 0 186 79.5t76 194.5z" />
<glyph unicode="&#xa5;" d="M1120 1331q-52 -4 -81.5 -21.5t-49.5 -54.5l-295 -555h228v-102h-269l-8 -23v-137h277v-102h-277v-100q0 -105 38 -140t165 -45v-51h-678v51q130 10 169.5 45.5t39.5 139.5v100h-277v102h277v117l-23 43h-254v102h203l-266 523q-29 55 -67.5 79t-102.5 29v53h616v-53 q-93 -3 -125 -15t-32 -44q0 -48 155 -342q77 -152 86 -170l31 -60l244 471q16 37 16 72q0 50 -31 67t-129 21v53h420v-53z" />
<glyph unicode="&#xa6;" horiz-adv-x="450" d="M315 711h-180v678h180v-678zM315 -305h-180v678h180v-678z" />
<glyph unicode="&#xa7;" d="M907 524q0 -114 -78 -176q-34 -28 -81 -40t-130 -13q114 -79 161.5 -148t47.5 -153q0 -115 -94.5 -189.5t-240.5 -74.5q-128 0 -218 59.5t-90 144.5q0 57 37.5 95.5t91.5 38.5t93.5 -34.5t39.5 -80.5q0 -25 -14 -45t-49 -41q-31 -19 -31 -31q0 -23 43 -41t97 -18 q161 0 161 145q0 47 -16 78t-59 66l-117 94q-150 121 -220 190t-97 124t-27 126q0 121 65 185.5t187 64.5h39q-126 110 -165.5 167.5t-39.5 131.5q0 117 85.5 191.5t219.5 74.5q120 0 208.5 -60.5t88.5 -142.5q0 -51 -40.5 -91t-92.5 -40q-44 0 -83.5 38t-39.5 79 q0 45 55 88q31 28 31 39q0 17 -34 30t-77 13q-75 0 -122.5 -39t-47.5 -102q0 -102 213 -244q206 -134 299 -293q41 -68 41 -166zM752 461q0 42 -19 76t-69 81q-194 185 -283 185q-47 0 -79 -33t-32 -82q0 -56 26 -94t118 -117q94 -82 138.5 -108.5t90.5 -26.5t77.5 33.5 t31.5 85.5z" />
<glyph unicode="&#xa8;" horiz-adv-x="681" d="M260 1247q0 -54 -38.5 -91.5t-94.5 -37.5q-54 0 -92.5 39.5t-38.5 93.5q0 53 39 92t92 39q54 0 93.5 -40t39.5 -95zM690 1247q0 -54 -39 -91.5t-96 -37.5q-54 0 -91.5 39t-37.5 96q0 51 39 90t90 39q55 0 95 -40t40 -95z" />
<glyph unicode="&#xa9;" horiz-adv-x="1529" d="M1491 686q0 -196 -97.5 -362.5t-264.5 -263.5t-363 -97t-362.5 97t-263.5 263.5t-97 362.5t97 363t263.5 264.5t362.5 97.5t363 -97.5t264.5 -264.5t97.5 -363zM1413 686q0 175 -87 324t-236 236t-324 87t-323.5 -87t-235 -236t-86.5 -324t86.5 -323.5t235 -235 t323.5 -86.5t324 86.5t236 235t87 323.5zM1163 459q-95 -96 -170.5 -132t-181.5 -36q-194 0 -319 109t-125 282t124.5 287t311.5 114q86 0 190 -39q38 -14 54 -14q15 0 25.5 10t23.5 39h43v-270h-54q-27 55 -37.5 74.5t-30.5 46.5t-42 45q-74 59 -156 59q-207 0 -207 -342 q0 -161 52 -246q25 -40 73 -65t103 -25q51 0 106 19q45 18 81 42.5t89 76.5z" />
<glyph unicode="&#xaa;" horiz-adv-x="614" d="M616 883q-37 -38 -71 -54t-78 -16q-49 0 -73.5 19t-35.5 65q-55 -45 -102.5 -64.5t-105.5 -19.5q-68 0 -110 37.5t-42 97.5q0 77 75 124.5t281 101.5v81q0 57 -23.5 82t-78.5 25q-34 0 -59 -13t-25 -32q0 -11 18 -29q23 -23 23 -43q0 -32 -27.5 -51.5t-70.5 -19.5 q-40 0 -63 21.5t-23 59.5q0 70 72 112t192 42t190 -45.5t70 -122.5v-319q0 -31 22 -31l13 4l12 12zM352 952v178q-153 -46 -153 -149q0 -36 18 -59t47 -23q46 0 88 53zM616 715h-618v61h618v-61z" />
<glyph unicode="&#xab;" d="M567 104q0 -13 -6.5 -21.5t-17.5 -8.5q-23 0 -58 32l-16 15l-422 340v8l416 336l12 10q40 35 64 35t24 -23q0 -68 -188 -301q-15 -15 -49 -61q49 -71 82 -111q159 -186 159 -250zM969 104q0 -13 -7 -21.5t-18 -8.5q-22 0 -57 32l-17 15l-421 340v8l415 336l13 10 q40 35 63 35q25 0 25 -23q0 -68 -191 -301l-47 -61q49 -71 82 -111q160 -187 160 -250z" />
<glyph unicode="&#xac;" horiz-adv-x="1167" d="M1077 776v-436h-180v254l-807 2v180h987z" />
<glyph unicode="&#xad;" horiz-adv-x="681" d="M588 350h-498v238h498v-238z" />
<glyph unicode="&#xae;" horiz-adv-x="1529" d="M1491 686q0 -196 -97.5 -362.5t-264.5 -263.5t-363 -97t-362.5 97t-263.5 263.5t-97 362.5t97 363t263.5 264.5t362.5 97.5t363 -97.5t264.5 -264.5t97.5 -363zM1413 686q0 175 -87 324t-236 236t-324 87t-323.5 -87t-235 -236t-86.5 -324t86.5 -323.5t235 -235 t323.5 -86.5t324 86.5t236 235t87 323.5zM1192 309h-277l-253 350v-215q0 -55 15 -71.5t79 -22.5v-41h-416v41q63 6 77.5 22t14.5 72v486q0 56 -16 73.5t-76 20.5v41h391q174 0 266.5 -52t92.5 -151q0 -75 -56 -125q-44 -37 -131 -63l238 -307q19 -23 51 -15v-43zM850 858 q0 81 -32 118.5t-107 37.5q-33 0 -41 -10q-8 -12 -8 -29v-273q87 0 135 23q53 33 53 133z" />
<glyph unicode="&#xaf;" horiz-adv-x="681" d="M678 1176h-676v147h676v-147z" />
<glyph unicode="&#xb0;" horiz-adv-x="819" d="M702 1116q0 -125 -85 -209t-211 -84q-120 0 -204.5 85.5t-84.5 207.5q0 123 85 208t208 85t207.5 -85t84.5 -208zM618 1116q0 89 -61.5 154t-146.5 65q-86 0 -147.5 -64.5t-61.5 -154.5q0 -89 61 -154t146 -65q88 0 149 64t61 155z" />
<glyph unicode="&#xb1;" horiz-adv-x="1167" d="M1077 602h-403v-260h-180v260h-404v180h404v404h180v-404h403v-180zM1077 0h-987v180h987v-180z" />
<glyph unicode="&#xb2;" horiz-adv-x="614" d="M614 823l-61 -260h-553v29q230 230 303.5 331.5t73.5 190.5q0 65 -45 110.5t-109 45.5q-52 0 -87.5 -25.5t-67.5 -85.5h-50q52 129 123.5 189.5t169.5 60.5q107 0 176.5 -63.5t69.5 -163.5q0 -68 -34.5 -129.5t-116.5 -137.5l-203 -188h188q101 0 131.5 15t59.5 81h32z " />
<glyph unicode="&#xb3;" horiz-adv-x="614" d="M608 868q0 -133 -115.5 -226t-281.5 -93q-94 0 -149.5 29.5t-55.5 80.5q0 57 82 84q44 -5 67.5 -16t69.5 -51q32 -30 54 -41.5t47 -11.5q58 0 93.5 36.5t35.5 96.5q0 89 -60 145t-207 103v20q94 28 133 64.5t39 97.5q0 57 -36.5 91t-96.5 34q-47 0 -81 -23t-72 -80 l-41 15q110 186 305 186q103 0 160 -44t57 -122q0 -55 -24 -88.5t-87 -67.5q164 -66 164 -219z" />
<glyph unicode="&#xb4;" horiz-adv-x="681" d="M664 1348q0 -35 -16 -56.5t-66 -52.5l-291 -180h-115l281 321q52 58 108 58q44 0 71.5 -25t27.5 -65z" />
<glyph unicode="&#xb5;" horiz-adv-x="1138" d="M1098 74q-67 -61 -109.5 -81t-107.5 -20q-75 0 -124 25.5t-83 81.5q-50 -59 -94.5 -83t-108.5 -24q-62 0 -109.5 16.5t-99.5 55.5q6 -51 12.5 -77.5t26.5 -88.5q29 -101 29 -143q0 -77 -33 -117.5t-96 -40.5t-98 41.5t-35 116.5q0 33 20 117q47 168 47 327v764h285v-639 q0 -68 32.5 -109.5t84.5 -41.5q66 0 151 55v735h285v-737q0 -41 24 -68.5t58 -27.5q21 0 43 12v-49z" />
<glyph unicode="&#xb6;" horiz-adv-x="1105" d="M1063 1333q-46 -4 -53 -4q-76 -9 -94.5 -25.5t-18.5 -76.5l-2 -21v-78v-1253v-78l2 -20q2 -61 19 -77.5t90 -25.5q7 0 47 -4v-51h-351v1714h-102v-1714h-358v51q62 6 90.5 10.5t47.5 17t22.5 28.5t3.5 51l2 20v78v668q-78 3 -126 15t-94 40q-188 110 -188 387 q0 205 109 302t340 97h614v-51zM408 594v739q-73 -19 -109.5 -41.5t-62.5 -66.5q-52 -84 -52 -236q0 -162 54.5 -258t169.5 -137z" />
<glyph unicode="&#xb7;" horiz-adv-x="512" d="M428 512q0 -70 -51 -121t-121 -51t-121 51t-51 121t51 121t121 51t121 -51t51 -121z" />
<glyph unicode="&#xb8;" horiz-adv-x="681" d="M602 -264q0 -85 -71.5 -133.5t-194.5 -48.5q-98 0 -197 36l33 76l12 -4q63 -24 111 -24q56 0 86.5 21.5t30.5 61.5q0 34 -25.5 54t-69.5 20q-26 0 -57 -8l-22 16l88 207h86l-58 -141q31 10 68 10q85 0 132.5 -38t47.5 -105z" />
<glyph unicode="&#xb9;" horiz-adv-x="614" d="M559 563h-498v41q98 0 128 23.5t30 99.5v453q0 84 -47 84q-23 0 -88 -21q-6 -3 -27 -10v43l336 133h23v-690q0 -71 26.5 -92.5t116.5 -22.5v-41z" />
<glyph unicode="&#xba;" horiz-adv-x="675" d="M639 1112q0 -132 -85.5 -215.5t-219.5 -83.5q-128 0 -212.5 84.5t-84.5 212.5q0 129 86 214t215 85t215 -85t86 -212zM438 1098q0 153 -21.5 210.5t-78.5 57.5q-58 0 -80 -57t-22 -207q0 -137 22.5 -192.5t77.5 -55.5q57 0 79.5 54t22.5 190zM639 715h-602v61h602v-61z " />
<glyph unicode="&#xbb;" d="M575 455l-415 -336l-13 -10q-40 -35 -63 -35q-25 0 -25 22q0 68 191 301l47 62q-46 66 -82 108q-160 189 -160 252q0 13 7 22t16 9q23 0 59 -33l17 -14l421 -340v-8zM977 455l-416 -336q-6 -4 -14 -10q-40 -35 -62 -35q-24 0 -24 22q0 32 50.5 113.5t137.5 187.5l49 62 q-46 66 -82 108q-159 188 -159 252q0 14 7 22.5t17 8.5q19 0 58 -33q12 -12 16 -14l422 -340v-8z" />
<glyph unicode="&#xbc;" horiz-adv-x="1536" d="M1522 178h-84v-178h-193v178h-330v137q63 95 129.5 181t206.5 256l80 94h107v-533h84v-135zM1247 313v359l-280 -359h280zM1374 1409l-899 -1434h-119l904 1434h114zM559 563h-498v41q98 0 128 23.5t30 99.5v453q0 84 -47 84q-23 0 -88 -21q-6 -3 -27 -10v43l336 133h23 v-690q0 -71 26.5 -92.5t116.5 -22.5v-41z" />
<glyph unicode="&#xbd;" horiz-adv-x="1536" d="M1288 1409l-899 -1434h-119l904 1434h114zM487 563h-497v41q98 0 127.5 23t29.5 100v453q0 84 -47 84q-23 0 -88 -21q-8 -4 -26 -10v43l336 133h22v-690q0 -71 26.5 -92.5t116.5 -22.5v-41zM1587 260l-61 -260h-553v29q230 230 303.5 331.5t73.5 190.5q0 65 -45 110.5 t-109 45.5q-52 0 -88 -25.5t-68 -85.5h-49q52 129 123.5 189.5t169.5 60.5q107 0 176.5 -64t69.5 -164q0 -68 -34.5 -129t-117.5 -137l-190 -178v-10h176q101 0 131 15t59 81h33z" />
<glyph unicode="&#xbe;" horiz-adv-x="1536" d="M1370 1409l-899 -1434h-119l903 1434h115zM649 868q0 -133 -115.5 -226t-281.5 -93q-94 0 -149.5 29.5t-55.5 80.5q0 57 82 84q44 -5 67.5 -16t69.5 -51q32 -30 54 -41.5t47 -11.5q58 0 93.5 36.5t35.5 96.5q0 89 -60 145t-207 103v20q94 28 133 64.5t39 97.5 q0 57 -36.5 91t-96.5 34q-47 0 -81 -23t-72 -80l-41 15q110 186 305 186q103 0 160 -44t57 -122q0 -54 -22.5 -87t-79.5 -64v-9q155 -62 155 -215zM1501 178h-84v-178h-192v178h-330v137q63 95 129.5 181t206.5 256l80 94h106v-533h84v-135zM1227 313v359l-281 -359h281z " />
<glyph unicode="&#xbf;" d="M907 -172q0 -129 -108 -212t-277 -83q-185 0 -297 93t-112 247q0 106 54 180t193 160q97 60 121.5 103t24.5 155h61q4 -61 4 -94q0 -43 -14 -85.5t-51 -113.5q-51 -95 -69.5 -160t-18.5 -145q0 -126 45 -196t127 -70q56 0 90.5 22.5t34.5 59.5q0 26 -31 59 q-26 29 -35.5 51.5t-9.5 53.5q0 59 35.5 95t93.5 36q60 0 99.5 -44.5t39.5 -111.5zM709 797q0 -69 -52 -120.5t-122 -51.5t-121.5 51.5t-51.5 122.5q0 72 50.5 122t122.5 50q73 0 123.5 -50.5t50.5 -123.5z" />
<glyph unicode="&#xc0;" horiz-adv-x="1478" d="M1411 0h-663v51l65 6q54 3 76 18.5t22 49.5q0 60 -94 278h-461l-30 -81q-60 -151 -60 -187q0 -40 38.5 -59t129.5 -25v-51h-416v51q52 9 80 29t54 65t67 146l455 1122h57l457 -1077q36 -83 58 -128.5t42 -81.5t38.5 -49.5t37 -19.5t47.5 -6v-51zM786 483l-206 498 l-193 -498h399zM928 1477h-137l-351 161q-59 28 -78.5 47.5t-19.5 51.5q0 36 33 59t86 23q68 0 131 -54z" />
<glyph unicode="&#xc1;" horiz-adv-x="1478" d="M1411 0h-663v51l65 6q54 3 76 18.5t22 49.5q0 60 -94 278h-461l-30 -81q-60 -151 -60 -187q0 -40 38.5 -59t129.5 -25v-51h-416v51q52 9 80 29t54 65t67 146l455 1122h57l457 -1077q36 -83 58 -128.5t42 -81.5t38.5 -49.5t37 -19.5t47.5 -6v-51zM786 483l-206 498 l-193 -498h399zM1065 1737q0 -32 -19.5 -51.5t-78.5 -47.5l-351 -161h-137l336 288q63 54 131 54q53 0 86 -23t33 -59z" />
<glyph unicode="&#xc2;" horiz-adv-x="1478" d="M1411 0h-663v51l65 6q54 3 76 18.5t22 49.5q0 60 -94 278h-461l-30 -81q-60 -151 -60 -187q0 -40 38.5 -59t129.5 -25v-51h-416v51q52 9 80 29t54 65t67 146l455 1122h57l457 -1077q36 -83 58 -128.5t42 -81.5t38.5 -49.5t37 -19.5t47.5 -6v-51zM786 483l-206 498 l-193 -498h399zM1118 1487h-139l-274 180l-277 -180h-137l299 325h227z" />
<glyph unicode="&#xc3;" horiz-adv-x="1478" d="M1411 0h-663v51l65 6q54 3 76 18.5t22 49.5q0 60 -94 278h-461l-30 -81q-60 -151 -60 -187q0 -40 38.5 -59t129.5 -25v-51h-416v51q52 9 80 29t54 65t67 146l455 1122h57l457 -1077q36 -83 58 -128.5t42 -81.5t38.5 -49.5t37 -19.5t47.5 -6v-51zM786 483l-206 498 l-193 -498h399zM1077 1780q-35 -134 -93 -197t-146 -63q-63 0 -131 28l-60 27q-67 30 -89 37.5t-42 7.5q-39 0 -66.5 -26.5t-33.5 -69.5h-86q28 132 85 194t152 62q68 0 150 -39l82 -37q53 -25 80 -25q41 0 65.5 22.5t44.5 78.5h88z" />
<glyph unicode="&#xc4;" horiz-adv-x="1478" d="M1411 0h-663v51l65 6q54 3 76 18.5t22 49.5q0 60 -94 278h-461l-30 -81q-60 -151 -60 -187q0 -40 38.5 -59t129.5 -25v-51h-416v51q52 9 80 29t54 65t67 146l455 1122h57l457 -1077q36 -83 58 -128.5t42 -81.5t38.5 -49.5t37 -19.5t47.5 -6v-51zM786 483l-206 498 l-193 -498h399zM623 1647q0 -54 -39 -91.5t-95 -37.5q-54 0 -92.5 39.5t-38.5 93.5q0 53 39 92t92 39q54 0 94 -40t40 -95zM1053 1647q0 -54 -39 -91.5t-96 -37.5q-54 0 -92 39t-38 96q0 51 39.5 90t90.5 39q56 0 95.5 -40t39.5 -95z" />
<glyph unicode="&#xc5;" horiz-adv-x="1478" d="M1411 0h-663v51l65 6q54 3 76 18.5t22 49.5q0 60 -94 278h-461l-30 -81q-60 -151 -60 -187q0 -40 38.5 -59t129.5 -25v-51h-416v51q52 9 80 29t54 65t67 146l455 1122h57l457 -1077q36 -83 58 -128.5t42 -81.5t38.5 -49.5t37 -19.5t47.5 -6v-51zM786 483l-206 498 l-193 -498h399zM922 1688q0 -91 -64.5 -154.5t-155.5 -63.5t-154 65t-63 157q0 86 65.5 150.5t154.5 64.5t153 -65t64 -154zM823 1686q0 50 -36 86t-85 36q-47 0 -82.5 -36.5t-35.5 -83.5q0 -49 34.5 -84t81.5 -35q51 0 87 34.5t36 82.5z" />
<glyph unicode="&#xc6;" horiz-adv-x="2048" d="M1948 432l-84 -432h-1159v51q112 6 146 42.5t34 150.5v377h-389l-205 -385q-31 -55 -31 -93q0 -42 28 -60.5t107 -27.5l35 -4v-51h-422v51q43 6 68 25t56.5 66t100.5 171l437 797q3 5 7.5 14.5t6.5 12.5q57 96 57 127q0 37 -38.5 53t-139.5 22v45h1299v-411h-52 q-20 97 -38.5 145t-51.5 88q-85 107 -368 107q-83 0 -111.5 -12.5t-28.5 -49.5v-508q66 6 103.5 11t72.5 19.5t52 30.5t35 53.5t28.5 77.5t26.5 114h47v-693h-47q-15 100 -33 156.5t-54.5 94t-88.5 52t-142 19.5v-498q0 -66 31.5 -88t124.5 -22q258 0 377 125 q53 55 98.5 123.5t57.5 113.5h47zM885 702v594h-15l-329 -594h344z" />
<glyph unicode="&#xc7;" horiz-adv-x="1478" d="M1407 260q-145 -164 -275.5 -230.5t-310.5 -68.5l-41 -92q31 10 66 10q86 0 134 -37.5t48 -105.5q0 -85 -71 -133.5t-193 -48.5q-98 0 -199 36l33 76l12 -4q64 -24 109 -24q119 0 119 83q0 35 -25.5 54.5t-69.5 19.5q-26 0 -57 -8l-22 16l71 162l-6 2q-280 28 -454.5 226 t-174.5 487q0 155 54.5 291.5t148.5 234t226.5 153.5t283.5 56q142 0 317 -72q66 -28 95 -28t48 19.5t42 74.5h55v-479h-51q-54 117 -97.5 181t-109.5 122q-130 115 -272 115q-186 0 -281.5 -165.5t-95.5 -484.5q0 -297 88 -460q44 -80 133 -129.5t190 -49.5q98 0 185 37 q75 29 136 74.5t151 140.5z" />
<glyph unicode="&#xc8;" horiz-adv-x="1366" d="M1313 426l-82 -426h-1198v51q114 12 147 39t33 107v991q0 78 -37.5 108.5t-142.5 36.5v51h1181v-411h-51q-26 140 -76 211.5t-144 101t-265 29.5q-80 0 -106.5 -19t-26.5 -77v-476q165 -1 237 65t95 241h53v-693h-53q-19 178 -92 248t-240 70v-496q0 -66 35.5 -90.5 t134.5 -24.5q229 0 368 113q53 45 90 98t82 152h58zM856 1477h-137l-350 161q-59 28 -79 47.5t-20 51.5q0 36 33 59t86 23q68 0 131 -54z" />
<glyph unicode="&#xc9;" horiz-adv-x="1366" d="M1313 426l-82 -426h-1198v51q114 12 147 39t33 107v991q0 78 -37.5 108.5t-142.5 36.5v51h1181v-411h-51q-26 140 -76 211.5t-144 101t-265 29.5q-80 0 -106.5 -19t-26.5 -77v-476q165 -1 237 65t95 241h53v-693h-53q-19 178 -92 248t-240 70v-496q0 -66 35.5 -90.5 t134.5 -24.5q229 0 368 113q53 45 90 98t82 152h58zM993 1737q0 -32 -19.5 -51.5t-78.5 -47.5l-350 -161h-137l335 288q63 54 131 54q53 0 86 -23t33 -59z" />
<glyph unicode="&#xca;" horiz-adv-x="1366" d="M1313 426l-82 -426h-1198v51q114 12 147 39t33 107v991q0 78 -37.5 108.5t-142.5 36.5v51h1181v-411h-51q-26 140 -76 211.5t-144 101t-265 29.5q-80 0 -106.5 -19t-26.5 -77v-476q165 -1 237 65t95 241h53v-693h-53q-19 178 -92 248t-240 70v-496q0 -66 35.5 -90.5 t134.5 -24.5q229 0 368 113q53 45 90 98t82 152h58zM1047 1487h-140l-274 180l-277 -180h-137l299 325h227z" />
<glyph unicode="&#xcb;" horiz-adv-x="1366" d="M1313 426l-82 -426h-1198v51q114 12 147 39t33 107v991q0 78 -37.5 108.5t-142.5 36.5v51h1181v-411h-51q-26 140 -76 211.5t-144 101t-265 29.5q-80 0 -106.5 -19t-26.5 -77v-476q165 -1 237 65t95 241h53v-693h-53q-19 178 -92 248t-240 70v-496q0 -66 35.5 -90.5 t134.5 -24.5q229 0 368 113q53 45 90 98t82 152h58zM551 1647q0 -54 -38.5 -91.5t-94.5 -37.5q-54 0 -92.5 39.5t-38.5 93.5q0 53 39.5 92t91.5 39q54 0 93.5 -40t39.5 -95zM981 1647q0 -54 -39 -91.5t-96 -37.5q-54 0 -91.5 39t-37.5 96q0 51 39 90t90 39q56 0 95.5 -40 t39.5 -95z" />
<glyph unicode="&#xcc;" horiz-adv-x="796" d="M758 0h-717v51q115 10 152.5 39.5t37.5 106.5v991q0 78 -39.5 107.5t-150.5 37.5v51h717v-51q-114 -4 -154.5 -34.5t-40.5 -110.5v-991q0 -80 39 -109.5t156 -36.5v-51zM623 1477h-138l-350 161q-59 28 -78.5 47.5t-19.5 51.5q0 36 33 59t86 23q68 0 131 -54z" />
<glyph unicode="&#xcd;" horiz-adv-x="796" d="M758 0h-717v51q115 10 152.5 39.5t37.5 106.5v991q0 78 -39.5 107.5t-150.5 37.5v51h717v-51q-114 -4 -154.5 -34.5t-40.5 -110.5v-991q0 -80 39 -109.5t156 -36.5v-51zM760 1737q0 -32 -19.5 -51.5t-78.5 -47.5l-351 -161h-137l336 288q63 54 131 54q53 0 86 -23t33 -59 z" />
<glyph unicode="&#xce;" horiz-adv-x="796" d="M758 0h-717v51q115 10 152.5 39.5t37.5 106.5v991q0 78 -39.5 107.5t-150.5 37.5v51h717v-51q-114 -4 -154.5 -34.5t-40.5 -110.5v-991q0 -80 39 -109.5t156 -36.5v-51zM813 1487h-139l-275 180l-276 -180h-137l299 325h227z" />
<glyph unicode="&#xcf;" horiz-adv-x="796" d="M758 0h-717v51q115 10 152.5 39.5t37.5 106.5v991q0 78 -39.5 107.5t-150.5 37.5v51h717v-51q-114 -4 -154.5 -34.5t-40.5 -110.5v-991q0 -80 39 -109.5t156 -36.5v-51zM317 1647q0 -54 -38.5 -91.5t-94.5 -37.5q-54 0 -92.5 39.5t-38.5 93.5q0 53 39.5 92t91.5 39 q54 0 93.5 -40t39.5 -95zM748 1647q0 -54 -39.5 -91.5t-96.5 -37.5q-54 0 -91.5 39t-37.5 96q0 51 39 90t90 39q56 0 96 -40t40 -95z" />
<glyph unicode="&#xd0;" horiz-adv-x="1478" d="M1413 707q0 -318 -203 -512.5t-534 -194.5h-647v51q89 3 129.5 35t40.5 100v482h-187v96h187v432q0 70 -36 99t-134 38v51h624q355 0 557.5 -180.5t202.5 -496.5zM1057 676q0 264 -84 430q-104 209 -320 209q-88 0 -112 -35q-11 -14 -11 -61v-455h234v-96h-234v-478 q0 -69 25 -93.5t94 -24.5q196 0 301 141q50 69 78.5 193t28.5 270z" />
<glyph unicode="&#xd1;" horiz-adv-x="1478" d="M1436 1333q-100 -15 -130 -45.5t-30 -118.5v-1206h-57l-916 1114v-823q0 -109 38.5 -149.5t156.5 -53.5v-51h-465v51q112 13 146 44.5t34 119.5v971q-74 88 -108.5 117.5t-65.5 29.5v51h432l715 -878v624q0 109 -39 151t-152 52v51h441v-51zM1118 1780q-35 -134 -93 -197 t-146 -63q-63 0 -131 28l-60 27q-67 30 -89 37.5t-42 7.5q-39 0 -66.5 -26.5t-33.5 -69.5h-86q28 132 85 194t152 62q68 0 150 -39l82 -37q53 -25 80 -25q41 0 65.5 22.5t44.5 78.5h88z" />
<glyph unicode="&#xd2;" horiz-adv-x="1593" d="M1522 688q0 -209 -92 -375t-258 -259t-375 -93t-374.5 92.5t-258 258t-92.5 374.5q0 210 93.5 376.5t261 259.5t378.5 93q152 0 285.5 -55t228 -151t149 -231.5t54.5 -289.5zM1159 674q0 319 -93.5 496.5t-262.5 177.5q-180 0 -274.5 -174t-94.5 -506q0 -311 93 -475 t270 -164t269.5 165t92.5 480zM1030 1477h-137l-350 161q-59 28 -79 47.5t-20 51.5q0 36 33 59t86 23q68 0 131 -54z" />
<glyph unicode="&#xd3;" horiz-adv-x="1593" d="M1522 688q0 -209 -92 -375t-258 -259t-375 -93t-374.5 92.5t-258 258t-92.5 374.5q0 210 93.5 376.5t261 259.5t378.5 93q152 0 285.5 -55t228 -151t149 -231.5t54.5 -289.5zM1159 674q0 319 -93.5 496.5t-262.5 177.5q-180 0 -274.5 -174t-94.5 -506q0 -311 93 -475 t270 -164t269.5 165t92.5 480zM1167 1737q0 -32 -19.5 -51.5t-78.5 -47.5l-350 -161h-137l336 288q63 54 131 54q53 0 85.5 -23t32.5 -59z" />
<glyph unicode="&#xd4;" horiz-adv-x="1593" d="M1522 688q0 -209 -92 -375t-258 -259t-375 -93t-374.5 92.5t-258 258t-92.5 374.5q0 210 93.5 376.5t261 259.5t378.5 93q152 0 285.5 -55t228 -151t149 -231.5t54.5 -289.5zM1159 674q0 319 -93.5 496.5t-262.5 177.5q-180 0 -274.5 -174t-94.5 -506q0 -311 93 -475 t270 -164t269.5 165t92.5 480zM1221 1487h-140l-274 180l-277 -180h-137l299 325h228z" />
<glyph unicode="&#xd5;" horiz-adv-x="1593" d="M1522 688q0 -209 -92 -375t-258 -259t-375 -93t-374.5 92.5t-258 258t-92.5 374.5q0 210 93.5 376.5t261 259.5t378.5 93q152 0 285.5 -55t228 -151t149 -231.5t54.5 -289.5zM1159 674q0 319 -93.5 496.5t-262.5 177.5q-180 0 -274.5 -174t-94.5 -506q0 -311 93 -475 t270 -164t269.5 165t92.5 480zM1180 1780q-35 -133 -93.5 -196.5t-146.5 -63.5q-63 0 -131 28l-59 27q-66 29 -89 37t-43 8q-39 0 -66.5 -26.5t-33.5 -69.5h-86q28 132 85.5 194t152.5 62q67 0 149 -39l82 -37q53 -25 80 -25q41 0 66 22.5t45 78.5h88z" />
<glyph unicode="&#xd6;" horiz-adv-x="1593" d="M1522 688q0 -209 -92 -375t-258 -259t-375 -93t-374.5 92.5t-258 258t-92.5 374.5q0 210 93.5 376.5t261 259.5t378.5 93q152 0 285.5 -55t228 -151t149 -231.5t54.5 -289.5zM1159 674q0 319 -93.5 496.5t-262.5 177.5q-180 0 -274.5 -174t-94.5 -506q0 -311 93 -475 t270 -164t269.5 165t92.5 480zM725 1647q0 -54 -38.5 -91.5t-94.5 -37.5q-54 0 -92.5 39.5t-38.5 93.5q0 53 39.5 92t91.5 39q54 0 93.5 -40t39.5 -95zM1155 1647q0 -54 -39 -91.5t-96 -37.5q-54 0 -91.5 39t-37.5 96q0 51 39 90t90 39q56 0 95.5 -40t39.5 -95z" />
<glyph unicode="&#xd7;" horiz-adv-x="1167" d="M997 227l-129 -129l-284 287l-285 -287l-129 129l287 285l-287 285l129 129l285 -287l284 287l129 -129l-286 -285z" />
<glyph unicode="&#xd8;" horiz-adv-x="1593" d="M1522 688q0 -210 -92.5 -376t-258 -258.5t-374.5 -92.5q-110 0 -198 23t-185 77l-146 -213h-102l176 258q-91 78 -136.5 139.5t-80.5 153.5q-53 136 -53 287q0 209 92.5 375.5t259 260t375.5 93.5q105 0 190.5 -22t181.5 -74l129 190h103l-160 -235q74 -62 111 -103.5 t71 -99.5q97 -174 97 -383zM1065 1165q-54 98 -115.5 140.5t-152.5 42.5q-173 0 -268 -176t-95 -500q0 -115 9.5 -192.5t35.5 -170.5zM1159 678q0 125 -11.5 211t-41.5 184l-588 -860q53 -98 117.5 -141t161.5 -43q178 0 270 165t92 484z" />
<glyph unicode="&#xd9;" horiz-adv-x="1478" d="M1436 1333q-98 -15 -129 -49t-31 -125v-653q0 -148 -40.5 -260t-115.5 -172q-66 -54 -164.5 -83.5t-207.5 -29.5q-232 0 -383 111q-91 68 -127.5 154t-36.5 235v684q0 77 -13 112.5t-46.5 52t-108.5 23.5v51h692v-51q-128 -6 -163.5 -39.5t-35.5 -148.5v-684 q0 -209 71 -304.5t228 -95.5q184 0 272.5 109t88.5 336v624q0 112 -40.5 153t-160.5 50v51h451v-51zM1081 1477h-137l-350 161q-59 28 -78.5 47.5t-19.5 51.5q0 36 32.5 59t85.5 23q68 0 131 -54z" />
<glyph unicode="&#xda;" horiz-adv-x="1478" d="M1436 1333q-98 -15 -129 -49t-31 -125v-653q0 -148 -40.5 -260t-115.5 -172q-66 -54 -164.5 -83.5t-207.5 -29.5q-232 0 -383 111q-91 68 -127.5 154t-36.5 235v684q0 77 -13 112.5t-46.5 52t-108.5 23.5v51h692v-51q-128 -6 -163.5 -39.5t-35.5 -148.5v-684 q0 -209 71 -304.5t228 -95.5q184 0 272.5 109t88.5 336v624q0 112 -40.5 153t-160.5 50v51h451v-51zM1219 1737q0 -32 -20 -51.5t-79 -47.5l-350 -161h-137l336 288q63 54 131 54q53 0 86 -23t33 -59z" />
<glyph unicode="&#xdb;" horiz-adv-x="1478" d="M1436 1333q-98 -15 -129 -49t-31 -125v-653q0 -148 -40.5 -260t-115.5 -172q-66 -54 -164.5 -83.5t-207.5 -29.5q-232 0 -383 111q-91 68 -127.5 154t-36.5 235v684q0 77 -13 112.5t-46.5 52t-108.5 23.5v51h692v-51q-128 -6 -163.5 -39.5t-35.5 -148.5v-684 q0 -209 71 -304.5t228 -95.5q184 0 272.5 109t88.5 336v624q0 112 -40.5 153t-160.5 50v51h451v-51zM1272 1487h-139l-275 180l-276 -180h-138l299 325h228z" />
<glyph unicode="&#xdc;" horiz-adv-x="1478" d="M1436 1333q-98 -15 -129 -49t-31 -125v-653q0 -148 -40.5 -260t-115.5 -172q-66 -54 -164.5 -83.5t-207.5 -29.5q-232 0 -383 111q-91 68 -127.5 154t-36.5 235v684q0 77 -13 112.5t-46.5 52t-108.5 23.5v51h692v-51q-128 -6 -163.5 -39.5t-35.5 -148.5v-684 q0 -209 71 -304.5t228 -95.5q184 0 272.5 109t88.5 336v624q0 112 -40.5 153t-160.5 50v51h451v-51zM776 1647q0 -54 -38.5 -91.5t-94.5 -37.5q-54 0 -92.5 39.5t-38.5 93.5q0 53 39 92t92 39q54 0 93.5 -40t39.5 -95zM1206 1647q0 -54 -39 -91.5t-96 -37.5q-54 0 -91.5 39 t-37.5 96q0 51 39 90t90 39q55 0 95 -40t40 -95z" />
<glyph unicode="&#xdd;" horiz-adv-x="1478" d="M1432 1333q-52 -7 -84.5 -26t-55.5 -54l-391 -637v-376q0 -61 5 -92t27 -53t56 -30t101 -14v-51h-711v51q54 5 85 12t54 18t33 33t14 50t4 76v301l-374 680q-62 106 -164 112v51h686v-51l-51 -2q-63 0 -89 -13.5t-26 -47.5q0 -31 37 -96q10 -19 12 -25l246 -475l227 379 q80 132 80 194q0 44 -34.5 61t-137.5 25v51h451v-51zM1098 1737q0 -32 -20 -51.5t-79 -47.5l-350 -161h-137l336 288q63 54 131 54q53 0 86 -23t33 -59z" />
<glyph unicode="&#xde;" horiz-adv-x="1251" d="M1229 743q0 -198 -180 -309q-85 -50 -176.5 -64.5t-335.5 -15.5v-114q0 -61 4.5 -91t25.5 -52t53 -30t97 -16v-51h-684v51q46 8 49 8q72 9 97.5 47t25.5 134v905q0 108 -32.5 143.5t-139.5 44.5v51h684v-51q-67 -9 -98.5 -17.5t-52.5 -30.5t-25 -51.5t-4 -90.5v-25h135 q275 0 416 -95t141 -280zM877 735q0 166 -55.5 239t-182.5 73q-102 0 -102 -72v-549q109 0 167 12t95 43q78 69 78 254z" />
<glyph unicode="&#xdf;" horiz-adv-x="1138" d="M1059 397q0 -175 -113 -298.5t-274 -123.5q-49 0 -131 31l28 70l21 -15q21 -14 45 -14q72 0 98.5 74.5t26.5 277.5q0 257 -78 326q-42 34 -131 39v70q88 1 115.5 50t27.5 201q0 145 -34 209t-111 64q-59 0 -90 -41t-31 -117v-1200h-389v49q66 10 85 34t19 95v860 q0 165 119 271t305 106q175 0 291.5 -90t116.5 -225q0 -65 -31.5 -121t-89.5 -96q-40 -28 -82 -44.5t-117 -33.5q124 -37 187.5 -68t113.5 -78q103 -95 103 -262z" />
<glyph unicode="&#xe0;" d="M999 88q-59 -63 -111 -90t-118 -27q-75 0 -113 33t-55 111q-85 -77 -161 -110.5t-165 -33.5q-98 0 -161.5 61.5t-63.5 155.5q0 133 137 224q57 38 144 71t270 90v150q0 94 -41 137t-131 43q-55 0 -92 -22t-37 -54q0 -17 25 -45q36 -44 36 -88q0 -53 -39 -86t-100 -33 q-63 0 -98 36t-35 100q0 115 107 186.5t280 71.5q188 0 297 -75.5t109 -205.5v-534q0 -52 43 -52q13 0 22 9l21 20zM600 205v297q-250 -69 -250 -248q0 -61 29.5 -99t75.5 -38q37 0 70.5 20.5t74.5 67.5zM643 1059h-115l-290 180q-50 31 -66 52.5t-16 56.5q0 40 27 65t71 25 q56 0 108 -58z" />
<glyph unicode="&#xe1;" d="M999 88q-59 -63 -111 -90t-118 -27q-75 0 -113 33t-55 111q-85 -77 -161 -110.5t-165 -33.5q-98 0 -161.5 61.5t-63.5 155.5q0 133 137 224q57 38 144 71t270 90v150q0 94 -41 137t-131 43q-55 0 -92 -22t-37 -54q0 -17 25 -45q36 -44 36 -88q0 -53 -39 -86t-100 -33 q-63 0 -98 36t-35 100q0 115 107 186.5t280 71.5q188 0 297 -75.5t109 -205.5v-534q0 -52 43 -52q13 0 22 9l21 20zM600 205v297q-250 -69 -250 -248q0 -61 29.5 -99t75.5 -38q37 0 70.5 20.5t74.5 67.5zM801 1348q0 -35 -16 -56.5t-66 -52.5l-291 -180h-115l281 321 q52 58 108 58q44 0 71.5 -25t27.5 -65z" />
<glyph unicode="&#xe2;" d="M999 88q-59 -63 -111 -90t-118 -27q-75 0 -113 33t-55 111q-85 -77 -161 -110.5t-165 -33.5q-98 0 -161.5 61.5t-63.5 155.5q0 133 137 224q57 38 144 71t270 90v150q0 94 -41 137t-131 43q-55 0 -92 -22t-37 -54q0 -17 25 -45q36 -44 36 -88q0 -53 -39 -86t-100 -33 q-63 0 -98 36t-35 100q0 115 107 186.5t280 71.5q188 0 297 -75.5t109 -205.5v-534q0 -52 43 -52q13 0 22 9l21 20zM600 205v297q-250 -69 -250 -248q0 -61 29.5 -99t75.5 -38q37 0 70.5 20.5t74.5 67.5zM823 1069h-116l-230 201l-229 -201h-115l250 361h188z" />
<glyph unicode="&#xe3;" d="M999 88q-59 -63 -111 -90t-118 -27q-75 0 -113 33t-55 111q-85 -77 -161 -110.5t-165 -33.5q-98 0 -161.5 61.5t-63.5 155.5q0 133 137 224q57 38 144 71t270 90v150q0 94 -41 137t-131 43q-55 0 -92 -22t-37 -54q0 -17 25 -45q36 -44 36 -88q0 -53 -39 -86t-100 -33 q-63 0 -98 36t-35 100q0 115 107 186.5t280 71.5q188 0 297 -75.5t109 -205.5v-534q0 -52 43 -52q13 0 22 9l21 20zM600 205v297q-250 -69 -250 -248q0 -61 29.5 -99t75.5 -38q37 0 70.5 20.5t74.5 67.5zM852 1380q-35 -133 -93.5 -196.5t-146.5 -63.5q-60 0 -131 29l-59 27 q-67 30 -89 37.5t-42 7.5q-39 0 -67 -27t-34 -70h-86q28 132 85.5 194t152.5 62q68 0 150 -39l81 -36q53 -25 80 -25q41 0 66 22.5t45 77.5h88z" />
<glyph unicode="&#xe4;" d="M999 88q-59 -63 -111 -90t-118 -27q-75 0 -113 33t-55 111q-85 -77 -161 -110.5t-165 -33.5q-98 0 -161.5 61.5t-63.5 155.5q0 133 137 224q57 38 144 71t270 90v150q0 94 -41 137t-131 43q-55 0 -92 -22t-37 -54q0 -17 25 -45q36 -44 36 -88q0 -53 -39 -86t-100 -33 q-63 0 -98 36t-35 100q0 115 107 186.5t280 71.5q188 0 297 -75.5t109 -205.5v-534q0 -52 43 -52q13 0 22 9l21 20zM600 205v297q-250 -69 -250 -248q0 -61 29.5 -99t75.5 -38q37 0 70.5 20.5t74.5 67.5zM397 1247q0 -54 -38.5 -91.5t-94.5 -37.5q-54 0 -92.5 39.5 t-38.5 93.5q0 53 39.5 92t91.5 39q54 0 93.5 -40t39.5 -95zM827 1247q0 -54 -39 -91.5t-96 -37.5q-54 0 -91.5 39t-37.5 96q0 51 39 90t90 39q56 0 95.5 -40t39.5 -95z" />
<glyph unicode="&#xe5;" d="M999 88q-59 -63 -111 -90t-118 -27q-75 0 -113 33t-55 111q-85 -77 -161 -110.5t-165 -33.5q-98 0 -161.5 61.5t-63.5 155.5q0 133 137 224q57 38 144 71t270 90v150q0 94 -41 137t-131 43q-55 0 -92 -22t-37 -54q0 -17 25 -45q36 -44 36 -88q0 -53 -39 -86t-100 -33 q-63 0 -98 36t-35 100q0 115 107 186.5t280 71.5q188 0 297 -75.5t109 -205.5v-534q0 -52 43 -52q13 0 22 9l21 20zM600 205v297q-250 -69 -250 -248q0 -61 29.5 -99t75.5 -38q37 0 70.5 20.5t74.5 67.5zM696 1249q0 -91 -64 -154t-155 -63t-154 64.5t-63 156.5q0 87 65 151 t154 64t153 -65t64 -154zM598 1247q0 50 -36 86.5t-85 36.5q-47 0 -83 -37t-36 -84q0 -49 34.5 -84t82.5 -35q51 0 87 34.5t36 82.5z" />
<glyph unicode="&#xe6;" horiz-adv-x="1478" d="M1419 231q-91 -138 -186.5 -193.5t-241.5 -55.5q-107 0 -175 38.5t-126 133.5l-12 -13q-170 -170 -369 -170q-118 0 -179.5 57t-61.5 165q0 133 116 213q48 34 132 67t290 100v164q0 89 -37 127.5t-123 38.5q-58 0 -95.5 -20.5t-37.5 -51.5q0 -17 25 -45q21 -24 28 -41.5 t7 -46.5q0 -55 -33.5 -85.5t-95.5 -30.5q-65 0 -103.5 35.5t-38.5 95.5q0 110 106 183t267 73q101 0 166.5 -24t124.5 -81q57 55 118.5 80t141.5 25q113 0 202.5 -53.5t135.5 -147.5q26 -54 35.5 -109t9.5 -151h-520v-47q0 -177 55.5 -256.5t179.5 -79.5q75 0 133.5 32 t118.5 105zM606 166v342q-135 -50 -189.5 -107.5t-54.5 -152.5q0 -72 30 -110t87 -38q36 0 63.5 14t63.5 52zM1161 584v67q0 143 -28.5 199.5t-100.5 56.5q-80 0 -111.5 -71t-31.5 -252h272z" />
<glyph unicode="&#xe7;" horiz-adv-x="909" d="M881 186q-72 -97 -152 -147.5t-186 -65.5l-47 -104q31 10 65 10q86 0 134 -37.5t48 -105.5q0 -85 -71 -133.5t-193 -48.5q-97 0 -198 36l32 76l13 -4q64 -24 108 -24q119 0 119 83q0 35 -25 54.5t-69 19.5q-27 0 -58 -8l-22 16l76 170q-183 17 -293.5 149.5t-110.5 334.5 q0 223 137.5 367.5t348.5 144.5q133 0 224 -65.5t91 -160.5q0 -60 -37 -94.5t-102 -34.5q-58 0 -85.5 35.5t-29.5 112.5q0 64 -1.5 77t-8.5 27q-9 17 -30 28t-46 11q-80 0 -126 -91t-46 -249q0 -209 78.5 -332.5t212.5 -123.5q63 0 109.5 25t103.5 89z" />
<glyph unicode="&#xe8;" horiz-adv-x="909" d="M872 227q-99 -144 -186.5 -200t-212.5 -56q-191 0 -306.5 136t-115.5 360t118 363t310 139q176 0 277 -123q48 -61 72.5 -139.5t33.5 -204.5h-516q6 -106 20 -167.5t44 -111.5q61 -104 180 -104q66 0 118 31t115 106zM610 578v30q-6 154 -18 201q-24 96 -113 96 q-75 0 -107 -71.5t-36 -255.5h274zM645 1059h-115l-290 180q-50 31 -66 52.5t-16 56.5q0 40 27 65t71 25q57 0 109 -58z" />
<glyph unicode="&#xe9;" horiz-adv-x="909" d="M872 227q-99 -144 -186.5 -200t-212.5 -56q-191 0 -306.5 136t-115.5 360t118 363t310 139q176 0 277 -123q48 -61 72.5 -139.5t33.5 -204.5h-516q6 -106 20 -167.5t44 -111.5q61 -104 180 -104q66 0 118 31t115 106zM610 578v30q-6 154 -18 201q-24 96 -113 96 q-75 0 -107 -71.5t-36 -255.5h274zM803 1348q0 -35 -16 -56.5t-66 -52.5l-291 -180h-115l281 321q52 58 109 58q44 0 71 -25t27 -65z" />
<glyph unicode="&#xea;" horiz-adv-x="909" d="M872 227q-99 -144 -186.5 -200t-212.5 -56q-191 0 -306.5 136t-115.5 360t118 363t310 139q176 0 277 -123q48 -61 72.5 -139.5t33.5 -204.5h-516q6 -106 20 -167.5t44 -111.5q61 -104 180 -104q66 0 118 31t115 106zM610 578v30q-6 154 -18 201q-24 96 -113 96 q-75 0 -107 -71.5t-36 -255.5h274zM825 1069h-116l-230 201l-229 -201h-115l250 361h188z" />
<glyph unicode="&#xeb;" horiz-adv-x="909" d="M872 227q-99 -144 -186.5 -200t-212.5 -56q-191 0 -306.5 136t-115.5 360t118 363t310 139q176 0 277 -123q48 -61 72.5 -139.5t33.5 -204.5h-516q6 -106 20 -167.5t44 -111.5q61 -104 180 -104q66 0 118 31t115 106zM610 578v30q-6 154 -18 201q-24 96 -113 96 q-75 0 -107 -71.5t-36 -255.5h274zM399 1247q0 -54 -38.5 -91.5t-94.5 -37.5q-54 0 -92.5 39.5t-38.5 93.5q0 53 39.5 92t91.5 39q54 0 93.5 -40t39.5 -95zM829 1247q0 -54 -39 -91.5t-96 -37.5q-54 0 -91.5 39t-37.5 96q0 51 39 90t90 39q56 0 95.5 -40t39.5 -95z" />
<glyph unicode="&#xec;" horiz-adv-x="569" d="M522 0h-489v49q70 17 89 38.5t19 84.5v602q0 63 -20 85t-88 36v49h393v-778q0 -58 21 -83.5t75 -33.5v-49zM449 1059h-115l-291 180q-50 31 -66 52.5t-16 56.5q0 40 27 65t71 25q57 0 109 -58z" />
<glyph unicode="&#xed;" horiz-adv-x="569" d="M522 0h-489v49q70 17 89 38.5t19 84.5v602q0 63 -20 85t-88 36v49h393v-778q0 -58 21 -83.5t75 -33.5v-49zM606 1348q0 -35 -16 -56.5t-66 -52.5l-291 -180h-114l280 321q52 58 109 58q44 0 71 -25t27 -65z" />
<glyph unicode="&#xee;" horiz-adv-x="569" d="M522 0h-489v49q70 17 89 38.5t19 84.5v602q0 63 -20 85t-88 36v49h393v-778q0 -58 21 -83.5t75 -33.5v-49zM629 1069h-117l-229 201l-230 -201h-114l249 361h189z" />
<glyph unicode="&#xef;" horiz-adv-x="569" d="M522 0h-489v49q70 17 89 38.5t19 84.5v602q0 63 -20 85t-88 36v49h393v-778q0 -58 21 -83.5t75 -33.5v-49zM203 1247q0 -54 -38.5 -91.5t-94.5 -37.5q-54 0 -92.5 39.5t-38.5 93.5q0 53 39.5 92t91.5 39q54 0 93.5 -40t39.5 -95zM633 1247q0 -54 -39 -91.5t-96 -37.5 q-54 0 -91.5 39t-37.5 96q0 51 39 90t90 39q56 0 95.5 -40t39.5 -95z" />
<glyph unicode="&#xf0;" d="M975 600q0 -298 -121.5 -463.5t-339.5 -165.5q-200 0 -331.5 141.5t-131.5 356.5q0 213 132 356.5t327 143.5q64 0 105 -19t81 -65l4 6q-54 163 -176 285l-225 -115l-98 63l239 121q-132 94 -272 119l94 51q180 -17 328 -94l184 94l100 -61l-188 -97q93 -76 139.5 -137 t85.5 -155q64 -158 64 -365zM674 477q0 237 -35 332.5t-123 95.5q-94 0 -129 -97t-35 -353q0 -147 10 -227t35 -126q40 -67 119 -67q61 0 94.5 41t48.5 135.5t15 265.5z" />
<glyph unicode="&#xf1;" horiz-adv-x="1138" d="M1104 0h-481v49q52 6 74 33t22 84v496q0 169 -107 169q-73 0 -141 -71q-35 -32 -35 -47v-547q0 -57 22 -83.5t79 -33.5v-49h-494v49q69 14 89 36.5t20 86.5v602q0 64 -20.5 87t-88.5 34v49h391v-153q112 178 293 178q126 0 201.5 -78.5t75.5 -210.5v-514q0 -65 20 -89 t80 -28v-49zM952 1380q-35 -134 -93 -197t-146 -63q-60 0 -131 29l-60 27q-67 30 -89 37.5t-42 7.5q-39 0 -66.5 -27t-33.5 -70h-86q28 132 85 194t152 62q68 0 150 -39l82 -36q53 -25 80 -25q41 0 65.5 22t44.5 78h88z" />
<glyph unicode="&#xf2;" d="M975 469q0 -214 -131.5 -356t-329.5 -142q-201 0 -332 142t-131 362q0 209 134 351.5t329 142.5q198 0 329.5 -142.5t131.5 -357.5zM674 457q0 252 -34.5 350t-123.5 98q-65 0 -99.5 -42.5t-49.5 -141.5t-15 -283q0 -225 35.5 -314t126.5 -89q89 0 124.5 93t35.5 329z M680 1059h-115l-291 180q-49 31 -65 52.5t-16 56.5q0 40 27 65t71 25q56 0 108 -58z" />
<glyph unicode="&#xf3;" d="M975 469q0 -214 -131.5 -356t-329.5 -142q-201 0 -332 142t-131 362q0 209 134 351.5t329 142.5q198 0 329.5 -142.5t131.5 -357.5zM674 457q0 252 -34.5 350t-123.5 98q-65 0 -99.5 -42.5t-49.5 -141.5t-15 -283q0 -225 35.5 -314t126.5 -89q89 0 124.5 93t35.5 329z M838 1348q0 -35 -16 -56.5t-66 -52.5l-291 -180h-115l281 321q52 58 108 58q44 0 71.5 -25t27.5 -65z" />
<glyph unicode="&#xf4;" d="M975 469q0 -214 -131.5 -356t-329.5 -142q-201 0 -332 142t-131 362q0 209 134 351.5t329 142.5q198 0 329.5 -142.5t131.5 -357.5zM674 457q0 252 -34.5 350t-123.5 98q-65 0 -99.5 -42.5t-49.5 -141.5t-15 -283q0 -225 35.5 -314t126.5 -89q89 0 124.5 93t35.5 329z M860 1069h-117l-229 201l-229 -201h-115l250 361h188z" />
<glyph unicode="&#xf5;" d="M975 469q0 -214 -131.5 -356t-329.5 -142q-201 0 -332 142t-131 362q0 209 134 351.5t329 142.5q198 0 329.5 -142.5t131.5 -357.5zM674 457q0 252 -34.5 350t-123.5 98q-65 0 -99.5 -42.5t-49.5 -141.5t-15 -283q0 -225 35.5 -314t126.5 -89q89 0 124.5 93t35.5 329z M889 1380q-35 -133 -93.5 -196.5t-146.5 -63.5q-60 0 -131 29l-59 27q-67 30 -89 37.5t-42 7.5q-39 0 -67 -27t-34 -70h-86q28 132 85.5 194t152.5 62q67 0 149 -39l82 -36q53 -25 80 -25q41 0 66 22.5t45 77.5h88z" />
<glyph unicode="&#xf6;" d="M975 469q0 -214 -131.5 -356t-329.5 -142q-201 0 -332 142t-131 362q0 209 134 351.5t329 142.5q198 0 329.5 -142.5t131.5 -357.5zM674 457q0 252 -34.5 350t-123.5 98q-65 0 -99.5 -42.5t-49.5 -141.5t-15 -283q0 -225 35.5 -314t126.5 -89q89 0 124.5 93t35.5 329z M434 1247q0 -54 -38.5 -91.5t-94.5 -37.5q-54 0 -92.5 39.5t-38.5 93.5q0 53 39 92t92 39q54 0 93.5 -40t39.5 -95zM864 1247q0 -54 -39 -91.5t-96 -37.5q-54 0 -91.5 39t-37.5 96q0 51 39 90t90 39q55 0 95 -40t40 -95z" />
<glyph unicode="&#xf7;" horiz-adv-x="1167" d="M1077 422h-987v180h987v-180zM756 858q0 -70 -51 -121t-121 -51t-121 51t-51 121t51 121t121 51t121 -51t51 -121zM756 166q0 -70 -51 -121t-121 -51t-121 51t-51 121t51 121t121 51t121 -51t51 -121z" />
<glyph unicode="&#xf8;" d="M975 469q0 -215 -131.5 -356.5t-329.5 -141.5q-113 0 -219 56l-129 -215h-96l155 262q-92 86 -133 179.5t-41 215.5q0 215 132.5 357.5t332.5 142.5q112 0 211 -51l123 206h94l-149 -252q94 -85 137 -181t43 -222zM647 782q-20 66 -50 94.5t-81 28.5q-65 0 -99.5 -43 t-49.5 -143.5t-15 -288.5q0 -102 2 -143zM674 449l-4 215l-295 -500q20 -69 52.5 -99t86.5 -30q89 0 124.5 92.5t35.5 321.5z" />
<glyph unicode="&#xf9;" horiz-adv-x="1138" d="M1100 41l-127 -14q-102 -11 -154 -21t-117 -33v133q-90 -77 -153.5 -106t-142.5 -29q-128 0 -200.5 76t-72.5 211v516q0 64 -18.5 86.5t-81.5 34.5v49h385v-694q0 -79 26 -112.5t88 -33.5q44 0 80.5 20t87.5 71v579q0 66 -25.5 90.5t-101.5 30.5v49h412v-737 q0 -66 24 -91t91 -28v-47zM725 1059h-115l-291 180q-49 31 -65 52.5t-16 56.5q0 40 27 65t71 25q56 0 108 -58z" />
<glyph unicode="&#xfa;" horiz-adv-x="1138" d="M1100 41l-127 -14q-102 -11 -154 -21t-117 -33v133q-90 -77 -153.5 -106t-142.5 -29q-128 0 -200.5 76t-72.5 211v516q0 64 -18.5 86.5t-81.5 34.5v49h385v-694q0 -79 26 -112.5t88 -33.5q44 0 80.5 20t87.5 71v579q0 66 -25.5 90.5t-101.5 30.5v49h412v-737 q0 -66 24 -91t91 -28v-47zM883 1348q0 -35 -16 -56.5t-66 -52.5l-291 -180h-115l281 321q52 58 108 58q44 0 71.5 -25t27.5 -65z" />
<glyph unicode="&#xfb;" horiz-adv-x="1138" d="M1100 41l-127 -14q-102 -11 -154 -21t-117 -33v133q-90 -77 -153.5 -106t-142.5 -29q-128 0 -200.5 76t-72.5 211v516q0 64 -18.5 86.5t-81.5 34.5v49h385v-694q0 -79 26 -112.5t88 -33.5q44 0 80.5 20t87.5 71v579q0 66 -25.5 90.5t-101.5 30.5v49h412v-737 q0 -66 24 -91t91 -28v-47zM905 1069h-117l-229 201l-229 -201h-115l250 361h188z" />
<glyph unicode="&#xfc;" horiz-adv-x="1138" d="M1100 41l-127 -14q-102 -11 -154 -21t-117 -33v133q-90 -77 -153.5 -106t-142.5 -29q-128 0 -200.5 76t-72.5 211v516q0 64 -18.5 86.5t-81.5 34.5v49h385v-694q0 -79 26 -112.5t88 -33.5q44 0 80.5 20t87.5 71v579q0 66 -25.5 90.5t-101.5 30.5v49h412v-737 q0 -66 24 -91t91 -28v-47zM479 1247q0 -54 -38.5 -91.5t-94.5 -37.5q-54 0 -92.5 39.5t-38.5 93.5q0 53 39.5 92t91.5 39q54 0 93.5 -40t39.5 -95zM909 1247q0 -54 -39 -91.5t-96 -37.5q-54 0 -91.5 39t-37.5 96q0 51 39 90t90 39q56 0 95.5 -40t39.5 -95z" />
<glyph unicode="&#xfd;" d="M983 895q-47 -4 -70 -26t-49 -87l-305 -813q-53 -142 -88 -213.5t-68 -107.5q-68 -68 -172 -68q-87 0 -142.5 45.5t-55.5 116.5q0 58 37 94.5t94 36.5q53 0 86 -28t33 -72q0 -9 -4 -29l-3 -12q0 -14 11 -24.5t24 -10.5q35 0 72 45.5t63 122.5l37 108l-245 605 q-27 66 -78.5 176t-55.5 110q-9 14 -23 20.5t-48 10.5v49h512v-49l-33 -2q-76 -6 -76 -51q0 -12 5.5 -28t35.5 -93l148 -379l139 393q22 62 22 92q0 37 -23 51t-89 17v49h309v-49zM831 1348q0 -35 -16 -56.5t-65 -52.5l-291 -180h-115l281 321q52 58 108 58q44 0 71 -25 t27 -65z" />
<glyph unicode="&#xfe;" horiz-adv-x="1138" d="M1073 489q0 -227 -110.5 -371.5t-282.5 -144.5q-68 0 -118.5 25.5t-123.5 97.5v-289q0 -103 33 -141.5t127 -42.5v-43h-559v49q73 12 94 34t21 85v1469q0 61 -21 82.5t-92 35.5v49h397v-583q44 91 103 129.5t151 38.5q170 0 275.5 -133t105.5 -347zM770 461 q0 201 -38 296t-118 95q-69 0 -133 -70q-43 -46 -43 -73v-498q58 -125 162 -125q170 0 170 375z" />
<glyph unicode="&#xff;" d="M983 895q-47 -4 -70 -26t-49 -87l-305 -813q-53 -142 -88 -213.5t-68 -107.5q-68 -68 -172 -68q-87 0 -142.5 45.5t-55.5 116.5q0 58 37 94.5t94 36.5q53 0 86 -28t33 -72q0 -9 -4 -29l-3 -12q0 -14 11 -24.5t24 -10.5q35 0 72 45.5t63 122.5l37 108l-245 605 q-27 66 -78.5 176t-55.5 110q-9 14 -23 20.5t-48 10.5v49h512v-49l-33 -2q-76 -6 -76 -51q0 -12 5.5 -28t35.5 -93l148 -379l139 393q22 62 22 92q0 37 -23 51t-89 17v49h309v-49zM428 1247q0 -54 -38.5 -91.5t-94.5 -37.5q-54 0 -92.5 39.5t-38.5 93.5q0 53 39 92t92 39 q54 0 93.5 -40t39.5 -95zM858 1247q0 -54 -39 -91.5t-96 -37.5q-54 0 -91.5 39t-37.5 96q0 51 39 90t90 39q55 0 95 -40t40 -95z" />
<glyph unicode="&#x100;" horiz-adv-x="1478" d="M1411 0h-663v51l65 6q54 3 76 18.5t22 49.5q0 60 -94 278h-461l-30 -81q-60 -151 -60 -187q0 -40 38.5 -59t129.5 -25v-51h-416v51q52 9 80 29t54 65t67 146l455 1122h57l457 -1077q36 -83 58 -128.5t42 -81.5t38.5 -49.5t37 -19.5t47.5 -6v-51zM786 483l-206 498 l-193 -498h399zM1040 1575h-675v147h675v-147z" />
<glyph unicode="&#x101;" d="M999 88q-59 -63 -111 -90t-118 -27q-75 0 -113 33t-55 111q-85 -77 -161 -110.5t-165 -33.5q-98 0 -161.5 61.5t-63.5 155.5q0 133 137 224q57 38 144 71t270 90v150q0 94 -41 137t-131 43q-55 0 -92 -22t-37 -54q0 -17 25 -45q36 -44 36 -88q0 -53 -39 -86t-100 -33 q-63 0 -98 36t-35 100q0 115 107 186.5t280 71.5q188 0 297 -75.5t109 -205.5v-534q0 -52 43 -52q13 0 22 9l21 20zM600 205v297q-250 -69 -250 -248q0 -61 29.5 -99t75.5 -38q37 0 70.5 20.5t74.5 67.5zM815 1176h-676v147h676v-147z" />
<glyph unicode="&#x102;" horiz-adv-x="1478" d="M1411 0h-663v51l65 6q54 3 76 18.5t22 49.5q0 60 -94 278h-461l-30 -81q-60 -151 -60 -187q0 -40 38.5 -59t129.5 -25v-51h-416v51q52 9 80 29t54 65t67 146l455 1122h57l457 -1077q36 -83 58 -128.5t42 -81.5t38.5 -49.5t37 -19.5t47.5 -6v-51zM786 483l-206 498 l-193 -498h399zM1083 1817q0 -143 -101 -239.5t-277 -96.5q-178 0 -278.5 96.5t-100.5 239.5h98q20 -90 87.5 -127t193.5 -37t193 37t87 127h98z" />
<glyph unicode="&#x103;" d="M999 88q-59 -63 -111 -90t-118 -27q-75 0 -113 33t-55 111q-85 -77 -161 -110.5t-165 -33.5q-98 0 -161.5 61.5t-63.5 155.5q0 133 137 224q57 38 144 71t270 90v150q0 94 -41 137t-131 43q-55 0 -92 -22t-37 -54q0 -17 25 -45q36 -44 36 -88q0 -53 -39 -86t-100 -33 q-63 0 -98 36t-35 100q0 115 107 186.5t280 71.5q188 0 297 -75.5t109 -205.5v-534q0 -52 43 -52q13 0 22 9l21 20zM600 205v297q-250 -69 -250 -248q0 -61 29.5 -99t75.5 -38q37 0 70.5 20.5t74.5 67.5zM788 1417q-9 -79 -22 -124.5t-39 -84.5q-79 -125 -250 -125 q-168 0 -246 113q-32 43 -45 89.5t-18 131.5h90q17 -94 69 -136t150 -42q95 0 145 40.5t76 137.5h90z" />
<glyph unicode="&#x104;" horiz-adv-x="1478" d="M1411 -328q-33 -82 -95 -133t-136 -51q-70 0 -129.5 49.5t-59.5 143.5q0 173 183 319h-426v51l65 6q54 3 76 18.5t22 49.5q0 60 -94 278h-461l-30 -81q-60 -151 -60 -187q0 -40 38.5 -59t129.5 -25v-51h-416v51q52 9 80 29t54 65t67 146l455 1122h57l457 -1077 q36 -83 58 -128.5t42 -81.5t38.5 -49.5t37 -19.5t47.5 -6v-51q-124 0 -174 -66q-68 -96 -68 -188q0 -51 27 -84t68 -33q67 0 116 68zM786 483l-206 498l-193 -498h399z" />
<glyph unicode="&#x105;" d="M999 -328q-33 -82 -95 -133t-136 -51q-70 0 -129 49.5t-59 143.5q0 158 149 292q-54 7 -83.5 40.5t-43.5 101.5q-85 -77 -161 -110.5t-165 -33.5q-98 0 -161.5 61.5t-63.5 155.5q0 133 137 224q57 38 144 71t270 90v150q0 94 -41 137t-131 43q-55 0 -92 -22t-37 -54 q0 -17 25 -45q36 -44 36 -88q0 -53 -39 -86t-100 -33q-63 0 -98 36t-35 100q0 115 107 186.5t280 71.5q188 0 297 -75.5t109 -205.5v-534q0 -52 43 -52q13 0 22 9l21 20l30 -43q-21 -23 -55 -53q-6 -5 -25 -21t-27.5 -23t-25 -21.5t-25.5 -23.5t-18.5 -20t-15.5 -20 q-49 -79 -49 -160q0 -51 26.5 -84t67.5 -33q68 0 117 68zM600 205v297q-250 -69 -250 -248q0 -61 29.5 -99t75.5 -38q37 0 70.5 20.5t74.5 67.5z" />
<glyph unicode="&#x106;" horiz-adv-x="1478" d="M1407 260q-155 -170 -280 -234.5t-302 -64.5q-210 0 -375.5 91t-257.5 255t-92 373q0 155 54.5 291.5t148.5 234t226.5 153.5t283.5 56q142 0 317 -72q66 -28 95 -28t48 19.5t42 74.5h55v-479h-51q-54 117 -97.5 181t-109.5 122q-130 115 -272 115q-186 0 -281.5 -165.5 t-95.5 -484.5q0 -297 88 -460q44 -80 133 -129.5t190 -49.5q98 0 185 37q75 29 136 74.5t151 140.5zM1176 1737q0 -32 -20 -51.5t-79 -47.5l-350 -161h-137l336 288q63 54 131 54q53 0 86 -23t33 -59z" />
<glyph unicode="&#x107;" horiz-adv-x="909" d="M881 186q-89 -114 -181 -164.5t-211 -50.5q-192 0 -315 136t-123 350q0 223 137.5 367.5t348.5 144.5q133 0 224 -65.5t91 -160.5q0 -60 -37 -94.5t-102 -34.5q-58 0 -85.5 35.5t-29.5 112.5q0 64 -1.5 77t-8.5 27q-9 17 -30 28t-46 11q-80 0 -126 -91t-46 -249 q0 -209 78.5 -332.5t212.5 -123.5q63 0 109.5 25t103.5 89zM813 1348q0 -35 -16 -56.5t-66 -52.5l-291 -180h-114l280 321q52 58 109 58q44 0 71 -25t27 -65z" />
<glyph unicode="&#x108;" horiz-adv-x="1478" d="M1407 260q-155 -170 -280 -234.5t-302 -64.5q-210 0 -375.5 91t-257.5 255t-92 373q0 155 54.5 291.5t148.5 234t226.5 153.5t283.5 56q142 0 317 -72q66 -28 95 -28t48 19.5t42 74.5h55v-479h-51q-54 117 -97.5 181t-109.5 122q-130 115 -272 115q-186 0 -281.5 -165.5 t-95.5 -484.5q0 -297 88 -460q44 -80 133 -129.5t190 -49.5q98 0 185 37q75 29 136 74.5t151 140.5zM1229 1487h-139l-275 180l-276 -180h-138l299 325h228z" />
<glyph unicode="&#x109;" horiz-adv-x="909" d="M881 186q-89 -114 -181 -164.5t-211 -50.5q-192 0 -315 136t-123 350q0 223 137.5 367.5t348.5 144.5q133 0 224 -65.5t91 -160.5q0 -60 -37 -94.5t-102 -34.5q-58 0 -85.5 35.5t-29.5 112.5q0 64 -1.5 77t-8.5 27q-9 17 -30 28t-46 11q-80 0 -126 -91t-46 -249 q0 -209 78.5 -332.5t212.5 -123.5q63 0 109.5 25t103.5 89zM836 1069h-117l-230 201l-229 -201h-115l250 361h189z" />
<glyph unicode="&#x10a;" horiz-adv-x="1478" d="M1407 260q-155 -170 -280 -234.5t-302 -64.5q-210 0 -375.5 91t-257.5 255t-92 373q0 155 54.5 291.5t148.5 234t226.5 153.5t283.5 56q142 0 317 -72q66 -28 95 -28t48 19.5t42 74.5h55v-479h-51q-54 117 -97.5 181t-109.5 122q-130 115 -272 115q-186 0 -281.5 -165.5 t-95.5 -484.5q0 -297 88 -460q44 -80 133 -129.5t190 -49.5q98 0 185 37q75 29 136 74.5t151 140.5zM969 1649q0 -67 -46 -112.5t-112 -45.5t-112 45.5t-46 112.5t46 112t112 45t112 -45t46 -112z" />
<glyph unicode="&#x10b;" horiz-adv-x="909" d="M881 186q-89 -114 -181 -164.5t-211 -50.5q-192 0 -315 136t-123 350q0 223 137.5 367.5t348.5 144.5q133 0 224 -65.5t91 -160.5q0 -60 -37 -94.5t-102 -34.5q-58 0 -85.5 35.5t-29.5 112.5q0 64 -1.5 77t-8.5 27q-9 17 -30 28t-46 11q-80 0 -126 -91t-46 -249 q0 -209 78.5 -332.5t212.5 -123.5q63 0 109.5 25t103.5 89zM645 1249q0 -67 -46 -112t-112 -45t-111.5 45t-45.5 112t45.5 112.5t111.5 45.5t112 -45.5t46 -112.5z" />
<glyph unicode="&#x10c;" horiz-adv-x="1478" d="M1407 260q-155 -170 -280 -234.5t-302 -64.5q-210 0 -375.5 91t-257.5 255t-92 373q0 155 54.5 291.5t148.5 234t226.5 153.5t283.5 56q142 0 317 -72q66 -28 95 -28t48 19.5t42 74.5h55v-479h-51q-54 117 -97.5 181t-109.5 122q-130 115 -272 115q-186 0 -281.5 -165.5 t-95.5 -484.5q0 -297 88 -460q44 -80 133 -129.5t190 -49.5q98 0 185 37q75 29 136 74.5t151 140.5zM1227 1812l-299 -325h-228l-301 325h140l274 -180l277 180h137z" />
<glyph unicode="&#x10d;" horiz-adv-x="909" d="M881 186q-89 -114 -181 -164.5t-211 -50.5q-192 0 -315 136t-123 350q0 223 137.5 367.5t348.5 144.5q133 0 224 -65.5t91 -160.5q0 -60 -37 -94.5t-102 -34.5q-58 0 -85.5 35.5t-29.5 112.5q0 64 -1.5 77t-8.5 27q-9 17 -30 28t-46 11q-80 0 -126 -91t-46 -249 q0 -209 78.5 -332.5t212.5 -123.5q63 0 109.5 25t103.5 89zM836 1430l-252 -361h-189l-250 361h115l229 -203l230 203h117z" />
<glyph unicode="&#x10e;" horiz-adv-x="1478" d="M1413 707q0 -318 -203 -512.5t-534 -194.5h-647v51q89 3 129.5 35t40.5 100v1010q0 70 -36 99t-134 38v51h624q355 0 557.5 -180.5t202.5 -496.5zM1057 676q0 264 -84 430q-104 209 -322 209q-121 0 -121 -72v-1053q0 -69 25 -93.5t94 -24.5q196 0 301 141 q50 69 78.5 193t28.5 270zM1090 1812l-299 -325h-228l-301 325h139l275 -180l276 180h138z" />
<glyph unicode="&#x10f;" horiz-adv-x="1138" d="M1094 41l-127 -16q-149 -16 -273 -52v133q-72 -76 -131 -105.5t-141 -29.5q-161 0 -266 136.5t-105 345.5q0 222 112 369t281 147q70 0 124 -28t120 -99v375q0 70 -26.5 90t-129.5 28v49h441v-1177q0 -65 25.5 -90t95.5 -29v-47zM688 229v498q-22 58 -65.5 92.5 t-94.5 34.5q-89 0 -131.5 -93.5t-42.5 -291.5q0 -195 39 -289t121 -94q68 0 129 70q18 20 31.5 42t13.5 31zM1401 1169q0 -120 -72.5 -215t-232.5 -186l-21 39q104 73 152.5 132.5t48.5 113.5q0 15 -11 27t-24 12q-8 0 -14 -2q-12 -3 -27 -3q-63 0 -100 40t-37 106 q0 69 42.5 110t111.5 41q83 0 133.5 -59t50.5 -156z" />
<glyph unicode="&#x110;" horiz-adv-x="1478" d="M1413 707q0 -318 -203 -512.5t-534 -194.5h-647v51q89 3 129.5 35t40.5 100v482h-187v96h187v432q0 70 -36 99t-134 38v51h624q355 0 557.5 -180.5t202.5 -496.5zM1057 676q0 264 -84 430q-104 209 -320 209q-88 0 -112 -35q-11 -14 -11 -61v-455h234v-96h-234v-478 q0 -69 25 -93.5t94 -24.5q196 0 301 141q50 69 78.5 193t28.5 270z" />
<glyph unicode="&#x111;" horiz-adv-x="1138" d="M1094 41l-127 -16q-149 -16 -273 -52v133q-72 -76 -131 -105.5t-141 -29.5q-161 0 -266 136.5t-105 345.5q0 222 112 369t281 147q70 0 124 -28t120 -99v274h-188v90h188v11q0 70 -26.5 90t-129.5 28v49h441v-178h121v-90h-121v-909q0 -65 25.5 -90t95.5 -29v-47z M688 229v498q-22 58 -65.5 92.5t-94.5 34.5q-89 0 -131.5 -93.5t-42.5 -291.5q0 -195 39 -289t121 -94q68 0 129 70q18 20 31.5 42t13.5 31z" />
<glyph unicode="&#x112;" horiz-adv-x="1366" d="M1313 426l-82 -426h-1198v51q114 12 147 39t33 107v991q0 78 -37.5 108.5t-142.5 36.5v51h1181v-411h-51q-26 140 -76 211.5t-144 101t-265 29.5q-80 0 -106.5 -19t-26.5 -77v-476q165 -1 237 65t95 241h53v-693h-53q-19 178 -92 248t-240 70v-496q0 -66 35.5 -90.5 t134.5 -24.5q229 0 368 113q53 45 90 98t82 152h58zM969 1575h-676v147h676v-147z" />
<glyph unicode="&#x113;" horiz-adv-x="909" d="M872 227q-99 -144 -186.5 -200t-212.5 -56q-191 0 -306.5 136t-115.5 360t118 363t310 139q176 0 277 -123q48 -61 72.5 -139.5t33.5 -204.5h-516q6 -106 20 -167.5t44 -111.5q61 -104 180 -104q66 0 118 31t115 106zM610 578v30q-6 154 -18 201q-24 96 -113 96 q-75 0 -107 -71.5t-36 -255.5h274zM817 1176h-676v147h676v-147z" />
<glyph unicode="&#x114;" horiz-adv-x="1366" d="M1313 426l-82 -426h-1198v51q114 12 147 39t33 107v991q0 78 -37.5 108.5t-142.5 36.5v51h1181v-411h-51q-26 140 -76 211.5t-144 101t-265 29.5q-80 0 -106.5 -19t-26.5 -77v-476q165 -1 237 65t95 241h53v-693h-53q-19 178 -92 248t-240 70v-496q0 -66 35.5 -90.5 t134.5 -24.5q229 0 368 113q53 45 90 98t82 152h58zM1012 1817q0 -143 -101.5 -239.5t-277.5 -96.5q-178 0 -278.5 96.5t-100.5 239.5h98q20 -90 87.5 -127t193.5 -37t193 37t87 127h99z" />
<glyph unicode="&#x115;" horiz-adv-x="909" d="M872 227q-99 -144 -186.5 -200t-212.5 -56q-191 0 -306.5 136t-115.5 360t118 363t310 139q176 0 277 -123q48 -61 72.5 -139.5t33.5 -204.5h-516q6 -106 20 -167.5t44 -111.5q61 -104 180 -104q66 0 118 31t115 106zM610 578v30q-6 154 -18 201q-24 96 -113 96 q-75 0 -107 -71.5t-36 -255.5h274zM791 1417q-9 -78 -22.5 -123.5t-39.5 -85.5q-79 -125 -250 -125q-168 0 -246 113q-32 43 -45 89.5t-18 131.5h90q17 -94 69 -136t150 -42q95 0 145 40.5t76 137.5h91z" />
<glyph unicode="&#x116;" horiz-adv-x="1366" d="M1313 426l-82 -426h-1198v51q114 12 147 39t33 107v991q0 78 -37.5 108.5t-142.5 36.5v51h1181v-411h-51q-26 140 -76 211.5t-144 101t-265 29.5q-80 0 -106.5 -19t-26.5 -77v-476q165 -1 237 65t95 241h53v-693h-53q-19 178 -92 248t-240 70v-496q0 -66 35.5 -90.5 t134.5 -24.5q229 0 368 113q53 45 90 98t82 152h58zM786 1649q0 -67 -45.5 -112.5t-111.5 -45.5t-112 45.5t-46 112.5t46 112t112 45t111.5 -45t45.5 -112z" />
<glyph unicode="&#x117;" horiz-adv-x="909" d="M872 227q-99 -144 -186.5 -200t-212.5 -56q-191 0 -306.5 136t-115.5 360t118 363t310 139q176 0 277 -123q48 -61 72.5 -139.5t33.5 -204.5h-516q6 -106 20 -167.5t44 -111.5q61 -104 180 -104q66 0 118 31t115 106zM610 578v30q-6 154 -18 201q-24 96 -113 96 q-75 0 -107 -71.5t-36 -255.5h274zM635 1249q0 -67 -46 -112t-112 -45t-112 45t-46 112t46 112.5t112 45.5t112 -45.5t46 -112.5z" />
<glyph unicode="&#x118;" horiz-adv-x="1366" d="M1313 426l-82 -426h-33q-48 0 -90.5 -25.5t-69.5 -68.5q-49 -79 -49 -160q0 -51 26.5 -84t67.5 -33q68 0 117 68l31 -25q-33 -82 -95 -133t-137 -51q-70 0 -129 49.5t-59 143.5q0 173 182 319h-960v51q114 12 147 39t33 107v991q0 78 -37.5 108.5t-142.5 36.5v51h1181 v-411h-51q-26 140 -76 211.5t-144 101t-265 29.5q-80 0 -106.5 -19t-26.5 -77v-476q165 -1 237 65t95 241h53v-693h-53q-19 178 -92 248t-240 70v-496q0 -66 35.5 -90.5t134.5 -24.5q229 0 368 113q53 45 90 98t82 152h58z" />
<glyph unicode="&#x119;" horiz-adv-x="909" d="M872 227q-78 -114 -149 -174q-104 -81 -145 -147q-50 -81 -50 -160q0 -51 27 -84t68 -33q67 0 116 68l31 -25q-33 -82 -95 -133t-136 -51q-70 0 -129.5 49.5t-59.5 143.5q0 157 148 290h-25q-191 0 -306.5 136t-115.5 360t118 363t310 139q176 0 277 -123 q48 -61 72.5 -139.5t33.5 -204.5h-516q6 -106 20 -167.5t44 -111.5q61 -104 180 -104q66 0 118 31t115 106zM610 578v30q-6 154 -18 201q-24 96 -113 96q-75 0 -107 -71.5t-36 -255.5h274z" />
<glyph unicode="&#x11a;" horiz-adv-x="1366" d="M1313 426l-82 -426h-1198v51q114 12 147 39t33 107v991q0 78 -37.5 108.5t-142.5 36.5v51h1181v-411h-51q-26 140 -76 211.5t-144 101t-265 29.5q-80 0 -106.5 -19t-26.5 -77v-476q165 -1 237 65t95 241h53v-693h-53q-19 178 -92 248t-240 70v-496q0 -66 35.5 -90.5 t134.5 -24.5q229 0 368 113q53 45 90 98t82 152h58zM1044 1812l-299 -325h-227l-301 325h139l275 -180l276 180h137z" />
<glyph unicode="&#x11b;" horiz-adv-x="909" d="M872 227q-99 -144 -186.5 -200t-212.5 -56q-191 0 -306.5 136t-115.5 360t118 363t310 139q176 0 277 -123q48 -61 72.5 -139.5t33.5 -204.5h-516q6 -106 20 -167.5t44 -111.5q61 -104 180 -104q66 0 118 31t115 106zM610 578v30q-6 154 -18 201q-24 96 -113 96 q-75 0 -107 -71.5t-36 -255.5h274zM825 1430l-252 -361h-188l-250 361h115l229 -203l230 203h116z" />
<glyph unicode="&#x11c;" horiz-adv-x="1593" d="M1546 537q-115 -12 -145.5 -45t-30.5 -144v-260q-98 -58 -252 -92.5t-313 -34.5t-295 53t-231 147t-149 227.5t-54 289.5q0 208 92.5 377t255.5 264.5t364 95.5q140 0 318 -72q63 -28 94 -28q29 0 48.5 20t41.5 74h56v-479h-52q-54 117 -97.5 181t-109.5 122 q-133 115 -272 115q-186 0 -281.5 -167t-95.5 -489q0 -366 133 -536q51 -66 118.5 -96.5t164.5 -30.5q103 0 150 35.5t47 113.5v215q0 84 -37.5 110.5t-169.5 33.5v51h702v-51zM1204 1487h-139l-274 180l-277 -180h-137l299 325h227z" />
<glyph unicode="&#x11d;" d="M989 -113q0 -152 -132.5 -230.5t-387.5 -78.5q-194 0 -303 50t-109 139q0 126 197 153q-98 35 -133 70t-35 98q0 157 244 240q-71 30 -108.5 54.5t-71.5 61.5q-74 90 -74 195q0 146 116.5 238t299.5 92q106 0 229 -45h266v-109h-166q82 -82 82 -201q0 -165 -139 -245 q-53 -31 -99 -42.5t-118 -11.5l-92 2q-61 0 -100.5 -30t-39.5 -76q0 -43 41 -57.5t164 -14.5h133q157 0 246.5 -67t89.5 -185zM827 -209q0 103 -163 103h-355q-43 -35 -57 -58t-14 -55q0 -137 274 -137q152 0 233.5 38t81.5 109zM627 637q0 143 -31.5 205.5t-103.5 62.5 t-104 -62t-32 -206q0 -143 31.5 -203.5t104.5 -60.5q72 0 103.5 61t31.5 203zM838 1069h-117l-229 201l-230 -201h-115l250 361h189z" />
<glyph unicode="&#x11e;" horiz-adv-x="1593" d="M1546 537q-115 -12 -145.5 -45t-30.5 -144v-260q-98 -58 -252 -92.5t-313 -34.5t-295 53t-231 147t-149 227.5t-54 289.5q0 208 92.5 377t255.5 264.5t364 95.5q140 0 318 -72q63 -28 94 -28q29 0 48.5 20t41.5 74h56v-479h-52q-54 117 -97.5 181t-109.5 122 q-133 115 -272 115q-186 0 -281.5 -167t-95.5 -489q0 -366 133 -536q51 -66 118.5 -96.5t164.5 -30.5q103 0 150 35.5t47 113.5v215q0 84 -37.5 110.5t-169.5 33.5v51h702v-51zM1169 1817q0 -143 -101 -239.5t-277 -96.5q-178 0 -278.5 96.5t-100.5 239.5h98 q20 -90 87.5 -127t193.5 -37t193 37t87 127h98z" />
<glyph unicode="&#x11f;" d="M989 -113q0 -152 -132.5 -230.5t-387.5 -78.5q-194 0 -303 50t-109 139q0 126 197 153q-98 35 -133 70t-35 98q0 157 244 240q-71 30 -108.5 54.5t-71.5 61.5q-74 90 -74 195q0 146 116.5 238t299.5 92q106 0 229 -45h266v-109h-166q82 -82 82 -201q0 -165 -139 -245 q-53 -31 -99 -42.5t-118 -11.5l-92 2q-61 0 -100.5 -30t-39.5 -76q0 -43 41 -57.5t164 -14.5h133q157 0 246.5 -67t89.5 -185zM827 -209q0 103 -163 103h-355q-43 -35 -57 -58t-14 -55q0 -137 274 -137q152 0 233.5 38t81.5 109zM627 637q0 143 -31.5 205.5t-103.5 62.5 t-104 -62t-32 -206q0 -143 31.5 -203.5t104.5 -60.5q72 0 103.5 61t31.5 203zM803 1417q-9 -78 -22.5 -123.5t-39.5 -85.5q-79 -125 -249 -125q-168 0 -246 113q-32 43 -46 89.5t-18 131.5h90q17 -94 69.5 -136t150.5 -42q95 0 145 40.5t76 137.5h90z" />
<glyph unicode="&#x120;" horiz-adv-x="1593" d="M1546 537q-115 -12 -145.5 -45t-30.5 -144v-260q-98 -58 -252 -92.5t-313 -34.5t-295 53t-231 147t-149 227.5t-54 289.5q0 208 92.5 377t255.5 264.5t364 95.5q140 0 318 -72q63 -28 94 -28q29 0 48.5 20t41.5 74h56v-479h-52q-54 117 -97.5 181t-109.5 122 q-133 115 -272 115q-186 0 -281.5 -167t-95.5 -489q0 -366 133 -536q51 -66 118.5 -96.5t164.5 -30.5q103 0 150 35.5t47 113.5v215q0 84 -37.5 110.5t-169.5 33.5v51h702v-51zM944 1649q0 -67 -46 -112.5t-112 -45.5t-111.5 45.5t-45.5 112.5t45.5 112t111.5 45t112 -45 t46 -112z" />
<glyph unicode="&#x121;" d="M989 -113q0 -152 -132.5 -230.5t-387.5 -78.5q-194 0 -303 50t-109 139q0 126 197 153q-98 35 -133 70t-35 98q0 157 244 240q-71 30 -108.5 54.5t-71.5 61.5q-74 90 -74 195q0 146 116.5 238t299.5 92q106 0 229 -45h266v-109h-166q82 -82 82 -201q0 -165 -139 -245 q-53 -31 -99 -42.5t-118 -11.5l-92 2q-61 0 -100.5 -30t-39.5 -76q0 -43 41 -57.5t164 -14.5h133q157 0 246.5 -67t89.5 -185zM827 -209q0 103 -163 103h-355q-43 -35 -57 -58t-14 -55q0 -137 274 -137q152 0 233.5 38t81.5 109zM627 637q0 143 -31.5 205.5t-103.5 62.5 t-104 -62t-32 -206q0 -143 31.5 -203.5t104.5 -60.5q72 0 103.5 61t31.5 203zM647 1249q0 -67 -46 -112t-112 -45t-111.5 45t-45.5 112t45.5 112.5t111.5 45.5t112 -45.5t46 -112.5z" />
<glyph unicode="&#x122;" horiz-adv-x="1593" d="M1546 537q-115 -12 -145.5 -45t-30.5 -144v-260q-98 -58 -252 -92.5t-313 -34.5t-295 53t-231 147t-149 227.5t-54 289.5q0 208 92.5 377t255.5 264.5t364 95.5q140 0 318 -72q63 -28 94 -28q29 0 48.5 20t41.5 74h56v-479h-52q-54 117 -97.5 181t-109.5 122 q-133 115 -272 115q-186 0 -281.5 -167t-95.5 -489q0 -366 133 -536q51 -66 118.5 -96.5t164.5 -30.5q103 0 150 35.5t47 113.5v215q0 84 -37.5 110.5t-169.5 33.5v51h702v-51zM958 -297q0 -120 -72.5 -215t-232.5 -186l-20 39q104 74 152.5 132.5t48.5 112.5q0 15 -11 27 t-24 12q-9 0 -15 -2q-8 -2 -26 -2q-63 0 -100 40t-37 106q0 69 42 110t111 41q83 0 133.5 -59t50.5 -156z" />
<glyph unicode="&#x123;" d="M662 1139q0 -69 -42.5 -110.5t-111.5 -41.5q-83 0 -133.5 59t-50.5 156q0 120 72.5 215.5t232.5 186.5l20 -39q-104 -73 -152 -132.5t-48 -113.5q0 -15 10.5 -27t23.5 -12q9 0 15 2q8 2 26 2q63 0 100.5 -39.5t37.5 -105.5zM989 -113q0 -152 -132.5 -230.5t-387.5 -78.5 q-194 0 -303 50t-109 139q0 126 197 153q-98 35 -133 70t-35 98q0 157 244 240q-71 30 -108.5 54.5t-71.5 61.5q-74 90 -74 195q0 146 116.5 238t299.5 92q106 0 229 -45h266v-109h-166q82 -82 82 -201q0 -165 -139 -245q-53 -31 -99 -42.5t-118 -11.5l-92 2 q-61 0 -100.5 -30t-39.5 -76q0 -43 41 -57.5t164 -14.5h133q157 0 246.5 -67t89.5 -185zM827 -209q0 103 -163 103h-355q-43 -35 -57 -58t-14 -55q0 -137 274 -137q152 0 233.5 38t81.5 109zM627 637q0 143 -31.5 205.5t-103.5 62.5t-104 -62t-32 -206q0 -143 31.5 -203.5 t104.5 -60.5q72 0 103.5 61t31.5 203z" />
<glyph unicode="&#x124;" horiz-adv-x="1593" d="M1554 0h-696v51q112 12 148 41t36 105v471h-493v-471q0 -76 36 -105t148 -41v-51h-690v51q107 13 140.5 42t33.5 104v991q0 77 -35.5 106.5t-138.5 38.5v51h690v-51q-107 -7 -145.5 -37.5t-38.5 -107.5v-424h493v424q0 77 -38.5 107.5t-145.5 37.5v51h696v-51 q-104 -8 -142 -38.5t-38 -106.5v-991q0 -75 35 -104t145 -42v-51zM1210 1487h-139l-274 180l-277 -180h-137l299 325h227z" />
<glyph unicode="&#x125;" horiz-adv-x="1138" d="M1094 0h-482v49q52 6 74.5 33t22.5 84v496q0 169 -107 169q-73 0 -141 -71q-35 -32 -35 -47v-547q0 -58 22 -84t78 -33v-49h-493v49q69 13 88.5 35.5t19.5 87.5v1045q0 63 -19 84t-89 34v49h393v-575q79 89 144 124.5t147 35.5q126 0 201 -78.5t75 -210.5v-508 q0 -64 22.5 -91t78.5 -32v-49zM985 1487h-139l-275 180l-276 -180h-137l299 325h227z" />
<glyph unicode="&#x126;" horiz-adv-x="1593" d="M1554 0h-696v51q112 12 148 41t36 105v471h-493v-471q0 -76 36 -105t148 -41v-51h-690v51q107 13 140.5 42t33.5 104v811h-174v61h174v119q0 77 -35.5 106.5t-138.5 38.5v51h690v-51q-107 -7 -145.5 -37.5t-38.5 -107.5v-119h493v119q0 77 -38.5 107.5t-145.5 37.5v51 h696v-51q-104 -8 -142 -38.5t-38 -106.5v-119h180v-61h-180v-811q0 -75 35 -104t145 -42v-51zM1042 764v244h-493v-244h493z" />
<glyph unicode="&#x127;" horiz-adv-x="1241" d="M1151 0h-481v49q52 6 74 33t22 84v496q0 169 -107 169q-73 0 -141 -71q-35 -32 -35 -47v-547q0 -57 22 -83.5t79 -33.5v-49h-494v49q69 14 89 36.5t20 86.5v963h-109v61h109v21q0 63 -19 83.5t-90 34.5v49h393v-190l144 2v-61h-144v-326q79 89 144 124.5t147 35.5 q126 0 201.5 -78.5t75.5 -210.5v-508q0 -64 22 -91t78 -32v-49z" />
<glyph unicode="&#x128;" horiz-adv-x="796" d="M758 0h-717v51q115 10 152.5 39.5t37.5 106.5v991q0 78 -39.5 107.5t-150.5 37.5v51h717v-51q-114 -4 -154.5 -34.5t-40.5 -110.5v-991q0 -80 39 -109.5t156 -36.5v-51zM772 1780q-35 -133 -93.5 -196.5t-146.5 -63.5q-63 0 -131 28l-59 27q-67 30 -89 37.5t-42 7.5 q-39 0 -66.5 -26.5t-33.5 -69.5h-86q28 132 85 194t152 62q68 0 150 -39l82 -37q53 -25 79 -25q41 0 66 22.5t45 78.5h88z" />
<glyph unicode="&#x129;" horiz-adv-x="569" d="M522 0h-489v49q70 17 89 38.5t19 84.5v602q0 63 -20 85t-88 36v49h393v-778q0 -58 21 -83.5t75 -33.5v-49zM657 1380q-35 -134 -93 -197t-146 -63q-60 0 -131 29l-60 27q-67 30 -89 37.5t-42 7.5q-39 0 -66.5 -27t-33.5 -70h-86q28 132 85 194t152 62q68 0 150 -39 l82 -36q53 -25 80 -25q41 0 65.5 22t44.5 78h88z" />
<glyph unicode="&#x12a;" horiz-adv-x="796" d="M758 0h-717v51q115 10 152.5 39.5t37.5 106.5v991q0 78 -39.5 107.5t-150.5 37.5v51h717v-51q-114 -4 -154.5 -34.5t-40.5 -110.5v-991q0 -80 39 -109.5t156 -36.5v-51zM735 1575h-676v147h676v-147z" />
<glyph unicode="&#x12b;" horiz-adv-x="569" d="M522 0h-489v49q70 17 89 38.5t19 84.5v602q0 63 -20 85t-88 36v49h393v-778q0 -58 21 -83.5t75 -33.5v-49zM621 1176h-676v147h676v-147z" />
<glyph unicode="&#x12c;" horiz-adv-x="796" d="M758 0h-717v51q115 10 152.5 39.5t37.5 106.5v991q0 78 -39.5 107.5t-150.5 37.5v51h717v-51q-114 -4 -154.5 -34.5t-40.5 -110.5v-991q0 -80 39 -109.5t156 -36.5v-51zM778 1817q0 -143 -101.5 -239.5t-277.5 -96.5q-178 0 -278.5 96.5t-100.5 239.5h99q20 -90 87 -127 t193 -37t193.5 37t87.5 127h98z" />
<glyph unicode="&#x12d;" horiz-adv-x="569" d="M522 0h-489v49q70 17 89 38.5t19 84.5v602q0 63 -20 85t-88 36v49h393v-778q0 -58 21 -83.5t75 -33.5v-49zM594 1417q-9 -78 -22.5 -123.5t-39.5 -85.5q-79 -125 -249 -125q-168 0 -246 113q-32 43 -46 89.5t-18 131.5h90q17 -94 69.5 -136t150.5 -42q95 0 145 40.5 t76 137.5h90z" />
<glyph unicode="&#x12e;" horiz-adv-x="796" d="M758 0h-72q-144 0 -203 -94q-49 -79 -49 -160q0 -51 26.5 -84t67.5 -33q68 0 117 68l31 -25q-33 -82 -95 -133t-137 -51q-70 0 -129 49.5t-59 143.5q0 173 182 319h-397v51q115 10 152.5 39.5t37.5 106.5v991q0 78 -39.5 107.5t-150.5 37.5v51h717v-51 q-114 -4 -154.5 -34.5t-40.5 -110.5v-991q0 -80 39 -109.5t156 -36.5v-51z" />
<glyph unicode="&#x12f;" horiz-adv-x="569" d="M522 -328q-33 -82 -95 -133t-136 -51q-70 0 -129.5 49.5t-59.5 143.5q0 173 183 319h-252v49q70 17 89 38.5t19 84.5v602q0 63 -20 85t-88 36v49h393v-778q0 -58 21 -83.5t75 -33.5v-49h-49q-84 0 -143 -94q-49 -79 -49 -160q0 -51 26.5 -84t67.5 -33q68 0 117 68z M440 1249q0 -67 -45.5 -112t-111.5 -45t-112 45t-46 112t46 112.5t112 45.5t111.5 -45.5t45.5 -112.5z" />
<glyph unicode="&#x130;" horiz-adv-x="796" d="M758 0h-717v51q115 10 152.5 39.5t37.5 106.5v991q0 78 -39.5 107.5t-150.5 37.5v51h717v-51q-114 -4 -154.5 -34.5t-40.5 -110.5v-991q0 -80 39 -109.5t156 -36.5v-51zM553 1649q0 -67 -46 -112.5t-112 -45.5t-111.5 45.5t-45.5 112.5t45.5 112t111.5 45t112 -45 t46 -112z" />
<glyph unicode="&#x131;" horiz-adv-x="569" d="M522 0h-489v49q70 17 89 38.5t19 84.5v602q0 63 -20 85t-88 36v49h393v-778q0 -58 21 -83.5t75 -33.5v-49z" />
<glyph unicode="&#x134;" d="M981 1333q-115 -7 -148.5 -42t-33.5 -146v-893q0 -220 -112 -334.5t-327 -114.5q-131 0 -217 47q-60 35 -98.5 98t-38.5 126q0 58 43.5 102.5t100.5 44.5q60 0 104.5 -45.5t44.5 -107.5q0 -40 -31 -78q-24 -33 -24 -53q0 -29 25.5 -47.5t66.5 -18.5q69 0 100 41.5 t31 136.5v1139q0 83 -41 111.5t-166 33.5v51h721v-51zM1049 1487h-140l-274 180l-277 -180h-137l299 325h228z" />
<glyph unicode="&#x135;" horiz-adv-x="681" d="M532 4q0 -171 -55 -264q-43 -75 -122 -115.5t-185 -40.5q-126 0 -206.5 57t-80.5 148q0 56 35 90.5t92 34.5q51 0 86 -32.5t35 -78.5q0 -30 -29 -75q-18 -30 -18 -45t18.5 -25t47.5 -10q52 0 75 36.5t23 118.5v971q0 66 -25.5 90.5t-103.5 30.5v49h413v-940zM735 1069 h-117l-229 201l-229 -201h-115l250 361h188z" />
<glyph unicode="&#x136;" horiz-adv-x="1593" d="M1575 0h-688v51q29 2 65 2q52 3 74.5 12t22.5 29q0 17 -10 34.5t-40 55.5l-372 465l-56 -51v-401q0 -75 35.5 -104t145.5 -42v-51h-691v51q110 12 144.5 40t34.5 106v991q0 80 -36.5 109.5t-142.5 35.5v51h693v-51q-114 -7 -148.5 -43t-34.5 -145v-438l445 446 q47 47 60.5 67.5t13.5 45.5q0 31 -22.5 44.5t-78.5 16.5q-12 2 -74 6v51h592v-51q-105 -8 -179.5 -43.5t-174.5 -123.5t-303 -298l625 -774q20 -23 41 -32.5t59 -10.5v-51zM989 -297q0 -120 -72.5 -215t-232.5 -186l-20 39q104 73 152 132t48 113q0 15 -11 27t-24 12 q-8 0 -14 -2q-8 -2 -27 -2q-63 0 -100 40t-37 106q0 69 42.5 110t111.5 41q83 0 133.5 -59t50.5 -156z" />
<glyph unicode="&#x137;" horiz-adv-x="1138" d="M1112 0h-479v49q86 3 86 39q0 21 -49 92l-195 275l-47 -49v-234q0 -72 17.5 -92.5t89.5 -30.5v-49h-490v49q51 5 74.5 34t23.5 89v1045q0 59 -23 86.5t-75 31.5v49h383v-882l262 262q17 17 30 40.5t13 37.5q0 38 -71 47q-3 1 -10 2t-19 2.5t-21 3.5v47h439v-47 q-97 -12 -165 -59.5t-222 -208.5l397 -549q13 -19 23.5 -25t27.5 -6v-49zM754 -297q0 -120 -72.5 -215t-232.5 -186l-21 39q104 74 152.5 132.5t48.5 112.5q0 15 -11 27t-24 12q-8 0 -14 -2q-8 -2 -27 -2q-63 0 -100 40t-37 106q0 69 42 110t111 41q83 0 134 -59t51 -156z " />
<glyph unicode="&#x139;" horiz-adv-x="1366" d="M1307 465l-84 -465h-1184v51q112 13 144 40t32 106v991q0 79 -36 109t-140 36v51h715v-51q-71 -3 -108.5 -10.5t-61.5 -29.5t-30.5 -54.5t-6.5 -93.5v-967q0 -66 34 -90.5t128 -24.5q233 0 358 113q53 49 90 108.5t90 180.5h60zM758 1737q0 -32 -20 -51.5t-79 -47.5 l-350 -161h-137l336 288q63 54 131 54q53 0 86 -23t33 -59z" />
<glyph unicode="&#x13a;" horiz-adv-x="569" d="M522 0h-489v49q104 9 104 123v1045q0 57 -25 85t-79 33v49h389v-1212q0 -120 100 -123v-49zM655 1737q0 -32 -19.5 -51.5t-78.5 -47.5l-350 -161h-137l336 288q63 54 131 54q53 0 85.5 -23t32.5 -59z" />
<glyph unicode="&#x13b;" horiz-adv-x="1366" d="M1307 465l-84 -465h-1184v51q112 13 144 40t32 106v991q0 79 -36 109t-140 36v51h715v-51q-71 -3 -108.5 -10.5t-61.5 -29.5t-30.5 -54.5t-6.5 -93.5v-967q0 -66 34 -90.5t128 -24.5q233 0 358 113q53 49 90 108.5t90 180.5h60zM852 -297q0 -120 -72.5 -215t-232.5 -186 l-21 39q104 74 152.5 132.5t48.5 112.5q0 15 -11 27t-24 12q-8 0 -14 -2q-8 -2 -27 -2q-63 0 -100 40t-37 106q0 69 42.5 110t111.5 41q83 0 133.5 -59t50.5 -156z" />
<glyph unicode="&#x13c;" horiz-adv-x="569" d="M522 0h-489v49q104 9 104 123v1045q0 57 -25 85t-79 33v49h389v-1212q0 -120 100 -123v-49zM449 -297q0 -120 -73 -215t-233 -186l-20 39q104 74 152.5 132.5t48.5 112.5q0 15 -11 27t-24 12q-9 0 -15 -2q-8 -2 -26 -2q-63 0 -100 40t-37 106q0 69 42 110t111 41 q83 0 134 -59t51 -156z" />
<glyph unicode="&#x13d;" horiz-adv-x="1366" d="M1307 465l-84 -465h-1184v51q112 13 144 40t32 106v991q0 79 -36 109t-140 36v51h715v-51q-71 -3 -108.5 -10.5t-61.5 -29.5t-30.5 -54.5t-6.5 -93.5v-967q0 -66 34 -90.5t128 -24.5q233 0 358 113q53 49 90 108.5t90 180.5h60zM1182 1169q0 -120 -72.5 -215t-232.5 -186 l-21 39q104 73 152.5 132.5t48.5 113.5q0 15 -11 27t-24 12q-8 0 -14 -2q-12 -3 -27 -3q-63 0 -100 40t-37 106q0 69 42 110t111 41q83 0 134 -59t51 -156z" />
<glyph unicode="&#x13e;" horiz-adv-x="569" d="M522 0h-489v49q104 9 104 123v1045q0 57 -25 85t-79 33v49h389v-1212q0 -120 100 -123v-49zM850 1169q0 -120 -72.5 -215t-232.5 -186l-21 39q104 73 152.5 132.5t48.5 113.5q0 15 -11 27t-24 12q-8 0 -14 -2q-12 -3 -27 -3q-63 0 -100 40t-37 106q0 69 42.5 110 t111.5 41q83 0 133.5 -59t50.5 -156z" />
<glyph unicode="&#x13f;" horiz-adv-x="1366" d="M1307 465l-84 -465h-1184v51q112 13 144 40t32 106v991q0 79 -36 109t-140 36v51h715v-51q-71 -3 -108.5 -10.5t-61.5 -29.5t-30.5 -54.5t-6.5 -93.5v-967q0 -66 34 -90.5t128 -24.5q233 0 358 113q53 49 90 108.5t90 180.5h60zM1223 731q0 -67 -46 -112.5t-112 -45.5 t-112 45.5t-46 112.5t46 112.5t112 45.5t112 -45.5t46 -112.5z" />
<glyph unicode="&#x140;" horiz-adv-x="720" d="M522 0h-489v49q104 9 104 123v1045q0 57 -25 85t-79 33v49h389v-1212q0 -120 100 -123v-49zM799 731q0 -67 -46 -112.5t-112 -45.5t-112 45.5t-46 112.5t46 112.5t112 45.5t112 -45.5t46 -112.5z" />
<glyph unicode="&#x141;" horiz-adv-x="1366" d="M1307 465l-84 -465h-1184v51q112 13 144 40t32 106v311l-145 -121v129l145 121v551q0 79 -36 109t-140 36v51h715v-51q-71 -3 -108.5 -10.5t-61.5 -29.5t-30.5 -54.5t-6.5 -93.5v-293l334 278v-129l-334 -278v-545q0 -66 34 -90.5t128 -24.5q233 0 358 113 q53 49 90 108.5t90 180.5h60z" />
<glyph unicode="&#x142;" horiz-adv-x="569" d="M561 993l-139 -131v-690q0 -120 100 -123v-49h-489v49q104 9 104 123v477l-129 -121v123l129 121v445q0 57 -25 85t-79 33v49h389v-399l139 131v-123z" />
<glyph unicode="&#x143;" horiz-adv-x="1478" d="M1436 1333q-100 -15 -130 -45.5t-30 -118.5v-1206h-57l-916 1114v-823q0 -109 38.5 -149.5t156.5 -53.5v-51h-465v51q112 13 146 44.5t34 119.5v971q-74 88 -108.5 117.5t-65.5 29.5v51h432l715 -878v624q0 109 -39 151t-152 52v51h441v-51zM1106 1737q0 -32 -19.5 -51.5 t-78.5 -47.5l-351 -161h-137l336 288q63 54 131 54q53 0 86 -23t33 -59z" />
<glyph unicode="&#x144;" horiz-adv-x="1138" d="M1104 0h-481v49q52 6 74 33t22 84v496q0 169 -107 169q-73 0 -141 -71q-35 -32 -35 -47v-547q0 -57 22 -83.5t79 -33.5v-49h-494v49q69 14 89 36.5t20 86.5v602q0 64 -20.5 87t-88.5 34v49h391v-153q112 178 293 178q126 0 201.5 -78.5t75.5 -210.5v-514q0 -65 20 -89 t80 -28v-49zM901 1348q0 -35 -16 -56.5t-66 -52.5l-291 -180h-114l280 321q52 58 109 58q44 0 71 -25t27 -65z" />
<glyph unicode="&#x145;" horiz-adv-x="1478" d="M1436 1333q-100 -15 -130 -45.5t-30 -118.5v-1206h-57l-916 1114v-823q0 -109 38.5 -149.5t156.5 -53.5v-51h-465v51q112 13 146 44.5t34 119.5v971q-74 88 -108.5 117.5t-65.5 29.5v51h432l715 -878v624q0 109 -39 151t-152 52v51h441v-51zM913 -297q0 -120 -72.5 -215 t-232.5 -186l-20 39q104 73 152 132t48 113q0 15 -10.5 27t-23.5 12q-9 0 -15 -2q-8 -2 -26 -2q-63 0 -100.5 40t-37.5 106q0 69 42.5 110t111.5 41q83 0 133.5 -59t50.5 -156z" />
<glyph unicode="&#x146;" horiz-adv-x="1138" d="M1104 0h-481v49q52 6 74 33t22 84v496q0 169 -107 169q-73 0 -141 -71q-35 -32 -35 -47v-547q0 -57 22 -83.5t79 -33.5v-49h-494v49q69 14 89 36.5t20 86.5v602q0 64 -20.5 87t-88.5 34v49h391v-153q112 178 293 178q126 0 201.5 -78.5t75.5 -210.5v-514q0 -65 20 -89 t80 -28v-49zM748 -297q0 -120 -73 -215t-233 -186l-20 39q104 74 152.5 132.5t48.5 112.5q0 15 -11 27t-24 12q-9 0 -15 -2q-8 -2 -26 -2q-63 0 -100 40t-37 106q0 69 42 110t111 41q83 0 134 -59t51 -156z" />
<glyph unicode="&#x147;" horiz-adv-x="1478" d="M1436 1333q-100 -15 -130 -45.5t-30 -118.5v-1206h-57l-916 1114v-823q0 -109 38.5 -149.5t156.5 -53.5v-51h-465v51q112 13 146 44.5t34 119.5v971q-74 88 -108.5 117.5t-65.5 29.5v51h432l715 -878v624q0 109 -39 151t-152 52v51h441v-51zM1157 1812l-299 -325h-227 l-301 325h139l274 -180l277 180h137z" />
<glyph unicode="&#x148;" horiz-adv-x="1138" d="M1104 0h-481v49q52 6 74 33t22 84v496q0 169 -107 169q-73 0 -141 -71q-35 -32 -35 -47v-547q0 -57 22 -83.5t79 -33.5v-49h-494v49q69 14 89 36.5t20 86.5v602q0 64 -20.5 87t-88.5 34v49h391v-153q112 178 293 178q126 0 201.5 -78.5t75.5 -210.5v-514q0 -65 20 -89 t80 -28v-49zM924 1430l-252 -361h-189l-250 361h115l230 -203l229 203h117z" />
<glyph unicode="&#x14a;" horiz-adv-x="1478" d="M1436 1333q-100 -15 -130 -45.5t-30 -118.5v-1185q0 -58 -1 -96.5t-4 -86t-10 -78t-18.5 -64t-28.5 -54t-41 -38t-57 -25t-74 -7.5q-131 0 -217 47q-60 35 -98.5 97.5t-38.5 125.5q0 59 43 103.5t100 44.5q60 0 105 -46t45 -108q0 -40 -31 -78q-24 -33 -24 -53 q0 -29 25.5 -47t66.5 -18q75 0 124.5 44t49.5 134v219l-889 1077v-823q0 -109 38.5 -149.5t156.5 -53.5v-51h-465v51q112 13 146 44.5t34 119.5v971q-74 88 -108.5 117.5t-65.5 29.5v51h432l715 -878v624q0 109 -39 151t-152 52v51h441v-51z" />
<glyph unicode="&#x14b;" horiz-adv-x="1138" d="M1004 4q0 -169 -56 -264q-43 -75 -122 -115.5t-185 -40.5q-126 0 -206.5 57t-80.5 148q0 56 35 90.5t92 34.5q50 0 85.5 -32.5t35.5 -78.5q0 -27 -29 -75q-18 -30 -18 -45t18.5 -25t47.5 -10q51 0 74.5 37t23.5 118v859q0 169 -107 169q-73 0 -141 -71q-35 -32 -35 -47 v-547q0 -57 22 -83.5t79 -33.5v-49h-494v49q69 14 89 36.5t20 86.5v602q0 64 -20.5 87t-88.5 34v49h391v-153q112 178 293 178q126 0 201.5 -78.5t75.5 -210.5v-676z" />
<glyph unicode="&#x14c;" horiz-adv-x="1593" d="M1522 688q0 -209 -92 -375t-258 -259t-375 -93t-374.5 92.5t-258 258t-92.5 374.5q0 210 93.5 376.5t261 259.5t378.5 93q152 0 285.5 -55t228 -151t149 -231.5t54.5 -289.5zM1159 674q0 319 -93.5 496.5t-262.5 177.5q-180 0 -274.5 -174t-94.5 -506q0 -311 93 -475 t270 -164t269.5 165t92.5 480zM1143 1575h-676v147h676v-147z" />
<glyph unicode="&#x14d;" d="M975 469q0 -214 -131.5 -356t-329.5 -142q-201 0 -332 142t-131 362q0 209 134 351.5t329 142.5q198 0 329.5 -142.5t131.5 -357.5zM674 457q0 252 -34.5 350t-123.5 98q-65 0 -99.5 -42.5t-49.5 -141.5t-15 -283q0 -225 35.5 -314t126.5 -89q89 0 124.5 93t35.5 329z M852 1176h-676v147h676v-147z" />
<glyph unicode="&#x14e;" horiz-adv-x="1593" d="M1522 688q0 -209 -92 -375t-258 -259t-375 -93t-374.5 92.5t-258 258t-92.5 374.5q0 210 93.5 376.5t261 259.5t378.5 93q152 0 285.5 -55t228 -151t149 -231.5t54.5 -289.5zM1159 674q0 319 -93.5 496.5t-262.5 177.5q-180 0 -274.5 -174t-94.5 -506q0 -311 93 -475 t270 -164t269.5 165t92.5 480zM1186 1817q0 -143 -101.5 -239.5t-277.5 -96.5q-178 0 -278.5 96.5t-100.5 239.5h98q20 -90 87.5 -127t193.5 -37t193 37t87 127h99z" />
<glyph unicode="&#x14f;" d="M975 469q0 -214 -131.5 -356t-329.5 -142q-201 0 -332 142t-131 362q0 209 134 351.5t329 142.5q198 0 329.5 -142.5t131.5 -357.5zM674 457q0 252 -34.5 350t-123.5 98q-65 0 -99.5 -42.5t-49.5 -141.5t-15 -283q0 -225 35.5 -314t126.5 -89q89 0 124.5 93t35.5 329z M825 1417q-9 -79 -22 -124.5t-39 -84.5q-79 -125 -250 -125q-168 0 -246 113q-32 43 -45 89.5t-18 131.5h90q17 -94 69 -136t150 -42q95 0 145 40.5t76 137.5h90z" />
<glyph unicode="&#x150;" horiz-adv-x="1593" d="M1522 688q0 -209 -92 -375t-258 -259t-375 -93t-374.5 92.5t-258 258t-92.5 374.5q0 210 93.5 376.5t261 259.5t378.5 93q152 0 285.5 -55t228 -151t149 -231.5t54.5 -289.5zM1159 674q0 319 -93.5 496.5t-262.5 177.5q-180 0 -274.5 -174t-94.5 -506q0 -311 93 -475 t270 -164t269.5 165t92.5 480zM1495 1737q0 -32 -19.5 -51.5t-78.5 -47.5l-350 -161h-138l336 288q63 54 131 54q53 0 86 -23t33 -59zM1135 1737q0 -32 -20 -51.5t-79 -47.5l-350 -161h-137l336 288q63 54 131 54q53 0 86 -23t33 -59z" />
<glyph unicode="&#x151;" d="M975 469q0 -214 -131.5 -356t-329.5 -142q-201 0 -332 142t-131 362q0 209 134 351.5t329 142.5q198 0 329.5 -142.5t131.5 -357.5zM674 457q0 252 -34.5 350t-123.5 98q-65 0 -99.5 -42.5t-49.5 -141.5t-15 -283q0 -225 35.5 -314t126.5 -89q89 0 124.5 93t35.5 329z M737 1350q0 -35 -16 -56.5t-66 -52.5l-290 -180h-115l280 321q52 58 109 58q44 0 71 -25t27 -65zM1126 1350q0 -35 -16 -56.5t-66 -52.5l-290 -180h-115l281 321q52 58 108 58q44 0 71 -25t27 -65z" />
<glyph unicode="&#x152;" horiz-adv-x="2048" d="M2009 432l-86 -432h-881q-148 0 -219 -6q-62 -4 -90 -4q-279 0 -452 141q-113 92 -174.5 236.5t-61.5 316.5q0 211 88 374t247 253t365 90l326 -17h10h844v-411h-53q-22 122 -52.5 181t-93.5 99q-44 28 -132 44t-197 16q-65 0 -89 -11t-24 -42v-510q58 2 95.5 6t70 17.5 t51.5 32t37 55t29.5 80t25.5 112.5h47v-693h-47q-23 184 -85 248.5t-224 73.5v-512q0 -60 29.5 -79t120.5 -19q211 0 335 98q55 44 94.5 100t90.5 162h55zM967 434v596q0 111 -7.5 161.5t-29.5 82.5q-43 61 -158 61q-188 0 -283.5 -171t-95.5 -509q0 -140 22.5 -267 t59.5 -191q41 -74 107 -108t168 -34q67 0 107.5 15t66.5 49q26 32 34.5 95.5t8.5 219.5z" />
<glyph unicode="&#x153;" horiz-adv-x="1478" d="M1425 223q-100 -142 -188 -197t-217 -55q-79 0 -134.5 23t-101.5 76q-61 -52 -127.5 -75.5t-154.5 -23.5q-203 0 -330 138.5t-127 359.5q0 218 130.5 359t332.5 141q83 0 142.5 -23.5t113.5 -77.5q75 58 131 79.5t133 21.5q114 0 198.5 -47t131.5 -138q29 -55 42 -115.5 t19 -166.5h-510v-35v-6q-3 -168 56.5 -255t177.5 -87q71 0 121.5 29t119.5 108zM1169 578l-4 114q-5 116 -33.5 166.5t-89.5 50.5q-65 0 -99 -56.5t-34 -164.5v-110h260zM631 305v332q0 147 -32.5 209.5t-109.5 62.5q-85 0 -116 -85t-31 -316q0 -181 15 -283t48 -147t91 -45 q70 0 102.5 65.5t32.5 206.5z" />
<glyph unicode="&#x154;" horiz-adv-x="1478" d="M1464 0h-420l-423 641h-56v-401q0 -77 12.5 -111t48 -51t119.5 -27v-51h-692v51q52 6 81 13t51 18t31 32.5t13 49.5t4 76v905q0 111 -33 146t-147 42v51h660q281 0 429 -93.5t148 -270.5q0 -143 -92 -229q-43 -39 -91 -63.5t-138 -53.5l411 -584q29 -39 84 -39v-51z M940 1012q0 161 -61.5 232t-202.5 71q-77 0 -96 -31q-15 -30 -15 -55v-522q116 1 177.5 12.5t101.5 38.5q96 63 96 254zM1075 1737q0 -32 -19.5 -51.5t-78.5 -47.5l-350 -161h-138l336 288q63 54 131 54q53 0 86 -23t33 -59z" />
<glyph unicode="&#x155;" horiz-adv-x="909" d="M889 809q0 -60 -36 -98.5t-93 -38.5q-40 0 -67 16t-56 57q-33 48 -57 48q-51 0 -88 -57.5t-37 -137.5v-387q0 -95 27.5 -125.5t121.5 -36.5v-49h-545v49q68 12 89.5 36t21.5 87v602q0 62 -22.5 87t-88.5 34v49h387v-168q72 103 136.5 148t140.5 45q72 0 119 -45.5 t47 -114.5zM770 1348q0 -35 -16 -56.5t-66 -52.5l-291 -180h-114l280 321q52 58 109 58q44 0 71 -25t27 -65z" />
<glyph unicode="&#x156;" horiz-adv-x="1478" d="M1464 0h-420l-423 641h-56v-401q0 -77 12.5 -111t48 -51t119.5 -27v-51h-692v51q52 6 81 13t51 18t31 32.5t13 49.5t4 76v905q0 111 -33 146t-147 42v51h660q281 0 429 -93.5t148 -270.5q0 -143 -92 -229q-43 -39 -91 -63.5t-138 -53.5l411 -584q29 -39 84 -39v-51z M940 1012q0 161 -61.5 232t-202.5 71q-77 0 -96 -31q-15 -30 -15 -55v-522q116 1 177.5 12.5t101.5 38.5q96 63 96 254zM883 -297q0 -120 -72.5 -215t-232.5 -186l-21 39q104 74 152.5 132.5t48.5 112.5q0 15 -11 27t-24 12q-8 0 -14 -2q-8 -2 -27 -2q-63 0 -100 40t-37 106 q0 69 42 110t111 41q83 0 134 -59t51 -156z" />
<glyph unicode="&#x157;" horiz-adv-x="909" d="M889 809q0 -60 -36 -98.5t-93 -38.5q-40 0 -67 16t-56 57q-33 48 -57 48q-51 0 -88 -57.5t-37 -137.5v-387q0 -95 27.5 -125.5t121.5 -36.5v-49h-545v49q68 12 89.5 36t21.5 87v602q0 62 -22.5 87t-88.5 34v49h387v-168q72 103 136.5 148t140.5 45q72 0 119 -45.5 t47 -114.5zM502 -297q0 -120 -72.5 -215t-232.5 -186l-21 39q104 74 152.5 132.5t48.5 112.5q0 15 -11 27t-24 12q-8 0 -14 -2q-8 -2 -27 -2q-63 0 -100 40t-37 106q0 69 42 110t111 41q83 0 134 -59t51 -156z" />
<glyph unicode="&#x158;" horiz-adv-x="1478" d="M1464 0h-420l-423 641h-56v-401q0 -77 12.5 -111t48 -51t119.5 -27v-51h-692v51q52 6 81 13t51 18t31 32.5t13 49.5t4 76v905q0 111 -33 146t-147 42v51h660q281 0 429 -93.5t148 -270.5q0 -143 -92 -229q-43 -39 -91 -63.5t-138 -53.5l411 -584q29 -39 84 -39v-51z M940 1012q0 161 -61.5 232t-202.5 71q-77 0 -96 -31q-15 -30 -15 -55v-522q116 1 177.5 12.5t101.5 38.5q96 63 96 254zM1126 1812l-299 -325h-227l-301 325h139l275 -180l276 180h137z" />
<glyph unicode="&#x159;" horiz-adv-x="909" d="M889 809q0 -60 -36 -98.5t-93 -38.5q-40 0 -67 16t-56 57q-33 48 -57 48q-51 0 -88 -57.5t-37 -137.5v-387q0 -95 27.5 -125.5t121.5 -36.5v-49h-545v49q68 12 89.5 36t21.5 87v602q0 62 -22.5 87t-88.5 34v49h387v-168q72 103 136.5 148t140.5 45q72 0 119 -45.5 t47 -114.5zM793 1430l-252 -361h-189l-250 361h115l229 -203l230 203h117z" />
<glyph unicode="&#x15a;" horiz-adv-x="1138" d="M1051 393q0 -193 -140.5 -312.5t-367.5 -119.5q-127 0 -267 49q-67 21 -83 21q-25 0 -39 -15.5t-23 -54.5h-59v506h59q26 -109 52.5 -171.5t70.5 -119.5q117 -147 295 -147q118 0 188 62.5t70 168.5q0 82 -47 132.5t-182 115.5l-138 65q-263 127 -327 289q-23 67 -23 135 q0 195 120 306.5t329 111.5q113 0 239 -47q61 -20 86 -20q28 0 42 14t24 55h61v-444h-57q-31 100 -60.5 155t-82.5 109q-112 115 -252 115q-104 0 -165 -55t-61 -150q0 -75 43.5 -123t167.5 -109l301 -149q100 -50 163 -154t63 -219zM905 1737q0 -32 -19.5 -51.5 t-78.5 -47.5l-350 -161h-138l336 288q63 54 131 54q53 0 86 -23t33 -59z" />
<glyph unicode="&#x15b;" horiz-adv-x="796" d="M739 283q0 -138 -88 -225t-227 -87q-43 0 -110 14t-111 33q-33 13 -47 13q-13 0 -24.5 -12.5t-29.5 -45.5h-51v338h58q65 -270 280 -270q69 0 111.5 36.5t42.5 96.5q0 50 -45.5 91t-151.5 87q-154 66 -222.5 141t-68.5 177q0 129 91.5 214t230.5 85q71 0 160 -31 q46 -14 63 -14q20 0 31 9t20 32h45v-297h-51q-23 66 -43.5 101.5t-52.5 66.5q-68 65 -154 65q-58 0 -96.5 -34t-38.5 -85q0 -52 46 -93.5t151 -86.5q153 -63 217.5 -136.5t64.5 -182.5zM719 1348q0 -35 -16 -56.5t-66 -52.5l-291 -180h-115l281 321q52 58 109 58 q44 0 71 -25t27 -65z" />
<glyph unicode="&#x15c;" horiz-adv-x="1138" d="M1051 393q0 -193 -140.5 -312.5t-367.5 -119.5q-127 0 -267 49q-67 21 -83 21q-25 0 -39 -15.5t-23 -54.5h-59v506h59q26 -109 52.5 -171.5t70.5 -119.5q117 -147 295 -147q118 0 188 62.5t70 168.5q0 82 -47 132.5t-182 115.5l-138 65q-263 127 -327 289q-23 67 -23 135 q0 195 120 306.5t329 111.5q113 0 239 -47q61 -20 86 -20q28 0 42 14t24 55h61v-444h-57q-31 100 -60.5 155t-82.5 109q-112 115 -252 115q-104 0 -165 -55t-61 -150q0 -75 43.5 -123t167.5 -109l301 -149q100 -50 163 -154t63 -219zM958 1487h-139l-274 180l-277 -180h-137 l299 325h227z" />
<glyph unicode="&#x15d;" horiz-adv-x="796" d="M739 283q0 -138 -88 -225t-227 -87q-43 0 -110 14t-111 33q-33 13 -47 13q-13 0 -24.5 -12.5t-29.5 -45.5h-51v338h58q65 -270 280 -270q69 0 111.5 36.5t42.5 96.5q0 50 -45.5 91t-151.5 87q-154 66 -222.5 141t-68.5 177q0 129 91.5 214t230.5 85q71 0 160 -31 q46 -14 63 -14q20 0 31 9t20 32h45v-297h-51q-23 66 -43.5 101.5t-52.5 66.5q-68 65 -154 65q-58 0 -96.5 -34t-38.5 -85q0 -52 46 -93.5t151 -86.5q153 -63 217.5 -136.5t64.5 -182.5zM741 1069h-116l-230 201l-229 -201h-115l250 361h188z" />
<glyph unicode="&#x15e;" horiz-adv-x="1138" d="M1051 393q0 -181 -123 -298t-326 -132l-51 -115q34 11 65 11q86 0 134.5 -38t48.5 -106q0 -85 -71 -133.5t-193 -48.5q-95 0 -199 37l33 76l12 -4q68 -25 108 -25q119 0 119 84q0 35 -25 54.5t-69 19.5q-26 0 -57 -8l-23 16l80 178q-112 6 -238 49q-67 21 -83 21 q-25 0 -39 -15.5t-23 -54.5h-59v506h59q26 -109 52.5 -171.5t70.5 -119.5q117 -147 295 -147q118 0 188 62.5t70 168.5q0 82 -47 132.5t-182 115.5l-138 65q-263 127 -327 289q-23 67 -23 135q0 195 120 306.5t329 111.5q113 0 239 -47q61 -20 86 -20q28 0 42 14t24 55h61 v-444h-57q-31 100 -60.5 155t-82.5 109q-112 115 -252 115q-104 0 -165 -55t-61 -150q0 -75 43.5 -123t167.5 -109l301 -149q100 -50 163 -154t63 -219z" />
<glyph unicode="&#x15f;" horiz-adv-x="796" d="M739 283q0 -138 -88 -225t-227 -87h-8l-41 -102q31 10 67 10q85 0 133 -38t48 -105q0 -85 -72 -133.5t-195 -48.5q-97 0 -196 36l33 76l12 -4q63 -24 110 -24q56 0 86.5 21.5t30.5 61.5q0 34 -25 54t-69 20q-26 0 -57 -8l-23 16l76 179q-71 12 -131 36q-33 13 -47 13 q-13 0 -24.5 -12.5t-29.5 -45.5h-51v338h58q65 -270 280 -270q69 0 111.5 36.5t42.5 96.5q0 50 -45.5 91t-151.5 87q-154 66 -222.5 141t-68.5 177q0 129 91.5 214t230.5 85q71 0 160 -31q46 -14 63 -14q20 0 31 9t20 32h45v-297h-51q-23 66 -43.5 101.5t-52.5 66.5 q-68 65 -154 65q-58 0 -96.5 -34t-38.5 -85q0 -52 46 -93.5t151 -86.5q153 -63 217.5 -136.5t64.5 -182.5z" />
<glyph unicode="&#x160;" horiz-adv-x="1138" d="M1051 393q0 -193 -140.5 -312.5t-367.5 -119.5q-127 0 -267 49q-67 21 -83 21q-25 0 -39 -15.5t-23 -54.5h-59v506h59q26 -109 52.5 -171.5t70.5 -119.5q117 -147 295 -147q118 0 188 62.5t70 168.5q0 82 -47 132.5t-182 115.5l-138 65q-263 127 -327 289q-23 67 -23 135 q0 195 120 306.5t329 111.5q113 0 239 -47q61 -20 86 -20q28 0 42 14t24 55h61v-444h-57q-31 100 -60.5 155t-82.5 109q-112 115 -252 115q-104 0 -165 -55t-61 -150q0 -75 43.5 -123t167.5 -109l301 -149q100 -50 163 -154t63 -219zM956 1812l-299 -325h-227l-301 325h139 l275 -180l276 180h137z" />
<glyph unicode="&#x161;" horiz-adv-x="796" d="M739 283q0 -138 -88 -225t-227 -87q-43 0 -110 14t-111 33q-33 13 -47 13q-13 0 -24.5 -12.5t-29.5 -45.5h-51v338h58q65 -270 280 -270q69 0 111.5 36.5t42.5 96.5q0 50 -45.5 91t-151.5 87q-154 66 -222.5 141t-68.5 177q0 129 91.5 214t230.5 85q71 0 160 -31 q46 -14 63 -14q20 0 31 9t20 32h45v-297h-51q-23 66 -43.5 101.5t-52.5 66.5q-68 65 -154 65q-58 0 -96.5 -34t-38.5 -85q0 -52 46 -93.5t151 -86.5q153 -63 217.5 -136.5t64.5 -182.5zM741 1430l-252 -361h-188l-250 361h115l229 -203l230 203h116z" />
<glyph unicode="&#x162;" horiz-adv-x="1366" d="M1303 973h-60q-26 183 -115 261.5t-278 84.5v-1079q0 -63 5.5 -94.5t29 -53.5t59 -29t107.5 -12v-51h-301l-68 -152q34 11 66 11q86 0 134 -38t48 -106q0 -85 -71 -133.5t-193 -48.5q-95 0 -199 37l33 76l12 -4q68 -25 109 -25q118 0 118 84q0 35 -25 54.5t-69 19.5 q-26 0 -57 -8l-23 16l99 217h-345v51q70 6 106 13.5t59 29.5t28.5 53.5t5.5 92.5v1079q-190 -6 -279.5 -84.5t-115.5 -261.5h-60l7 411h1228z" />
<glyph unicode="&#x163;" horiz-adv-x="681" d="M680 205q-56 -111 -115.5 -164.5t-142.5 -63.5l-47 -108q31 10 65 10q86 0 134.5 -38t48.5 -105q0 -84 -71.5 -133t-193.5 -49q-97 0 -198 36l33 76l12 -4q65 -24 108 -24q119 0 119 83q0 35 -25 54.5t-69 19.5q-26 0 -57 -8l-23 16l78 174q-88 11 -138.5 67t-50.5 146 v664h-106v55q100 85 173 167t167 214h51v-346h193v-90h-193v-616q0 -62 18.5 -89.5t61.5 -27.5q33 0 60 24t57 82z" />
<glyph unicode="&#x164;" horiz-adv-x="1366" d="M1303 973h-60q-26 183 -115 261.5t-278 84.5v-1079q0 -63 5.5 -94.5t29 -53.5t59 -29t107.5 -12v-51h-732v51q70 6 106 13.5t59 29.5t28.5 53.5t5.5 92.5v1079q-190 -6 -279.5 -84.5t-115.5 -261.5h-60l7 411h1228zM1098 1812l-299 -325h-228l-301 325h140l274 -180 l277 180h137z" />
<glyph unicode="&#x165;" horiz-adv-x="681" d="M680 205q-63 -126 -131.5 -178t-171.5 -52q-106 0 -168 57.5t-62 157.5v664h-106v55q100 85 173 167t167 214h51v-346h193v-90h-193v-616q0 -62 18.5 -89.5t61.5 -27.5q33 0 60 24t57 82zM815 1391q0 -120 -72.5 -215.5t-232.5 -186.5l-21 39q104 73 152.5 132.5 t48.5 113.5q0 15 -11 27t-24 12q-8 0 -14 -2q-8 -2 -27 -2q-63 0 -100 39.5t-37 105.5q0 69 42.5 110.5t111.5 41.5q83 0 133.5 -59t50.5 -156z" />
<glyph unicode="&#x168;" horiz-adv-x="1478" d="M1436 1333q-98 -15 -129 -49t-31 -125v-653q0 -148 -40.5 -260t-115.5 -172q-66 -54 -164.5 -83.5t-207.5 -29.5q-232 0 -383 111q-91 68 -127.5 154t-36.5 235v684q0 77 -13 112.5t-46.5 52t-108.5 23.5v51h692v-51q-128 -6 -163.5 -39.5t-35.5 -148.5v-684 q0 -209 71 -304.5t228 -95.5q184 0 272.5 109t88.5 336v624q0 112 -40.5 153t-160.5 50v51h451v-51zM1231 1780q-35 -133 -93.5 -196.5t-146.5 -63.5q-63 0 -131 28l-59 27q-67 30 -89 37.5t-42 7.5q-40 0 -67.5 -26.5t-33.5 -69.5h-86q28 132 85.5 194t152.5 62 q67 0 149 -39l82 -37q53 -25 80 -25q41 0 66 22.5t45 78.5h88z" />
<glyph unicode="&#x169;" horiz-adv-x="1138" d="M1100 41l-127 -14q-102 -11 -154 -21t-117 -33v133q-90 -77 -153.5 -106t-142.5 -29q-128 0 -200.5 76t-72.5 211v516q0 64 -18.5 86.5t-81.5 34.5v49h385v-694q0 -79 26 -112.5t88 -33.5q44 0 80.5 20t87.5 71v579q0 66 -25.5 90.5t-101.5 30.5v49h412v-737 q0 -66 24 -91t91 -28v-47zM934 1380q-35 -133 -93.5 -196.5t-146.5 -63.5q-60 0 -131 29l-59 27q-67 30 -89 37.5t-42 7.5q-39 0 -67 -27t-34 -70h-86q28 132 85.5 194t152.5 62q67 0 149 -39l82 -36q53 -25 80 -25q41 0 66 22.5t45 77.5h88z" />
<glyph unicode="&#x16a;" horiz-adv-x="1478" d="M1436 1333q-98 -15 -129 -49t-31 -125v-653q0 -148 -40.5 -260t-115.5 -172q-66 -54 -164.5 -83.5t-207.5 -29.5q-232 0 -383 111q-91 68 -127.5 154t-36.5 235v684q0 77 -13 112.5t-46.5 52t-108.5 23.5v51h692v-51q-128 -6 -163.5 -39.5t-35.5 -148.5v-684 q0 -209 71 -304.5t228 -95.5q184 0 272.5 109t88.5 336v624q0 112 -40.5 153t-160.5 50v51h451v-51zM1194 1575h-676v147h676v-147z" />
<glyph unicode="&#x16b;" horiz-adv-x="1138" d="M1100 41l-127 -14q-102 -11 -154 -21t-117 -33v133q-90 -77 -153.5 -106t-142.5 -29q-128 0 -200.5 76t-72.5 211v516q0 64 -18.5 86.5t-81.5 34.5v49h385v-694q0 -79 26 -112.5t88 -33.5q44 0 80.5 20t87.5 71v579q0 66 -25.5 90.5t-101.5 30.5v49h412v-737 q0 -66 24 -91t91 -28v-47zM897 1176h-676v147h676v-147z" />
<glyph unicode="&#x16c;" horiz-adv-x="1478" d="M1436 1333q-98 -15 -129 -49t-31 -125v-653q0 -148 -40.5 -260t-115.5 -172q-66 -54 -164.5 -83.5t-207.5 -29.5q-232 0 -383 111q-91 68 -127.5 154t-36.5 235v684q0 77 -13 112.5t-46.5 52t-108.5 23.5v51h692v-51q-128 -6 -163.5 -39.5t-35.5 -148.5v-684 q0 -209 71 -304.5t228 -95.5q184 0 272.5 109t88.5 336v624q0 112 -40.5 153t-160.5 50v51h451v-51zM1237 1817q0 -143 -101.5 -239.5t-277.5 -96.5q-178 0 -278.5 96.5t-100.5 239.5h99q20 -90 87 -127t193 -37t193.5 37t87.5 127h98z" />
<glyph unicode="&#x16d;" horiz-adv-x="1138" d="M1100 41l-127 -14q-102 -11 -154 -21t-117 -33v133q-90 -77 -153.5 -106t-142.5 -29q-128 0 -200.5 76t-72.5 211v516q0 64 -18.5 86.5t-81.5 34.5v49h385v-694q0 -79 26 -112.5t88 -33.5q44 0 80.5 20t87.5 71v579q0 66 -25.5 90.5t-101.5 30.5v49h412v-737 q0 -66 24 -91t91 -28v-47zM870 1417q-9 -79 -22 -124.5t-39 -84.5q-79 -125 -250 -125q-168 0 -246 113q-32 43 -45 89.5t-18 131.5h90q17 -94 69 -136t150 -42q95 0 145 40.5t76 137.5h90z" />
<glyph unicode="&#x16e;" horiz-adv-x="1478" d="M1436 1333q-98 -15 -129 -49t-31 -125v-653q0 -148 -40.5 -260t-115.5 -172q-66 -54 -164.5 -83.5t-207.5 -29.5q-232 0 -383 111q-91 68 -127.5 154t-36.5 235v684q0 77 -13 112.5t-46.5 52t-108.5 23.5v51h692v-51q-128 -6 -163.5 -39.5t-35.5 -148.5v-684 q0 -209 71 -304.5t228 -95.5q184 0 272.5 109t88.5 336v624q0 112 -40.5 153t-160.5 50v51h451v-51zM1075 1688q0 -91 -64 -154.5t-155 -63.5t-154 65t-63 157q0 87 65 151t154 64t153 -65t64 -154zM977 1686q0 50 -36 86t-85 36q-47 0 -83 -36.5t-36 -83.5q0 -49 34.5 -84 t82.5 -35q51 0 87 34.5t36 82.5z" />
<glyph unicode="&#x16f;" horiz-adv-x="1138" d="M1100 41l-127 -14q-102 -11 -154 -21t-117 -33v133q-90 -77 -153.5 -106t-142.5 -29q-128 0 -200.5 76t-72.5 211v516q0 64 -18.5 86.5t-81.5 34.5v49h385v-694q0 -79 26 -112.5t88 -33.5q44 0 80.5 20t87.5 71v579q0 66 -25.5 90.5t-101.5 30.5v49h412v-737 q0 -66 24 -91t91 -28v-47zM778 1249q0 -91 -64 -154t-155 -63t-154 64.5t-63 156.5q0 87 65 151t154 64t153 -65t64 -154zM680 1247q0 50 -36 86.5t-85 36.5q-47 0 -83 -37t-36 -84q0 -49 34.5 -84t82.5 -35q51 0 87 34.5t36 82.5z" />
<glyph unicode="&#x170;" horiz-adv-x="1478" d="M1436 1333q-98 -15 -129 -49t-31 -125v-653q0 -148 -40.5 -260t-115.5 -172q-66 -54 -164.5 -83.5t-207.5 -29.5q-232 0 -383 111q-91 68 -127.5 154t-36.5 235v684q0 77 -13 112.5t-46.5 52t-108.5 23.5v51h692v-51q-128 -6 -163.5 -39.5t-35.5 -148.5v-684 q0 -209 71 -304.5t228 -95.5q184 0 272.5 109t88.5 336v624q0 112 -40.5 153t-160.5 50v51h451v-51zM1546 1737q0 -32 -19.5 -51.5t-78.5 -47.5l-350 -161h-137l335 288q63 54 131 54q53 0 86 -23t33 -59zM1186 1737q0 -32 -20 -51.5t-79 -47.5l-350 -161h-137l336 288 q63 54 131 54q53 0 86 -23t33 -59z" />
<glyph unicode="&#x171;" horiz-adv-x="1138" d="M1100 41l-127 -14q-102 -11 -154 -21t-117 -33v133q-90 -77 -153.5 -106t-142.5 -29q-128 0 -200.5 76t-72.5 211v516q0 64 -18.5 86.5t-81.5 34.5v49h385v-694q0 -79 26 -112.5t88 -33.5q44 0 80.5 20t87.5 71v579q0 66 -25.5 90.5t-101.5 30.5v49h412v-737 q0 -66 24 -91t91 -28v-47zM782 1350q0 -35 -16 -56.5t-66 -52.5l-290 -180h-115l280 321q52 58 109 58q44 0 71 -25t27 -65zM1171 1350q0 -35 -16 -56.5t-65 -52.5l-291 -180h-115l281 321q52 58 108 58q44 0 71 -25t27 -65z" />
<glyph unicode="&#x172;" horiz-adv-x="1478" d="M1436 1333q-98 -15 -129 -49t-31 -125v-653q0 -148 -40.5 -260t-115.5 -172q-64 -52 -164 -84q-91 -25 -129 -84q-49 -74 -49 -160q0 -51 26.5 -84t67.5 -33q68 0 117 68l31 -25q-33 -82 -95 -133t-137 -51q-70 0 -129 49.5t-59 143.5q0 156 135 280q-222 3 -370 111 q-91 68 -127.5 154t-36.5 235v684q0 77 -13 112.5t-46.5 52t-108.5 23.5v51h692v-51q-128 -6 -163.5 -39.5t-35.5 -148.5v-684q0 -209 71 -304.5t228 -95.5q184 0 272.5 109t88.5 336v624q0 112 -40.5 153t-160.5 50v51h451v-51z" />
<glyph unicode="&#x173;" horiz-adv-x="1138" d="M1100 -328q-33 -82 -95 -133t-137 -51q-70 0 -129 49.5t-59 143.5q0 57 17 108t49.5 93t63.5 71.5t73 62.5q-96 -13 -181 -43v133q-90 -77 -153.5 -106t-142.5 -29q-128 0 -200.5 76t-72.5 211v516q0 64 -18.5 86.5t-81.5 34.5v49h385v-694q0 -79 26 -112.5t88 -33.5 q44 0 80.5 20t87.5 71v579q0 66 -25.5 90.5t-101.5 30.5v49h412v-737q0 -66 24 -91t91 -28v-47l-25 -2q-52 -5 -91.5 -40.5t-76.5 -92.5q-49 -79 -49 -160q0 -51 26.5 -84t67.5 -33q68 0 117 68z" />
<glyph unicode="&#x174;" horiz-adv-x="2048" d="M2009 1333q-101 -9 -141 -131l-410 -1233h-55l-350 977l-381 -977h-58l-434 1233q-26 75 -51.5 98.5t-89.5 32.5v51h602v-51q-79 -6 -105 -23.5t-26 -62.5q0 -21 14 -67l246 -746l242 631l-72 197q-17 36 -50 52t-97 19v51h639v-51l-27 -2q-67 -4 -94 -20.5t-27 -53.5 q0 -18 29 -114l221 -688l229 702q15 43 15 86q0 48 -29.5 67t-112.5 23v51h373v-51zM1528 1487h-139l-275 180l-276 -180h-138l299 325h228z" />
<glyph unicode="&#x175;" horiz-adv-x="1478" d="M1448 895q-40 -7 -58.5 -26t-43.5 -76l-318 -822h-47l-209 635l-256 -635h-49l-303 766q-41 102 -59 126.5t-58 31.5v49h455v-49q-43 -6 -60.5 -19t-17.5 -38q0 -35 80 -236q14 -41 43 -110l49 -132l139 351l-12 39q-12 40 -17 57.5t-14 37.5t-14 25.5t-18 12.5 t-23.5 8.5t-34.5 3.5v49h479v-49q-59 -5 -78.5 -14.5t-19.5 -34.5q0 -28 55 -217l70 -260l72 192q90 231 90 262q0 35 -21 50.5t-78 21.5v49h277v-49zM1094 1069h-117l-229 201l-230 -201h-115l250 361h189z" />
<glyph unicode="&#x176;" horiz-adv-x="1478" d="M1432 1333q-52 -7 -84.5 -26t-55.5 -54l-391 -637v-376q0 -61 5 -92t27 -53t56 -30t101 -14v-51h-711v51q54 5 85 12t54 18t33 33t14 50t4 76v301l-374 680q-62 106 -164 112v51h686v-51l-51 -2q-63 0 -89 -13.5t-26 -47.5q0 -31 37 -96q10 -19 12 -25l246 -475l227 379 q80 132 80 194q0 44 -34.5 61t-137.5 25v51h451v-51zM1151 1487h-139l-275 180l-276 -180h-137l299 325h227z" />
<glyph unicode="&#x177;" d="M983 895q-47 -4 -70 -26t-49 -87l-305 -813q-53 -142 -88 -213.5t-68 -107.5q-68 -68 -172 -68q-87 0 -142.5 45.5t-55.5 116.5q0 58 37 94.5t94 36.5q53 0 86 -28t33 -72q0 -9 -4 -29l-3 -12q0 -14 11 -24.5t24 -10.5q35 0 72 45.5t63 122.5l37 108l-245 605 q-27 66 -78.5 176t-55.5 110q-9 14 -23 20.5t-48 10.5v49h512v-49l-33 -2q-76 -6 -76 -51q0 -12 5.5 -28t35.5 -93l148 -379l139 393q22 62 22 92q0 37 -23 51t-89 17v49h309v-49zM854 1069h-117l-229 201l-229 -201h-115l250 361h188z" />
<glyph unicode="&#x178;" horiz-adv-x="1478" d="M1432 1333q-52 -7 -84.5 -26t-55.5 -54l-391 -637v-376q0 -61 5 -92t27 -53t56 -30t101 -14v-51h-711v51q54 5 85 12t54 18t33 33t14 50t4 76v301l-374 680q-62 106 -164 112v51h686v-51l-51 -2q-63 0 -89 -13.5t-26 -47.5q0 -31 37 -96q10 -19 12 -25l246 -475l227 379 q80 132 80 194q0 44 -34.5 61t-137.5 25v51h451v-51zM655 1647q0 -54 -38.5 -91.5t-94.5 -37.5q-54 0 -92.5 39.5t-38.5 93.5q0 53 39.5 92t91.5 39q54 0 93.5 -40t39.5 -95zM1085 1647q0 -54 -39 -91.5t-96 -37.5q-54 0 -91.5 39t-37.5 96q0 51 39 90t90 39q56 0 95.5 -40 t39.5 -95z" />
<glyph unicode="&#x179;" horiz-adv-x="1366" d="M1298 494l-53 -494h-1188v33l783 1280l-170 -6q-119 0 -191.5 -13t-130.5 -52.5t-95 -103.5t-75 -175h-57l43 421h1073v-32l-776 -1280h151q148 0 265 21.5t170 58.5q72 51 114.5 124t83.5 218h53zM1063 1737q0 -32 -19.5 -51.5t-78.5 -47.5l-351 -161h-137l336 288 q63 54 131 54q53 0 86 -23t33 -59z" />
<glyph unicode="&#x17a;" horiz-adv-x="909" d="M860 328l-33 -328h-784v51l479 828q-76 0 -125.5 -3t-92 -12.5t-67 -24t-46 -41.5t-34 -60t-26.5 -85h-53l14 291h760v-53l-473 -825h59q123 0 185.5 24.5t111.5 91.5q44 57 68 146h57zM795 1348q0 -35 -16 -56.5t-66 -52.5l-291 -180h-115l281 321q52 58 108 58 q44 0 71.5 -25t27.5 -65z" />
<glyph unicode="&#x17b;" horiz-adv-x="1366" d="M1298 494l-53 -494h-1188v33l783 1280l-170 -6q-119 0 -191.5 -13t-130.5 -52.5t-95 -103.5t-75 -175h-57l43 421h1073v-32l-776 -1280h151q148 0 265 21.5t170 58.5q72 51 114.5 124t83.5 218h53zM856 1649q0 -67 -46 -112.5t-112 -45.5t-111.5 45.5t-45.5 112.5 t45.5 112t111.5 45t112 -45t46 -112z" />
<glyph unicode="&#x17c;" horiz-adv-x="909" d="M860 328l-33 -328h-784v51l479 828q-76 0 -125.5 -3t-92 -12.5t-67 -24t-46 -41.5t-34 -60t-26.5 -85h-53l14 291h760v-53l-473 -825h59q123 0 185.5 24.5t111.5 91.5q44 57 68 146h57zM627 1249q0 -67 -46 -112t-112 -45t-112 45t-46 112t46 112.5t112 45.5t112 -45.5 t46 -112.5z" />
<glyph unicode="&#x17d;" horiz-adv-x="1366" d="M1298 494l-53 -494h-1188v33l783 1280l-170 -6q-119 0 -191.5 -13t-130.5 -52.5t-95 -103.5t-75 -175h-57l43 421h1073v-32l-776 -1280h151q148 0 265 21.5t170 58.5q72 51 114.5 124t83.5 218h53zM1114 1812l-299 -325h-227l-301 325h139l274 -180l277 180h137z" />
<glyph unicode="&#x17e;" horiz-adv-x="909" d="M860 328l-33 -328h-784v51l479 828q-76 0 -125.5 -3t-92 -12.5t-67 -24t-46 -41.5t-34 -60t-26.5 -85h-53l14 291h760v-53l-473 -825h59q123 0 185.5 24.5t111.5 91.5q44 57 68 146h57zM817 1430l-252 -361h-188l-250 361h115l229 -203l229 203h117z" />
<glyph unicode="&#x17f;" horiz-adv-x="681" d="M797 1210q0 -57 -35 -92t-92 -35q-52 0 -87.5 33t-35.5 80q0 29 26 74q19 32 19 43q0 39 -60 39q-54 0 -78 -37t-24 -121v-983q0 -100 30.5 -129.5t137.5 -32.5v-49h-569v49q70 7 93 32t23 91v682h-116v90h116q0 132 13 205t47 127q41 67 118.5 103t180.5 36 q129 0 211 -57t82 -148z" />
<glyph unicode="&#x18e;" horiz-adv-x="1366" d="M1313 0h-1198l-82 426h57q45 -99 82 -152t90 -98q139 -113 369 -113q99 0 134.5 24.5t35.5 90.5v496q-167 0 -240 -70t-92 -248h-53v693h53q23 -175 95 -241t237 -65v476q0 58 -26.5 77t-106.5 19q-129 0 -210 -14.5t-138.5 -55t-87.5 -104t-50 -168.5h-51v411h1182v-51 q-105 -6 -142.5 -36.5t-37.5 -108.5v-991q0 -80 33 -107t147 -39v-51z" />
<glyph unicode="&#x192;" d="M1020 1286q0 -52 -32.5 -88.5t-78.5 -36.5q-43 0 -75.5 28t-32.5 66q0 35 26 76l11 23q0 12 -14 21t-33 9q-132 0 -132 -299v-184h250v-94h-250q-20 -343 -27.5 -438t-19.5 -166q-44 -255 -151.5 -387.5t-270.5 -132.5q-88 0 -139 43t-51 116q0 53 31 85t82 32 q47 0 77.5 -28t30.5 -72q0 -31 -22 -58q-15 -18 -15 -24q0 -12 14 -22.5t31 -10.5q57 0 93.5 63.5t39.5 167.5l27 832h-237v94h245q26 154 59.5 248.5t86.5 163.5q103 133 268 133q94 0 151.5 -44t57.5 -116z" />
<glyph unicode="&#x1a0;" horiz-adv-x="1593" d="M1522 688q0 -209 -92 -375t-258 -259t-375 -93t-374.5 92.5t-258 258t-92.5 374.5q0 210 93.5 376.5t261 259.5t378.5 93q231 0 405 -110q11 7 24 42t13 52q0 12 -16.5 28t-33.5 38t-17 48q0 53 37.5 87t87.5 34q51 0 90 -43.5t39 -95.5q0 -70 -54.5 -141.5t-103.5 -93.5 q119 -99 182.5 -246t63.5 -326zM1159 674q0 319 -93.5 496.5t-262.5 177.5q-180 0 -274.5 -174t-94.5 -506q0 -311 93 -475t270 -164t269.5 165t92.5 480z" />
<glyph unicode="&#x1a1;" d="M1024 1055q0 -63 -55.5 -137t-100.5 -97q107 -134 107 -352q0 -214 -131.5 -356t-329.5 -142q-201 0 -332 142t-131 362q0 209 134 351.5t329 142.5q180 0 299 -92q9 4 17 34.5t8 46.5q0 12 -17 28.5t-34 38.5t-17 48q0 53 37.5 87t87.5 34q51 0 90 -43.5t39 -95.5z M674 457q0 252 -34.5 350t-123.5 98q-65 0 -99.5 -42.5t-49.5 -141.5t-15 -283q0 -225 35.5 -314t126.5 -89q89 0 124.5 93t35.5 329z" />
<glyph unicode="&#x1af;" horiz-adv-x="1521" d="M1522 1495q0 -82 -77 -163t-171 -87v-739q0 -545 -526 -545q-231 0 -379 109q-94 68 -131 154t-37 237v684q0 77 -13 112.5t-46.5 52t-108.5 23.5v51h692v-51q-37 -2 -65 -4.5t-49 -9.5t-35.5 -13.5t-24 -20.5t-14.5 -24t-7.5 -32t-3 -37.5t-0.5 -46.5v-684 q0 -209 72 -304.5t229 -95.5q183 0 271 109t88 336v624q0 112 -40.5 153t-160.5 50v51h289v-81q21 7 41 40.5t20 53.5q0 13 -16.5 30t-33.5 38.5t-17 45.5q0 56 37.5 89.5t87.5 33.5q51 0 90 -44t39 -95z" />
<glyph unicode="&#x1b0;" horiz-adv-x="1234" d="M1235 1055q0 -82 -78 -164t-172 -86v-598q0 -66 24 -91t91 -28v-47l-127 -14q-102 -11 -154 -21t-117 -33v133q-90 -77 -153.5 -106t-142.5 -29q-128 0 -200.5 76t-72.5 211v516q0 64 -18.5 86.5t-81.5 34.5v49h385v-694q0 -79 26 -112.5t88 -33.5q43 0 80 20t88 71v579 q0 66 -25.5 90.5t-101.5 30.5v49h412v-82q23 7 43.5 40.5t20.5 53.5q0 22 -34 55.5t-34 59.5q0 55 36.5 89t88.5 34q50 0 89.5 -44t39.5 -95z" />
<glyph unicode="&#x1dd;" horiz-adv-x="909" d="M872 473q0 -224 -118 -363t-310 -139q-175 0 -276 123q-48 61 -73 140t-34 204h517q-6 106 -20 167.5t-44 111.5q-61 104 -180 104q-66 0 -118.5 -31t-115.5 -106l-49 29q99 144 187 200t213 56q190 0 305.5 -136t115.5 -360zM588 362h-275v-30q6 -149 19 -201 q24 -96 112 -96q75 0 107.5 72t36.5 255z" />
<glyph unicode="&#x1e6;" horiz-adv-x="1593" d="M1546 537q-115 -12 -145.5 -45t-30.5 -144v-260q-98 -58 -252 -92.5t-313 -34.5t-295 53t-231 147t-149 227.5t-54 289.5q0 208 92.5 377t255.5 264.5t364 95.5q140 0 318 -72q63 -28 94 -28q29 0 48.5 20t41.5 74h56v-479h-52q-54 117 -97.5 181t-109.5 122 q-133 115 -272 115q-186 0 -281.5 -167t-95.5 -489q0 -366 133 -536q51 -66 118.5 -96.5t164.5 -30.5q103 0 150 35.5t47 113.5v215q0 84 -37.5 110.5t-169.5 33.5v51h702v-51zM1202 1812l-299 -325h-227l-301 325h139l274 -180l277 180h137z" />
<glyph unicode="&#x1e7;" d="M989 -113q0 -152 -132.5 -230.5t-387.5 -78.5q-194 0 -303 50t-109 139q0 126 197 153q-98 35 -133 70t-35 98q0 157 244 240q-71 30 -108.5 54.5t-71.5 61.5q-74 90 -74 195q0 146 116.5 238t299.5 92q106 0 229 -45h266v-109h-166q82 -82 82 -201q0 -165 -139 -245 q-53 -31 -99 -42.5t-118 -11.5l-92 2q-61 0 -100.5 -30t-39.5 -76q0 -43 41 -57.5t164 -14.5h133q157 0 246.5 -67t89.5 -185zM827 -209q0 103 -163 103h-355q-43 -35 -57 -58t-14 -55q0 -137 274 -137q152 0 233.5 38t81.5 109zM627 637q0 143 -31.5 205.5t-103.5 62.5 t-104 -62t-32 -206q0 -143 31.5 -203.5t104.5 -60.5q72 0 103.5 61t31.5 203zM838 1430l-252 -361h-189l-250 361h115l230 -203l229 203h117z" />
<glyph unicode="&#x1ea;" horiz-adv-x="1593" d="M1522 688q0 -253 -132 -437.5t-356 -254.5q-46 -15 -69.5 -23t-57 -27t-45.5 -40q-51 -77 -51 -160q0 -51 26.5 -84t67.5 -33q68 0 117 68l31 -25q-33 -82 -95 -133t-137 -51q-70 0 -129 49.5t-59 143.5q0 154 137 280q-203 6 -362 99.5t-247.5 257t-88.5 368.5 q0 210 93.5 376.5t261 259.5t378.5 93q152 0 285.5 -55t228 -151t149 -231.5t54.5 -289.5zM1159 674q0 319 -93.5 496.5t-262.5 177.5q-180 0 -274.5 -174t-94.5 -506q0 -311 93 -475t270 -164t269.5 165t92.5 480z" />
<glyph unicode="&#x1eb;" d="M975 469q0 -152 -69.5 -272t-188.5 -179q-41 -21 -59 -31t-46.5 -32.5t-44.5 -48.5q-49 -79 -49 -160q0 -51 26.5 -84t67.5 -33q68 0 117 68l31 -25q-33 -82 -95 -133t-137 -51q-70 0 -129 49.5t-59 143.5q0 158 147 290q-191 11 -313.5 151.5t-122.5 352.5 q0 209 134 351.5t329 142.5q198 0 329.5 -142.5t131.5 -357.5zM674 457q0 252 -34.5 350t-123.5 98q-65 0 -99.5 -42.5t-49.5 -141.5t-15 -283q0 -225 35.5 -314t126.5 -89q89 0 124.5 93t35.5 329z" />
<glyph unicode="&#x1f4;" horiz-adv-x="1593" d="M1546 537q-115 -12 -145.5 -45t-30.5 -144v-260q-98 -58 -252 -92.5t-313 -34.5t-295 53t-231 147t-149 227.5t-54 289.5q0 208 92.5 377t255.5 264.5t364 95.5q140 0 318 -72q63 -28 94 -28q29 0 48.5 20t41.5 74h56v-479h-52q-54 117 -97.5 181t-109.5 122 q-133 115 -272 115q-186 0 -281.5 -167t-95.5 -489q0 -366 133 -536q51 -66 118.5 -96.5t164.5 -30.5q103 0 150 35.5t47 113.5v215q0 84 -37.5 110.5t-169.5 33.5v51h702v-51zM1151 1737q0 -32 -19.5 -51.5t-78.5 -47.5l-351 -161h-137l336 288q63 54 131 54q53 0 86 -23 t33 -59z" />
<glyph unicode="&#x1f5;" d="M989 -113q0 -152 -132.5 -230.5t-387.5 -78.5q-194 0 -303 50t-109 139q0 126 197 153q-98 35 -133 70t-35 98q0 157 244 240q-71 30 -108.5 54.5t-71.5 61.5q-74 90 -74 195q0 146 116.5 238t299.5 92q106 0 229 -45h266v-109h-166q82 -82 82 -201q0 -165 -139 -245 q-53 -31 -99 -42.5t-118 -11.5l-92 2q-61 0 -100.5 -30t-39.5 -76q0 -43 41 -57.5t164 -14.5h133q157 0 246.5 -67t89.5 -185zM827 -209q0 103 -163 103h-355q-43 -35 -57 -58t-14 -55q0 -137 274 -137q152 0 233.5 38t81.5 109zM627 637q0 143 -31.5 205.5t-103.5 62.5 t-104 -62t-32 -206q0 -143 31.5 -203.5t104.5 -60.5q72 0 103.5 61t31.5 203zM815 1348q0 -35 -16 -56.5t-66 -52.5l-291 -180h-114l280 321q52 58 109 58q44 0 71 -25t27 -65z" />
<glyph unicode="&#x1fa;" horiz-adv-x="1478" d="M1411 0h-663v51l65 6q54 3 76 18.5t22 49.5q0 60 -94 278h-461l-30 -81q-60 -151 -60 -187q0 -40 38.5 -59t129.5 -25v-51h-416v51q52 9 80 29t54 65t67 146l455 1122h57l457 -1077q36 -83 58 -128.5t42 -81.5t38.5 -49.5t37 -19.5t47.5 -6v-51zM786 483l-206 498 l-193 -498h399zM1065 2208q0 -32 -19.5 -51.5t-78.5 -47.5l-351 -161h-137l336 288q63 54 131 54q53 0 86 -23t33 -59zM922 1688q0 -91 -64.5 -154.5t-155.5 -63.5t-154 65t-63 157q0 86 65.5 150.5t154.5 64.5t153 -65t64 -154zM823 1686q0 50 -36 86t-85 36 q-47 0 -82.5 -36.5t-35.5 -83.5q0 -49 34.5 -84t81.5 -35q51 0 87 34.5t36 82.5z" />
<glyph unicode="&#x1fb;" d="M999 88q-59 -63 -111 -90t-118 -27q-75 0 -113 33t-55 111q-85 -77 -161 -110.5t-165 -33.5q-98 0 -161.5 61.5t-63.5 155.5q0 133 137 224q57 38 144 71t270 90v150q0 94 -41 137t-131 43q-55 0 -92 -22t-37 -54q0 -17 25 -45q36 -44 36 -88q0 -53 -39 -86t-100 -33 q-63 0 -98 36t-35 100q0 115 107 186.5t280 71.5q188 0 297 -75.5t109 -205.5v-534q0 -52 43 -52q13 0 22 9l21 20zM600 205v297q-250 -69 -250 -248q0 -61 29.5 -99t75.5 -38q37 0 70.5 20.5t74.5 67.5zM840 1767q0 -32 -19.5 -51t-79.5 -47l-350 -162h-137l336 289 q62 53 131 53q53 0 86 -23t33 -59zM696 1247q0 -91 -64 -154t-155 -63t-154 64.5t-63 156.5q0 87 65 151t154 64t153 -65t64 -154zM598 1245q0 50 -36 86.5t-85 36.5q-47 0 -83 -37t-36 -84q0 -49 34.5 -84t82.5 -35q51 0 87 34.5t36 82.5z" />
<glyph unicode="&#x1fc;" horiz-adv-x="2048" d="M1948 432l-84 -432h-1159v51q112 6 146 42.5t34 150.5v377h-389l-205 -385q-31 -55 -31 -93q0 -42 28 -60.5t107 -27.5l35 -4v-51h-422v51q43 6 68 25t56.5 66t100.5 171l437 797q3 5 7.5 14.5t6.5 12.5q57 96 57 127q0 37 -38.5 53t-139.5 22v45h1299v-411h-52 q-20 97 -38.5 145t-51.5 88q-85 107 -368 107q-83 0 -111.5 -12.5t-28.5 -49.5v-508q66 6 103.5 11t72.5 19.5t52 30.5t35 53.5t28.5 77.5t26.5 114h47v-693h-47q-15 100 -33 156.5t-54.5 94t-88.5 52t-142 19.5v-498q0 -66 31.5 -88t124.5 -22q258 0 377 125 q53 55 98.5 123.5t57.5 113.5h47zM885 702v594h-15l-329 -594h344zM1411 1737q0 -32 -19.5 -51.5t-78.5 -47.5l-350 -161h-138l336 288q63 54 131 54q53 0 86 -23t33 -59z" />
<glyph unicode="&#x1fd;" horiz-adv-x="1478" d="M1419 231q-91 -138 -186.5 -193.5t-241.5 -55.5q-107 0 -175 38.5t-126 133.5l-12 -13q-170 -170 -369 -170q-118 0 -179.5 57t-61.5 165q0 133 116 213q48 34 132 67t290 100v164q0 89 -37 127.5t-123 38.5q-58 0 -95.5 -20.5t-37.5 -51.5q0 -17 25 -45q21 -24 28 -41.5 t7 -46.5q0 -55 -33.5 -85.5t-95.5 -30.5q-65 0 -103.5 35.5t-38.5 95.5q0 110 106 183t267 73q101 0 166.5 -24t124.5 -81q57 55 118.5 80t141.5 25q113 0 202.5 -53.5t135.5 -147.5q26 -54 35.5 -109t9.5 -151h-520v-47q0 -177 55.5 -256.5t179.5 -79.5q75 0 133.5 32 t118.5 105zM606 166v342q-135 -50 -189.5 -107.5t-54.5 -152.5q0 -72 30 -110t87 -38q36 0 63.5 14t63.5 52zM1161 584v67q0 143 -28.5 199.5t-100.5 56.5q-80 0 -111.5 -71t-31.5 -252h272zM1090 1348q0 -35 -16 -56.5t-66 -52.5l-291 -180h-115l281 321q52 58 108 58 q44 0 71.5 -25t27.5 -65z" />
<glyph unicode="&#x1fe;" horiz-adv-x="1593" d="M1522 688q0 -210 -92.5 -376t-258 -258.5t-374.5 -92.5q-110 0 -198 23t-185 77l-146 -213h-102l176 258q-91 78 -136.5 139.5t-80.5 153.5q-53 136 -53 287q0 209 92.5 375.5t259 260t375.5 93.5q105 0 190.5 -22t181.5 -74l129 190h103l-160 -235q74 -62 111 -103.5 t71 -99.5q97 -174 97 -383zM1065 1165q-54 98 -115.5 140.5t-152.5 42.5q-173 0 -268 -176t-95 -500q0 -115 9.5 -192.5t35.5 -170.5zM1159 678q0 125 -11.5 211t-41.5 184l-588 -860q53 -98 117.5 -141t161.5 -43q178 0 270 165t92 484zM1161 1737q0 -32 -19.5 -51.5 t-78.5 -47.5l-350 -161h-138l336 288q63 54 131 54q53 0 86 -23t33 -59z" />
<glyph unicode="&#x1ff;" d="M975 469q0 -215 -131.5 -356.5t-329.5 -141.5q-113 0 -219 56l-129 -215h-96l155 262q-92 86 -133 179.5t-41 215.5q0 215 132.5 357.5t332.5 142.5q112 0 211 -51l123 206h94l-149 -252q94 -85 137 -181t43 -222zM647 782q-20 66 -50 94.5t-81 28.5q-65 0 -99.5 -43 t-49.5 -143.5t-15 -288.5q0 -102 2 -143zM674 449l-4 215l-295 -500q20 -69 52.5 -99t86.5 -30q89 0 124.5 92.5t35.5 321.5zM840 1348q0 -35 -16 -56.5t-66 -52.5l-291 -180h-115l281 321q52 58 108 58q44 0 71.5 -25t27.5 -65z" />
<glyph unicode="&#x200;" horiz-adv-x="1478" d="M1411 0h-663v51l65 6q54 3 76 18.5t22 49.5q0 60 -94 278h-461l-30 -81q-60 -151 -60 -187q0 -40 38.5 -59t129.5 -25v-51h-416v51q52 9 80 29t54 65t67 146l455 1122h57l457 -1077q36 -83 58 -128.5t42 -81.5t38.5 -49.5t37 -19.5t47.5 -6v-51zM786 483l-206 498 l-193 -498h399zM600 1477h-137l-350 161q-59 28 -79 47.5t-20 51.5q0 36 33 59t86 23q68 0 131 -54zM961 1477h-138l-350 161q-59 28 -78.5 47.5t-19.5 51.5q0 36 33 59t86 23q68 0 131 -54z" />
<glyph unicode="&#x201;" d="M999 88q-59 -63 -111 -90t-118 -27q-75 0 -113 33t-55 111q-85 -77 -161 -110.5t-165 -33.5q-98 0 -161.5 61.5t-63.5 155.5q0 133 137 224q57 38 144 71t270 90v150q0 94 -41 137t-131 43q-55 0 -92 -22t-37 -54q0 -17 25 -45q36 -44 36 -88q0 -53 -39 -86t-100 -33 q-63 0 -98 36t-35 100q0 115 107 186.5t280 71.5q188 0 297 -75.5t109 -205.5v-534q0 -52 43 -52q13 0 22 9l21 20zM600 205v297q-250 -69 -250 -248q0 -61 29.5 -99t75.5 -38q37 0 70.5 20.5t74.5 67.5zM743 1061h-114l-291 180q-50 31 -66 52.5t-16 56.5q0 40 27 65t71 25 q57 0 109 -58zM354 1061h-114l-291 180q-50 31 -66 52.5t-16 56.5q0 40 27 65t71 25q57 0 109 -58z" />
<glyph unicode="&#x204;" horiz-adv-x="1366" d="M1313 426l-82 -426h-1198v51q114 12 147 39t33 107v991q0 78 -37.5 108.5t-142.5 36.5v51h1181v-411h-51q-26 140 -76 211.5t-144 101t-265 29.5q-80 0 -106.5 -19t-26.5 -77v-476q165 -1 237 65t95 241h53v-693h-53q-19 178 -92 248t-240 70v-496q0 -66 35.5 -90.5 t134.5 -24.5q229 0 368 113q53 45 90 98t82 152h58zM528 1477h-137l-350 161q-59 28 -78.5 47.5t-19.5 51.5q0 36 32.5 59t85.5 23q69 0 132 -54zM889 1477h-137l-351 161q-59 28 -78.5 47.5t-19.5 51.5q0 36 33 59t86 23q68 0 131 -54z" />
<glyph unicode="&#x205;" horiz-adv-x="909" d="M872 227q-99 -144 -186.5 -200t-212.5 -56q-191 0 -306.5 136t-115.5 360t118 363t310 139q176 0 277 -123q48 -61 72.5 -139.5t33.5 -204.5h-516q6 -106 20 -167.5t44 -111.5q61 -104 180 -104q66 0 118 31t115 106zM610 578v30q-6 154 -18 201q-24 96 -113 96 q-75 0 -107 -71.5t-36 -255.5h274zM745 1061h-114l-291 180q-50 31 -66 52.5t-16 56.5q0 40 27 65t71 25q57 0 109 -58zM356 1061h-114l-291 180q-50 31 -66 52.5t-16 56.5q0 40 27 65t71 25q57 0 109 -58z" />
<glyph unicode="&#x208;" horiz-adv-x="796" d="M758 0h-717v51q115 10 152.5 39.5t37.5 106.5v991q0 78 -39.5 107.5t-150.5 37.5v51h717v-51q-114 -4 -154.5 -34.5t-40.5 -110.5v-991q0 -80 39 -109.5t156 -36.5v-51zM295 1477h-137l-351 161q-59 28 -78.5 47.5t-19.5 51.5q0 36 33 59t86 23q68 0 131 -54zM655 1477 h-137l-350 161q-59 28 -78.5 47.5t-19.5 51.5q0 36 32.5 59t85.5 23q68 0 131 -54z" />
<glyph unicode="&#x209;" horiz-adv-x="569" d="M522 0h-489v49q70 17 89 38.5t19 84.5v602q0 63 -20 85t-88 36v49h393v-778q0 -58 21 -83.5t75 -33.5v-49zM549 1061h-115l-291 180q-50 31 -66 52.5t-16 56.5q0 40 27.5 65t71.5 25q56 0 108 -58zM160 1061h-115l-291 180q-50 31 -66 52.5t-16 56.5q0 40 27.5 65 t71.5 25q56 0 108 -58z" />
<glyph unicode="&#x20c;" horiz-adv-x="1593" d="M1522 688q0 -209 -92 -375t-258 -259t-375 -93t-374.5 92.5t-258 258t-92.5 374.5q0 210 93.5 376.5t261 259.5t378.5 93q152 0 285.5 -55t228 -151t149 -231.5t54.5 -289.5zM1159 674q0 319 -93.5 496.5t-262.5 177.5q-180 0 -274.5 -174t-94.5 -506q0 -311 93 -475 t270 -164t269.5 165t92.5 480zM702 1477h-137l-350 161q-59 28 -78.5 47.5t-19.5 51.5q0 36 33 59t86 23q68 0 131 -54zM1063 1477h-137l-351 161q-59 28 -78.5 47.5t-19.5 51.5q0 36 33 59t86 23q68 0 131 -54z" />
<glyph unicode="&#x20d;" d="M975 469q0 -214 -131.5 -356t-329.5 -142q-201 0 -332 142t-131 362q0 209 134 351.5t329 142.5q198 0 329.5 -142.5t131.5 -357.5zM674 457q0 252 -34.5 350t-123.5 98q-65 0 -99.5 -42.5t-49.5 -141.5t-15 -283q0 -225 35.5 -314t126.5 -89q89 0 124.5 93t35.5 329z M780 1061h-114l-291 180q-50 31 -66 52.5t-16 56.5q0 40 27 65t71 25q57 0 109 -58zM391 1061h-115l-290 180q-50 31 -66 52.5t-16 56.5q0 40 27 65t71 25q57 0 109 -58z" />
<glyph unicode="&#x210;" horiz-adv-x="1478" d="M1464 0h-420l-423 641h-56v-401q0 -77 12.5 -111t48 -51t119.5 -27v-51h-692v51q52 6 81 13t51 18t31 32.5t13 49.5t4 76v905q0 111 -33 146t-147 42v51h660q281 0 429 -93.5t148 -270.5q0 -143 -92 -229q-43 -39 -91 -63.5t-138 -53.5l411 -584q29 -39 84 -39v-51z M940 1012q0 161 -61.5 232t-202.5 71q-77 0 -96 -31q-15 -30 -15 -55v-522q116 1 177.5 12.5t101.5 38.5q96 63 96 254zM610 1477h-137l-350 161q-59 28 -78.5 47.5t-19.5 51.5q0 36 32.5 59t85.5 23q68 0 131 -54zM971 1477h-137l-351 161q-59 28 -78.5 47.5t-19.5 51.5 q0 36 33 59t86 23q68 0 131 -54z" />
<glyph unicode="&#x211;" horiz-adv-x="909" d="M889 809q0 -60 -36 -98.5t-93 -38.5q-40 0 -67 16t-56 57q-33 48 -57 48q-51 0 -88 -57.5t-37 -137.5v-387q0 -95 27.5 -125.5t121.5 -36.5v-49h-545v49q68 12 89.5 36t21.5 87v602q0 62 -22.5 87t-88.5 34v49h387v-168q72 103 136.5 148t140.5 45q72 0 119 -45.5 t47 -114.5zM713 1061h-115l-291 180q-50 31 -66 52.5t-16 56.5q0 40 27.5 65t71.5 25q56 0 108 -58zM324 1061h-115l-291 180q-50 31 -66 52.5t-16 56.5q0 40 27 65t71 25q57 0 109 -58z" />
<glyph unicode="&#x214;" horiz-adv-x="1478" d="M1436 1333q-98 -15 -129 -49t-31 -125v-653q0 -148 -40.5 -260t-115.5 -172q-66 -54 -164.5 -83.5t-207.5 -29.5q-232 0 -383 111q-91 68 -127.5 154t-36.5 235v684q0 77 -13 112.5t-46.5 52t-108.5 23.5v51h692v-51q-128 -6 -163.5 -39.5t-35.5 -148.5v-684 q0 -209 71 -304.5t228 -95.5q184 0 272.5 109t88.5 336v624q0 112 -40.5 153t-160.5 50v51h451v-51zM754 1477h-138l-350 161q-59 28 -78.5 47.5t-19.5 51.5q0 36 33 59t86 23q68 0 131 -54zM1114 1477h-137l-350 161q-59 28 -79 47.5t-20 51.5q0 36 33 59t86 23 q68 0 131 -54z" />
<glyph unicode="&#x215;" horiz-adv-x="1138" d="M1100 41l-127 -14q-102 -11 -154 -21t-117 -33v133q-90 -77 -153.5 -106t-142.5 -29q-128 0 -200.5 76t-72.5 211v516q0 64 -18.5 86.5t-81.5 34.5v49h385v-694q0 -79 26 -112.5t88 -33.5q44 0 80.5 20t87.5 71v579q0 66 -25.5 90.5t-101.5 30.5v49h412v-737 q0 -66 24 -91t91 -28v-47zM825 1061h-114l-291 180q-50 31 -66 52.5t-16 56.5q0 40 27 65t71 25q57 0 109 -58zM436 1061h-114l-291 180q-50 31 -66 52.5t-16 56.5q0 40 27 65t71 25q57 0 109 -58z" />
<glyph unicode="&#x218;" horiz-adv-x="1138" d="M1051 393q0 -193 -140.5 -312.5t-367.5 -119.5q-127 0 -267 49q-67 21 -83 21q-25 0 -39 -15.5t-23 -54.5h-59v506h59q26 -109 52.5 -171.5t70.5 -119.5q117 -147 295 -147q118 0 188 62.5t70 168.5q0 82 -47 132.5t-182 115.5l-138 65q-263 127 -327 289q-23 67 -23 135 q0 195 120 306.5t329 111.5q113 0 239 -47q61 -20 86 -20q28 0 42 14t24 55h61v-444h-57q-31 100 -60.5 155t-82.5 109q-112 115 -252 115q-104 0 -165 -55t-61 -150q0 -75 43.5 -123t167.5 -109l301 -149q100 -50 163 -154t63 -219zM713 -297q0 -120 -72.5 -215 t-232.5 -186l-21 39q104 74 152.5 132.5t48.5 112.5q0 15 -11 27t-24 12q-8 0 -14 -2q-8 -2 -27 -2q-63 0 -100 40t-37 106q0 69 42 110t111 41q83 0 134 -59t51 -156z" />
<glyph unicode="&#x219;" horiz-adv-x="796" d="M739 283q0 -138 -88 -225t-227 -87q-43 0 -110 14t-111 33q-33 13 -47 13q-13 0 -24.5 -12.5t-29.5 -45.5h-51v338h58q65 -270 280 -270q69 0 111.5 36.5t42.5 96.5q0 50 -45.5 91t-151.5 87q-154 66 -222.5 141t-68.5 177q0 129 91.5 214t230.5 85q71 0 160 -31 q46 -14 63 -14q20 0 31 9t20 32h45v-297h-51q-23 66 -43.5 101.5t-52.5 66.5q-68 65 -154 65q-58 0 -96.5 -34t-38.5 -85q0 -52 46 -93.5t151 -86.5q153 -63 217.5 -136.5t64.5 -182.5zM565 -297q0 -120 -72.5 -215t-232.5 -186l-20 39q104 73 152 132t48 113q0 15 -10.5 27 t-23.5 12q-9 0 -15 -2q-8 -2 -26 -2q-63 0 -100.5 40t-37.5 106q0 69 42.5 110t111.5 41q83 0 133.5 -59t50.5 -156z" />
<glyph unicode="&#x21a;" horiz-adv-x="1366" d="M1303 973h-60q-26 183 -115 261.5t-278 84.5v-1079q0 -63 5.5 -94.5t29 -53.5t59 -29t107.5 -12v-51h-732v51q70 6 106 13.5t59 29.5t28.5 53.5t5.5 92.5v1079q-190 -6 -279.5 -84.5t-115.5 -261.5h-60l7 411h1228zM854 -297q0 -120 -72.5 -215t-232.5 -186l-21 39 q104 74 152.5 132.5t48.5 112.5q0 15 -11 27t-24 12q-8 0 -14 -2q-8 -2 -27 -2q-63 0 -100 40t-37 106q0 69 42.5 110t111.5 41q83 0 133.5 -59t50.5 -156z" />
<glyph unicode="&#x21b;" horiz-adv-x="681" d="M680 205q-63 -126 -131.5 -178t-171.5 -52q-106 0 -168 57.5t-62 157.5v664h-106v55q100 85 173 167t167 214h51v-346h193v-90h-193v-616q0 -62 18.5 -89.5t61.5 -27.5q33 0 60 24t57 82zM547 -297q0 -120 -72.5 -215t-232.5 -186l-21 39q104 74 152.5 132.5t48.5 112.5 q0 15 -11 27t-24 12q-8 0 -14 -2q-8 -2 -27 -2q-63 0 -100 40t-37 106q0 69 42 110t111 41q83 0 134 -59t51 -156z" />
<glyph unicode="&#x258;" horiz-adv-x="909" d="M872 467q0 -224 -115.5 -360t-305.5 -136q-125 0 -213 56t-187 200l49 29q63 -75 115.5 -106t118.5 -31q119 0 180 104q30 50 44 111.5t20 167.5h-517q9 125 34 204t73 140q101 123 276 123q192 0 310 -139t118 -363zM588 578q-4 183 -36.5 255t-107.5 72q-88 0 -112 -96 q-13 -52 -19 -201v-30h275z" />
<glyph unicode="&#x259;" horiz-adv-x="909" d="M872 473q0 -224 -118 -363t-310 -139q-175 0 -276 123q-48 61 -73 140t-34 204h517q-6 106 -20 167.5t-44 111.5q-61 104 -180 104q-66 0 -118.5 -31t-115.5 -106l-49 29q99 144 187 200t213 56q190 0 305.5 -136t115.5 -360zM588 362h-275v-30q6 -149 19 -201 q24 -96 112 -96q75 0 107.5 72t36.5 255z" />
<glyph unicode="&#x2be;" horiz-adv-x="765" d="M676 1016q0 -157 -96 -258t-244 -101q-96 0 -161.5 48.5t-65.5 117.5q0 47 29.5 75t80.5 28q46 0 68.5 -27t23.5 -88v-20.5v-14.5v-9t0.5 -7t1 -4.5t2.5 -5.5q10 -17 37 -17q48 0 73.5 55.5t25.5 153.5q0 132 -47.5 210.5t-131.5 78.5q-38 0 -65.5 -16t-63.5 -56 q-4 -4 -12 -4q-4 0 -12 4l-25 25q-4 4 -4 12q0 2 4 10q62 78 127 114t146 36q135 0 222 -95.5t87 -244.5z" />
<glyph unicode="&#x2bf;" horiz-adv-x="765" d="M676 817q0 -2 -4 -10q-62 -78 -127 -114t-146 -36q-135 0 -222 95.5t-87 244.5q0 157 96 258t244 101q96 0 161.5 -48.5t65.5 -117.5q0 -47 -29.5 -75t-80.5 -28q-46 0 -68.5 27t-23.5 88v20.5v15v9t-0.5 7l-1 5t-2.5 5.5q-10 16 -37 16q-48 0 -73.5 -55.5t-25.5 -153.5 q0 -132 47.5 -210.5t131.5 -78.5q38 0 65.5 16t63.5 56q4 4 12 4q4 0 12 -4l25 -25q4 -4 4 -12z" />
<glyph unicode="&#x2c6;" horiz-adv-x="681" d="M686 1069h-117l-229 201l-229 -201h-115l250 361h188z" />
<glyph unicode="&#x2c7;" horiz-adv-x="681" d="M686 1430l-252 -361h-188l-250 361h115l229 -203l229 203h117z" />
<glyph unicode="&#x2d8;" horiz-adv-x="681" d="M651 1417q-9 -79 -22 -124.5t-39 -84.5q-79 -125 -250 -125q-168 0 -246 113q-32 43 -45 89.5t-18 131.5h90q17 -94 69 -136t150 -42q95 0 145 40.5t76 137.5h90z" />
<glyph unicode="&#x2d9;" horiz-adv-x="681" d="M496 1249q0 -67 -46 -112t-112 -45t-112 45t-46 112t46 112.5t112 45.5t112 -45.5t46 -112.5z" />
<glyph unicode="&#x2da;" horiz-adv-x="681" d="M559 1249q0 -91 -64 -154t-155 -63t-154 64.5t-63 156.5q0 87 65 151t154 64t153 -65t64 -154zM461 1247q0 50 -36 86.5t-85 36.5q-47 0 -83 -37t-36 -84q0 -49 34.5 -84t82.5 -35q51 0 87 34.5t36 82.5z" />
<glyph unicode="&#x2db;" horiz-adv-x="681" d="M575 -328q-33 -82 -95 -133t-136 -51q-70 0 -129 49.5t-59 143.5q0 61 20 116t56.5 99.5t70.5 75t80 63.5h106q-37 -39 -58 -63.5t-47 -63t-38 -78.5t-12 -84q0 -51 26.5 -84t67.5 -33q68 0 117 68z" />
<glyph unicode="&#x2dc;" horiz-adv-x="681" d="M715 1380q-35 -133 -93.5 -196.5t-146.5 -63.5q-60 0 -131 29l-59 27q-67 30 -89 37.5t-42 7.5q-39 0 -67 -27t-34 -70h-86q28 132 85.5 194t152.5 62q67 0 149 -39l82 -36q53 -25 80 -25q41 0 66 22.5t45 77.5h88z" />
<glyph unicode="&#x2dd;" horiz-adv-x="681" d="M563 1350q0 -35 -16 -56.5t-66 -52.5l-291 -180h-114l280 321q52 58 109 58q44 0 71 -25t27 -65zM952 1350q0 -35 -16 -56.5t-66 -52.5l-290 -180h-115l280 321q52 58 109 58q44 0 71 -25t27 -65z" />
<glyph unicode="&#x300;" horiz-adv-x="0" d="M-346 1059h-115l-291 180q-50 31 -66 52.5t-16 56.5q0 40 27.5 65t71.5 25q56 0 108 -58z" />
<glyph unicode="&#x301;" horiz-adv-x="0" d="M-188 1348q0 -35 -16 -56.5t-66 -52.5l-291 -180h-115l281 321q52 58 108 58q44 0 71.5 -25t27.5 -65z" />
<glyph unicode="&#x302;" horiz-adv-x="0" d="M-166 1069h-117l-229 201l-229 -201h-115l250 361h188z" />
<glyph unicode="&#x303;" horiz-adv-x="0" d="M-137 1380q-35 -133 -93.5 -196.5t-146.5 -63.5q-60 0 -131 29l-59 27q-67 30 -89 37.5t-42 7.5q-39 0 -67 -27t-34 -70h-86q28 132 85.5 194t152.5 62q67 0 149 -39l82 -36q53 -25 80 -25q41 0 66 22.5t45 77.5h88z" />
<glyph unicode="&#x304;" horiz-adv-x="0" d="M-174 1176h-676v147h676v-147z" />
<glyph unicode="&#x306;" horiz-adv-x="0" d="M-201 1417q-9 -79 -22 -124.5t-39 -84.5q-79 -125 -250 -125q-168 0 -246 113q-32 43 -45 89.5t-18 131.5h90q17 -94 69 -136t150 -42q95 0 145 40.5t76 137.5h90z" />
<glyph unicode="&#x307;" horiz-adv-x="0" d="M-356 1249q0 -67 -46 -112t-112 -45t-112 45t-46 112t46 112.5t112 45.5t112 -45.5t46 -112.5z" />
<glyph unicode="&#x308;" horiz-adv-x="0" d="M-592 1247q0 -54 -38.5 -91.5t-94.5 -37.5q-54 0 -92.5 39.5t-38.5 93.5q0 53 39 92t92 39q54 0 93.5 -40t39.5 -95zM-162 1247q0 -54 -39 -91.5t-96 -37.5q-54 0 -91.5 39t-37.5 96q0 51 39 90t90 39q55 0 95 -40t40 -95z" />
<glyph unicode="&#x309;" horiz-adv-x="0" d="M-285 1333q0 -69 -96 -149q-2 -2 -20 -16.5t-26.5 -21.5t-24.5 -24t-24 -31t-15 -34t-7 -41h-61q13 147 72 217q41 53 41 92q0 74 -95 74q-30 0 -52.5 -5t-24.5 -10l16 -20q2 -3 6 -9.5t6 -10t4 -11t2 -16.5q0 -31 -16.5 -48.5t-46.5 -17.5q-40 0 -65 25.5t-25 66.5 q0 62 63 102t160 40q120 0 180 -51q49 -43 49 -101z" />
<glyph unicode="&#x30a;" horiz-adv-x="0" d="M-293 1249q0 -91 -64 -154t-155 -63t-154 64.5t-63 156.5q0 87 65 151t154 64t153 -65t64 -154zM-391 1247q0 50 -36 86.5t-85 36.5q-47 0 -83 -37t-36 -84q0 -49 34.5 -84t82.5 -35q51 0 87 34.5t36 82.5z" />
<glyph unicode="&#x30b;" horiz-adv-x="0" d="M-289 1350q0 -35 -16 -56.5t-66 -52.5l-291 -180h-114l280 321q52 58 109 58q44 0 71 -25t27 -65zM100 1350q0 -35 -16 -56.5t-66 -52.5l-290 -180h-115l281 321q52 58 108 58q44 0 71 -25t27 -65z" />
<glyph unicode="&#x30c;" horiz-adv-x="0" d="M-166 1430l-252 -361h-188l-250 361h115l229 -203l229 203h117z" />
<glyph unicode="&#x30f;" horiz-adv-x="0" d="M-246 1061h-114l-291 180q-50 31 -66 52.5t-16 56.5q0 40 27 65t71 25q57 0 109 -58zM-635 1061h-115l-290 180q-50 31 -66 52.5t-16 56.5q0 40 27 65t71 25q57 0 109 -58z" />
<glyph unicode="&#x311;" horiz-adv-x="0" d="M-201 1083h-90q-17 94 -69 136.5t-150 42.5q-95 0 -145 -41t-76 -138h-90q9 79 22 124.5t39 84.5q79 125 250 125q169 0 246 -112q32 -42 45 -89.5t18 -132.5z" />
<glyph unicode="&#x323;" horiz-adv-x="0" d="M-356 -305q0 -67 -46 -112.5t-112 -45.5t-112 45.5t-46 112.5t46 112.5t112 45.5t112 -45.5t46 -112.5z" />
<glyph unicode="&#x326;" horiz-adv-x="0" d="M-342 -297q0 -120 -72.5 -215t-232.5 -186l-21 39q104 74 152.5 132.5t48.5 112.5q0 15 -11 27t-24 12q-8 0 -14 -2q-8 -2 -27 -2q-63 0 -100 40t-37 106q0 69 42.5 110t111.5 41q83 0 133.5 -59t50.5 -156z" />
<glyph unicode="&#x32e;" horiz-adv-x="0" d="M-131 -137q0 -143 -101.5 -239.5t-277.5 -96.5q-178 0 -278.5 96.5t-100.5 239.5h98q20 -90 87.5 -127t193.5 -37t193.5 37t87.5 127h98z" />
<glyph unicode="&#x32f;" horiz-adv-x="0" d="M-131 -473h-98q-20 90 -87.5 127t-193.5 37t-193.5 -37t-87.5 -127h-98q0 143 101.5 239.5t277.5 96.5q178 0 278.5 -96.5t100.5 -239.5z" />
<glyph unicode="&#x330;" horiz-adv-x="0" d="M-137 -174q-35 -133 -93.5 -196.5t-146.5 -63.5q-63 0 -131 28l-59 27q-67 30 -89 37.5t-42 7.5q-40 0 -67.5 -26.5t-33.5 -69.5h-86q28 132 85.5 194t152.5 62q67 0 149 -39l82 -37q51 -24 80 -24q41 0 66 22.5t45 77.5h88z" />
<glyph unicode="&#x331;" horiz-adv-x="0" d="M-174 -379h-676v148h676v-148z" />
<glyph unicode="&#x332;" horiz-adv-x="0" d="M-174 -379h-676v148h676v-148z" />
<glyph unicode="&#x391;" horiz-adv-x="1478" d="M1411 0h-663v51l65 6q54 3 76 18.5t22 49.5q0 60 -94 278h-461l-30 -81q-60 -151 -60 -187q0 -40 38.5 -59t129.5 -25v-51h-416v51q52 9 80 29t54 65t67 146l455 1122h57l457 -1077q36 -83 58 -128.5t42 -81.5t38.5 -49.5t37 -19.5t47.5 -6v-51zM786 483l-206 498 l-193 -498h399z" />
<glyph unicode="&#x392;" horiz-adv-x="1366" d="M1268 385q0 -173 -158.5 -279t-417.5 -106h-659v51q112 12 146 40t34 106v991q0 78 -37.5 108.5t-142.5 36.5v51h633q257 0 394.5 -84.5t137.5 -242.5q0 -117 -73.5 -186.5t-252.5 -122.5q107 -23 169 -50t116 -73q111 -97 111 -240zM915 367q0 169 -77.5 252t-235.5 83 h-61v-512q0 -67 28.5 -95.5t96.5 -28.5q249 0 249 301zM860 1042q0 145 -51 213t-158 68q-60 0 -85 -22.5t-25 -77.5v-459q98 2 157 15t96.5 46t51.5 83.5t14 133.5z" />
<glyph unicode="&#x393;" horiz-adv-x="1251" d="M1194 973h-49q-22 97 -42 147t-54 88q-94 107 -373 107q-78 0 -104.5 -19.5t-26.5 -76.5v-1022q0 -85 42 -112.5t183 -33.5v-51h-737v51q114 12 147 39t33 107v991q0 79 -37 109t-143 36v51h1161v-411z" />
<glyph unicode="&#x394;" horiz-adv-x="1349" d="M1407 0h-1460l700 1497h70zM932 289l-385 827l-381 -827h766z" />
<glyph unicode="&#x395;" horiz-adv-x="1366" d="M1313 426l-82 -426h-1198v51q114 12 147 39t33 107v991q0 78 -37.5 108.5t-142.5 36.5v51h1181v-411h-51q-26 140 -76 211.5t-144 101t-265 29.5q-80 0 -106.5 -19t-26.5 -77v-476q165 -1 237 65t95 241h53v-693h-53q-19 178 -92 248t-240 70v-496q0 -66 35.5 -90.5 t134.5 -24.5q229 0 368 113q53 45 90 98t82 152h58z" />
<glyph unicode="&#x396;" horiz-adv-x="1366" d="M1298 494l-53 -494h-1188v33l783 1280l-170 -6q-119 0 -191.5 -13t-130.5 -52.5t-95 -103.5t-75 -175h-57l43 421h1073v-32l-776 -1280h151q148 0 265 21.5t170 58.5q72 51 114.5 124t83.5 218h53z" />
<glyph unicode="&#x397;" horiz-adv-x="1593" d="M1554 0h-696v51q112 12 148 41t36 105v471h-493v-471q0 -76 36 -105t148 -41v-51h-690v51q107 13 140.5 42t33.5 104v991q0 77 -35.5 106.5t-138.5 38.5v51h690v-51q-107 -7 -145.5 -37.5t-38.5 -107.5v-424h493v424q0 77 -38.5 107.5t-145.5 37.5v51h696v-51 q-104 -8 -142 -38.5t-38 -106.5v-991q0 -75 35 -104t145 -42v-51z" />
<glyph unicode="&#x398;" horiz-adv-x="1593" d="M1522 688q0 -209 -92 -375t-258 -259t-375 -93t-374.5 92.5t-258 258t-92.5 374.5q0 210 93.5 376.5t261 259.5t378.5 93q152 0 285.5 -55t228 -151t149 -231.5t54.5 -289.5zM1159 674q0 319 -93.5 496.5t-262.5 177.5q-180 0 -274.5 -174t-94.5 -506q0 -311 93 -475 t270 -164t269.5 165t92.5 480zM1008 420v498h-37q0 -73 -37.5 -101.5t-136.5 -28.5q-101 0 -136.5 28t-35.5 102h-39v-498h39q0 99 67 121q34 12 123 12q156 0 156 -133h37z" />
<glyph unicode="&#x399;" horiz-adv-x="796" d="M758 0h-717v51q115 10 152.5 39.5t37.5 106.5v991q0 78 -39.5 107.5t-150.5 37.5v51h717v-51q-114 -4 -154.5 -34.5t-40.5 -110.5v-991q0 -80 39 -109.5t156 -36.5v-51z" />
<glyph unicode="&#x39a;" horiz-adv-x="1593" d="M1575 0h-688v51q29 2 65 2q52 3 74.5 12t22.5 29q0 17 -10 34.5t-40 55.5l-372 465l-56 -51v-401q0 -75 35.5 -104t145.5 -42v-51h-691v51q110 12 144.5 40t34.5 106v991q0 80 -36.5 109.5t-142.5 35.5v51h693v-51q-114 -7 -148.5 -43t-34.5 -145v-438l445 446 q47 47 60.5 67.5t13.5 45.5q0 31 -22.5 44.5t-78.5 16.5q-12 2 -74 6v51h592v-51q-105 -8 -179.5 -43.5t-174.5 -123.5t-303 -298l625 -774q20 -23 41 -32.5t59 -10.5v-51z" />
<glyph unicode="&#x39b;" horiz-adv-x="1478" d="M1411 0h-663v51l65 6q54 3 76 18.5t22 49.5q0 60 -94 278l-237 578l-254 -659q-60 -151 -60 -187q0 -40 38.5 -59t129.5 -25v-51h-416v51q52 9 80 29t54 65t67 146l455 1122h57l457 -1077q36 -83 58 -128.5t42 -81.5t38.5 -49.5t37 -19.5t47.5 -6v-51z" />
<glyph unicode="&#x39c;" horiz-adv-x="1933" d="M1886 0h-680v51q115 10 149 39t34 115v1042l-517 -1247h-55l-516 1217v-963q0 -114 40.5 -154t166.5 -49v-51h-479v51q119 12 152.5 41.5t33.5 122.5v973q0 80 -35 108t-147 37v51h518l410 -966l409 966h516v-51q-113 -8 -146.5 -43t-33.5 -145v-905q0 -77 12.5 -111 t48 -51t119.5 -27v-51z" />
<glyph unicode="&#x39d;" horiz-adv-x="1478" d="M1436 1333q-100 -15 -130 -45.5t-30 -118.5v-1206h-57l-916 1114v-823q0 -109 38.5 -149.5t156.5 -53.5v-51h-465v51q112 13 146 44.5t34 119.5v971q-74 88 -108.5 117.5t-65.5 29.5v51h432l715 -878v624q0 109 -39 151t-152 52v51h441v-51z" />
<glyph unicode="&#x39e;" horiz-adv-x="1386" d="M1251 969h-39q-5 64 -39 92.5t-108 28.5h-741q-74 0 -109 -28t-39 -93h-37v387h1112v-387zM1059 442h-37q-5 69 -37.5 99t-110.5 30h-342q-90 0 -123.5 -27t-39.5 -102h-37v496h37q3 -53 28 -92q27 -35 131 -35h346q75 0 108.5 29t39.5 98h37v-496zM1274 0h-1159v455h37 q3 -103 16 -136q14 -30 51.5 -41.5t124.5 -11.5h729q77 0 109 19t43 51t12 119h37v-455z" />
<glyph unicode="&#x39f;" horiz-adv-x="1593" d="M1522 688q0 -209 -92 -375t-258 -259t-375 -93t-374.5 92.5t-258 258t-92.5 374.5q0 210 93.5 376.5t261 259.5t378.5 93q152 0 285.5 -55t228 -151t149 -231.5t54.5 -289.5zM1159 674q0 319 -93.5 496.5t-262.5 177.5q-180 0 -274.5 -174t-94.5 -506q0 -311 93 -475 t270 -164t269.5 165t92.5 480z" />
<glyph unicode="&#x3a0;" horiz-adv-x="1593" d="M1554 0h-696v51q112 12 148 41t36 105v991q0 77 -38.5 107.5t-145.5 37.5h-125q-107 -7 -145.5 -37.5t-38.5 -107.5v-991q0 -76 36 -105t148 -41v-51h-690v51q107 13 140.5 42t33.5 104v991q0 77 -35.5 106.5t-138.5 38.5v51h1511v-51q-104 -8 -142 -38.5t-38 -106.5 v-991q0 -75 35 -104t145 -42v-51z" />
<glyph unicode="&#x3a1;" horiz-adv-x="1251" d="M1229 1012q0 -119 -66 -209t-190 -137q-67 -27 -146.5 -35t-289.5 -10v-381q0 -61 4.5 -91t25.5 -52t53 -30t97 -16v-51h-684v51q46 8 49 8q72 9 97.5 47t25.5 134v905q0 108 -32.5 143.5t-139.5 44.5v51h659q257 0 397 -97t140 -275zM877 1001q0 166 -55.5 239 t-182.5 73q-102 0 -102 -72v-549q108 0 166.5 12.5t95.5 43.5q78 69 78 253z" />
<glyph unicode="&#x3a3;" horiz-adv-x="1345" d="M1298 332l-98 -332h-1155l444 645l-428 739h1104l19 -260h-49q-18 84 -47.5 124t-85 55.5t-164.5 15.5h-496l348 -586l-371 -555h605q111 0 168 12t92 43.5t67 98.5h47z" />
<glyph unicode="&#x3a4;" horiz-adv-x="1366" d="M1303 973h-60q-26 183 -115 261.5t-278 84.5v-1079q0 -63 5.5 -94.5t29 -53.5t59 -29t107.5 -12v-51h-732v51q70 6 106 13.5t59 29.5t28.5 53.5t5.5 92.5v1079q-190 -6 -279.5 -84.5t-115.5 -261.5h-60l7 411h1228z" />
<glyph unicode="&#x3a5;" horiz-adv-x="1478" d="M1448 924h-62q0 73 -47.5 125.5t-117.5 52.5q-89 0 -154 -51t-99.5 -138.5t-50.5 -186.5t-16 -214v-272q0 -61 5 -92t27 -53t56 -30t101 -14v-51h-711v51q54 5 85 12t54 18t33 33t14 50t4 76v272q0 91 -8.5 171.5t-31 159t-57 134.5t-90 90.5t-126.5 34.5 q-70 0 -117 -52.5t-47 -125.5h-61q0 460 225 460q88 0 160 -35t122 -98t86 -144t57 -181.5t30.5 -201.5t9.5 -212h29q0 110 10 211.5t31 201.5t58 181.5t87.5 144.5t123 98t161.5 35q227 0 227 -460z" />
<glyph unicode="&#x3a6;" horiz-adv-x="1497" d="M1409 692q0 -84 -40 -150t-110.5 -109.5t-156.5 -70t-189 -38.5v-127q0 -80 39 -109.5t156 -36.5v-51h-717v51q115 10 153 39.5t38 106.5v129q-102 11 -187.5 37.5t-155.5 70t-109.5 109.5t-39.5 149q0 67 26.5 123t71.5 96.5t108.5 71.5t134 49t151.5 27v129 q0 78 -40 107.5t-151 37.5v51h717v-51q-114 -4 -154.5 -34.5t-40.5 -110.5v-127q103 -12 189 -39t156.5 -70t110.5 -109.5t40 -150.5zM582 971q-87 -39 -140 -113t-53 -166q0 -91 53 -165t140 -113v557zM1110 692q0 93 -54 167.5t-143 113.5v-561q89 39 143 113t54 167z" />
<glyph unicode="&#x3a7;" horiz-adv-x="1478" d="M1432 0h-697v51q54 4 58 4q106 6 106 58q0 43 -43 110l-207 332l-78 -104q-114 -154 -153 -218t-39 -98q0 -38 36 -56.5t130 -27.5v-51h-512v51q76 9 121.5 33.5t91.5 81.5l358 452l-405 596q-48 70 -78.5 92.5t-85.5 26.5v51h708v-51q-58 -4 -63 -4q-55 -3 -76.5 -17 t-21.5 -46q0 -19 5 -32.5t25 -43.5l199 -307l115 157q71 97 94.5 140.5t23.5 76.5q0 37 -22.5 53t-83.5 19q-3 1 -9 1.5t-15.5 1t-16.5 1.5v51h512v-51q-80 -7 -130.5 -31t-105.5 -82t-149 -186l-164 -227l373 -580q73 -110 109.5 -142t89.5 -34v-51z" />
<glyph unicode="&#x3a8;" horiz-adv-x="1699" d="M1610 1077q-20 0 -36.5 -7t-28 -22.5t-19.5 -31t-13 -43t-8 -47t-4 -54t-1.5 -53.5t-0.5 -55q0 -88 -38.5 -163.5t-106 -129t-154 -90t-186.5 -53.5v-131q0 -80 38.5 -109.5t155.5 -36.5v-51h-716v51q115 10 152.5 39.5t37.5 106.5v133q-135 22 -241.5 77t-173 147.5 t-66.5 209.5q0 36 -0.5 55t-1.5 53.5t-4 54t-8 47t-13 43t-19.5 31t-28 22.5t-36.5 7v62q109 0 203 -48.5t150.5 -135t56.5 -191.5q0 -107 49.5 -198.5t132.5 -141.5v764q0 78 -39.5 107.5t-150.5 37.5v51h716v-51q-114 -4 -154 -34.5t-40 -110.5v-766q85 50 135.5 142 t50.5 200q0 105 56.5 191.5t150.5 135t203 48.5v-62z" />
<glyph unicode="&#x3a9;" horiz-adv-x="1568" d="M1487 0h-580l31 383q56 25 98 74q72 95 72 391q0 177 -33 272q-35 99 -111.5 158t-185.5 59q-144 0 -235 -108q-94 -114 -94 -389q0 -238 43 -336q51 -101 129 -121l30 -383h-579v389h34q0 -60 44.5 -100t103.5 -35h309l-6 82q-221 40 -334 186q-108 147 -108 330 q0 161 93 291.5t244 201t326 70.5t327 -70.5t245.5 -201t93.5 -291.5q0 -174 -105 -324q-104 -145 -338 -192l-6 -82h308q60 -6 104.5 34t44.5 101h35v-389z" />
<glyph unicode="&#x3b1;" horiz-adv-x="1447" d="M1358 190q0 -93 -41 -161t-113 -68q-105 0 -186.5 61.5t-130.5 165.5q-116 -227 -297 -227q-103 0 -195.5 41t-159.5 110.5t-106 165t-39 199.5q0 137 67 253.5t182 184.5t251 68q131 0 243 -63.5t181 -171.5q66 170 127 229l127 -127q-10 -10 -40 -40.5t-44.5 -45.5 t-38 -40.5t-41 -48t-33.5 -44.5q26 -77 29 -148q2 -49 4 -77.5t5.5 -77t7 -78.5t9 -70t13 -64.5t17 -47.5t21.5 -34t27 -11q48 0 70 48t22 119h62zM856 266q-32 89 -39 203q-3 61 -7.5 108.5t-14 103t-26 95.5t-40 75t-59 53t-80.5 18q-44 0 -77.5 -18t-55 -52t-35.5 -73.5 t-21 -94t-9.5 -101.5t-2.5 -106q0 -62 2.5 -109t9 -103.5t20.5 -96t35 -74.5t55 -53t79 -18q91 0 154.5 64.5t111.5 178.5z" />
<glyph unicode="&#x3b2;" horiz-adv-x="1204" d="M1122 379q0 -95 -47 -175t-126 -132.5t-179.5 -81.5t-208.5 -29q-100 0 -188 45v-6q0 -267 -70 -481h-299q86 253 86 481v944q0 198 137.5 338.5t333.5 140.5q170 0 295 -97.5t125 -246.5q0 -103 -71 -185t-181 -122q167 -39 280 -143.5t113 -249.5zM823 379 q0 144 -88.5 250t-220.5 106v62q84 0 126 82.5t42 199.5q0 49 -1.5 81.5t-8 74.5t-19 67t-36 42.5t-56.5 17.5q-41 0 -72.5 -16.5t-51 -48.5t-33 -69.5t-20 -88.5t-9 -95t-2.5 -100v-868q83 -53 188 -53q119 0 190.5 106t71.5 250z" />
<glyph unicode="&#x3b3;" horiz-adv-x="1171" d="M1081 944q0 -86 -25.5 -178.5t-79 -195.5t-94.5 -171.5t-114 -179.5l-59 -90l2 -256q0 -50 -0.5 -79t-3.5 -75t-8.5 -74t-17 -61.5t-27.5 -51.5t-40.5 -31t-56.5 -13q-76 0 -118 61.5t-34.5 156t64.5 183.5q24 38 53.5 81t66 94t56.5 81q-5 96 -14.5 171t-31 150 t-54.5 124t-85.5 79.5t-121.5 30.5q-77 0 -131.5 -52.5t-54.5 -127.5h-62q0 90 12 167.5t39 146.5t77.5 109t119.5 40q60 0 109.5 -21t85.5 -58t64.5 -92.5t47 -117.5t31.5 -140t19.5 -154.5t9.5 -166.5l12 19q184 284 184 692h180zM649 -127l-2 170q-86 -122 -127 -188 q-44 -69 -55.5 -140.5t13 -118.5t79.5 -47q22 0 38 13t26 40t16 53.5t8.5 70t3 72t0.5 75.5z" />
<glyph unicode="&#x3b4;" horiz-adv-x="1067" d="M977 424q0 -124 -58 -230.5t-160 -169.5t-224 -63q-186 0 -315.5 136.5t-129.5 326.5q0 99 60.5 176t154.5 119.5t213 58.5q-186 190 -186 375q0 110 66 190t165 80q127 0 225.5 -57t122.5 -162l-176 -41q-19 85 -63 142t-109 57q-61 0 -90 -61t-29 -148q0 -27 7.5 -54.5 t27.5 -58t34 -50.5t47.5 -54.5t46 -46.5t50.5 -49q74 -70 110 -106.5t95.5 -102.5t87 -116.5t27.5 -90.5zM678 424q0 184 -98 293q-85 -24 -138 -107t-53 -186q0 -45 0.5 -70.5t2 -69t5.5 -69t10.5 -60t17.5 -55t26 -40t36 -28.5t48 -9q35 0 60.5 15.5t40.5 49.5t24 65 t12.5 87t4.5 89t1 95z" />
<glyph unicode="&#x3b5;" horiz-adv-x="1058" d="M969 186q-49 -86 -135 -135t-185 -49q-86 0 -162.5 8.5t-150.5 30t-127.5 54.5t-86 86t-32.5 120q0 158 184 217q-122 61 -122 184q0 64 36 112.5t97.5 76t133 40.5t152.5 13q172 0 297 -119l-41 -45q-109 103 -256 103q-61 0 -99 -54.5t-38 -126.5q0 -96 107 -145l170 2 v-98q-136 0 -199 6q-139 -53 -139 -166q0 -102 82 -170t194 -68q83 0 154 41t112 113z" />
<glyph unicode="&#x3b6;" horiz-adv-x="944" d="M899 -276q0 -236 -119 -236q-43 0 -77 27.5t-41 68.5l59 13q5 -21 21.5 -34.5t37.5 -13.5q20 0 33 14.5t18 44.5t6 53t1 63q0 100 -46.5 172.5t-127.5 72.5q-110 0 -211 24t-183 69t-131 118.5t-49 165.5q0 182 41 347t128.5 299t209.5 198q-102 78 -96 194h180 q-3 -90 39 -151q55 10 98 10q38 0 60.5 -1.5t51 -7t42.5 -19t14 -35.5q0 -15 -6.5 -26t-20.5 -17.5t-27.5 -10.5t-36 -5.5t-37.5 -2t-40 -0.5q-66 0 -133 23q-31 -22 -55.5 -54t-41.5 -77.5t-30 -87.5t-20.5 -106.5t-12 -109.5t-6 -121t-2 -118t-0.5 -121q0 -129 78.5 -222 t196.5 -93q105 0 170 -91.5t65 -215.5z" />
<glyph unicode="&#x3b7;" horiz-adv-x="1243" d="M1153 647q0 -109 -43 -323t-43 -324q0 -228 86 -481h-299q-70 214 -70 481q0 109 35 323.5t35 323.5v49t-1.5 47t-4 47.5t-7 41t-12.5 37.5t-18 27.5t-25 19.5t-34 6q-57 0 -97.5 -41.5t-58.5 -102t-18 -131.5v-647h-283v647q0 40 -0.5 62t-1.5 60t-4 60.5t-8 46.5 t-13.5 35t-19.5 11q-31 0 -51.5 -18t-29.5 -52.5t-12 -66t-3 -76.5h-62q0 53 8.5 99.5t26.5 87t49.5 64t73.5 23.5q94 0 172.5 -49.5t120.5 -132.5q28 82 82 132t129 50q163 0 282 -95.5t119 -240.5z" />
<glyph unicode="&#x3b8;" horiz-adv-x="1015" d="M926 696q0 -112 -13.5 -214.5t-44.5 -198.5t-78 -166.5t-119.5 -113t-162.5 -42.5t-162.5 42.5t-119.5 113t-78 166.5t-44.5 198.5t-13.5 214.5q0 110 13.5 211.5t45.5 197t79 165t119 111.5t161 42t161 -42t119 -111.5t79 -165t45.5 -197t13.5 -211.5zM627 727 q0 65 -0.5 109.5t-2 108.5t-5 108.5t-9 96.5t-14.5 86.5t-21 65t-29 45.5t-38 15t-38 -15t-29 -45.5t-21 -65t-14.5 -86.5t-9 -96.5t-5 -108.5t-2 -108.5t-0.5 -109.5h238zM627 666h-238q0 -65 0.5 -110t2 -110t5 -110t9 -97.5t14.5 -88t21 -66.5t29 -46t38 -15t38 15t29 46 t21 66.5t14.5 88t9 97.5t5 110t2 110t0.5 110z" />
<glyph unicode="&#x3b9;" horiz-adv-x="864" d="M774 236q0 -110 -54.5 -192.5t-144.5 -82.5q-103 0 -191.5 31t-146 95t-57.5 149v708h283v-708q0 -213 112 -213q65 0 101.5 63.5t36.5 149.5h61z" />
<glyph unicode="&#x3ba;" horiz-adv-x="1148" d="M1059 236q0 -111 -65 -193t-163 -82q-141 0 -239 104t-98 250q0 101 -121 148v-463h-283v944h283v-299q26 40 51 103q102 235 252 235q85 0 152.5 -52.5t89.5 -135.5l-62 -15q-15 62 -65.5 102t-114.5 40q-67 0 -111.5 -54t-83.5 -145q-51 -115 -108 -172v-4 q79 -3 146 -16t127.5 -38.5t95 -71t34.5 -106.5q0 -43 0.5 -66.5t1.5 -64.5t4.5 -64t9.5 -48.5t16 -37t23 -11.5q73 0 119.5 63.5t46.5 149.5h62z" />
<glyph unicode="&#x3bb;" horiz-adv-x="1220" d="M1130 270q0 -75 -14 -136.5t-52 -105.5t-95 -44q-25 0 -48.5 11.5t-41 27.5t-35.5 45.5t-30 53.5t-27 64.5t-23 64t-21 66.5l-79 252l-258 -538h-316l451 934l-23 73q-13 39 -25 67t-31 56.5t-44 44t-56 15.5q-39 0 -65.5 -32.5t-26.5 -74.5h-61q0 56 7.5 104t24 91 t47.5 67.5t74 24.5q26 0 49 -13.5t43.5 -43t36 -57t32.5 -75t26.5 -76t25.5 -79.5l226 -721q25 -74 67 -123t101 -49q42 0 71 31.5t29 74.5h61z" />
<glyph unicode="&#x3bc;" horiz-adv-x="1392" d="M1303 236q0 -72 -16.5 -132t-55.5 -101.5t-96 -41.5q-78 0 -150 26.5t-121 73.5q-90 -100 -219 -100q-158 0 -272 57q26 -265 129 -530h-322q39 358 39 748v708h283v-708q0 -86 38 -149.5t105 -63.5q105 0 180 88q-37 60 -37 125v708h283v-708q0 -48 1.5 -76t7 -64.5 t19.5 -54.5t36 -18q106 0 106 213h62z" />
<glyph unicode="&#x3bd;" horiz-adv-x="1132" d="M1042 594q0 -321 -172 -422l-374 -215l-172 594q-8 33 -6.5 73t10.5 81.5t13 80.5t1 69t-25 48.5t-65 18.5q-18 0 -33 -6.5t-25 -21.5t-17.5 -30t-12 -41.5t-7 -45.5t-4 -52t-1.5 -51v-53h-62q0 49 2 86.5t7.5 82t16.5 76.5t28.5 60t44.5 42.5t63 14.5q113 0 197 -83.5 t120 -209.5l154 -530l117 65q82 49 111.5 144t29.5 225q0 25 -20 55.5t-62 68t-71 60.5t-80 62l172 225q26 -19 45.5 -47t32.5 -55t21.5 -68.5t13 -70t6.5 -78.5t2.5 -75t0.5 -77z" />
<glyph unicode="&#x3be;" horiz-adv-x="1056" d="M1012 -276q0 -236 -119 -236q-43 0 -76.5 27.5t-42.5 68.5l62 13q3 -20 19 -34t38 -14q20 0 32.5 14.5t17.5 45t6 52.5t1 63q0 63 -44.5 110t-106.5 70.5t-140 34.5q-59 8 -89.5 12.5t-87 14.5t-88.5 18.5t-79.5 22.5t-74.5 28.5t-59.5 36t-49.5 45t-29 54.5t-12 67 q0 235 289 333q-114 30 -177 91t-63 165q0 147 106 243.5t281 139.5q-86 67 -110 174h184q23 -94 78 -149q82 8 127 8q41 0 66 -1.5t56 -7t46.5 -19t15.5 -35.5q0 -15 -7 -26t-22.5 -17.5t-30.5 -10.5t-39.5 -5.5t-41 -2t-43.5 -0.5q-85 0 -162 27q-92 -44 -148.5 -129 t-56.5 -189q0 -146 201 -204q114 12 227 12v-98l-217 2q-118 -39 -189 -116t-71 -185q0 -96 81.5 -159t197.5 -79q68 -10 127.5 -31.5t109 -54.5t78.5 -82.5t29 -107.5z" />
<glyph unicode="&#x3bf;" d="M975 469q0 -214 -131.5 -356t-329.5 -142q-201 0 -332 142t-131 362q0 209 134 351.5t329 142.5q198 0 329.5 -142.5t131.5 -357.5zM674 457q0 252 -34.5 350t-123.5 98q-65 0 -99.5 -42.5t-49.5 -141.5t-15 -283q0 -225 35.5 -314t126.5 -89q89 0 124.5 93t35.5 329z " />
<glyph unicode="&#x3c0;" horiz-adv-x="1382" d="M1292 748q-115 -59 -241 -80v-494q0 -72 69.5 -111.5t165.5 -39.5v-62q-51 0 -82.5 0.5t-80 2.5t-80 6t-72.5 11.5t-67.5 18t-54.5 26.5t-44 36.5t-26.5 49t-10.5 62.5v492q-49 6 -138.5 24.5t-129.5 24.5v-279q0 -95 -27 -184t-75 -157.5t-120 -110t-157 -41.5v180 q132 0 224.5 91.5t92.5 221.5v289q-74 8 -112 8q-174 0 -174 -24h-62q0 124 65.5 215.5t170.5 91.5q98 0 291 -40t292 -40q139 3 256 63z" />
<glyph unicode="&#x3c1;" horiz-adv-x="1220" d="M1130 477q0 -106 -41 -201.5t-111 -164.5t-166 -109.5t-202 -40.5q-82 0 -161 31q10 -92 10 -162q0 -187 -99 -354l-241 147q57 94 57 207q0 108 -43 322.5t-43 324.5q0 138 70 254.5t190 184t260 67.5t260 -67.5t190 -184t70 -254.5zM831 477q0 445 -221 445t-221 -445 q0 -49 5.5 -107t11 -98.5t16.5 -109t16 -101.5q81 -38 172 -38q221 0 221 454z" />
<glyph unicode="&#x3c2;" horiz-adv-x="931" d="M842 918l-135 -121q-110 125 -146 125q-52 0 -90 -30t-58.5 -82.5t-30 -111.5t-9.5 -127q0 -67 2 -103.5t10.5 -91.5t31 -94t58.5 -67q16 -13 87.5 -63t105.5 -82q106 -95 106 -197q0 -65 -36 -112.5t-91 -47.5q-151 0 -295 64l25 57q127 -59 270 -59q31 0 48.5 29 t17.5 69q0 74 -86 152q-35 31 -109 83t-82 58q-46 36 -67.5 53t-65.5 54t-67 59.5t-56 57.5t-49 62t-28.5 59t-12.5 60q0 117 65.5 212.5t173 147.5t232.5 52q54 0 81.5 -1t72.5 -6.5t75.5 -20t51.5 -37.5z" />
<glyph unicode="&#x3c3;" horiz-adv-x="1140" d="M1051 993q-132 -55 -295 -71q119 -59 188.5 -179.5t69.5 -273.5q0 -214 -131.5 -356t-329.5 -142q-201 0 -332 142t-131 362q0 209 134 351.5t329 142.5q23 0 59 -4q169 15 402 114zM713 457q0 252 -34.5 350t-123.5 98q-65 0 -99.5 -42.5t-49.5 -141.5t-15 -283 q0 -225 35.5 -314t126.5 -89q89 0 124.5 93t35.5 329z" />
<glyph unicode="&#x3c4;" horiz-adv-x="1183" d="M1094 766q-156 -135 -361 -141v-389q0 -42 5.5 -77t17 -67t35 -50.5t55.5 -18.5q65 0 101 63.5t36 149.5h61q0 -71 -23 -133t-69 -102t-106 -40q-103 0 -191.5 31t-146 95t-57.5 149v450q-9 4 -29.5 15t-31.5 16.5t-29 10.5t-35 5q-174 0 -174 -24h-62q0 124 65.5 215.5 t170.5 91.5q46 0 272 -88q78 -32 162.5 -18t148.5 71z" />
<glyph unicode="&#x3c5;" horiz-adv-x="1163" d="M1073 512q0 -106 -27 -204.5t-76.5 -176t-126.5 -124t-169 -46.5q-112 0 -209 43.5t-157 126t-60 184.5q0 65 23.5 196t23.5 198q0 31 -0.5 48.5t-1.5 47t-4 46.5t-8 35.5t-13.5 27t-19.5 8.5q-31 0 -51.5 -18t-29.5 -52.5t-12 -66t-3 -76.5h-62q0 53 8.5 99.5t26.5 87 t49.5 64t73.5 23.5q133 0 231.5 -78t98.5 -196q0 -67 -15.5 -198t-15.5 -196q0 -41 1 -70t5 -66t13 -62t22.5 -48t35 -34.5t50.5 -11.5q106 0 184.5 72t116 181t37.5 236q0 46 -19 87t-46.5 71t-73 60t-82.5 49.5t-91 43.5l119 258q254 -118 254 -569z" />
<glyph unicode="&#x3c6;" horiz-adv-x="1425" d="M1335 473q0 -181 -126 -313t-320 -178q4 -102 4 -152q0 -107 -41.5 -206.5t-116.5 -174.5l-200 201q75 72 75 180q0 45 -4 139q-142 20 -258 86.5t-187 176t-71 241.5q0 46 12 90.5t29 81t48.5 77t58 69t70.5 66.5t72.5 60.5t76.5 59.5l39 -49q-30 -24 -51.5 -65t-32 -81 t-16 -102.5t-6.5 -101.5t-1 -105q0 -143 56.5 -261.5t154.5 -164.5q-3 51 -11.5 146.5t-13 172.5t-4.5 146q0 124 46 231t134 173.5t199 66.5q115 0 205 -74t135 -189t45 -247zM1036 473v75.5t-1 75t-3.5 77t-6.5 68.5t-10.5 63t-15 46t-21 33.5t-28.5 10.5q-18 0 -32 -9.5 t-23.5 -30t-17 -41.5t-11.5 -57t-7 -62t-4 -70.5t-1 -69v-70.5q0 -64 4 -133.5t12 -163.5t11 -133q74 60 114.5 165t40.5 226z" />
<glyph unicode="&#x3c7;" horiz-adv-x="1114" d="M1114 -182q0 -59 -8 -110.5t-25 -97.5t-50 -72.5t-79 -26.5q-44 0 -79.5 21t-63 63.5t-44.5 79t-38 92.5l-92 247q-121 -278 -121 -487h-283q0 71 13.5 148t29.5 133t52 142t55.5 126.5t68.5 138t64 127.5l-94 256q-15 39 -28.5 66.5t-33.5 56.5t-47 44t-59 15 q-44 0 -72 -37.5t-28 -89.5h-62q0 60 8 111t25 97.5t50 73t79 26.5q29 0 57.5 -23t49 -53t45.5 -83.5t38 -87.5t35 -93l74 -201q139 299 139 524h283q0 -74 -14 -152.5t-33.5 -141.5t-54.5 -145.5t-61 -135.5t-70.5 -141.5t-67.5 -135.5l112 -303q18 -47 64.5 -72.5 t103.5 -25.5q44 0 72.5 38t28.5 89h61z" />
<glyph unicode="&#x3c8;" horiz-adv-x="1316" d="M1227 512q0 -145 -57.5 -270.5t-164.5 -203t-239 -77.5h-37v-473h-61v479q-86 10 -160 37t-133 69.5t-93 105t-34 136.5q0 65 23.5 196t23.5 198q0 31 -0.5 48.5t-1.5 47t-4 46.5t-8 35.5t-13.5 27t-19.5 8.5q-31 0 -51.5 -18t-29.5 -52.5t-12 -66t-3 -76.5h-62 q0 53 8.5 99.5t26.5 87t49.5 64t73.5 23.5q133 0 231.5 -78t98.5 -196q0 -67 -15.5 -198t-15.5 -196q0 -84 32.5 -156t88.5 -108v422q0 462 -111 911h283q-111 -449 -111 -911v-446q24 -4 37 -4q116 0 208.5 69t141.5 180t49 240q0 56 -25.5 104t-75.5 86.5t-96 64 t-114 56.5l119 258q254 -118 254 -569z" />
<glyph unicode="&#x3c9;" horiz-adv-x="1437" d="M1348 469q0 -135 -56 -251t-158 -186.5t-227 -70.5q-132 0 -202 121q-57 -121 -175 -121q-125 0 -226.5 70.5t-157.5 186.5t-56 251q0 280 410 502l28 -53q-36 -20 -63.5 -48.5t-43.5 -66.5t-26.5 -73.5t-15 -86t-5.5 -85.5t-1 -89v-63t1 -61.5t3 -63t5.5 -57.5 t9.5 -55.5t14.5 -46.5t20 -42t26.5 -29.5t34.5 -21t42.5 -6.5q107 0 146 129q-21 61 -32 149.5t-13 155t-2 172.5h180q0 -135 2 -210t10 -183.5t29.5 -160.5t56.5 -52q23 0 42.5 6.5t34.5 21t27 29.5t20 41.5t14 47t10 55.5t6 57.5t3 63t1 62v62.5q0 53 -1.5 89t-5.5 85.5 t-14.5 85.5t-27 74t-44 66.5t-63.5 48.5l29 53q410 -222 410 -502z" />
<glyph unicode="&#x3d1;" horiz-adv-x="1296" d="M1206 944q-45 -7 -155 -20q18 -105 18 -215q0 -114 -14 -219t-46.5 -202.5t-81 -169t-122.5 -114.5t-166 -43q-113 0 -211 43.5t-158.5 126t-60.5 184.5q0 67 43 196t43 198q0 47 -0.5 73.5t-3.5 64.5t-10 56.5t-19 18.5q-32 0 -54.5 -18.5t-34 -50.5t-16.5 -67t-5 -77 h-62q0 71 17.5 131.5t57.5 101.5t97 41q129 0 222.5 -78t93.5 -196q0 -68 -35 -198t-35 -196q0 -62 4 -106t16.5 -90.5t40.5 -71t70 -24.5q24 0 43 16t32.5 51t23.5 70.5t15.5 95.5t9.5 104t5 118t1.5 114.5t0.5 116.5l-2 215q-42 15 -85 57t-68 78t-64 98 q-38 60 -44.5 122.5t19 103t74.5 40.5q166 0 277.5 -121t158.5 -317q46 3 162 21zM764 993q-18 369 -164 369q-30 0 -38 -26.5t4 -66t38 -81.5q31 -49 49.5 -77t50.5 -64.5t60 -53.5z" />
<glyph unicode="&#x3d5;" horiz-adv-x="1103" d="M1014 469q0 -205 -122 -345.5t-310 -152.5l2 -483h-62v483q-189 12 -310.5 153t-121.5 351q0 194 118 333t296 159q-12 162 -41 417h180q-29 -226 -43 -417q181 -19 297.5 -158t116.5 -340zM522 37v436q0 179 -14 426q-67 -20 -92 -122t-25 -339q0 -205 29 -296.5 t102 -104.5zM713 457q0 222 -26.5 322.5t-90.5 119.5q-12 -212 -12 -426l-2 -436q72 13 101.5 108.5t29.5 311.5z" />
<glyph unicode="&#x3d6;" horiz-adv-x="1437" d="M1348 469q0 -135 -56 -251t-158 -186.5t-227 -70.5q-132 0 -202 121q-57 -121 -175 -121q-125 0 -226.5 70.5t-157.5 186.5t-56 251q0 280 410 502l28 -53q-36 -20 -63.5 -48.5t-43.5 -66.5t-26.5 -73.5t-15 -86t-5.5 -85.5t-1 -89v-63t1 -61.5t3 -63t5.5 -57.5 t9.5 -55.5t14.5 -46.5t20 -42t26.5 -29.5t34.5 -21t42.5 -6.5q107 0 146 129q-21 61 -32 149.5t-13 155t-2 172.5h180q0 -135 2 -210t10 -183.5t29.5 -160.5t56.5 -52q23 0 42.5 6.5t34.5 21t27 29.5t20 41.5t14 47t10 55.5t6 57.5t3 63t1 62v62.5q0 79 -1.5 135.5t-8 131.5 t-17.5 127t-32 107t-50.5 88.5t-73.5 55t-100 21.5q-239 0 -475 -62l-14 60q246 63 489 63q126 0 234 -61t179.5 -162t112 -232t40.5 -272z" />
<glyph unicode="&#x3f5;" horiz-adv-x="995" d="M905 92q-71 -131 -321 -131q-138 0 -252.5 74.5t-178 198t-63.5 266.5q0 107 51.5 199t137 153.5t196.5 96t230 34.5h120v-61h-120q-92 0 -164 -58t-110.5 -149t-41.5 -197q30 7 70.5 22t73 27.5t68.5 22.5t71.5 8.5t68.5 -16.5l-75 -164q-30 14 -68.5 21t-64.5 7.5 t-76 -1t-68 -1.5q1 -60 3.5 -104t9 -96.5t20 -88.5t34 -68t53 -48t75.5 -16q28 0 51.5 12.5t45 40t33 46t31.5 56.5z" />
<glyph unicode="&#x400;" horiz-adv-x="1366" d="M918 1487h-115l-291 180q-45 28 -63.5 52t-18.5 55q0 38 28 65t68 27q59 0 111 -58zM1313 426l-82 -426h-1198v51q114 12 147 39t33 107v991q0 78 -37.5 108.5t-142.5 36.5v51h1181v-411h-51q-26 140 -76 211.5t-144 101t-265 29.5q-80 0 -106.5 -19t-26.5 -77v-476 q165 -1 237 65t95 241h53v-693h-53q-19 178 -92 248t-240 70v-496q0 -66 36 -90.5t134 -24.5q227 0 362 109q56 44 93.5 98t84.5 156h58z" />
<glyph unicode="&#x401;" horiz-adv-x="1366" d="M590 1616q0 -54 -38.5 -91.5t-94.5 -37.5q-54 0 -92.5 39.5t-38.5 93.5q0 52 39 91.5t92 39.5q54 0 93.5 -40t39.5 -95zM1020 1616q0 -54 -39 -91.5t-96 -37.5q-54 0 -91.5 39t-37.5 96q0 51 39 90t90 39q55 0 95 -39.5t40 -95.5zM1313 426l-82 -426h-1198v51 q114 12 147 39t33 107v991q0 78 -37.5 108.5t-142.5 36.5v51h1181v-411h-51q-26 140 -76 211.5t-144 101t-265 29.5q-80 0 -106.5 -19t-26.5 -77v-476q165 -1 237 65t95 241h53v-693h-53q-19 178 -92 248t-240 70v-496q0 -66 36 -90.5t134 -24.5q227 0 362 109 q56 44 93.5 98t84.5 156h58z" />
<glyph unicode="&#x402;" horiz-adv-x="1908" d="M1675 88q0 -84 -31 -152t-81.5 -111.5t-119 -73t-139.5 -42t-147 -12.5q-70 0 -115 27.5t-45 76.5q0 93 90 93q22 0 38 -7.5t25.5 -18.5t18.5 -22t22.5 -18.5t31.5 -7.5q29 0 49.5 11.5t37 40t25 81.5t8.5 131v483q0 104 -67 160.5t-170 56.5q-76 0 -146.5 -43.5 t-109.5 -101.5v-399q0 -63 5.5 -94.5t29 -53.5t59 -29t107.5 -12v-51h-732v51q70 6 106 13.5t59 29.5t28.5 53.5t5.5 92.5v1079q-190 -6 -279.5 -84.5t-115.5 -261.5h-60l7 411h1228l5 -411h-60q-26 183 -115 261.5t-278 84.5v-563q36 50 121.5 94.5t171.5 44.5 q72 0 140.5 -8.5t141.5 -32t127 -59.5t88.5 -96t34.5 -136v-475z" />
<glyph unicode="&#x403;" horiz-adv-x="1251" d="M1194 973h-49q-22 97 -42 147t-54 88q-94 107 -373 107q-74 0 -102.5 -30t-28.5 -91v-997q0 -85 42 -112.5t183 -33.5v-51h-737v51q114 12 147 39t33 107v991q0 79 -37 109t-143 36v51h1161v-411zM858 1776q0 -35 -16 -56.5t-66 -52.5l-291 -180h-114l280 321 q52 58 109 58q44 0 71 -25t27 -65z" />
<glyph unicode="&#x404;" horiz-adv-x="1478" d="M1407 260q-68 -76 -110.5 -115t-92.5 -73q-165 -111 -379 -111q-209 0 -374.5 91.5t-258 256.5t-92.5 373q0 206 92.5 374t256 263.5t364.5 95.5q139 0 317 -72q63 -28 95 -28q29 0 48.5 20t41.5 74h55v-479h-51q-53 116 -96.5 179t-110.5 124q-130 115 -272 115 q-175 0 -271.5 -149.5t-105.5 -434.5h514v-96h-516q3 -274 90 -430q44 -80 133 -129.5t190 -49.5q98 0 185 37q75 29 136 74.5t151 140.5z" />
<glyph unicode="&#x405;" horiz-adv-x="1138" d="M1051 393q0 -193 -140.5 -312.5t-367.5 -119.5q-124 0 -267 49q-67 21 -83 21q-25 0 -39 -16t-23 -54h-59v506h59q26 -106 51.5 -167.5t67.5 -119.5q118 -151 299 -151q118 0 188 63.5t70 169.5q0 80 -47 131t-182 115l-138 65q-183 88 -266.5 189.5t-83.5 236.5 q0 194 120 305t329 111q108 0 239 -45q62 -22 86 -22q27 0 41.5 15t24.5 54h61v-444h-57q-31 100 -60.5 155t-82.5 109q-112 115 -252 115q-104 0 -165 -55t-61 -150q0 -74 43.5 -122.5t167.5 -109.5l301 -149q99 -50 162.5 -154t63.5 -219z" />
<glyph unicode="&#x406;" horiz-adv-x="796" d="M750 0h-717v51q115 10 152.5 39.5t37.5 106.5v991q0 78 -39.5 107.5t-150.5 37.5v51h717v-51q-114 -4 -154.5 -34.5t-40.5 -110.5v-991q0 -80 39 -109.5t156 -36.5v-51z" />
<glyph unicode="&#x407;" horiz-adv-x="796" d="M750 0h-717v51q115 10 152.5 39.5t37.5 106.5v991q0 78 -39.5 107.5t-150.5 37.5v51h717v-51q-114 -4 -154.5 -34.5t-40.5 -110.5v-991q0 -80 39 -109.5t156 -36.5v-51zM309 1616q0 -54 -38.5 -91.5t-94.5 -37.5q-54 0 -92.5 39.5t-38.5 93.5q0 52 39.5 91.5t91.5 39.5 q54 0 93.5 -40t39.5 -95zM739 1616q0 -54 -39 -91.5t-96 -37.5q-54 0 -91.5 39t-37.5 96q0 51 39 90t90 39q56 0 95.5 -39.5t39.5 -95.5z" />
<glyph unicode="&#x408;" d="M981 1333q-115 -7 -148.5 -42t-33.5 -146v-893q0 -220 -112 -334.5t-327 -114.5q-131 0 -217 47q-60 35 -98.5 98t-38.5 126q0 58 43.5 102.5t100.5 44.5q60 0 104.5 -45.5t44.5 -107.5q0 -40 -31 -78q-24 -33 -24 -53q0 -29 25.5 -47.5t66.5 -18.5q69 0 100 41.5 t31 136.5v1139q0 83 -41 111.5t-166 33.5v51h721v-51z" />
<glyph unicode="&#x409;" horiz-adv-x="2113" d="M2054 373q0 -178 -139.5 -275.5t-396.5 -97.5h-660v51q112 12 148 41t36 105v1091h-409v-590q0 -35 -1.5 -73t-10 -114t-23.5 -142t-45.5 -142.5t-71.5 -130t-106 -89.5t-146 -36q-80 0 -136 30t-56 97q0 59 36 101.5t91 42.5q28 0 48 -11t31 -26.5t21 -31.5t24.5 -27 t35.5 -11q41 0 73 72t47.5 174t23 185t7.5 132v490q0 77 -35.5 106.5t-138.5 38.5v51h1241v-51q-53 -7 -81.5 -13.5t-51 -17.5t-31 -32.5t-12.5 -48.5t-4 -76v-381q210 -2 289.5 -10t146.5 -35q124 -47 190 -137t66 -209zM1702 383q0 185 -78 254q-37 31 -95 43t-167 12 v-549q0 -71 102 -71q127 0 182.5 72.5t55.5 238.5z" />
<glyph unicode="&#x40a;" horiz-adv-x="2113" d="M2054 373q0 -178 -139.5 -275.5t-396.5 -97.5h-660v51q112 12 148 41t36 105v471h-493v-471q0 -76 36 -105t148 -41v-51h-690v51q107 13 140.5 42t33.5 104v991q0 77 -35.5 106.5t-138.5 38.5v51h690v-51q-107 -7 -145.5 -37.5t-38.5 -107.5v-424h493v424 q0 77 -38.5 107.5t-145.5 37.5v51h684v-51q-53 -7 -81.5 -13.5t-51 -17.5t-31 -32.5t-12.5 -48.5t-4 -76v-381q210 -2 289.5 -10t146.5 -35q124 -47 190 -137t66 -209zM1702 383q0 185 -78 254q-14 12 -29.5 19t-44.5 9.5t-45 3t-67 0t-76 -0.5v-525q0 -71 102 -71 q127 0 182.5 72.5t55.5 238.5z" />
<glyph unicode="&#x40b;" horiz-adv-x="1908" d="M1849 0h-690v51q107 7 145.5 38t38.5 108v448q0 139 -237 139q-84 0 -152.5 -28.5t-103.5 -79.5v-436q0 -63 5.5 -94.5t29 -53.5t59 -29t107.5 -12v-51h-732v51q70 6 106 13.5t59 29.5t28.5 53.5t5.5 92.5v1079q-190 -6 -279.5 -84.5t-115.5 -261.5h-60l7 411h1228 l5 -411h-60q-26 183 -115 261.5t-278 84.5v-526q32 44 116 73t177 29q75 0 141 -5t141 -21.5t127.5 -43t87.5 -74t35 -110.5v-444q0 -77 36 -107t138 -39v-51z" />
<glyph unicode="&#x40c;" horiz-adv-x="1593" d="M1499 0h-405l-328 520q-9 13 -29.5 42.5t-28.5 39t-23 24.5t-28 20t-30 5h-56v-454q0 -75 35.5 -104t145.5 -42v-51h-691v51q110 12 144.5 40t34.5 106v991q0 80 -36.5 109.5t-142.5 35.5v51h693v-51q-114 -7 -148.5 -43t-34.5 -145v-385l76 2q34 1 78.5 33.5t87 86.5 t76.5 135t45 167q10 80 85.5 150t176.5 69q86 -2 139.5 -36.5t53.5 -104.5q0 -59 -23.5 -90.5t-91.5 -32.5q-53 -1 -84.5 7t-41 19t-28 20t-47.5 9q-21 0 -39 -56t-33.5 -129.5t-58 -157.5t-106.5 -130q58 -5 128.5 -40.5t110.5 -94.5l324 -492q20 -23 41 -32.5t59 -10.5 v-51zM1024 1776q0 -35 -16 -56.5t-66 -52.5l-291 -180h-114l280 321q52 58 109 58q44 0 71 -25t27 -65z" />
<glyph unicode="&#x40d;" horiz-adv-x="1593" d="M1554 0h-696v51q112 12 148 41t36 105v737l-493 -574v-163q0 -76 36 -105t148 -41v-51h-690v51q107 13 140.5 42t33.5 104v991q0 77 -35.5 106.5t-138.5 38.5v51h690v-51q-107 -7 -145.5 -37.5t-38.5 -107.5v-690l493 573v117q0 77 -38.5 107.5t-145.5 37.5v51h696v-51 q-104 -8 -142 -38.5t-38 -106.5v-991q0 -75 35 -104t145 -42v-51zM1042 1487h-114l-291 180q-45 28 -63.5 52t-18.5 55q0 38 28 65t68 27q59 0 111 -58z" />
<glyph unicode="&#x40e;" horiz-adv-x="1478" d="M1462 1333q-58 -5 -95 -19t-74 -53.5t-66 -89t-80 -149.5l-479 -952q-25 -49 -102 -74t-173 -25q-122 0 -169.5 34t-47.5 101q0 59 37.5 99.5t95.5 40.5q50 0 78.5 -16t36.5 -39t12 -45.5t14.5 -38.5t34.5 -15q35 2 82 63.5t35 94.5l-407 964q-30 70 -65 92t-99 27v51 h655v-51q-58 -4 -63 -4q-55 -3 -77 -17t-22 -46l285 -674l221 436q20 37 34 67.5t21.5 49t11 39.5t4 28t0 24.5t-0.5 20.5q0 36 -26.5 52.5t-88.5 19.5q-3 1 -9 1.5t-15.5 1t-16.5 1.5v51h518v-51zM1057 1821q-9 -78 -22.5 -123.5t-39.5 -85.5q-79 -125 -250 -125 q-168 0 -245 112q-32 43 -46 90t-18 132h90q17 -94 69 -136.5t150 -42.5q95 0 145.5 41t76.5 138h90z" />
<glyph unicode="&#x40f;" horiz-adv-x="1593" d="M1554 0h-571q-24 -62 -41.5 -178.5t-23.5 -202.5l-5 -86h-217q-2 37 -6.5 95t-24.5 184t-47 188h-575v51q104 7 142 38t38 108v991q0 75 -35 103.5t-145 41.5v51h696v-51q-112 -12 -148 -41t-36 -104v-1092h494v1092q0 75 -36.5 104t-148.5 41v51h690v-51 q-107 -13 -140.5 -41.5t-33.5 -103.5v-991q0 -77 36 -107t138 -39v-51z" />
<glyph unicode="&#x410;" horiz-adv-x="1478" d="M1411 0h-663v51q44 6 65 6q53 3 75.5 19t22.5 49q0 63 -94 278h-461l-30 -79q-60 -155 -60 -189q0 -40 38.5 -59t129.5 -25v-51h-416v51q73 13 107.5 55t93.5 185l455 1122h57l457 -1077q53 -126 85 -183.5t60 -79.5t70 -22h8v-51zM786 483l-206 498l-193 -498h399z" />
<glyph unicode="&#x411;" horiz-adv-x="1366" d="M915 408q0 170 -85 273.5t-228 102.5q-37 0 -61 -18v-576q0 -67 28.5 -95.5t96.5 -28.5q121 0 185 93.5t64 248.5zM1268 436q0 -436 -576 -436h-659v51q112 12 146 40t34 106v991q0 78 -37.5 108.5t-142.5 36.5v51h1161v-411h-49q-22 97 -42 147t-54 88q-94 107 -373 107 q-79 0 -107 -19.5t-28 -76.5v-373q47 11 68.5 15t61 6.5t103.5 2.5q246 2 370 -101t124 -333z" />
<glyph unicode="&#x412;" horiz-adv-x="1366" d="M1268 385q0 -173 -158.5 -279t-417.5 -106h-659v51q112 12 146 40t34 106v991q0 78 -37.5 108.5t-142.5 36.5v51h633q257 0 394.5 -84.5t137.5 -242.5q0 -117 -73.5 -186.5t-252.5 -122.5q107 -23 169 -50t116 -73q111 -97 111 -240zM915 367q0 169 -77.5 252t-235.5 83 h-61v-512q0 -67 28.5 -95.5t96.5 -28.5q249 0 249 301zM860 1042q0 145 -51 213t-158 68q-60 0 -85 -22.5t-25 -77.5v-459q98 2 157 15t96.5 46t51.5 83.5t14 133.5z" />
<glyph unicode="&#x413;" horiz-adv-x="1210" d="M1153 973h-49q-22 97 -42 147t-54 88q-49 57 -122.5 82t-209.5 25q-74 0 -102.5 -30t-28.5 -91v-997q0 -85 42 -112.5t183 -33.5v-51h-737v51q114 12 147 39t33 107v991q0 79 -37 109t-143 36v51h1120v-411z" />
<glyph unicode="&#x414;" horiz-adv-x="1593" d="M1554 -410h-49q-4 17 -12 54t-12 54.5t-11.5 48t-13 48t-13.5 38.5t-16.5 35.5t-17.5 25.5q-93 106 -373 106h-475q-280 0 -373 -106q-9 -11 -17.5 -25.5t-16.5 -35.5t-13.5 -38.5t-13 -48t-11.5 -48t-12 -54.5t-12 -54h-49v480q32 2 74 3t63.5 2t49 6t49.5 18t45 36 q37 37 65 89t43.5 117t25 115.5t13 121t4 93.5t0.5 72v445q0 77 -35.5 106.5t-138.5 38.5v51h1253v-51q-104 -8 -142 -38.5t-38 -106.5v-973q0 -76 38 -106.5t142 -38.5v-480zM1042 242v1046h-389v-590q0 -57 -3.5 -120.5t-27 -183.5t-65.5 -206q-27 -57 -24 -72 q3 -19 36 -20h289q103 -1 143.5 33.5t40.5 112.5z" />
<glyph unicode="&#x415;" horiz-adv-x="1366" d="M1313 426l-82 -426h-1198v51q114 12 147 39t33 107v991q0 78 -37.5 108.5t-142.5 36.5v51h1181v-411h-51q-26 140 -76 211.5t-144 101t-265 29.5q-80 0 -106.5 -19t-26.5 -77v-476q165 -1 237 65t95 241h53v-693h-53q-19 178 -92 248t-240 70v-496q0 -66 36 -90.5 t134 -24.5q227 0 362 109q56 44 93.5 98t84.5 156h58z" />
<glyph unicode="&#x416;" horiz-adv-x="2267" d="M2198 0h-406l-322 520q-14 19 -35.5 52t-31 44.5t-27 23t-37.5 11.5h-39v-454q0 -75 35.5 -104t145.5 -42v-51h-690v51q110 12 144 40t34 106v454h-39q-20 0 -37.5 -11.5t-27 -23t-31 -44.5t-35.5 -52l-322 -520h-405v51q38 1 59 10.5t41 32.5l324 492q40 59 110.5 94.5 t128.5 40.5q-64 46 -106.5 130t-58 157.5t-33.5 129.5t-39 56q-29 0 -47.5 -9t-28 -20t-41 -19t-84.5 -7q-68 1 -91.5 32.5t-23.5 90.5q0 70 53.5 104.5t139.5 36.5q101 1 176.5 -69t85.5 -150q22 -170 110 -294.5t162 -127.5l60 -2v381q0 109 -36 147.5t-142 44.5v51h692 v-51q-114 -7 -148.5 -43t-34.5 -145v-385l60 2q74 3 162 127.5t110 294.5q10 80 85.5 150t176.5 69q86 -2 139.5 -36.5t53.5 -104.5q0 -59 -23.5 -90.5t-91.5 -32.5q-43 -1 -71.5 4t-41 13.5t-22.5 17t-25.5 14.5t-39.5 6q-18 0 -31.5 -35.5t-27.5 -92.5t-32.5 -119.5 t-56.5 -125.5t-90 -100q58 -5 129 -40.5t111 -94.5l323 -492q20 -23 41.5 -32.5t59.5 -10.5v-51z" />
<glyph unicode="&#x417;" horiz-adv-x="1155" d="M1118 371q0 -85 -22.5 -151.5t-65 -110.5t-95.5 -74t-124.5 -45.5t-140 -22t-152.5 -6.5q-51 0 -97.5 6.5t-83 17t-70 28.5t-58.5 34t-49.5 41.5t-40.5 44.5t-35 48.5t-29 47.5t-26 47l77 68q74 -111 160 -171t201 -60q297 0 297 258q0 295 -307 295h-119v118h125 q82 0 135 18t79 56.5t35 83.5t9 115q0 110 -65 184t-181 74q-70 0 -123.5 -23.5t-89.5 -71.5t-59.5 -106.5t-42.5 -140.5h-76v436h68q12 -34 27.5 -47.5t43.5 -13.5q29 0 96 22q76 26 120.5 35.5t92.5 9.5q103 0 196 -26.5t165 -75.5t114.5 -125t43.5 -168q1 -59 -11.5 -106 t-30.5 -76.5t-45 -52t-49 -33t-49 -19.5q252 -73 252 -362z" />
<glyph unicode="&#x418;" horiz-adv-x="1583" d="M1544 0h-696v51q112 12 148 41t36 105v737l-493 -574v-163q0 -76 36 -105t148 -41v-51h-690v51q107 13 140.5 42t33.5 104v991q0 77 -35.5 106.5t-138.5 38.5v51h690v-51q-107 -7 -145.5 -37.5t-38.5 -107.5v-690l493 573v117q0 77 -38.5 107.5t-145.5 37.5v51h696v-51 q-104 -8 -142 -38.5t-38 -106.5v-991q0 -75 35 -104t145 -42v-51z" />
<glyph unicode="&#x419;" horiz-adv-x="1583" d="M1544 0h-696v51q112 12 148 41t36 105v737l-493 -574v-163q0 -76 36 -105t148 -41v-51h-690v51q107 13 140.5 42t33.5 104v991q0 77 -35.5 106.5t-138.5 38.5v51h690v-51q-107 -7 -145.5 -37.5t-38.5 -107.5v-690l493 573v117q0 77 -38.5 107.5t-145.5 37.5v51h696v-51 q-104 -8 -142 -38.5t-38 -106.5v-991q0 -75 35 -104t145 -42v-51zM1098 1821q-9 -78 -22.5 -123.5t-39.5 -85.5q-79 -125 -250 -125q-168 0 -245 112q-32 43 -46 90t-18 132h90q17 -94 69 -136.5t150 -42.5q95 0 145.5 41t76.5 138h90z" />
<glyph unicode="&#x41a;" horiz-adv-x="1564" d="M1470 0h-405l-328 520q-9 13 -29.5 42.5t-28.5 39t-23 24.5t-28 20t-30 5h-55v-454q0 -75 35 -104t145 -42v-51h-690v51q110 12 144 40t34 106v991q0 80 -36 109.5t-142 35.5v51h692v-51q-114 -7 -148 -43t-34 -145v-385l75 2q34 1 78.5 33.5t87 86.5t76.5 135t45 167 q10 80 85.5 150t176.5 69q86 -2 139.5 -36.5t53.5 -104.5q0 -59 -23.5 -90.5t-91.5 -32.5q-53 -1 -84.5 7t-41 19t-28 20t-47.5 9q-21 0 -39 -56t-33.5 -129.5t-58 -157.5t-106.5 -130q58 -5 129 -40.5t111 -94.5l323 -492q20 -23 41 -32.5t59 -10.5v-51z" />
<glyph unicode="&#x41b;" horiz-adv-x="1593" d="M1524 0h-697v51q112 12 148.5 41.5t36.5 104.5v1091h-359v-670q0 -76 -2.5 -134t-12.5 -129t-27.5 -122.5t-49.5 -103.5t-76 -84.5t-109 -53t-147 -20.5q-80 0 -136 30t-56 97q0 59 36 101.5t91 42.5q28 0 48 -11t31 -26.5t21 -31.5t24.5 -27t35.5 -11q86 0 118.5 130.5 t32.5 432.5v490q0 77 -35.5 106.5t-138.5 38.5v51h1223v-51q-104 -8 -142.5 -38.5t-38.5 -106.5v-991q0 -75 35.5 -104t145.5 -42v-51z" />
<glyph unicode="&#x41c;" horiz-adv-x="1931" d="M1890 0h-680v51q115 10 149 39t34 115v1042l-516 -1247h-56l-516 1217v-963q0 -114 40.5 -154t166.5 -49v-51h-479v51q119 12 152.5 41.5t33.5 122.5v973q0 80 -35 108t-147 37v51h518l410 -966l409 966h516v-51q-113 -8 -146.5 -43t-33.5 -145v-905q0 -77 12.5 -111 t48 -51t119.5 -27v-51z" />
<glyph unicode="&#x41d;" horiz-adv-x="1585" d="M1544 0h-696v51q112 12 148 41t36 105v471h-493v-471q0 -76 36 -105t148 -41v-51h-690v51q107 13 140.5 42t33.5 104v991q0 77 -35.5 106.5t-138.5 38.5v51h690v-51q-107 -7 -145.5 -37.5t-38.5 -107.5v-424h493v424q0 77 -38.5 107.5t-145.5 37.5v51h696v-51 q-104 -8 -142 -38.5t-38 -106.5v-991q0 -75 35 -104t145 -42v-51z" />
<glyph unicode="&#x41e;" horiz-adv-x="1593" d="M1522 688q0 -209 -92 -375t-258 -259t-375 -93t-374.5 92.5t-258 258t-92.5 374.5q0 210 93.5 376.5t261 259.5t378.5 93q152 0 285.5 -55t228 -151t149 -231.5t54.5 -289.5zM1159 674q0 319 -93.5 496.5t-262.5 177.5q-180 0 -274.5 -174t-94.5 -506q0 -311 93 -475 t270 -164t269.5 165t92.5 480z" />
<glyph unicode="&#x41f;" horiz-adv-x="1585" d="M1544 0h-696v51q112 12 148 41t36 105v1091h-493v-1091q0 -76 36 -105t148 -41v-51h-690v51q107 13 140.5 42t33.5 104v991q0 77 -35.5 106.5t-138.5 38.5v51h1511v-51q-104 -8 -142 -38.5t-38 -106.5v-991q0 -75 35 -104t145 -42v-51z" />
<glyph unicode="&#x420;" horiz-adv-x="1251" d="M1229 1012q0 -119 -66 -209t-190 -137q-67 -27 -146.5 -35t-289.5 -10v-381q0 -61 4.5 -91t25.5 -52t53 -30t97 -16v-51h-684v51q46 8 49 8q72 9 97.5 47t25.5 134v905q0 108 -32.5 143.5t-139.5 44.5v51h659q257 0 397 -97t140 -275zM877 1001q0 166 -55.5 239 t-182.5 73q-102 0 -102 -72v-549q108 0 166.5 12.5t95.5 43.5q78 69 78 253z" />
<glyph unicode="&#x421;" horiz-adv-x="1478" d="M1407 260q-68 -76 -110.5 -115t-92.5 -73q-165 -111 -379 -111q-209 0 -374.5 91.5t-258 256.5t-92.5 373q0 206 92.5 374t256 263.5t364.5 95.5q139 0 317 -72q63 -28 95 -28q29 0 48.5 20t41.5 74h55v-479h-51q-53 116 -96.5 179t-110.5 124q-130 115 -272 115 q-184 0 -280.5 -166t-96.5 -484q0 -297 88 -460q44 -80 133 -129.5t190 -49.5q98 0 185 37q75 29 136 74.5t151 140.5z" />
<glyph unicode="&#x422;" horiz-adv-x="1366" d="M1303 973h-60q-26 183 -115 261.5t-278 84.5v-1079q0 -63 5.5 -94.5t29 -53.5t59 -29t107.5 -12v-51h-732v51q70 6 106 13.5t59 29.5t28.5 53.5t5.5 92.5v1079q-190 -6 -279.5 -84.5t-115.5 -261.5h-60l7 411h1228z" />
<glyph unicode="&#x423;" horiz-adv-x="1478" d="M1462 1333q-58 -5 -95 -19t-74 -53.5t-66 -89t-80 -149.5l-479 -952q-25 -49 -102 -74t-173 -25q-122 0 -169.5 34t-47.5 101q0 59 37.5 99.5t95.5 40.5q50 0 78.5 -16t36.5 -39t12 -45.5t14.5 -38.5t34.5 -15q35 2 82 63.5t35 94.5l-407 964q-30 70 -65 92t-99 27v51 h655v-51q-58 -4 -63 -4q-55 -3 -77 -17t-22 -46l285 -674l221 436q20 37 34 67.5t21.5 49t11 39.5t4 28t0 24.5t-0.5 20.5q0 36 -26.5 52.5t-88.5 19.5q-3 1 -9 1.5t-15.5 1t-16.5 1.5v51h518v-51z" />
<glyph unicode="&#x424;" horiz-adv-x="1638" d="M651 297v772q-32 0 -70 -8t-87 -33.5t-87.5 -65t-65 -109.5t-26.5 -159q0 -102 24 -178t58.5 -117t83 -65.5t88 -31t82.5 -5.5zM1606 711q0 -93 -23.5 -170.5t-61.5 -131t-91.5 -94.5t-109 -64.5t-119 -39t-116.5 -20.5t-106 -5q0 -72 39.5 -100t155.5 -35v-51h-717v51 q116 7 155 34.5t39 100.5q-53 0 -105.5 5t-116.5 20.5t-119.5 39t-109 64.5t-91.5 94.5t-61 131t-23 170.5t31 170t78.5 126t112 86.5t123.5 56.5t121.5 30.5t98.5 14.5t61 3q0 73 -40.5 102t-153.5 33v51h717v-51q-113 -4 -154 -33t-41 -102q25 0 61 -3t99 -14.5t122 -30.5 t123.5 -56.5t112 -86.5t78.5 -126t31 -170zM1315 694q0 89 -26.5 159t-65 109.5t-87.5 65t-87 33.5t-70 8v-772q43 -1 82.5 5.5t88 31t83 65.5t58.5 117t24 178z" />
<glyph unicode="&#x425;" horiz-adv-x="1478" d="M1432 0h-697v51q54 4 58 4q106 6 106 58q0 43 -43 110l-207 332l-78 -104q-114 -154 -153 -218t-39 -98q0 -38 36 -56.5t130 -27.5v-51h-512v51q76 9 121.5 33.5t91.5 81.5l358 452l-405 596q-48 70 -78.5 92.5t-85.5 26.5v51h708v-51q-58 -4 -63 -4q-55 -3 -76.5 -17 t-21.5 -46q0 -19 5 -32.5t25 -43.5l199 -307l115 157q71 97 94.5 140.5t23.5 76.5q0 37 -22.5 53t-83.5 19q-3 1 -9 1.5t-15.5 1t-16.5 1.5v51h512v-51q-80 -7 -130.5 -31t-105.5 -82t-149 -186l-164 -227l373 -580q73 -110 109.5 -142t89.5 -34v-51z" />
<glyph unicode="&#x426;" horiz-adv-x="1583" d="M1544 -410h-49q-4 17 -12 54t-12 54.5t-11.5 48t-13 48t-13.5 38.5t-16.5 35.5t-17.5 25.5q-93 106 -373 106h-993v51q102 9 138 39t36 107v991q0 75 -33.5 103.5t-140.5 41.5v51h690v-51q-112 -12 -148 -41t-36 -104v-1092h493v1092q0 75 -36 104t-148 41v51h696v-51 q-110 -13 -145 -41.5t-35 -103.5v-973q0 -76 38 -106.5t142 -38.5v-480z" />
<glyph unicode="&#x427;" horiz-adv-x="1593" d="M1554 0h-696v51q112 12 148 41t36 105v366q-44 -36 -126.5 -69t-165.5 -33q-114 0 -235.5 31t-209.5 91t-88 132v473q0 77 -35.5 106.5t-138.5 38.5v51h690v-51q-107 -7 -145.5 -37.5t-38.5 -107.5v-477q0 -66 67 -103t170 -37q74 0 149.5 36t106.5 73v508 q0 77 -38.5 107.5t-145.5 37.5v51h696v-51q-104 -8 -142 -38.5t-38 -106.5v-991q0 -75 35 -104t145 -42v-51z" />
<glyph unicode="&#x428;" horiz-adv-x="2279" d="M2238 0h-2205v51q102 9 138 39t36 107v991q0 75 -33.5 103.5t-140.5 41.5v51h690v-51q-112 -12 -148 -41t-36 -104v-1092h430v1092q0 75 -36.5 104t-148.5 41v51h697v-51q-110 -14 -145.5 -42t-35.5 -103v-1092h426v1092q0 75 -36 104t-148 41v51h696v-51 q-110 -13 -145 -41.5t-35 -103.5v-991q0 -77 38 -108t142 -38v-51z" />
<glyph unicode="&#x429;" horiz-adv-x="2277" d="M2238 -410h-49q-4 17 -12 54t-12 54.5t-11.5 48t-13 48t-13.5 38.5t-16.5 35.5t-17.5 25.5q-93 106 -373 106h-1687v51q102 9 138 39t36 107v991q0 75 -33.5 103.5t-140.5 41.5v51h690v-51q-112 -12 -148 -41t-36 -104v-1092h430v1092q0 75 -36.5 104t-148.5 41v51h697 v-51q-110 -14 -145.5 -42t-35.5 -103v-1092h426v1092q0 75 -36 104t-148 41v51h696v-51q-110 -13 -145 -41.5t-35 -103.5v-973q0 -76 38 -106.5t142 -38.5v-480z" />
<glyph unicode="&#x42a;" horiz-adv-x="1775" d="M1653 393q0 -181 -142 -287t-395 -106h-659v51q107 9 139.5 45t32.5 144v1079q-190 -6 -280 -84.5t-116 -261.5h-59l6 411h961v-51q-53 -7 -81.5 -13.5t-51 -17.5t-31 -32.5t-12.5 -48.5t-4 -76v-340q210 -2 289.5 -10t146.5 -35q122 -46 189 -145.5t67 -221.5zM1300 403 q0 44 -4.5 81t-14.5 65.5t-21 51.5t-29 39t-34 28t-41 19.5t-44 12t-48.5 6.5t-50 2.5t-52.5 0.5v-566q0 -71 102 -71q125 0 181 81t56 250z" />
<glyph unicode="&#x42b;" horiz-adv-x="1986" d="M1946 0h-717v51q115 10 152.5 39.5t37.5 106.5v991q0 78 -39.5 107.5t-150.5 37.5v51h717v-51q-114 -4 -154.5 -34.5t-40.5 -110.5v-991q0 -80 39 -109.5t156 -36.5v-51zM1229 393q0 -181 -142 -287t-395 -106h-659v51q107 9 139.5 45t32.5 144v905q0 96 -25.5 133.5 t-97.5 46.5q-3 0 -49 8v51h684v-51q-53 -7 -81.5 -13.5t-51 -17.5t-31 -32.5t-12.5 -48.5t-4 -76v-340q210 -2 289.5 -10t146.5 -35q122 -46 189 -145.5t67 -221.5zM877 403q0 63 -10.5 111t-25.5 80.5t-43 54.5t-52.5 33.5t-65 18t-68.5 7.5t-75 1v-566q0 -71 102 -71 q125 0 181.5 81t56.5 250z" />
<glyph unicode="&#x42c;" horiz-adv-x="1290" d="M1229 393q0 -181 -142 -287t-395 -106h-659v51q107 9 139.5 45t32.5 144v905q0 96 -25.5 133.5t-97.5 46.5q-3 0 -49 8v51h684v-51q-53 -7 -81.5 -13.5t-51 -17.5t-31 -32.5t-12.5 -48.5t-4 -76v-340q210 -2 289.5 -10t146.5 -35q122 -46 189 -145.5t67 -221.5zM877 403 q0 63 -10.5 111t-25.5 80.5t-43 54.5t-52.5 33.5t-65 18t-68.5 7.5t-75 1v-566q0 -71 102 -71q125 0 181.5 81t56.5 250z" />
<glyph unicode="&#x42d;" horiz-adv-x="1478" d="M1407 682q0 -208 -92.5 -373t-258 -256.5t-374.5 -91.5q-214 0 -379 111q-50 34 -92.5 73t-110.5 115l62 51q90 -95 151 -140.5t136 -74.5q87 -37 184 -37q101 0 190 49.5t133 129.5q88 158 91 430h-517v96h514q-9 286 -105 435t-271 149q-143 0 -273 -115 q-67 -61 -110.5 -124t-96.5 -179h-51v479h56q22 -54 41.5 -74t48.5 -20q31 0 94 28q178 72 317 72q201 0 364.5 -95.5t256 -263.5t92.5 -374z" />
<glyph unicode="&#x42e;" horiz-adv-x="2281" d="M2185 688q0 -209 -92 -375t-258 -259t-375 -93q-155 0 -288.5 52.5t-228.5 145.5t-150 224.5t-58 284.5h-196v-471q0 -76 36 -105t148 -41v-51h-690v51q107 13 140.5 42t33.5 104v991q0 77 -35.5 106.5t-138.5 38.5v51h690v-51q-107 -7 -145.5 -37.5t-38.5 -107.5v-424 h200q28 287 229.5 469t499.5 182q152 0 285.5 -55t228 -151t149 -231.5t54.5 -289.5zM1823 674q0 319 -94 496.5t-263 177.5q-180 0 -274 -174t-94 -506q0 -311 92.5 -475t269.5 -164t270 165t93 480z" />
<glyph unicode="&#x42f;" horiz-adv-x="1505" d="M1464 0h-692v51q84 10 119.5 27t48 51t12.5 111v401h-55l-424 -641h-420v51q55 0 84 39l412 584q-90 29 -138.5 53.5t-91.5 63.5q-92 86 -92 229q0 177 148.5 270.5t429.5 93.5h659v-51q-114 -7 -147 -42t-33 -146v-905q0 -48 4 -76t13 -49.5t31 -32.5t51 -18t81 -13v-51 zM952 707v522q0 27 -14 55q-19 31 -96 31q-141 0 -202.5 -71t-61.5 -232q0 -191 96 -254q40 -27 101.5 -38.5t176.5 -12.5z" />
<glyph unicode="&#x430;" d="M999 88q-59 -63 -111 -90t-118 -27q-75 0 -113 33t-55 111q-85 -77 -160 -110.5t-163 -33.5q-98 0 -163 61.5t-65 155.5q0 129 131 220q58 39 148.5 74.5t271.5 90.5v150q0 94 -41.5 137t-130.5 43q-54 0 -91.5 -22t-37.5 -54q0 -17 25 -45q36 -48 36 -88q0 -53 -39 -86 t-100 -33q-63 0 -98 36.5t-35 99.5q0 115 107 186.5t280 71.5q187 0 296.5 -76t109.5 -205v-534q0 -52 43 -52q13 0 22 9l21 20zM600 205v297q-123 -32 -186.5 -95.5t-63.5 -152.5q0 -61 29.5 -99t75.5 -38q37 0 70.5 20.5t74.5 67.5z" />
<glyph unicode="&#x431;" d="M975 469q0 -214 -131.5 -356t-329.5 -142q-83 0 -150.5 19.5t-125.5 65.5t-97 117.5t-61 181t-21 251.5q0 35 1.5 69t6 98.5t15.5 122t27.5 126.5t45 125.5t65.5 106.5t91 82t119 40l369 2q24 0 46.5 9t32.5 17l11 9h45q-11 -93 -83 -152t-151 -59h-303 q-35 0 -63.5 -13.5t-49 -40.5t-36 -55.5t-28 -70.5t-20 -73.5t-17 -75.5t-15.5 -66q64 76 153.5 119t192.5 43q198 0 329.5 -142.5t131.5 -357.5zM674 457q0 252 -34.5 350t-123.5 98q-65 0 -99.5 -42.5t-49.5 -141.5t-15 -283q0 -225 35.5 -314t126.5 -89q89 0 124.5 93 t35.5 329z" />
<glyph unicode="&#x432;" horiz-adv-x="1028" d="M950 262q0 -144 -100.5 -203t-292.5 -59h-514v51q70 7 89.5 36.5t19.5 92.5v572q0 28 -1 42.5t-6 36t-14.5 32.5t-28.5 20t-47 10v51h486q175 0 268.5 -58t93.5 -167q0 -171 -223 -211q270 -31 270 -246zM696 258q1 104 -44 148.5t-156 52.5l-60 4v-295q0 -84 105 -84 q82 0 117.5 43.5t37.5 130.5zM657 711q0 83 -32.5 117t-94.5 34q-27 0 -45 -7.5t-27.5 -17.5t-14.5 -29t-6 -33t-1 -38v-196q53 0 89 6t68 23.5t48 52.5t16 88z" />
</font>
</defs>
</svg>
