<?xml version="1.0" standalone="no"?>
<!DOCTYPE svg PUBLIC "-//W3C//DTD SVG 1.1//EN" "http://www.w3.org/Graphics/SVG/1.1/DTD/svg11.dtd" >
<svg xmlns="http://www.w3.org/2000/svg" xmlns:xlink="http://www.w3.org/1999/xlink" version="1.1">
<metadata></metadata>
<defs>
<font id="tex_gyre_termesregular" horiz-adv-x="1024" >
<font-face units-per-em="2048" ascent="1604" descent="-444" />
<missing-glyph horiz-adv-x="512" />
<glyph unicode="IJ" horiz-adv-x="1611" d="M690 0h-608v39q69 2 104.5 9t59 28t29.5 53.5t6 93.5v910q0 40 -2.5 65.5t-11 47t-20.5 33t-36.5 20t-53 12t-75.5 6.5v39h608v-39q-68 -3 -104.5 -10.5t-60 -29t-30 -53.5t-6.5 -91v-910q0 -112 37 -145.5t164 -38.5v-39zM1530 1317q-44 -3 -71.5 -7t-50.5 -13t-35 -20 t-20 -32.5t-10 -46.5t-2 -65v-758q0 -192 -90.5 -298t-255.5 -106q-89 0 -145.5 41.5t-56.5 106.5q0 41 29.5 71.5t70.5 30.5q77 0 106 -104q11 -39 22.5 -53.5t33.5 -14.5q78 0 78 135v949q0 60 -5.5 91t-27.5 52.5t-56.5 28.5t-101.5 12v39h588v-39z" />
<glyph unicode="ij" horiz-adv-x="1095" d="M567 0h-485v31q106 6 134 37t28 141v475q0 67 -15.5 95t-52.5 28q-32 0 -70 -6l-16 -2v30l318 113l8 -6v-727q0 -111 25 -141t126 -37v-31zM434 1208q0 -44 -30 -74t-74 -30q-43 0 -74 30t-31 74q0 43 31 74t74 31q44 0 74 -31t30 -74zM1014 0q0 -218 -89 -332t-259 -114 q-84 0 -137.5 31.5t-53.5 80.5q0 34 24.5 57t59.5 23q47 0 98 -65q27 -33 45 -45.5t41 -12.5q21 0 41 11t29 26q17 31 23 81t6 167v776q0 66 -15.5 94.5t-50.5 28.5q-32 0 -82 -6l-10 -2v32q161 49 320 111l10 -6v-936zM1032 1208q0 -44 -30 -74t-74 -30q-43 0 -74 30 t-31 74q0 43 31 74t74 31q44 0 74 -31t30 -74z" />
<glyph unicode="fk" horiz-adv-x="1619" d="M764 922v288q-12 -14 -33 -14q-35 0 -59.5 16.5t-53.5 59.5q-28 41 -50 56t-56 15q-133 0 -133 -315v-106h385zM1630 0h-446v31h39q19 0 31 8.5t12 21.5q0 14 -23 43q-11 11 -14 19l-6 8l-287 385v-350q0 -80 24 -104.5t107 -30.5v-31h-440v31q79 6 108 36t29 105v684 h-385v-694q0 -70 28.5 -96t116.5 -35v-31h-458v31q92 6 116.5 38t24.5 146v641h-141v66h145q6 135 25 208.5t65 139.5q42 60 108.5 94.5t135.5 34.5q83 0 170 -35q46 -16 61 -16q28 0 86 28q47 21 64 23l10 -4v-860l281 249q47 44 47 72q0 20 -21.5 27.5t-81.5 9.5v29h418 v-31q-70 0 -119.5 -18t-119.5 -69.5t-203 -170.5l-60 -55l314 -398q64 -78 117.5 -111t121.5 -38v-31z" />
<glyph unicode="ff" horiz-adv-x="1228" d="M797 1186q-30 17 -62 65q-37 53 -70 75t-75 22q-55 0 -105.5 -29.5t-76.5 -77.5q-35 -64 -35 -219v-12v-88h385q3 173 39 264zM1331 1272q0 -35 -24.5 -59.5t-61.5 -24.5q-26 0 -46.5 16.5t-45.5 57.5q-28 44 -51.5 61.5t-57.5 17.5q-116 0 -116 -182v-237h252v-68h-250 v-641q0 -80 10.5 -115t36.5 -48.5t90 -18.5v-31h-451v31q38 3 60 6.5t39.5 13.5t25 18.5t12 33.5t5 44.5t0.5 65.5v641h-383v-674q0 -85 27.5 -114t113.5 -35v-31h-450v31q86 3 111.5 33.5t25.5 128.5v661h-140v68h142q9 122 29.5 190t66.5 133q112 154 348 154 q176 0 238 -78q91 78 231 78q92 0 152.5 -36t60.5 -91z" />
<glyph unicode="fi" horiz-adv-x="1138" d="M1067 0h-451v31q95 7 118.5 35t23.5 133v540q0 31 -1 47t-9.5 31t-18.5 20.5t-37.5 10.5t-56 5.5t-84.5 0.5h-176v-674q0 -85 27.5 -114t113.5 -35v-31h-450v31q86 3 111.5 33.5t25.5 128.5v661h-140v68h142q9 122 29.5 190t66.5 133q112 154 348 154q119 0 189.5 -39 t70.5 -105q0 -35 -20.5 -57t-52.5 -22q-27 0 -49.5 16.5t-51.5 58.5q-37 53 -70 75t-75 22q-55 0 -105.5 -29.5t-76.5 -77.5q-41 -75 -35 -219v-12v-88h321q103 0 232 20l8 -6l-4 -201v-536q0 -98 25.5 -129.5t111.5 -38.5v-31z" />
<glyph unicode="fl" horiz-adv-x="1138" d="M1067 0h-440v31q79 6 108 36t29 105v684h-385v-694q0 -70 28.5 -96t116.5 -35v-31h-458v31q92 6 116.5 38t24.5 146v641h-141v66h145q6 135 25 208.5t65 139.5q42 60 108.5 94.5t135.5 34.5q83 0 170 -35q46 -16 61 -16q28 0 86 28q47 21 64 23l10 -4v-1229 q0 -80 24 -104.5t107 -30.5v-31zM764 922v288q-12 -14 -33 -14q-35 0 -59.5 16.5t-53.5 59.5q-28 41 -50 56t-56 15q-133 0 -133 -315v-106h385z" />
<glyph unicode="ffi" horiz-adv-x="1693" d="M815 1176q-38 12 -80 75q-37 53 -70 75t-75 22q-55 0 -105.5 -29.5t-76.5 -77.5q-35 -64 -35 -219v-12v-88h387q11 171 55 254zM1622 0h-451v31q95 7 118.5 35t23.5 133v540q0 31 -1 47t-9.5 31t-18.5 20.5t-37.5 10.5t-56 5.5t-84.5 0.5h-176v-674q0 -85 27.5 -114 t113.5 -35v-31h-450v31q86 3 111.5 33.5t25.5 128.5v661h-383v-674q0 -85 27.5 -114t113.5 -35v-31h-450v31q86 3 111.5 33.5t25.5 128.5v661h-140v68h142q9 122 29.5 190t66.5 133q112 154 348 154q178 0 238 -78q6 -8 16 -23q110 101 301 101q119 0 189.5 -39t70.5 -105 q0 -35 -20.5 -57t-52.5 -22q-27 0 -49.5 16.5t-51.5 58.5q-37 53 -70 75t-75 22q-55 0 -105.5 -29.5t-76.5 -77.5q-35 -64 -35 -219v-12v-88h321q103 0 232 20l8 -6l-4 -201v-536q0 -98 25.5 -129.5t111.5 -38.5v-31z" />
<glyph unicode="ffl" horiz-adv-x="1693" d="M1319 922v288q-12 -14 -33 -14q-35 0 -58.5 16.5t-53.5 59.5q-27 40 -51.5 55.5t-59.5 15.5q-133 0 -133 -315v-106h389zM803 1182q-34 15 -68 69q-37 53 -70 75t-75 22q-55 0 -105.5 -29.5t-76.5 -77.5q-35 -64 -35 -219v-12v-88h389q9 179 41 260zM1622 0h-440v31 q79 6 108 36t29 105v682h-389v-692q0 -70 28.5 -96t116.5 -35v-31h-459v31q92 6 117 38t25 146v639h-383v-674q0 -85 27.5 -114t113.5 -35v-31h-450v31q86 3 111.5 33.5t25.5 128.5v661h-140v68h142q9 122 29.5 190t66.5 133q112 154 348 154q178 0 238 -78l4 -6 q90 84 205 84q87 0 174 -35q46 -16 61 -16q28 0 86 28q47 21 64 23l10 -4v-1229q0 -80 24 -104.5t107 -30.5v-31z" />
<glyph unicode=" "  horiz-adv-x="512" />
<glyph unicode="&#x09;" horiz-adv-x="512" />
<glyph unicode="&#xa0;" horiz-adv-x="512" />
<glyph unicode="!" horiz-adv-x="681" d="M483 1221q0 -26 -4 -76l-92 -785h-27l-18 222q-7 92 -35 282q-41 262 -41 363q0 72 29 114.5t80 42.5q53 0 80.5 -42t27.5 -121zM485 88q0 -46 -31.5 -76t-80.5 -30q-46 0 -76.5 30t-30.5 76q0 47 31.5 80t77.5 33q45 0 77.5 -33.5t32.5 -79.5z" />
<glyph unicode="&#x22;" horiz-adv-x="835" d="M678 1303q0 -97 -51 -338l-15 -82h-43q-25 133 -45 262t-20 155q0 35 25.5 59.5t62.5 24.5q35 0 60.5 -23.5t25.5 -57.5zM332 1303q0 -97 -51 -338l-15 -82h-43q-25 133 -45 262t-20 155q0 35 25.5 59.5t62.5 24.5q35 0 60.5 -23.5t25.5 -57.5z" />
<glyph unicode="#" d="M1016 829h-215l-41 -274h205v-113h-224l-63 -442h-119l64 442h-275l-67 -442h-119l67 442h-219v113h238l43 274h-225v113h241l64 414h118l-63 -414h272l62 414h119l-62 -414h199v-113zM682 829h-272l-43 -274h274z" />
<glyph unicode="$" d="M936 348q0 -149 -107 -239q-56 -45 -115.5 -67.5t-172.5 -41.5v-178h-70v178q-130 5 -210 26.5t-171 77.5v267h31q37 -161 121 -237t229 -77v578q-109 62 -157.5 94.5t-92.5 75.5q-61 57 -88 114.5t-27 129.5q0 66 29 125t82 100q51 40 104 57.5t150 28.5v129h70v-129 q126 -15 200.5 -40t128.5 -69v-227h-30q-26 131 -98 198.5t-201 82.5v-504q186 -107 251 -156.5t103 -112.5q41 -67 41 -184zM469 834v471q-211 -43 -211 -211q0 -71 42 -122.5t169 -137.5zM774 299q0 95 -45 153.5t-188 147.5v-543q120 23 176.5 82t56.5 160z" />
<glyph unicode="%" horiz-adv-x="1705" d="M1581 541q0 -120 -47 -237t-129 -200q-104 -104 -240 -104q-111 0 -178 72t-67 192q0 125 64 240.5t168.5 185.5t217.5 70q100 0 155.5 -57.5t55.5 -161.5zM1528 530q0 67 -42.5 115.5t-101.5 48.5q-96 0 -176 -119q-57 -79 -95 -189.5t-38 -192.5q0 -59 35 -95.5 t90 -36.5t102 27.5t97 89.5q59 72 94 168t35 184zM1298 1384l-788 -1411h-98l718 1282q-61 -35 -109 -48t-116 -13q-80 0 -133 20q14 -52 14 -90q0 -112 -46 -224.5t-126 -194.5q-51 -54 -116 -83.5t-131 -29.5q-100 0 -171 76.5t-71 183.5q0 95 38.5 188t100.5 162 t145.5 111.5t168.5 42.5q47 0 75 -11t68 -45q37 -31 76.5 -43t101.5 -12q96 0 166.5 30.5t153.5 108.5h79zM735 1128q0 40 -18 101q-79 21 -113 53q-14 12 -26 12q-48 0 -102.5 -48.5t-98.5 -131.5q-41 -77 -68.5 -170.5t-27.5 -157.5q0 -56 33 -90t87 -34q81 0 159 67.5 t126.5 176.5t48.5 222z" />
<glyph unicode="&#x26;" horiz-adv-x="1593" d="M1536 205q-46 -109 -128.5 -170.5t-180.5 -61.5q-89 0 -170 43.5t-178 143.5q-116 -101 -217.5 -144t-225.5 -43q-163 0 -256.5 83t-93.5 229q0 257 322 442l77 45q-42 116 -56.5 177.5t-14.5 119.5q0 132 91.5 223.5t223.5 91.5q122 0 199.5 -69t77.5 -178 q0 -51 -19 -101.5t-51 -85.5q-43 -48 -93.5 -81.5t-154.5 -82.5q69 -135 127 -226t143 -195q99 131 143 218.5t44 153.5q0 46 -27.5 65.5t-103.5 26.5v43h442v-43q-77 -9 -116.5 -33.5t-75.5 -86.5l-54 -95q-78 -138 -204 -307q141 -188 315 -188q55 0 94.5 23t89.5 85z M897 1145q0 75 -46.5 124.5t-117.5 49.5q-70 0 -114 -47t-44 -121q0 -69 18 -136t64 -163q126 67 183 137t57 156zM827 213q-87 106 -152.5 209.5t-158.5 279.5q-134 -86 -188 -160.5t-54 -172.5q0 -118 78.5 -203.5t186.5 -85.5q65 0 131 30.5t157 102.5z" />
<glyph unicode="'" horiz-adv-x="368" d="M272 1303q0 -97 -51 -338l-14 -82h-43q-66 347 -66 417q0 35 25.5 59.5t62.5 24.5q35 0 60.5 -23.5t25.5 -57.5z" />
<glyph unicode="(" horiz-adv-x="681" d="M623 -330l-25 -32q-81 51 -131.5 93.5t-112.5 114.5q-135 156 -195.5 315.5t-60.5 354.5q0 357 217 623q58 71 117 121.5t172 123.5l19 -32q-111 -90 -168 -157.5t-99 -162.5q-82 -189 -82 -510q0 -296 72 -497q41 -115 97 -186t180 -169z" />
<glyph unicode=")" horiz-adv-x="681" d="M584 506q0 -357 -217 -623q-58 -71 -117 -121.5t-172 -123.5l-19 32q111 90 168 158t99 164q82 186 82 508q0 296 -72 497q-43 116 -98.5 187t-178.5 168l25 32q81 -51 131.5 -93.5t112.5 -114.5q135 -157 195.5 -315t60.5 -355z" />
<glyph unicode="*" d="M885 793q0 -34 -20 -55t-52 -21q-52 0 -123 88q-79 97 -143 123l-15 6v-14q0 -121 41 -230q17 -46 17 -65q0 -32 -24 -57t-56 -25q-29 0 -50.5 22t-21.5 53q0 34 23 95q41 107 35 172l-2 35v14q-81 -51 -107 -74q-26 -22 -86 -92q-26 -29 -43.5 -39t-42.5 -10 q-34 0 -54 19t-20 53q0 38 29 59t98 33q70 13 109 28.5t102 53.5l-22 14q-56 39 -176 61q-73 13 -106.5 36.5t-33.5 60.5q0 31 20.5 52t49.5 21q25 0 46 -14t52 -51q52 -57 90 -87.5t95 -62.5v27q0 81 -31 186q-21 75 -21 105q0 31 20.5 51t51.5 20t52.5 -21.5t21.5 -53.5 q0 -27 -21 -95q-35 -96 -35 -170v-53l15 8q70 39 147 131q72 84 115 84q32 0 53 -22t21 -57q0 -38 -23.5 -57.5t-81.5 -28.5q-67 -10 -110.5 -26.5t-118.5 -59.5l16 -11q83 -52 199 -69q68 -11 94.5 -30.5t26.5 -59.5z" />
<glyph unicode="+" horiz-adv-x="1155" d="M1073 444h-428v-428h-135v428h-428v136h428v428h135v-428h428v-136z" />
<glyph unicode="," horiz-adv-x="512" d="M399 27q0 -92 -63 -178.5t-166 -137.5l-18 39q167 114 167 217q0 12 -8 20.5t-20 8.5q-3 0 -17 -4q-24 -4 -38 -4q-56 0 -88.5 27.5t-32.5 76.5q0 52 33.5 84.5t87.5 32.5q69 0 116 -52.5t47 -129.5z" />
<glyph unicode="-" horiz-adv-x="681" d="M584 397h-504v129h504v-129z" />
<glyph unicode="." horiz-adv-x="512" d="M371 88q0 -44 -35 -77.5t-82 -33.5q-44 0 -77.5 33.5t-33.5 77.5q0 47 33.5 82t79.5 35t80.5 -35t34.5 -82z" />
<glyph unicode="/" horiz-adv-x="569" d="M588 1384l-467 -1413h-139l469 1413h137z" />
<glyph unicode="0" d="M975 676q0 -186 -54 -349.5t-143 -248.5q-110 -107 -266 -107q-181 0 -299 140q-72 86 -118 248t-46 329q0 180 54 342t143 248q112 106 274 106q201 0 328 -197t127 -511zM778 672q0 321 -67.5 490t-196.5 169q-132 0 -200 -167.5t-68 -493.5q0 -645 266 -645t266 647z " />
<glyph unicode="1" d="M807 0h-565v31q104 2 145 26q49 27 49 133v928q0 50 -14.5 73t-46.5 23q-34 0 -92 -22q-6 -3 -56 -23v29l369 186l16 -4v-1228q0 -74 37 -97t158 -24v-31z" />
<glyph unicode="2" d="M973 281l-113 -281h-799v25l365 387q129 136 197.5 274t68.5 258q0 129 -80 209t-209 80q-106 0 -171 -58t-126 -208l-43 10q26 108 54 167.5t78 112.5q118 127 294 127q160 0 269.5 -104.5t109.5 -257.5q0 -120 -63 -242t-199 -264l-344 -360h490q69 0 103 23.5 t91 111.5z" />
<glyph unicode="3" d="M885 449q0 -209 -150 -340q-72 -63 -185 -100.5t-231 -37.5q-107 0 -169 31.5t-62 85.5q0 32 21.5 52t56.5 20q47 0 131 -51q57 -37 94 -50.5t78 -13.5q114 0 191 88t77 217q0 106 -56 187.5t-151 115.5q-63 23 -217 23v26q104 37 158 66.5t100 75.5q82 82 82 198 q0 97 -62.5 158.5t-162.5 61.5q-96 0 -169 -52.5t-136 -165.5l-31 9q34 93 62.5 141.5t74.5 89.5q112 100 267 100q141 0 230 -78t89 -202q0 -83 -43 -147t-149 -136q68 -30 104 -52.5t66 -55.5q92 -98 92 -264z" />
<glyph unicode="4" d="M967 342h-209v-342h-158v342h-575v131l643 911h90v-911h209v-131zM598 473v703l-492 -703h492z" />
<glyph unicode="5" d="M897 1395l-78 -183q-5 -11 -14 -14.5t-33 -3.5h-401l-86 -174q181 -32 280.5 -72t167.5 -108q77 -77 109 -155.5t32 -188.5q0 -231 -137 -365q-157 -160 -422 -160q-115 0 -182 34t-67 93q0 76 88 76q60 0 155 -68q80 -59 137 -59q120 0 202.5 101t82.5 249 q0 152 -83.5 250.5t-260.5 155.5q-128 41 -231 41q-25 0 -25 16q0 6 2 10l223 486h428q33 0 52.5 10.5t42.5 42.5z" />
<glyph unicode="6" d="M958 449q0 -212 -119.5 -345t-310.5 -133q-194 0 -315 140q-66 76 -104.5 201t-38.5 259q0 205 88 376t254 290q113 79 220 114t281 50l5 -33q-241 -40 -403.5 -196t-203.5 -388q97 58 145.5 75.5t116.5 17.5q177 0 281 -115.5t104 -312.5zM774 379q0 192 -73 297.5 t-205 105.5q-113 0 -179 -51q-57 -43 -57 -192q0 -237 78 -373.5t213 -136.5q107 0 165 90.5t58 259.5z" />
<glyph unicode="7" d="M920 1323l-435 -1339h-133l406 1220h-445q-84 0 -127.5 -30.5t-109.5 -135.5l-35 17l121 301h758v-33z" />
<glyph unicode="8" d="M911 317q0 -158 -109.5 -252t-293.5 -94q-173 0 -283 94.5t-110 243.5q0 105 50.5 175t215.5 196q-161 141 -207.5 211t-46.5 170q0 139 111 231t278 92q154 0 253 -82t99 -208q0 -104 -61 -178t-213 -156q185 -137 251 -230.5t66 -212.5zM756 254q0 87 -43.5 151.5 t-155.5 143.5l-123 90q-89 -72 -126.5 -143.5t-37.5 -169.5q0 -134 71.5 -215.5t188.5 -81.5q100 0 163 62.5t63 162.5zM727 1096q0 106 -61.5 168.5t-165.5 62.5q-97 0 -159 -57t-62 -146q0 -86 59.5 -161.5t196.5 -165.5q8 6 18 12q174 116 174 287z" />
<glyph unicode="9" d="M940 807q0 -207 -89 -388t-249 -298q-104 -75 -206.5 -110.5t-274.5 -55.5l-6 41q234 40 396.5 198t225.5 408q-82 -63 -152.5 -90t-154.5 -27q-166 0 -267.5 114.5t-101.5 301.5q0 207 121.5 345t304.5 138q198 0 325.5 -162t127.5 -415zM741 727v80q0 258 -68 389 t-202 131q-91 0 -145 -63q-33 -40 -54.5 -123t-21.5 -170q0 -183 68.5 -290.5t185.5 -107.5q119 0 207 76q30 23 30 78z" />
<glyph unicode=":" horiz-adv-x="569" d="M393 823q0 -44 -35 -77t-82 -33q-44 0 -77 33t-33 77q0 47 33.5 82t79.5 35t80 -35t34 -82zM393 88q0 -44 -35 -77.5t-82 -33.5q-44 0 -77 33.5t-33 77.5q0 47 33.5 82t79.5 35t80 -35t34 -82z" />
<glyph unicode=";" horiz-adv-x="569" d="M449 27q0 -92 -62 -178t-168 -138l-18 39q168 115 168 217q0 12 -8.5 20.5t-20.5 8.5q-2 0 -16 -4q-24 -4 -39 -4q-57 0 -89 27.5t-32 78.5q0 52 33.5 83.5t87.5 31.5q69 0 116.5 -52.5t47.5 -129.5zM393 823q0 -44 -35 -77t-82 -33q-44 0 -77 33t-33 77q0 47 33.5 82 t79.5 35t80 -35t34 -82z" />
<glyph unicode="&#x3c;" horiz-adv-x="1155" d="M991 27l-858 424v122l858 424v-151l-676 -334l676 -334v-151z" />
<glyph unicode="=" horiz-adv-x="1155" d="M1073 614h-991v136h991v-136zM1073 274h-991v136h991v-136z" />
<glyph unicode="&#x3e;" horiz-adv-x="1155" d="M991 451l-858 -424v151l676 334l-676 334v151l858 -424v-122z" />
<glyph unicode="?" horiz-adv-x="909" d="M848 1067q0 -119 -92 -258q-29 -43 -123 -158q-57 -72 -86.5 -142t-46.5 -173h-35q3 143 61 291l58 131q75 173 75 319q0 103 -64.5 174.5t-156.5 71.5q-75 0 -134.5 -39t-59.5 -88q0 -22 35 -63q43 -49 43 -89q0 -37 -23.5 -60t-60.5 -23q-48 0 -73.5 32.5t-25.5 93.5 q0 127 95.5 212t236.5 85q84 0 166.5 -32t136.5 -86q74 -74 74 -199zM596 90q0 -46 -32 -76t-81 -30q-46 0 -76 30t-30 74q0 49 31 82t77 33q44 0 77.5 -33.5t33.5 -79.5z" />
<glyph unicode="@" horiz-adv-x="1886" d="M1657 784q0 -130 -51.5 -243.5t-138.5 -180.5t-187 -67q-74 0 -125.5 41t-60.5 108q-52 -69 -120 -108t-136 -39q-75 0 -128 66.5t-53 162.5q0 113 45.5 223t126.5 191q102 102 230 102q54 0 83.5 -21.5t63.5 -84.5l21 78h141l-133 -520q-4 -24 -4 -37q0 -95 80 -95 q66 0 127.5 58t99 152t37.5 194q0 112 -47 215t-126 178t-187.5 119.5t-227.5 44.5q-112 0 -212 -40.5t-175 -115.5q-88 -91 -139 -226t-51 -277q0 -267 168.5 -439t429.5 -172q102 0 191 22t210 77l25 -62q-149 -67 -243.5 -92t-201.5 -25q-156 0 -295.5 54t-239.5 146.5 t-158 222t-58 274.5q0 196 99.5 361t271 260t376.5 95q187 0 341 -79t242.5 -216.5t88.5 -304.5zM1171 817q3 60 -19 95t-65 38q-37 3 -86.5 -25t-91.5 -77q-106 -118 -106 -291q0 -80 33 -127t90 -47q41 0 82.5 32t70.5 87q85 155 92 315z" />
<glyph unicode="A" horiz-adv-x="1478" d="M1446 0h-522v39q53 0 73.5 3.5t40.5 14.5q12 6 20.5 20.5t8.5 28.5q0 51 -39 140l-84 196h-536l-95 -239q-16 -43 -16 -80q0 -43 33 -63.5t106 -20.5v-39h-405v39q27 2 44 6t36.5 18t34 33.5t37 60.5t45 89.5t57.5 128.5l426 1005h41l510 -1163q54 -114 84.5 -144 t99.5 -34v-39zM915 526l-237 564l-236 -564h473z" />
<glyph unicode="B" horiz-adv-x="1366" d="M1214 369q0 -154 -114 -256q-57 -52 -159 -82.5t-222 -30.5h-684v39q67 2 103 9t58.5 28.5t28.5 54t6 92.5v910q0 61 -5.5 92t-28.5 52.5t-58 28.5t-104 11v39h573q265 0 401 -88t136 -260q0 -63 -22 -117t-60 -88q-37 -32 -78.5 -51t-120.5 -39q100 -25 152 -48.5 t98 -64.5q100 -94 100 -231zM979 367q0 97 -42 160t-130 100q-55 23 -136 32t-231 9v-508q0 -49 27 -66.5t102 -17.5q190 0 285 53q125 72 125 238zM936 999q0 137 -92 209t-269 72h-90q-45 0 -45 -61v-469h195q145 0 223 64.5t78 184.5z" />
<glyph unicode="C" horiz-adv-x="1366" d="M1296 231q-94 -124 -240 -192t-319 -68q-306 0 -493 191.5t-187 503.5q0 175 61.5 317.5t178.5 239.5q94 77 210 119t234 42q153 0 301 -49q50 -18 82 -18q30 0 52.5 17.5t31.5 49.5h43l19 -462h-47q-29 99 -57.5 152.5t-78.5 103.5q-125 125 -305 125q-223 0 -355 -166 t-132 -445q0 -178 48.5 -312.5t139.5 -209.5q130 -109 320 -109q127 0 235 49t222 158z" />
<glyph unicode="D" horiz-adv-x="1478" d="M1403 684q0 -149 -54.5 -280t-154.5 -222q-95 -86 -248 -134t-332 -48h-581v39q116 7 148 40t32 144v910q0 41 -1.5 65.5t-9.5 46t-18 32.5t-32.5 19.5t-48.5 12.5t-70 8v39h553q431 0 643 -215q174 -174 174 -457zM1180 670q0 166 -62 295.5t-182 212.5 q-143 102 -408 102q-63 0 -84.5 -16.5t-21.5 -63.5v-1040q0 -49 22 -66.5t84 -17.5q254 0 402 84q250 145 250 510z" />
<glyph unicode="E" horiz-adv-x="1251" d="M1223 346l-93 -346h-1105v39q112 7 145 41t33 143v910q0 109 -32 142t-146 42v39h1087l6 -293h-51q-9 49 -19 80.5t-26.5 57t-36.5 39.5t-54 23t-74 12t-101 3h-277q-41 0 -54 -13.5t-13 -56.5v-454h315q125 0 165 34t60 160h47v-475h-47q-20 128 -59.5 162.5 t-165.5 34.5h-315v-506q0 -55 16 -66q28 -22 199 -22h55q114 0 185 10.5t127.5 42t93.5 81.5t77 136h58z" />
<glyph unicode="F" horiz-adv-x="1138" d="M1118 1063h-51q-9 49 -19 80.5t-26.5 57t-36.5 39.5t-54 23t-74 12t-101 3h-279q-41 0 -53 -13.5t-12 -56.5v-454h297q123 0 164.5 35.5t60.5 158.5h47v-475h-47q-19 125 -60 161t-165 36h-297v-447q0 -111 34 -144.5t152 -39.5v-39h-573v39q117 7 147.5 43t30.5 164v887 q0 108 -32 141.5t-146 42.5v39h1087z" />
<glyph unicode="G" horiz-adv-x="1478" d="M1452 688q-89 -7 -116 -37t-27 -121v-415q-62 -54 -222 -99t-292 -45q-168 0 -312 56.5t-247 162.5q-170 179 -170 476q0 207 89.5 370.5t250 255.5t362.5 92q140 0 279 -47q53 -20 90 -20q32 0 57.5 19t34.5 48h45l16 -432h-47q-39 95 -69.5 145.5t-75.5 92.5 q-122 113 -295 113q-104 0 -196.5 -40.5t-160.5 -115.5q-67 -75 -107 -204.5t-40 -274.5q0 -286 144.5 -450.5t394.5 -164.5q110 0 191 36t81 85v332q0 128 -43 153q-34 22 -137 29v37h522v-37z" />
<glyph unicode="H" horiz-adv-x="1478" d="M1438 0h-570v39q64 4 96.5 11.5t53.5 32t26 59.5t5 104v399h-621v-422q0 -109 32.5 -142t147.5 -42v-39h-569v39q64 4 96.5 11.5t53 32t25.5 59.5t5 104v887q0 59 -5.5 89.5t-26 52t-53 29t-95.5 13.5v39h569v-39q-63 -6 -95.5 -13.5t-53 -29t-26 -52t-5.5 -89.5v-398 h621v398q0 59 -5.5 89.5t-26.5 52t-53.5 29t-95.5 13.5v39h570v-39q-63 -6 -95.5 -13.5t-53.5 -29t-26.5 -52t-5.5 -89.5v-910q0 -109 32.5 -142t148.5 -42v-39z" />
<glyph unicode="I" horiz-adv-x="681" d="M645 0h-608v39q69 2 104.5 9t59 28t29.5 53.5t6 93.5v910q0 40 -2.5 65.5t-11 47t-20.5 33t-36.5 20t-53 12t-75.5 6.5v39h608v-39q-68 -3 -104.5 -10.5t-60 -29t-30 -53.5t-6.5 -91v-910q0 -112 37 -145.5t164 -38.5v-39z" />
<glyph unicode="J" horiz-adv-x="796" d="M758 1317q-44 -3 -71.5 -7t-50.5 -13t-35 -20t-20 -32.5t-10 -46.5t-2 -65v-758q0 -192 -90.5 -298t-255.5 -106q-89 0 -146 41.5t-57 106.5q0 41 30 71.5t71 30.5q77 0 106 -104q11 -39 22.5 -53.5t33.5 -14.5q77 0 77 135v949q0 60 -5.5 91t-27.5 52.5t-56 28.5 t-101 12v39h588v-39z" />
<glyph unicode="K" horiz-adv-x="1478" d="M1481 0h-625v39q25 2 57 2q86 3 86 45q0 37 -75 135t-191 213l-217 215l-53 -43v-383q0 -113 32 -145t152 -39v-39h-577v39q64 4 97.5 12t54.5 32t26.5 59.5t5.5 103.5v887q0 58 -5.5 89t-27 52.5t-55 29.5t-96.5 13v39h581v-39q-66 -5 -100 -12t-55.5 -28.5t-27 -52.5 t-5.5 -91v-420l362 329q160 147 160 211q0 31 -20 45t-66 17q-28 0 -53 2v39h536v-39q-104 -7 -155.5 -33.5t-155.5 -126.5l-389 -385l477 -512q99 -105 146 -147.5t83.5 -57.5t92.5 -16v-39z" />
<glyph unicode="L" horiz-adv-x="1251" d="M1225 356l-99 -356h-1101v39q112 7 145 41t33 143v910q0 109 -32 142t-146 42v39h577v-39q-121 -7 -155.5 -41t-34.5 -143v-969q0 -54 31.5 -69t144.5 -15h137q132 0 219 30t141 95q41 47 89 151h51z" />
<glyph unicode="M" horiz-adv-x="1820" d="M1767 0h-573v39q121 7 153.5 43t32.5 164v928l-524 -1174h-29l-514 1126v-825q0 -155 37 -205.5t156 -56.5v-39h-481v39q54 4 86.5 12.5t56.5 24t35 46.5t15.5 71.5t4.5 107.5v832q0 60 -6 91.5t-28.5 52.5t-57.5 28.5t-102 11.5v39h405l473 -1034l453 1034h407v-39 q-114 -9 -146 -42t-32 -142v-910q0 -109 33 -143t145 -41v-39z" />
<glyph unicode="N" horiz-adv-x="1478" d="M1448 1317q-96 -10 -135 -37q-60 -42 -60 -225v-1078h-34l-906 1127v-803q0 -155 37 -205.5t156 -56.5v-39h-481v39q54 4 86.5 12.5t56.5 24t35 46.5t15.5 71.5t4.5 107.5v903q-62 72 -97 92.5t-101 20.5v39h350l788 -991v690q0 187 -59 229q-45 26 -137 33v39h481v-39z " />
<glyph unicode="O" horiz-adv-x="1478" d="M1409 670q0 -204 -86 -363t-241.5 -247.5t-354.5 -88.5q-135 0 -263 56t-218 153q-83 89 -129.5 221t-46.5 277q0 152 50 283.5t137.5 224.5t212 145.5t269.5 52.5q301 0 498 -215q172 -187 172 -499zM1176 672q0 182 -45.5 321.5t-129.5 214.5q-115 103 -262 103 q-172 0 -293 -133q-65 -72 -104 -210t-39 -294q0 -170 47.5 -314.5t126.5 -214.5q114 -100 258 -100q164 0 273 109q73 73 100 149q68 176 68 369z" />
<glyph unicode="P" horiz-adv-x="1138" d="M1110 985q0 -102 -52.5 -189.5t-144.5 -136.5q-124 -69 -358 -69q-61 0 -141 6v-373q0 -59 6.5 -91.5t29 -54t57.5 -29t99 -9.5v-39h-573v39q63 6 93.5 13.5t50.5 31.5t24 58t4 104v887q0 110 -29 141t-143 43v39h540q145 0 268.5 -40.5t184.5 -107.5q84 -90 84 -223z M887 973q0 158 -98.5 232.5t-305.5 74.5q-41 0 -55 -14.5t-14 -55.5v-532q70 -6 116 -6q357 0 357 301z" />
<glyph unicode="Q" horiz-adv-x="1478" d="M1436 -362h-13q-34 -3 -71 -3q-244 0 -426.5 64t-286.5 186l-96 113q-108 36 -169.5 73.5t-121.5 102.5q-182 197 -182 500q0 154 50 286t137.5 225t212 146t269.5 53q193 0 346 -90t238.5 -251.5t85.5 -364.5q0 -346 -229 -549q-70 -61 -136.5 -92t-171.5 -51 q126 -163 258.5 -237.5t305.5 -74.5v-36zM1176 682q0 173 -47 313t-130 213q-55 48 -122 75.5t-132 27.5q-175 0 -299 -133q-63 -71 -103 -208t-40 -284q0 -181 46 -325t128 -216q112 -100 262 -100q176 0 295 131q62 71 102 213t40 293z" />
<glyph unicode="R" horiz-adv-x="1366" d="M1350 0h-330l-488 631l-114 -4v-404q0 -110 33 -143.5t151 -40.5v-39h-567v39q41 3 66.5 7.5t46.5 14t32 22.5t18 37t9 52t2 74v887q0 39 -2 63t-9 45t-18 32.5t-32 20.5t-46.5 14t-66.5 9v39h565q145 0 263 -37t177 -100q80 -89 80 -224q0 -72 -27.5 -133.5 t-76.5 -101.5q-51 -41 -107.5 -64t-158.5 -43l421 -518q43 -52 81 -71.5t98 -24.5v-39zM897 999q0 145 -91.5 213t-283.5 68q-61 0 -82.5 -15.5t-21.5 -58.5v-504q149 3 220.5 16.5t141.5 53.5q55 29 86 89.5t31 137.5z" />
<glyph unicode="S" horiz-adv-x="1138" d="M1006 344q0 -158 -120 -265.5t-298 -107.5q-124 0 -242 47q-64 23 -96 23q-23 0 -39 -19.5t-18 -48.5h-46l-61 435h47q77 -188 176.5 -275.5t237.5 -87.5q112 0 182 64t70 165q0 74 -29 121q-75 115 -305 240q-171 91 -245.5 183t-74.5 214q0 168 119 266q107 86 232 86 q103 0 221 -45q56 -24 90 -24q53 0 65 69h43l46 -436h-52q-24 90 -50.5 140t-74.5 100q-109 112 -249 112q-95 0 -154 -51.5t-59 -136.5q0 -84 69.5 -157.5t231.5 -161.5q203 -110 293 -216t90 -233z" />
<glyph unicode="T" horiz-adv-x="1251" d="M1214 1008h-49q-12 60 -23.5 98t-30 69.5t-39 48t-55.5 28t-75 15t-102 3.5h-111v-1047q0 -112 35.5 -145t161.5 -39v-39h-598v39q46 3 73.5 6.5t51.5 13t35.5 22t19.5 37t10 53t2 75.5v1024h-110q-61 0 -101 -3.5t-74.5 -14.5t-55.5 -28t-39.5 -48.5t-30.5 -70 t-25 -97.5h-49l12 348h1155z" />
<glyph unicode="U" horiz-adv-x="1478" d="M1444 1317q-45 -5 -73 -11.5t-51.5 -19.5t-35.5 -29t-20 -46t-10.5 -65t-2.5 -91v-535q0 -119 -15 -196.5t-52 -141.5q-121 -211 -457 -211q-261 0 -387.5 128.5t-126.5 394.5v639q0 113 -31 144t-153 40v39h579v-39q-123 -10 -154.5 -41.5t-31.5 -142.5v-656 q0 -179 51 -270q84 -146 301 -146q115 0 207 44t133 118q47 87 47 279v553q0 154 -36 203.5t-156 58.5v39h475v-39z" />
<glyph unicode="V" horiz-adv-x="1478" d="M1427 1317q-73 -4 -105 -36.5t-83 -154.5l-455 -1149h-30l-504 1125q-66 137 -104 174.5t-113 40.5v39h545v-39q-58 -4 -60 -4q-94 -6 -94 -64q0 -42 84 -227l309 -692l301 751q39 95 39 150q0 43 -32.5 62.5t-116.5 23.5v39h419v-39z" />
<glyph unicode="W" horiz-adv-x="1933" d="M1909 1317q-81 -15 -111 -40.5t-59 -105.5l-418 -1194h-31l-327 867l-316 -867h-31l-395 1100q-57 145 -95 189t-116 51v39h502v-39q-78 -4 -105.5 -18t-27.5 -48q0 -36 22 -94l295 -770l219 578l-67 168q-53 123 -86 153t-121 31v39h547v-39q-83 -2 -120.5 -18.5 t-37.5 -53.5q0 -30 31 -104l24 -62l271 -698l256 694q33 94 33 154q0 41 -32 60.5t-110 27.5v39h406v-39z" />
<glyph unicode="X" horiz-adv-x="1478" d="M1442 0h-608v39q50 4 55 4q102 3 102 59q0 48 -104 201l-195 287l-243 -303q-107 -132 -107 -176q0 -35 33.5 -50.5t122.5 -21.5v-39h-478v39q30 2 45 4t38 12.5t36 21t43 41t56.5 61.5t78.5 93l322 396l-223 327q-65 92 -104 143t-74 90.5t-64 55.5t-57.5 23.5 t-71.5 9.5v39h619v-39l-58 -2q-51 -2 -74.5 -16t-23.5 -44q0 -65 174 -307l86 -121l231 283q46 58 64 88t18 53q0 35 -30 49t-113 17v39h487v-39q-99 -6 -152.5 -39.5t-152.5 -153.5l-299 -372l393 -562q66 -89 106 -115.5t122 -35.5v-39z" />
<glyph unicode="Y" horiz-adv-x="1478" d="M1440 1317q-78 -6 -133.5 -52t-149.5 -182l-303 -462v-398q0 -117 37 -149t174 -35v-39h-627v39q50 2 80 5.5t56 12.5t38 21t20.5 37t10.5 54t2 77v356l-268 393q-84 118 -125.5 173t-80 93t-62.5 46t-64 10v39h573v-39q-23 -2 -51 -2q-94 -6 -94 -60q0 -40 35 -90 l303 -454l293 463q29 50 29 75q0 37 -31 51.5t-111 16.5v39h449v-39z" />
<glyph unicode="Z" horiz-adv-x="1251" d="M1223 360l-49 -360h-1156v31l895 1247h-452q-205 0 -275 -88q-26 -33 -41 -71.5t-28 -112.5h-54l41 350h1078v-31l-885 -1247h526q179 0 256 80q31 34 51 75.5t46 126.5h47z" />
<glyph unicode="[" horiz-adv-x="681" d="M612 -319h-432v1675h432v-51h-184q-49 0 -70.5 -21.5t-21.5 -69.5v-1376q0 -106 100 -106h176v-51z" />
<glyph unicode="\" horiz-adv-x="569" d="M588 -29h-139l-467 1413h137z" />
<glyph unicode="]" horiz-adv-x="681" d="M502 -319h-432v51h184q48 0 70 21.5t22 68.5v1376q0 107 -100 107h-176v51h432v-1675z" />
<glyph unicode="^" horiz-adv-x="960" d="M913 608h-139l-293 592l-293 -592h-139l371 748h123z" />
<glyph unicode="_" d="M1024 -256h-1024v102h1024v-102z" />
<glyph unicode="`" horiz-adv-x="681" d="M492 1032h-82l-316 199q-61 38 -61 86q0 31 18.5 48t52.5 17q23 0 40.5 -9.5t45.5 -37.5z" />
<glyph unicode="a" horiz-adv-x="909" d="M905 82q-54 -59 -93 -80.5t-91 -21.5q-63 0 -93.5 34t-37.5 115q-94 -80 -163 -114.5t-136 -34.5q-95 0 -155 61t-60 158q0 51 20 99t54 79q65 58 131.5 91t306.5 130v125q0 83 -40.5 126.5t-115.5 43.5q-61 0 -104 -29.5t-43 -70.5q0 -23 6 -50q4 -28 4 -32 q0 -34 -27.5 -60t-64.5 -26q-36 0 -62 26t-26 62q0 38 23 79.5t61 73.5q43 35 112.5 55.5t147.5 20.5q190 0 256 -119q39 -63 39 -209v-399q0 -68 13 -93.5t48 -25.5q43 0 90 39v-53zM588 252v297q-185 -67 -258.5 -130.5t-73.5 -154.5v-8q0 -66 37.5 -112t91.5 -46 q74 0 150 45q32 20 42.5 41t10.5 68z" />
<glyph unicode="b" d="M958 498q0 -144 -63 -263t-173 -187t-243 -68q-123 0 -230.5 42t-107.5 89v1063q0 64 -19 84t-81 20q-23 0 -35 -2v33l60 16q144 41 237 74l10 -4v-627q31 75 111.5 124.5t173.5 49.5q154 0 257 -127.5t103 -316.5zM778 403q0 188 -71 299t-191 111q-79 0 -141 -47 t-62 -107v-516q0 -38 60 -68t139 -30q126 0 196 94t70 264z" />
<glyph unicode="c" horiz-adv-x="909" d="M844 301q-50 -96 -86.5 -147.5t-81.5 -87.5q-106 -86 -236 -86q-170 0 -279.5 128t-109.5 326q0 261 172 404q125 104 277 104q129 0 222 -62.5t93 -148.5q0 -35 -28 -60.5t-68 -25.5q-34 0 -60 25t-38 69l-13 45q-15 57 -40.5 78t-80.5 21q-124 0 -201 -98.5t-77 -258.5 q0 -177 88 -288t229 -111q88 0 152 42.5t137 149.5z" />
<glyph unicode="d" d="M1006 86l-301 -106l-9 6v131q-53 -72 -114.5 -104.5t-147.5 -32.5q-169 0 -274 122t-105 318q0 218 124.5 370t301.5 152q62 0 109.5 -19.5t105.5 -68.5v320q0 63 -18.5 83.5t-75.5 20.5q-29 0 -45 -2v33q195 52 301 90l10 -4v-1162q0 -71 17.5 -93.5t72.5 -22.5 q11 0 48 2v-33zM696 209v471q0 81 -63.5 143t-145.5 62q-117 0 -186.5 -104.5t-69.5 -278.5q0 -189 77.5 -302.5t205.5 -113.5q93 0 148 61q34 39 34 62z" />
<glyph unicode="e" horiz-adv-x="909" d="M868 322q-65 -166 -176 -254t-258 -88q-177 0 -280 123t-103 335q0 224 119 364t309 140q79 0 147.5 -30.5t114.5 -86.5q39 -50 57.5 -104.5t30.5 -153.5h-630q3 -98 16.5 -160t44.5 -122q87 -164 258 -164q99 0 172 49t146 166zM621 633q-20 133 -63.5 184t-137.5 51 t-147 -57t-70 -178h418z" />
<glyph unicode="f" horiz-adv-x="681" d="M784 1272q0 -35 -24.5 -59.5t-61.5 -24.5q-26 0 -46.5 16.5t-45.5 57.5q-28 45 -51.5 62t-56.5 17q-117 0 -117 -182v-237h252v-66h-250v-643q0 -50 4 -78t14 -50t33 -32t54 -15t85 -7v-31h-532v31q58 3 89 10t50.5 28t25 52.5t5.5 91.5v643h-168v66h168 q1 122 16.5 190.5t55.5 138.5q40 69 116 108.5t172 39.5q92 0 152.5 -36t60.5 -91z" />
<glyph unicode="g" d="M963 795h-170q38 -86 38 -172q0 -150 -98 -232q-99 -86 -221 -86q-20 0 -78 6q-3 0 -39 4q-41 -12 -82 -55t-41 -74q0 -49 160 -55l264 -12q114 -4 181 -64t67 -155q0 -116 -113 -207q-80 -65 -192 -102t-227 -37q-146 0 -250.5 58t-104.5 140q0 57 46 113.5t155 136.5 q-63 31 -85.5 54t-22.5 55q0 59 94 141l88 82q-102 51 -146.5 114.5t-44.5 159.5q0 139 99.5 236.5t242.5 97.5q79 0 164 -31l45 -16q61 -21 113 -21h158v-79zM887 -131q0 55 -57 77.5t-197 22.5q-76 0 -178.5 8.5t-153.5 18.5q-64 -75 -82 -107.5t-18 -68.5q0 -68 82 -109 t217 -41q173 0 280 55t107 144zM674 543q0 124 -62 245q-52 97 -149 97q-71 0 -111.5 -51.5t-40.5 -141.5v-6q0 -147 58 -238.5t151 -91.5q71 0 112.5 50.5t41.5 136.5z" />
<glyph unicode="h" d="M997 0h-434v31q89 9 114 41t25 137v405q0 217 -153 217q-60 0 -111 -29t-116 -100v-493q0 -106 25 -137.5t114 -40.5v-31h-443v31q89 12 110.5 41t21.5 137v965q0 66 -19.5 85t-85.5 19q-17 0 -25 -2v33l56 16q141 41 235 74l11 -6v-623q70 92 140 132t161 40 q251 0 251 -326v-407q0 -46 2.5 -71.5t8.5 -46t21.5 -30.5t35 -16.5t55.5 -13.5v-31z" />
<glyph unicode="i" horiz-adv-x="569" d="M518 0h-485v31q106 6 134 37t28 141v475q0 67 -15.5 95t-52.5 28q-33 0 -70 -6l-16 -2v30l317 113l9 -6v-727q0 -111 25 -141t126 -37v-31zM385 1208q0 -44 -30 -74t-74 -30q-43 0 -74 30t-31 74q0 43 31 74t74 31q44 0 74 -31t30 -74z" />
<glyph unicode="j" horiz-adv-x="569" d="M395 0q0 -218 -89 -332t-259 -114q-83 0 -136.5 31.5t-53.5 80.5q0 34 24.5 57t59.5 23q47 0 98 -65q27 -33 45 -45.5t41 -12.5q21 0 41 11t29 26q17 30 22.5 80t5.5 168v776q0 66 -15 94.5t-50 28.5q-32 0 -82 -6l-10 -2v32q156 48 319 111l10 -6v-936zM414 1208 q0 -44 -30.5 -74t-74.5 -30q-43 0 -73.5 30t-30.5 74q0 43 30.5 74t73.5 31q44 0 74.5 -31t30.5 -74z" />
<glyph unicode="k" d="M1034 0h-446v31h39q19 0 31 8.5t12 21.5q0 14 -23 43q-4 4 -14 19l-6 8l-287 383v-377q0 -54 25.5 -77.5t87.5 -26.5l41 -2v-31h-480v31q42 7 63 11t41.5 12t28 14.5t14 22.5t7 31.5t0.5 45.5v987q0 73 -18.5 99t-69.5 26q-12 0 -66 -4v33l62 16l256 74l8 -4v-860 l281 249q47 41 47 70q0 22 -21.5 29.5t-81.5 9.5v29h418v-31h-16q-49 0 -95 -12q-94 -26 -331 -246l-60 -55l314 -398q64 -78 117.5 -111t121.5 -38v-31z" />
<glyph unicode="l" horiz-adv-x="569" d="M526 0h-483v31q97 8 127.5 36t30.5 111v977q0 72 -18 98.5t-68 26.5q-18 0 -64 -4h-12v33q215 53 326 90l8 -4v-1223q0 -85 27.5 -110t125.5 -31v-31z" />
<glyph unicode="m" horiz-adv-x="1593" d="M1587 0h-448v31q90 11 112.5 35.5t22.5 111.5v432q0 128 -33 177t-121 49q-71 0 -124 -29.5t-99 -95.5v-516q0 -96 30 -129.5t117 -34.5v-31h-458v31q88 6 113.5 32.5t25.5 112.5v445q0 215 -135 215q-54 0 -113 -23.5t-98 -58.5l-31 -39v-578q0 -60 28.5 -81.5 t110.5 -24.5v-31h-454v31q86 1 114.5 30t28.5 113v518q0 73 -16 102t-56 29q-29 0 -65 -8v35q155 43 287 92l14 -4v-154q128 97 189 127.5t128 30.5q163 0 217 -172q160 172 334 172q238 0 238 -364v-422q0 -60 21 -89t67 -32l53 -4v-31z" />
<glyph unicode="n" d="M993 0h-426v31q77 6 103 40.5t26 131.5v428q0 198 -149 198q-51 0 -94.5 -23.5t-116.5 -92.5v-576q0 -55 28.5 -77.5t106.5 -28.5v-31h-434v31q78 6 102.5 35.5t24.5 117.5v508q0 75 -16.5 103t-59.5 28q-39 0 -55 -8v35q158 46 282 92l15 -4v-162q104 98 165 132t132 34 q114 0 177.5 -81t63.5 -226v-469q0 -75 25 -101t100 -34v-31z" />
<glyph unicode="o" d="M963 479q0 -139 -59.5 -253.5t-164 -180t-231.5 -65.5q-193 0 -321 138t-128 345q0 212 126.5 345.5t326.5 133.5q196 0 323.5 -131t127.5 -332zM778 408q0 211 -82 344t-211 133q-109 0 -175 -88t-66 -234q0 -228 90 -395q32 -61 85 -96t113 -35q115 0 180.5 99 t65.5 272z" />
<glyph unicode="p" d="M963 506q0 -146 -57 -267t-156 -190t-218 -69q-65 0 -108.5 18.5t-97.5 69.5v-322q0 -97 32.5 -125t147.5 -29v-36h-496v34q90 9 117 35.5t27 106.5v958q0 72 -16 94.5t-68 22.5q-34 0 -52 -2v33q132 41 295 104l13 -4v-158q68 84 138.5 123t156.5 39q149 0 245.5 -123 t96.5 -313zM786 426q0 178 -68.5 285.5t-182.5 107.5q-71 0 -140 -44.5t-69 -90.5v-504q0 -46 70.5 -90.5t142.5 -44.5q110 0 178.5 105.5t68.5 275.5z" />
<glyph unicode="q" d="M999 -444h-483v34q109 8 145.5 39t36.5 117v385q-139 -151 -321 -151q-145 0 -236.5 123t-91.5 317q0 221 130.5 372.5t322.5 151.5q60 0 112.5 -16.5t122.5 -57.5l111 66h22v-1225q0 -65 22 -86.5t107 -40.5v-28zM698 260v422q0 205 -190 205q-131 0 -207 -106t-76 -287 q0 -102 30 -193t79 -135q62 -62 160 -62q102 0 176 64q28 22 28 92z" />
<glyph unicode="r" horiz-adv-x="681" d="M686 834q0 -43 -21.5 -68t-58.5 -25q-35 0 -82 41q-36 31 -53 31q-41 0 -92 -59.5t-51 -108.5v-461q0 -88 35 -118t139 -35v-31h-492v31q98 19 122 42t24 99v512q0 67 -16 95t-54 28q-33 0 -72 -8v32q156 50 303 111l11 -4v-188q75 109 128 150.5t117 41.5q53 0 83 -28.5 t30 -79.5z" />
<glyph unicode="s" horiz-adv-x="796" d="M713 242q0 -107 -85 -184.5t-202 -77.5q-57 0 -152 20q-65 16 -94 16q-19 0 -28 -4.5t-19 -19.5h-27v319h33q35 -156 94.5 -221t165.5 -65q78 0 124 40t46 107q0 94 -106 154l-119 67q-131 75 -185.5 142t-54.5 153q0 112 78.5 182t204.5 70q72 0 139 -25q32 -14 56 -14 q6 0 28 17l4 4h23l8 -279h-31q-35 138 -86 195t-139 57q-71 0 -114.5 -38t-43.5 -101q0 -89 88 -140l222 -131q94 -55 133 -110.5t39 -132.5z" />
<glyph unicode="t" horiz-adv-x="569" d="M571 135q-99 -155 -247 -155q-181 0 -181 260v616h-108q-8 5 -8 14q0 18 34 39q85 50 199 219q27 35 41 58q14 0 14 -27v-237h207v-66h-207v-586q0 -98 25 -141t82 -43q34 0 61.5 16t61.5 56z" />
<glyph unicode="u" d="M981 74q-170 -47 -281 -92l-8 4v170l-88 -88q-41 -41 -97.5 -64.5t-113.5 -23.5q-113 0 -180.5 72.5t-67.5 193.5v516q0 71 -27 99t-100 32v29h299v-668q0 -64 43 -110t103 -46q98 0 184 74q35 25 35 104v482q0 76 -28.5 100t-123.5 29v35h324v-703q0 -71 23 -94t94 -23 h10v-28z" />
<glyph unicode="v" d="M977 891q-46 -5 -67.5 -30.5t-65.5 -129.5l-262 -657q-42 -103 -58 -103q-19 0 -37 54q-15 40 -16 43l-246 587q-39 88 -58 127t-41 67.5t-38.5 34t-48.5 7.5v31h401v-31q-54 -4 -74 -16.5t-20 -40.5q0 -30 19 -76l208 -525l203 531q12 30 12 61q0 57 -96 66v31h285v-31z " />
<glyph unicode="w" horiz-adv-x="1478" d="M1421 891q-30 -10 -43 -27.5t-41 -83.5l-282 -708q-25 -61 -36 -81t-22 -20q-9 0 -18.5 16.5t-30.5 71.5l-186 484l-230 -492q-38 -80 -51 -80q-16 0 -53 90l-276 701q-34 78 -54 102t-55 27v31h369v-31q-53 -6 -74 -21t-21 -47q0 -29 13 -61l202 -535l187 408l-41 115 q-31 83 -57.5 109t-83.5 32v31h415v-31q-71 -10 -94.5 -25t-23.5 -49q0 -21 4.5 -37t29.5 -84l172 -458l185 454q35 84 35 135q0 26 -19.5 40t-71.5 24v31h252v-31z" />
<glyph unicode="x" d="M981 0h-412v31q51 3 66.5 12t15.5 37q0 19 -12 37l-186 286l-162 -251q-41 -62 -41 -84q0 -20 19.5 -28.5t62.5 -8.5v-31h-297v31q51 4 77 22.5t72 81.5l234 338l-193 295q-48 72 -80 97.5t-77 25.5h-19v31h424v-31q-88 -3 -88 -45q0 -40 94 -182l29 -41q53 80 61 90 q76 94 76 133q0 22 -18 32t-64 13v31h324v-31q-104 -3 -166 -90l-170 -246l262 -401q48 -68 84.5 -95.5t83.5 -27.5v-31z" />
<glyph unicode="y" d="M973 891q-37 -5 -58 -24t-41 -68l-315 -836q-83 -221 -163 -315t-183 -94q-65 0 -108.5 33.5t-43.5 84.5q0 36 26.5 63t62.5 27q47 0 108 -22q28 -14 51 -14q22 0 51.5 26.5t51.5 65.5q26 45 54 121t28 100q0 19 -23 76l-338 712q-25 54 -104 66v29h422v-31 q-66 -3 -92.5 -15t-26.5 -40q0 -30 20 -78l236 -518l198 565q9 21 9 35q0 51 -99 51v31h277v-31z" />
<glyph unicode="z" horiz-adv-x="909" d="M856 276l-29 -276h-772v31l545 829h-283q-93 0 -126 -34t-46 -146h-36l6 242h710v-31l-551 -830h283q158 0 203 54q20 27 32 60.5t27 109.5z" />
<glyph unicode="{" horiz-adv-x="983" d="M717 -371q-100 1 -152.5 12.5t-95.5 39.5q-90 58 -90 235v363q0 106 -35.5 153.5t-138.5 79.5q103 31 138.5 77.5t35.5 153.5v365q0 177 90 233q45 28 96.5 39.5t151.5 12.5v-23q-106 -28 -146.5 -82.5t-40.5 -169.5v-344q0 -128 -38.5 -180.5t-153.5 -83.5 q115 -29 153.5 -81.5t38.5 -180.5v-344q0 -115 40.5 -169.5t146.5 -82.5v-23z" />
<glyph unicode="|" horiz-adv-x="409" d="M272 -319h-135v1675h135v-1675z" />
<glyph unicode="}" horiz-adv-x="983" d="M778 512q-103 -32 -138.5 -79t-35.5 -154v-365q0 -177 -90 -233q-45 -28 -96.5 -39.5t-151.5 -12.5v23q106 28 146.5 82.5t40.5 169.5v344q0 128 38.5 180.5t153.5 83.5q-116 29 -154 81t-38 181v344q0 115 -40.5 169.5t-146.5 82.5v23q101 -1 152.5 -12.5t95.5 -39.5 q90 -58 90 -235v-363q0 -107 35.5 -153.5t138.5 -77.5z" />
<glyph unicode="~" horiz-adv-x="1107" d="M1028 555q-70 -98 -125.5 -136t-126.5 -38q-68 0 -120 19t-191 92q-54 28 -121 28q-47 0 -79 -22t-72 -82l-111 65q70 98 125.5 136t126.5 38q68 0 120.5 -18.5t190.5 -91.5q56 -29 121 -29q47 0 79.5 22.5t72.5 82.5z" />
<glyph unicode="&#xa1;" horiz-adv-x="681" d="M416 -305q0 -72 -29 -115t-80 -43q-52 0 -80 42t-28 122q0 26 4 76l92 784h27l18 -221q7 -94 35 -283q41 -262 41 -362zM416 834q0 -47 -31.5 -80t-77.5 -33q-45 0 -77.5 33.5t-32.5 79.5t31.5 76t80.5 30q46 0 76.5 -30t30.5 -76z" />
<glyph unicode="&#xa2;" d="M918 319q-52 -107 -89.5 -160.5t-91.5 -99.5q-90 -77 -211 -77q-51 0 -114 18l-101 -283h-69l104 308q-56 32 -85.5 56.5t-57.5 63.5q-94 131 -94 304q0 207 130 350t320 143q44 0 105 -10l90 254h71l-96 -277q74 -29 114 -73.5t40 -98.5q0 -40 -25 -66t-63 -26 t-64.5 23.5t-54.5 83.5l-207 -596q68 -25 121 -25q91 0 156 44.5t145 160.5zM641 862q-50 19 -96 19q-126 0 -202.5 -96t-76.5 -253q0 -110 32.5 -186t107.5 -145z" />
<glyph unicode="&#xa3;" d="M1004 279q0 -26 -28.5 -82t-60.5 -93q-102 -118 -256 -118q-66 0 -127.5 26.5t-166.5 98.5q-62 -73 -104.5 -100t-96.5 -27q-63 0 -101 34.5t-38 92.5q0 70 51 112.5t135 42.5q45 0 94 -10q8 21 8 43q0 43 -45 373h-221v92h219q-14 74 -14 141q0 220 108 349.5t291 129.5 q114 0 190.5 -54t76.5 -136q0 -47 -29.5 -78t-73.5 -31q-46 0 -62.5 28t-17.5 110q-3 106 -114 106q-92 0 -143.5 -75t-51.5 -210q0 -80 23 -280h256v-92h-248v-56l2 -57q0 -53 -7 -97.5t-44 -234.5q99 -41 164 -56t141 -15q137 0 231 100q29 33 47 33q13 0 13 -10zM291 156 q0 12 -36.5 24.5t-72.5 12.5q-104 0 -104 -76q0 -34 23.5 -55t60.5 -21q31 0 51.5 10.5t42.5 36.5q35 41 35 68z" />
<glyph unicode="&#xa4;" d="M1069 221l-98 -102l-201 200q-119 -83 -256 -83q-139 0 -260 83l-197 -200l-102 102l201 197q-84 122 -84 258q0 141 84 258l-201 201l102 98l197 -197q68 43 127.5 61.5t132.5 18.5q140 0 256 -80l201 197l98 -98l-197 -201q44 -66 62 -123.5t18 -132.5 q0 -74 -18 -132.5t-62 -127.5zM813 680q0 128 -88 216.5t-215 88.5q-123 0 -211 -90.5t-88 -216.5q0 -129 88.5 -220t214.5 -91t212.5 90.5t86.5 222.5z" />
<glyph unicode="&#xa5;" d="M1049 1317q-78 -17 -131.5 -65.5t-110.5 -153.5l-189 -377h300v-82h-340l-15 -29v-155h355v-82h-355v-150q0 -107 33 -144t131 -40v-39h-500v39q54 2 83.5 10.5t48.5 32t24.5 60.5t5.5 104v127h-356v82h356v155l-14 29h-342v82h295l-195 354q-59 105 -94 153t-67 67 t-81 22v39h498v-39q-72 -1 -102.5 -15t-30.5 -45q0 -36 27 -92l241 -452l230 450q28 54 28 90q0 29 -29 46.5t-75 17.5h-29v39h400v-39z" />
<glyph unicode="&#xa6;" horiz-adv-x="409" d="M272 686h-135v670h135v-670zM272 -319h-135v669h135v-669z" />
<glyph unicode="&#xa7;" d="M872 502q0 -107 -66.5 -176.5t-170.5 -69.5h-37q115 -99 154 -160t39 -139q0 -117 -81 -188.5t-214 -71.5q-120 0 -201.5 59.5t-81.5 145.5q0 47 32 78.5t79 31.5q41 0 69.5 -24.5t28.5 -61.5q0 -43 -47 -84q-23 -20 -23 -30q0 -28 44.5 -50t101.5 -22q82 0 130 43 t48 115q0 60 -41.5 113.5t-140.5 121.5q-187 129 -269 234.5t-82 218.5q0 104 67.5 173.5t168.5 69.5q31 0 51 -2q-123 101 -164 163t-41 145q0 111 79 180t206 69q113 0 187.5 -57t74.5 -143q0 -51 -27.5 -80t-76.5 -29q-41 0 -69 25t-28 63q0 49 54 90q16 16 16 23 q0 28 -37 46.5t-90 18.5q-78 0 -126 -40t-48 -105q0 -38 19.5 -78.5t50.5 -66.5l280 -232q182 -150 182 -317zM766 434q0 82 -109 191q-70 70 -144.5 114.5t-121.5 44.5q-60 0 -99.5 -38.5t-39.5 -98.5q0 -46 21 -86t73 -92q92 -92 156 -131t123 -39q57 0 99 40.5t42 94.5z " />
<glyph unicode="&#xa8;" horiz-adv-x="681" d="M240 1208q0 -41 -31 -70.5t-74 -29.5q-41 0 -69.5 29.5t-28.5 72.5q0 40 30 70.5t68 30.5q43 0 74 -31t31 -72zM647 1208q0 -41 -30.5 -70.5t-73.5 -29.5q-41 0 -70 29.5t-29 72.5q0 40 30.5 70.5t68.5 30.5q43 0 73.5 -30.5t30.5 -72.5z" />
<glyph unicode="&#xa9;" horiz-adv-x="1556" d="M1495 688q0 -145 -57 -278t-153 -229t-229 -153t-278 -57t-278 57t-229 153t-153 229t-57 278t57 278t153 229t229 153t278 57t278 -57t229 -153t153 -229t57 -278zM1417 688q0 130 -50.5 248t-136.5 204t-204 136.5t-248 50.5t-248 -50.5t-204 -136.5t-136.5 -204 t-50.5 -248t50.5 -248t136.5 -204t204 -136.5t248 -50.5t248 50.5t204 136.5t136.5 204t50.5 248zM1174 434q-58 -73 -152 -113t-205 -40q-196 0 -316 110t-120 291q0 205 151 319q60 44 136 69.5t151 25.5q89 0 191 -29q33 -10 51 -10q40 0 49 39h35l10 -273h-35 q-19 59 -36.5 90t-47.5 58q-77 71 -190 71q-137 0 -218 -94.5t-81 -251.5q0 -208 119 -297q77 -59 192 -59q80 0 148.5 28t140.5 91z" />
<glyph unicode="&#xaa;" horiz-adv-x="565" d="M553 868q-35 -35 -61 -48t-60 -13q-41 0 -62 20.5t-30 69.5q-100 -90 -186 -90q-63 0 -104.5 39t-41.5 100q0 67 45 105q42 36 86.5 57t182.5 72v61q0 41 -19.5 63.5t-54.5 22.5q-34 0 -63 -15t-29 -32q0 -9 4 -29l2 -16q0 -20 -19.5 -35.5t-44.5 -15.5q-28 0 -46.5 18.5 t-18.5 44.5q0 60 62.5 98.5t158.5 38.5q215 0 215 -196v-236q0 -45 5 -58t22 -13q27 0 57 24v-37zM324 971v157q-108 -38 -147.5 -66.5t-39.5 -68.5q0 -37 23 -63.5t55 -26.5q36 0 86 23q23 20 23 45zM553 715h-545v57h545v-57z" />
<glyph unicode="&#xab;" d="M569 86q0 -18 -20 -18q-11 0 -21 12q-138 135 -348 319l-63 56l63 55q188 161 348 319q10 13 21 13q9 0 14.5 -5.5t5.5 -13.5q0 -21 -65.5 -118.5t-175.5 -229.5l-21 -24l21 -25q111 -132 176 -225.5t65 -114.5zM958 86q0 -18 -20 -18q-10 0 -20 12q-130 127 -349 319 l-63 56l63 55q196 168 349 319q10 13 20 13q9 0 14.5 -5.5t5.5 -13.5q0 -21 -65.5 -118.5t-175.5 -229.5l-21 -24l21 -25q111 -132 176 -225.5t65 -114.5z" />
<glyph unicode="&#xac;" horiz-adv-x="1155" d="M1073 750v-408h-135v272h-856v136h991z" />
<glyph unicode="&#xad;" horiz-adv-x="681" d="M584 397h-504v129h504v-129z" />
<glyph unicode="&#xae;" horiz-adv-x="1556" d="M1495 688q0 -145 -57 -278t-153 -229t-229 -153t-278 -57t-278 57t-229 153t-153 229t-57 278t57 278t153 229t229 153t278 57t278 -57t229 -153t153 -229t57 -278zM1417 688q0 130 -50.5 248t-136.5 204t-204 136.5t-248 50.5t-248 -50.5t-204 -136.5t-136.5 -204 t-50.5 -248t50.5 -248t136.5 -204t204 -136.5t248 -50.5t248 50.5t204 136.5t136.5 204t50.5 248zM1194 297h-215l-307 360l-58 -2v-227q0 -60 19.5 -79t89.5 -23v-29h-361v29q69 4 86 24t17 90v508q0 61 -17 79t-86 24v28h359q94 0 171 -21.5t114 -58.5q51 -51 51 -129 q0 -88 -68 -137q-30 -23 -65 -36t-99 -25l262 -293q28 -28 50 -39t57 -14v-29zM899 872q0 80 -55 118t-172 38q-34 0 -46 -7.5t-12 -29.5v-284q89 2 131 8.5t82 27.5q34 17 53 51.5t19 77.5z" />
<glyph unicode="&#xaf;" horiz-adv-x="681" d="M659 1153h-636v111h636v-111z" />
<glyph unicode="&#xb0;" horiz-adv-x="819" d="M702 1090q0 -123 -85.5 -207t-210.5 -84q-120 0 -204.5 85.5t-84.5 207.5q0 123 85 207.5t208 84.5t207.5 -85t84.5 -209zM623 1092q0 91 -63.5 157t-149.5 66q-88 0 -150.5 -66t-62.5 -157t62.5 -157.5t148.5 -66.5q89 0 152 66t63 158z" />
<glyph unicode="&#xb1;" horiz-adv-x="1155" d="M1073 580h-428v-324h-135v324h-428v135h428v428h135v-428h428v-135zM1073 0h-991v135h991v-135z" />
<glyph unicode="&#xb2;" horiz-adv-x="614" d="M606 727l-76 -174h-518v47l201 219q76 83 121 159t45 122q0 64 -44 109.5t-106 45.5q-57 0 -99.5 -34.5t-76.5 -108.5l-51 29q25 72 44.5 107.5t51.5 64.5q71 71 201 71q120 0 194 -60t74 -157q0 -75 -39 -145t-133 -162l-176 -174h248q41 0 61 10.5t43 44.5z" />
<glyph unicode="&#xb3;" horiz-adv-x="614" d="M596 815q0 -120 -113 -199t-284 -79q-80 0 -125 26.5t-45 75.5q0 32 20 54t51 22q32 0 84 -39q33 -24 55 -32.5t52 -8.5q63 0 101 38t38 101q0 99 -84 146q-25 14 -57.5 22.5t-50.5 5.5l-48 -6v59q106 37 150.5 75t44.5 93q0 47 -31.5 74t-87.5 27q-52 0 -89 -25.5 t-83 -91.5l-51 37q54 104 118 149t158 45q92 0 157 -49.5t65 -120.5q0 -43 -28.5 -81.5t-94.5 -85.5q178 -70 178 -232z" />
<glyph unicode="&#xb4;" horiz-adv-x="681" d="M649 1317q0 -48 -61 -86l-316 -199h-82l302 303q28 28 45.5 37.5t40.5 9.5q34 0 52.5 -17t18.5 -48z" />
<glyph unicode="&#xb5;" d="M1049 96q-51 -66 -92.5 -91t-100.5 -25q-74 0 -110 44t-39 140q-61 -96 -128.5 -140t-152.5 -44q-78 0 -135.5 36.5t-104.5 114.5q9 -86 39 -199q37 -145 37 -221q0 -157 -94 -157q-44 0 -69 38t-25 105q0 71 24 215q25 154 25 199v811h180v-627q0 -88 46 -138.5 t126 -50.5q149 0 225 130v686h181v-734q0 -71 15 -102t50 -31q23 0 44.5 12t58.5 46v-17z" />
<glyph unicode="&#xb6;" horiz-adv-x="927" d="M922 -315h-316v1626h-119v-1626h-315v45q64 4 96.5 11.5t53 32t25.5 59.5t5 104v622q-96 3 -149 18t-105 52q-143 98 -143 348q0 200 101 289.5t327 89.5h539v-39q-63 -6 -95.5 -13.5t-53.5 -29t-26.5 -52t-5.5 -89.5v-1219q0 -109 32 -142t149 -42v-45zM352 604v707 q-102 -7 -153 -45q-88 -64 -88 -281q0 -194 54.5 -281t186.5 -100z" />
<glyph unicode="&#xb7;" horiz-adv-x="512" d="M371 512q0 -47 -34 -81t-81 -34t-81 34t-34 81t34 81t81 34t81 -34t34 -81z" />
<glyph unicode="&#xb8;" horiz-adv-x="681" d="M535 -268q0 -80 -69 -126t-187 -46q-97 0 -173 32l29 64q79 -25 133 -25q52 0 82.5 24.5t30.5 65.5q0 40 -25 57t-84 17q-36 0 -57 -8l-14 10l84 213h71l-51 -143q30 6 53 6q83 0 130 -37.5t47 -103.5z" />
<glyph unicode="&#xb9;" horiz-adv-x="614" d="M508 553h-391v49q66 4 87 17.5t21 48.5v526q0 33 -3.5 45t-12.5 12q-15 0 -88 -26v47l241 112l29 -6v-702q0 -40 23.5 -55t93.5 -19v-49z" />
<glyph unicode="&#xba;" horiz-adv-x="634" d="M623 1110q0 -129 -90 -216t-224 -87q-129 0 -213 81t-84 204q0 130 87 211t227 81q131 0 214 -76.5t83 -197.5zM473 1053q0 116 -46.5 190t-119.5 74q-66 0 -105.5 -41.5t-39.5 -110.5q0 -130 51 -221q39 -70 115 -70q70 0 107.5 46.5t37.5 132.5zM623 715h-611v57h611 v-57z" />
<glyph unicode="&#xbb;" d="M545 455l-64 -56q-188 -161 -348 -319q-10 -12 -20 -12q-9 0 -15 5t-6 13q0 21 66 118t176 230l20 25l-20 24q-112 133 -177 226.5t-65 113.5q0 8 6 13.5t15 5.5q10 0 20 -13q138 -135 348 -319zM934 455l-64 -56q-188 -161 -348 -319q-10 -12 -20 -12q-9 0 -15 5t-6 13 q0 21 66 118t176 230l20 25l-20 24q-112 133 -177 226.5t-65 113.5q0 8 6 13.5t15 5.5q10 0 20 -13q138 -135 348 -319z" />
<glyph unicode="&#xbc;" horiz-adv-x="1536" d="M1470 184h-112v-184h-144v184h-368v101l416 544h96v-528h112v-117zM1214 301v367l-276 -367h276zM1305 1384l-922 -1413h-100l927 1413h95zM467 553h-391v49q66 4 87 17.5t21 48.5v526q0 33 -3.5 45t-12.5 12q-15 0 -88 -26v47l242 112l28 -6v-702q0 -40 23.5 -55 t93.5 -19v-49z" />
<glyph unicode="&#xbd;" horiz-adv-x="1536" d="M1229 1384l-922 -1413h-100l928 1413h94zM455 553h-392v49q66 4 87.5 17.5t21.5 48.5v526q0 33 -3.5 45t-12.5 12q-15 0 -88 -26v47l241 112l29 -6v-702q0 -40 23.5 -55t93.5 -19v-49zM1528 174l-76 -174h-518v47l201 219q76 83 120.5 159t44.5 122q0 64 -43.5 109.5 t-105.5 45.5q-57 0 -99.5 -34.5t-76.5 -108.5l-51 29q25 72 44.5 107.5t51.5 64.5q71 71 201 71q120 0 194 -60t74 -157q0 -75 -39 -145t-133 -162l-176 -174h248q41 0 61 10.5t43 44.5z" />
<glyph unicode="&#xbe;" horiz-adv-x="1536" d="M1470 184h-112v-184h-144v184h-368v101l416 544h96v-528h112v-117zM1214 301v367l-276 -367h276zM1305 1384l-922 -1413h-100l927 1413h95zM598 815q0 -120 -113 -199t-284 -79q-80 0 -125 26.5t-45 75.5q0 32 20 54t51 22q34 0 84 -39q33 -24 55 -32.5t52 -8.5 q63 0 101 38t38 101q0 99 -84 146q-25 14 -57.5 22.5t-50.5 5.5l-47 -6v59q107 37 151.5 75t44.5 93q0 46 -31.5 73.5t-83.5 27.5q-56 0 -93 -24.5t-87 -92.5l-51 37q55 104 120.5 149t160.5 45q92 0 156.5 -49.5t64.5 -120.5q0 -43 -29 -81.5t-96 -85.5q178 -70 178 -232z " />
<glyph unicode="&#xbf;" horiz-adv-x="909" d="M770 -166q0 -127 -95.5 -212t-236.5 -85q-83 0 -166 32.5t-137 86.5q-74 74 -74 199q0 63 21.5 123t71.5 135q30 44 122 157q57 72 87 142.5t47 173.5h34q-3 -143 -61 -291l-57 -131q-76 -175 -76 -320q0 -103 64.5 -174t156.5 -71q75 0 135 39t60 88q0 22 -35 63 q-43 49 -43 88q0 37 23.5 60.5t60.5 23.5q47 0 72.5 -33t25.5 -94zM532 834q0 -49 -31 -82t-77 -33q-44 0 -77.5 33.5t-33.5 78.5q0 46 32 76.5t81 30.5q46 0 76 -30t30 -74z" />
<glyph unicode="&#xc0;" horiz-adv-x="1478" d="M1446 0h-522v39q53 0 73.5 3.5t40.5 14.5q12 6 20.5 20.5t8.5 28.5q0 51 -39 140l-84 196h-536l-95 -239q-16 -43 -16 -80q0 -43 33 -63.5t106 -20.5v-39h-405v39q27 2 44 6t36.5 18t34 33.5t37 60.5t45 89.5t57.5 128.5l426 1005h41l510 -1163q54 -114 84.5 -144 t99.5 -34v-39zM915 526l-237 564l-236 -564h473zM911 1458h-88l-342 164q-65 26 -65 68q0 25 20.5 39t57.5 14q25 0 44 -8t50 -31z" />
<glyph unicode="&#xc1;" horiz-adv-x="1478" d="M1446 0h-522v39q53 0 73.5 3.5t40.5 14.5q12 6 20.5 20.5t8.5 28.5q0 51 -39 140l-84 196h-536l-95 -239q-16 -43 -16 -80q0 -43 33 -63.5t106 -20.5v-39h-405v39q27 2 44 6t36.5 18t34 33.5t37 60.5t45 89.5t57.5 128.5l426 1005h41l510 -1163q54 -114 84.5 -144 t99.5 -34v-39zM915 526l-237 564l-236 -564h473zM1049 1690q0 -42 -66 -68l-342 -164h-88l324 246q31 23 50 31t44 8q37 0 57.5 -14t20.5 -39z" />
<glyph unicode="&#xc2;" horiz-adv-x="1478" d="M1446 0h-522v39q53 0 73.5 3.5t40.5 14.5q12 6 20.5 20.5t8.5 28.5q0 51 -39 140l-84 196h-536l-95 -239q-16 -43 -16 -80q0 -43 33 -63.5t106 -20.5v-39h-405v39q27 2 44 6t36.5 18t34 33.5t37 60.5t45 89.5t57.5 128.5l426 1005h41l510 -1163q54 -114 84.5 -144 t99.5 -34v-39zM915 526l-237 564l-236 -564h473zM1087 1470h-98l-256 162l-256 -162h-98l274 265h158z" />
<glyph unicode="&#xc3;" horiz-adv-x="1478" d="M1446 0h-522v39q53 0 73.5 3.5t40.5 14.5q12 6 20.5 20.5t8.5 28.5q0 51 -39 140l-84 196h-536l-95 -239q-16 -43 -16 -80q0 -43 33 -63.5t106 -20.5v-39h-405v39q27 2 44 6t36.5 18t34 33.5t37 60.5t45 89.5t57.5 128.5l426 1005h41l510 -1163q54 -114 84.5 -144 t99.5 -34v-39zM915 526l-237 564l-236 -564h473zM1069 1710q-32 -117 -81.5 -167t-133.5 -50q-39 0 -71.5 9.5t-94.5 39.5l-47 23q-49 22 -84 22q-70 0 -104 -94h-60q23 100 77 153.5t130 53.5q73 0 143 -37l50 -25q65 -30 108 -30q36 0 59.5 22t49.5 80h59z" />
<glyph unicode="&#xc4;" horiz-adv-x="1478" d="M1446 0h-522v39q53 0 73.5 3.5t40.5 14.5q12 6 20.5 20.5t8.5 28.5q0 51 -39 140l-84 196h-536l-95 -239q-16 -43 -16 -80q0 -43 33 -63.5t106 -20.5v-39h-405v39q27 2 44 6t36.5 18t34 33.5t37 60.5t45 89.5t57.5 128.5l426 1005h41l510 -1163q54 -114 84.5 -144 t99.5 -34v-39zM915 526l-237 564l-236 -564h473zM631 1602q0 -41 -31 -71t-74 -30q-41 0 -69.5 30t-28.5 73q0 40 30 70t68 30q43 0 74 -30.5t31 -71.5zM1038 1602q0 -41 -30.5 -71t-73.5 -30q-41 0 -69.5 30t-28.5 73q0 40 30 70t68 30q43 0 73.5 -30.5t30.5 -71.5z" />
<glyph unicode="&#xc5;" horiz-adv-x="1478" d="M1446 0h-522v39q53 0 73.5 3.5t40.5 14.5q12 6 20.5 20.5t8.5 28.5q0 51 -39 140l-84 196h-536l-95 -239q-16 -43 -16 -80q0 -43 33 -63.5t106 -20.5v-39h-405v39q27 2 44 6t36.5 18t34 33.5t37 60.5t45 89.5t57.5 128.5l426 1005h41l510 -1163q54 -114 84.5 -144 t99.5 -34v-39zM915 526l-237 564l-236 -564h473zM936 1630q0 -85 -60 -144t-145 -59q-86 0 -144.5 59.5t-58.5 145.5q0 83 60 143t143 60q85 0 145 -60t60 -145zM866 1630q0 55 -39.5 95t-93.5 40q-56 0 -95.5 -39t-39.5 -94q0 -56 38.5 -95.5t92.5 -39.5q57 0 97 39t40 94z " />
<glyph unicode="&#xc6;" horiz-adv-x="1820" d="M1767 344l-90 -344h-1044v39l35 4q92 11 119.5 44t27.5 134v311h-360l-58 -108q-131 -256 -131 -324q0 -48 140 -61h2v-39h-408v39q66 9 97.5 37.5t82.5 122.5l502 991q18 34 18 57q0 34 -42 49.5t-142 18.5v41h1155v-289h-47q-7 50 -15.5 81t-27 57t-41.5 39.5t-65.5 23 t-93.5 12t-130 2.5h-178q-30 0 -42.5 -14t-12.5 -47v-471h227q187 0 234 61q27 42 37 137h43v-479h-43q-8 63 -16 92.5t-25 54.5q-42 58 -160 58h-297v-488q0 -29 1 -44t6.5 -29t12.5 -19.5t25.5 -10t38.5 -5t57 -0.5h156q115 0 179 20.5t113 74.5t111 171h49zM815 612v654 l-326 -654h326z" />
<glyph unicode="&#xc7;" horiz-adv-x="1366" d="M1296 231q-94 -124 -240 -192t-319 -68q-31 0 -49 2l-41 -106q30 6 53 6q84 0 130.5 -37t46.5 -104q0 -80 -69 -126t-187 -46q-96 0 -172 32l28 64q76 -25 133 -25q52 0 82.5 24.5t30.5 65.5q0 40 -25 57t-84 17q-36 0 -57 -8l-14 10l75 183q-257 37 -409 222t-152 464 q0 175 61.5 317.5t178.5 239.5q94 77 210 119t234 42q153 0 301 -49q50 -18 82 -18q30 0 52.5 17.5t31.5 49.5h43l19 -462h-47q-29 99 -57.5 152.5t-78.5 103.5q-125 125 -305 125q-223 0 -355 -166t-132 -445q0 -178 48.5 -312.5t139.5 -209.5q130 -109 320 -109 q127 0 235 49t222 158z" />
<glyph unicode="&#xc8;" horiz-adv-x="1251" d="M1223 346l-93 -346h-1105v39q112 7 145 41t33 143v910q0 109 -32 142t-146 42v39h1087l6 -293h-51q-9 49 -19 80.5t-26.5 57t-36.5 39.5t-54 23t-74 12t-101 3h-277q-41 0 -54 -13.5t-13 -56.5v-454h315q125 0 165 34t60 160h47v-475h-47q-20 128 -59.5 162.5 t-165.5 34.5h-315v-506q0 -55 16 -66q28 -22 199 -22h55q114 0 185 10.5t127.5 42t93.5 81.5t77 136h58zM758 1458h-88l-342 164q-66 26 -66 68q0 25 20.5 39t57.5 14q25 0 44 -8t50 -31z" />
<glyph unicode="&#xc9;" horiz-adv-x="1251" d="M1223 346l-93 -346h-1105v39q112 7 145 41t33 143v910q0 109 -32 142t-146 42v39h1087l6 -293h-51q-9 49 -19 80.5t-26.5 57t-36.5 39.5t-54 23t-74 12t-101 3h-277q-41 0 -54 -13.5t-13 -56.5v-454h315q125 0 165 34t60 160h47v-475h-47q-20 128 -59.5 162.5 t-165.5 34.5h-315v-506q0 -55 16 -66q28 -22 199 -22h55q114 0 185 10.5t127.5 42t93.5 81.5t77 136h58zM895 1690q0 -42 -66 -68l-342 -164h-88l324 246q31 23 50 31t44 8q37 0 57.5 -14t20.5 -39z" />
<glyph unicode="&#xca;" horiz-adv-x="1251" d="M1223 346l-93 -346h-1105v39q112 7 145 41t33 143v910q0 109 -32 142t-146 42v39h1087l6 -293h-51q-9 49 -19 80.5t-26.5 57t-36.5 39.5t-54 23t-74 12t-101 3h-277q-41 0 -54 -13.5t-13 -56.5v-454h315q125 0 165 34t60 160h47v-475h-47q-20 128 -59.5 162.5 t-165.5 34.5h-315v-506q0 -55 16 -66q28 -22 199 -22h55q114 0 185 10.5t127.5 42t93.5 81.5t77 136h58zM934 1470h-98l-256 162l-256 -162h-99l275 265h157z" />
<glyph unicode="&#xcb;" horiz-adv-x="1251" d="M1223 346l-93 -346h-1105v39q112 7 145 41t33 143v910q0 109 -32 142t-146 42v39h1087l6 -293h-51q-9 49 -19 80.5t-26.5 57t-36.5 39.5t-54 23t-74 12t-101 3h-277q-41 0 -54 -13.5t-13 -56.5v-454h315q125 0 165 34t60 160h47v-475h-47q-20 128 -59.5 162.5 t-165.5 34.5h-315v-506q0 -55 16 -66q28 -22 199 -22h55q114 0 185 10.5t127.5 42t93.5 81.5t77 136h58zM477 1602q0 -41 -30.5 -71t-73.5 -30q-41 0 -70 30t-29 73q0 40 30 70t69 30q43 0 73.5 -30.5t30.5 -71.5zM885 1602q0 -41 -31 -71t-74 -30q-41 0 -69.5 30t-28.5 73 q0 40 30 70t68 30q43 0 74 -30.5t31 -71.5z" />
<glyph unicode="&#xcc;" horiz-adv-x="681" d="M645 0h-608v39q69 2 104.5 9t59 28t29.5 53.5t6 93.5v910q0 40 -2.5 65.5t-11 47t-20.5 33t-36.5 20t-53 12t-75.5 6.5v39h608v-39q-68 -3 -104.5 -10.5t-60 -29t-30 -53.5t-6.5 -91v-910q0 -112 37 -145.5t164 -38.5v-39zM520 1458h-88l-342 164q-65 26 -65 68 q0 25 20 39t57 14q25 0 45 -8t50 -31z" />
<glyph unicode="&#xcd;" horiz-adv-x="681" d="M645 0h-608v39q69 2 104.5 9t59 28t29.5 53.5t6 93.5v910q0 40 -2.5 65.5t-11 47t-20.5 33t-36.5 20t-53 12t-75.5 6.5v39h608v-39q-68 -3 -104.5 -10.5t-60 -29t-30 -53.5t-6.5 -91v-910q0 -112 37 -145.5t164 -38.5v-39zM657 1690q0 -42 -65 -68l-342 -164h-88l323 246 q30 23 50 31t45 8q37 0 57 -14t20 -39z" />
<glyph unicode="&#xce;" horiz-adv-x="681" d="M645 0h-608v39q69 2 104.5 9t59 28t29.5 53.5t6 93.5v910q0 40 -2.5 65.5t-11 47t-20.5 33t-36.5 20t-53 12t-75.5 6.5v39h608v-39q-68 -3 -104.5 -10.5t-60 -29t-30 -53.5t-6.5 -91v-910q0 -112 37 -145.5t164 -38.5v-39zM696 1470h-98l-256 162l-256 -162h-98l274 265 h158z" />
<glyph unicode="&#xcf;" horiz-adv-x="681" d="M645 0h-608v39q69 2 104.5 9t59 28t29.5 53.5t6 93.5v910q0 40 -2.5 65.5t-11 47t-20.5 33t-36.5 20t-53 12t-75.5 6.5v39h608v-39q-68 -3 -104.5 -10.5t-60 -29t-30 -53.5t-6.5 -91v-910q0 -112 37 -145.5t164 -38.5v-39zM240 1602q0 -41 -31 -71t-74 -30 q-41 0 -69.5 30t-28.5 73q0 40 30 70t68 30q43 0 74 -30.5t31 -71.5zM647 1602q0 -41 -30.5 -71t-73.5 -30q-41 0 -70 30t-29 73q0 40 30 70t69 30q43 0 73.5 -30.5t30.5 -71.5z" />
<glyph unicode="&#xd0;" horiz-adv-x="1478" d="M1403 684q0 -149 -54.5 -280t-154.5 -222q-95 -86 -248 -134t-332 -48h-581v39q116 7 148 40t32 144v422h-170v90h170v398q0 41 -1.5 65.5t-9.5 46t-18 32.5t-32.5 19.5t-48.5 12.5t-70 8v39h553q431 0 643 -215q174 -174 174 -457zM1180 670q0 166 -62 295.5t-182 212.5 q-143 102 -412 102q-61 0 -81.5 -16t-20.5 -64v-465h299v-90h-299v-485q0 -49 22 -66.5t84 -17.5q254 0 402 84q250 145 250 510z" />
<glyph unicode="&#xd1;" horiz-adv-x="1478" d="M1448 1317q-96 -10 -135 -37q-60 -42 -60 -225v-1078h-34l-906 1127v-803q0 -155 37 -205.5t156 -56.5v-39h-481v39q54 4 86.5 12.5t56.5 24t35 46.5t15.5 71.5t4.5 107.5v903q-62 72 -97 92.5t-101 20.5v39h350l788 -991v690q0 187 -59 229q-45 26 -137 33v39h481v-39z M1075 1710q-32 -117 -81.5 -167t-133.5 -50q-39 0 -71.5 9.5t-94.5 39.5l-47 23q-49 22 -84 22q-70 0 -104 -94h-60q23 100 77 153.5t130 53.5q74 0 144 -37l49 -25q65 -30 108 -30q36 0 59.5 22t49.5 80h59z" />
<glyph unicode="&#xd2;" horiz-adv-x="1478" d="M1409 670q0 -204 -86 -363t-241.5 -247.5t-354.5 -88.5q-135 0 -263 56t-218 153q-83 89 -129.5 221t-46.5 277q0 152 50 283.5t137.5 224.5t212 145.5t269.5 52.5q301 0 498 -215q172 -187 172 -499zM1176 672q0 182 -45.5 321.5t-129.5 214.5q-115 103 -262 103 q-172 0 -293 -133q-65 -72 -104 -210t-39 -294q0 -170 47.5 -314.5t126.5 -214.5q114 -100 258 -100q164 0 273 109q73 73 100 149q68 176 68 369zM920 1458h-89l-342 164q-65 26 -65 68q0 25 20.5 39t57.5 14q25 0 44 -8t50 -31z" />
<glyph unicode="&#xd3;" horiz-adv-x="1478" d="M1409 670q0 -204 -86 -363t-241.5 -247.5t-354.5 -88.5q-135 0 -263 56t-218 153q-83 89 -129.5 221t-46.5 277q0 152 50 283.5t137.5 224.5t212 145.5t269.5 52.5q301 0 498 -215q172 -187 172 -499zM1176 672q0 182 -45.5 321.5t-129.5 214.5q-115 103 -262 103 q-172 0 -293 -133q-65 -72 -104 -210t-39 -294q0 -170 47.5 -314.5t126.5 -214.5q114 -100 258 -100q164 0 273 109q73 73 100 149q68 176 68 369zM1057 1690q0 -42 -66 -68l-342 -164h-88l324 246q31 23 50 31t44 8q37 0 57.5 -14t20.5 -39z" />
<glyph unicode="&#xd4;" horiz-adv-x="1478" d="M1409 670q0 -204 -86 -363t-241.5 -247.5t-354.5 -88.5q-135 0 -263 56t-218 153q-83 89 -129.5 221t-46.5 277q0 152 50 283.5t137.5 224.5t212 145.5t269.5 52.5q301 0 498 -215q172 -187 172 -499zM1176 672q0 182 -45.5 321.5t-129.5 214.5q-115 103 -262 103 q-172 0 -293 -133q-65 -72 -104 -210t-39 -294q0 -170 47.5 -314.5t126.5 -214.5q114 -100 258 -100q164 0 273 109q73 73 100 149q68 176 68 369zM1096 1470h-99l-256 162l-256 -162h-98l275 265h157z" />
<glyph unicode="&#xd5;" horiz-adv-x="1478" d="M1409 670q0 -204 -86 -363t-241.5 -247.5t-354.5 -88.5q-135 0 -263 56t-218 153q-83 89 -129.5 221t-46.5 277q0 152 50 283.5t137.5 224.5t212 145.5t269.5 52.5q301 0 498 -215q172 -187 172 -499zM1176 672q0 182 -45.5 321.5t-129.5 214.5q-115 103 -262 103 q-172 0 -293 -133q-65 -72 -104 -210t-39 -294q0 -170 47.5 -314.5t126.5 -214.5q114 -100 258 -100q164 0 273 109q73 73 100 149q68 176 68 369zM1077 1710q-32 -117 -81.5 -167t-133.5 -50q-39 0 -71.5 9.5t-94.5 39.5l-47 23q-49 22 -84 22q-70 0 -104 -94h-60 q23 100 77 153.5t130 53.5q74 0 144 -37l49 -25q65 -30 108 -30q36 0 59.5 22t49.5 80h59z" />
<glyph unicode="&#xd6;" horiz-adv-x="1478" d="M1409 670q0 -204 -86 -363t-241.5 -247.5t-354.5 -88.5q-135 0 -263 56t-218 153q-83 89 -129.5 221t-46.5 277q0 152 50 283.5t137.5 224.5t212 145.5t269.5 52.5q301 0 498 -215q172 -187 172 -499zM1176 672q0 182 -45.5 321.5t-129.5 214.5q-115 103 -262 103 q-172 0 -293 -133q-65 -72 -104 -210t-39 -294q0 -170 47.5 -314.5t126.5 -214.5q114 -100 258 -100q164 0 273 109q73 73 100 149q68 176 68 369zM639 1602q0 -41 -30.5 -71t-73.5 -30q-41 0 -70 30t-29 73q0 40 30 70t69 30q43 0 73.5 -30.5t30.5 -71.5zM1047 1602 q0 -41 -31 -71t-74 -30q-41 0 -69.5 30t-28.5 73q0 40 30 70t68 30q43 0 74 -30.5t31 -71.5z" />
<glyph unicode="&#xd7;" horiz-adv-x="1155" d="M975 209l-94 -94l-303 301l-304 -301l-94 94l301 303l-301 303l94 94l304 -301l303 301l94 -94l-301 -303z" />
<glyph unicode="&#xd8;" horiz-adv-x="1478" d="M1409 678q0 -206 -85 -367t-239 -250.5t-350 -89.5q-103 0 -183 23t-175 80l-162 -238h-100l194 285q-64 58 -95.5 97t-59.5 93q-84 162 -84 365q0 205 85.5 367t238.5 251.5t347 89.5q101 0 181 -22t178 -78l147 219h101l-181 -266q65 -60 97 -98.5t59 -91.5 q86 -159 86 -369zM1176 676q0 136 -22 233t-75 197l-630 -926q66 -72 133.5 -103.5t156.5 -31.5q203 0 320 169t117 462zM1028 1178q-67 70 -135.5 101.5t-153.5 31.5q-201 0 -318.5 -171t-117.5 -464q0 -136 21 -231t73 -193z" />
<glyph unicode="&#xd9;" horiz-adv-x="1478" d="M1444 1317q-45 -5 -73 -11.5t-51.5 -19.5t-35.5 -29t-20 -46t-10.5 -65t-2.5 -91v-535q0 -119 -15 -196.5t-52 -141.5q-121 -211 -457 -211q-261 0 -387.5 128.5t-126.5 394.5v639q0 113 -31 144t-153 40v39h579v-39q-123 -10 -154.5 -41.5t-31.5 -142.5v-656 q0 -179 51 -270q84 -146 301 -146q115 0 207 44t133 118q47 87 47 279v553q0 154 -36 203.5t-156 58.5v39h475v-39zM971 1458h-88l-342 164q-66 26 -66 68q0 25 20.5 39t57.5 14q25 0 44 -8t50 -31z" />
<glyph unicode="&#xda;" horiz-adv-x="1478" d="M1444 1317q-45 -5 -73 -11.5t-51.5 -19.5t-35.5 -29t-20 -46t-10.5 -65t-2.5 -91v-535q0 -119 -15 -196.5t-52 -141.5q-121 -211 -457 -211q-261 0 -387.5 128.5t-126.5 394.5v639q0 113 -31 144t-153 40v39h579v-39q-123 -10 -154.5 -41.5t-31.5 -142.5v-656 q0 -179 51 -270q84 -146 301 -146q115 0 207 44t133 118q47 87 47 279v553q0 154 -36 203.5t-156 58.5v39h475v-39zM1108 1690q0 -42 -66 -68l-342 -164h-88l324 246q31 23 50 31t44 8q37 0 57.5 -14t20.5 -39z" />
<glyph unicode="&#xdb;" horiz-adv-x="1478" d="M1444 1317q-45 -5 -73 -11.5t-51.5 -19.5t-35.5 -29t-20 -46t-10.5 -65t-2.5 -91v-535q0 -119 -15 -196.5t-52 -141.5q-121 -211 -457 -211q-261 0 -387.5 128.5t-126.5 394.5v639q0 113 -31 144t-153 40v39h579v-39q-123 -10 -154.5 -41.5t-31.5 -142.5v-656 q0 -179 51 -270q84 -146 301 -146q115 0 207 44t133 118q47 87 47 279v553q0 154 -36 203.5t-156 58.5v39h475v-39zM1147 1470h-98l-256 162l-256 -162h-99l275 265h157z" />
<glyph unicode="&#xdc;" horiz-adv-x="1478" d="M1444 1317q-45 -5 -73 -11.5t-51.5 -19.5t-35.5 -29t-20 -46t-10.5 -65t-2.5 -91v-535q0 -119 -15 -196.5t-52 -141.5q-121 -211 -457 -211q-261 0 -387.5 128.5t-126.5 394.5v639q0 113 -31 144t-153 40v39h579v-39q-123 -10 -154.5 -41.5t-31.5 -142.5v-656 q0 -179 51 -270q84 -146 301 -146q115 0 207 44t133 118q47 87 47 279v553q0 154 -36 203.5t-156 58.5v39h475v-39zM690 1602q0 -41 -30.5 -71t-73.5 -30q-41 0 -70 30t-29 73q0 40 30.5 70t68.5 30q43 0 73.5 -30.5t30.5 -71.5zM1098 1602q0 -41 -31 -71t-74 -30 q-41 0 -69.5 30t-28.5 73q0 40 30 70t68 30q43 0 74 -30.5t31 -71.5z" />
<glyph unicode="&#xdd;" horiz-adv-x="1478" d="M1440 1317q-78 -6 -133.5 -52t-149.5 -182l-303 -462v-398q0 -117 37 -149t174 -35v-39h-627v39q50 2 80 5.5t56 12.5t38 21t20.5 37t10.5 54t2 77v356l-268 393q-84 118 -125.5 173t-80 93t-62.5 46t-64 10v39h573v-39q-23 -2 -51 -2q-94 -6 -94 -60q0 -40 35 -90 l303 -454l293 463q29 50 29 75q0 37 -31 51.5t-111 16.5v39h449v-39zM1067 1690q0 -42 -66 -68l-342 -164h-88l324 246q31 23 50 31t44 8q37 0 57.5 -14t20.5 -39z" />
<glyph unicode="&#xde;" horiz-adv-x="1138" d="M1110 719q0 -101 -53 -188.5t-144 -137.5q-124 -69 -358 -69q-59 0 -141 6v-107q0 -59 6.5 -91.5t29 -54t57.5 -29t99 -9.5v-39h-573v39q63 6 93.5 13.5t50.5 31.5t24 58t4 104v887q0 110 -29 141t-143 43v39h567v-39q-67 -6 -101 -14.5t-55 -35t-26 -64.5t-4 -113h164 q246 0 389 -100t143 -271zM887 707q0 158 -98 231.5t-310 73.5q-38 0 -51.5 -14t-13.5 -54v-532q71 -6 116 -6q357 0 357 301z" />
<glyph unicode="&#xdf;" d="M958 381q0 -167 -106 -283t-260 -116q-88 0 -143.5 41.5t-55.5 107.5q0 42 26 70t66 28q34 0 58.5 -23.5t27.5 -58.5l4 -45q3 -33 17 -47t43 -14q131 0 131 266q0 415 -270 424q-66 3 -66 35q0 26 59 31q100 10 147.5 74.5t47.5 187.5q0 134 -49 209t-137 75 q-80 0 -128 -59.5t-48 -159.5v-1124h-297v31q77 6 101 33t24 108v758q0 203 61 311q90 158 303 158q159 0 253.5 -85t94.5 -227q0 -110 -58 -175t-222 -140q96 -19 148 -40.5t101 -63.5q127 -108 127 -287z" />
<glyph unicode="&#xe0;" horiz-adv-x="909" d="M905 82q-54 -59 -93 -80.5t-91 -21.5q-63 0 -93.5 34t-37.5 115q-94 -80 -163 -114.5t-136 -34.5q-95 0 -155 61t-60 158q0 51 20 99t54 79q65 58 131.5 91t306.5 130v125q0 83 -40.5 126.5t-115.5 43.5q-61 0 -104 -29.5t-43 -70.5q0 -23 6 -50q4 -28 4 -32 q0 -34 -27.5 -60t-64.5 -26q-36 0 -62 26t-26 62q0 38 23 79.5t61 73.5q43 35 112.5 55.5t147.5 20.5q190 0 256 -119q39 -63 39 -209v-399q0 -68 13 -93.5t48 -25.5q43 0 90 39v-53zM588 252v297q-185 -67 -258.5 -130.5t-73.5 -154.5v-8q0 -66 37.5 -112t91.5 -46 q74 0 150 45q32 20 42.5 41t10.5 68zM610 1032h-82l-315 199q-61 38 -61 86q0 31 18.5 48t52.5 17q23 0 40.5 -9.5t45.5 -37.5z" />
<glyph unicode="&#xe1;" horiz-adv-x="909" d="M905 82q-54 -59 -93 -80.5t-91 -21.5q-63 0 -93.5 34t-37.5 115q-94 -80 -163 -114.5t-136 -34.5q-95 0 -155 61t-60 158q0 51 20 99t54 79q65 58 131.5 91t306.5 130v125q0 83 -40.5 126.5t-115.5 43.5q-61 0 -104 -29.5t-43 -70.5q0 -23 6 -50q4 -28 4 -32 q0 -34 -27.5 -60t-64.5 -26q-36 0 -62 26t-26 62q0 38 23 79.5t61 73.5q43 35 112.5 55.5t147.5 20.5q190 0 256 -119q39 -63 39 -209v-399q0 -68 13 -93.5t48 -25.5q43 0 90 39v-53zM588 252v297q-185 -67 -258.5 -130.5t-73.5 -154.5v-8q0 -66 37.5 -112t91.5 -46 q74 0 150 45q32 20 42.5 41t10.5 68zM768 1317q0 -48 -61 -86l-316 -199h-82l301 303q28 28 45.5 37.5t40.5 9.5q34 0 53 -17t19 -48z" />
<glyph unicode="&#xe2;" horiz-adv-x="909" d="M905 82q-54 -59 -93 -80.5t-91 -21.5q-63 0 -93.5 34t-37.5 115q-94 -80 -163 -114.5t-136 -34.5q-95 0 -155 61t-60 158q0 51 20 99t54 79q65 58 131.5 91t306.5 130v125q0 83 -40.5 126.5t-115.5 43.5q-61 0 -104 -29.5t-43 -70.5q0 -23 6 -50q4 -28 4 -32 q0 -34 -27.5 -60t-64.5 -26q-36 0 -62 26t-26 62q0 38 23 79.5t61 73.5q43 35 112.5 55.5t147.5 20.5q190 0 256 -119q39 -63 39 -209v-399q0 -68 13 -93.5t48 -25.5q43 0 90 39v-53zM588 252v297q-185 -67 -258.5 -130.5t-73.5 -154.5v-8q0 -66 37.5 -112t91.5 -46 q74 0 150 45q32 20 42.5 41t10.5 68zM778 1038h-69l-250 211l-248 -211h-70l254 342h127z" />
<glyph unicode="&#xe3;" horiz-adv-x="909" d="M905 82q-54 -59 -93 -80.5t-91 -21.5q-63 0 -93.5 34t-37.5 115q-94 -80 -163 -114.5t-136 -34.5q-95 0 -155 61t-60 158q0 51 20 99t54 79q65 58 131.5 91t306.5 130v125q0 83 -40.5 126.5t-115.5 43.5q-61 0 -104 -29.5t-43 -70.5q0 -23 6 -50q4 -28 4 -32 q0 -34 -27.5 -60t-64.5 -26q-36 0 -62 26t-26 62q0 38 23 79.5t61 73.5q43 35 112.5 55.5t147.5 20.5q190 0 256 -119q39 -63 39 -209v-399q0 -68 13 -93.5t48 -25.5q43 0 90 39v-53zM588 252v297q-185 -67 -258.5 -130.5t-73.5 -154.5v-8q0 -66 37.5 -112t91.5 -46 q74 0 150 45q32 20 42.5 41t10.5 68zM797 1317q-32 -117 -81.5 -167t-133.5 -50q-39 0 -71.5 9.5t-94.5 39.5l-47 22q-51 23 -84 23q-71 0 -105 -94h-59q23 100 77 153.5t130 53.5q73 0 143 -37l49 -25q67 -31 109 -31q35 0 58.5 22t49.5 81h60z" />
<glyph unicode="&#xe4;" horiz-adv-x="909" d="M905 82q-54 -59 -93 -80.5t-91 -21.5q-63 0 -93.5 34t-37.5 115q-94 -80 -163 -114.5t-136 -34.5q-95 0 -155 61t-60 158q0 51 20 99t54 79q65 58 131.5 91t306.5 130v125q0 83 -40.5 126.5t-115.5 43.5q-61 0 -104 -29.5t-43 -70.5q0 -23 6 -50q4 -28 4 -32 q0 -34 -27.5 -60t-64.5 -26q-36 0 -62 26t-26 62q0 38 23 79.5t61 73.5q43 35 112.5 55.5t147.5 20.5q190 0 256 -119q39 -63 39 -209v-399q0 -68 13 -93.5t48 -25.5q43 0 90 39v-53zM588 252v297q-185 -67 -258.5 -130.5t-73.5 -154.5v-8q0 -66 37.5 -112t91.5 -46 q74 0 150 45q32 20 42.5 41t10.5 68zM358 1208q0 -41 -30.5 -70.5t-73.5 -29.5q-41 0 -69.5 29.5t-28.5 72.5q0 40 30 70.5t68 30.5q42 0 73 -30.5t31 -72.5zM766 1208q0 -41 -30.5 -70.5t-73.5 -29.5q-41 0 -70 29.5t-29 72.5q0 40 30.5 70.5t68.5 30.5q42 0 73 -30.5 t31 -72.5z" />
<glyph unicode="&#xe5;" horiz-adv-x="909" d="M905 82q-54 -59 -93 -80.5t-91 -21.5q-63 0 -93.5 34t-37.5 115q-94 -80 -163 -114.5t-136 -34.5q-95 0 -155 61t-60 158q0 51 20 99t54 79q65 58 131.5 91t306.5 130v125q0 83 -40.5 126.5t-115.5 43.5q-61 0 -104 -29.5t-43 -70.5q0 -23 6 -50q4 -28 4 -32 q0 -34 -27.5 -60t-64.5 -26q-36 0 -62 26t-26 62q0 38 23 79.5t61 73.5q43 35 112.5 55.5t147.5 20.5q190 0 256 -119q39 -63 39 -209v-399q0 -68 13 -93.5t48 -25.5q43 0 90 39v-53zM588 252v297q-185 -67 -258.5 -130.5t-73.5 -154.5v-8q0 -66 37.5 -112t91.5 -46 q74 0 150 45q32 20 42.5 41t10.5 68zM664 1208q0 -84 -60 -143t-145 -59q-86 0 -144.5 59t-58.5 145q0 83 60 143t143 60q85 0 145 -60t60 -145zM594 1208q0 55 -39.5 95t-93.5 40q-56 0 -95.5 -39t-39.5 -94q0 -56 38.5 -95.5t92.5 -39.5q57 0 97 39t40 94z" />
<glyph unicode="&#xe6;" horiz-adv-x="1366" d="M1294 305q-41 -89 -74 -139.5t-75 -87.5q-110 -98 -254 -98q-88 0 -150 35t-114 114q-104 -86 -170 -117.5t-142 -31.5q-104 0 -170.5 62.5t-66.5 162.5q0 92 70.5 161t234.5 136l176 73l4 130q2 36 -5 77t-19 64q-23 47 -103 47q-64 0 -105.5 -30.5t-33.5 -71.5l2 -13 v-22l2 -35q2 -45 -22 -71.5t-66 -26.5q-41 0 -65.5 27t-24.5 71q0 95 94 158t234 63q75 0 127.5 -20.5t111.5 -71.5q69 53 121.5 72.5t122.5 19.5q155 0 233 -88.5t95 -286.5h-537q2 -153 12.5 -220.5t42.5 -127.5q26 -46 79 -74t116 -28q87 0 154 45t141 153zM602 180l-2 6 q-39 110 -39 226v106q-186 -67 -245.5 -118.5t-59.5 -143.5q0 -74 40 -126t97 -52t133 37t76 65zM1067 629q-3 134 -41 194t-121 60q-88 0 -129 -59.5t-49 -194.5h340z" />
<glyph unicode="&#xe7;" horiz-adv-x="909" d="M844 301q-80 -161 -168.5 -236t-212.5 -85l-43 -113q30 6 53 6q83 0 129.5 -37t46.5 -104q0 -80 -69 -126t-187 -46q-96 0 -172 32l29 64q76 -25 133 -25q52 0 82.5 24.5t30.5 65.5q0 40 -25 57t-84 17q-36 0 -57 -8l-15 10l78 187q-155 20 -248.5 143.5t-93.5 306.5 q0 264 172 404q125 104 277 104q129 0 222 -62.5t93 -148.5q0 -35 -28 -60.5t-68 -25.5q-34 0 -60 25t-38 69l-13 45q-15 57 -40.5 78t-80.5 21q-124 0 -201 -98.5t-77 -258.5q0 -177 88 -288t229 -111q88 0 152 42.5t137 149.5z" />
<glyph unicode="&#xe8;" horiz-adv-x="909" d="M868 322q-65 -166 -176 -254t-258 -88q-177 0 -280 123t-103 335q0 224 119 364t309 140q79 0 147.5 -30.5t114.5 -86.5q39 -50 57.5 -104.5t30.5 -153.5h-630q3 -98 16.5 -160t44.5 -122q87 -164 258 -164q99 0 172 49t146 166zM621 633q-20 133 -63.5 184t-137.5 51 t-147 -57t-70 -178h418zM631 1032h-82l-316 199q-61 38 -61 86q0 31 19 48t53 17q23 0 40.5 -9.5t45.5 -37.5z" />
<glyph unicode="&#xe9;" horiz-adv-x="909" d="M868 322q-65 -166 -176 -254t-258 -88q-177 0 -280 123t-103 335q0 224 119 364t309 140q79 0 147.5 -30.5t114.5 -86.5q39 -50 57.5 -104.5t30.5 -153.5h-630q3 -98 16.5 -160t44.5 -122q87 -164 258 -164q99 0 172 49t146 166zM621 633q-20 133 -63.5 184t-137.5 51 t-147 -57t-70 -178h418zM788 1317q0 -48 -61 -86l-315 -199h-82l301 303q28 28 45.5 37.5t40.5 9.5q34 0 52.5 -17t18.5 -48z" />
<glyph unicode="&#xea;" horiz-adv-x="909" d="M868 322q-65 -166 -176 -254t-258 -88q-177 0 -280 123t-103 335q0 224 119 364t309 140q79 0 147.5 -30.5t114.5 -86.5q39 -50 57.5 -104.5t30.5 -153.5h-630q3 -98 16.5 -160t44.5 -122q87 -164 258 -164q99 0 172 49t146 166zM621 633q-20 133 -63.5 184t-137.5 51 t-147 -57t-70 -178h418zM799 1038h-70l-250 211l-248 -211h-69l254 342h127z" />
<glyph unicode="&#xeb;" horiz-adv-x="909" d="M868 322q-65 -166 -176 -254t-258 -88q-177 0 -280 123t-103 335q0 224 119 364t309 140q79 0 147.5 -30.5t114.5 -86.5q39 -50 57.5 -104.5t30.5 -153.5h-630q3 -98 16.5 -160t44.5 -122q87 -164 258 -164q99 0 172 49t146 166zM621 633q-20 133 -63.5 184t-137.5 51 t-147 -57t-70 -178h418zM379 1208q0 -41 -31 -70.5t-74 -29.5q-41 0 -69.5 29.5t-28.5 72.5q0 40 30 70.5t68 30.5q43 0 74 -31t31 -72zM786 1208q0 -41 -30.5 -70.5t-73.5 -29.5q-41 0 -69.5 29.5t-28.5 72.5q0 40 30 70.5t68 30.5q42 0 73 -30.5t31 -72.5z" />
<glyph unicode="&#xec;" horiz-adv-x="569" d="M518 0h-485v31q106 6 134 37t28 141v475q0 67 -15.5 95t-52.5 28q-33 0 -70 -6l-16 -2v30l317 113l9 -6v-727q0 -111 25 -141t126 -37v-31zM432 1032h-82l-315 199q-62 39 -62 86q0 31 19 48t53 17q23 0 40.5 -9.5t45.5 -37.5z" />
<glyph unicode="&#xed;" horiz-adv-x="569" d="M518 0h-485v31q106 6 134 37t28 141v475q0 67 -15.5 95t-52.5 28q-33 0 -70 -6l-16 -2v30l317 113l9 -6v-727q0 -111 25 -141t126 -37v-31zM590 1317q0 -47 -62 -86l-315 -199h-82l301 303q28 28 45.5 37.5t40.5 9.5q34 0 53 -17t19 -48z" />
<glyph unicode="&#xee;" horiz-adv-x="569" d="M518 0h-485v31q106 6 134 37t28 141v475q0 67 -15.5 95t-52.5 28q-33 0 -70 -6l-16 -2v30l317 113l9 -6v-727q0 -111 25 -141t126 -37v-31zM600 1038h-70l-249 211l-248 -211h-70l254 342h127z" />
<glyph unicode="&#xef;" horiz-adv-x="569" d="M518 0h-485v31q106 6 134 37t28 141v475q0 67 -15.5 95t-52.5 28q-33 0 -70 -6l-16 -2v30l317 113l9 -6v-727q0 -111 25 -141t126 -37v-31zM180 1208q0 -41 -30.5 -70.5t-73.5 -29.5q-41 0 -70 29.5t-29 72.5q0 40 30.5 70.5t68.5 30.5q42 0 73 -30.5t31 -72.5zM588 1208 q0 -41 -31 -70.5t-74 -29.5q-41 0 -69.5 29.5t-28.5 72.5q0 40 30 70.5t68 30.5q43 0 74 -31t31 -72z" />
<glyph unicode="&#xf0;" d="M965 584q0 -148 -49.5 -282.5t-133.5 -213.5q-114 -108 -276 -108q-191 0 -319 136.5t-128 340.5q0 206 125.5 345.5t309.5 139.5q73 0 126.5 -25.5t131.5 -97.5q-23 114 -65.5 190.5t-133.5 168.5l-252 -134l-68 62l248 131q-72 51 -132 76t-140 39l86 47 q101 -9 166.5 -29.5t144.5 -66.5l195 102l67 -62l-186 -98q77 -74 114.5 -122.5t71.5 -118.5q97 -199 97 -420zM780 412q0 209 -82 341t-213 132q-107 0 -174 -89t-67 -231q0 -223 90 -395q34 -63 87.5 -98t113.5 -35q117 0 181 98.5t64 276.5z" />
<glyph unicode="&#xf1;" d="M993 0h-426v31q77 6 103 40.5t26 131.5v428q0 198 -149 198q-51 0 -94.5 -23.5t-116.5 -92.5v-576q0 -55 28.5 -77.5t106.5 -28.5v-31h-434v31q78 6 102.5 35.5t24.5 117.5v508q0 75 -16.5 103t-59.5 28q-39 0 -55 -8v35q158 46 282 92l15 -4v-162q104 98 165 132t132 34 q114 0 177.5 -81t63.5 -226v-469q0 -75 25 -101t100 -34v-31zM854 1317q-32 -117 -81.5 -167t-133.5 -50q-39 0 -71.5 9.5t-94.5 39.5l-47 22q-51 23 -84 23q-70 0 -104 -94h-60q23 100 76.5 153.5t130.5 53.5q73 0 143 -37l50 -25q67 -31 108 -31q35 0 59 22.5t50 80.5h59z " />
<glyph unicode="&#xf2;" d="M963 479q0 -139 -59.5 -253.5t-164 -180t-231.5 -65.5q-193 0 -321 138t-128 345q0 212 126.5 345.5t326.5 133.5q196 0 323.5 -131t127.5 -332zM778 408q0 211 -82 344t-211 133q-109 0 -175 -88t-66 -234q0 -228 90 -395q32 -61 85 -96t113 -35q115 0 180.5 99 t65.5 272zM664 1032h-82l-316 199q-61 38 -61 86q0 31 18.5 48t52.5 17q23 0 40.5 -9.5t45.5 -37.5z" />
<glyph unicode="&#xf3;" d="M963 479q0 -139 -59.5 -253.5t-164 -180t-231.5 -65.5q-193 0 -321 138t-128 345q0 212 126.5 345.5t326.5 133.5q196 0 323.5 -131t127.5 -332zM778 408q0 211 -82 344t-211 133q-109 0 -175 -88t-66 -234q0 -228 90 -395q32 -61 85 -96t113 -35q115 0 180.5 99 t65.5 272zM821 1317q0 -48 -61 -86l-316 -199h-82l302 303q28 28 45.5 37.5t40.5 9.5q34 0 52.5 -17t18.5 -48z" />
<glyph unicode="&#xf4;" d="M963 479q0 -139 -59.5 -253.5t-164 -180t-231.5 -65.5q-193 0 -321 138t-128 345q0 212 126.5 345.5t326.5 133.5q196 0 323.5 -131t127.5 -332zM778 408q0 211 -82 344t-211 133q-109 0 -175 -88t-66 -234q0 -228 90 -395q32 -61 85 -96t113 -35q115 0 180.5 99 t65.5 272zM831 1038h-69l-250 211l-248 -211h-69l254 342h126z" />
<glyph unicode="&#xf5;" d="M963 479q0 -139 -59.5 -253.5t-164 -180t-231.5 -65.5q-193 0 -321 138t-128 345q0 212 126.5 345.5t326.5 133.5q196 0 323.5 -131t127.5 -332zM778 408q0 211 -82 344t-211 133q-109 0 -175 -88t-66 -234q0 -228 90 -395q32 -61 85 -96t113 -35q115 0 180.5 99 t65.5 272zM850 1317q-32 -117 -81.5 -167t-133.5 -50q-39 0 -71.5 9.5t-94.5 39.5l-47 22q-51 23 -84 23q-71 0 -105 -94h-59q23 100 76.5 153.5t130.5 53.5q73 0 143 -37l49 -25q67 -31 109 -31q35 0 59 22.5t50 80.5h59z" />
<glyph unicode="&#xf6;" d="M963 479q0 -139 -59.5 -253.5t-164 -180t-231.5 -65.5q-193 0 -321 138t-128 345q0 212 126.5 345.5t326.5 133.5q196 0 323.5 -131t127.5 -332zM778 408q0 211 -82 344t-211 133q-109 0 -175 -88t-66 -234q0 -228 90 -395q32 -61 85 -96t113 -35q115 0 180.5 99 t65.5 272zM412 1208q0 -41 -31 -70.5t-74 -29.5q-41 0 -69.5 29.5t-28.5 72.5q0 40 30 70.5t68 30.5q43 0 74 -31t31 -72zM819 1208q0 -41 -30.5 -70.5t-73.5 -29.5q-41 0 -70 29.5t-29 72.5q0 40 30.5 70.5t68.5 30.5q43 0 73.5 -30.5t30.5 -72.5z" />
<glyph unicode="&#xf7;" horiz-adv-x="1155" d="M1073 444h-991v136h991v-136zM692 852q0 -47 -33.5 -81t-80.5 -34t-81 34t-34 81q0 46 34 80.5t81 34.5t80.5 -34.5t33.5 -80.5zM692 174q0 -47 -33.5 -81t-80.5 -34t-81 34t-34 81q0 46 34 80.5t81 34.5t80.5 -34.5t33.5 -80.5z" />
<glyph unicode="&#xf8;" d="M963 479q0 -214 -131 -356.5t-326 -142.5q-97 0 -191 43l-133 -252h-76l150 286q-50 40 -76.5 69.5t-52.5 72.5q-68 123 -68 266q0 209 126.5 343t324.5 134q89 0 188 -37l117 223h80l-133 -256q49 -35 74 -58.5t49 -59.5q78 -124 78 -275zM778 416q0 98 -18.5 173.5 t-63.5 160.5l-329 -627q39 -46 77.5 -66t90.5 -20q115 0 179 100t64 279zM649 811q-41 40 -79 57t-85 17q-109 0 -175 -87.5t-66 -232.5q0 -207 80 -377z" />
<glyph unicode="&#xf9;" d="M981 74q-170 -47 -281 -92l-8 4v170l-88 -88q-41 -41 -97.5 -64.5t-113.5 -23.5q-113 0 -180.5 72.5t-67.5 193.5v516q0 71 -27 99t-100 32v29h299v-668q0 -64 43 -110t103 -46q98 0 184 74q35 25 35 104v482q0 76 -28.5 100t-123.5 29v35h324v-703q0 -71 23 -94t94 -23 h10v-28zM651 1032h-82l-315 199q-61 38 -61 86q0 31 18.5 48t52.5 17q23 0 40.5 -9.5t45.5 -37.5z" />
<glyph unicode="&#xfa;" d="M981 74q-170 -47 -281 -92l-8 4v170l-88 -88q-41 -41 -97.5 -64.5t-113.5 -23.5q-113 0 -180.5 72.5t-67.5 193.5v516q0 71 -27 99t-100 32v29h299v-668q0 -64 43 -110t103 -46q98 0 184 74q35 25 35 104v482q0 76 -28.5 100t-123.5 29v35h324v-703q0 -71 23 -94t94 -23 h10v-28zM809 1317q0 -48 -61 -86l-316 -199h-82l301 303q28 28 45.5 37.5t40.5 9.5q34 0 53 -17t19 -48z" />
<glyph unicode="&#xfb;" d="M981 74q-170 -47 -281 -92l-8 4v170l-88 -88q-41 -41 -97.5 -64.5t-113.5 -23.5q-113 0 -180.5 72.5t-67.5 193.5v516q0 71 -27 99t-100 32v29h299v-668q0 -64 43 -110t103 -46q98 0 184 74q35 25 35 104v482q0 76 -28.5 100t-123.5 29v35h324v-703q0 -71 23 -94t94 -23 h10v-28zM819 1038h-69l-250 211l-248 -211h-70l254 342h127z" />
<glyph unicode="&#xfc;" d="M981 74q-170 -47 -281 -92l-8 4v170l-88 -88q-41 -41 -97.5 -64.5t-113.5 -23.5q-113 0 -180.5 72.5t-67.5 193.5v516q0 71 -27 99t-100 32v29h299v-668q0 -64 43 -110t103 -46q98 0 184 74q35 25 35 104v482q0 76 -28.5 100t-123.5 29v35h324v-703q0 -71 23 -94t94 -23 h10v-28zM399 1208q0 -41 -30.5 -70.5t-73.5 -29.5q-41 0 -69.5 29.5t-28.5 72.5q0 40 30 70.5t68 30.5q43 0 73.5 -30.5t30.5 -72.5zM807 1208q0 -41 -31 -70.5t-74 -29.5q-41 0 -69.5 29.5t-28.5 72.5q0 40 30 70.5t68 30.5q43 0 74 -31t31 -72z" />
<glyph unicode="&#xfd;" d="M973 891q-37 -5 -58 -24t-41 -68l-315 -836q-83 -221 -163 -315t-183 -94q-65 0 -108.5 33.5t-43.5 84.5q0 36 26.5 63t62.5 27q47 0 108 -22q28 -14 51 -14q22 0 51.5 26.5t51.5 65.5q26 45 54 121t28 100q0 19 -23 76l-338 712q-25 54 -104 66v29h422v-31 q-66 -3 -92.5 -15t-26.5 -40q0 -30 20 -78l236 -518l198 565q9 21 9 35q0 51 -99 51v31h277v-31zM883 1317q0 -47 -62 -86l-315 -199h-82l301 303q28 28 45.5 37.5t40.5 9.5q34 0 53 -17t19 -48z" />
<glyph unicode="&#xfe;" d="M963 506q0 -146 -57 -267t-156 -190t-218 -69q-65 0 -108.5 18.5t-97.5 69.5v-322q0 -97 32.5 -125t147.5 -29v-36h-496v36q90 7 117 33.5t27 106.5v1442q0 64 -19.5 84t-81.5 20q-23 0 -35 -2v33q200 55 297 90l11 -6v-611q69 83 139.5 121.5t155.5 38.5 q149 0 245.5 -123t96.5 -313zM786 426q0 178 -68.5 285.5t-182.5 107.5q-71 0 -140 -44.5t-69 -90.5v-504q0 -46 70.5 -90.5t142.5 -44.5q110 0 178.5 105.5t68.5 275.5z" />
<glyph unicode="&#xff;" d="M973 891q-37 -5 -58 -24t-41 -68l-315 -836q-83 -221 -163 -315t-183 -94q-65 0 -108.5 33.5t-43.5 84.5q0 36 26.5 63t62.5 27q47 0 108 -22q28 -14 51 -14q22 0 51.5 26.5t51.5 65.5q26 45 54 121t28 100q0 19 -23 76l-338 712q-25 54 -104 66v29h422v-31 q-66 -3 -92.5 -15t-26.5 -40q0 -30 20 -78l236 -518l198 565q9 21 9 35q0 51 -99 51v31h277v-31zM473 1208q0 -41 -30.5 -70.5t-73.5 -29.5q-41 0 -70 29.5t-29 72.5q0 40 30.5 70.5t68.5 30.5q43 0 73.5 -30.5t30.5 -72.5zM881 1208q0 -41 -31 -70.5t-74 -29.5 q-41 0 -69.5 29.5t-28.5 72.5q0 40 30 70.5t68 30.5q43 0 74 -31t31 -72z" />
<glyph unicode="&#x100;" horiz-adv-x="1478" d="M1446 0h-522v39q53 0 73.5 3.5t40.5 14.5q12 6 20.5 20.5t8.5 28.5q0 51 -39 140l-84 196h-536l-95 -239q-16 -43 -16 -80q0 -43 33 -63.5t106 -20.5v-39h-405v39q27 2 44 6t36.5 18t34 33.5t37 60.5t45 89.5t57.5 128.5l426 1005h41l510 -1163q54 -114 84.5 -144 t99.5 -34v-39zM915 526l-237 564l-236 -564h473zM1051 1546h-637v111h637v-111z" />
<glyph unicode="&#x101;" horiz-adv-x="909" d="M905 82q-54 -59 -93 -80.5t-91 -21.5q-63 0 -93.5 34t-37.5 115q-94 -80 -163 -114.5t-136 -34.5q-95 0 -155 61t-60 158q0 51 20 99t54 79q65 58 131.5 91t306.5 130v125q0 83 -40.5 126.5t-115.5 43.5q-61 0 -104 -29.5t-43 -70.5q0 -23 6 -50q4 -28 4 -32 q0 -34 -27.5 -60t-64.5 -26q-36 0 -62 26t-26 62q0 38 23 79.5t61 73.5q43 35 112.5 55.5t147.5 20.5q190 0 256 -119q39 -63 39 -209v-399q0 -68 13 -93.5t48 -25.5q43 0 90 39v-53zM588 252v297q-185 -67 -258.5 -130.5t-73.5 -154.5v-8q0 -66 37.5 -112t91.5 -46 q74 0 150 45q32 20 42.5 41t10.5 68zM778 1153h-637v111h637v-111z" />
<glyph unicode="&#x102;" horiz-adv-x="1478" d="M1446 0h-522v39q53 0 73.5 3.5t40.5 14.5q12 6 20.5 20.5t8.5 28.5q0 51 -39 140l-84 196h-536l-95 -239q-16 -43 -16 -80q0 -43 33 -63.5t106 -20.5v-39h-405v39q27 2 44 6t36.5 18t34 33.5t37 60.5t45 89.5t57.5 128.5l426 1005h41l510 -1163q54 -114 84.5 -144 t99.5 -34v-39zM915 526l-237 564l-236 -564h473zM1053 1743q0 -112 -90 -197.5t-230 -85.5q-139 0 -229 85.5t-90 197.5h53q24 -85 94.5 -126.5t171.5 -41.5t171.5 41.5t94.5 126.5h54z" />
<glyph unicode="&#x103;" horiz-adv-x="909" d="M905 82q-54 -59 -93 -80.5t-91 -21.5q-63 0 -93.5 34t-37.5 115q-94 -80 -163 -114.5t-136 -34.5q-95 0 -155 61t-60 158q0 51 20 99t54 79q65 58 131.5 91t306.5 130v125q0 83 -40.5 126.5t-115.5 43.5q-61 0 -104 -29.5t-43 -70.5q0 -23 6 -50q4 -28 4 -32 q0 -34 -27.5 -60t-64.5 -26q-36 0 -62 26t-26 62q0 38 23 79.5t61 73.5q43 35 112.5 55.5t147.5 20.5q190 0 256 -119q39 -63 39 -209v-399q0 -68 13 -93.5t48 -25.5q43 0 90 39v-53zM588 252v297q-185 -67 -258.5 -130.5t-73.5 -154.5v-8q0 -66 37.5 -112t91.5 -46 q74 0 150 45q32 20 42.5 41t10.5 68zM748 1370q-19 -163 -90.5 -242t-200.5 -79q-152 0 -230 110q-30 43 -42 88.5t-13 122.5h59q22 -103 77 -151t153 -48q90 0 137 41.5t90 157.5h60z" />
<glyph unicode="&#x104;" horiz-adv-x="1478" d="M1446 -336q-34 -74 -83 -120t-128 -46q-66 0 -112 51t-46 125q0 116 74 213q42 59 113 113h-340v39q53 0 73.5 3.5t40.5 14.5q12 6 20.5 20.5t8.5 28.5q0 51 -39 140l-84 196h-536l-95 -239q-16 -43 -16 -80q0 -43 33 -63.5t106 -20.5v-39h-405v39q27 2 44 6t36.5 18 t34 33.5t37 60.5t45 89.5t57.5 128.5l426 1005h41l510 -1163q54 -114 84.5 -144t99.5 -34v-39q-61 0 -114 -25.5t-81 -74.5q-49 -77 -49 -170q0 -57 24.5 -91t69.5 -34q35 0 61 24t50 64zM915 526l-237 564l-236 -564h473z" />
<glyph unicode="&#x105;" horiz-adv-x="909" d="M905 -336q-34 -74 -83 -120t-128 -46q-66 0 -111.5 51t-45.5 125q0 117 73 213q34 47 88 95q-51 4 -75.5 38.5t-32.5 108.5q-94 -80 -163 -114.5t-136 -34.5q-95 0 -155 61t-60 158q0 51 20 99t54 79q65 58 131.5 91t306.5 130v125q0 83 -40.5 126.5t-115.5 43.5 q-61 0 -104 -29.5t-43 -70.5q0 -23 6 -50q4 -28 4 -32q0 -34 -27.5 -60t-64.5 -26q-36 0 -62 26t-26 62q0 38 23 79.5t61 73.5q43 35 112.5 55.5t147.5 20.5q190 0 256 -119q39 -63 39 -209v-399q0 -68 13 -93.5t48 -25.5q43 0 90 39v-53q-52 -58 -92 -80 q-101 -56 -139 -182q-12 -40 -12 -90q0 -57 24.5 -91t69.5 -34q25 0 47 15t34.5 31t28.5 42zM588 252v297q-185 -67 -258.5 -130.5t-73.5 -154.5v-8q0 -66 37.5 -112t91.5 -46q74 0 150 45q32 20 42.5 41t10.5 68z" />
<glyph unicode="&#x106;" horiz-adv-x="1366" d="M1296 231q-94 -124 -240 -192t-319 -68q-306 0 -493 191.5t-187 503.5q0 175 61.5 317.5t178.5 239.5q94 77 210 119t234 42q153 0 301 -49q50 -18 82 -18q30 0 52.5 17.5t31.5 49.5h43l19 -462h-47q-29 99 -57.5 152.5t-78.5 103.5q-125 125 -305 125q-223 0 -355 -166 t-132 -445q0 -178 48.5 -312.5t139.5 -209.5q130 -109 320 -109q127 0 235 49t222 158zM1059 1690q0 -42 -66 -68l-342 -164h-88l324 246q31 23 50 31t44 8q37 0 57.5 -14t20.5 -39z" />
<glyph unicode="&#x107;" horiz-adv-x="909" d="M844 301q-50 -96 -86.5 -147.5t-81.5 -87.5q-106 -86 -236 -86q-170 0 -279.5 128t-109.5 326q0 261 172 404q125 104 277 104q129 0 222 -62.5t93 -148.5q0 -35 -28 -60.5t-68 -25.5q-34 0 -60 25t-38 69l-13 45q-15 57 -40.5 78t-80.5 21q-124 0 -201 -98.5t-77 -258.5 q0 -177 88 -288t229 -111q88 0 152 42.5t137 149.5zM809 1317q0 -48 -61 -86l-316 -199h-82l301 303q28 28 45.5 37.5t40.5 9.5q34 0 53 -17t19 -48z" />
<glyph unicode="&#x108;" horiz-adv-x="1366" d="M1296 231q-94 -124 -240 -192t-319 -68q-306 0 -493 191.5t-187 503.5q0 175 61.5 317.5t178.5 239.5q94 77 210 119t234 42q153 0 301 -49q50 -18 82 -18q30 0 52.5 17.5t31.5 49.5h43l19 -462h-47q-29 99 -57.5 152.5t-78.5 103.5q-125 125 -305 125q-223 0 -355 -166 t-132 -445q0 -178 48.5 -312.5t139.5 -209.5q130 -109 320 -109q127 0 235 49t222 158zM1098 1470h-99l-256 162l-256 -162h-98l275 265h157z" />
<glyph unicode="&#x109;" horiz-adv-x="909" d="M844 301q-50 -96 -86.5 -147.5t-81.5 -87.5q-106 -86 -236 -86q-170 0 -279.5 128t-109.5 326q0 261 172 404q125 104 277 104q129 0 222 -62.5t93 -148.5q0 -35 -28 -60.5t-68 -25.5q-34 0 -60 25t-38 69l-13 45q-15 57 -40.5 78t-80.5 21q-124 0 -201 -98.5t-77 -258.5 q0 -177 88 -288t229 -111q88 0 152 42.5t137 149.5zM819 1038h-69l-250 211l-248 -211h-70l254 342h127z" />
<glyph unicode="&#x10a;" horiz-adv-x="1366" d="M1296 231q-94 -124 -240 -192t-319 -68q-306 0 -493 191.5t-187 503.5q0 175 61.5 317.5t178.5 239.5q94 77 210 119t234 42q153 0 301 -49q50 -18 82 -18q30 0 52.5 17.5t31.5 49.5h43l19 -462h-47q-29 99 -57.5 152.5t-78.5 103.5q-125 125 -305 125q-223 0 -355 -166 t-132 -445q0 -178 48.5 -312.5t139.5 -209.5q130 -109 320 -109q127 0 235 49t222 158zM846 1602q0 -44 -30.5 -74.5t-74.5 -30.5q-43 0 -73.5 30.5t-30.5 74.5q0 43 30.5 73.5t73.5 30.5q44 0 74.5 -30.5t30.5 -73.5z" />
<glyph unicode="&#x10b;" horiz-adv-x="909" d="M844 301q-50 -96 -86.5 -147.5t-81.5 -87.5q-106 -86 -236 -86q-170 0 -279.5 128t-109.5 326q0 261 172 404q125 104 277 104q129 0 222 -62.5t93 -148.5q0 -35 -28 -60.5t-68 -25.5q-34 0 -60 25t-38 69l-13 45q-15 57 -40.5 78t-80.5 21q-124 0 -201 -98.5t-77 -258.5 q0 -177 88 -288t229 -111q88 0 152 42.5t137 149.5zM604 1208q0 -44 -30 -74t-74 -30q-43 0 -74 30t-31 74q0 43 31 74t74 31q44 0 74 -31t30 -74z" />
<glyph unicode="&#x10c;" horiz-adv-x="1366" d="M1296 231q-94 -124 -240 -192t-319 -68q-306 0 -493 191.5t-187 503.5q0 175 61.5 317.5t178.5 239.5q94 77 210 119t234 42q153 0 301 -49q50 -18 82 -18q30 0 52.5 17.5t31.5 49.5h43l19 -462h-47q-29 99 -57.5 152.5t-78.5 103.5q-125 125 -305 125q-223 0 -355 -166 t-132 -445q0 -178 48.5 -312.5t139.5 -209.5q130 -109 320 -109q127 0 235 49t222 158zM1096 1735l-275 -265h-157l-277 265h98l256 -162l256 162h99z" />
<glyph unicode="&#x10d;" horiz-adv-x="909" d="M844 301q-50 -96 -86.5 -147.5t-81.5 -87.5q-106 -86 -236 -86q-170 0 -279.5 128t-109.5 326q0 261 172 404q125 104 277 104q129 0 222 -62.5t93 -148.5q0 -35 -28 -60.5t-68 -25.5q-34 0 -60 25t-38 69l-13 45q-15 57 -40.5 78t-80.5 21q-124 0 -201 -98.5t-77 -258.5 q0 -177 88 -288t229 -111q88 0 152 42.5t137 149.5zM819 1380l-256 -342h-127l-254 342h70l248 -211l250 211h69z" />
<glyph unicode="&#x10e;" horiz-adv-x="1478" d="M1403 684q0 -149 -54.5 -280t-154.5 -222q-95 -86 -248 -134t-332 -48h-581v39q116 7 148 40t32 144v910q0 41 -1.5 65.5t-9.5 46t-18 32.5t-32.5 19.5t-48.5 12.5t-70 8v39h553q431 0 643 -215q174 -174 174 -457zM1180 670q0 166 -62 295.5t-182 212.5 q-143 102 -408 102q-63 0 -84.5 -16.5t-21.5 -63.5v-1040q0 -49 22 -66.5t84 -17.5q254 0 402 84q250 145 250 510zM969 1735l-275 -265h-157l-277 265h98l256 -162l256 162h99z" />
<glyph unicode="&#x10f;" d="M1006 86l-301 -106l-9 6v131q-53 -72 -114.5 -104.5t-147.5 -32.5q-169 0 -274 122t-105 318q0 218 124.5 370t301.5 152q62 0 109.5 -19.5t105.5 -68.5v320q0 63 -18.5 83.5t-75.5 20.5q-29 0 -45 -2v33q195 52 301 90l10 -4v-1162q0 -71 17.5 -93.5t72.5 -22.5 q11 0 48 2v-33zM696 209v471q0 81 -63.5 143t-145.5 62q-117 0 -186.5 -104.5t-69.5 -278.5q0 -189 77.5 -302.5t205.5 -113.5q93 0 148 61q34 39 34 62zM1235 1217q0 -92 -63 -178.5t-166 -137.5l-19 39q168 115 168 217q0 12 -8.5 20.5t-20.5 8.5q-2 0 -16 -4 q-24 -4 -39 -4q-56 0 -88.5 27.5t-32.5 76.5q0 52 33.5 84.5t87.5 32.5q69 0 116.5 -52.5t47.5 -129.5z" />
<glyph unicode="&#x110;" horiz-adv-x="1478" d="M1403 684q0 -149 -54.5 -280t-154.5 -222q-95 -86 -248 -134t-332 -48h-581v39q116 7 148 40t32 144v422h-170v90h170v398q0 41 -1.5 65.5t-9.5 46t-18 32.5t-32.5 19.5t-48.5 12.5t-70 8v39h553q431 0 643 -215q174 -174 174 -457zM1180 670q0 166 -62 295.5t-182 212.5 q-143 102 -412 102q-61 0 -81.5 -16t-20.5 -64v-465h299v-90h-299v-485q0 -49 22 -66.5t84 -17.5q254 0 402 84q250 145 250 510z" />
<glyph unicode="&#x111;" d="M1024 1079h-156v-846q0 -71 17.5 -93.5t72.5 -22.5q11 0 48 2v-33l-301 -106l-9 6v131q-53 -72 -114.5 -104.5t-147.5 -32.5q-169 0 -274 122t-105 318q0 218 124.5 370t301.5 152q62 0 109.5 -19.5t105.5 -68.5v225h-247v70h247v25q0 63 -18.5 83.5t-75.5 20.5 q-29 0 -45 -2v33q195 52 301 90l10 -4v-246h156v-70zM696 209v471q0 81 -63.5 143t-145.5 62q-117 0 -186.5 -104.5t-69.5 -278.5q0 -189 77.5 -302.5t205.5 -113.5q93 0 148 61q34 39 34 62z" />
<glyph unicode="&#x112;" horiz-adv-x="1251" d="M1223 346l-93 -346h-1105v39q112 7 145 41t33 143v910q0 109 -32 142t-146 42v39h1087l6 -293h-51q-9 49 -19 80.5t-26.5 57t-36.5 39.5t-54 23t-74 12t-101 3h-277q-41 0 -54 -13.5t-13 -56.5v-454h315q125 0 165 34t60 160h47v-475h-47q-20 128 -59.5 162.5 t-165.5 34.5h-315v-506q0 -55 16 -66q28 -22 199 -22h55q114 0 185 10.5t127.5 42t93.5 81.5t77 136h58zM897 1546h-637v111h637v-111z" />
<glyph unicode="&#x113;" horiz-adv-x="909" d="M868 322q-65 -166 -176 -254t-258 -88q-177 0 -280 123t-103 335q0 224 119 364t309 140q79 0 147.5 -30.5t114.5 -86.5q39 -50 57.5 -104.5t30.5 -153.5h-630q3 -98 16.5 -160t44.5 -122q87 -164 258 -164q99 0 172 49t146 166zM621 633q-20 133 -63.5 184t-137.5 51 t-147 -57t-70 -178h418zM799 1153h-637v111h637v-111z" />
<glyph unicode="&#x114;" horiz-adv-x="1251" d="M1223 346l-93 -346h-1105v39q112 7 145 41t33 143v910q0 109 -32 142t-146 42v39h1087l6 -293h-51q-9 49 -19 80.5t-26.5 57t-36.5 39.5t-54 23t-74 12t-101 3h-277q-41 0 -54 -13.5t-13 -56.5v-454h315q125 0 165 34t60 160h47v-475h-47q-20 128 -59.5 162.5 t-165.5 34.5h-315v-506q0 -55 16 -66q28 -22 199 -22h55q114 0 185 10.5t127.5 42t93.5 81.5t77 136h58zM899 1743q0 -112 -90 -197.5t-229 -85.5q-140 0 -230 85.5t-90 197.5h53q24 -85 95 -126.5t172 -41.5t171.5 41.5t94.5 126.5h53z" />
<glyph unicode="&#x115;" horiz-adv-x="909" d="M868 322q-65 -166 -176 -254t-258 -88q-177 0 -280 123t-103 335q0 224 119 364t309 140q79 0 147.5 -30.5t114.5 -86.5q39 -50 57.5 -104.5t30.5 -153.5h-630q3 -98 16.5 -160t44.5 -122q87 -164 258 -164q99 0 172 49t146 166zM621 633q-20 133 -63.5 184t-137.5 51 t-147 -57t-70 -178h418zM768 1370q-19 -163 -90.5 -242t-200.5 -79q-151 0 -229 110q-30 43 -42 88.5t-13 122.5h59q22 -103 76.5 -151t152.5 -48q90 0 138 41.5t90 157.5h59z" />
<glyph unicode="&#x116;" horiz-adv-x="1251" d="M1223 346l-93 -346h-1105v39q112 7 145 41t33 143v910q0 109 -32 142t-146 42v39h1087l6 -293h-51q-9 49 -19 80.5t-26.5 57t-36.5 39.5t-54 23t-74 12t-101 3h-277q-41 0 -54 -13.5t-13 -56.5v-454h315q125 0 165 34t60 160h47v-475h-47q-20 128 -59.5 162.5 t-165.5 34.5h-315v-506q0 -55 16 -66q28 -22 199 -22h55q114 0 185 10.5t127.5 42t93.5 81.5t77 136h58zM682 1602q0 -44 -30 -74.5t-74 -30.5q-43 0 -74 30.5t-31 74.5q0 43 31 73.5t74 30.5q44 0 74 -30.5t30 -73.5z" />
<glyph unicode="&#x117;" horiz-adv-x="909" d="M868 322q-65 -166 -176 -254t-258 -88q-177 0 -280 123t-103 335q0 224 119 364t309 140q79 0 147.5 -30.5t114.5 -86.5q39 -50 57.5 -104.5t30.5 -153.5h-630q3 -98 16.5 -160t44.5 -122q87 -164 258 -164q99 0 172 49t146 166zM621 633q-20 133 -63.5 184t-137.5 51 t-147 -57t-70 -178h418zM584 1208q0 -44 -30.5 -74t-74.5 -30q-43 0 -73.5 30t-30.5 74q0 43 30.5 74t73.5 31q44 0 74.5 -31t30.5 -74z" />
<glyph unicode="&#x118;" horiz-adv-x="1251" d="M1223 346l-93 -346q-61 0 -113.5 -25.5t-80.5 -74.5q-49 -77 -49 -170q0 -57 24.5 -91t69.5 -34q35 0 61 24t50 64l38 -29q-35 -75 -83 -120.5t-127 -45.5q-66 0 -112 51t-46 125q0 116 74 213q44 61 112 113h-923v39q112 7 145 41t33 143v910q0 109 -32 142t-146 42v39 h1087l6 -293h-51q-9 49 -19 80.5t-26.5 57t-36.5 39.5t-54 23t-74 12t-101 3h-277q-41 0 -54 -13.5t-13 -56.5v-454h315q125 0 165 34t60 160h47v-475h-47q-20 128 -59.5 162.5t-165.5 34.5h-315v-506q0 -55 16 -66q28 -22 199 -22h55q114 0 185 10.5t127.5 42t93.5 81.5 t77 136h58z" />
<glyph unicode="&#x119;" horiz-adv-x="909" d="M868 322q-55 -138 -133 -216q-158 -163 -184 -206q-49 -77 -49 -170q0 -57 24.5 -91t69.5 -34q35 0 61 24t50 64l38 -29q-35 -75 -83 -120.5t-127 -45.5q-66 0 -112 51t-46 125q0 116 74 213q40 56 108 111q-59 -18 -125 -18q-177 0 -280 123t-103 335q0 224 119 364 t309 140q79 0 147.5 -30.5t114.5 -86.5q39 -50 57.5 -104.5t30.5 -153.5h-630q3 -98 16.5 -160t44.5 -122q87 -164 258 -164q99 0 172 49t146 166zM621 633q-20 133 -63.5 184t-137.5 51t-147 -57t-70 -178h418z" />
<glyph unicode="&#x11a;" horiz-adv-x="1251" d="M1223 346l-93 -346h-1105v39q112 7 145 41t33 143v910q0 109 -32 142t-146 42v39h1087l6 -293h-51q-9 49 -19 80.5t-26.5 57t-36.5 39.5t-54 23t-74 12t-101 3h-277q-41 0 -54 -13.5t-13 -56.5v-454h315q125 0 165 34t60 160h47v-475h-47q-20 128 -59.5 162.5 t-165.5 34.5h-315v-506q0 -55 16 -66q28 -22 199 -22h55q114 0 185 10.5t127.5 42t93.5 81.5t77 136h58zM932 1735l-275 -265h-157l-277 265h99l256 -162l256 162h98z" />
<glyph unicode="&#x11b;" horiz-adv-x="909" d="M868 322q-65 -166 -176 -254t-258 -88q-177 0 -280 123t-103 335q0 224 119 364t309 140q79 0 147.5 -30.5t114.5 -86.5q39 -50 57.5 -104.5t30.5 -153.5h-630q3 -98 16.5 -160t44.5 -122q87 -164 258 -164q99 0 172 49t146 166zM621 633q-20 133 -63.5 184t-137.5 51 t-147 -57t-70 -178h418zM799 1380l-256 -342h-127l-254 342h69l248 -211l250 211h70z" />
<glyph unicode="&#x11c;" horiz-adv-x="1478" d="M1452 688q-89 -7 -116 -37t-27 -121v-415q-62 -54 -222 -99t-292 -45q-168 0 -312 56.5t-247 162.5q-170 179 -170 476q0 207 89.5 370.5t250 255.5t362.5 92q140 0 279 -47q53 -20 90 -20q32 0 57.5 19t34.5 48h45l16 -432h-47q-39 95 -69.5 145.5t-75.5 92.5 q-122 113 -295 113q-104 0 -196.5 -40.5t-160.5 -115.5q-67 -75 -107 -204.5t-40 -274.5q0 -286 144.5 -450.5t394.5 -164.5q110 0 191 36t81 85v332q0 128 -43 153q-34 22 -137 29v37h522v-37zM1124 1470h-98l-256 162l-256 -162h-98l274 265h158z" />
<glyph unicode="&#x11d;" d="M963 795h-170q38 -86 38 -172q0 -150 -98 -232q-99 -86 -221 -86q-20 0 -78 6q-3 0 -39 4q-41 -12 -82 -55t-41 -74q0 -49 160 -55l264 -12q114 -4 181 -64t67 -155q0 -116 -113 -207q-80 -65 -192 -102t-227 -37q-146 0 -250.5 58t-104.5 140q0 57 46 113.5t155 136.5 q-63 31 -85.5 54t-22.5 55q0 59 94 141l88 82q-102 51 -146.5 114.5t-44.5 159.5q0 139 99.5 236.5t242.5 97.5q79 0 164 -31l45 -16q61 -21 113 -21h158v-79zM887 -131q0 55 -57 77.5t-197 22.5q-76 0 -178.5 8.5t-153.5 18.5q-64 -75 -82 -107.5t-18 -68.5q0 -68 82 -109 t217 -41q173 0 280 55t107 144zM674 543q0 124 -62 245q-52 97 -149 97q-71 0 -111.5 -51.5t-40.5 -141.5v-6q0 -147 58 -238.5t151 -91.5q71 0 112.5 50.5t41.5 136.5zM803 1038h-70l-250 211l-247 -211h-70l254 342h127z" />
<glyph unicode="&#x11e;" horiz-adv-x="1478" d="M1452 688q-89 -7 -116 -37t-27 -121v-415q-62 -54 -222 -99t-292 -45q-168 0 -312 56.5t-247 162.5q-170 179 -170 476q0 207 89.5 370.5t250 255.5t362.5 92q140 0 279 -47q53 -20 90 -20q32 0 57.5 19t34.5 48h45l16 -432h-47q-39 95 -69.5 145.5t-75.5 92.5 q-122 113 -295 113q-104 0 -196.5 -40.5t-160.5 -115.5q-67 -75 -107 -204.5t-40 -274.5q0 -286 144.5 -450.5t394.5 -164.5q110 0 191 36t81 85v332q0 128 -43 153q-34 22 -137 29v37h522v-37zM1090 1743q0 -112 -90 -197.5t-230 -85.5q-139 0 -229 85.5t-90 197.5h53 q24 -85 94.5 -126.5t171.5 -41.5t171.5 41.5t94.5 126.5h54z" />
<glyph unicode="&#x11f;" d="M963 795h-170q38 -86 38 -172q0 -150 -98 -232q-99 -86 -221 -86q-20 0 -78 6q-3 0 -39 4q-41 -12 -82 -55t-41 -74q0 -49 160 -55l264 -12q114 -4 181 -64t67 -155q0 -116 -113 -207q-80 -65 -192 -102t-227 -37q-146 0 -250.5 58t-104.5 140q0 57 46 113.5t155 136.5 q-63 31 -85.5 54t-22.5 55q0 59 94 141l88 82q-102 51 -146.5 114.5t-44.5 159.5q0 139 99.5 236.5t242.5 97.5q79 0 164 -31l45 -16q61 -21 113 -21h158v-79zM887 -131q0 55 -57 77.5t-197 22.5q-76 0 -178.5 8.5t-153.5 18.5q-64 -75 -82 -107.5t-18 -68.5q0 -68 82 -109 t217 -41q173 0 280 55t107 144zM674 543q0 124 -62 245q-52 97 -149 97q-71 0 -111.5 -51.5t-40.5 -141.5v-6q0 -147 58 -238.5t151 -91.5q71 0 112.5 50.5t41.5 136.5zM772 1370q-19 -163 -90.5 -242t-200.5 -79q-151 0 -229 110q-30 43 -42 88.5t-13 122.5h59 q22 -103 76.5 -151t152.5 -48q90 0 138 41.5t90 157.5h59z" />
<glyph unicode="&#x120;" horiz-adv-x="1478" d="M1452 688q-89 -7 -116 -37t-27 -121v-415q-62 -54 -222 -99t-292 -45q-168 0 -312 56.5t-247 162.5q-170 179 -170 476q0 207 89.5 370.5t250 255.5t362.5 92q140 0 279 -47q53 -20 90 -20q32 0 57.5 19t34.5 48h45l16 -432h-47q-39 95 -69.5 145.5t-75.5 92.5 q-122 113 -295 113q-104 0 -196.5 -40.5t-160.5 -115.5q-67 -75 -107 -204.5t-40 -274.5q0 -286 144.5 -450.5t394.5 -164.5q110 0 191 36t81 85v332q0 128 -43 153q-34 22 -137 29v37h522v-37zM872 1602q0 -44 -30 -74.5t-74 -30.5q-43 0 -73.5 30.5t-30.5 74.5 q0 43 30.5 73.5t73.5 30.5q44 0 74 -30.5t30 -73.5z" />
<glyph unicode="&#x121;" d="M963 795h-170q38 -86 38 -172q0 -150 -98 -232q-99 -86 -221 -86q-20 0 -78 6q-3 0 -39 4q-41 -12 -82 -55t-41 -74q0 -49 160 -55l264 -12q114 -4 181 -64t67 -155q0 -116 -113 -207q-80 -65 -192 -102t-227 -37q-146 0 -250.5 58t-104.5 140q0 57 46 113.5t155 136.5 q-63 31 -85.5 54t-22.5 55q0 59 94 141l88 82q-102 51 -146.5 114.5t-44.5 159.5q0 139 99.5 236.5t242.5 97.5q79 0 164 -31l45 -16q61 -21 113 -21h158v-79zM887 -131q0 55 -57 77.5t-197 22.5q-76 0 -178.5 8.5t-153.5 18.5q-64 -75 -82 -107.5t-18 -68.5q0 -68 82 -109 t217 -41q173 0 280 55t107 144zM674 543q0 124 -62 245q-52 97 -149 97q-71 0 -111.5 -51.5t-40.5 -141.5v-6q0 -147 58 -238.5t151 -91.5q71 0 112.5 50.5t41.5 136.5zM588 1208q0 -44 -30.5 -74t-74.5 -30q-43 0 -73.5 30t-30.5 74q0 43 30.5 74t73.5 31q44 0 74.5 -31 t30.5 -74z" />
<glyph unicode="&#x122;" horiz-adv-x="1478" d="M1452 688q-89 -7 -116 -37t-27 -121v-415q-62 -54 -222 -99t-292 -45q-168 0 -312 56.5t-247 162.5q-170 179 -170 476q0 207 89.5 370.5t250 255.5t362.5 92q140 0 279 -47q53 -20 90 -20q32 0 57.5 19t34.5 48h45l16 -432h-47q-39 95 -69.5 145.5t-75.5 92.5 q-122 113 -295 113q-104 0 -196.5 -40.5t-160.5 -115.5q-67 -75 -107 -204.5t-40 -274.5q0 -286 144.5 -450.5t394.5 -164.5q110 0 191 36t81 85v332q0 128 -43 153q-34 22 -137 29v37h522v-37zM911 -260q0 -92 -63 -178t-166 -137l-18 38q167 114 167 218q0 12 -8 20t-20 8 q-3 0 -17 -4q-24 -4 -38 -4q-56 0 -88.5 27.5t-32.5 76.5q0 52 33.5 84.5t87.5 32.5q69 0 116 -52.5t47 -129.5z" />
<glyph unicode="&#x123;" d="M627 1118q0 -52 -33.5 -84.5t-87.5 -32.5q-69 0 -116.5 53t-47.5 130q0 92 63 178t166 137l19 -39q-168 -115 -168 -217q0 -12 8.5 -20.5t20.5 -8.5q2 1 16 5q24 4 39 4q56 0 88.5 -28t32.5 -77zM963 795h-170q38 -86 38 -172q0 -150 -98 -232q-99 -86 -221 -86 q-20 0 -78 6q-3 0 -39 4q-41 -12 -82 -55t-41 -74q0 -49 160 -55l264 -12q114 -4 181 -64t67 -155q0 -116 -113 -207q-80 -65 -192 -102t-227 -37q-146 0 -250.5 58t-104.5 140q0 57 46 113.5t155 136.5q-63 31 -85.5 54t-22.5 55q0 59 94 141l88 82q-102 51 -146.5 114.5 t-44.5 159.5q0 139 99.5 236.5t242.5 97.5q79 0 164 -31l45 -16q61 -21 113 -21h158v-79zM887 -131q0 55 -57 77.5t-197 22.5q-76 0 -178.5 8.5t-153.5 18.5q-64 -75 -82 -107.5t-18 -68.5q0 -68 82 -109t217 -41q173 0 280 55t107 144zM674 543q0 124 -62 245 q-52 97 -149 97q-71 0 -111.5 -51.5t-40.5 -141.5v-6q0 -147 58 -238.5t151 -91.5q71 0 112.5 50.5t41.5 136.5z" />
<glyph unicode="&#x124;" horiz-adv-x="1478" d="M1438 0h-570v39q64 4 96.5 11.5t53.5 32t26 59.5t5 104v399h-621v-422q0 -109 32.5 -142t147.5 -42v-39h-569v39q64 4 96.5 11.5t53 32t25.5 59.5t5 104v887q0 59 -5.5 89.5t-26 52t-53 29t-95.5 13.5v39h569v-39q-63 -6 -95.5 -13.5t-53 -29t-26 -52t-5.5 -89.5v-398 h621v398q0 59 -5.5 89.5t-26.5 52t-53.5 29t-95.5 13.5v39h570v-39q-63 -6 -95.5 -13.5t-53.5 -29t-26.5 -52t-5.5 -89.5v-910q0 -109 32.5 -142t148.5 -42v-39zM1094 1470h-99l-256 162l-256 -162h-98l274 265h158z" />
<glyph unicode="&#x125;" d="M997 0h-434v31q89 9 114 41t25 137v405q0 217 -153 217q-60 0 -111 -29t-116 -100v-493q0 -106 25 -137.5t114 -40.5v-31h-443v31q89 12 110.5 41t21.5 137v965q0 66 -19.5 85t-85.5 19q-17 0 -25 -2v33l56 16q141 41 235 74l11 -6v-623q70 92 140 132t161 40 q251 0 251 -326v-407q0 -46 2.5 -71.5t8.5 -46t21.5 -30.5t35 -16.5t55.5 -13.5v-31zM868 1513h-98l-256 162l-256 -162h-98l274 265h158z" />
<glyph unicode="&#x126;" horiz-adv-x="1478" d="M1438 0h-570v39q64 4 96.5 11.5t53.5 32t26 59.5t5 104v399h-621v-422q0 -109 32.5 -142t147.5 -42v-39h-569v39q64 4 96.5 11.5t53 32t25.5 59.5t5 104v743h-180v58h180v86q0 59 -5.5 89.5t-26 52t-53 29t-95.5 13.5v39h569v-39q-63 -6 -95.5 -13.5t-53 -29t-26 -52 t-5.5 -89.5v-86h621v86q0 59 -5.5 89.5t-26.5 52t-53.5 29t-95.5 13.5v39h570v-39q-63 -6 -95.5 -13.5t-53.5 -29t-26.5 -52t-5.5 -89.5v-86h181v-58h-181v-766q0 -109 32.5 -142t148.5 -42v-39zM1049 735v254h-621v-254h621z" />
<glyph unicode="&#x127;" horiz-adv-x="1142" d="M1061 0h-434v31q89 9 114 41t25 137v405q0 217 -154 217q-60 0 -111 -29t-116 -100v-493q0 -106 25 -137.5t114 -40.5v-31h-442v31q89 12 110 41t21 137v901h-131v57h131v7q0 66 -19 85t-85 19q-17 0 -25 -2v33l55 16q147 42 236 74l10 -6v-226h190v-57h-190v-340 q70 92 140 132t161 40q125 0 188.5 -82.5t63.5 -243.5v-407q0 -46 2.5 -71.5t8.5 -46t21.5 -30.5t35 -16.5t55.5 -13.5v-31z" />
<glyph unicode="&#x128;" horiz-adv-x="681" d="M645 0h-608v39q69 2 104.5 9t59 28t29.5 53.5t6 93.5v910q0 40 -2.5 65.5t-11 47t-20.5 33t-36.5 20t-53 12t-75.5 6.5v39h608v-39q-68 -3 -104.5 -10.5t-60 -29t-30 -53.5t-6.5 -91v-910q0 -112 37 -145.5t164 -38.5v-39zM678 1710q-32 -117 -81.5 -167t-133.5 -50 q-39 0 -71.5 9.5t-94.5 39.5l-47 23q-49 22 -84 22q-71 0 -105 -94h-59q23 100 76.5 153.5t130.5 53.5q73 0 143 -37l49 -25q65 -30 109 -30q35 0 58.5 22t49.5 80h60z" />
<glyph unicode="&#x129;" horiz-adv-x="569" d="M518 0h-485v31q106 6 134 37t28 141v475q0 67 -15.5 95t-52.5 28q-33 0 -70 -6l-16 -2v30l317 113l9 -6v-727q0 -111 25 -141t126 -37v-31zM618 1317q-32 -117 -81.5 -167t-133.5 -50q-39 0 -71 9.5t-94 39.5l-48 22q-51 23 -84 23q-70 0 -104 -94h-59q23 100 77 153.5 t130 53.5q73 0 143 -37l49 -25q67 -31 109 -31q35 0 58.5 22t49.5 81h59z" />
<glyph unicode="&#x12a;" horiz-adv-x="681" d="M645 0h-608v39q69 2 104.5 9t59 28t29.5 53.5t6 93.5v910q0 40 -2.5 65.5t-11 47t-20.5 33t-36.5 20t-53 12t-75.5 6.5v39h608v-39q-68 -3 -104.5 -10.5t-60 -29t-30 -53.5t-6.5 -91v-910q0 -112 37 -145.5t164 -38.5v-39zM659 1546h-636v111h636v-111z" />
<glyph unicode="&#x12b;" horiz-adv-x="569" d="M518 0h-485v31q106 6 134 37t28 141v475q0 67 -15.5 95t-52.5 28q-33 0 -70 -6l-16 -2v30l317 113l9 -6v-727q0 -111 25 -141t126 -37v-31zM600 1153h-637v111h637v-111z" />
<glyph unicode="&#x12c;" horiz-adv-x="681" d="M645 0h-608v39q69 2 104.5 9t59 28t29.5 53.5t6 93.5v910q0 40 -2.5 65.5t-11 47t-20.5 33t-36.5 20t-53 12t-75.5 6.5v39h608v-39q-68 -3 -104.5 -10.5t-60 -29t-30 -53.5t-6.5 -91v-910q0 -112 37 -145.5t164 -38.5v-39zM662 1743q0 -112 -90 -197.5t-230 -85.5 q-139 0 -229 85.5t-90 197.5h53q24 -85 94.5 -126.5t171.5 -41.5t171.5 41.5t94.5 126.5h54z" />
<glyph unicode="&#x12d;" horiz-adv-x="569" d="M518 0h-485v31q106 6 134 37t28 141v475q0 67 -15.5 95t-52.5 28q-33 0 -70 -6l-16 -2v30l317 113l9 -6v-727q0 -111 25 -141t126 -37v-31zM569 1370q-19 -163 -90 -242t-200 -79q-152 0 -230 110q-30 43 -42 88.5t-13 122.5h59q22 -103 77 -151t153 -48q90 0 137 41.5 t90 157.5h59z" />
<glyph unicode="&#x12e;" horiz-adv-x="681" d="M645 -336q-34 -74 -83 -120t-128 -46q-66 0 -112 51t-46 125q0 116 74 213q42 59 113 113h-426v39q69 2 104.5 9t59 28t29.5 53.5t6 93.5v910q0 40 -2.5 65.5t-11 47t-20.5 33t-36.5 20t-53 12t-75.5 6.5v39h608v-39q-68 -3 -104.5 -10.5t-60 -29t-30 -53.5t-6.5 -91 v-910q0 -112 37 -145.5t164 -38.5v-39q-61 0 -113.5 -25.5t-80.5 -74.5q-50 -79 -50 -170q0 -57 25 -91t70 -34q25 0 47 15t34.5 31t28.5 42z" />
<glyph unicode="&#x12f;" horiz-adv-x="569" d="M518 0q-64 10 -122.5 -17t-92.5 -83q-49 -77 -49 -170q0 -57 24.5 -91t69.5 -34q35 0 61 24t50 64l39 -29q-34 -74 -83 -120t-128 -46q-66 0 -112 51t-46 125q0 116 74 213q44 61 112 113h-282v31q106 6 134 37t28 141v475q0 67 -15.5 95t-52.5 28q-33 0 -70 -6l-16 -2 v30l317 113l9 -6v-727q0 -111 25 -141t126 -37v-31zM389 1208q0 -44 -30 -74t-74 -30q-43 0 -74 30t-31 74q0 43 31 74t74 31q44 0 74 -31t30 -74z" />
<glyph unicode="&#x130;" horiz-adv-x="681" d="M645 0h-608v39q69 2 104.5 9t59 28t29.5 53.5t6 93.5v910q0 40 -2.5 65.5t-11 47t-20.5 33t-36.5 20t-53 12t-75.5 6.5v39h608v-39q-68 -3 -104.5 -10.5t-60 -29t-30 -53.5t-6.5 -91v-910q0 -112 37 -145.5t164 -38.5v-39zM444 1602q0 -44 -30 -74.5t-74 -30.5 q-43 0 -73.5 30.5t-30.5 74.5q0 43 30.5 73.5t73.5 30.5q44 0 74 -30.5t30 -73.5z" />
<glyph unicode="&#x131;" horiz-adv-x="569" d="M518 0h-485v31q106 6 134 37t28 141v475q0 67 -15.5 95t-52.5 28q-33 0 -70 -6l-16 -2v30l317 113l9 -6v-727q0 -111 25 -141t126 -37v-31z" />
<glyph unicode="&#x134;" horiz-adv-x="796" d="M758 1317q-44 -3 -71.5 -7t-50.5 -13t-35 -20t-20 -32.5t-10 -46.5t-2 -65v-758q0 -192 -90.5 -298t-255.5 -106q-89 0 -146 41.5t-57 106.5q0 41 30 71.5t71 30.5q77 0 106 -104q11 -39 22.5 -53.5t33.5 -14.5q77 0 77 135v949q0 60 -5.5 91t-27.5 52.5t-56 28.5 t-101 12v39h588v-39zM821 1470h-98l-256 162l-256 -162h-98l274 265h158z" />
<glyph unicode="&#x135;" horiz-adv-x="569" d="M395 0q0 -218 -89 -332t-259 -114q-83 0 -136.5 31.5t-53.5 80.5q0 34 24.5 57t59.5 23q47 0 98 -65q27 -33 45 -45.5t41 -12.5q21 0 41 11t29 26q17 30 22.5 80t5.5 168v776q0 66 -15 94.5t-50 28.5q-32 0 -82 -6l-10 -2v32q156 48 319 111l10 -6v-936zM629 1038h-70 l-250 211l-248 -211h-69l254 342h127z" />
<glyph unicode="&#x136;" horiz-adv-x="1478" d="M1481 0h-625v39q25 2 57 2q86 3 86 45q0 37 -75 135t-191 213l-217 215l-53 -43v-383q0 -113 32 -145t152 -39v-39h-577v39q64 4 97.5 12t54.5 32t26.5 59.5t5.5 103.5v887q0 58 -5.5 89t-27 52.5t-55 29.5t-96.5 13v39h581v-39q-66 -5 -100 -12t-55.5 -28.5t-27 -52.5 t-5.5 -91v-420l362 329q160 147 160 211q0 31 -20 45t-66 17q-28 0 -53 2v39h536v-39q-104 -7 -155.5 -33.5t-155.5 -126.5l-389 -385l477 -512q99 -105 146 -147.5t83.5 -57.5t92.5 -16v-39zM895 -260q0 -92 -63 -178t-166 -137l-19 38q168 115 168 218q0 12 -8.5 20 t-20.5 8q-2 0 -16 -4q-24 -4 -39 -4q-56 0 -88.5 27.5t-32.5 76.5q0 52 33.5 84.5t87.5 32.5q69 0 116.5 -52.5t47.5 -129.5z" />
<glyph unicode="&#x137;" d="M1034 0h-446v31h39q19 0 31 8.5t12 21.5q0 14 -23 43q-4 4 -14 19l-6 8l-287 383v-377q0 -54 25.5 -77.5t87.5 -26.5l41 -2v-31h-480v31q42 7 63 11t41.5 12t28 14.5t14 22.5t7 31.5t0.5 45.5v987q0 73 -18.5 99t-69.5 26q-12 0 -66 -4v33l62 16l256 74l8 -4v-860 l281 249q47 41 47 70q0 22 -21.5 29.5t-81.5 9.5v29h418v-31h-16q-49 0 -95 -12q-94 -26 -331 -246l-60 -55l314 -398q64 -78 117.5 -111t121.5 -38v-31zM684 -260q0 -92 -63 -178t-166 -137l-19 38q168 115 168 218q0 12 -8.5 20t-20.5 8q-2 0 -16 -4q-24 -4 -39 -4 q-56 0 -88.5 27.5t-32.5 76.5q0 52 33.5 84.5t87.5 32.5q69 0 116.5 -52.5t47.5 -129.5z" />
<glyph unicode="&#x139;" horiz-adv-x="1251" d="M1225 356l-99 -356h-1101v39q112 7 145 41t33 143v910q0 109 -32 142t-146 42v39h577v-39q-121 -7 -155.5 -41t-34.5 -143v-969q0 -54 31.5 -69t144.5 -15h137q132 0 219 30t141 95q41 47 89 151h51zM631 1690q0 -42 -66 -68l-342 -164h-88l324 246q31 23 50 31t44 8 q37 0 57.5 -14t20.5 -39z" />
<glyph unicode="&#x13a;" horiz-adv-x="569" d="M526 0h-483v31q97 8 127.5 36t30.5 111v977q0 72 -18 98.5t-68 26.5q-18 0 -64 -4h-12v33q215 53 326 90l8 -4v-1223q0 -85 27.5 -110t125.5 -31v-31zM580 1733q0 -42 -66 -68l-342 -164h-88l324 246q31 23 50 31t44 8q37 0 57.5 -14t20.5 -39z" />
<glyph unicode="&#x13b;" horiz-adv-x="1251" d="M1225 356l-99 -356h-1101v39q112 7 145 41t33 143v910q0 109 -32 142t-146 42v39h577v-39q-121 -7 -155.5 -41t-34.5 -143v-969q0 -54 31.5 -69t144.5 -15h137q132 0 219 30t141 95q41 47 89 151h51zM768 -260q0 -92 -63 -178t-166 -137l-19 38q168 115 168 218 q0 12 -8.5 20t-20.5 8q-2 0 -16 -4q-24 -4 -39 -4q-56 0 -88.5 27.5t-32.5 76.5q0 52 33.5 84.5t87.5 32.5q69 0 116.5 -52.5t47.5 -129.5z" />
<glyph unicode="&#x13c;" horiz-adv-x="569" d="M526 0h-483v31q97 8 127.5 36t30.5 111v977q0 72 -18 98.5t-68 26.5q-18 0 -64 -4h-12v33q215 53 326 90l8 -4v-1223q0 -85 27.5 -110t125.5 -31v-31zM430 -260q0 -92 -63 -178t-166 -137l-19 38q168 115 168 218q0 12 -8 20t-20 8q-3 0 -17 -4q-24 -4 -39 -4 q-56 0 -88.5 27.5t-32.5 76.5q0 52 33.5 84.5t87.5 32.5q69 0 116.5 -52.5t47.5 -129.5z" />
<glyph unicode="&#x13d;" horiz-adv-x="1251" d="M1225 356l-99 -356h-1101v39q112 7 145 41t33 143v910q0 109 -32 142t-146 42v39h577v-39q-121 -7 -155.5 -41t-34.5 -143v-969q0 -54 31.5 -69t144.5 -15h137q132 0 219 30t141 95q41 47 89 151h51zM969 1174q0 -92 -63.5 -178.5t-166.5 -137.5l-18 39q168 115 168 217 q0 12 -8.5 20.5t-20.5 8.5q-2 0 -16 -4q-24 -4 -39 -4q-56 0 -88.5 27.5t-32.5 76.5q0 52 33.5 84.5t87.5 32.5q69 0 116.5 -52.5t47.5 -129.5z" />
<glyph unicode="&#x13e;" horiz-adv-x="569" d="M526 0h-483v31q97 8 127.5 36t30.5 111v977q0 72 -18 98.5t-68 26.5q-18 0 -64 -4h-12v33q215 53 326 90l8 -4v-1223q0 -85 27.5 -110t125.5 -31v-31zM739 1217q0 -92 -63 -178.5t-166 -137.5l-18 39q167 114 167 217q0 12 -8 20.5t-20 8.5q-3 0 -17 -4q-24 -4 -39 -4 q-56 0 -88 27.5t-32 76.5q0 53 33 85t87 32q69 0 116.5 -52.5t47.5 -129.5z" />
<glyph unicode="&#x13f;" horiz-adv-x="1251" d="M1225 356l-99 -356h-1101v39q112 7 145 41t33 143v910q0 109 -32 142t-146 42v39h577v-39q-121 -7 -155.5 -41t-34.5 -143v-969q0 -54 31.5 -69t144.5 -15h137q132 0 219 30t141 95q41 47 89 151h51zM1038 729q0 -44 -30 -74t-74 -30q-43 0 -74 30t-31 74q0 43 31 74 t74 31q44 0 74 -31t30 -74z" />
<glyph unicode="&#x140;" horiz-adv-x="569" d="M526 0h-483v31q97 8 127.5 36t30.5 111v977q0 72 -18 98.5t-68 26.5q-18 0 -64 -4h-12v33q215 53 326 90l8 -4v-1223q0 -85 27.5 -110t125.5 -31v-31zM676 729q0 -44 -30.5 -74t-74.5 -30q-43 0 -73.5 30t-30.5 74q0 43 30.5 74t73.5 31q44 0 74.5 -31t30.5 -74z" />
<glyph unicode="&#x141;" horiz-adv-x="1251" d="M1225 356l-99 -356h-1101v39q112 7 145 41t33 143v297l-127 -117v105l127 117v508q0 109 -32 142t-146 42v39h577v-39q-121 -7 -155.5 -41t-34.5 -143v-357l256 236v-105l-256 -235v-508q0 -54 31.5 -69t144.5 -15h137q132 0 219 30t141 95q41 47 89 151h51z" />
<glyph unicode="&#x142;" horiz-adv-x="569" d="M541 995l-168 -157v-666q0 -85 27.5 -110t125.5 -31v-31h-483v31q97 8 127.5 36t30.5 111v518l-170 -159v94l170 160v364q0 72 -18 98.5t-68 26.5q-18 0 -64 -4h-12v33q215 53 326 90l8 -4v-463l168 158v-95z" />
<glyph unicode="&#x143;" horiz-adv-x="1478" d="M1448 1317q-96 -10 -135 -37q-60 -42 -60 -225v-1078h-34l-906 1127v-803q0 -155 37 -205.5t156 -56.5v-39h-481v39q54 4 86.5 12.5t56.5 24t35 46.5t15.5 71.5t4.5 107.5v903q-62 72 -97 92.5t-101 20.5v39h350l788 -991v690q0 187 -59 229q-45 26 -137 33v39h481v-39z M1055 1690q0 -42 -66 -68l-342 -164h-88l324 246q31 23 50 31t44 8q37 0 57.5 -14t20.5 -39z" />
<glyph unicode="&#x144;" d="M993 0h-426v31q77 6 103 40.5t26 131.5v428q0 198 -149 198q-51 0 -94.5 -23.5t-116.5 -92.5v-576q0 -55 28.5 -77.5t106.5 -28.5v-31h-434v31q78 6 102.5 35.5t24.5 117.5v508q0 75 -16.5 103t-59.5 28q-39 0 -55 -8v35q158 46 282 92l15 -4v-162q104 98 165 132t132 34 q114 0 177.5 -81t63.5 -226v-469q0 -75 25 -101t100 -34v-31zM825 1317q0 -48 -61 -86l-315 -199h-82l301 303q28 28 45.5 37.5t40.5 9.5q34 0 52.5 -17t18.5 -48z" />
<glyph unicode="&#x145;" horiz-adv-x="1478" d="M1448 1317q-96 -10 -135 -37q-60 -42 -60 -225v-1078h-34l-906 1127v-803q0 -155 37 -205.5t156 -56.5v-39h-481v39q54 4 86.5 12.5t56.5 24t35 46.5t15.5 71.5t4.5 107.5v903q-62 72 -97 92.5t-101 20.5v39h350l788 -991v690q0 187 -59 229q-45 26 -137 33v39h481v-39z M881 -260q0 -92 -63.5 -178t-166.5 -137l-18 38q168 115 168 218q0 12 -8.5 20t-20.5 8q-2 0 -16 -4q-24 -4 -39 -4q-56 0 -88.5 27.5t-32.5 76.5q0 52 33.5 84.5t87.5 32.5q69 0 116.5 -52.5t47.5 -129.5z" />
<glyph unicode="&#x146;" d="M993 0h-426v31q77 6 103 40.5t26 131.5v428q0 198 -149 198q-51 0 -94.5 -23.5t-116.5 -92.5v-576q0 -55 28.5 -77.5t106.5 -28.5v-31h-434v31q78 6 102.5 35.5t24.5 117.5v508q0 75 -16.5 103t-59.5 28q-39 0 -55 -8v35q158 46 282 92l15 -4v-162q104 98 165 132t132 34 q114 0 177.5 -81t63.5 -226v-469q0 -75 25 -101t100 -34v-31zM659 -260q0 -92 -63 -178t-166 -137l-18 38q168 115 168 218q0 12 -8.5 20t-20.5 8q-2 0 -16 -4q-24 -4 -39 -4q-56 0 -88.5 27.5t-32.5 76.5q0 52 33.5 84.5t87.5 32.5q69 0 116 -52.5t47 -129.5z" />
<glyph unicode="&#x147;" horiz-adv-x="1478" d="M1448 1317q-96 -10 -135 -37q-60 -42 -60 -225v-1078h-34l-906 1127v-803q0 -155 37 -205.5t156 -56.5v-39h-481v39q54 4 86.5 12.5t56.5 24t35 46.5t15.5 71.5t4.5 107.5v903q-62 72 -97 92.5t-101 20.5v39h350l788 -991v690q0 187 -59 229q-45 26 -137 33v39h481v-39z M1092 1735l-275 -265h-158l-276 265h98l256 -162l256 162h99z" />
<glyph unicode="&#x148;" d="M993 0h-426v31q77 6 103 40.5t26 131.5v428q0 198 -149 198q-51 0 -94.5 -23.5t-116.5 -92.5v-576q0 -55 28.5 -77.5t106.5 -28.5v-31h-434v31q78 6 102.5 35.5t24.5 117.5v508q0 75 -16.5 103t-59.5 28q-39 0 -55 -8v35q158 46 282 92l15 -4v-162q104 98 165 132t132 34 q114 0 177.5 -81t63.5 -226v-469q0 -75 25 -101t100 -34v-31zM836 1380l-256 -342h-127l-254 342h69l248 -211l250 211h70z" />
<glyph unicode="&#x14a;" horiz-adv-x="1478" d="M1448 1317q-96 -10 -135 -37q-60 -42 -60 -225v-1055q0 -93 -6 -158.5t-23 -123.5t-46.5 -92t-76.5 -53t-114 -19q-84 0 -138 31.5t-54 80.5q0 34 24.5 57t59.5 23q47 0 98 -65q27 -33 45 -45.5t41 -12.5q21 0 41 11t29 26q17 30 22.5 80t5.5 168v137l-848 1059v-803 q0 -155 37 -205.5t156 -56.5v-39h-481v39q54 4 86.5 12.5t56.5 24t35 46.5t15.5 71.5t4.5 107.5v903q-62 72 -97 92.5t-101 20.5v39h350l788 -991v690q0 187 -59 229q-45 26 -137 33v39h481v-39z" />
<glyph unicode="&#x14b;" d="M868 0q0 -218 -88.5 -332t-257.5 -114q-84 0 -138 31.5t-54 80.5q0 34 24.5 57t59.5 23q47 0 98 -65q27 -33 45 -45.5t41 -12.5q21 0 41 11t29 26q17 30 22.5 80t5.5 168v723q0 198 -149 198q-51 0 -94.5 -23.5t-116.5 -92.5v-576q0 -55 28.5 -77.5t106.5 -28.5v-31h-434 v31q78 6 102.5 35.5t24.5 117.5v508q0 75 -16.5 103t-59.5 28q-39 0 -55 -8v35q158 46 282 92l15 -4v-162q104 98 165 132t132 34q114 0 177.5 -81t63.5 -226v-635z" />
<glyph unicode="&#x14c;" horiz-adv-x="1478" d="M1409 670q0 -204 -86 -363t-241.5 -247.5t-354.5 -88.5q-135 0 -263 56t-218 153q-83 89 -129.5 221t-46.5 277q0 152 50 283.5t137.5 224.5t212 145.5t269.5 52.5q301 0 498 -215q172 -187 172 -499zM1176 672q0 182 -45.5 321.5t-129.5 214.5q-115 103 -262 103 q-172 0 -293 -133q-65 -72 -104 -210t-39 -294q0 -170 47.5 -314.5t126.5 -214.5q114 -100 258 -100q164 0 273 109q73 73 100 149q68 176 68 369zM1059 1546h-637v111h637v-111z" />
<glyph unicode="&#x14d;" d="M963 479q0 -139 -59.5 -253.5t-164 -180t-231.5 -65.5q-193 0 -321 138t-128 345q0 212 126.5 345.5t326.5 133.5q196 0 323.5 -131t127.5 -332zM778 408q0 211 -82 344t-211 133q-109 0 -175 -88t-66 -234q0 -228 90 -395q32 -61 85 -96t113 -35q115 0 180.5 99 t65.5 272zM831 1153h-636v111h636v-111z" />
<glyph unicode="&#x14e;" horiz-adv-x="1478" d="M1409 670q0 -204 -86 -363t-241.5 -247.5t-354.5 -88.5q-135 0 -263 56t-218 153q-83 89 -129.5 221t-46.5 277q0 152 50 283.5t137.5 224.5t212 145.5t269.5 52.5q301 0 498 -215q172 -187 172 -499zM1176 672q0 182 -45.5 321.5t-129.5 214.5q-115 103 -262 103 q-172 0 -293 -133q-65 -72 -104 -210t-39 -294q0 -170 47.5 -314.5t126.5 -214.5q114 -100 258 -100q164 0 273 109q73 73 100 149q68 176 68 369zM1061 1743q0 -112 -90 -197.5t-230 -85.5q-139 0 -229 85.5t-90 197.5h53q24 -85 94.5 -126.5t171.5 -41.5t172 41.5 t95 126.5h53z" />
<glyph unicode="&#x14f;" d="M963 479q0 -139 -59.5 -253.5t-164 -180t-231.5 -65.5q-193 0 -321 138t-128 345q0 212 126.5 345.5t326.5 133.5q196 0 323.5 -131t127.5 -332zM778 408q0 211 -82 344t-211 133q-109 0 -175 -88t-66 -234q0 -228 90 -395q32 -61 85 -96t113 -35q115 0 180.5 99 t65.5 272zM801 1370q-19 -163 -90.5 -242t-200.5 -79q-151 0 -229 110q-30 44 -42.5 89t-13.5 122h60q22 -103 76.5 -151t152.5 -48q90 0 137 41.5t90 157.5h60z" />
<glyph unicode="&#x150;" horiz-adv-x="1478" d="M1409 670q0 -204 -86 -363t-241.5 -247.5t-354.5 -88.5q-135 0 -263 56t-218 153q-83 89 -129.5 221t-46.5 277q0 152 50 283.5t137.5 224.5t212 145.5t269.5 52.5q301 0 498 -215q172 -187 172 -499zM1176 672q0 182 -45.5 321.5t-129.5 214.5q-115 103 -262 103 q-172 0 -293 -133q-65 -72 -104 -210t-39 -294q0 -170 47.5 -314.5t126.5 -214.5q114 -100 258 -100q164 0 273 109q73 73 100 149q68 176 68 369zM1364 1690q0 -42 -66 -68l-342 -164h-88l324 246q31 23 50 31t44 8q37 0 57.5 -14t20.5 -39zM1036 1690q0 -42 -65 -68 l-342 -164h-88l323 246q31 23 50 31t44 8q37 0 57.5 -14t20.5 -39z" />
<glyph unicode="&#x151;" d="M963 479q0 -139 -59.5 -253.5t-164 -180t-231.5 -65.5q-193 0 -321 138t-128 345q0 212 126.5 345.5t326.5 133.5q196 0 323.5 -131t127.5 -332zM778 408q0 211 -82 344t-211 133q-109 0 -175 -88t-66 -234q0 -228 90 -395q32 -61 85 -96t113 -35q115 0 180.5 99 t65.5 272zM1047 1319q0 -47 -62 -86l-315 -199h-82l301 303q28 28 45.5 37.5t40.5 9.5q34 0 53 -17t19 -48zM707 1319q0 -47 -62 -86l-315 -199h-82l301 303q28 28 45.5 37.5t40.5 9.5q34 0 53 -17t19 -48z" />
<glyph unicode="&#x152;" horiz-adv-x="1820" d="M1812 344l-90 -344h-716l-248 -8l-119 -4q-236 0 -393 157q-185 182 -185 514q0 177 54.5 323t152.5 232q174 154 432 154q36 0 134 -6l215 -6h667v-289h-47q-7 48 -15.5 79.5t-25.5 57t-39.5 39.5t-61 23.5t-85.5 12.5t-117 3h-104q-87 0 -110.5 -8.5t-23.5 -40.5v-483 h213q187 0 232 63q32 43 39 137h43v-479h-43q-13 121 -54 162t-147 41h-283v-502q0 -57 23.5 -76.5t91.5 -17.5l254 4q97 3 163 59.5t144 202.5h49zM883 268v811q0 112 -48.5 163.5t-154.5 51.5q-186 0 -287.5 -163.5t-101.5 -464.5q0 -292 100 -447.5t287 -155.5 q109 0 157 48t48 157z" />
<glyph unicode="&#x153;" horiz-adv-x="1478" d="M1413 285q-80 -166 -163 -235.5t-203 -69.5q-95 0 -156 45t-107 149q-59 -105 -128 -149.5t-173 -44.5q-186 0 -304 131t-118 335q0 116 41.5 223t112.5 175q109 98 260 98q95 0 165 -35t146 -121q63 86 123 121t144 35q77 0 146.5 -33.5t111.5 -93.5q35 -47 49.5 -100.5 t19.5 -147.5h-520q6 -132 23 -204.5t57 -143.5q28 -46 78 -74t106 -28q74 0 134.5 41t132.5 139zM702 408q0 229 -60.5 352t-172.5 123q-86 0 -154 -68q-30 -32 -49.5 -106t-19.5 -154q0 -522 246 -522q210 0 210 375zM1186 629v55q0 86 -46 142.5t-116 56.5 q-163 0 -166 -254h328z" />
<glyph unicode="&#x154;" horiz-adv-x="1366" d="M1350 0h-330l-488 631l-114 -4v-404q0 -110 33 -143.5t151 -40.5v-39h-567v39q41 3 66.5 7.5t46.5 14t32 22.5t18 37t9 52t2 74v887q0 39 -2 63t-9 45t-18 32.5t-32 20.5t-46.5 14t-66.5 9v39h565q145 0 263 -37t177 -100q80 -89 80 -224q0 -72 -27.5 -133.5 t-76.5 -101.5q-51 -41 -107.5 -64t-158.5 -43l421 -518q43 -52 81 -71.5t98 -24.5v-39zM897 999q0 145 -91.5 213t-283.5 68q-61 0 -82.5 -15.5t-21.5 -58.5v-504q149 3 220.5 16.5t141.5 53.5q55 29 86 89.5t31 137.5zM920 1690q0 -42 -66 -68l-342 -164h-88l324 246 q31 23 50 31t44 8q37 0 57.5 -14t20.5 -39z" />
<glyph unicode="&#x155;" horiz-adv-x="681" d="M686 834q0 -43 -21.5 -68t-58.5 -25q-35 0 -82 41q-36 31 -53 31q-41 0 -92 -59.5t-51 -108.5v-461q0 -88 35 -118t139 -35v-31h-492v31q98 19 122 42t24 99v512q0 67 -16 95t-54 28q-33 0 -72 -8v32q156 50 303 111l11 -4v-188q75 109 128 150.5t117 41.5q53 0 83 -28.5 t30 -79.5zM637 1317q0 -47 -62 -86l-315 -199h-82l301 303q28 28 45.5 37.5t40.5 9.5q34 0 53 -17t19 -48z" />
<glyph unicode="&#x156;" horiz-adv-x="1366" d="M1350 0h-330l-488 631l-114 -4v-404q0 -110 33 -143.5t151 -40.5v-39h-567v39q41 3 66.5 7.5t46.5 14t32 22.5t18 37t9 52t2 74v887q0 39 -2 63t-9 45t-18 32.5t-32 20.5t-46.5 14t-66.5 9v39h565q145 0 263 -37t177 -100q80 -89 80 -224q0 -72 -27.5 -133.5 t-76.5 -101.5q-51 -41 -107.5 -64t-158.5 -43l421 -518q43 -52 81 -71.5t98 -24.5v-39zM897 999q0 145 -91.5 213t-283.5 68q-61 0 -82.5 -15.5t-21.5 -58.5v-504q149 3 220.5 16.5t141.5 53.5q55 29 86 89.5t31 137.5zM745 -260q0 -92 -63 -178t-166 -137l-18 38 q168 115 168 218q0 12 -8.5 20t-20.5 8q-2 0 -16 -4q-24 -4 -39 -4q-56 0 -88.5 27.5t-32.5 76.5q0 52 33.5 84.5t87.5 32.5q69 0 116 -52.5t47 -129.5z" />
<glyph unicode="&#x157;" horiz-adv-x="681" d="M686 834q0 -43 -21.5 -68t-58.5 -25q-35 0 -82 41q-36 31 -53 31q-41 0 -92 -59.5t-51 -108.5v-461q0 -88 35 -118t139 -35v-31h-492v31q98 19 122 42t24 99v512q0 67 -16 95t-54 28q-33 0 -72 -8v32q156 50 303 111l11 -4v-188q75 109 128 150.5t117 41.5q53 0 83 -28.5 t30 -79.5zM399 -260q0 -92 -63 -178t-166 -137l-18 38q167 114 167 218q0 12 -8 20t-20 8q-3 0 -17 -4q-24 -4 -38 -4q-56 0 -88.5 27.5t-32.5 76.5q0 52 33.5 84.5t87.5 32.5q69 0 116 -52.5t47 -129.5z" />
<glyph unicode="&#x158;" horiz-adv-x="1366" d="M1350 0h-330l-488 631l-114 -4v-404q0 -110 33 -143.5t151 -40.5v-39h-567v39q41 3 66.5 7.5t46.5 14t32 22.5t18 37t9 52t2 74v887q0 39 -2 63t-9 45t-18 32.5t-32 20.5t-46.5 14t-66.5 9v39h565q145 0 263 -37t177 -100q80 -89 80 -224q0 -72 -27.5 -133.5 t-76.5 -101.5q-51 -41 -107.5 -64t-158.5 -43l421 -518q43 -52 81 -71.5t98 -24.5v-39zM897 999q0 145 -91.5 213t-283.5 68q-61 0 -82.5 -15.5t-21.5 -58.5v-504q149 3 220.5 16.5t141.5 53.5q55 29 86 89.5t31 137.5zM956 1735l-274 -265h-158l-276 265h98l256 -162 l256 162h98z" />
<glyph unicode="&#x159;" horiz-adv-x="681" d="M686 834q0 -43 -21.5 -68t-58.5 -25q-35 0 -82 41q-36 31 -53 31q-41 0 -92 -59.5t-51 -108.5v-461q0 -88 35 -118t139 -35v-31h-492v31q98 19 122 42t24 99v512q0 67 -16 95t-54 28q-33 0 -72 -8v32q156 50 303 111l11 -4v-188q75 109 128 150.5t117 41.5q53 0 83 -28.5 t30 -79.5zM647 1380l-256 -342h-127l-254 342h70l248 -211l250 211h69z" />
<glyph unicode="&#x15a;" horiz-adv-x="1138" d="M1006 344q0 -158 -120 -265.5t-298 -107.5q-124 0 -242 47q-64 23 -96 23q-23 0 -39 -19.5t-18 -48.5h-46l-61 435h47q77 -188 176.5 -275.5t237.5 -87.5q112 0 182 64t70 165q0 74 -29 121q-75 115 -305 240q-171 91 -245.5 183t-74.5 214q0 168 119 266q107 86 232 86 q103 0 221 -45q56 -24 90 -24q53 0 65 69h43l46 -436h-52q-24 90 -50.5 140t-74.5 100q-109 112 -249 112q-95 0 -154 -51.5t-59 -136.5q0 -84 69.5 -157.5t231.5 -161.5q203 -110 293 -216t90 -233zM852 1690q0 -42 -66 -68l-342 -164h-88l324 246q31 23 50 31t44 8 q37 0 57.5 -14t20.5 -39z" />
<glyph unicode="&#x15b;" horiz-adv-x="796" d="M713 242q0 -107 -85 -184.5t-202 -77.5q-57 0 -152 20q-65 16 -94 16q-19 0 -28 -4.5t-19 -19.5h-27v319h33q35 -156 94.5 -221t165.5 -65q78 0 124 40t46 107q0 94 -106 154l-119 67q-131 75 -185.5 142t-54.5 153q0 112 78.5 182t204.5 70q72 0 139 -25q32 -14 56 -14 q6 0 28 17l4 4h23l8 -279h-31q-35 138 -86 195t-139 57q-71 0 -114.5 -38t-43.5 -101q0 -89 88 -140l222 -131q94 -55 133 -110.5t39 -132.5zM696 1317q0 -48 -61 -86l-316 -199h-81l301 303q28 28 45.5 37.5t40.5 9.5q34 0 52.5 -17t18.5 -48z" />
<glyph unicode="&#x15c;" horiz-adv-x="1138" d="M1006 344q0 -158 -120 -265.5t-298 -107.5q-124 0 -242 47q-64 23 -96 23q-23 0 -39 -19.5t-18 -48.5h-46l-61 435h47q77 -188 176.5 -275.5t237.5 -87.5q112 0 182 64t70 165q0 74 -29 121q-75 115 -305 240q-171 91 -245.5 183t-74.5 214q0 168 119 266q107 86 232 86 q103 0 221 -45q56 -24 90 -24q53 0 65 69h43l46 -436h-52q-24 90 -50.5 140t-74.5 100q-109 112 -249 112q-95 0 -154 -51.5t-59 -136.5q0 -84 69.5 -157.5t231.5 -161.5q203 -110 293 -216t90 -233zM891 1470h-98l-256 162l-256 -162h-99l275 265h157z" />
<glyph unicode="&#x15d;" horiz-adv-x="796" d="M713 242q0 -107 -85 -184.5t-202 -77.5q-57 0 -152 20q-65 16 -94 16q-19 0 -28 -4.5t-19 -19.5h-27v319h33q35 -156 94.5 -221t165.5 -65q78 0 124 40t46 107q0 94 -106 154l-119 67q-131 75 -185.5 142t-54.5 153q0 112 78.5 182t204.5 70q72 0 139 -25q32 -14 56 -14 q6 0 28 17l4 4h23l8 -279h-31q-35 138 -86 195t-139 57q-71 0 -114.5 -38t-43.5 -101q0 -89 88 -140l222 -131q94 -55 133 -110.5t39 -132.5zM707 1038h-70l-250 211l-248 -211h-69l254 342h127z" />
<glyph unicode="&#x15e;" horiz-adv-x="1138" d="M1006 344q0 -148 -106.5 -252.5t-268.5 -118.5l-49 -127q35 7 53 7q83 0 129.5 -37.5t46.5 -104.5q0 -80 -69 -126t-187 -46q-94 0 -172 33l29 63q73 -24 133 -24q52 0 82 24.5t30 65.5q0 40 -25 57t-83 17q-36 0 -57 -8l-15 10l80 194q-108 6 -211 47q-64 23 -96 23 q-23 0 -39 -19.5t-18 -48.5h-46l-61 435h47q77 -188 176.5 -275.5t237.5 -87.5q112 0 182 64t70 165q0 74 -29 121q-75 115 -305 240q-171 91 -245.5 183t-74.5 214q0 168 119 266q107 86 232 86q103 0 221 -45q56 -24 90 -24q53 0 65 69h43l46 -436h-52q-24 90 -50.5 140 t-74.5 100q-109 112 -249 112q-95 0 -154 -51.5t-59 -136.5q0 -84 69.5 -157.5t231.5 -161.5q203 -110 293 -216t90 -233z" />
<glyph unicode="&#x15f;" horiz-adv-x="796" d="M713 242q0 -107 -85 -184.5t-202 -77.5l-39 -113q30 6 53 6q83 0 129.5 -37.5t46.5 -103.5q0 -80 -69 -126t-187 -46q-96 0 -172 32l29 64q79 -25 133 -25q52 0 82.5 24.5t30.5 65.5q0 40 -25 57t-84 17q-36 0 -57 -8l-14 10l73 189q-22 2 -82 14q-65 16 -94 16 q-19 0 -28 -4.5t-19 -19.5h-27v319h33q35 -156 94.5 -221t165.5 -65q78 0 124 40t46 107q0 94 -106 154l-119 67q-131 75 -185.5 142t-54.5 153q0 112 78.5 182t204.5 70q72 0 139 -25q32 -14 56 -14q6 0 28 17l4 4h23l8 -279h-31q-35 138 -86 195t-139 57q-71 0 -114.5 -38 t-43.5 -101q0 -89 88 -140l222 -131q94 -55 133 -110.5t39 -132.5z" />
<glyph unicode="&#x160;" horiz-adv-x="1138" d="M1006 344q0 -158 -120 -265.5t-298 -107.5q-124 0 -242 47q-64 23 -96 23q-23 0 -39 -19.5t-18 -48.5h-46l-61 435h47q77 -188 176.5 -275.5t237.5 -87.5q112 0 182 64t70 165q0 74 -29 121q-75 115 -305 240q-171 91 -245.5 183t-74.5 214q0 168 119 266q107 86 232 86 q103 0 221 -45q56 -24 90 -24q53 0 65 69h43l46 -436h-52q-24 90 -50.5 140t-74.5 100q-109 112 -249 112q-95 0 -154 -51.5t-59 -136.5q0 -84 69.5 -157.5t231.5 -161.5q203 -110 293 -216t90 -233zM889 1735l-275 -265h-157l-277 265h99l256 -162l256 162h98z" />
<glyph unicode="&#x161;" horiz-adv-x="796" d="M713 242q0 -107 -85 -184.5t-202 -77.5q-57 0 -152 20q-65 16 -94 16q-19 0 -28 -4.5t-19 -19.5h-27v319h33q35 -156 94.5 -221t165.5 -65q78 0 124 40t46 107q0 94 -106 154l-119 67q-131 75 -185.5 142t-54.5 153q0 112 78.5 182t204.5 70q72 0 139 -25q32 -14 56 -14 q6 0 28 17l4 4h23l8 -279h-31q-35 138 -86 195t-139 57q-71 0 -114.5 -38t-43.5 -101q0 -89 88 -140l222 -131q94 -55 133 -110.5t39 -132.5zM707 1380l-256 -342h-127l-254 342h69l248 -211l250 211h70z" />
<glyph unicode="&#x162;" horiz-adv-x="1251" d="M1214 1008h-49q-12 60 -23.5 98t-30 69.5t-39 48t-55.5 28t-75 15t-102 3.5h-111v-1047q0 -112 35.5 -145t161.5 -39v-39h-254l-60 -154q35 7 54 7q83 0 129.5 -37.5t46.5 -104.5q0 -80 -69 -126t-187 -46q-94 0 -172 33l28 63q73 -24 133 -24q52 0 82.5 24.5t30.5 65.5 q0 40 -25 57t-83 17q-37 0 -58 -8l-14 10l92 223h-272v39q46 3 73.5 6.5t51.5 13t35.5 22t19.5 37t10 53t2 75.5v1024h-110q-61 0 -101 -3.5t-74.5 -14.5t-55.5 -28t-39.5 -48.5t-30.5 -70t-25 -97.5h-49l12 348h1155z" />
<glyph unicode="&#x163;" horiz-adv-x="569" d="M571 135q-85 -134 -200 -151l-45 -117q30 6 53 6q83 0 129.5 -37t46.5 -104q0 -80 -69 -126t-187 -46q-96 0 -172 32l29 64q76 -25 133 -25q52 0 82 24.5t30 65.5q0 40 -25 57t-83 17q-36 0 -57 -8l-15 10l76 185q-154 18 -154 258v616h-108q-8 5 -8 14q0 18 34 39 q85 50 199 219q27 35 41 58q14 0 14 -27v-237h207v-66h-207v-586q0 -98 25 -141t82 -43q34 0 61.5 16t61.5 56z" />
<glyph unicode="&#x164;" horiz-adv-x="1251" d="M1214 1008h-49q-12 60 -23.5 98t-30 69.5t-39 48t-55.5 28t-75 15t-102 3.5h-111v-1047q0 -112 35.5 -145t161.5 -39v-39h-598v39q46 3 73.5 6.5t51.5 13t35.5 22t19.5 37t10 53t2 75.5v1024h-110q-61 0 -101 -3.5t-74.5 -14.5t-55.5 -28t-39.5 -48.5t-30.5 -70 t-25 -97.5h-49l12 348h1155zM979 1735l-274 -265h-158l-277 265h99l256 -162l256 162h98z" />
<glyph unicode="&#x165;" horiz-adv-x="569" d="M571 135q-99 -155 -247 -155q-181 0 -181 260v616h-108q-8 5 -8 14q0 18 34 39q85 50 199 219q27 35 41 58q14 0 14 -27v-237h207v-66h-207v-586q0 -98 25 -141t82 -43q34 0 61.5 16t61.5 56zM641 1278q0 -92 -63 -178t-166 -137l-19 38q168 115 168 218q0 12 -8.5 20 t-20.5 8q-2 0 -16 -4q-24 -4 -39 -4q-56 0 -88.5 27.5t-32.5 76.5q0 52 33.5 84.5t87.5 32.5q69 0 116.5 -52.5t47.5 -129.5z" />
<glyph unicode="&#x168;" horiz-adv-x="1478" d="M1444 1317q-45 -5 -73 -11.5t-51.5 -19.5t-35.5 -29t-20 -46t-10.5 -65t-2.5 -91v-535q0 -119 -15 -196.5t-52 -141.5q-121 -211 -457 -211q-261 0 -387.5 128.5t-126.5 394.5v639q0 113 -31 144t-153 40v39h579v-39q-123 -10 -154.5 -41.5t-31.5 -142.5v-656 q0 -179 51 -270q84 -146 301 -146q115 0 207 44t133 118q47 87 47 279v553q0 154 -36 203.5t-156 58.5v39h475v-39zM1128 1710q-32 -117 -81.5 -167t-133.5 -50q-39 0 -71 9.5t-94 39.5l-48 23q-49 22 -84 22q-70 0 -104 -94h-59q23 100 76.5 153.5t129.5 53.5q74 0 144 -37 l49 -25q65 -30 109 -30q35 0 58.5 22t49.5 80h59z" />
<glyph unicode="&#x169;" d="M981 74q-170 -47 -281 -92l-8 4v170l-88 -88q-41 -41 -97.5 -64.5t-113.5 -23.5q-113 0 -180.5 72.5t-67.5 193.5v516q0 71 -27 99t-100 32v29h299v-668q0 -64 43 -110t103 -46q98 0 184 74q35 25 35 104v482q0 76 -28.5 100t-123.5 29v35h324v-703q0 -71 23 -94t94 -23 h10v-28zM838 1317q-32 -117 -81.5 -167t-133.5 -50q-39 0 -71.5 9.5t-94.5 39.5l-47 22q-51 23 -84 23q-71 0 -105 -94h-59q23 100 76.5 153.5t130.5 53.5q73 0 143 -37l49 -25q67 -31 109 -31q35 0 58.5 22t49.5 81h60z" />
<glyph unicode="&#x16a;" horiz-adv-x="1478" d="M1444 1317q-45 -5 -73 -11.5t-51.5 -19.5t-35.5 -29t-20 -46t-10.5 -65t-2.5 -91v-535q0 -119 -15 -196.5t-52 -141.5q-121 -211 -457 -211q-261 0 -387.5 128.5t-126.5 394.5v639q0 113 -31 144t-153 40v39h579v-39q-123 -10 -154.5 -41.5t-31.5 -142.5v-656 q0 -179 51 -270q84 -146 301 -146q115 0 207 44t133 118q47 87 47 279v553q0 154 -36 203.5t-156 58.5v39h475v-39zM1110 1546h-637v111h637v-111z" />
<glyph unicode="&#x16b;" d="M981 74q-170 -47 -281 -92l-8 4v170l-88 -88q-41 -41 -97.5 -64.5t-113.5 -23.5q-113 0 -180.5 72.5t-67.5 193.5v516q0 71 -27 99t-100 32v29h299v-668q0 -64 43 -110t103 -46q98 0 184 74q35 25 35 104v482q0 76 -28.5 100t-123.5 29v35h324v-703q0 -71 23 -94t94 -23 h10v-28zM819 1153h-637v111h637v-111z" />
<glyph unicode="&#x16c;" horiz-adv-x="1478" d="M1444 1317q-45 -5 -73 -11.5t-51.5 -19.5t-35.5 -29t-20 -46t-10.5 -65t-2.5 -91v-535q0 -119 -15 -196.5t-52 -141.5q-121 -211 -457 -211q-261 0 -387.5 128.5t-126.5 394.5v639q0 113 -31 144t-153 40v39h579v-39q-123 -10 -154.5 -41.5t-31.5 -142.5v-656 q0 -179 51 -270q84 -146 301 -146q115 0 207 44t133 118q47 87 47 279v553q0 154 -36 203.5t-156 58.5v39h475v-39zM1112 1743q0 -112 -90 -197.5t-229 -85.5q-140 0 -230 85.5t-90 197.5h53q24 -85 95 -126.5t172 -41.5t171.5 41.5t94.5 126.5h53z" />
<glyph unicode="&#x16d;" d="M981 74q-170 -47 -281 -92l-8 4v170l-88 -88q-41 -41 -97.5 -64.5t-113.5 -23.5q-113 0 -180.5 72.5t-67.5 193.5v516q0 71 -27 99t-100 32v29h299v-668q0 -64 43 -110t103 -46q98 0 184 74q35 25 35 104v482q0 76 -28.5 100t-123.5 29v35h324v-703q0 -71 23 -94t94 -23 h10v-28zM788 1370q-19 -163 -90 -242t-200 -79q-152 0 -230 110q-30 43 -42 88.5t-13 122.5h59q22 -103 77 -151t153 -48q90 0 137 41.5t90 157.5h59z" />
<glyph unicode="&#x16e;" horiz-adv-x="1478" d="M1444 1317q-45 -5 -73 -11.5t-51.5 -19.5t-35.5 -29t-20 -46t-10.5 -65t-2.5 -91v-535q0 -119 -15 -196.5t-52 -141.5q-121 -211 -457 -211q-261 0 -387.5 128.5t-126.5 394.5v639q0 113 -31 144t-153 40v39h579v-39q-123 -10 -154.5 -41.5t-31.5 -142.5v-656 q0 -179 51 -270q84 -146 301 -146q115 0 207 44t133 118q47 87 47 279v553q0 154 -36 203.5t-156 58.5v39h475v-39zM995 1630q0 -85 -59.5 -144t-144.5 -59q-86 0 -144.5 59.5t-58.5 145.5q0 83 60 143t143 60q85 0 144.5 -60t59.5 -145zM926 1630q0 55 -39.5 95t-93.5 40 q-56 0 -96 -39t-40 -94q0 -56 38.5 -95.5t92.5 -39.5q57 0 97.5 39t40.5 94z" />
<glyph unicode="&#x16f;" d="M981 74q-170 -47 -281 -92l-8 4v170l-88 -88q-41 -41 -97.5 -64.5t-113.5 -23.5q-113 0 -180.5 72.5t-67.5 193.5v516q0 71 -27 99t-100 32v29h299v-668q0 -64 43 -110t103 -46q98 0 184 74q35 25 35 104v482q0 76 -28.5 100t-123.5 29v35h324v-703q0 -71 23 -94t94 -23 h10v-28zM705 1208q0 -84 -60 -143t-145 -59q-86 0 -144.5 59t-58.5 145q0 83 60 143t143 60q85 0 145 -60t60 -145zM635 1208q0 55 -39.5 95t-93.5 40q-56 0 -95.5 -39t-39.5 -94q0 -56 38.5 -95.5t92.5 -39.5q57 0 97 39t40 94z" />
<glyph unicode="&#x170;" horiz-adv-x="1478" d="M1444 1317q-45 -5 -73 -11.5t-51.5 -19.5t-35.5 -29t-20 -46t-10.5 -65t-2.5 -91v-535q0 -119 -15 -196.5t-52 -141.5q-121 -211 -457 -211q-261 0 -387.5 128.5t-126.5 394.5v639q0 113 -31 144t-153 40v39h579v-39q-123 -10 -154.5 -41.5t-31.5 -142.5v-656 q0 -179 51 -270q84 -146 301 -146q115 0 207 44t133 118q47 87 47 279v553q0 154 -36 203.5t-156 58.5v39h475v-39zM1415 1690q0 -42 -65 -68l-342 -164h-88l323 246q31 23 50 31t44 8q37 0 57.5 -14t20.5 -39zM1087 1690q0 -42 -65 -68l-342 -164h-88l323 246q30 23 50 31 t45 8q37 0 57 -14t20 -39z" />
<glyph unicode="&#x171;" d="M981 74q-170 -47 -281 -92l-8 4v170l-88 -88q-41 -41 -97.5 -64.5t-113.5 -23.5q-113 0 -180.5 72.5t-67.5 193.5v516q0 71 -27 99t-100 32v29h299v-668q0 -64 43 -110t103 -46q98 0 184 74q35 25 35 104v482q0 76 -28.5 100t-123.5 29v35h324v-703q0 -71 23 -94t94 -23 h10v-28zM1034 1319q0 -48 -61 -86l-316 -199h-82l302 303q28 28 45.5 37.5t40.5 9.5q34 0 52.5 -17t18.5 -48zM694 1319q0 -48 -61 -86l-316 -199h-81l301 303q28 28 45.5 37.5t40.5 9.5q34 0 52.5 -17t18.5 -48z" />
<glyph unicode="&#x172;" horiz-adv-x="1478" d="M1444 1317q-45 -5 -73 -11.5t-51.5 -19.5t-35.5 -29t-20 -46t-10.5 -65t-2.5 -91v-535q0 -119 -15 -196.5t-52 -141.5q-70 -126 -223 -176q-4 -1 -20.5 -7t-21.5 -8l-20 -8t-21 -9t-18.5 -9t-19 -10.5t-17 -11t-16.5 -13t-13 -14.5t-12 -16q-47 -79 -47 -170 q0 -57 24.5 -91t69.5 -34q35 0 61 24t50 64l39 -29q-34 -74 -83 -120t-128 -46q-66 0 -112 51t-46 125q0 116 74 213q24 38 78 84h-35q-261 0 -387.5 128.5t-126.5 394.5v639q0 113 -31 144t-153 40v39h579v-39q-123 -10 -154.5 -41.5t-31.5 -142.5v-656q0 -179 51 -270 q84 -146 301 -146q115 0 207 44t133 118q47 87 47 279v553q0 154 -36 203.5t-156 58.5v39h475v-39z" />
<glyph unicode="&#x173;" d="M981 74l-59 -17q-126 -38 -197 -157q-49 -77 -49 -170q0 -57 24.5 -91t69.5 -34q35 0 61 24t50 64l39 -29q-34 -74 -83 -120t-128 -46q-66 0 -112 51t-46 125q0 116 74 213q35 46 67 99v170l-88 -88q-41 -41 -97.5 -64.5t-113.5 -23.5q-113 0 -180.5 72.5t-67.5 193.5 v516q0 71 -27 99t-100 32v29h299v-668q0 -64 43 -110t103 -46q98 0 184 74q35 25 35 104v482q0 76 -28.5 100t-123.5 29v35h324v-703q0 -71 23 -94t94 -23h10v-28z" />
<glyph unicode="&#x174;" horiz-adv-x="1933" d="M1909 1317q-81 -15 -111 -40.5t-59 -105.5l-418 -1194h-31l-327 867l-316 -867h-31l-395 1100q-57 145 -95 189t-116 51v39h502v-39q-78 -4 -105.5 -18t-27.5 -48q0 -36 22 -94l295 -770l219 578l-67 168q-53 123 -86 153t-121 31v39h547v-39q-83 -2 -120.5 -18.5 t-37.5 -53.5q0 -30 31 -104l24 -62l271 -698l256 694q33 94 33 154q0 41 -32 60.5t-110 27.5v39h406v-39zM1319 1470h-98l-256 162l-256 -162h-99l275 265h157z" />
<glyph unicode="&#x175;" horiz-adv-x="1478" d="M1421 891q-30 -10 -43 -27.5t-41 -83.5l-282 -708q-25 -61 -36 -81t-22 -20q-9 0 -18.5 16.5t-30.5 71.5l-186 484l-230 -492q-38 -80 -51 -80q-16 0 -53 90l-276 701q-34 78 -54 102t-55 27v31h369v-31q-53 -6 -74 -21t-21 -47q0 -29 13 -61l202 -535l187 408l-41 115 q-31 83 -57.5 109t-83.5 32v31h415v-31q-71 -10 -94.5 -25t-23.5 -49q0 -21 4.5 -37t29.5 -84l172 -458l185 454q35 84 35 135q0 26 -19.5 40t-71.5 24v31h252v-31zM1063 1038h-70l-250 211l-247 -211h-70l254 342h127z" />
<glyph unicode="&#x176;" horiz-adv-x="1478" d="M1440 1317q-78 -6 -133.5 -52t-149.5 -182l-303 -462v-398q0 -117 37 -149t174 -35v-39h-627v39q50 2 80 5.5t56 12.5t38 21t20.5 37t10.5 54t2 77v356l-268 393q-84 118 -125.5 173t-80 93t-62.5 46t-64 10v39h573v-39q-23 -2 -51 -2q-94 -6 -94 -60q0 -40 35 -90 l303 -454l293 463q29 50 29 75q0 37 -31 51.5t-111 16.5v39h449v-39zM1106 1470h-98l-256 162l-256 -162h-99l275 265h157z" />
<glyph unicode="&#x177;" d="M973 891q-37 -5 -58 -24t-41 -68l-315 -836q-83 -221 -163 -315t-183 -94q-65 0 -108.5 33.5t-43.5 84.5q0 36 26.5 63t62.5 27q47 0 108 -22q28 -14 51 -14q22 0 51.5 26.5t51.5 65.5q26 45 54 121t28 100q0 19 -23 76l-338 712q-25 54 -104 66v29h422v-31 q-66 -3 -92.5 -15t-26.5 -40q0 -30 20 -78l236 -518l198 565q9 21 9 35q0 51 -99 51v31h277v-31zM893 1038h-70l-250 211l-247 -211h-70l254 342h127z" />
<glyph unicode="&#x178;" horiz-adv-x="1478" d="M1440 1317q-78 -6 -133.5 -52t-149.5 -182l-303 -462v-398q0 -117 37 -149t174 -35v-39h-627v39q50 2 80 5.5t56 12.5t38 21t20.5 37t10.5 54t2 77v356l-268 393q-84 118 -125.5 173t-80 93t-62.5 46t-64 10v39h573v-39q-23 -2 -51 -2q-94 -6 -94 -60q0 -40 35 -90 l303 -454l293 463q29 50 29 75q0 37 -31 51.5t-111 16.5v39h449v-39zM649 1602q0 -41 -30.5 -71t-73.5 -30q-41 0 -70 30t-29 73q0 40 30 70t69 30q43 0 73.5 -30.5t30.5 -71.5zM1057 1602q0 -41 -31 -71t-74 -30q-41 0 -69.5 30t-28.5 73q0 40 30 70t68 30q43 0 74 -30.5 t31 -71.5z" />
<glyph unicode="&#x179;" horiz-adv-x="1251" d="M1223 360l-49 -360h-1156v31l895 1247h-452q-205 0 -275 -88q-26 -33 -41 -71.5t-28 -112.5h-54l41 350h1078v-31l-885 -1247h526q179 0 256 80q31 34 51 75.5t46 126.5h47zM961 1690q0 -42 -66 -68l-342 -164h-88l323 246q30 23 50 31t45 8q37 0 57.5 -14t20.5 -39z" />
<glyph unicode="&#x17a;" horiz-adv-x="909" d="M856 276l-29 -276h-772v31l545 829h-283q-93 0 -126 -34t-46 -146h-36l6 242h710v-31l-551 -830h283q158 0 203 54q20 27 32 60.5t27 109.5zM778 1317q0 -48 -61 -86l-316 -199h-82l302 303q28 28 45.5 37.5t40.5 9.5q34 0 52.5 -17t18.5 -48z" />
<glyph unicode="&#x17b;" horiz-adv-x="1251" d="M1223 360l-49 -360h-1156v31l895 1247h-452q-205 0 -275 -88q-26 -33 -41 -71.5t-28 -112.5h-54l41 350h1078v-31l-885 -1247h526q179 0 256 80q31 34 51 75.5t46 126.5h47zM748 1602q0 -44 -30.5 -74.5t-74.5 -30.5q-43 0 -73.5 30.5t-30.5 74.5q0 43 30.5 73.5 t73.5 30.5q44 0 74.5 -30.5t30.5 -73.5z" />
<glyph unicode="&#x17c;" horiz-adv-x="909" d="M856 276l-29 -276h-772v31l545 829h-283q-93 0 -126 -34t-46 -146h-36l6 242h710v-31l-551 -830h283q158 0 203 54q20 27 32 60.5t27 109.5zM573 1208q0 -44 -30 -74t-74 -30q-43 0 -73.5 30t-30.5 74q0 43 30.5 74t73.5 31q44 0 74 -31t30 -74z" />
<glyph unicode="&#x17d;" horiz-adv-x="1251" d="M1223 360l-49 -360h-1156v31l895 1247h-452q-205 0 -275 -88q-26 -33 -41 -71.5t-28 -112.5h-54l41 350h1078v-31l-885 -1247h526q179 0 256 80q31 34 51 75.5t46 126.5h47zM997 1735l-274 -265h-158l-276 265h98l256 -162l256 162h98z" />
<glyph unicode="&#x17e;" horiz-adv-x="909" d="M856 276l-29 -276h-772v31l545 829h-283q-93 0 -126 -34t-46 -146h-36l6 242h710v-31l-551 -830h283q158 0 203 54q20 27 32 60.5t27 109.5zM788 1380l-256 -342h-126l-254 342h69l248 -211l250 211h69z" />
<glyph unicode="&#x17f;" horiz-adv-x="681" d="M784 1272q0 -35 -25.5 -59.5t-60.5 -24.5q-26 0 -46.5 17t-45.5 57q-28 44 -52 61.5t-56 17.5q-115 0 -115 -182v-946q0 -50 4 -78t14 -50t33 -32t54 -15t85 -7v-31h-532v31q58 3 89 10t50.5 28t25 52.5t5.5 91.5v643h-107v66h107q1 122 16.5 190.5t55.5 136.5 q40 70 116.5 110t171.5 40q92 0 152.5 -36t60.5 -91z" />
<glyph unicode="&#x18e;" horiz-adv-x="1251" d="M1223 0h-1106l-92 346h57q40 -86 77 -136t93.5 -81.5t127.5 -42t185 -10.5h56q170 0 198 22q17 11 17 66v506h-316q-126 0 -165.5 -34.5t-59.5 -162.5h-47v475h47q20 -126 60 -160t165 -34h316v454q0 43 -13.5 56.5t-54.5 13.5h-276q-91 0 -142 -7t-87 -32t-52.5 -64 t-30.5 -112h-51l6 293h1088v-39q-114 -9 -146.5 -42t-32.5 -142v-910q0 -109 33 -142.5t146 -41.5v-39z" />
<glyph unicode="&#x192;" d="M1004 1245q0 -38 -28 -65t-67 -27q-31 0 -54.5 21t-23.5 49q0 18 17 49q10 20 10 28q0 11 -11.5 18t-29.5 7q-49 0 -84 -35q-29 -31 -55 -117.5t-35 -183.5l-16 -155h258l-21 -64h-246l-32 -256q-37 -283 -69 -430.5t-79 -255.5q-51 -111 -113.5 -163t-146.5 -52 q-72 0 -118 39.5t-46 101.5q0 40 27 66t68 26q34 0 53.5 -19.5t19.5 -53.5q0 -21 -18 -56q-12 -21 -12 -28q0 -11 12.5 -19t30.5 -8q137 0 167 356l31 353q19 207 25 231l22 137l4 31h-227l21 64h219q25 159 55.5 249t89.5 177q39 58 100.5 91t126.5 33q72 0 123.5 -40.5 t51.5 -98.5z" />
<glyph unicode="&#x1a0;" horiz-adv-x="1478" d="M1409 670q0 -204 -86 -363t-241.5 -247.5t-354.5 -88.5q-135 0 -263 56t-218 153q-83 89 -129.5 221t-46.5 277q0 152 50 283.5t137.5 224.5t212 145.5t269.5 52.5q199 0 351 -94q26 4 52.5 26.5t26.5 37.5q0 12 -13.5 25.5t-30.5 25t-30.5 32t-13.5 44.5q0 37 32.5 67.5 t68.5 30.5q49 0 85 -41.5t36 -93.5q0 -62 -46.5 -112t-119.5 -72q46 -34 100 -91q172 -187 172 -499zM1176 672q0 182 -45.5 321.5t-129.5 214.5q-115 103 -262 103q-172 0 -293 -133q-65 -72 -104 -210t-39 -294q0 -170 47.5 -314.5t126.5 -214.5q114 -100 258 -100 q164 0 273 109q73 73 100 149q68 176 68 369z" />
<glyph unicode="&#x1a1;" d="M969 1010q0 -59 -42.5 -108t-109.5 -73q69 -64 107.5 -154.5t38.5 -195.5q0 -139 -59.5 -253.5t-164 -180t-231.5 -65.5q-193 0 -321 138t-128 345q0 212 126.5 345.5t326.5 133.5q145 0 260 -78v4q64 24 64 52q0 12 -14 25.5t-30 25t-30 32t-14 44.5q0 37 32 67.5 t68 30.5q49 0 85 -41.5t36 -93.5zM778 408q0 211 -82 344t-211 133q-109 0 -175 -88t-66 -234q0 -228 90 -395q32 -61 85 -96t113 -35q115 0 180.5 99t65.5 272z" />
<glyph unicode="&#x1af;" horiz-adv-x="1445" d="M1446 1444q0 -68 -56 -123t-139 -70v-731q0 -288 -127 -418.5t-397 -130.5q-261 0 -387.5 128.5t-126.5 394.5v639q0 113 -31 144t-153 40v39h579v-39q-123 -10 -154.5 -41.5t-31.5 -142.5v-656q0 -222 84.5 -319t267.5 -97q115 0 207 44t133 118q47 84 47 279v553 q0 154 -36 203.5t-156 58.5v39h282v-53q62 25 62 51q0 12 -13.5 25.5t-30.5 25.5t-30.5 32t-13.5 44q0 37 32 67.5t68 30.5q49 0 85 -41.5t36 -93.5z" />
<glyph unicode="&#x1b0;" horiz-adv-x="1050" d="M1051 1012q0 -68 -56.5 -123t-140.5 -70v-600q0 -71 23 -94t94 -23h10v-28q-170 -47 -281 -92l-8 4v170l-88 -88q-41 -41 -97.5 -64.5t-113.5 -23.5q-113 0 -180.5 72.5t-67.5 193.5v516q0 71 -27 99t-100 32v29h299v-668q0 -64 43 -110t103 -46q34 0 69.5 9t70.5 28 t57 56t22 85v482q0 76 -28.5 100t-123.5 29v35h324v-52q64 24 64 52q0 12 -14 25.5t-30.5 25t-30.5 32t-14 44.5q0 37 32.5 67.5t68.5 30.5q49 0 85 -41.5t36 -93.5z" />
<glyph unicode="&#x1dd;" horiz-adv-x="909" d="M868 483q0 -224 -118.5 -363.5t-309.5 -139.5q-80 0 -148 30.5t-114 85.5q-39 50 -57.5 104.5t-30.5 153.5h631q-3 97 -17 159.5t-45 123.5q-87 164 -258 164q-98 0 -171 -49t-146 -166l-33 14q65 166 176 254t258 88q177 0 280 -123.5t103 -335.5zM717 289h-418 q20 -134 63.5 -185t137.5 -51t147 57.5t70 178.5z" />
<glyph unicode="&#x1e6;" horiz-adv-x="1478" d="M1452 688q-89 -7 -116 -37t-27 -121v-415q-62 -54 -222 -99t-292 -45q-168 0 -312 56.5t-247 162.5q-170 179 -170 476q0 207 89.5 370.5t250 255.5t362.5 92q140 0 279 -47q53 -20 90 -20q32 0 57.5 19t34.5 48h45l16 -432h-47q-39 95 -69.5 145.5t-75.5 92.5 q-122 113 -295 113q-104 0 -196.5 -40.5t-160.5 -115.5q-67 -75 -107 -204.5t-40 -274.5q0 -286 144.5 -450.5t394.5 -164.5q110 0 191 36t81 85v332q0 128 -43 153q-34 22 -137 29v37h522v-37zM1122 1735l-274 -265h-158l-276 265h98l256 -162l256 162h98z" />
<glyph unicode="&#x1e7;" d="M963 795h-170q38 -86 38 -172q0 -150 -98 -232q-99 -86 -221 -86q-20 0 -78 6q-3 0 -39 4q-41 -12 -82 -55t-41 -74q0 -49 160 -55l264 -12q114 -4 181 -64t67 -155q0 -116 -113 -207q-80 -65 -192 -102t-227 -37q-146 0 -250.5 58t-104.5 140q0 57 46 113.5t155 136.5 q-63 31 -85.5 54t-22.5 55q0 59 94 141l88 82q-102 51 -146.5 114.5t-44.5 159.5q0 139 99.5 236.5t242.5 97.5q79 0 164 -31l45 -16q61 -21 113 -21h158v-79zM887 -131q0 55 -57 77.5t-197 22.5q-76 0 -178.5 8.5t-153.5 18.5q-64 -75 -82 -107.5t-18 -68.5q0 -68 82 -109 t217 -41q173 0 280 55t107 144zM674 543q0 124 -62 245q-52 97 -149 97q-71 0 -111.5 -51.5t-40.5 -141.5v-6q0 -147 58 -238.5t151 -91.5q71 0 112.5 50.5t41.5 136.5zM803 1380l-256 -342h-127l-254 342h70l247 -211l250 211h70z" />
<glyph unicode="&#x1ea;" horiz-adv-x="1478" d="M1409 670q0 -246 -123 -423.5t-334 -242.5q-61 -19 -103 -41.5t-67 -62.5q-47 -79 -47 -170q0 -57 24.5 -91t69.5 -34q35 0 61 24t50 64l39 -29q-34 -74 -83 -120t-128 -46q-66 0 -112 51t-46 125q0 116 74 213q24 38 78 84h-35q-135 0 -263 56t-218 153 q-83 89 -129.5 221t-46.5 277q0 152 50 283.5t137.5 224.5t212 145.5t269.5 52.5q301 0 498 -215q172 -187 172 -499zM1176 672q0 182 -45.5 321.5t-129.5 214.5q-115 103 -262 103q-172 0 -293 -133q-65 -72 -104 -210t-39 -294q0 -170 47.5 -314.5t126.5 -214.5 q114 -100 258 -100q164 0 273 109q73 73 100 149q68 176 68 369z" />
<glyph unicode="&#x1eb;" d="M963 479q0 -150 -69.5 -270.5t-186.5 -181.5q-46 -24 -73.5 -39.5t-62 -40.5t-47.5 -47q-49 -77 -49 -170q0 -57 24.5 -91t69.5 -34q35 0 61 24t50 64l39 -29q-34 -74 -83 -120t-128 -46q-66 0 -112 51t-46 125q0 116 74 213q27 38 86 93h-2q-193 0 -321 138t-128 345 q0 212 126.5 345.5t326.5 133.5q196 0 323.5 -131t127.5 -332zM778 408q0 211 -82 344t-211 133q-109 0 -175 -88t-66 -234q0 -228 90 -395q32 -61 85 -96t113 -35q115 0 180.5 99t65.5 272z" />
<glyph unicode="&#x1f4;" horiz-adv-x="1478" d="M1452 688q-89 -7 -116 -37t-27 -121v-415q-62 -54 -222 -99t-292 -45q-168 0 -312 56.5t-247 162.5q-170 179 -170 476q0 207 89.5 370.5t250 255.5t362.5 92q140 0 279 -47q53 -20 90 -20q32 0 57.5 19t34.5 48h45l16 -432h-47q-39 95 -69.5 145.5t-75.5 92.5 q-122 113 -295 113q-104 0 -196.5 -40.5t-160.5 -115.5q-67 -75 -107 -204.5t-40 -274.5q0 -286 144.5 -450.5t394.5 -164.5q110 0 191 36t81 85v332q0 128 -43 153q-34 22 -137 29v37h522v-37zM1085 1690q0 -42 -65 -68l-342 -164h-88l323 246q30 23 50 31t45 8 q37 0 57 -14t20 -39z" />
<glyph unicode="&#x1f5;" d="M963 795h-170q38 -86 38 -172q0 -150 -98 -232q-99 -86 -221 -86q-20 0 -78 6q-3 0 -39 4q-41 -12 -82 -55t-41 -74q0 -49 160 -55l264 -12q114 -4 181 -64t67 -155q0 -116 -113 -207q-80 -65 -192 -102t-227 -37q-146 0 -250.5 58t-104.5 140q0 57 46 113.5t155 136.5 q-63 31 -85.5 54t-22.5 55q0 59 94 141l88 82q-102 51 -146.5 114.5t-44.5 159.5q0 139 99.5 236.5t242.5 97.5q79 0 164 -31l45 -16q61 -21 113 -21h158v-79zM887 -131q0 55 -57 77.5t-197 22.5q-76 0 -178.5 8.5t-153.5 18.5q-64 -75 -82 -107.5t-18 -68.5q0 -68 82 -109 t217 -41q173 0 280 55t107 144zM674 543q0 124 -62 245q-52 97 -149 97q-71 0 -111.5 -51.5t-40.5 -141.5v-6q0 -147 58 -238.5t151 -91.5q71 0 112.5 50.5t41.5 136.5zM793 1317q0 -47 -62 -86l-315 -199h-82l301 303q28 28 45.5 37.5t40.5 9.5q34 0 53 -17t19 -48z" />
<glyph unicode="&#x1fa;" horiz-adv-x="1478" d="M1446 0h-522v39q53 0 73.5 3.5t40.5 14.5q12 6 20.5 20.5t8.5 28.5q0 51 -39 140l-84 196h-536l-95 -239q-16 -43 -16 -80q0 -43 33 -63.5t106 -20.5v-39h-405v39q27 2 44 6t36.5 18t34 33.5t37 60.5t45 89.5t57.5 128.5l426 1005h41l510 -1163q54 -114 84.5 -144 t99.5 -34v-39zM915 526l-237 564l-236 -564h473zM1049 2107q0 -41 -66 -67l-342 -164h-88l324 246q31 23 50 31t44 8q37 0 57.5 -14.5t20.5 -39.5zM936 1630q0 -85 -60 -144t-145 -59q-86 0 -144.5 59.5t-58.5 145.5q0 83 60 143t143 60q85 0 145 -60t60 -145zM866 1630 q0 55 -39.5 95t-93.5 40q-56 0 -95.5 -39t-39.5 -94q0 -56 38.5 -95.5t92.5 -39.5q57 0 97 39t40 94z" />
<glyph unicode="&#x1fb;" horiz-adv-x="909" d="M905 82q-54 -59 -93 -80.5t-91 -21.5q-63 0 -93.5 34t-37.5 115q-94 -80 -163 -114.5t-136 -34.5q-95 0 -155 61t-60 158q0 51 20 99t54 79q65 58 131.5 91t306.5 130v125q0 83 -40.5 126.5t-115.5 43.5q-61 0 -104 -29.5t-43 -70.5q0 -23 6 -50q4 -28 4 -32 q0 -34 -27.5 -60t-64.5 -26q-36 0 -62 26t-26 62q0 38 23 79.5t61 73.5q43 35 112.5 55.5t147.5 20.5q190 0 256 -119q39 -63 39 -209v-399q0 -68 13 -93.5t48 -25.5q43 0 90 39v-53zM588 252v297q-185 -67 -258.5 -130.5t-73.5 -154.5v-8q0 -66 37.5 -112t91.5 -46 q74 0 150 45q32 20 42.5 41t10.5 68zM776 1673q0 -41 -65 -67l-342 -164h-88l323 246q30 23 49.5 30.5t44.5 7.5q37 0 57.5 -14t20.5 -39zM664 1196q0 -85 -60 -144t-145 -59q-86 0 -144.5 59.5t-58.5 145.5q0 83 60 143t143 60q85 0 145 -60t60 -145zM594 1196 q0 55 -39.5 95t-93.5 40q-56 0 -95.5 -39t-39.5 -94q0 -56 38.5 -95.5t92.5 -39.5q57 0 97 39t40 94z" />
<glyph unicode="&#x1fc;" horiz-adv-x="1820" d="M1767 344l-90 -344h-1044v39l35 4q92 11 119.5 44t27.5 134v311h-360l-58 -108q-131 -256 -131 -324q0 -48 140 -61h2v-39h-408v39q66 9 97.5 37.5t82.5 122.5l502 991q18 34 18 57q0 34 -42 49.5t-142 18.5v41h1155v-289h-47q-7 50 -15.5 81t-27 57t-41.5 39.5t-65.5 23 t-93.5 12t-130 2.5h-178q-30 0 -42.5 -14t-12.5 -47v-471h227q187 0 234 61q27 42 37 137h43v-479h-43q-8 63 -16 92.5t-25 54.5q-42 58 -160 58h-297v-488q0 -29 1 -44t6.5 -29t12.5 -19.5t25.5 -10t38.5 -5t57 -0.5h156q115 0 179 20.5t113 74.5t111 171h49zM815 612v654 l-326 -654h326zM1227 1690q0 -42 -66 -68l-342 -164h-88l324 246q31 23 50 31t44 8q37 0 57.5 -14t20.5 -39z" />
<glyph unicode="&#x1fd;" horiz-adv-x="1366" d="M1294 305q-41 -89 -74 -139.5t-75 -87.5q-110 -98 -254 -98q-88 0 -150 35t-114 114q-104 -86 -170 -117.5t-142 -31.5q-104 0 -170.5 62.5t-66.5 162.5q0 92 70.5 161t234.5 136l176 73l4 130q2 36 -5 77t-19 64q-23 47 -103 47q-64 0 -105.5 -30.5t-33.5 -71.5l2 -13 v-22l2 -35q2 -45 -22 -71.5t-66 -26.5q-41 0 -65.5 27t-24.5 71q0 95 94 158t234 63q75 0 127.5 -20.5t111.5 -71.5q69 53 121.5 72.5t122.5 19.5q155 0 233 -88.5t95 -286.5h-537q2 -153 12.5 -220.5t42.5 -127.5q26 -46 79 -74t116 -28q87 0 154 45t141 153zM602 180l-2 6 q-39 110 -39 226v106q-186 -67 -245.5 -118.5t-59.5 -143.5q0 -74 40 -126t97 -52t133 37t76 65zM1067 629q-3 134 -41 194t-121 60q-88 0 -129 -59.5t-49 -194.5h340zM991 1317q0 -48 -61 -86l-316 -199h-82l302 303q28 28 45.5 37.5t40.5 9.5q34 0 52.5 -17t18.5 -48z" />
<glyph unicode="&#x1fe;" horiz-adv-x="1478" d="M1409 678q0 -206 -85 -367t-239 -250.5t-350 -89.5q-103 0 -183 23t-175 80l-162 -238h-100l194 285q-64 58 -95.5 97t-59.5 93q-84 162 -84 365q0 205 85.5 367t238.5 251.5t347 89.5q101 0 181 -22t178 -78l147 219h101l-181 -266q65 -60 97 -98.5t59 -91.5 q86 -159 86 -369zM1176 676q0 136 -22 233t-75 197l-630 -926q66 -72 133.5 -103.5t156.5 -31.5q203 0 320 169t117 462zM1028 1178q-67 70 -135.5 101.5t-153.5 31.5q-201 0 -318.5 -171t-117.5 -464q0 -136 21 -231t73 -193zM1059 1690q0 -42 -66 -68l-342 -164h-88 l324 246q31 23 50 31t44 8q37 0 57.5 -14t20.5 -39z" />
<glyph unicode="&#x1ff;" d="M963 479q0 -214 -131 -356.5t-326 -142.5q-97 0 -191 43l-133 -252h-76l150 286q-50 40 -76.5 69.5t-52.5 72.5q-68 123 -68 266q0 209 126.5 343t324.5 134q89 0 188 -37l117 223h80l-133 -256q49 -35 74 -58.5t49 -59.5q78 -124 78 -275zM778 416q0 98 -18.5 173.5 t-63.5 160.5l-329 -627q39 -46 77.5 -66t90.5 -20q115 0 179 100t64 279zM649 811q-41 40 -79 57t-85 17q-109 0 -175 -87.5t-66 -232.5q0 -207 80 -377zM762 1317q0 -47 -62 -86l-315 -199h-82l301 303q28 28 45.5 37.5t40.5 9.5q34 0 53 -17t19 -48z" />
<glyph unicode="&#x200;" horiz-adv-x="1478" d="M1446 0h-522v39q53 0 73.5 3.5t40.5 14.5q12 6 20.5 20.5t8.5 28.5q0 51 -39 140l-84 196h-536l-95 -239q-16 -43 -16 -80q0 -43 33 -63.5t106 -20.5v-39h-405v39q27 2 44 6t36.5 18t34 33.5t37 60.5t45 89.5t57.5 128.5l426 1005h41l510 -1163q54 -114 84.5 -144 t99.5 -34v-39zM915 526l-237 564l-236 -564h473zM604 1458h-88l-342 164q-65 26 -65 68q0 25 20 39t57 14q25 0 45 -8t50 -31zM932 1458h-88l-342 164q-66 26 -66 68q0 25 20.5 39t57.5 14q25 0 44 -8t50 -31z" />
<glyph unicode="&#x201;" horiz-adv-x="909" d="M905 82q-54 -59 -93 -80.5t-91 -21.5q-63 0 -93.5 34t-37.5 115q-94 -80 -163 -114.5t-136 -34.5q-95 0 -155 61t-60 158q0 51 20 99t54 79q65 58 131.5 91t306.5 130v125q0 83 -40.5 126.5t-115.5 43.5q-61 0 -104 -29.5t-43 -70.5q0 -23 6 -50q4 -28 4 -32 q0 -34 -27.5 -60t-64.5 -26q-36 0 -62 26t-26 62q0 38 23 79.5t61 73.5q43 35 112.5 55.5t147.5 20.5q190 0 256 -119q39 -63 39 -209v-399q0 -68 13 -93.5t48 -25.5q43 0 90 39v-53zM588 252v297q-185 -67 -258.5 -130.5t-73.5 -154.5v-8q0 -66 37.5 -112t91.5 -46 q74 0 150 45q32 20 42.5 41t10.5 68zM385 1034h-82l-315 199q-62 39 -62 86q0 31 19 48t53 17q23 0 40.5 -9.5t45.5 -37.5zM725 1034h-82l-315 199q-62 39 -62 86q0 31 19 48t53 17q23 0 40.5 -9.5t45.5 -37.5z" />
<glyph unicode="&#x204;" horiz-adv-x="1251" d="M1223 346l-93 -346h-1105v39q112 7 145 41t33 143v910q0 109 -32 142t-146 42v39h1087l6 -293h-51q-9 49 -19 80.5t-26.5 57t-36.5 39.5t-54 23t-74 12t-101 3h-277q-41 0 -54 -13.5t-13 -56.5v-454h315q125 0 165 34t60 160h47v-475h-47q-20 128 -59.5 162.5 t-165.5 34.5h-315v-506q0 -55 16 -66q28 -22 199 -22h55q114 0 185 10.5t127.5 42t93.5 81.5t77 136h58zM451 1458h-89l-342 164q-65 26 -65 68q0 25 20.5 39t57.5 14q25 0 44 -8t50 -31zM778 1458h-88l-342 164q-65 26 -65 68q0 25 20 39t57 14q25 0 45 -8t50 -31z" />
<glyph unicode="&#x205;" horiz-adv-x="909" d="M868 322q-65 -166 -176 -254t-258 -88q-177 0 -280 123t-103 335q0 224 119 364t309 140q79 0 147.5 -30.5t114.5 -86.5q39 -50 57.5 -104.5t30.5 -153.5h-630q3 -98 16.5 -160t44.5 -122q87 -164 258 -164q99 0 172 49t146 166zM621 633q-20 133 -63.5 184t-137.5 51 t-147 -57t-70 -178h418zM406 1034h-82l-316 199q-61 38 -61 86q0 31 18.5 48t52.5 17q23 0 40.5 -9.5t45.5 -37.5zM745 1034h-81l-316 199q-61 38 -61 86q0 31 18.5 48t52.5 17q23 0 40.5 -9.5t45.5 -37.5z" />
<glyph unicode="&#x208;" horiz-adv-x="681" d="M645 0h-608v39q69 2 104.5 9t59 28t29.5 53.5t6 93.5v910q0 40 -2.5 65.5t-11 47t-20.5 33t-36.5 20t-53 12t-75.5 6.5v39h608v-39q-68 -3 -104.5 -10.5t-60 -29t-30 -53.5t-6.5 -91v-910q0 -112 37 -145.5t164 -38.5v-39zM213 1458h-88l-342 164q-66 26 -66 68 q0 25 20.5 39t57.5 14q25 0 44 -8t50 -31zM541 1458h-88l-342 164q-66 26 -66 68q0 25 20.5 39t57.5 14q25 0 44 -8t50 -31z" />
<glyph unicode="&#x209;" horiz-adv-x="569" d="M518 0h-485v31q106 6 134 37t28 141v475q0 67 -15.5 95t-52.5 28q-33 0 -70 -6l-16 -2v30l317 113l9 -6v-727q0 -111 25 -141t126 -37v-31zM207 1034h-82l-315 199q-62 39 -62 86q0 31 19 48t53 17q23 0 40.5 -9.5t45.5 -37.5zM547 1034h-82l-315 199q-62 39 -62 86 q0 31 19 48t53 17q23 0 40.5 -9.5t45.5 -37.5z" />
<glyph unicode="&#x20c;" horiz-adv-x="1478" d="M1409 670q0 -204 -86 -363t-241.5 -247.5t-354.5 -88.5q-135 0 -263 56t-218 153q-83 89 -129.5 221t-46.5 277q0 152 50 283.5t137.5 224.5t212 145.5t269.5 52.5q301 0 498 -215q172 -187 172 -499zM1176 672q0 182 -45.5 321.5t-129.5 214.5q-115 103 -262 103 q-172 0 -293 -133q-65 -72 -104 -210t-39 -294q0 -170 47.5 -314.5t126.5 -214.5q114 -100 258 -100q164 0 273 109q73 73 100 149q68 176 68 369zM612 1458h-88l-342 164q-65 26 -65 68q0 25 20.5 39t57.5 14q25 0 44 -8t50 -31zM940 1458h-88l-342 164q-66 26 -66 68 q0 25 20.5 39t57.5 14q25 0 44 -8t50 -31z" />
<glyph unicode="&#x20d;" d="M963 479q0 -139 -59.5 -253.5t-164 -180t-231.5 -65.5q-193 0 -321 138t-128 345q0 212 126.5 345.5t326.5 133.5q196 0 323.5 -131t127.5 -332zM778 408q0 211 -82 344t-211 133q-109 0 -175 -88t-66 -234q0 -228 90 -395q32 -61 85 -96t113 -35q115 0 180.5 99 t65.5 272zM438 1034h-82l-315 199q-61 38 -61 86q0 31 18.5 48t52.5 17q23 0 40.5 -9.5t45.5 -37.5zM778 1034h-82l-315 199q-62 39 -62 86q0 31 19 48t53 17q23 0 40.5 -9.5t45.5 -37.5z" />
<glyph unicode="&#x210;" horiz-adv-x="1366" d="M1350 0h-330l-488 631l-114 -4v-404q0 -110 33 -143.5t151 -40.5v-39h-567v39q41 3 66.5 7.5t46.5 14t32 22.5t18 37t9 52t2 74v887q0 39 -2 63t-9 45t-18 32.5t-32 20.5t-46.5 14t-66.5 9v39h565q145 0 263 -37t177 -100q80 -89 80 -224q0 -72 -27.5 -133.5 t-76.5 -101.5q-51 -41 -107.5 -64t-158.5 -43l421 -518q43 -52 81 -71.5t98 -24.5v-39zM897 999q0 145 -91.5 213t-283.5 68q-61 0 -82.5 -15.5t-21.5 -58.5v-504q149 3 220.5 16.5t141.5 53.5q55 29 86 89.5t31 137.5zM475 1458h-88l-342 164q-65 26 -65 68q0 25 20 39 t57 14q25 0 45 -8t50 -31zM803 1458h-88l-342 164q-66 26 -66 68q0 25 20.5 39t57.5 14q25 0 44 -8t50 -31z" />
<glyph unicode="&#x211;" horiz-adv-x="681" d="M686 834q0 -43 -21.5 -68t-58.5 -25q-35 0 -82 41q-36 31 -53 31q-41 0 -92 -59.5t-51 -108.5v-461q0 -88 35 -118t139 -35v-31h-492v31q98 19 122 42t24 99v512q0 67 -16 95t-54 28q-33 0 -72 -8v32q156 50 303 111l11 -4v-188q75 109 128 150.5t117 41.5q53 0 83 -28.5 t30 -79.5zM254 1034h-82l-315 199q-62 39 -62 86q0 31 19 48t53 17q23 0 40.5 -9.5t45.5 -37.5zM594 1034h-82l-315 199q-62 39 -62 86q0 31 19 48t53 17q23 0 40.5 -9.5t45.5 -37.5z" />
<glyph unicode="&#x214;" horiz-adv-x="1478" d="M1444 1317q-45 -5 -73 -11.5t-51.5 -19.5t-35.5 -29t-20 -46t-10.5 -65t-2.5 -91v-535q0 -119 -15 -196.5t-52 -141.5q-121 -211 -457 -211q-261 0 -387.5 128.5t-126.5 394.5v639q0 113 -31 144t-153 40v39h579v-39q-123 -10 -154.5 -41.5t-31.5 -142.5v-656 q0 -179 51 -270q84 -146 301 -146q115 0 207 44t133 118q47 87 47 279v553q0 154 -36 203.5t-156 58.5v39h475v-39zM664 1458h-89l-342 164q-65 26 -65 68q0 25 20.5 39t57.5 14q25 0 44 -8t50 -31zM991 1458h-88l-342 164q-65 26 -65 68q0 25 20 39t57 14q25 0 45 -8 t50 -31z" />
<glyph unicode="&#x215;" d="M981 74q-170 -47 -281 -92l-8 4v170l-88 -88q-41 -41 -97.5 -64.5t-113.5 -23.5q-113 0 -180.5 72.5t-67.5 193.5v516q0 71 -27 99t-100 32v29h299v-668q0 -64 43 -110t103 -46q98 0 184 74q35 25 35 104v482q0 76 -28.5 100t-123.5 29v35h324v-703q0 -71 23 -94t94 -23 h10v-28zM426 1034h-82l-315 199q-62 39 -62 86q0 31 19 48t53 17q23 0 40.5 -9.5t45.5 -37.5zM766 1034h-82l-315 199q-62 39 -62 86q0 31 19 48t53 17q23 0 40.5 -9.5t45.5 -37.5z" />
<glyph unicode="&#x218;" horiz-adv-x="1138" d="M1006 344q0 -158 -120 -265.5t-298 -107.5q-124 0 -242 47q-64 23 -96 23q-23 0 -39 -19.5t-18 -48.5h-46l-61 435h47q77 -188 176.5 -275.5t237.5 -87.5q112 0 182 64t70 165q0 74 -29 121q-75 115 -305 240q-171 91 -245.5 183t-74.5 214q0 168 119 266q107 86 232 86 q103 0 221 -45q56 -24 90 -24q53 0 65 69h43l46 -436h-52q-24 90 -50.5 140t-74.5 100q-109 112 -249 112q-95 0 -154 -51.5t-59 -136.5q0 -84 69.5 -157.5t231.5 -161.5q203 -110 293 -216t90 -233zM678 -260q0 -92 -63 -178t-166 -137l-19 38q168 115 168 218 q0 12 -8.5 20t-20.5 8q-2 0 -16 -4q-24 -4 -39 -4q-56 0 -88.5 27.5t-32.5 76.5q0 52 33.5 84.5t87.5 32.5q69 0 116.5 -52.5t47.5 -129.5z" />
<glyph unicode="&#x219;" horiz-adv-x="796" d="M713 242q0 -107 -85 -184.5t-202 -77.5q-57 0 -152 20q-65 16 -94 16q-19 0 -28 -4.5t-19 -19.5h-27v319h33q35 -156 94.5 -221t165.5 -65q78 0 124 40t46 107q0 94 -106 154l-119 67q-131 75 -185.5 142t-54.5 153q0 112 78.5 182t204.5 70q72 0 139 -25q32 -14 56 -14 q6 0 28 17l4 4h23l8 -279h-31q-35 138 -86 195t-139 57q-71 0 -114.5 -38t-43.5 -101q0 -89 88 -140l222 -131q94 -55 133 -110.5t39 -132.5zM530 -260q0 -92 -63 -178t-166 -137l-18 38q168 115 168 218q0 12 -8.5 20t-20.5 8q-2 0 -16 -4q-24 -4 -39 -4q-56 0 -88.5 27.5 t-32.5 76.5q0 52 33.5 84.5t87.5 32.5q69 0 116 -52.5t47 -129.5z" />
<glyph unicode="&#x21a;" horiz-adv-x="1251" d="M1214 1008h-49q-12 60 -23.5 98t-30 69.5t-39 48t-55.5 28t-75 15t-102 3.5h-111v-1047q0 -112 35.5 -145t161.5 -39v-39h-598v39q46 3 73.5 6.5t51.5 13t35.5 22t19.5 37t10 53t2 75.5v1024h-110q-61 0 -101 -3.5t-74.5 -14.5t-55.5 -28t-39.5 -48.5t-30.5 -70 t-25 -97.5h-49l12 348h1155zM768 -260q0 -92 -63 -178t-166 -137l-19 38q168 115 168 218q0 12 -8.5 20t-20.5 8q-2 0 -16 -4q-24 -4 -39 -4q-56 0 -88.5 27.5t-32.5 76.5q0 52 33.5 84.5t87.5 32.5q69 0 116.5 -52.5t47.5 -129.5z" />
<glyph unicode="&#x21b;" horiz-adv-x="569" d="M571 135q-99 -155 -247 -155q-181 0 -181 260v616h-108q-8 5 -8 14q0 18 34 39q85 50 199 219q27 35 41 58q14 0 14 -27v-237h207v-66h-207v-586q0 -98 25 -141t82 -43q34 0 61.5 16t61.5 56zM459 -260q0 -92 -63.5 -178t-166.5 -137l-18 38q168 115 168 218 q0 12 -8.5 20t-20.5 8q-2 0 -16 -4q-24 -4 -39 -4q-56 0 -88.5 27.5t-32.5 76.5q0 52 33.5 84.5t87.5 32.5q69 0 116.5 -52.5t47.5 -129.5z" />
<glyph unicode="&#x258;" horiz-adv-x="909" d="M868 438q0 -212 -103 -335t-280 -123q-147 0 -258 88t-176 254l33 14q73 -117 146 -166t171 -49q171 0 258 164q31 61 45 123t17 159h-631q12 99 30.5 153.5t57.5 104.5q46 56 114.5 86.5t147.5 30.5q190 0 309 -140t119 -364zM717 633q-17 121 -70 178t-147 57 t-137.5 -51t-63.5 -184h418z" />
<glyph unicode="&#x259;" horiz-adv-x="909" d="M868 483q0 -224 -118.5 -363.5t-309.5 -139.5q-80 0 -148 30.5t-114 85.5q-39 50 -57.5 104.5t-30.5 153.5h631q-3 97 -17 159.5t-45 123.5q-87 164 -258 164q-98 0 -171 -49t-146 -166l-33 14q65 166 176 254t258 88q177 0 280 -123.5t103 -335.5zM717 289h-418 q20 -134 63.5 -185t137.5 -51t147 57.5t70 178.5z" />
<glyph unicode="&#x2be;" horiz-adv-x="724" d="M643 1012q0 -183 -121 -281q-90 -74 -194 -74q-93 0 -160.5 47.5t-67.5 110.5q0 30 24.5 52t57.5 22q28 0 49.5 -20t30.5 -56l8 -31q9 -31 23 -42t43 -11q76 0 123 61t47 160q0 111 -54 180.5t-143 69.5q-54 0 -93 -26.5t-85 -94.5q-10 -10 -22 -4l-19 12q-6 3 -7.5 10 t1.5 11q60 118 117 164q74 59 166 59q121 0 198.5 -89.5t77.5 -229.5z" />
<glyph unicode="&#x2bf;" horiz-adv-x="724" d="M641 881q-60 -118 -117 -164q-75 -60 -166 -60q-121 0 -198.5 90t-77.5 230q0 182 121 280q90 74 194 74q93 0 160.5 -47t67.5 -110q0 -30 -24.5 -52t-57.5 -22q-28 0 -49.5 20t-30.5 56l-8 30q-9 31 -23 42.5t-43 11.5q-76 0 -123 -61.5t-47 -160.5q0 -111 54 -180.5 t143 -69.5q54 0 93 26.5t85 94.5q10 10 22 4l19 -12q6 -3 7.5 -9.5t-1.5 -10.5z" />
<glyph unicode="&#x2c6;" horiz-adv-x="681" d="M659 1038h-69l-250 211l-248 -211h-69l253 342h127z" />
<glyph unicode="&#x2c7;" horiz-adv-x="681" d="M659 1380l-256 -342h-127l-253 342h69l248 -211l250 211h69z" />
<glyph unicode="&#x2d8;" horiz-adv-x="681" d="M629 1370q-19 -163 -90.5 -242t-200.5 -79q-151 0 -229 110q-30 44 -42.5 89t-13.5 122h60q22 -103 76.5 -151t152.5 -48q90 0 137 41.5t90 157.5h60z" />
<glyph unicode="&#x2d9;" horiz-adv-x="681" d="M444 1208q0 -44 -30 -74t-74 -30q-43 0 -73.5 30t-30.5 74q0 43 30.5 74t73.5 31q44 0 74 -31t30 -74z" />
<glyph unicode="&#x2da;" horiz-adv-x="681" d="M545 1208q0 -84 -60 -143t-145 -59q-86 0 -144.5 59t-58.5 145q0 83 60 143t143 60q85 0 145 -60t60 -145zM475 1208q0 55 -39.5 95t-93.5 40q-56 0 -95.5 -39t-39.5 -94q0 -56 38.5 -95.5t92.5 -39.5q57 0 97 39t40 94z" />
<glyph unicode="&#x2db;" horiz-adv-x="681" d="M535 -336q-34 -74 -83 -120t-128 -46q-66 0 -112 51t-46 125q0 116 74 213q52 73 157 148h60q-80 -73 -123 -144t-43 -161q0 -57 24.5 -91t69.5 -34q35 0 61 24t50 64z" />
<glyph unicode="&#x2dc;" horiz-adv-x="681" d="M678 1317q-32 -117 -81.5 -167t-133.5 -50q-39 0 -71.5 9.5t-94.5 39.5l-47 22q-51 23 -84 23q-71 0 -105 -94h-59q23 100 76.5 153.5t130.5 53.5q73 0 143 -37l49 -25q67 -31 109 -31q35 0 58.5 22t49.5 81h60z" />
<glyph unicode="&#x2dd;" horiz-adv-x="681" d="M874 1319q0 -48 -61 -86l-315 -199h-82l301 303q28 28 45.5 37.5t40.5 9.5q34 0 52.5 -17t18.5 -48zM535 1319q0 -47 -62 -86l-315 -199h-82l301 303q28 28 45.5 37.5t40.5 9.5q34 0 53 -17t19 -48z" />
<glyph unicode="&#x300;" horiz-adv-x="0" d="M-303 1032h-82l-315 199q-62 39 -62 86q0 31 19 48t53 17q23 0 40.5 -9.5t45.5 -37.5z" />
<glyph unicode="&#x301;" horiz-adv-x="0" d="M-145 1317q0 -47 -62 -86l-315 -199h-82l301 303q28 28 45.5 37.5t40.5 9.5q34 0 53 -17t19 -48z" />
<glyph unicode="&#x302;" horiz-adv-x="0" d="M-135 1038h-70l-250 211l-247 -211h-70l254 342h127z" />
<glyph unicode="&#x303;" horiz-adv-x="0" d="M-117 1317q-32 -117 -81.5 -167t-133.5 -50q-39 0 -71.5 9.5t-94.5 39.5l-47 22q-51 23 -84 23q-70 0 -104 -94h-60q23 100 77 153.5t130 53.5q74 0 144 -37l49 -25q67 -31 108 -31q35 0 59 22.5t50 80.5h59z" />
<glyph unicode="&#x304;" horiz-adv-x="0" d="M-135 1153h-637v111h637v-111z" />
<glyph unicode="&#x306;" horiz-adv-x="0" d="M-166 1370q-19 -163 -90.5 -242t-200.5 -79q-151 0 -229 110q-30 43 -42 88.5t-13 122.5h59q22 -103 76.5 -151t152.5 -48q90 0 138 41.5t90 157.5h59z" />
<glyph unicode="&#x307;" horiz-adv-x="0" d="M-350 1208q0 -44 -30.5 -74t-74.5 -30q-43 0 -73.5 30t-30.5 74q0 43 30.5 74t73.5 31q44 0 74.5 -31t30.5 -74z" />
<glyph unicode="&#x308;" horiz-adv-x="0" d="M-555 1208q0 -41 -30.5 -70.5t-73.5 -29.5q-41 0 -70 29.5t-29 72.5q0 40 30.5 70.5t68.5 30.5q43 0 73.5 -30.5t30.5 -72.5zM-147 1208q0 -41 -31 -70.5t-74 -29.5q-41 0 -69.5 29.5t-28.5 72.5q0 40 30 70.5t68 30.5q43 0 74 -31t31 -72z" />
<glyph unicode="&#x309;" horiz-adv-x="0" d="M-252 1282q0 -54 -86 -121q-76 -60 -86 -82q-12 -20 -20 -61h-48q3 70 68 162q47 52 47 96q0 86 -102 86q-47 0 -72 -21q-12 -6 -12 -16q0 -3 17.5 -26.5t17.5 -32.5q0 -39 -58 -39q-69 0 -69 65q0 46 55.5 77.5t142.5 31.5q110 0 164 -45q41 -38 41 -74z" />
<glyph unicode="&#x30a;" horiz-adv-x="0" d="M-250 1208q0 -84 -60 -143t-145 -59q-86 0 -144 59t-58 145q0 83 59.5 143t142.5 60q85 0 145 -60t60 -145zM-319 1208q0 55 -40 95t-94 40q-56 0 -95.5 -39t-39.5 -94q0 -56 38.5 -95.5t92.5 -39.5q57 0 97.5 39t40.5 94z" />
<glyph unicode="&#x30b;" horiz-adv-x="0" d="M80 1319q0 -47 -62 -86l-315 -199h-82l301 303q28 28 45.5 37.5t40.5 9.5q34 0 53 -17t19 -48zM-260 1319q0 -47 -62 -86l-315 -199h-82l301 303q28 28 45.5 37.5t40.5 9.5q34 0 53 -17t19 -48z" />
<glyph unicode="&#x30c;" horiz-adv-x="0" d="M-135 1380l-256 -342h-127l-254 342h70l247 -211l250 211h70z" />
<glyph unicode="&#x30f;" horiz-adv-x="0" d="M-528 1034h-82l-316 199q-61 38 -61 86q0 31 19 48t53 17q23 0 40.5 -9.5t45.5 -37.5zM-188 1034h-82l-316 199q-61 38 -61 86q0 31 19 48t53 17q23 0 40.5 -9.5t45.5 -37.5z" />
<glyph unicode="&#x311;" horiz-adv-x="0" d="M-166 1049h-59q-22 103 -77 150.5t-153 47.5q-90 0 -137.5 -41t-89.5 -157h-59q19 163 90 242t200 79q152 0 230 -110q30 -43 42 -88.5t13 -122.5z" />
<glyph unicode="&#x323;" horiz-adv-x="0" d="M-350 -287q0 -44 -30.5 -74t-74.5 -30q-43 0 -73.5 30t-30.5 74q0 43 30.5 74t73.5 31q44 0 74.5 -31t30.5 -74z" />
<glyph unicode="&#x326;" horiz-adv-x="0" d="M-311 -260q0 -92 -63.5 -178t-166.5 -137l-18 38q168 115 168 218q0 12 -8.5 20t-20.5 8q-2 0 -16 -4q-24 -4 -39 -4q-56 0 -88.5 27.5t-32.5 76.5q0 52 33.5 84.5t87.5 32.5q69 0 116.5 -52.5t47.5 -129.5z" />
<glyph unicode="&#x32e;" horiz-adv-x="0" d="M-133 -145q0 -112 -90 -197.5t-230 -85.5q-139 0 -229 85.5t-90 197.5h53q24 -85 94.5 -126.5t171.5 -41.5t172 41.5t95 126.5h53z" />
<glyph unicode="&#x32f;" horiz-adv-x="0" d="M-133 -428h-53q-24 85 -95 126.5t-172 41.5t-171.5 -41.5t-94.5 -126.5h-53q0 112 90 197.5t229 85.5q140 0 230 -85.5t90 -197.5z" />
<glyph unicode="&#x330;" horiz-adv-x="0" d="M-117 -178q-32 -117 -81.5 -167t-133.5 -50q-39 0 -71.5 9.5t-94.5 39.5l-47 22q-51 23 -84 23q-70 0 -104 -94h-60q23 100 77 153.5t130 53.5q74 0 144 -37l49 -25q67 -31 108 -31q35 0 59 22.5t50 80.5h59z" />
<glyph unicode="&#x331;" horiz-adv-x="0" d="M-135 -342h-637v111h637v-111z" />
<glyph unicode="&#x332;" horiz-adv-x="0" d="M-135 -342h-637v111h637v-111z" />
<glyph unicode="&#x391;" horiz-adv-x="1478" d="M1446 0h-522v39q53 0 73.5 3.5t40.5 14.5q12 6 20.5 20.5t8.5 28.5q0 51 -39 140l-84 196h-536l-95 -239q-16 -43 -16 -80q0 -43 33 -63.5t106 -20.5v-39h-405v39q27 2 44 6t36.5 18t34 33.5t37 60.5t45 89.5t57.5 128.5l426 1005h41l510 -1163q54 -114 84.5 -144 t99.5 -34v-39zM915 526l-237 564l-236 -564h473z" />
<glyph unicode="&#x392;" horiz-adv-x="1366" d="M1214 369q0 -154 -114 -256q-57 -52 -159 -82.5t-222 -30.5h-684v39q67 2 103 9t58.5 28.5t28.5 54t6 92.5v910q0 61 -5.5 92t-28.5 52.5t-58 28.5t-104 11v39h573q265 0 401 -88t136 -260q0 -63 -22 -117t-60 -88q-37 -32 -78.5 -51t-120.5 -39q100 -25 152 -48.5 t98 -64.5q100 -94 100 -231zM979 367q0 97 -42 160t-130 100q-55 23 -136 32t-231 9v-508q0 -49 27 -66.5t102 -17.5q190 0 285 53q125 72 125 238zM936 999q0 137 -92 209t-269 72h-90q-45 0 -45 -61v-469h195q145 0 223 64.5t78 184.5z" />
<glyph unicode="&#x393;" horiz-adv-x="1138" d="M1118 1063h-51q-9 49 -19 80.5t-26.5 57t-36.5 39.5t-54 23t-74 12t-101 3h-279q-41 0 -53 -13.5t-12 -56.5v-985q0 -111 34 -144.5t152 -39.5v-39h-573v39q117 7 147.5 43t30.5 164v887q0 108 -32 141.5t-146 42.5v39h1087z" />
<glyph unicode="&#x394;" horiz-adv-x="1349" d="M1296 0h-1243l613 1497h30zM981 217l-379 957l-389 -957h768z" />
<glyph unicode="&#x395;" horiz-adv-x="1251" d="M1223 346l-93 -346h-1105v39q112 7 145 41t33 143v910q0 109 -32 142t-146 42v39h1087l6 -293h-51q-9 49 -19 80.5t-26.5 57t-36.5 39.5t-54 23t-74 12t-101 3h-277q-41 0 -54 -13.5t-13 -56.5v-454h315q125 0 165 34t60 160h47v-475h-47q-20 128 -59.5 162.5 t-165.5 34.5h-315v-506q0 -55 16 -66q28 -22 199 -22h55q114 0 185 10.5t127.5 42t93.5 81.5t77 136h58z" />
<glyph unicode="&#x396;" horiz-adv-x="1251" d="M1223 360l-49 -360h-1156v31l895 1247h-452q-205 0 -275 -88q-26 -33 -41 -71.5t-28 -112.5h-54l41 350h1078v-31l-885 -1247h526q179 0 256 80q31 34 51 75.5t46 126.5h47z" />
<glyph unicode="&#x397;" horiz-adv-x="1478" d="M1438 0h-570v39q64 4 96.5 11.5t53.5 32t26 59.5t5 104v399h-621v-422q0 -109 32.5 -142t147.5 -42v-39h-569v39q64 4 96.5 11.5t53 32t25.5 59.5t5 104v887q0 59 -5.5 89.5t-26 52t-53 29t-95.5 13.5v39h569v-39q-63 -6 -95.5 -13.5t-53 -29t-26 -52t-5.5 -89.5v-398 h621v398q0 59 -5.5 89.5t-26.5 52t-53.5 29t-95.5 13.5v39h570v-39q-63 -6 -95.5 -13.5t-53.5 -29t-26.5 -52t-5.5 -89.5v-910q0 -109 32.5 -142t148.5 -42v-39z" />
<glyph unicode="&#x398;" horiz-adv-x="1478" d="M1409 670q0 -204 -86 -363t-241.5 -247.5t-354.5 -88.5q-135 0 -263 56t-218 153q-83 89 -129.5 221t-46.5 277q0 152 50 283.5t137.5 224.5t212 145.5t269.5 52.5q301 0 498 -215q172 -187 172 -499zM1176 672q0 182 -45.5 321.5t-129.5 214.5q-115 103 -262 103 q-172 0 -293 -133q-65 -72 -104 -210t-39 -294q0 -170 47.5 -314.5t126.5 -214.5q114 -100 258 -100q164 0 273 109q73 73 100 149q68 176 68 369zM981 436v484h-39q0 -87 -36 -123.5t-124 -36.5h-82q-92 0 -126 34.5t-37 125.5h-37v-484h37q0 87 35.5 123.5t123.5 36.5h84 q91 0 126.5 -36t35.5 -124h39z" />
<glyph unicode="&#x399;" horiz-adv-x="681" d="M645 0h-608v39q69 2 104.5 9t59 28t29.5 53.5t6 93.5v910q0 40 -2.5 65.5t-11 47t-20.5 33t-36.5 20t-53 12t-75.5 6.5v39h608v-39q-68 -3 -104.5 -10.5t-60 -29t-30 -53.5t-6.5 -91v-910q0 -112 37 -145.5t164 -38.5v-39z" />
<glyph unicode="&#x39a;" horiz-adv-x="1478" d="M1481 0h-625v39q25 2 57 2q86 3 86 45q0 37 -75 135t-191 213l-217 215l-53 -43v-383q0 -113 32 -145t152 -39v-39h-577v39q64 4 97.5 12t54.5 32t26.5 59.5t5.5 103.5v887q0 58 -5.5 89t-27 52.5t-55 29.5t-96.5 13v39h581v-39q-66 -5 -100 -12t-55.5 -28.5t-27 -52.5 t-5.5 -91v-420l362 329q160 147 160 211q0 31 -20 45t-66 17q-28 0 -53 2v39h536v-39q-104 -7 -155.5 -33.5t-155.5 -126.5l-389 -385l477 -512q99 -105 146 -147.5t83.5 -57.5t92.5 -16v-39z" />
<glyph unicode="&#x39b;" horiz-adv-x="1478" d="M1446 0h-522v39q53 0 73.5 3.5t40.5 14.5q12 6 20.5 20.5t8.5 28.5q0 51 -39 140l-350 844l-365 -887q-16 -43 -16 -80q0 -43 33 -63.5t106 -20.5v-39h-405v39q27 2 44 6t36.5 18t34 33.5t37 60.5t45 89.5t57.5 128.5l426 1005h41l510 -1163q54 -114 84.5 -144t99.5 -34 v-39z" />
<glyph unicode="&#x39c;" horiz-adv-x="1820" d="M1767 0h-573v39q121 7 153.5 43t32.5 164v928l-524 -1174h-29l-514 1126v-825q0 -155 37 -205.5t156 -56.5v-39h-481v39q54 4 86.5 12.5t56.5 24t35 46.5t15.5 71.5t4.5 107.5v832q0 60 -6 91.5t-28.5 52.5t-57.5 28.5t-102 11.5v39h405l473 -1034l453 1034h407v-39 q-114 -9 -146 -42t-32 -142v-910q0 -109 33 -143t145 -41v-39z" />
<glyph unicode="&#x39d;" horiz-adv-x="1478" d="M1448 1317q-96 -10 -135 -37q-60 -42 -60 -225v-1078h-34l-906 1127v-803q0 -155 37 -205.5t156 -56.5v-39h-481v39q54 4 86.5 12.5t56.5 24t35 46.5t15.5 71.5t4.5 107.5v903q-62 72 -97 92.5t-101 20.5v39h350l788 -991v690q0 187 -59 229q-45 26 -137 33v39h481v-39z " />
<glyph unicode="&#x39e;" horiz-adv-x="1316" d="M1196 1026h-39q0 82 -50.5 119t-154.5 37h-594q-96 0 -147 -40t-51 -116h-39v330h1075v-330zM1012 451h-37q-1 90 -41 118.5t-146 28.5h-260q-106 0 -146 -29.5t-40 -117.5h-37v448h37q0 -92 41.5 -118.5t144.5 -26.5h260q103 0 145 27t42 118h37v-448zM1239 0h-1159v381 h37v-25q0 -61 33.5 -102.5t81 -58.5t104.5 -17h657q110 0 158.5 37t48.5 141v25h39v-381z" />
<glyph unicode="&#x39f;" horiz-adv-x="1478" d="M1409 670q0 -204 -86 -363t-241.5 -247.5t-354.5 -88.5q-135 0 -263 56t-218 153q-83 89 -129.5 221t-46.5 277q0 152 50 283.5t137.5 224.5t212 145.5t269.5 52.5q301 0 498 -215q172 -187 172 -499zM1176 672q0 182 -45.5 321.5t-129.5 214.5q-115 103 -262 103 q-172 0 -293 -133q-65 -72 -104 -210t-39 -294q0 -170 47.5 -314.5t126.5 -214.5q114 -100 258 -100q164 0 273 109q73 73 100 149q68 176 68 369z" />
<glyph unicode="&#x3a0;" horiz-adv-x="1478" d="M1438 0h-570v39q64 4 96.5 11.5t53.5 32t26 59.5t5 104v887q0 59 -5.5 89.5t-26.5 52t-53.5 29t-95.5 13.5h-260q-63 -6 -95.5 -13.5t-53 -29t-26 -52t-5.5 -89.5v-910q0 -109 32.5 -142t147.5 -42v-39h-569v39q64 4 96.5 11.5t53 32t25.5 59.5t5 104v887q0 59 -5.5 89.5 t-26 52t-53 29t-95.5 13.5v39h1399v-39q-63 -6 -95.5 -13.5t-53.5 -29t-26.5 -52t-5.5 -89.5v-910q0 -109 32.5 -142t148.5 -42v-39z" />
<glyph unicode="&#x3a1;" horiz-adv-x="1138" d="M1110 985q0 -102 -52.5 -189.5t-144.5 -136.5q-124 -69 -358 -69q-61 0 -141 6v-373q0 -59 6.5 -91.5t29 -54t57.5 -29t99 -9.5v-39h-573v39q63 6 93.5 13.5t50.5 31.5t24 58t4 104v887q0 110 -29 141t-143 43v39h540q145 0 268.5 -40.5t184.5 -107.5q84 -90 84 -223z M887 973q0 158 -98.5 232.5t-305.5 74.5q-41 0 -55 -14.5t-14 -55.5v-532q70 -6 116 -6q357 0 357 301z" />
<glyph unicode="&#x3a3;" horiz-adv-x="1337" d="M1294 326l-98 -326h-1155l444 633l-428 723h1104l19 -256h-50q-21 101 -57 139q-56 53 -239 53h-496l348 -573l-371 -545h605q110 0 167.5 12t92.5 43t67 97h47z" />
<glyph unicode="&#x3a4;" horiz-adv-x="1251" d="M1214 1008h-49q-12 60 -23.5 98t-30 69.5t-39 48t-55.5 28t-75 15t-102 3.5h-111v-1047q0 -112 35.5 -145t161.5 -39v-39h-598v39q46 3 73.5 6.5t51.5 13t35.5 22t19.5 37t10 53t2 75.5v1024h-110q-61 0 -101 -3.5t-74.5 -14.5t-55.5 -28t-39.5 -48.5t-30.5 -70 t-25 -97.5h-49l12 348h1155z" />
<glyph unicode="&#x3a5;" horiz-adv-x="1478" d="M1450 1018h-57q0 69 -52 117.5t-124 48.5q-81 0 -145 -39t-104.5 -103t-66.5 -153t-36.5 -181.5t-10.5 -195.5v-289q0 -117 37 -149t174 -35v-39h-627v39q50 2 80 5.5t56 12.5t38 21t20.5 37t10.5 54t2 77v266q0 103 -11.5 196.5t-40 181.5t-70.5 152t-107.5 103 t-147.5 39q-74 0 -128 -48t-54 -118h-57q0 87 27 163t82.5 125.5t129.5 49.5q86 0 157.5 -33.5t121.5 -94.5t87 -140t58.5 -175.5t32 -195.5t10.5 -205h29q0 129 13 245t46 228t83 192.5t130 129.5t181 49q109 0 171 -100.5t62 -237.5z" />
<glyph unicode="&#x3a6;" horiz-adv-x="1357" d="M1276 678q0 -82 -40.5 -148.5t-110.5 -110t-156.5 -69.5t-186.5 -35v-92q0 -112 37 -145.5t164 -38.5v-39h-608v39q68 2 104 9t59 28t29 53.5t6 93.5v92q-100 9 -186 35t-155.5 69.5t-109.5 110t-40 148.5t40 148.5t109.5 109.5t155.5 69t186 35v93q0 61 -5.5 92 t-28.5 52.5t-58.5 28.5t-105.5 11v39h608v-39q-68 -3 -104.5 -10.5t-60 -29t-30 -53.5t-6.5 -91v-93q100 -9 186.5 -35t156.5 -69t110.5 -109.5t40.5 -148.5zM573 377v602q-133 -26 -220 -106t-87 -195t87 -195t220 -106zM1092 678q0 117 -88 197t-222 104v-602 q134 24 222 104t88 197z" />
<glyph unicode="&#x3a7;" horiz-adv-x="1478" d="M1442 0h-608v39q50 4 55 4q102 3 102 59q0 48 -104 201l-195 287l-243 -303q-107 -132 -107 -176q0 -35 33.5 -50.5t122.5 -21.5v-39h-478v39q30 2 45 4t38 12.5t36 21t43 41t56.5 61.5t78.5 93l322 396l-223 327q-65 92 -104 143t-74 90.5t-64 55.5t-57.5 23.5 t-71.5 9.5v39h619v-39l-58 -2q-51 -2 -74.5 -16t-23.5 -44q0 -65 174 -307l86 -121l231 283q46 58 64 88t18 53q0 35 -30 49t-113 17v39h487v-39q-99 -6 -152.5 -39.5t-152.5 -153.5l-299 -372l393 -562q66 -89 106 -115.5t122 -35.5v-39z" />
<glyph unicode="&#x3a8;" horiz-adv-x="1333" d="M1251 1057q-19 0 -34 -7t-25 -22t-18 -30.5t-12.5 -42.5t-7 -46t-4 -53t-1.5 -52.5v-53.5q0 -160 -108 -279t-271 -152v-96q0 -112 37 -145.5t164 -38.5v-39h-609v39q69 2 104.5 9t59 28t29.5 53.5t6 93.5v99q-162 33 -269.5 151t-107.5 277v53.5t-1.5 52.5t-4 53t-7 46 t-12.5 42.5t-18 30.5t-25 22t-34 7v57q126 0 206.5 -108.5t80.5 -255.5q0 -120 51.5 -219.5t140.5 -139.5v742q0 40 -2.5 65.5t-11 47t-20.5 33t-36.5 20t-53 12t-75.5 6.5v39h609v-39q-68 -3 -104.5 -10.5t-60 -29t-30 -53.5t-6.5 -91v-744q89 41 142 141t53 220 q0 147 80 255.5t206 108.5v-57z" />
<glyph unicode="&#x3a9;" horiz-adv-x="1568" d="M1470 313l-12 -313h-557l27 301q128 41 189 159t61 318q0 266 -119 396q-127 139 -295 139q-182 0 -301 -146q-119 -143 -119 -374q0 -162 53 -301q53 -135 203 -191l21 -301h-558l-12 313h49q5 -74 43 -110.5t121 -36.5h268l-2 88q-154 30 -288 176q-131 143 -131 367 q0 242 182 415q180 174 475 174q284 0 467 -165q176 -159 176 -416q0 -206 -109.5 -350.5t-302.5 -200.5l-10 -88h275q153 0 157 147h49z" />
<glyph unicode="&#x3b1;" horiz-adv-x="1290" d="M1208 184q0 -86 -36 -149.5t-101 -63.5q-96 0 -163 64t-103 172q-101 -236 -281 -236q-124 0 -226 67.5t-159 180t-57 242.5t57 242t159 179.5t226 67.5q119 0 214.5 -69t148.5 -183q53 160 135 242l96 -94q-131 -131 -192 -264q12 -58 12 -121q0 -47 0.5 -75.5t2 -73.5 t5 -74t9.5 -65.5t16 -59t23.5 -43.5t33 -31t43.5 -10q80 0 80 155h57zM780 301q-14 71 -14 160q0 83 -12.5 156.5t-39.5 137t-76 101t-114 37.5q-66 0 -117.5 -37t-81 -99.5t-44.5 -137.5t-15 -158t15 -158t44.5 -137.5t81 -99.5t117.5 -37q51 0 92.5 21t72 60.5t52 85 t39.5 105.5z" />
<glyph unicode="&#x3b2;" horiz-adv-x="1085" d="M1010 373q0 -116 -67 -209t-176 -143t-235 -50q-153 0 -278 84v-55q0 -260 -55 -483h-176q59 252 59 483v922q0 191 131.5 326.5t318.5 135.5q160 0 276 -94.5t116 -238.5q0 -113 -90.5 -192t-223.5 -111q80 -18 150 -50.5t127 -78.5t90 -109.5t33 -136.5zM825 373 q0 106 -71 186t-179.5 119t-234.5 39v57q103 0 192.5 31t148 95.5t58.5 150.5q0 111 -57 193.5t-150 82.5q-87 0 -152 -59.5t-95.5 -149.5t-30.5 -196v-797q123 -96 278 -96q126 0 209.5 102t83.5 242z" />
<glyph unicode="&#x3b3;" horiz-adv-x="1130" d="M1049 922q0 -75 -18 -154.5t-42 -142.5t-68.5 -144.5t-76 -132t-86.5 -133.5l-70 -104l2 -238q0 -49 -0.5 -78t-3.5 -75t-8 -74t-15.5 -61.5t-25.5 -52t-38 -31.5t-52 -13q-56 0 -94 37t-50 94t3.5 129.5t58.5 138.5l164 240q-3 92 -9 165.5t-19 151.5t-35 135t-53.5 104 t-78.5 71t-106 24t-103 -40t-65 -100t-21 -130h-57q0 86 13 161t40 140t76.5 103t116.5 38q68 0 122.5 -27t92 -79.5t64.5 -118t43 -153.5t24 -174t12 -191l25 39q202 310 202 676h136zM633 -127l-2 156l-119 -172q-46 -71 -58.5 -144t12.5 -120.5t81 -47.5q20 0 35.5 13 t24.5 40.5t14.5 55t8 71t3 73t0.5 75.5z" />
<glyph unicode="&#x3b4;" horiz-adv-x="1046" d="M965 414q0 -183 -129 -313t-312 -130q-184 0 -313 130t-129 313q0 77 36 139.5t99.5 103.5t141.5 67t171 36q-206 175 -206 364q0 105 65.5 182.5t163.5 77.5q116 0 208.5 -57.5t117.5 -157.5l-131 -32q-20 80 -72.5 135t-122.5 55q-61 0 -91 -60t-30 -143 q0 -35 15.5 -71t34.5 -62.5t57 -62t60.5 -53.5t66.5 -52q59 -46 88 -69.5t77 -70t72 -82t43 -86t19 -101.5zM780 414q0 147 -184 293q-139 -16 -234.5 -95t-95.5 -198q0 -100 27.5 -185.5t88 -142.5t142.5 -57q81 0 141 57t87.5 142.5t27.5 185.5z" />
<glyph unicode="&#x3b5;" horiz-adv-x="989" d="M907 186q-51 -93 -142 -146.5t-196 -53.5q-94 0 -179.5 19.5t-155 56.5t-111 98.5t-41.5 138.5q0 158 188 211q-131 61 -131 188q0 78 55.5 133.5t138 80t179.5 24.5q191 0 334 -131l-41 -43q-123 117 -293 117q-82 0 -141.5 -52.5t-59.5 -128.5q0 -113 140 -159 q108 6 217 6v-92q-151 0 -242 14q-172 -40 -172 -168q0 -112 93 -184t222 -72q89 0 167 46t122 124z" />
<glyph unicode="&#x3b6;" horiz-adv-x="890" d="M850 -262q0 -49 -6 -90.5t-20 -79t-40 -59t-63 -21.5q-44 0 -79.5 26.5t-47.5 67.5l53 17q8 -23 28.5 -38.5t45.5 -15.5q17 0 30 7.5t20.5 23.5t12.5 31t6.5 42t2 43t0.5 46q0 75 -53.5 129.5t-133.5 79t-174 24.5q-147 0 -248.5 108.5t-101.5 260.5q0 134 20.5 259.5 t61 237.5t107.5 199.5t153 132.5q-88 75 -76 187h135q-10 -91 39 -152q52 10 99 10q36 0 55 -1t45.5 -6t38.5 -17.5t12 -32.5q0 -14 -5.5 -24.5t-18.5 -17t-24.5 -10t-32.5 -5t-33.5 -2t-36.5 -0.5q-75 0 -134 30q-50 -25 -87.5 -70.5t-61 -109.5t-38.5 -130t-22 -154 t-9.5 -158.5t-2.5 -165.5q0 -61 8 -113.5t26 -98.5t52 -72.5t80 -26.5q108 0 202 -32.5t155 -100.5t61 -158z" />
<glyph unicode="&#x3b7;" horiz-adv-x="1222" d="M1141 635q0 -107 -32 -317.5t-32 -317.5q0 -227 60 -483h-176q-56 227 -56 483q0 107 25.5 317.5t25.5 317.5q0 106 -72.5 182t-176.5 76q-105 0 -178.5 -76t-73.5 -182v-635h-172v635q0 39 -0.5 60t-2 57t-6 56t-12 42.5t-20 32.5t-29.5 10q-18 0 -31 -7.5t-21 -25 t-12.5 -33t-6.5 -43.5t-2.5 -44.5t-0.5 -47.5h-57q0 258 131 258q75 0 131.5 -47.5t85.5 -126.5q39 78 113 126t164 48q113 0 210.5 -36.5t160.5 -109.5t63 -169z" />
<glyph unicode="&#x3b8;" horiz-adv-x="995" d="M913 678q0 -136 -23.5 -257.5t-70.5 -224.5t-130 -164t-191 -61t-191 61t-130.5 164t-71 224.5t-23.5 257.5q0 107 14 206.5t46 191.5t79 159.5t118.5 108t158.5 40.5t158 -40.5t118 -108t79 -159.5t46 -191.5t14 -206.5zM729 707q0 67 -1 111.5t-4 108t-9.5 106.5 t-17.5 93t-28 83t-40.5 61.5t-56.5 42.5t-74 14t-74 -14t-56.5 -42.5t-41 -61.5t-28 -83t-17.5 -93.5t-10 -106t-4 -108t-1 -111.5h463zM729 649h-463q0 -66 1 -111.5t4 -108t10 -106t17.5 -93.5t28 -83t41 -61.5t56.5 -42.5t74 -14t74 14t56.5 42.5t40.5 61.5t28 83 t17.5 93t9.5 106.5t4 108t1 111.5z" />
<glyph unicode="&#x3b9;" horiz-adv-x="659" d="M578 231q0 -68 -13.5 -124.5t-48 -96t-86.5 -39.5q-109 0 -187.5 76t-78.5 184v691h172v-691q0 -41 3.5 -73t12.5 -63.5t29 -48.5t49 -17t48.5 17t27.5 49t11 62.5t3 73.5h58z" />
<glyph unicode="&#x3ba;" horiz-adv-x="1034" d="M952 231q0 -106 -56.5 -183t-147.5 -77q-117 0 -191 100t-74 236q0 75 -64 115.5t-165 50.5v-473h-172v922h172v-365q44 23 80 65.5t80 108.5q68 101 138 160t157 59q73 0 121 -57t36 -129l-57 8q9 47 -22 84t-78 37q-74 0 -130.5 -52t-115.5 -143q-84 -119 -148 -168 q67 -6 124 -20.5t107.5 -39.5t79.5 -67t29 -96q0 -42 0.5 -66t3 -61.5t8.5 -60t16 -45.5t26.5 -34t38.5 -11q66 0 106.5 60t40.5 142h57z" />
<glyph unicode="&#x3bb;" horiz-adv-x="1200" d="M1118 238q0 -109 -40.5 -187t-119.5 -78q-28 0 -53.5 14t-47 43t-38 57.5t-34 74.5t-27.5 76.5t-25 80.5l-106 343l-348 -633h-197l473 862l-47 153q-13 39 -20 58.5t-22.5 52.5t-30 49t-37.5 29.5t-50 13.5q-42 0 -68 -38.5t-26 -90.5h-57q0 69 14 126t49 97.5t88 40.5 q27 0 51.5 -13t45 -39.5t36 -53.5t31.5 -69t25.5 -71.5t23.5 -74.5l225 -723q13 -42 21 -65.5t24.5 -59.5t32.5 -55t40.5 -34t53.5 -15q45 0 74 38.5t29 90.5h57z" />
<glyph unicode="&#x3bc;" horiz-adv-x="1208" d="M1126 231q0 -68 -14 -124.5t-49 -96t-88 -39.5q-70 0 -130 31.5t-95 85.5q-85 -117 -215 -117q-148 0 -252 80q18 -291 82 -563h-201q29 400 29 743v691h172v-691q0 -82 48.5 -142t121.5 -60q118 0 184 118q-14 35 -14 84v691h172v-691q0 -202 98 -202q29 0 49 17 t29 48.5t12.5 63.5t3.5 73h57z" />
<glyph unicode="&#x3bd;" horiz-adv-x="1114" d="M1032 582q0 -150 -71.5 -279.5t-198.5 -202.5l-227 -131l-242 699q-78 225 -80 225q-18 0 -31 -7t-21 -22.5t-12.5 -29.5t-6.5 -40t-2.5 -41t-0.5 -44h-57q0 64 11 115.5t42 88.5t78 37q79 0 140.5 -56.5t90.5 -143.5l220 -639l69 39q114 65 178 181t64 251 q0 79 -53.5 141.5t-145.5 126.5l98 143q158 -112 158 -411z" />
<glyph unicode="&#x3be;" horiz-adv-x="993" d="M952 -262q0 -49 -6 -90.5t-20 -79t-40 -59t-63 -21.5q-44 0 -79.5 26t-49.5 68l56 17q8 -24 27.5 -39t45.5 -15q17 0 30 7.5t20.5 23.5t12.5 31t6.5 42t2 43t0.5 46q0 27 -19 51t-59 44t-79 35t-102 30t-103.5 23.5t-106.5 21.5q-68 14 -127 37.5t-109 58.5t-79 85 t-29 109q0 231 289 326q-244 64 -244 252q0 138 99 234.5t257 138.5q-80 73 -94 172h135q17 -96 74 -150q55 8 125 8q40 0 61.5 -1t52 -6t44.5 -17.5t14 -32.5q0 -14 -6.5 -24.5t-21.5 -17t-28 -10t-37 -5t-38.5 -2t-40.5 -0.5q-86 0 -158 35q-113 -40 -183.5 -125 t-70.5 -197q0 -163 238 -211q122 16 231 16v-92q-113 0 -221 6q-133 -34 -213 -109t-80 -188q0 -86 47 -152t125 -81q238 -47 335 -84q179 -69 179 -178z" />
<glyph unicode="&#x3bf;" d="M963 479q0 -139 -59.5 -253.5t-164 -180t-231.5 -65.5q-193 0 -321 138t-128 345q0 212 126.5 345.5t326.5 133.5q196 0 323.5 -131t127.5 -332zM778 408q0 211 -82 344t-211 133q-109 0 -175 -88t-66 -234q0 -228 90 -395q32 -61 85 -96t113 -35q115 0 180.5 99 t65.5 272z" />
<glyph unicode="&#x3c0;" horiz-adv-x="1220" d="M1139 799q-115 -48 -234 -60v-563q0 -61 42 -104t102 -43v-58q-129 0 -222.5 53.5t-93.5 151.5v563q-52 4 -147.5 21t-132.5 22v-342q0 -129 -38 -239t-117.5 -182t-186.5 -72v135q125 0 204.5 106.5t79.5 251.5v348q-72 5 -82 5q-72 0 -123 -25.5t-51 -75.5h-57 q0 111 65.5 192t165.5 81q85 0 253 -29t253 -29q130 0 254 51z" />
<glyph unicode="&#x3c1;" horiz-adv-x="1200" d="M1118 461q0 -135 -70.5 -248t-189.5 -177.5t-258 -64.5q-156 0 -297 72q14 -126 14 -213q0 -163 -63 -317l-160 65q51 117 51 252q0 105 -31.5 314.5t-31.5 316.5q0 135 70.5 248t189.5 177t258 64t258 -64t189.5 -177t70.5 -248zM934 461q0 113 -40 210.5t-117.5 159.5 t-176.5 62t-176.5 -62t-117.5 -159.5t-40 -210.5q0 -41 3 -89.5t6.5 -82t10 -91.5t9.5 -85q141 -84 305 -84q99 0 176.5 62t117.5 159.5t40 210.5z" />
<glyph unicode="&#x3c2;" horiz-adv-x="878" d="M797 877l-99 -95q-32 35 -51 53.5t-51.5 38t-60.5 19.5q-121 0 -201 -101t-80 -239q0 -103 51 -194t139 -150q143 -95 195 -141q109 -94 109 -195q0 -64 -36 -111t-91 -47q-105 0 -191 64l35 45q70 -51 156 -51q32 0 50.5 29.5t18.5 70.5q0 72 -88 152q-43 36 -188 135 q-50 34 -79.5 55t-74 55.5t-71.5 63.5t-54 65.5t-40 75t-13 78.5q0 111 63 203t167 143t223 51q92 0 156 -13.5t106 -59.5z" />
<glyph unicode="&#x3c3;" horiz-adv-x="1116" d="M1034 969q-132 -54 -299 -70q115 -55 182.5 -166t67.5 -254q0 -139 -59.5 -253.5t-164 -180t-231.5 -65.5q-193 0 -320.5 138t-127.5 345q0 212 126.5 345.5t326.5 133.5q23 0 59 -4q155 11 407 109zM801 408q0 211 -82 344t-211 133q-109 0 -175.5 -88t-66.5 -234 q0 -228 90 -395q32 -61 85.5 -96t113.5 -35q115 0 180.5 99t65.5 272z" />
<glyph unicode="&#x3c4;" horiz-adv-x="1034" d="M952 809q-157 -114 -350 -98v-480q0 -41 3.5 -73t12.5 -63.5t29 -48.5t49 -17t48.5 17t27.5 49t11 62.5t3 73.5h58q0 -69 -13 -124.5t-47.5 -95.5t-87.5 -40q-109 0 -187.5 76t-78.5 184v521q-112 41 -117 41q-72 0 -123 -25.5t-51 -75.5h-57q0 111 65.5 192t165.5 81 q43 0 209 -64q81 -30 169.5 -17.5t158.5 64.5z" />
<glyph unicode="&#x3c5;" horiz-adv-x="1142" d="M1061 512q0 -141 -46 -262.5t-138.5 -200t-212.5 -78.5q-109 0 -203.5 41t-153.5 119t-59 176q0 65 17.5 193t17.5 192q0 31 -0.5 47t-2 44t-6 44t-12 33t-20 25t-29.5 8q-18 0 -31 -7.5t-21 -25t-12.5 -33t-6.5 -43.5t-2.5 -44.5t-0.5 -47.5h-57q0 258 131 258 q102 0 172 -76.5t70 -181.5q0 -64 -11.5 -192t-11.5 -193q0 -112 66 -195t166 -83q105 0 184 70.5t117.5 179t38.5 233.5q0 93 -53.5 173.5t-149.5 174.5l119 123q58 -56 91 -139t41.5 -157.5t8.5 -174.5z" />
<glyph unicode="&#x3c6;" horiz-adv-x="1404" d="M1323 461q0 -127 -70.5 -231.5t-185 -167t-254.5 -82.5l4 -150q0 -184 -100 -332l-144 94q72 107 72 238l-4 143q-150 12 -276 73.5t-204.5 170.5t-78.5 244q0 148 95 271.5t247 213.5l29 -49q-187 -111 -187 -436q0 -162 107 -283.5t266 -144.5q-3 51 -9.5 150.5 t-10 178.5t-3.5 150q0 114 43 213.5t124.5 162t183.5 62.5q108 0 191 -71t124 -181t41 -237zM1139 461v61.5t-1 60.5t-3.5 61t-6.5 55.5t-10.5 53.5t-15.5 45.5t-22 40t-29 28.5t-37.5 20t-46.5 6q-45 0 -78.5 -23t-52 -58.5t-30 -88.5t-15 -101.5t-3.5 -109.5 q0 -70 3.5 -147.5t10 -175t9.5 -146.5q143 36 235.5 152t92.5 266z" />
<glyph unicode="&#x3c7;" horiz-adv-x="1105" d="M1106 -223q0 -55 -8.5 -104t-26 -91t-50 -67t-75.5 -25q-35 0 -66 18t-52 42.5t-43 68t-34 73.5t-30 81l-125 338q-122 -158 -189 -298.5t-67 -295.5h-172q0 98 25.5 190t86 191t102 156t129.5 168q20 25 30 38l-127 346q-14 38 -22.5 59.5t-25.5 54t-32.5 49.5 t-39.5 30.5t-52 13.5q-48 0 -75.5 -45t-27.5 -106h-57q0 55 8.5 103.5t26 91t50 67t75.5 24.5q26 0 49.5 -13t45 -40t38.5 -54t35 -69.5t29.5 -71t27.5 -73.5l115 -314q60 78 103 142t82.5 142t60 159.5t20.5 165.5h172q0 -79 -21 -160t-48 -142t-81 -142.5t-88.5 -127 t-102.5 -131.5q-28 -35 -42 -53l137 -375q27 -72 70 -119t102 -47q48 0 75.5 45t27.5 107h57z" />
<glyph unicode="&#x3c8;" horiz-adv-x="1296" d="M1214 512q0 -143 -57.5 -266t-163.5 -199t-237 -76h-4v-483h-58v485q-120 8 -218.5 46.5t-163 113.5t-64.5 174q0 65 17.5 193t17.5 192q0 31 -0.5 47t-2 44t-6 44t-12 33t-20 25t-29.5 8q-18 0 -31 -7.5t-21 -25t-12.5 -33t-6.5 -43.5t-2.5 -44.5t-0.5 -47.5h-57 q0 258 131 258q102 0 172 -76.5t70 -181.5q0 -64 -11.5 -192t-11.5 -193q0 -104 75.5 -179.5t186.5 -94.5v428q0 461 -57 895h172q-57 -458 -57 -895v-432h4q115 0 208 68t143 178t50 237q0 93 -53.5 173.5t-149.5 174.5l119 123q58 -56 91 -139t41.5 -157.5t8.5 -174.5z " />
<glyph unicode="&#x3c9;" horiz-adv-x="1421" d="M1339 461q0 -128 -46.5 -239t-136 -181t-202.5 -70q-180 0 -256 209q-31 -96 -88.5 -152.5t-140.5 -56.5q-114 0 -204 70t-136.5 181t-46.5 239q0 125 62.5 239t172.5 240l45 -37q-37 -43 -60.5 -94.5t-33 -115t-12 -111t-2.5 -121.5q0 -432 215 -432q162 0 199 264 q-25 139 -25 321h135q0 -67 0.5 -102t2.5 -99.5t6.5 -101t12.5 -87.5t21 -80.5t31 -59t44 -42.5t58 -13q213 0 213 432q0 74 -2.5 121.5t-12 111t-33 115t-60.5 94.5l45 37q110 -126 172.5 -240t62.5 -239z" />
<glyph unicode="&#x3d1;" horiz-adv-x="1171" d="M1090 922q-56 -14 -103 -19q17 -99 17 -211q0 -110 -11.5 -209.5t-40.5 -195t-72.5 -164t-112 -110.5t-155.5 -42q-104 0 -194 42.5t-144.5 120t-54.5 173.5q0 65 32 192t32 193q0 29 -0.5 46.5t-2 44.5t-5 43.5t-9.5 33.5t-16 25t-23 8q-29 0 -48 -17t-27 -49.5 t-10.5 -62t-2.5 -72.5h-57q0 50 7.5 93.5t23 82t45 60.5t69.5 22q97 0 162.5 -76.5t65.5 -181.5q0 -66 -26 -193.5t-26 -191.5q0 -113 57.5 -195.5t151.5 -82.5q38 0 68.5 14.5t51.5 48t36.5 66.5t24.5 91t15 99.5t8 114.5t2.5 113t0.5 116l-2 201q-145 8 -253 66.5 t-138 170.5q-25 96 25.5 175t140.5 79q79 0 144.5 -33t112 -92t78.5 -134.5t50 -166.5q25 3 100 21zM813 952q-6 83 -18.5 145.5t-37 117t-66 83.5t-99.5 29q-62 0 -95 -56.5t-14 -123.5q25 -95 116.5 -142.5t213.5 -52.5z" />
<glyph unicode="&#x3d5;" horiz-adv-x="1067" d="M985 479q0 -202 -120 -343.5t-302 -153.5v-494h-57v492q-184 10 -304 146.5t-120 336.5t114 331.5t298 145.5l-27 416h135l-29 -416q182 -14 297 -142.5t115 -318.5zM506 43v418l-10 424q-104 -4 -167 -92.5t-63 -229.5q0 -228 90 -395q56 -100 150 -125zM801 408 q0 183 -63 309.5t-167 159.5l-8 -416v-424q110 3 174 102t64 269z" />
<glyph unicode="&#x3d6;" horiz-adv-x="1421" d="M1339 461q0 -128 -46.5 -239t-136 -181t-202.5 -70q-180 0 -256 209q-31 -96 -88.5 -152.5t-140.5 -56.5q-114 0 -204 70t-136.5 181t-46.5 239q0 125 62.5 239t172.5 240l45 -37q-37 -43 -60.5 -94.5t-33 -115t-12 -111t-2.5 -121.5q0 -432 215 -432q162 0 199 264 q-25 139 -25 321h135q0 -67 0.5 -102t2.5 -99.5t6.5 -101t12.5 -87.5t21 -80.5t31 -59t44 -42.5t58 -13q213 0 213 432q0 124 -23 236.5t-68.5 206.5t-123 150t-178.5 56q-247 0 -475 -57l-14 57q246 57 489 57q124 0 231 -59t179.5 -156.5t113.5 -225.5t41 -265z" />
<glyph unicode="&#x3f5;" horiz-adv-x="954" d="M872 94q-82 -123 -299 -123q-135 0 -248.5 70t-178 188.5t-64.5 257.5q0 105 51.5 193.5t137 146.5t195.5 90.5t228 32.5h121v-57h-121q-173 0 -299 -115.5t-129 -281.5q48 -3 114 14.5t115.5 35t115 23.5t112.5 -20l-57 -121q-54 25 -122 25.5t-148.5 -10t-127.5 -7.5 q7 -110 42 -199.5t103.5 -148.5t159.5 -59q96 0 185 139z" />
<glyph unicode="&#x400;" horiz-adv-x="1251" d="M852 1458h-82l-315 199q-60 41 -60 88q0 29 19 46t51 17q23 0 40.5 -9.5t45.5 -37.5zM1223 346l-93 -346h-1105v39q112 7 145 41.5t33 142.5v910q0 108 -32 141.5t-146 42.5v39h1087l6 -293h-51q-9 49 -19 80.5t-26.5 57t-36.5 39.5t-54 23t-74 12t-101 3h-277 q-41 0 -54 -13.5t-13 -56.5v-454h315q141 0 180 51q17 21 25.5 49.5t19.5 93.5h47v-475h-47q-20 128 -59.5 162.5t-165.5 34.5h-315v-506q0 -56 14 -64q10 -10 67.5 -17t133.5 -7h55q114 0 185 10.5t127.5 42t93.5 81.5t77 136h58z" />
<glyph unicode="&#x401;" horiz-adv-x="1251" d="M522 1604q0 -41 -30.5 -71t-73.5 -30q-41 0 -70 30t-29 73q0 40 30.5 70t68.5 30q43 0 73.5 -30.5t30.5 -71.5zM930 1604q0 -41 -31 -71t-74 -30q-41 0 -69.5 30t-28.5 73q0 40 30 70t68 30q43 0 74 -30.5t31 -71.5zM1223 346l-93 -346h-1105v39q112 7 145 41.5t33 142.5 v910q0 108 -32 141.5t-146 42.5v39h1087l6 -293h-51q-9 49 -19 80.5t-26.5 57t-36.5 39.5t-54 23t-74 12t-101 3h-277q-41 0 -54 -13.5t-13 -56.5v-454h315q141 0 180 51q17 21 25.5 49.5t19.5 93.5h47v-475h-47q-20 128 -59.5 162.5t-165.5 34.5h-315v-506q0 -56 14 -64 q10 -10 67.5 -17t133.5 -7h55q114 0 185 10.5t127.5 42t93.5 81.5t77 136h58z" />
<glyph unicode="&#x402;" horiz-adv-x="1572" d="M1456 86q0 -106 -60 -195t-159.5 -139.5t-212.5 -50.5q-72 0 -132.5 33t-60.5 80q0 34 24.5 57t59.5 23q47 0 99 -66q27 -33 45 -45t41 -12q47 0 69 36q26 49 38 110.5t12 174.5v547q0 40 -23 70t-61.5 46.5t-81.5 24.5t-90 8q-85 0 -159.5 -49t-74.5 -84v-432 q0 -112 35.5 -145t161.5 -39v-39h-598v39q46 3 73.5 6.5t51.5 13t35.5 22t19.5 37t10 53t2 75.5v1024h-110q-60 0 -100.5 -3.5t-75 -15t-55.5 -28.5t-39.5 -48t-30.5 -69.5t-25 -97.5h-49l12 348h1155l12 -348h-49q-12 60 -23.5 98t-30 69.5t-39 48t-55.5 28t-75 15 t-102 3.5h-111v-527q126 158 305 158q72 0 142 -13t135 -40t105 -77.5t40 -117.5v-567z" />
<glyph unicode="&#x403;" horiz-adv-x="1138" d="M1118 1063h-51q-9 49 -19 80.5t-26.5 57t-36.5 39.5t-54 23t-74 12t-101 3h-279q-41 0 -53 -13.5t-12 -56.5v-985q0 -111 34 -144.5t152 -39.5v-39h-573v39q117 7 147.5 43t30.5 164v887q0 108 -32 141.5t-146 42.5v39h1087zM801 1743q0 -47 -62 -86l-315 -199h-82 l301 303q28 28 45.5 37.5t40.5 9.5q34 0 53 -17t19 -48z" />
<glyph unicode="&#x404;" horiz-adv-x="1366" d="M1296 231q-94 -124 -240 -192t-319 -68q-152 0 -287 55.5t-227 155.5q-78 88 -122 215t-44 269q0 168 57 307t165 235q95 84 216 130t248 46q151 0 299 -49q46 -18 80 -18q31 0 54 17.5t32 49.5h43l19 -462h-47q-29 99 -57.5 152.5t-78.5 103.5q-125 125 -305 125 q-213 0 -343.5 -154t-141.5 -414h621v-90h-623q6 -153 52 -273.5t124 -191.5q134 -119 332 -119q127 0 235 49t222 158z" />
<glyph unicode="&#x405;" horiz-adv-x="1138" d="M1006 344q0 -158 -120.5 -265.5t-297.5 -107.5q-124 0 -242 47q-64 23 -96 23q-23 0 -39 -19.5t-18 -48.5h-46l-61 435h47q76 -187 176.5 -275t237.5 -88q112 0 182 64t70 167q0 76 -29 119q-78 120 -305 240q-172 91 -246 183.5t-74 215.5q0 161 109 256q108 94 246 94 q99 0 217 -45q52 -24 90 -24q53 0 65 69h43l46 -436h-52q-24 90 -50.5 140t-74.5 100q-109 112 -249 112q-95 0 -154 -52.5t-59 -137.5q0 -83 69.5 -156t231.5 -163q202 -108 292.5 -214.5t90.5 -232.5z" />
<glyph unicode="&#x406;" horiz-adv-x="681" d="M633 0h-608v39q68 2 104 9t59 28t29 53.5t6 93.5v910q0 61 -5.5 92t-28.5 52.5t-58.5 28.5t-105.5 11v39h608v-39q-68 -3 -104.5 -10.5t-60 -29t-30 -53.5t-6.5 -91v-910q0 -112 37 -145.5t164 -38.5v-39z" />
<glyph unicode="&#x407;" horiz-adv-x="681" d="M633 0h-608v39q68 2 104 9t59 28t29 53.5t6 93.5v910q0 61 -5.5 92t-28.5 52.5t-58.5 28.5t-105.5 11v39h608v-39q-68 -3 -104.5 -10.5t-60 -29t-30 -53.5t-6.5 -91v-910q0 -112 37 -145.5t164 -38.5v-39zM227 1559q0 -41 -30.5 -71t-73.5 -30q-41 0 -69.5 30t-28.5 73 q0 40 30 70t68 30q43 0 73.5 -30.5t30.5 -71.5zM635 1559q0 -41 -31 -71t-74 -30q-41 0 -69.5 30t-28.5 73q0 40 30 70t68 30q43 0 74 -30.5t31 -71.5z" />
<glyph unicode="&#x408;" horiz-adv-x="796" d="M758 1317q-44 -3 -71.5 -7t-50.5 -13t-35 -20t-20 -32.5t-10 -46.5t-2 -65v-758q0 -192 -90.5 -298t-255.5 -106q-89 0 -146 41.5t-57 106.5q0 41 30 71.5t71 30.5q77 0 106 -104q11 -39 22.5 -53.5t33.5 -14.5q77 0 77 135v949q0 60 -5.5 91t-27.5 52.5t-56 28.5 t-101 12v39h588v-39z" />
<glyph unicode="&#x409;" horiz-adv-x="1984" d="M1942 371q0 -134 -84 -224q-61 -67 -184.5 -107t-268.5 -40h-537v39q64 4 96.5 11.5t53.5 32t26 59.5t5 104v1020h-443v-555q0 -68 -7.5 -144t-23 -160.5t-43.5 -160t-64.5 -137.5t-90.5 -99t-117 -37q-38 0 -72.5 6t-66 18t-50 34.5t-18.5 52.5q0 52 29.5 88.5 t77.5 36.5q32 0 53 -11t30 -24.5t25.5 -24.5t40.5 -12q45 -2 70.5 16.5t48.5 69.5q90 201 90 488v422q0 59 -5.5 89.5t-26 52t-53 29t-95.5 13.5v39h1100v-39q-64 -2 -99 -9.5t-57.5 -29t-29.5 -54t-7 -91.5v-367h141q233 0 359 -70q92 -49 144.5 -136t52.5 -189zM1718 383 q0 301 -356 301q-46 0 -117 -6v-533q0 -41 14.5 -55t55.5 -14q207 0 305 74.5t98 232.5z" />
<glyph unicode="&#x40a;" horiz-adv-x="2007" d="M1942 371q0 -134 -84 -224q-61 -67 -184.5 -107t-268.5 -40h-537v39q64 4 96.5 11.5t53.5 32t26 59.5t5 104v430h-621v-453q0 -109 32.5 -142t147.5 -42v-39h-569v39q64 4 96.5 11.5t53 32t25.5 59.5t5 104v887q0 59 -5.5 89.5t-26 52t-53 29t-95.5 13.5v39h569v-39 q-63 -6 -95.5 -13.5t-53 -29t-26 -52t-5.5 -89.5v-367h621v367q0 59 -5.5 89.5t-26.5 52t-53.5 29t-95.5 13.5v39h570v-39q-64 -2 -99 -9.5t-57.5 -29t-29.5 -54t-7 -91.5v-367h141q233 0 359 -70q92 -49 144.5 -136t52.5 -189zM1718 383q0 301 -356 301q-46 0 -117 -6v-533 q0 -41 14.5 -55t55.5 -14q207 0 305 74.5t98 232.5z" />
<glyph unicode="&#x40b;" horiz-adv-x="1779" d="M1739 0h-570v39q63 6 95.5 13.5t53.5 29t26.5 52t5.5 89.5v260q0 125 -85 213t-212 88q-82 0 -167.5 -34t-156.5 -91v-436q0 -112 35.5 -145t161.5 -39v-39h-598v39q46 3 73.5 6.5t51.5 13t35.5 22t19.5 37t10 53t2 75.5v1024h-110q-60 0 -100.5 -3.5t-75 -15 t-55.5 -28.5t-39.5 -48t-30.5 -69.5t-25 -97.5h-49l12 348h1155l12 -348h-49q-12 60 -23.5 98t-30 69.5t-39 48t-55.5 28t-75 15t-102 3.5h-111v-520q145 124 318 124q142 0 258.5 -48.5t185 -139t68.5 -205.5v-258q0 -59 5.5 -89.5t26 -52t53 -29t95.5 -13.5v-39z" />
<glyph unicode="&#x40c;" horiz-adv-x="1478" d="M1378 0h-336l-280 455q-8 12 -26.5 42t-25 40t-22 32.5t-23 30.5t-22 23t-25 20.5t-25.5 13t-31 9.5t-34 2h-65v-445q0 -113 32 -145t152 -39v-39h-577v39q64 4 97.5 12t54.5 32t26.5 59.5t5.5 103.5v887q0 58 -5.5 89t-27 52.5t-55 29.5t-96.5 13v39h581v-39 q-66 -5 -100 -12t-55.5 -28.5t-27 -52.5t-5.5 -91v-388h65q112 0 204 91t128 229q26 97 60.5 160.5t76.5 93t78.5 39.5t83.5 10q50 0 88 -10t65.5 -40.5t26.5 -80.5q1 -48 -26.5 -73t-63.5 -25q-57 0 -99 17.5t-70 34.5t-50 17q-26 0 -45.5 -36t-40.5 -128 q-29 -129 -97 -224.5t-124 -108.5q55 -8 95.5 -44.5t86.5 -109.5l180 -297q39 -65 71 -107t55.5 -65t50 -33.5t45.5 -13t53 -2.5h18v-39zM954 1743q0 -48 -61 -86l-315 -199h-82l301 303q28 28 45.5 37.5t40.5 9.5q34 0 52.5 -17t18.5 -48z" />
<glyph unicode="&#x40d;" horiz-adv-x="1478" d="M1438 0h-570v39q64 4 96.5 11.5t53.5 32t26 59.5t5 104v676l-621 -623v-76q0 -109 32.5 -142t147.5 -42v-39h-569v39q64 4 96.5 11.5t53 32t25.5 59.5t5 104v887q0 59 -5.5 89.5t-26 52t-53 29t-95.5 13.5v39h569v-39q-63 -6 -95.5 -13.5t-53 -29t-26 -52t-5.5 -89.5 v-703l621 623v80q0 59 -5.5 89.5t-26.5 52t-53.5 29t-95.5 13.5v39h570v-39q-63 -6 -95.5 -13.5t-53.5 -29t-26.5 -52t-5.5 -89.5v-910q0 -109 32.5 -142t148.5 -42v-39zM967 1458h-82l-316 199q-59 40 -59 88q0 29 19 46t51 17q23 0 40.5 -9.5t45.5 -37.5z" />
<glyph unicode="&#x40e;" horiz-adv-x="1527" d="M1489 1317q-47 -3 -71 -6t-55.5 -14t-53 -31t-47 -54.5t-54.5 -87.5l-428 -837q-35 -68 -61 -111.5t-60 -85.5t-69.5 -64.5t-83 -36.5t-105.5 -14q-82 0 -138 35.5t-56 93.5q0 64 29.5 93.5t72.5 29.5q119 -2 127 -94q4 -59 51 -59q42 0 84 60q17 24 80 138l-307 727 q-27 75 -50.5 128t-48 88t-43.5 54.5t-48.5 30t-51 13t-61.5 4.5v39h586v-39l-58 -2q-51 -2 -74.5 -16t-23.5 -44q0 -28 2 -44.5t13 -53t34 -92.5l240 -565l313 610q37 71 47 95t10 46q0 35 -30 49t-113 17v39h502v-39zM1053 1780q-19 -163 -90.5 -242.5t-200.5 -79.5 q-151 0 -230 111q-30 43 -42 88.5t-13 122.5h60q22 -103 76.5 -151t152.5 -48q90 0 137 41.5t90 157.5h60z" />
<glyph unicode="&#x40f;" horiz-adv-x="1478" d="M1438 0h-570q-33 -24 -50 -117.5t-18 -175.5l-1 -82h-115q-1 3 0.5 33t-2.5 81.5t-10.5 102t-22.5 96t-39 62.5h-571v39q63 6 95.5 13.5t53 29t26 52t5.5 89.5v887q0 69 -5 104t-25.5 59.5t-53 32t-96.5 11.5v39h569v-39q-115 -9 -147.5 -42t-32.5 -142v-1043h621v1020 q0 69 -5 104t-26 59.5t-53.5 32t-96.5 11.5v39h570v-39q-116 -9 -148.5 -42t-32.5 -142v-910q0 -59 5.5 -89.5t26.5 -52t53.5 -29t95.5 -13.5v-39z" />
<glyph unicode="&#x410;" horiz-adv-x="1478" d="M1446 0h-522v39q82 1 112.5 16.5t30.5 53.5q0 51 -39 137l-84 196h-536l-95 -239q-16 -43 -16 -80q0 -43 33 -63.5t106 -20.5v-39h-405v39q27 1 44 5t36.5 18t34 33.5t37 61t45 89.5t57.5 129l426 1005h41l510 -1163q54 -114 84.5 -144t99.5 -34v-39zM915 526l-237 564 l-236 -564h473z" />
<glyph unicode="&#x411;" horiz-adv-x="1331" d="M1204 418q0 -80 -31 -169t-83 -136q-57 -52 -159 -82.5t-222 -30.5h-684v39q67 2 103 9t58.5 28.5t28.5 54t6 92.5v910q0 61 -5.5 92t-28.5 52.5t-58 28.5t-104 11v39h1105l7 -293h-52q-9 49 -19 80.5t-26.5 57t-36.5 39.5t-54 23t-74 12t-101 3h-278q-41 0 -53.5 -13.5 t-12.5 -56.5v-374q19 12 100.5 22t159.5 10q134 0 227 -30.5t185 -112.5q102 -93 102 -305zM969 416q0 104 -44.5 194t-127.5 125q-98 41 -226 41q-85 0 -141 -24v-592q0 -49 27 -66.5t102 -17.5q190 0 285 53q59 34 92 116t33 171z" />
<glyph unicode="&#x412;" horiz-adv-x="1263" d="M1204 369q0 -154 -114 -256q-57 -52 -159 -82.5t-222 -30.5h-684v39q67 2 103 9t58.5 28.5t28.5 54t6 92.5v910q0 61 -5.5 92t-28.5 52.5t-58 28.5t-104 11v39h573q265 0 401 -88t136 -260q0 -63 -22 -117t-60 -88q-37 -32 -78.5 -51t-120.5 -39q100 -25 152 -48.5 t98 -64.5q100 -94 100 -231zM969 367q0 97 -42 160t-130 100q-55 23 -136 32t-231 9v-508q0 -49 27 -66.5t102 -17.5q190 0 285 53q125 72 125 238zM926 999q0 137 -92 209t-269 72h-90q-45 0 -45 -61v-469h195q145 0 223 64.5t78 184.5z" />
<glyph unicode="&#x413;" horiz-adv-x="1097" d="M1077 1063h-51q-9 49 -19 80.5t-26.5 57t-36.5 39.5t-54 23t-74 12t-101 3h-238q-41 0 -53 -13.5t-12 -56.5v-985q0 -111 34 -144.5t152 -39.5v-39h-573v39q117 7 147.5 43t30.5 164v887q0 108 -32 141.5t-146 42.5v39h1046z" />
<glyph unicode="&#x414;" horiz-adv-x="1376" d="M1319 -348h-51q-12 61 -26 107.5t-39.5 94t-60 78t-87 49.5t-119.5 19h-508q-67 0 -119.5 -19t-86.5 -49.5t-59.5 -78t-39 -94t-25.5 -107.5h-51l16 426q80 1 124 17.5t59 37t39 73.5q3 5 4.5 9t3.5 8q33 70 61.5 218t28.5 270v422q0 59 -5.5 89.5t-26 52t-53 29 t-95.5 13.5v39h1100v-39q-63 -6 -95.5 -13.5t-53.5 -29t-26.5 -52t-5.5 -89.5v-871q0 -59 5.5 -89.5t26.5 -52t53.5 -29t95.5 -13.5zM913 297v969h-442v-535q0 -327 -96 -553q-17 -46 -8.5 -65.5t27.5 -20.5l18 -2h321q64 4 96.5 11.5t53 32t25.5 59.5t5 104z" />
<glyph unicode="&#x415;" horiz-adv-x="1251" d="M1223 346l-93 -346h-1105v39q112 7 145 41.5t33 142.5v910q0 108 -32 141.5t-146 42.5v39h1087l6 -293h-51q-9 49 -19 80.5t-26.5 57t-36.5 39.5t-54 23t-74 12t-101 3h-277q-41 0 -54 -13.5t-13 -56.5v-454h315q141 0 180 51q17 21 25.5 49.5t19.5 93.5h47v-475h-47 q-20 128 -59.5 162.5t-165.5 34.5h-315v-506q0 -56 14 -64q10 -10 67.5 -17t133.5 -7h55q114 0 185 10.5t127.5 42t93.5 81.5t77 136h58z" />
<glyph unicode="&#x416;" horiz-adv-x="1941" d="M1898 0h-335l-281 455q-21 33 -41.5 73t-31.5 61t-27.5 41.5t-38 29t-53.5 8.5h-25v-445q0 -113 32 -145t152 -39v-39h-577v39q120 7 152 39t32 145v445h-25q-32 0 -53.5 -8.5t-38 -29t-27.5 -41.5t-31.5 -61t-41.5 -73l-281 -455h-335v39q75 1 97 8q60 17 127 109 q30 41 68 104l181 297q46 73 86.5 109.5t95.5 44.5q-52 12 -106.5 105t-84.5 228q-21 92 -40.5 128t-45.5 36q-18 0 -30.5 -11t-20 -23.5t-35 -23.5t-71.5 -11q-32 0 -61 30t-29 68q0 131 149 131q37 0 63.5 -5.5t57 -23.5t54 -50.5t48 -88.5t45.5 -135q20 -75 40 -127 t50 -99t72.5 -70.5t97.5 -23.5h25v388q0 60 -5.5 91t-27 52.5t-55.5 28.5t-100 12v39h585v-39q-66 -5 -100 -12t-55.5 -28.5t-27 -52.5t-5.5 -91v-388h25q55 0 97.5 23.5t72.5 70.5t50 99t40 127q21 79 45.5 135t48 88.5t54 50.5t57 23.5t63.5 5.5q149 0 149 -131 q0 -38 -29 -68t-61 -30q-44 0 -71.5 11t-35 23.5t-20 23.5t-30.5 11q-26 0 -45.5 -36t-40.5 -128q-30 -135 -84.5 -228t-106.5 -105q55 -8 95.5 -44.5t86.5 -109.5l181 -297q49 -80 84.5 -126.5t68.5 -66t55.5 -24t65.5 -4.5h18v-39z" />
<glyph unicode="&#x417;" horiz-adv-x="1040" d="M981 391q0 -66 -16 -124.5t-55 -113.5t-98 -94.5t-150.5 -63.5t-206.5 -24q-82 0 -147 16t-109.5 47t-76 66.5t-51.5 85t-31 90.5t-20 95l70 16q38 -157 125 -231t234 -74q37 0 74 7.5t76 28t68.5 52t48.5 83t19 116.5q0 151 -88.5 238t-230.5 87h-119v74h113 q297 0 297 268q0 121 -80.5 201t-188.5 80q-151 0 -225.5 -85t-103.5 -286h-48l13 410h35l4 -6q25 -23 43 -23q39 0 82 21q90 34 211 34q73 0 140.5 -12.5t129 -40.5t107 -69t72 -102t26.5 -136q0 -124 -53.5 -199t-147.5 -94q258 -58 258 -338z" />
<glyph unicode="&#x418;" horiz-adv-x="1464" d="M1423 0h-569v39q64 4 96.5 11.5t53 32t25.5 59.5t5 104v676l-620 -623v-76q0 -109 32.5 -142t147.5 -42v-39h-569v39q64 4 96.5 11.5t53 32t25.5 59.5t5 104v887q0 59 -5.5 89.5t-26 52t-53 29t-95.5 13.5v39h569v-39q-63 -6 -95.5 -13.5t-53 -29t-26 -52t-5.5 -89.5 v-703l620 623v80q0 59 -5.5 89.5t-26 52t-53 29t-95.5 13.5v39h569v-39q-63 -6 -95.5 -13.5t-53 -29t-26 -52t-5.5 -89.5v-910q0 -109 32.5 -142t147.5 -42v-39z" />
<glyph unicode="&#x419;" horiz-adv-x="1464" d="M1423 0h-569v39q64 4 96.5 11.5t53 32t25.5 59.5t5 104v676l-620 -623v-76q0 -109 32.5 -142t147.5 -42v-39h-569v39q64 4 96.5 11.5t53 32t25.5 59.5t5 104v887q0 59 -5.5 89.5t-26 52t-53 29t-95.5 13.5v39h569v-39q-63 -6 -95.5 -13.5t-53 -29t-26 -52t-5.5 -89.5 v-703l620 623v80q0 59 -5.5 89.5t-26 52t-53 29t-95.5 13.5v39h569v-39q-63 -6 -95.5 -13.5t-53 -29t-26 -52t-5.5 -89.5v-910q0 -109 32.5 -142t147.5 -42v-39zM1012 1792q-19 -163 -90.5 -242.5t-200.5 -79.5q-150 0 -229 111q-30 44 -42.5 89t-13.5 122h60 q22 -103 76.5 -151t152.5 -48q90 0 137 41.5t90 157.5h60z" />
<glyph unicode="&#x41a;" horiz-adv-x="1413" d="M1333 0h-336l-280 455q-8 12 -26.5 42t-25 40t-22 32.5t-23 30.5t-22 23t-25 20.5t-25.5 13t-31 9.5t-34 2h-65v-445q0 -113 32 -145t152 -39v-39h-577v39q64 4 97.5 12t54.5 32t26.5 59.5t5.5 103.5v887q0 58 -5.5 89t-27 52.5t-55 29.5t-96.5 13v39h581v-39 q-66 -5 -100 -12t-55.5 -28.5t-27 -52.5t-5.5 -91v-388h65q109 0 186.5 88.5t114.5 231.5q26 98 56 160.5t65.5 92.5t68.5 40t79 10q149 0 149 -131q0 -38 -29 -68t-61 -30q-44 0 -71.5 11t-35.5 23.5t-20.5 23.5t-30.5 11q-26 0 -45.5 -36t-40.5 -128q-30 -135 -84 -228 t-106 -105q55 -8 95.5 -44.5t86.5 -109.5l180 -297q39 -65 71 -107t55.5 -65t50 -33.5t45.5 -13t53 -2.5h18v-39z" />
<glyph unicode="&#x41b;" horiz-adv-x="1437" d="M1397 0h-570v39q64 4 96.5 11.5t53.5 32t26 59.5t5 104v1020h-402v-469q0 -113 -10.5 -222t-36 -219.5t-63.5 -194t-99 -135.5t-137 -53q-38 0 -72.5 6t-66 18t-50 34.5t-18.5 52.5q0 52 29.5 88.5t77.5 36.5q32 0 53 -11t30 -24.5t25.5 -24.5t40.5 -12q45 -2 70.5 16.5 t48.5 69.5q90 201 90 506v404q0 59 -5.5 89.5t-26 52t-53 29t-95.5 13.5v39h1059v-39q-63 -6 -95.5 -13.5t-53 -29t-26 -52t-5.5 -89.5v-910q0 -109 32.5 -142t147.5 -42v-39z" />
<glyph unicode="&#x41c;" horiz-adv-x="1808" d="M1767 0h-573v39q121 7 153.5 43t32.5 164v928l-524 -1174h-29l-514 1126v-825q0 -155 37 -205.5t156 -56.5v-39h-481v39q54 4 86.5 12.5t56.5 24t35 46.5t15.5 71.5t4.5 107.5v832q0 60 -6 91.5t-28.5 52.5t-57.5 28.5t-102 11.5v39h405l473 -1034l453 1034h407v-39 q-114 -9 -146 -42t-32 -142v-910q0 -109 33 -143t145 -41v-39z" />
<glyph unicode="&#x41d;" horiz-adv-x="1464" d="M1423 0h-569v39q64 4 96.5 11.5t53 32t25.5 59.5t5 104v399h-620v-422q0 -109 32.5 -142t147.5 -42v-39h-569v39q64 4 96.5 11.5t53 32t25.5 59.5t5 104v887q0 59 -5.5 89.5t-26 52t-53 29t-95.5 13.5v39h569v-39q-63 -6 -95.5 -13.5t-53 -29t-26 -52t-5.5 -89.5v-398 h620v398q0 59 -5.5 89.5t-26 52t-53 29t-95.5 13.5v39h569v-39q-63 -6 -95.5 -13.5t-53 -29t-26 -52t-5.5 -89.5v-910q0 -109 32.5 -142t147.5 -42v-39z" />
<glyph unicode="&#x41e;" horiz-adv-x="1478" d="M1409 670q0 -204 -86 -363t-241.5 -247.5t-354.5 -88.5q-135 0 -263 56t-218 153q-83 89 -129.5 221t-46.5 277q0 152 50 283.5t137.5 224.5t212 145.5t269.5 52.5q301 0 498 -215q172 -187 172 -499zM1176 672q0 182 -45.5 321.5t-129.5 214.5q-115 103 -262 103 q-172 0 -293 -133q-65 -72 -104 -210t-39 -294q0 -170 47.5 -314.5t126.5 -214.5q114 -100 258 -100q164 0 273 109q73 73 100 149q68 176 68 369z" />
<glyph unicode="&#x41f;" horiz-adv-x="1464" d="M1423 0h-569v39q64 4 96.5 11.5t53 32t25.5 59.5t5 104v1020h-620v-1043q0 -109 32.5 -142t147.5 -42v-39h-569v39q64 4 96.5 11.5t53 32t25.5 59.5t5 104v887q0 59 -5.5 89.5t-26 52t-53 29t-95.5 13.5v39h1398v-39q-63 -6 -95.5 -13.5t-53 -29t-26 -52t-5.5 -89.5v-910 q0 -109 32.5 -142t147.5 -42v-39z" />
<glyph unicode="&#x420;" horiz-adv-x="1130" d="M1102 985q0 -102 -52.5 -189.5t-144.5 -136.5q-124 -69 -358 -69q-61 0 -141 6v-373q0 -59 6.5 -91.5t29 -54t57.5 -29t99 -9.5v-39h-573v39q63 6 93.5 13.5t50.5 31.5t24 58t4 104v887q0 110 -29 141t-143 43v39h540q145 0 268.5 -40.5t184.5 -107.5q84 -90 84 -223z M879 973q0 158 -98.5 232.5t-305.5 74.5q-41 0 -55 -14.5t-14 -55.5v-532q70 -6 116 -6q357 0 357 301z" />
</font>
</defs>
</svg>
